<?xml version="1.0" encoding="UTF-8"?>
<svg fill="#3979F8" xmlns="http://www.w3.org/2000/svg" viewBox="0 0 512 512" width="512" height="512"><g id="Outline"><path d="M496,88V304H480V88a24.028,24.028,0,0,0-24-24V304H440V64H72V384H232v16H56a40.045,40.045,0,0,1-40-40V120H32V360a24.028,24.028,0,0,0,24,24V64A24.028,24.028,0,0,0,32,88v16H16V88A40.045,40.045,0,0,1,56,48H456A40.045,40.045,0,0,1,496,88ZM256,336a112.27,112.27,0,0,0,51.7-12.624l-7.4-14.188A94.9,94.9,0,0,1,256,320a96.021,96.021,0,0,1-80.915-147.687l-13.474-8.626A112.019,112.019,0,0,0,256,336Zm0-224a111.054,111.054,0,0,0-80.82,34.461l11.544,11.078A95.086,95.086,0,0,1,248,128.324V224a8,8,0,0,0,8,8h95.671c-.187,2.276-.454,4.541-.8,6.78l15.813,2.44A113.26,113.26,0,0,0,368,224a8,8,0,0,0-8-8H264V120A8,8,0,0,0,256,112Zm144,80a8,8,0,0,1-8,8H288a8,8,0,0,1-8-8V88a8,8,0,0,1,8-8A112.127,112.127,0,0,1,400,192Zm-16.33-8A96.167,96.167,0,0,0,296,96.33V184ZM88,80V96h16V80Zm32,0V96h16V80Zm48,0H152V96h16ZM88,136h64V120H88Zm0,32h48V152H88Zm56,136H88v16h56Zm24,32H120v16h48ZM88,352h16V336H88Zm408-4V456a8,8,0,0,1-8,8H328a8,8,0,0,1-5.315-2.021l-64.59-57.41a29.786,29.786,0,0,1-6.87-8.951q-.314-.609-.586-1.219A30.079,30.079,0,0,1,278.08,352h.77a29.9,29.9,0,0,1,21.277,8.812L320,380.687V284a28,28,0,0,1,56,0v38.689a28,28,0,0,1,31.993,5.735c.071-.073.138-.148.21-.22a27.972,27.972,0,0,1,39.79.212c.069-.071.139-.142.21-.212A28,28,0,0,1,496,348Zm-16,0a12,12,0,0,0-24,0,8,8,0,0,1-16,0,12,12,0,0,0-24,0v12H400V348a12,12,0,0,0-24,0v12H360V284a12,12,0,0,0-24,0V400a8,8,0,0,1-13.657,5.657l-33.53-33.53A14.187,14.187,0,0,0,278.85,368h-.77a14.079,14.079,0,0,0-12.84,19.856c.071.16.146.315.227.471.018.035.036.07.054.107a14.06,14.06,0,0,0,3.209,4.181L331.042,448H480ZM416,80H376V96h40Zm0,48V112H392v16Z"/></g></svg>
