<svg height="512pt" viewBox="0 0 512.001 512" width="512pt" xmlns="http://www.w3.org/2000/svg"><path d="m320 191.53125h144v312.003906h-144zm0 0" fill="#cbf7f7"/><path d="m440 191.53125h24v312.003906h-24zm0 0" fill="#64e1dc"/><path d="m176 247.53125h144v256h-144zm0 0" fill="#ffee6e"/><path d="m296 247.53125h24v256h-24zm0 0" fill="#ffbc36"/><path d="m496 119.53125c0 61.855469-50.144531 112-112 112s-112-50.144531-112-112 50.144531-112 112-112 112 50.144531 112 112zm0 0" fill="#cdd2e1"/><path d="m440 159.53125s0 32-24 32-40 0-64 0-24-32-24-32c0-21.679688 12.242188-40.398438 30.242188-49.757812l25.757812 25.757812 25.761719-25.757812c18 9.359374 30.238281 28.078124 30.238281 49.757812zm0 0" fill="#ffee6e"/><path d="m384 103.53125c9.28125 0 18.082031 2.242188 25.761719 6.242188l-25.761719 25.757812-25.761719-25.757812c7.679688-4 16.480469-6.242188 25.761719-6.242188zm0 0" fill="#f2f6fc"/><path d="m384 39.53125c17.679688 0 32 14.320312 32 32 0 17.683594-14.320312 32-32 32s-32-14.316406-32-32c0-17.679688 14.320312-32 32-32zm0 0" fill="#ffbeaa"/><path d="m423.539062 119.996094c-4.046874-4.046875-8.640624-7.550782-13.777343-10.222656l-25.761719 25.757812-25.714844-25.714844-.136718.011719c-5.101563 2.664063-9.664063 6.144531-13.6875 10.167969l39.539062 39.535156zm0 0" fill="#ffbc36"/><path d="m32 335.53125h144v168.003906h-144zm0 0" fill="#ff636e"/><path d="m152 335.53125h24v168.003906h-24zm0 0" fill="#f03049"/><path d="m71.53125 407.53125h-15.0625v-47.53125h31.53125v15.0625h-16.46875zm0 0" fill="#fff"/><path d="m215.53125 319.53125h-15.0625v-47.53125h31.53125v15.0625h-16.46875zm0 0" fill="#fff"/><path d="m359.53125 295.53125h-15.0625v-47.53125h31.53125v15.0625h-16.46875zm0 0" fill="#fff"/><g fill="#231f20"><path d="m320.46875 159.53125c0 13.675781 6.589844 39.53125 31.53125 39.53125h64c24.941406 0 31.53125-25.855469 31.53125-39.53125 0-25.859375-15.542969-48.148438-37.769531-58.050781 8.421875-7.257813 13.769531-17.984375 13.769531-29.949219 0-21.796875-17.734375-39.53125-39.53125-39.53125s-39.53125 17.734375-39.53125 39.53125c0 11.960938 5.347656 22.691406 13.769531 29.949219-22.226562 9.902343-37.769531 32.1875-37.769531 58.050781zm63.53125-48.46875c4.230469 0 8.332031.550781 12.246094 1.570312l-12.246094 12.25-12.246094-12.25c3.914063-1.019531 8.015625-1.570312 12.246094-1.570312zm-24.46875-39.53125c0-13.492188 10.976562-24.46875 24.46875-24.46875s24.46875 10.976562 24.46875 24.46875-10.976562 24.46875-24.46875 24.46875-24.46875-10.976562-24.46875-24.46875zm-2.460938 47.722656 26.929688 26.929688 26.929688-26.929688c12.980468 8.703125 21.539062 23.5 21.539062 40.257813 0 .066406-.070312 7.046875-2.632812 13.671875-3.75 9.695312-9.691407 10.816406-13.835938 10.816406h-64c-4.140625 0-10.085938-1.121094-13.832031-10.816406-2.566407-6.625-2.636719-13.605469-2.636719-13.652344 0-16.765625 8.5625-31.570312 21.539062-40.277344zm0 0"/><path d="m471.53125 496.003906v-160.472656h-15.0625v160.472656h-128.9375v-271.144531c16.828125 9.054687 36.058594 14.203125 56.46875 14.203125 27.226562 0 52.351562-9.15625 72.46875-24.542969v97.011719h15.0625v-110.691406c19.84375-21.347656 32-49.933594 32-81.308594 0-65.910156-53.621094-119.53125-119.53125-119.53125-21.757812 0-43.0625 5.90625-61.605469 17.078125l7.773438 12.902344c16.195312-9.757813 34.8125-14.917969 53.832031-14.917969 57.601562 0 104.46875 46.867188 104.46875 104.46875 0 57.605469-46.867188 104.46875-104.46875 104.46875-57.605469 0-104.46875-46.863281-104.46875-104.46875 0-28.304688 11.136719-54.804688 31.355469-74.621094l-10.542969-10.757812c-23.132812 22.671875-35.875 52.992187-35.875 85.378906 0 39.109375 18.875 73.886719 48 95.707031v24.761719h-144v88h-144v168h-24.46875v15.0625h96v-15.0625h-56.46875v-152.9375h128.9375v152.941406h-48.46875v15.0625h392v-15.0625zm-288-240.941406h128.9375v240.9375h-128.9375zm0 0"/><path d="m45.324219 300.859375 98.207031-98.207031v-64l80.9375-80.9375v21.816406h15.0625v-47.53125h-47.53125v15.0625h21.816406l-85.347656 85.351562v64l-93.792969 93.792969zm0 0"/><path d="m184 184h16v15.0625h-16zm0 0"/><path d="m200 168h16v15.0625h-16zm0 0"/><path d="m200 200h16v15.0625h-16zm0 0"/><path d="m216 184h16v15.0625h-16zm0 0"/><path d="m32 176h16v15.0625h-16zm0 0"/><path d="m48 160h16v15.0625h-16zm0 0"/><path d="m48 192h16v15.0625h-16zm0 0"/><path d="m64 176h16v15.0625h-16zm0 0"/><path d="m80 72h16v15.0625h-16zm0 0"/><path d="m96 56h16v15.0625h-16zm0 0"/><path d="m96 88h16v15.0625h-16zm0 0"/><path d="m112 72h16v15.0625h-16zm0 0"/></g><path d="m56 424h16v15.0625h-16zm0 0" fill="#fff"/><path d="m200 336.003906h16v15.0625h-16zm0 0" fill="#fff"/><path d="m344 312h16v15.0625h-16zm0 0" fill="#fff"/></svg>