<svg id="Layer_5" enable-background="new 0 0 64 64" height="512" viewBox="0 0 64 64" width="512" xmlns="http://www.w3.org/2000/svg"><g><g><g><path d="m19 37v22c0 1.66-1.34 3-3 3-.83 0-1.58-.34-2.12-.88s-.88-1.29-.88-2.12v-18-.76c0-.79.32-1.56.88-2.12l1.12-1.12z" fill="#838f9b"/></g><g><path d="m15 37-1.12 1.12c-.56.56-.88 1.33-.88 2.12v.76 18c0 .83-.34 1.58-.88 2.12s-1.29.88-2.12.88c-1.66 0-3-1.34-3-3v-19-3z" fill="#838f9b"/></g><g><path d="m19 27.64c-.64 1.31-1 2.8-1 4.36s.36 3.05 1 4.36v.64h-4-8v3h-2c-1.66 0-3-1.34-3-3v-10c0-3.04 1.23-5.79 3.22-7.78.93-.93 2.02-1.69 3.24-2.24.41 2.86 1.34 5.62 2.74 8.15.32.6.67 1.18 1.05 1.75l.75 1.12.79-1.18c.36-.54.69-1.09 1.01-1.66v-.01c1.41-2.52 2.34-5.29 2.77-8.15 2.65 1.2 4.72 3.43 5.74 6.17-1.87.99-3.38 2.56-4.31 4.47z" fill="#ff826e"/></g><g><path d="m11.85 16.06-.65 9.07c-1.4-2.53-2.33-5.29-2.74-8.15 1.05-.48 2.19-.8 3.39-.92z" fill="#ccd1d9"/></g><g><path d="m54 24c4.42 0 8 3.58 8 8 0 2.26-.94 4.3-2.44 5.75-.89-2.2-3.04-3.75-5.56-3.75 1.66 0 3-1.34 3-3s-1.34-3-3-3-3 1.34-3 3 1.34 3 3 3c-2.52 0-4.67 1.55-5.56 3.75-1.5-1.45-2.44-3.49-2.44-5.75 0-4.42 3.58-8 8-8z" fill="#e6e9ed"/></g><g><path d="m54 34c2.52 0 4.67 1.55 5.56 3.75-1.44 1.39-3.4 2.25-5.56 2.25s-4.12-.86-5.56-2.25c.89-2.2 3.04-3.75 5.56-3.75z" fill="#4fc1e9"/></g><g><circle cx="54" cy="31" fill="#f0d0b4" r="3"/></g><g><path d="m46 2c4.42 0 8 3.58 8 8 0 2.26-.94 4.3-2.44 5.75-.89-2.2-3.04-3.75-5.56-3.75 1.66 0 3-1.34 3-3s-1.34-3-3-3-3 1.34-3 3 1.34 3 3 3c-2.52 0-4.67 1.55-5.56 3.75-1.5-1.45-2.44-3.49-2.44-5.75 0-4.42 3.58-8 8-8z" fill="#e6e9ed"/></g><g><path d="m46 46c4.42 0 8 3.58 8 8 0 2.26-.94 4.3-2.44 5.75-.89-2.2-3.04-3.75-5.56-3.75 1.66 0 3-1.34 3-3s-1.34-3-3-3-3 1.34-3 3 1.34 3 3 3c-2.52 0-4.67 1.55-5.56 3.75-1.5-1.45-2.44-3.49-2.44-5.75 0-3.25 1.93-6.04 4.71-7.29 1-.46 2.12-.71 3.29-.71z" fill="#e6e9ed"/></g><g><path d="m46 12c2.52 0 4.67 1.55 5.56 3.75-1.44 1.39-3.4 2.25-5.56 2.25-1.17 0-2.29-.25-3.29-.71-.84-.38-1.61-.9-2.27-1.54.89-2.2 3.04-3.75 5.56-3.75z" fill="#b4dd7f"/></g><g><path d="m46 56c2.52 0 4.67 1.55 5.56 3.75-1.44 1.39-3.4 2.25-5.56 2.25s-4.12-.86-5.56-2.25c.89-2.2 3.04-3.75 5.56-3.75z" fill="#b4dd7f"/></g><g><circle cx="46" cy="9" fill="#f0d0b4" r="3"/></g><g><circle cx="46" cy="53" fill="#f0d0b4" r="3"/></g><g><path d="m35.07 24.93c1.81 1.81 2.93 4.31 2.93 7.07s-1.12 5.26-2.93 7.07-4.31 2.93-7.07 2.93c-3.96 0-7.38-2.3-9-5.64-.64-1.31-1-2.8-1-4.36s.36-3.05 1-4.36c.93-1.91 2.44-3.48 4.31-4.47 1.4-.75 3-1.17 4.69-1.17 2.76 0 5.26 1.12 7.07 2.93z" fill="#fcd770"/></g><g><circle cx="13" cy="9" fill="#f0d0b4" r="7"/></g><g><path d="m17.57 16.99v.01c-.43 2.86-1.36 5.63-2.77 8.15l-.65-9.09c1.21.12 2.36.44 3.42.93z" fill="#ccd1d9"/></g><g><path d="m14.15 16.06.65 9.09v.01c-.32.57-.65 1.12-1.01 1.66l-.79 1.18-.75-1.12c-.38-.57-.73-1.15-1.05-1.75l.65-9.07c.38-.04.76-.06 1.15-.06s.77.02 1.15.06z" fill="#fc6e51"/></g></g><g><path d="m38.949 33h6.11c.5 4.493 4.317 8 8.941 8 4.962 0 9-4.038 9-9s-4.038-9-9-9c-4.624 0-8.441 3.507-8.941 8h-6.11c-.207-2.283-1.111-4.366-2.501-6.034l6.508-6.508c.952.345 1.974.542 3.044.542 4.962 0 9-4.038 9-9s-4.038-9-9-9-9 4.038-9 9c0 3.141 1.621 5.908 4.067 7.519l-6.033 6.033c-1.909-1.591-4.361-2.552-7.034-2.552-1.478 0-2.886.297-4.174.828-1.349-2.815-3.745-4.963-6.603-6.046 2.263-1.415 3.777-3.922 3.777-6.782 0-4.411-3.589-8-8-8s-8 3.589-8 8c0 2.86 1.514 5.367 3.777 6.782-4.536 1.714-7.777 6.089-7.777 11.218v10c0 2.206 1.794 4 4 4h1v18c0 2.206 1.794 4 4 4 1.2 0 2.266-.542 3-1.382.734.84 1.8 1.382 3 1.382 2.206 0 4-1.794 4-4v-19.474c2.008 2.133 4.847 3.474 8 3.474 2.673 0 5.125-.961 7.034-2.552l6.033 6.033c-2.446 1.611-4.067 4.378-4.067 7.519 0 4.962 4.038 9 9 9s9-4.038 9-9-4.038-9-9-9c-1.07 0-2.092.197-3.044.541l-6.508-6.508c1.391-1.667 2.294-3.75 2.501-6.033zm2.73-17.504c.885-1.534 2.513-2.496 4.321-2.496s3.436.962 4.321 2.496c-1.191.939-2.69 1.504-4.321 1.504s-3.13-.565-4.321-1.504zm2.321-6.496c0-1.103.897-2 2-2s2 .897 2 2-.897 2-2 2-2-.897-2-2zm2-6c3.86 0 7 3.14 7 7 0 1.492-.473 2.873-1.271 4.01-.708-1.021-1.655-1.834-2.763-2.351.635-.708 1.034-1.634 1.034-2.659 0-2.206-1.794-4-4-4s-4 1.794-4 4c0 1.025.399 1.951 1.034 2.659-1.108.517-2.055 1.33-2.763 2.351-.798-1.137-1.271-2.518-1.271-4.01 0-3.86 3.14-7 7-7zm-4.321 56.496c.885-1.534 2.513-2.496 4.321-2.496s3.436.962 4.321 2.496c-1.191.939-2.69 1.504-4.321 1.504s-3.13-.565-4.321-1.504zm2.321-6.496c0-1.103.897-2 2-2s2 .897 2 2-.897 2-2 2-2-.897-2-2zm9 1c0 1.492-.473 2.873-1.271 4.01-.708-1.021-1.655-1.834-2.763-2.351.635-.708 1.034-1.634 1.034-2.659 0-2.206-1.794-4-4-4s-4 1.794-4 4c0 1.025.399 1.951 1.034 2.659-1.108.517-2.055 1.33-2.763 2.351-.798-1.137-1.271-2.518-1.271-4.01 0-3.86 3.14-7 7-7s7 3.14 7 7zm-3.321-16.504c.885-1.534 2.513-2.496 4.321-2.496s3.436.962 4.321 2.496c-1.191.939-2.69 1.504-4.321 1.504s-3.13-.565-4.321-1.504zm2.321-6.496c0-1.103.897-2 2-2s2 .897 2 2-.897 2-2 2-2-.897-2-2zm2-6c3.86 0 7 3.14 7 7 0 1.492-.473 2.873-1.271 4.01-.708-1.021-1.655-1.834-2.763-2.351.635-.708 1.034-1.634 1.034-2.659 0-2.206-1.794-4-4-4s-4 1.794-4 4c0 1.025.399 1.951 1.034 2.659-1.108.517-2.055 1.33-2.763 2.351-.798-1.137-1.271-2.518-1.271-4.01 0-3.86 3.14-7 7-7zm-44.413-7.387c.383-.14.775-.259 1.178-.352l-.272 3.81c-.391-1.129-.695-2.286-.906-3.458zm3.201-.602c.071-.002.14-.011.212-.011.071 0 .141.007.212.008l.565 7.914c-.247.433-.503.86-.778 1.275-.274-.418-.53-.848-.777-1.283zm2.723 4.104-.276-3.857c.411.095.812.221 1.205.366-.217 1.184-.529 2.352-.929 3.491zm-8.511-12.115c0-3.309 2.691-6 6-6s6 2.691 6 6-2.691 6-6 6-6-2.691-6-6zm-2 30c-1.103 0-2-.897-2-2v-10c0-3.574 1.891-6.707 4.718-8.476.646 3.168 1.912 6.224 3.703 8.911l1.579 2.368 1.618-2.426c1.776-2.665 3.037-5.695 3.688-8.836 1.604 1.007 2.924 2.457 3.751 4.218-.755.487-1.443 1.064-2.056 1.715v-2.474h-2v5.444c-.636 1.39-1 2.93-1 4.556 0 1.412.277 2.758.764 4h-9.765v-14h-2v17zm5 22c-1.103 0-2-.897-2-2v-21h4.69c-.447.657-.69 1.431-.69 2.243v.757 18c0 1.103-.897 2-2 2zm6 0c-1.103 0-2-.897-2-2v-18-.757c0-.534.208-1.037.586-1.415l.828-.828h2.586v21c0 1.103-.897 2-2 2zm12-20c-4.962 0-9-4.038-9-9s4.038-9 9-9 9 4.038 9 9-4.038 9-9 9z"/><path d="m29 29c.551 0 1 .449 1 1h2c0-1.654-1.346-3-3-3v-2h-2v2h-3v3c0 1.654 1.346 3 3 3h2c.551 0 1 .449 1 1v1h-3c-.551 0-1-.449-1-1h-2c0 1.654 1.346 3 3 3v2h2v-2h3v-3c0-1.654-1.346-3-3-3h-2c-.551 0-1-.449-1-1v-1z"/></g></g></svg>