<svg height="512" viewBox="0 0 512 512" width="512" xmlns="http://www.w3.org/2000/svg"><g id="filled_outline" data-name="filled outline"><path d="m355.077 319.267h16v87.62h-16z" fill="#6b9777" transform="matrix(.707 -.707 .707 .707 -150.391 363.076)"/><path d="m318.959 142.255h85.573v16h-85.573z" fill="#6b9777" transform="matrix(.707 -.707 .707 .707 -.293 299.801)"/><circle cx="424" cy="88" fill="#f3af3e" r="64"/><circle cx="424" cy="424" fill="#f3af3e" r="64"/><path d="m105.114 355.077h87.62v16h-87.62z" fill="#6b9777" transform="matrix(.707 -.707 .707 .707 -213.115 211.647)"/><path d="m142.255 107.468h16v85.573h-16z" fill="#6b9777" transform="matrix(.707 -.707 .707 .707 -62.238 150.255)"/><circle cx="256" cy="256" fill="#75caf9" r="128"/><circle cx="88" cy="88" fill="#f3af3e" r="64"/><path d="m97.276 83.073-14.676-3.668a3.439 3.439 0 0 1 -.7-6.411 13.7 13.7 0 0 1 12.2 0l6.323 3.161a8 8 0 0 0 7.156-14.31l-6.323-3.162a29.273 29.273 0 0 0 -5.256-2.012v-11.671h-16v11.671a29.273 29.273 0 0 0 -5.255 2.012 19.438 19.438 0 0 0 3.979 36.244l14.676 3.673a3.439 3.439 0 0 1 .7 6.411 13.708 13.708 0 0 1 -12.2 0l-6.323-3.161a8 8 0 0 0 -7.156 14.31l6.323 3.162a29.273 29.273 0 0 0 5.256 2.007v11.671h16v-11.671a29.273 29.273 0 0 0 5.255-2.012 19.438 19.438 0 0 0 -3.979-36.244z" fill="#da922a"/><circle cx="88" cy="424" fill="#f3af3e" r="64"/><g fill="#da922a"><path d="m97.276 419.073-14.676-3.668a3.439 3.439 0 0 1 -.7-6.411 13.7 13.7 0 0 1 12.2 0l6.323 3.161a8 8 0 1 0 7.156-14.31l-6.323-3.162a29.273 29.273 0 0 0 -5.256-2.012v-11.671h-16v11.671a29.273 29.273 0 0 0 -5.255 2.012 19.438 19.438 0 0 0 3.979 36.244l14.676 3.673a3.439 3.439 0 0 1 .7 6.411 13.708 13.708 0 0 1 -12.2 0l-6.323-3.161a8 8 0 1 0 -7.156 14.31l6.323 3.162a29.273 29.273 0 0 0 5.256 2.007v11.671h16v-11.671a29.273 29.273 0 0 0 5.255-2.012 19.438 19.438 0 0 0 -3.979-36.244z"/><path d="m414.724 94.927 14.676 3.673a3.439 3.439 0 0 1 .7 6.411 13.708 13.708 0 0 1 -12.2 0l-6.323-3.161a8 8 0 0 0 -7.156 14.31l6.323 3.162a29.273 29.273 0 0 0 5.256 2.007v11.671h16v-11.671a29.273 29.273 0 0 0 5.255-2.012 19.438 19.438 0 0 0 -3.979-36.244l-14.676-3.668a3.439 3.439 0 0 1 -.7-6.411 13.7 13.7 0 0 1 12.2 0l6.323 3.161a8 8 0 1 0 7.156-14.31l-6.323-3.162a29.273 29.273 0 0 0 -5.256-2.012v-11.671h-16v11.671a29.273 29.273 0 0 0 -5.255 2.012 19.438 19.438 0 0 0 3.979 36.244z"/><path d="m433.276 419.073-14.676-3.668a3.439 3.439 0 0 1 -.7-6.411 13.7 13.7 0 0 1 12.2 0l6.323 3.161a8 8 0 0 0 7.156-14.31l-6.323-3.162a29.273 29.273 0 0 0 -5.256-2.012v-11.671h-16v11.671a29.273 29.273 0 0 0 -5.255 2.012 19.438 19.438 0 0 0 3.979 36.244l14.676 3.673a3.439 3.439 0 0 1 .7 6.411 13.708 13.708 0 0 1 -12.2 0l-6.323-3.161a8 8 0 1 0 -7.156 14.31l6.323 3.162a29.273 29.273 0 0 0 5.256 2.007v11.671h16v-11.671a29.273 29.273 0 0 0 5.255-2.012 19.438 19.438 0 0 0 -3.979-36.244z"/></g><path d="m268.562 310.656-72-48a8 8 0 0 1 0-13.312l72-48 8.875 13.312-62.015 41.344 62.015 41.344z" fill="#c0f5f9"/><circle cx="289" cy="199" fill="#4799cf" r="25"/><circle cx="289" cy="313" fill="#4799cf" r="25"/><circle cx="201" cy="256" fill="#4799cf" r="25"/><path d="m97.276 83.073-14.676-3.668a3.439 3.439 0 0 1 -.7-6.411 13.7 13.7 0 0 1 12.2 0l6.323 3.161a8 8 0 0 0 7.156-14.31l-6.323-3.162a29.273 29.273 0 0 0 -5.256-2.012v-11.671h-16v11.671a29.273 29.273 0 0 0 -5.255 2.012 19.438 19.438 0 0 0 3.979 36.244l14.676 3.673a3.439 3.439 0 0 1 .7 6.411 13.708 13.708 0 0 1 -12.2 0l-6.323-3.161a8 8 0 0 0 -7.156 14.31l6.323 3.162a29.273 29.273 0 0 0 5.256 2.007v11.671h16v-11.671a29.273 29.273 0 0 0 5.255-2.012 19.438 19.438 0 0 0 -3.979-36.244z"/><path d="m424 352a71.633 71.633 0 0 0 -44.906 15.781l-21.437-21.438-.845.845a135.733 135.733 0 0 0 .794-181.481l21.488-21.488a72.118 72.118 0 1 0 -11.313-11.313l-21.488 21.488a135.718 135.718 0 0 0 -180.586 0l-21.488-21.488a72.118 72.118 0 1 0 -11.313 11.313l21.488 21.488a135.718 135.718 0 0 0 0 180.586l-21.488 21.488a72.118 72.118 0 1 0 11.313 11.313l21.488-21.488a135.733 135.733 0 0 0 181.481-.794l-.845.845 21.438 21.437a71.959 71.959 0 1 0 56.219-27.094zm0-320a56 56 0 1 1 -56 56 56.064 56.064 0 0 1 56-56zm-336 112a56 56 0 1 1 56-56 56.064 56.064 0 0 1 -56 56zm0 336a56 56 0 1 1 56-56 56.064 56.064 0 0 1 -56 56zm168-104a120 120 0 1 1 120-120 120.136 120.136 0 0 1 -120 120zm168 104a56 56 0 1 1 56-56 56.064 56.064 0 0 1 -56 56z"/><path d="m97.276 419.073-14.676-3.668a3.439 3.439 0 0 1 -.7-6.411 13.7 13.7 0 0 1 12.2 0l6.323 3.161a8 8 0 1 0 7.156-14.31l-6.323-3.162a29.273 29.273 0 0 0 -5.256-2.012v-11.671h-16v11.671a29.273 29.273 0 0 0 -5.255 2.012 19.438 19.438 0 0 0 3.979 36.244l14.676 3.673a3.439 3.439 0 0 1 .7 6.411 13.708 13.708 0 0 1 -12.2 0l-6.323-3.161a8 8 0 1 0 -7.156 14.31l6.323 3.162a29.273 29.273 0 0 0 5.256 2.007v11.671h16v-11.671a29.273 29.273 0 0 0 5.255-2.012 19.438 19.438 0 0 0 -3.979-36.244z"/><path d="m414.724 94.927 14.676 3.673a3.439 3.439 0 0 1 .7 6.411 13.708 13.708 0 0 1 -12.2 0l-6.323-3.161a8 8 0 0 0 -7.156 14.31l6.323 3.162a29.273 29.273 0 0 0 5.256 2.007v11.671h16v-11.671a29.273 29.273 0 0 0 5.255-2.012 19.438 19.438 0 0 0 -3.979-36.244l-14.676-3.668a3.439 3.439 0 0 1 -.7-6.411 13.7 13.7 0 0 1 12.2 0l6.323 3.161a8 8 0 1 0 7.156-14.31l-6.323-3.162a29.273 29.273 0 0 0 -5.256-2.012v-11.671h-16v11.671a29.273 29.273 0 0 0 -5.255 2.012 19.438 19.438 0 0 0 3.979 36.244z"/><path d="m433.276 419.073-14.676-3.668a3.439 3.439 0 0 1 -.7-6.411 13.7 13.7 0 0 1 12.2 0l6.323 3.161a8 8 0 0 0 7.156-14.31l-6.323-3.162a29.273 29.273 0 0 0 -5.256-2.012v-11.671h-16v11.671a29.273 29.273 0 0 0 -5.255 2.012 19.438 19.438 0 0 0 3.979 36.244l14.676 3.673a3.439 3.439 0 0 1 .7 6.411 13.708 13.708 0 0 1 -12.2 0l-6.323-3.161a8 8 0 1 0 -7.156 14.31l6.323 3.162a29.273 29.273 0 0 0 5.256 2.007v11.671h16v-11.671a29.273 29.273 0 0 0 5.255-2.012 19.438 19.438 0 0 0 -3.979-36.244z"/><path d="m289 232a32.992 32.992 0 1 0 -31.533-23.263l-34.281 22.854a33 33 0 1 0 0 48.818l34.281 22.854a33.086 33.086 0 1 0 8.314-13.687l-33.708-22.476a32.956 32.956 0 0 0 0-22.208l33.708-22.472a32.894 32.894 0 0 0 23.219 9.58zm0-50a17 17 0 1 1 -17 17 17.019 17.019 0 0 1 17-17zm-88 91a17 17 0 1 1 17-17 17.019 17.019 0 0 1 -17 17zm88 23a17 17 0 1 1 -17 17 17.019 17.019 0 0 1 17-17z"/></g></svg>