<?xml version="1.0" encoding="iso-8859-1"?>
<!-- Generator: Adobe Illustrator 19.0.0, SVG Export Plug-In . SVG Version: 6.00 Build 0)  -->
<svg version="1.1" fill="#1B5083" id="Capa_1" xmlns="http://www.w3.org/2000/svg" xmlns:xlink="http://www.w3.org/1999/xlink" x="0px" y="0px"
	 viewBox="0 0 512 512" style="enable-background:new 0 0 512 512;" xml:space="preserve">
<g>
	<g>
		<path d="M324.267,0H187.733c-4.71,0-8.533,3.823-8.533,8.533v34.133c0,4.71,3.823,8.533,8.533,8.533h136.533
			c4.71,0,8.533-3.823,8.533-8.533V8.533C332.8,3.823,328.977,0,324.267,0z M315.733,34.133H196.267V17.067h119.467V34.133z"/>
	</g>
</g>
<g>
	<g>
		<path d="M341.333,324.267H170.667c-4.71,0-8.533,3.823-8.533,8.533v34.133c0,4.71,3.823,8.533,8.533,8.533h170.667
			c4.71,0,8.533-3.823,8.533-8.533V332.8C349.867,328.09,346.044,324.267,341.333,324.267z M332.8,358.4H179.2v-17.067h153.6V358.4z
			"/>
	</g>
</g>
<g>
	<g>
		<path d="M494.933,17.067H324.267c-4.71,0-8.533,3.823-8.533,8.533v8.533H196.267V25.6c0-4.71-3.823-8.533-8.533-8.533H17.067
			c-4.71,0-8.533,3.823-8.533,8.533v324.267c0,4.71,3.823,8.533,8.533,8.533h153.6c4.71,0,8.533-3.823,8.533-8.533v-8.533h153.6
			v8.533c0,4.71,3.823,8.533,8.533,8.533h153.6c4.71,0,8.533-3.823,8.533-8.533V25.6C503.467,20.89,499.644,17.067,494.933,17.067z
			 M486.4,341.333H349.867V332.8c0-4.71-3.823-8.533-8.533-8.533H170.667c-4.71,0-8.533,3.823-8.533,8.533v8.533H25.6v-307.2h153.6
			v8.533c0,4.71,3.823,8.533,8.533,8.533h136.533c4.71,0,8.533-3.823,8.533-8.533v-8.533h153.6V341.333z"/>
	</g>
</g>
<g>
	<g>
		<path d="M256,358.4c-4.71,0-8.533,3.823-8.533,8.533v136.533c0,4.71,3.823,8.533,8.533,8.533s8.533-3.823,8.533-8.533V366.933
			C264.533,362.223,260.71,358.4,256,358.4z"/>
	</g>
</g>
<g>
	<g>
		<path d="M219.366,360.9c-3.337-3.336-8.73-3.336-12.066,0L70.767,497.434c-3.336,3.337-3.336,8.73,0,12.066
			c1.664,1.664,3.849,2.5,6.033,2.5s4.369-0.836,6.033-2.5l136.533-136.533C222.703,369.63,222.703,364.237,219.366,360.9z"/>
	</g>
</g>
<g>
	<g>
		<path d="M441.233,497.434L304.7,360.9c-3.337-3.336-8.73-3.337-12.066,0s-3.337,8.73,0,12.066L429.167,509.5
			c1.664,1.664,3.849,2.5,6.033,2.5s4.369-0.836,6.033-2.5C444.57,506.163,444.57,500.77,441.233,497.434z"/>
	</g>
</g>
<g>
	<g>
		<path d="M141.389,85.333H89.011c-6.733,0-12.211,5.478-12.211,12.211v180.378c0,6.733,5.478,12.211,12.211,12.211h52.378
			c6.733,0,12.211-5.478,12.211-12.211V97.545C153.6,90.812,148.122,85.333,141.389,85.333z M136.533,273.067H93.867V102.4h42.667
			V273.067z"/>
	</g>
</g>
<g>
	<g>
		<path d="M235.255,179.2h-52.378c-6.733,0-12.211,5.478-12.211,12.211v86.511c0,6.733,5.478,12.211,12.211,12.211h52.378
			c6.733,0,12.211-5.478,12.211-12.211v-86.511C247.467,184.678,241.988,179.2,235.255,179.2z M230.4,273.067h-42.667v-76.8H230.4
			V273.067z"/>
	</g>
</g>
<g>
	<g>
		<path d="M422.989,179.2h-52.378c-6.733,0-12.211,5.478-12.211,12.211v86.511c0,6.733,5.478,12.211,12.211,12.211h52.378
			c6.733,0,12.211-5.478,12.211-12.211v-86.511C435.2,184.678,429.722,179.2,422.989,179.2z M418.133,273.067h-42.667v-76.8h42.667
			V273.067z"/>
	</g>
</g>
<g>
	<g>
		<path d="M329.122,119.467h-52.378c-6.733,0-12.211,5.478-12.211,12.211v146.244c0,6.733,5.478,12.211,12.211,12.211h52.378
			c6.733,0,12.211-5.478,12.211-12.211V131.678C341.333,124.945,335.855,119.467,329.122,119.467z M324.267,273.067H281.6V136.533
			h42.667V273.067z"/>
	</g>
</g>
<g>
	<g>
		<path d="M452.267,273.067H59.733c-4.71,0-8.533,3.823-8.533,8.533s3.823,8.533,8.533,8.533h392.533
			c4.71,0,8.533-3.823,8.533-8.533S456.977,273.067,452.267,273.067z"/>
	</g>
</g>
<g>
	<g>
		<path d="M401.067,68.267h-34.133c-4.71,0-8.533,3.823-8.533,8.533s3.823,8.533,8.533,8.533h34.133c4.71,0,8.533-3.823,8.533-8.533
			S405.777,68.267,401.067,68.267z"/>
	</g>
</g>
<g>
	<g>
		<path d="M452.267,68.267H435.2c-4.71,0-8.533,3.823-8.533,8.533s3.823,8.533,8.533,8.533h17.067c4.71,0,8.533-3.823,8.533-8.533
			S456.977,68.267,452.267,68.267z"/>
	</g>
</g>
<g>
	<g>
		<path d="M452.267,102.4h-34.133c-4.71,0-8.533,3.823-8.533,8.533s3.823,8.533,8.533,8.533h34.133c4.71,0,8.533-3.823,8.533-8.533
			S456.977,102.4,452.267,102.4z"/>
	</g>
</g>
<g>
	<g>
		<path d="M384,102.4h-17.067c-4.71,0-8.533,3.823-8.533,8.533s3.823,8.533,8.533,8.533H384c4.71,0,8.533-3.823,8.533-8.533
			S388.71,102.4,384,102.4z"/>
	</g>
</g>
<g>
</g>
<g>
</g>
<g>
</g>
<g>
</g>
<g>
</g>
<g>
</g>
<g>
</g>
<g>
</g>
<g>
</g>
<g>
</g>
<g>
</g>
<g>
</g>
<g>
</g>
<g>
</g>
<g>
</g>
</svg>
