<svg id="Capa_1" fill="#3979F8" enable-background="new 0 0 512 512" height="512" viewBox="0 0 512 512" width="512" xmlns="http://www.w3.org/2000/svg"><g><path d="m272.864 69.223c37.978 3.399 73.556 18.155 102.887 42.675 1.401 1.171 3.111 1.749 4.818 1.749 1.932 0 3.858-.742 5.319-2.204l38.298-38.346c1.472-1.474 2.266-3.492 2.193-5.574-.072-2.082-1.007-4.04-2.578-5.407-42.238-36.734-94.018-58.207-149.743-62.097-2.085-.148-4.126.579-5.649 2.001-1.524 1.421-2.389 3.411-2.389 5.496v54.223c0 3.89 2.969 7.138 6.844 7.484zm8.185-53.518c46.716 4.804 90.226 22.851 126.72 52.56l-27.738 27.773c-28.817-22.491-62.784-36.58-98.982-41.055z"/><path d="m449.342 87.69c-1.367-1.576-3.328-2.512-5.413-2.586-2.085-.075-4.107.724-5.58 2.2l-38.298 38.346c-2.746 2.749-2.943 7.138-.454 10.123 27.98 33.555 43.389 76.142 43.389 119.914 0 17.372-2.374 34.57-7.055 51.115-1.13 3.994 1.192 8.147 5.185 9.277 3.994 1.13 8.147-1.192 9.277-5.185 5.058-17.877 7.622-36.451 7.622-55.207 0-44.986-15.069-88.814-42.567-124.187l27.734-27.769c34.742 42.874 53.788 96.517 53.788 151.955s-19.046 109.081-53.788 151.956l-27.733-27.767c9.577-12.309 17.702-25.676 24.197-39.821 1.732-3.772.078-8.233-3.693-9.965-3.775-1.731-8.233-.078-9.965 3.694-6.895 15.016-15.775 29.086-26.392 41.818-2.489 2.984-2.292 7.374.454 10.123l38.298 38.346c1.412 1.414 3.326 2.204 5.317 2.204.087 0 .175-.001.263-.005 2.085-.073 4.046-1.01 5.413-2.586 40.407-46.573 62.659-106.235 62.659-167.995s-22.252-121.423-62.658-167.998z"/><path d="m385.888 399.933c-2.75-2.754-7.148-2.953-10.137-.456-33.511 28.014-76.04 43.442-119.751 43.442-103.105 0-186.986-83.991-186.986-187.231 0-47.067 17.51-92.055 49.303-126.676 31.6-34.411 74.508-55.644 120.819-59.788 3.875-.347 6.844-3.594 6.844-7.485v-54.223c0-2.084-.865-4.074-2.389-5.496-1.524-1.421-3.571-2.146-5.649-2.001-64.521 4.505-124.48 33.098-168.834 80.514-44.565 47.642-69.108 109.847-69.108 175.155 0 54.546 16.885 106.624 48.83 150.602 2.44 3.359 7.14 4.103 10.497 1.664s4.102-7.139 1.663-10.497c-30.068-41.394-45.961-90.417-45.961-141.769 0-61.482 23.104-120.04 65.055-164.888 39.903-42.658 93.215-69.132 150.867-75.092v39.276c-47.418 5.878-91.128 28.389-123.704 63.862-34.347 37.401-53.263 85.999-53.263 136.842 0 111.527 90.624 202.26 202.016 202.26 44.928 0 88.7-15.085 124.029-42.612l27.737 27.772c-42.821 34.791-96.396 53.863-151.766 53.863-34.091 0-67.035-6.981-97.918-20.751-29.84-13.304-56.296-32.25-78.63-56.314-2.824-3.042-7.578-3.218-10.62-.395-3.041 2.823-3.218 7.578-.395 10.62 23.722 25.557 51.824 45.681 83.525 59.816 32.821 14.633 67.825 22.053 104.038 22.053 61.688 0 121.281-22.281 167.8-62.74 1.571-1.367 2.506-3.325 2.578-5.407.073-2.082-.721-4.1-2.193-5.574z"/><path d="m287.42 216.9c-4.151 0-7.515 3.365-7.515 7.515v11.488c0 4.15 3.364 7.515 7.515 7.515s7.515-3.365 7.515-7.515v-11.488c-.001-4.15-3.364-7.515-7.515-7.515z"/><path d="m232.095 224.415c0-4.15-3.364-7.515-7.515-7.515s-7.515 3.365-7.515 7.515v11.488c0 4.15 3.364 7.515 7.515 7.515s7.515-3.365 7.515-7.515z"/><path d="m274.388 263.019c-3.086 0-5.736 1.862-6.892 4.523 0 0-.004-.003-.004-.003-.263.542-2.822 5.291-11.492 5.291s-11.229-4.749-11.492-5.291c0 0-.003.003-.004.003-1.157-2.661-3.806-4.523-6.892-4.523-4.15 0-7.515 3.365-7.515 7.515 0 1.189.283 2.308.775 3.307 2.406 5.387 10.188 14.019 25.128 14.019s22.722-8.632 25.128-14.019c.491-.999.775-2.119.775-3.307 0-4.151-3.365-7.515-7.515-7.515z"/><path d="m203.562 111.894c1.603 3.829 6.007 5.634 9.834 4.029 18.081-7.57 35.818-8.387 42.605-8.387 22.181 0 34.462 12.299 34.941 12.788 1.726 1.812 4.283 2.639 6.744 2.217.16-.027 16.332-2.649 29.816 7.261 18.476 13.578 22.535 44.544 15.531 68.113-1.836-.337-3.724-.522-5.655-.522-3.497 0-6.893.573-10.141 1.692-7.837-4.274-17.128-12.283-27.087-23.391-8.722-9.727-14.835-18.382-14.893-18.466-1.192-1.696-3.031-2.823-5.082-3.117-2.055-.294-4.135.273-5.753 1.564-.487.388-48.333 38.237-88.253 43.935-3.668-1.465-7.539-2.217-11.544-2.217-2.097 0-4.145.211-6.127.607-2.576-29.161 4.695-51.834 21.671-67.485 3.051-2.813 3.245-7.567.43-10.619-2.813-3.051-7.568-3.244-10.618-.431-21.755 20.058-30.431 48.844-25.834 85.603-6.593 5.734-10.773 14.173-10.773 23.576 0 17.232 14.019 31.251 31.25 31.251 1.197 0 2.383-.067 3.555-.199 2.656 21.475 14.029 40.28 30.449 52.775-15.148 8.04-39.767 25.307-58.23 58.781-1.741 3.156-.996 7.102 1.775 9.406 29.08 24.186 65.954 37.505 103.828 37.505s74.748-13.319 103.828-37.505c2.771-2.304 3.516-6.251 1.775-9.406-18.463-33.474-43.082-50.741-58.23-58.781 16.42-12.495 27.793-31.299 30.449-52.775 1.172.132 2.357.199 3.555.199 17.232 0 31.25-14.019 31.25-31.251 0-9.878-4.612-18.694-11.79-24.425 5.002-15.079 5.994-31.543 2.742-47.013-3.552-16.897-12-31.299-23.178-39.514-14.34-10.539-30.31-10.886-37.501-10.383-5.935-4.895-20.694-14.802-42.9-14.802-9.558 0-28.556 1.241-48.409 9.554-3.83 1.602-5.633 6.005-4.03 9.833zm-26.002 132.708c-.96.175-1.94.263-2.936.263-8.944 0-16.221-7.277-16.221-16.222 0-8.944 7.277-16.221 16.221-16.221.996 0 1.977.088 2.936.263zm46.653 155.049c-20.775-4.594-40.44-13.641-57.482-26.609 18.44-30.236 42.378-44.295 53.652-49.588l12.128 30.739zm31.787 3.484c-5.69 0-11.353-.338-16.965-.99l7.522-41.199h18.886l7.523 41.199c-5.613.652-11.276.99-16.966.99zm10.597-57.219h-21.194l-7.745-19.628c5.886 1.416 12.027 2.171 18.342 2.171s12.456-.754 18.342-2.171zm40.84-13.364c10.603 7.306 25.394 20.101 37.831 40.49-17.042 12.968-36.706 22.015-57.481 26.609l-8.3-45.457 12.136-30.759c3.986 1.854 9.521 4.78 15.814 9.117zm11.974-82.595v.06c0 34.965-28.446 63.411-63.411 63.411s-63.411-28.446-63.411-63.411v-.06-36.178c17.387-3.263 37.352-11.573 59.465-24.765 10.97-6.543 19.968-12.82 25.55-16.907 7.898 10.204 24.693 30.194 41.807 39.827zm34.187-21.313c0 8.945-7.277 16.222-16.221 16.222-.996 0-1.977-.088-2.936-.263v-31.916c.96-.175 1.94-.263 2.936-.263 8.944-.001 16.221 7.276 16.221 16.22z"/></g></svg>