<svg id="Filled_expand" height="512" viewBox="0 0 512 512" width="512" xmlns="http://www.w3.org/2000/svg" data-name="Filled expand"><g><g><path d="m56 24h400v280h-400z" fill="#fffdfa"/><g><path d="m360 248h128v96h-128z" fill="#ecfbf9"/><path d="m360 248h128v32h-128z" fill="#57cee6"/></g><g><path d="m192 248h128v96h-128z" fill="#ecfbf9"/><path d="m192 248h128v32h-128z" fill="#57cee6"/></g><path d="m192 112h128v96h-128z" fill="#fffdfa"/><path d="m192 112h128v32h-128z" fill="#fa5d3f"/><path d="m56 24h400v48h-400z" fill="#fac850"/><path d="m416 40h16v16h-16z"/><path d="m144 40h16v16h-16z"/><path d="m80 40h16v16h-16z"/><path d="m112 40h16v16h-16z"/><path d="m456 16h-312v16h304v32h-384v-32h64v-16h-72a8 8 0 0 0 -8 8v200h16v-144h384v136h16v-192a8 8 0 0 0 -8-8z"/></g><g><g><g><path d="m24 248h128v96h-128z" fill="#ecfbf9"/><path d="m24 248h128v32h-128z" fill="#57cee6"/></g><path d="m320 104h-128a8 8 0 0 0 -8 8v96a8 8 0 0 0 8 8h128a8 8 0 0 0 8-8v-96a8 8 0 0 0 -8-8zm-8 16v16h-112v-16zm-112 80v-48h112v48z"/></g><g><path d="m192 392h128v96h-128z" fill="#f5f1ff"/><path d="m192 392h128v32h-128z" fill="#c85aed"/></g><g><path d="m24 392h128v96h-128z" fill="#f5f1ff"/><path d="m24 392h128v32h-128z" fill="#c85aed"/></g><g><path d="m360 392h128v96h-128z" fill="#f5f1ff"/><path d="m360 392h128v32h-128z" fill="#c85aed"/></g><path d="m104 224h-16v-48a8 8 0 0 1 8-8h72v16h-64z"/><path d="m424 224h-16v-40h-64v-16h72a8 8 0 0 1 8 8z"/><path d="m488 352a8 8 0 0 0 8-8v-96a8 8 0 0 0 -8-8h-128a8 8 0 0 0 -8 8v48h-24v-48a8 8 0 0 0 -8-8h-128a8 8 0 0 0 -8 8v48h-24v-48a8 8 0 0 0 -8-8h-128a8 8 0 0 0 -8 8v96a8 8 0 0 0 8 8h56v32h-56a8 8 0 0 0 -8 8v96a8 8 0 0 0 8 8h128a8 8 0 0 0 8-8v-32h24v32a8 8 0 0 0 8 8h128a8 8 0 0 0 8-8v-32h24v32a8 8 0 0 0 8 8h72v-16h-64v-48h112v48h-32v16h40a8 8 0 0 0 8-8v-96a8 8 0 0 0 -8-8h-56v-32zm-120-96h112v16h-112zm0 32h112v48h-112zm-168-32h112v16h-112zm0 32h112v48h-112zm-168-32h112v16h-112zm0 32h112v48h-112zm112 112v16h-112v-16zm-112 80v-48h112v48zm128-40v-48a8 8 0 0 0 -8-8h-56v-32h56a8 8 0 0 0 8-8v-32h24v32a8 8 0 0 0 8 8h56v32h-56a8 8 0 0 0 -8 8v48zm152-24h-112v-16h112zm-112 64v-48h112v48zm280-64h-112v-16h112zm-64-32h-56a8 8 0 0 0 -8 8v48h-24v-48a8 8 0 0 0 -8-8h-56v-32h56a8 8 0 0 0 8-8v-32h24v32a8 8 0 0 0 8 8h56z"/></g></g></svg>