<?xml version="1.0"?>
<svg xmlns="http://www.w3.org/2000/svg" id="filled_outline" data-name="filled outline" viewBox="0 0 512 512" width="512" height="512"><path d="M416,496V448H256V312L217.86426,205.21992A31.99981,31.99981,0,0,1,216,194.45716V96h56v96l57.14286,80H424a40,40,0,0,1,40,40V496Z" style="fill:#ffa100"/><path d="M192,336a32,32,0,0,1,32,32v40a47.88037,47.88037,0,0,1-15.99988,35.77758L208,496H64l-.00015-52.84846A48.99756,48.99756,0,0,1,48,406.87417V368a32,32,0,0,1,32-32Z" style="fill:#ffa100"/><path d="M184,408l14.18519-35.463a7.41059,7.41059,0,0,0-1.64048-7.99231h0a7.41058,7.41058,0,0,0-9.68644-.68839L160,384Z" style="fill:#ffceb6"/><path d="M136,344H136a32,32,0,0,1-32-32V296l24-24h40v40A32,32,0,0,1,136,344Z" style="fill:#ffceb6"/><path d="M168,272l7.80063-3.90031A14.8328,14.8328,0,0,0,184,254.83282v0A14.8328,14.8328,0,0,0,169.1672,240H136a32,32,0,0,0-32,32v24l24-24Z" style="fill:#c47220"/><path d="M96,408,81.81481,372.537a7.41059,7.41059,0,0,1,1.64048-7.99231h0a7.41058,7.41058,0,0,1,9.68644-.68839L129.14531,390.859Z" style="fill:#ffceb6"/><rect x="256" y="448" width="160" height="48" style="fill:#718799"/><polygon points="352 312 368 384 344 408 320 384 336 312 352 312" style="fill:#ef5e3b"/><polygon points="336 312 328 296 344 280 360 296 352 312 336 312" style="fill:#e04f2b"/><path d="M216,96V40a16,16,0,0,1,16-16h32V56l16-8,8,8L272,96Z" style="fill:#ffceb6"/><path d="M344,280H344a32,32,0,0,1-32-32V232l24-24h40v40A32,32,0,0,1,344,280Z" style="fill:#ffceb6"/><path d="M376,208l7.80063-3.90031A14.8328,14.8328,0,0,0,392,190.83282v0A14.8328,14.8328,0,0,0,377.1672,176H344a32,32,0,0,0-32,32v24l24-24Z" style="fill:#c47220"/><path d="M192,328H172.6499A39.756,39.756,0,0,0,176,312V276.94434l3.37891-1.68946A22.83285,22.83285,0,0,0,169.167,232H136a40.04552,40.04552,0,0,0-40,40v40a39.756,39.756,0,0,0,3.3501,16H80a40.04552,40.04552,0,0,0-40,40v38.874a56.91466,56.91466,0,0,0,16,39.58789V496H72V458.16235a57.0672,57.0672,0,0,0,56.81348-3.75659l8.32666-5.55115,5.26025,3.94519A56.34833,56.34833,0,0,0,176,464a55.65773,55.65773,0,0,0,24-5.41431V496h16V447.13843A55.80456,55.80456,0,0,0,232,408V368A40.04552,40.04552,0,0,0,192,328Zm-56,8a24.02718,24.02718,0,0,1-24-24V299.31348L131.31348,280H160v32A24.02718,24.02718,0,0,1,136,336Zm0-88h33.167a6.83278,6.83278,0,0,1,3.05567,12.94434L166.11133,264H128a8.00076,8.00076,0,0,0-5.65723,2.34326L112,276.686V272A24.02718,24.02718,0,0,1,136,248Zm80,160a40,40,0,0,1-64,32l-.74268-.55688,37.18018-24.78687a7.99543,7.99543,0,0,0,2.99023-3.68506l14.18555-35.46387a15.41038,15.41038,0,0,0-23.55469-18.05078l-25.9414,19.45557-17.251,6.46924-14.833-6.35694L97.94238,357.45654A15.411,15.411,0,0,0,74.38672,375.5083L84.18359,400H72v16H96v-.00769a7.9577,7.9577,0,0,0,2.80859-.50159l59.17676-22.1914,13.45728,13.45727-51.50415,34.33667A41.12632,41.12632,0,0,1,56,406.874V368a24.02718,24.02718,0,0,1,24-24h32v-.022a39.91239,39.91239,0,0,0,48,0V344h32a24.02718,24.02718,0,0,1,24,24Zm-34.92163-14.2356-8.89893-8.89892,17.7981-13.3479ZM90.02246,371.51709,115.2002,390.3999a7.98824,7.98824,0,0,0,1.64843.95313l.35449.15185-16.68261,6.25586Z"/><path d="M424,264H380.6499A39.75625,39.75625,0,0,0,384,248V212.94434l3.37891-1.68946A22.83285,22.83285,0,0,0,377.167,168H344a40.04552,40.04552,0,0,0-40,40v15.03644l-24-33.59992v-91.896l15.42773-38.56934a8.00023,8.00023,0,0,0-1.7705-8.62793l-8-8a8.00192,8.00192,0,0,0-9.23535-1.49853L272,43.05566V24a8.00008,8.00008,0,0,0-8-8H232a24.0275,24.0275,0,0,0-24,24V194.457a39.9052,39.9052,0,0,0,2.33008,13.45313L248,313.38574V496h16V456H408v40h16V360H408v80H264V312a7.99756,7.99756,0,0,0-.46582-2.69092L225.39844,202.5293A23.9421,23.9421,0,0,1,224,194.457V104h40v88a8.003,8.003,0,0,0,1.49023,4.6499l38.61158,54.05615a40.06935,40.06935,0,0,0,23.92309,33.9552l-21.68213,21.682,11.31446,11.31348,8.15136-8.15125,1.76563,3.53162-15.38379,69.22754a7.99979,7.99979,0,0,0,2.15234,7.39209l24,24a8.00063,8.00063,0,0,0,11.31446,0l24-24a7.99979,7.99979,0,0,0,2.15234-7.39209l-15.38379-69.22754,1.76563-3.53162,8.15136,8.15125,11.31446-11.31348-21.68213-21.682A40.031,40.031,0,0,0,368,279.978V280h56a32.03635,32.03635,0,0,1,32,32V496h16V312A48.054,48.054,0,0,0,424,264ZM266.58374,88H224V40a8.00917,8.00917,0,0,1,8-8h24V56a8,8,0,0,0,11.57812,7.15527l10.8418-5.42138.19336.19287ZM344,184h33.167a6.83278,6.83278,0,0,1,3.05567,12.94434L374.11133,200H336a8.00076,8.00076,0,0,0-5.65723,2.34326L320,212.686V208A24.02718,24.02718,0,0,1,344,184Zm0,212.686-15.23828-15.2378L342.41748,320h3.165l13.65576,61.44824ZM347.05591,304h-6.11182l-3.21-6.42017L344,291.314l6.26587,6.26587ZM344,272a24.02718,24.02718,0,0,1-24-24V235.31348L339.31348,216H368v32A24.02718,24.02718,0,0,1,344,272Z"/></svg>
