<svg id="Capa_1" enable-background="new 0 0 512 512" height="512" viewBox="0 0 512 512" width="512" xmlns="http://www.w3.org/2000/svg"><g><g><path d="m47.658 7.5c-15.439 0-27.955 12.516-27.955 27.955v63.947h55.91v-63.947c0-15.439-12.516-27.955-27.955-27.955z" fill="#eabc6b"/><g><path d="m178.99 476.949 23.16-93.96h73.349l23.161 93.96z" fill="#dddaec"/><path d="m298.66 476.949-23.161-93.96h-42.25l-.083 93.96z" fill="#beb9dd"/><g><g><path d="m444.487 412.31h-411.324c-14.163 0-25.645-11.482-25.645-25.645v-271.878c0-14.163 11.482-25.645 25.645-25.645h411.324c14.163 0 25.645 11.482 25.645 25.645v271.877c0 14.164-11.482 25.646-25.645 25.646z" fill="#bed8fb"/><path d="m444.487 89.142h-39.683v297.523c0 14.163-11.482 25.645-25.645 25.645h65.328c14.163 0 25.645-11.482 25.645-25.645v-271.878c0-14.164-11.482-25.645-25.645-25.645z" fill="#9dc6fb"/><path d="m7.518 386.664c0 14.163 11.482 25.645 25.645 25.645h411.323c14.164 0 25.645-11.482 25.645-25.645v-25.451h-462.613z" fill="#f4f4f4"/><path d="m470.132 386.664v-25.451h-65.328v25.451c0 14.163-11.482 25.645-25.645 25.645h65.328c14.163.001 25.645-11.481 25.645-25.645z" fill="#dddaec"/></g></g><path d="m333.625 504.5h-189.601c-5.904 0-10.691-4.786-10.691-10.69 0-20.603 16.702-37.305 37.305-37.305h136.371c20.603 0 37.305 16.702 37.305 37.305.002 5.904-4.784 10.69-10.689 10.69z" fill="#f4f4f4"/><path d="m307.01 456.504h-65.053c20.603 0 37.305 16.702 37.305 37.305v10.691h54.362c5.904 0 10.69-4.786 10.69-10.691.002-20.603-16.7-37.305-37.304-37.305z" fill="#dddaec"/></g><path d="m404.796 35.351c0-15.382-12.469-27.851-27.851-27.851h-329.287c15.439 0 27.955 12.516 27.955 27.955 0 14.86.009 325.758.009 325.758h329.182z" fill="#fffbe4"/><g><g><g><path d="m297.091 374.822-30.349 11.694c-2.87 1.106-5.691-1.715-4.585-4.585l11.694-30.349c1.937-5.026 4.905-9.59 8.713-13.399l188.202-188.202c7.711-7.711 20.214-7.711 27.926 0 7.711 7.711 7.711 20.214 0 27.926l-188.202 188.202c-3.808 3.808-8.373 6.776-13.399 8.713z" fill="#dd636e"/></g></g><g><path d="m429 191.748-24.196 24.195v55.852l52.121-52.122z" fill="#da4a54"/></g><path d="m438.437 175.039h30.901v39.493h-30.901z" fill="#f4f4f4" transform="matrix(.707 -.707 .707 .707 -4.793 377.998)"/><g><path d="m498.693 149.981c-7.711-7.712-20.214-7.712-27.926 0l-19.917 19.917 27.926 27.926 19.917-19.917c7.711-7.712 7.711-20.215 0-27.926z" fill="#5766cb"/></g><g><g><path d="m297.091 374.822-30.349 11.694c-2.87 1.106-5.691-1.715-4.585-4.585l11.694-30.349c1.937-5.026 4.905-9.59 8.713-13.399l27.926 27.926c-3.808 3.808-8.373 6.776-13.399 8.713z" fill="#938bc6"/></g></g></g></g><g><path d="m201.509 101.042h136.601c4.143 0 7.5-3.358 7.5-7.5s-3.357-7.5-7.5-7.5h-136.601c-4.143 0-7.5 3.358-7.5 7.5s3.357 7.5 7.5 7.5z"/><path d="m135.009 152.388h203.101c4.143 0 7.5-3.358 7.5-7.5s-3.357-7.5-7.5-7.5h-203.101c-4.143 0-7.5 3.358-7.5 7.5s3.357 7.5 7.5 7.5z"/><path d="m135.009 203.733h203.101c4.143 0 7.5-3.358 7.5-7.5s-3.357-7.5-7.5-7.5h-203.101c-4.143 0-7.5 3.358-7.5 7.5s3.357 7.5 7.5 7.5z"/><path d="m135.009 255.078h168.388c4.143 0 7.5-3.358 7.5-7.5s-3.357-7.5-7.5-7.5h-168.388c-4.143 0-7.5 3.358-7.5 7.5s3.357 7.5 7.5 7.5z"/><path d="m503.996 144.677c-7.13-7.13-17.201-9.5-26.364-7.044v-22.846c0-18.276-14.869-33.146-33.146-33.146h-32.188l-.001-46.291c0-19.492-15.859-35.35-35.352-35.35h-329.287c-19.55 0-35.455 15.905-35.455 35.455v53.677c-7.432 6.083-12.186 15.323-12.186 25.655v99.454c0 4.142 3.357 7.5 7.5 7.5s7.5-3.358 7.5-7.5v-99.454c0-10.005 8.14-18.146 18.146-18.146h34.952l.007 257.072h-53.105v-104.412c0-4.142-3.357-7.5-7.5-7.5s-7.5 3.358-7.5 7.5v137.364c0 18.276 14.869 33.145 33.146 33.145h152.186l-7.196 29.194h-7.514c-24.706 0-44.806 20.1-44.806 44.806 0 10.03 8.16 18.19 18.19 18.19h189.602c10.03 0 18.19-8.16 18.19-18.19 0-24.706-20.1-44.806-44.806-44.806h-7.514l-7.195-29.194h152.186c18.276 0 33.146-14.869 33.146-33.145v-177.092c6.095-6.095 19.731-19.731 26.363-26.363 10.65-10.65 10.65-27.883.001-38.533zm-470.833-63.035c-2.035 0-4.025.194-5.96.547v-46.734c0-11.279 9.176-20.455 20.455-20.455s20.455 9.176 20.455 20.455l.001 46.187zm343.782-66.642c11.222 0 20.352 9.129 20.352 20.351 0 16.371.004 140.077.004 142.093 0 4.143 3.358 7.5 7.5 7.5 4.143 0 7.5-3.358 7.5-7.5l-.002-80.802h32.188c10.006 0 18.146 8.14 18.146 18.146v32.721c-8.129 8.129-177.329 177.33-185.366 185.367-.002.002-.003.003-.005.005-.004.004-.006.008-.01.011-4.573 4.575-8.071 9.956-10.397 15.994l-1.861 4.829h-181.872c0-14.091-.008-301.293-.009-318.258 0-7.612-2.412-14.672-6.511-20.455h300.343zm-83.774 323.183 135.828-135.829 17.319 17.319-135.828 135.828zm6.058 27.272c-1.532.92-3.142 1.717-4.834 2.369l-22.036 8.491 8.49-22.036c.652-1.692 1.448-3.303 2.369-4.834zm7.782 98.549c16.435 0 29.806 13.371 29.806 29.806 0 1.759-1.432 3.19-3.19 3.19h-189.603c-1.759 0-3.19-1.431-3.19-3.19 0-16.435 13.371-29.806 29.806-29.806zm-113.408-15 7.196-29.194h76.052l7.197 29.194zm269.029-62.339c0 10.005-8.14 18.145-18.146 18.145h-411.323c-10.006 0-18.146-8.14-18.146-18.145v-17.951h244.195l-4.054 10.521c-1.568 4.073-.588 8.698 2.499 11.784 3.058 3.057 7.675 4.079 11.781 2.496l30.35-11.694h.001c11.475-4.422 17.037-11.689 18.703-13.107h144.14zm0-32.952h-50.328l-.002-43.843c0-4.142-3.358-7.5-7.5-7.5-4.143 0-7.5 3.358-7.5 7.5l.002 43.842h-63.812l128.724-128.725c.004-.004.009-.008.013-.012s.008-.009.012-.013l.391-.391zm-5.707-144.647-17.319-17.319 11.243-11.243 17.319 17.319zm36.464-36.463-14.613 14.613-17.319-17.319c.973-.973 3.532-3.532 14.613-14.613 4.786-4.786 12.533-4.787 17.32 0 4.786 4.787 4.786 12.532-.001 17.319z"/></g></g></svg>