<svg id="Capa_1" enable-background="new 0 0 512 512" height="512" viewBox="0 0 512 512" width="512" xmlns="http://www.w3.org/2000/svg"><g><g><g><g><g><path d="m85.243 7.5c-14.275 0-25.846 11.572-25.846 25.846v82.744h51.692v-82.744c0-14.274-11.572-25.846-25.846-25.846z" fill="#eabc6b"/><path d="m33.55 262.187c-14.275 0-25.846-11.572-25.846-25.846v-52.859c0-3.46 2.805-6.265 6.265-6.265h45.428v59.123c-.001 14.275-11.572 25.847-25.847 25.847z" fill="#ebb044"/><g><path d="m213.767 478.284 22.039-89.406h69.794l22.038 89.406z" fill="#dddaec"/><path d="m262.308 478.284h65.33l-22.038-89.406h-43.292z" fill="#beb9dd"/><g><g><path d="m466.398 416.777h-391.39c-13.477 0-24.402-10.925-24.402-24.402v-258.701c0-13.477 10.925-24.402 24.402-24.402h391.389c13.477 0 24.402 10.925 24.402 24.402v258.701c.001 13.477-10.924 24.402-24.401 24.402z" fill="#bed8fb"/><g><path d="m466.398 109.271h-40.928v283.104c0 13.477-10.925 24.403-24.402 24.403h65.331c13.477 0 24.402-10.925 24.402-24.403v-258.701c-.001-13.477-10.926-24.403-24.403-24.403z" fill="#9dc6fb"/></g><path d="m50.606 392.375c0 13.477 10.925 24.402 24.402 24.402h391.389c13.477 0 24.402-10.925 24.402-24.402v-24.218h-440.193z" fill="#f4f4f4"/><path d="m466.397 416.778c13.477 0 24.403-10.925 24.403-24.403v-24.217h-65.331v24.217c0 13.477-10.924 24.401-24.4 24.403z" fill="#dddaec"/></g></g><path d="m360.909 504.5h-180.412c-5.618 0-10.172-4.554-10.172-10.172 0-19.605 15.893-35.497 35.497-35.497h129.762c19.605 0 35.497 15.893 35.497 35.497 0 5.618-4.554 10.172-10.172 10.172z" fill="#f4f4f4"/><path d="m335.584 458.83h-60.984c17.204 0 31.15 13.946 31.15 31.151v14.519h55.158c5.618 0 10.172-4.554 10.172-10.172.002-19.605-15.891-35.498-35.496-35.498z" fill="#dddaec"/></g><g><path d="m85.243 7.5c14.274 0 25.846 11.572 25.846 25.846 0 13.739.009 334.811.009 334.811h314.376l-.007-325.477c0-19.429-15.751-35.18-35.181-35.18z" fill="#fffbe4"/></g></g></g><g><g><g><g><g><g><g><g><g><g><g><path d="m351.179 368.158h-18.135c-7.009 0-12.691-5.682-12.691-12.691v-74.507h54.122l-10.728 76.273c-.881 6.265-6.241 10.925-12.568 10.925z" fill="#eabc6b"/></g></g></g></g></g></g></g></g></g></g><path d="m324.569 234.306-38.41.003c-7.666.001-13.879 6.215-13.879 13.881l.002 28.601c.001 7.666 6.215 13.879 13.881 13.879l38.411-.003z" fill="#5766cb"/><path d="m493.957 160.666c-21.881 35.831-60.995 58.076-103.533 58.08l-10.759.001-7.857 9.689.005 65.333 7.859 9.678 10.759-.001c42.538-.003 81.656 22.235 103.542 58.063z" fill="#f4f4f4"/><path d="m379.665 218.747-59.65.005c-10.457.001-18.933 8.478-18.932 18.935l.004 46.833c.001 10.457 8.478 18.933 18.935 18.932l59.65-.005z" fill="#dd636e"/><path d="m488.198 362.622c8.892-.001 16.099-7.209 16.099-16.101l-.014-170.845c-.001-8.892-7.209-16.099-16.101-16.098-8.892.001-16.099 7.209-16.099 16.101l.014 170.845c0 8.891 7.209 16.099 16.101 16.098z" fill="#dd636e"/><path d="m487.419 297.246c-8.659-.407-15.322-7.865-15.323-16.534 0-7.43-3.534-14.414-9.507-18.832-20.502-15.164-45.666-23.794-72.159-23.792l-10.759.001-7.863.001.005 55.679 7.859 9.678 10.759-.001c42.538-.003 81.656 22.235 103.542 58.063l-.005-65.311c-2.019.775-4.233 1.156-6.549 1.048z" fill="#dddaec"/><g fill="#da4a54"><path d="m320.021 238.094c-7.091.001-13.263-3.903-16.507-9.674-1.542 2.741-2.432 5.898-2.431 9.267l.004 46.833c.001 10.457 8.478 18.933 18.935 18.932l59.65-.005-.005-65.358z"/><path d="m487.419 297.246c-8.659-.407-15.322-7.865-15.323-16.534 0-.062-.005-.124-.005-.186l.006 65.997c.001 8.892 7.209 16.099 16.101 16.099 8.892-.001 16.099-7.21 16.099-16.101l-.006-65.251c-.06 9.099-7.663 16.408-16.872 15.976z"/></g></g></g></g><g><path d="m208.315 78.792h171.355c4.143 0 7.5-3.358 7.5-7.5s-3.357-7.5-7.5-7.5h-171.355c-4.143 0-7.5 3.358-7.5 7.5s3.358 7.5 7.5 7.5z"/><path d="m159.803 126.379h219.868c4.143 0 7.5-3.358 7.5-7.5s-3.357-7.5-7.5-7.5h-219.868c-4.143 0-7.5 3.358-7.5 7.5s3.357 7.5 7.5 7.5z"/><path d="m159.803 173.967h216.801c4.143 0 7.5-3.358 7.5-7.5s-3.357-7.5-7.5-7.5h-216.801c-4.143 0-7.5 3.358-7.5 7.5s3.357 7.5 7.5 7.5z"/><path d="m511.796 346.52-.014-170.845c-.001-9.393-5.519-17.519-13.482-21.314v-20.687c0-17.591-14.312-31.902-31.902-31.902h-33.428l-.001-59.092c-.002-23.534-19.149-42.68-42.682-42.68h-305.045c-18.387 0-33.346 14.959-33.346 33.346v78.371c-5.441 5.724-8.791 13.454-8.791 21.957v36.043h-29.136c-7.59 0-13.765 6.175-13.765 13.765v52.859c0 18.387 14.959 33.346 33.346 33.346 3.264 0 6.479-.486 9.556-1.407v124.095c0 17.591 14.312 31.902 31.902 31.902h144.347l-6.669 27.053h-6.865c-23.709 0-42.997 19.289-42.997 42.998 0 9.745 7.928 17.672 17.672 17.672h180.413c9.744 0 17.672-7.928 17.672-17.672 0-23.709-19.288-42.998-42.997-42.998h-6.865l-6.669-27.053h144.347c17.591 0 31.902-14.312 31.902-31.902v-24.53c7.973-3.793 13.498-11.925 13.497-21.325zm-78.823 14.138-.001-17.662c0-4.142-3.358-7.5-7.5-7.5-4.143 0-7.5 3.358-7.5 7.5l.001 17.661h-47.302c.208-.777.388-1.567.502-2.379l6.657-47.331c3.184 0 9.731-.001 12.6-.001h.009c27.295 0 53.497 9.739 74.156 27.484l.001 8.094c0 5.297 1.755 10.191 4.714 14.133h-36.337zm-139.39-118.85.003 41.36h-7.424c-3.518 0-6.38-2.861-6.38-6.379l-.002-28.601c0-3.525 2.852-6.38 6.378-6.38zm15.003 42.712-.004-46.833c0-6.291 5.087-11.435 11.434-11.435l52.149-.004.006 69.7-52.151.004c-6.413.001-11.434-5.222-11.434-11.432zm156.008 34.918c-37.794-26.64-75.315-23.179-77.424-23.491l-.006-69.7c2.097-.31 39.749 3.056 77.42-23.503zm-131.54 41.22c-.003 0-.006 0-.01 0-2.862 0-5.191-2.329-5.191-5.191v-44.515l34.831-.003-6.364 45.241c-.358 2.547-2.568 4.468-5.141 4.468-.003 0-.006 0-.01 0zm155.143-5.536c-4.742 0-8.6-3.857-8.601-8.599l-.015-170.846c0-4.752 3.846-8.6 8.599-8.6 4.742 0 8.601 3.857 8.602 8.599l.014 170.845c.001 4.742-3.858 8.601-8.599 8.601zm-402.955-340.122c10.116 0 18.347 8.23 18.347 18.346v15.961c0 4.142 3.357 7.5 7.5 7.5s7.5-3.358 7.5-7.5v-15.961c0-6.773-2.029-13.08-5.513-18.346h277.211c15.263 0 27.68 12.417 27.681 27.68 0 14.65.003 118.954.003 134.324 0 4.142 3.358 7.5 7.5 7.5 4.143 0 7.5-3.358 7.5-7.5l-.001-60.232h33.428c9.32 0 16.902 7.583 16.902 16.902v18.911c-10.526 2.203-18.72 11.561-18.718 23.094l.001 8.073c-20.659 17.75-46.862 27.493-74.16 27.495l-70.408.006c-10.745.001-19.958 6.392-24.099 15.556l-9.758.001c-11.815.001-21.38 9.564-21.378 21.382l.002 28.601c.002 11.815 9.561 21.378 21.379 21.378h.002l11.211-.001c3.375 5.576 8.827 9.935 15.479 11.798v45.5c0 1.798.259 3.532.702 5.192h-194.958l-.007-251.38c0-.002 0-.004 0-.006s0-.004 0-.006l-.001-24.884c0-4.142-3.358-7.5-7.5-7.5-4.143 0-7.5 3.358-7.5 7.5v17.389h-28.581c-2.802 0-5.52.366-8.111 1.048v-69.475c-.001-10.116 8.229-18.346 18.345-18.346zm-27.137 118.674c0-9.32 7.582-16.902 16.902-16.902h28.583l.007 243.886h-45.492zm-24.555 121.013c-10.116 0-18.346-8.23-18.346-18.346v-51.624h27.901v67.273c-2.861 1.75-6.161 2.697-9.555 2.697zm330.031 239.641c0 1.474-1.198 2.672-2.672 2.672h-180.413c-1.474 0-2.672-1.199-2.672-2.672 0-15.438 12.56-27.998 27.997-27.998h129.763c15.437 0 27.997 12.56 27.997 27.998zm-50.312-42.998h-85.133l6.669-27.053h71.796zm153.128-42.053h-391.389c-9.32 0-16.902-7.583-16.902-16.902v-16.717h425.194v16.717c0 9.32-7.582 16.902-16.903 16.902z"/></g></g></svg>