<?xml version="1.0" encoding="iso-8859-1"?>
<!-- Generator: Adobe Illustrator 19.0.0, SVG Export Plug-In . SVG Version: 6.00 Build 0)  -->
<svg fill="#fff" xmlns="http://www.w3.org/2000/svg" xmlns:xlink="http://www.w3.org/1999/xlink" version="1.1" id="Layer_1" x="0px" y="0px" viewBox="0 0 512 512" style="enable-background:new 0 0 512 512;" xml:space="preserve" width="512" height="512">
<g id="XMLID_1620_">
	<g id="XMLID_1581_">
		<g id="XMLID_1586_">
			<path id="XMLID_1619_" d="M419,266.187c5.523,0,10-4.478,10-10s-4.477-10-10-10h-14.124c-5.523,0-10,4.478-10,10s4.477,10,10,10     H419z"/>
			<path id="XMLID_1618_" d="M83,255.813c0,5.522,4.477,10,10,10h14.124c5.523,0,10-4.478,10-10s-4.477-10-10-10H93     C87.477,245.813,83,250.291,83,255.813z"/>
			<path id="XMLID_1617_" d="M266.186,107.123V93c0-5.522-4.477-10-10-10s-10,4.478-10,10v14.123c0,5.522,4.477,10,10,10     S266.186,112.646,266.186,107.123z"/>
			<path id="XMLID_1616_" d="M245.814,404.877V419c0,5.522,4.477,10,10,10s10-4.478,10-10v-14.123c0-5.522-4.477-10-10-10     S245.814,399.354,245.814,404.877z"/>
			<path id="XMLID_1607_" d="M197.571,183.429c-3.905-3.904-10.237-3.904-14.143,0c-3.905,3.905-3.905,10.237,0,14.143     l39.591,39.591C219.832,242.719,218,249.148,218,256c0,20.953,17.047,38,38,38s38-17.047,38-38     c0-6.852-1.832-13.281-5.019-18.838l79.091-79.091c3.905-3.905,3.905-10.237,0-14.143c-3.905-3.904-10.237-3.904-14.143,0     l-79.091,79.091C269.281,219.833,262.852,218,256,218s-13.281,1.833-18.838,5.019L197.571,183.429z M274,256     c0,9.925-8.075,18-18,18s-18-8.075-18-18s8.075-18,18-18S274,246.075,274,256z"/>
			<path id="XMLID_1596_" d="M502,338.248h-3.514C507.448,311.828,512,284.198,512,256c0-68.38-26.628-132.667-74.981-181.02     C388.667,26.629,324.38,0,256,0S123.333,26.629,74.981,74.98C26.628,123.333,0,187.62,0,256     c0,54.472,16.881,106.479,48.817,150.4c1.957,2.691,5.005,4.12,8.096,4.12c2.039,0,4.097-0.622,5.873-1.913     c4.467-3.248,5.455-9.502,2.207-13.969C35.559,354.158,20,306.218,20,256C20,125.869,125.869,20,256,20s236,105.869,236,236     c0,28.277-4.946,55.928-14.701,82.186c-0.008,0.021-0.012,0.042-0.02,0.063h-27.5c10.955-25.865,16.715-53.988,16.715-82.248     c0-116.066-94.427-210.494-210.494-210.494c-41.047,0-80.826,11.822-115.039,34.188c-4.623,3.022-5.92,9.22-2.898,13.842     c3.023,4.624,9.22,5.921,13.842,2.898C182.855,76.201,218.851,65.506,256,65.506c105.039,0,190.494,85.455,190.494,190.494     c0,28.885-6.264,56.524-18.621,82.248h-105.07l-2.105-19.807c-0.54-5.085-4.83-8.943-9.944-8.943h-34.955     c-5.523,0-10,4.478-10,10s4.477,10,10,10h25.961l11.5,108.233c-18.458,5.812-37.686,8.763-57.261,8.763     c-105.039,0-190.494-85.455-190.494-190.494c0-38.025,11.167-74.731,32.292-106.15c3.082-4.583,1.864-10.797-2.719-13.879     c-4.583-3.082-10.796-1.864-13.878,2.719C57.849,173.42,45.506,213.985,45.506,256c0,116.066,94.427,210.494,210.494,210.494     c20.261,0,40.193-2.869,59.412-8.516l0.54,5.078c0.54,5.085,4.83,8.943,9.944,8.943h6.917c-0.872,2.457-1.428,5.061-1.628,7.762     C307.03,487.879,281.772,492,256,492c-49.394,0-96.689-15.094-136.773-43.65c-4.498-3.205-10.743-2.156-13.947,2.342     c-3.205,4.499-2.156,10.743,2.342,13.947C151.114,495.623,202.422,512,256,512c27.555,0,54.576-4.352,80.453-12.916     c5.423,7.798,14.443,12.916,24.64,12.916c16.542,0,30-13.458,30-30c0-3.506-0.61-6.87-1.72-10h26.156     c-1.11,3.13-1.72,6.494-1.72,10c0,16.542,13.458,30,30,30s30-13.458,30-30c0-3.506-0.61-6.87-1.72-10h3.218     c4.643,0,8.675-3.195,9.735-7.716l26.694-113.752c0.698-2.973-0.001-6.102-1.898-8.495     C507.94,339.644,505.054,338.248,502,338.248z M371.093,482c0,5.514-4.486,10-10,10s-10-4.486-10-10s4.486-10,10-10     S371.093,476.486,371.093,482z M453.808,482c0,5.514-4.486,10-10,10s-10-4.486-10-10s4.486-10,10-10S453.808,476.486,453.808,482     z M467.381,452H334.889l-9.961-93.752h109.089c0.011,0,0.022,0.002,0.033,0.002c0.01,0,0.019-0.002,0.029-0.002h55.303     L467.381,452z"/>
			<path id="XMLID_1595_" d="M115.17,123.37c2.63,0,5.21-1.07,7.07-2.931c1.86-1.859,2.93-4.439,2.93-7.069s-1.07-5.21-2.93-7.07     c-1.86-1.86-4.44-2.93-7.07-2.93c-2.64,0-5.21,1.069-7.07,2.93c-1.86,1.86-2.93,4.43-2.93,7.07c0,2.63,1.07,5.21,2.93,7.069     C109.96,122.3,112.54,123.37,115.17,123.37z"/>
			<path id="XMLID_1591_" d="M83.05,420.939c-2.63,0-5.21,1.07-7.07,2.931c-1.86,1.859-2.93,4.439-2.93,7.069s1.07,5.21,2.93,7.07     s4.44,2.93,7.07,2.93s5.21-1.069,7.07-2.93c1.86-1.86,2.93-4.44,2.93-7.07s-1.07-5.21-2.93-7.069     C88.26,422.01,85.69,420.939,83.05,420.939z"/>
		</g>
	</g>
</g>















</svg>
