<svg id="Capa_1" fill="#1B5083" enable-background="new 0 0 512 512" height="512" viewBox="0 0 512 512" width="512" xmlns="http://www.w3.org/2000/svg"><g><g><path d="m457.506 48.373h-112.785c-4.142 0-7.5 3.357-7.5 7.5s3.358 7.5 7.5 7.5h112.785c4.142 0 7.5-3.357 7.5-7.5s-3.358-7.5-7.5-7.5z"/><path d="m457.506 94.802h-112.785c-4.142 0-7.5 3.357-7.5 7.5s3.358 7.5 7.5 7.5h112.785c4.142 0 7.5-3.357 7.5-7.5s-3.358-7.5-7.5-7.5z"/><path d="m282.456 351.979-6.517-1.77v-147.118c0-59.197-48.16-107.357-107.357-107.357-12.521 0-24.544 2.162-35.726 6.119-.329.093-.65.204-.959.339-41.186 15.021-70.672 54.581-70.672 100.899v147.118l-6.518 1.77c-32.211 8.75-54.707 38.172-54.707 71.549v7.437c0 4.143 3.358 7.5 7.5 7.5s7.5-3.357 7.5-7.5v-7.437c0-26.624 17.945-50.094 43.638-57.074l30.517-8.289c39.782 40.087 119.117 40.04 158.853 0l30.516 8.289c25.694 6.979 43.639 30.449 43.639 57.074v49.747c0 13.017-10.59 23.606-23.606 23.606h-16.409v-35.987c0-4.143-3.358-7.5-7.5-7.5s-7.5 3.357-7.5 7.5v35.987h-197.133v-35.987c0-4.143-3.358-7.5-7.5-7.5s-7.5 3.357-7.5 7.5v35.987h-16.409c-13.016.001-23.606-10.589-23.606-23.606v-7.304c0-4.143-3.358-7.5-7.5-7.5s-7.5 3.357-7.5 7.5v7.304c0 21.288 17.319 38.606 38.606 38.606h259.949c21.288 0 38.606-17.318 38.606-38.606v-49.747c.001-33.377-22.495-62.799-54.705-71.549zm-206.232-5.844v-143.044c0-36.351 21.112-67.859 51.717-82.92 1.668 15.628 7.007 30.174 15.138 42.756h-.362c-29.448 0-53.406 23.958-53.406 53.406v26.135c0 27.525 14.108 51.809 35.466 66.025v22.536c0 1.128-.76 2.123-1.849 2.419-4.315 1.172-42.025 11.415-46.704 12.687zm78.691-168.208c18.047 18.723 43.428 30.151 70.89 30.151 3.885 0 7.046 3.161 7.046 7.047v27.343c0 35.438-28.832 64.271-64.271 64.271s-64.271-28.832-64.271-64.271v-26.135c0-21.178 17.229-38.406 38.406-38.406zm-48.5 175.55 20.443-5.553c7.606-2.065 12.918-9.013 12.918-16.895v-14.732c18.2 7.126 38.747 7.385 57.609 0v14.732c0 7.881 5.312 14.828 12.917 16.894l20.444 5.553c-33.459 26.325-90.848 26.343-124.331.001zm154.523-7.342c-4.608-1.252-42.702-11.6-46.704-12.688-1.089-.295-1.849-1.29-1.849-2.418v-22.536c21.358-14.217 35.466-38.5 35.466-66.025v-27.343c0-12.156-9.89-22.047-22.046-22.047-15.294 0-30.399-4.295-43.214-12.087-.006-.004-.013-.008-.019-.011-22.785-13.862-38.428-38.332-40.044-66.498 8.267-2.435 17.009-3.748 26.053-3.748 50.926 0 92.357 41.432 92.357 92.357z"/><path d="m504.5 45.844c4.142 0 7.5-3.357 7.5-7.5v-5.87c0-17.841-14.515-32.355-32.356-32.355h-157.652c-17.841 0-32.355 14.515-32.355 32.355v97.025c0 17.841 14.515 32.355 32.355 32.355h7.002l-9.792 45.649c-.968 4.512 1.105 9.024 5.159 11.229 4.053 2.204 8.968 1.492 12.229-1.773l53.211-53.291c1.168-1.17 2.721-1.813 4.373-1.813h85.469c17.841 0 32.356-14.515 32.356-32.355v-56.087c0-4.143-3.358-7.5-7.5-7.5s-7.5 3.357-7.5 7.5v56.086c0 9.57-7.786 17.355-17.356 17.355h-85.469c-5.662 0-10.984 2.207-14.986 6.214l-41.988 42.051 7.248-33.79c1.6-7.457-4.087-14.475-11.698-14.475h-10.758c-9.57 0-17.355-7.785-17.355-17.355v-97.025c0-9.57 7.786-17.355 17.355-17.355h157.652c9.57 0 17.356 7.785 17.356 17.355v5.87c0 4.142 3.358 7.5 7.5 7.5z"/></g></g></svg>