<?xml version="1.0"?>
<svg xmlns="http://www.w3.org/2000/svg" xmlns:xlink="http://www.w3.org/1999/xlink" xmlns:svgjs="http://svgjs.com/svgjs" version="1.1" width="512" height="512" x="0" y="0" viewBox="0 0 128 128" style="enable-background:new 0 0 512 512" xml:space="preserve" class=""><g><path xmlns="http://www.w3.org/2000/svg" d="m122.263 29.782a8.009 8.009 0 0 0 -8-8h-20.073l-4.065-4.065a3.237 3.237 0 0 0 -4.472 0l-3.128 3.129a30.908 30.908 0 0 0 -9.481-3.934v-4.418a3.166 3.166 0 0 0 -3.162-3.162h-7.764a3.166 3.166 0 0 0 -3.162 3.162v4.418a30.893 30.893 0 0 0 -9.48 3.934l-3.129-3.13a3.239 3.239 0 0 0 -4.472 0l-4.065 4.066h-20.073a8.009 8.009 0 0 0 -8 8v66.26a8.009 8.009 0 0 0 8 8h36.843l-1.806 12.088h-9.292a3.159 3.159 0 0 0 -3.157 3.156v.227a3.159 3.159 0 0 0 3.157 3.155h45.037a3.159 3.159 0 0 0 3.156-3.155v-.227a3.159 3.159 0 0 0 -3.156-3.156h-9.293l-1.806-12.088h36.843a8.009 8.009 0 0 0 8-8z" fill="#e6e7e8" data-original="#e6e7e8" style=""/><rect xmlns="http://www.w3.org/2000/svg" fill="#6dc9f7" height="80.26" rx="7" width="110.526" x="6.737" y="18.782" data-original="#6dc9f7" style=""/><path xmlns="http://www.w3.org/2000/svg" d="m110.263 18.782h-96.526a7 7 0 0 0 -7 7v59.6h110.526v-59.6a7 7 0 0 0 -7-7z" fill="#d4fbff" data-original="#d4fbff" style="" class=""/><path xmlns="http://www.w3.org/2000/svg" d="m110.263 18.782h-96.526a7 7 0 0 0 -7 7v3.368a7.368 7.368 0 0 1 7.368-7.368h95.795a7.368 7.368 0 0 1 7.368 7.368v-3.368a7 7 0 0 0 -7.005-7z" fill="#ffffff" data-original="#ffffff" style="" class=""/><rect xmlns="http://www.w3.org/2000/svg" fill="#0089ef" height="4.539" rx="2.156" width="49.349" x="37.326" y="113.13" data-original="#0089ef" style="" class=""/><path xmlns="http://www.w3.org/2000/svg" d="m72.259 99.042h-20.518l-2.105 14.088h24.728z" fill="#0089ef" data-original="#0089ef" style="" class=""/><path xmlns="http://www.w3.org/2000/svg" d="m93.228 89.717a2.105 2.105 0 1 0 2.106 2.105 2.105 2.105 0 0 0 -2.106-2.105z" fill="#ffffff" data-original="#ffffff" style="" class=""/><path xmlns="http://www.w3.org/2000/svg" d="m100.6 89.717a2.105 2.105 0 1 0 2.105 2.105 2.1 2.1 0 0 0 -2.105-2.105z" fill="#0089ef" data-original="#0089ef" style="" class=""/><path xmlns="http://www.w3.org/2000/svg" d="m107.965 89.717a2.105 2.105 0 1 0 2.106 2.105 2.105 2.105 0 0 0 -2.106-2.105z" fill="#fa759e" data-original="#fa759e" style="" class=""/><circle xmlns="http://www.w3.org/2000/svg" cx="62" cy="43.332" fill="#ffd7e5" r="21.473" data-original="#ffd7e5" style="" class=""/><path xmlns="http://www.w3.org/2000/svg" d="m96.838 37.288h-5.225a30.049 30.049 0 0 0 -4.4-10.618l3.7-3.7a2.163 2.163 0 0 0 0-3.058l-5.49-5.489a2.16 2.16 0 0 0 -3.057 0l-3.7 3.7a30.039 30.039 0 0 0 -10.617-4.405v-5.224a2.162 2.162 0 0 0 -2.162-2.162h-7.769a2.162 2.162 0 0 0 -2.162 2.162v5.224a30.046 30.046 0 0 0 -10.617 4.405l-3.7-3.7a2.161 2.161 0 0 0 -3.058 0l-5.49 5.489a2.163 2.163 0 0 0 0 3.058l3.7 3.7a30.033 30.033 0 0 0 -4.405 10.618h-5.224a2.162 2.162 0 0 0 -2.162 2.162v7.763a2.162 2.162 0 0 0 2.162 2.162h5.225a30.033 30.033 0 0 0 4.405 10.618l-3.7 3.7a2.163 2.163 0 0 0 0 3.058l5.49 5.489a2.161 2.161 0 0 0 3.058 0l3.7-3.7a30.046 30.046 0 0 0 10.617 4.4v5.23a2.162 2.162 0 0 0 2.162 2.162h7.764a2.162 2.162 0 0 0 2.162-2.162v-5.225a30.039 30.039 0 0 0 10.617-4.4l3.7 3.7a2.16 2.16 0 0 0 3.057 0l5.49-5.489a2.163 2.163 0 0 0 0-3.058l-3.7-3.7a30.049 30.049 0 0 0 4.4-10.618h5.225a2.162 2.162 0 0 0 2.166-2.167v-7.763a2.162 2.162 0 0 0 -2.162-2.162zm-34.838 27.517a21.474 21.474 0 1 1 21.473-21.473 21.473 21.473 0 0 1 -21.473 21.473z" fill="#fa759e" data-original="#fa759e" style="" class=""/><g xmlns="http://www.w3.org/2000/svg" fill="#3a2c60"><path d="m117.264 40.243a1 1 0 0 0 1-1v-13.461a8.009 8.009 0 0 0 -8-8h-20.073l-4.066-4.065a3.239 3.239 0 0 0 -4.472 0l-3.129 3.129a30.887 30.887 0 0 0 -9.48-3.934v-4.418a3.166 3.166 0 0 0 -3.162-3.162h-7.764a3.166 3.166 0 0 0 -3.162 3.162v4.418a30.874 30.874 0 0 0 -9.481 3.934l-3.128-3.13a3.167 3.167 0 0 0 -4.472 0l-4.065 4.066h-20.073a8.009 8.009 0 0 0 -8 8v66.26a8.009 8.009 0 0 0 8 8h36.843l-1.806 12.088h-9.293a3.159 3.159 0 0 0 -3.156 3.156v.227a3.159 3.159 0 0 0 3.156 3.155h45.037a3.159 3.159 0 0 0 3.157-3.155v-.227a3.159 3.159 0 0 0 -3.157-3.156h-9.292l-1.806-12.088h36.844a8.009 8.009 0 0 0 8-8v-33.654a1 1 0 1 0 -2 0v25.992h-108.527v-58.6a6.007 6.007 0 0 1 6-6h18.2a3.14 3.14 0 0 0 .447 3.9l3.129 3.129a30.866 30.866 0 0 0 -3.935 9.481h-4.416a3.166 3.166 0 0 0 -3.162 3.16v7.763a3.166 3.166 0 0 0 3.162 3.163h4.418a30.87 30.87 0 0 0 3.935 9.48l-3.129 3.128a3.161 3.161 0 0 0 0 4.473l5.489 5.49a3.167 3.167 0 0 0 4.472 0l3.128-3.129a30.921 30.921 0 0 0 9.481 3.935v4.417a3.166 3.166 0 0 0 3.162 3.163h7.764a3.166 3.166 0 0 0 3.162-3.163v-4.418a30.875 30.875 0 0 0 9.48-3.935l3.129 3.13a3.239 3.239 0 0 0 4.472 0l5.49-5.489a3.166 3.166 0 0 0 0-4.472l-3.129-3.129a30.9 30.9 0 0 0 3.934-9.48h4.418a3.166 3.166 0 0 0 3.162-3.164v-7.763a3.166 3.166 0 0 0 -3.162-3.162h-4.418a30.933 30.933 0 0 0 -3.934-9.481l3.129-3.129a3.163 3.163 0 0 0 .447-3.9h18.2a6.007 6.007 0 0 1 6 6v13.465a1 1 0 0 0 1.002 1zm-42.9 73.887h10.154a1.157 1.157 0 0 1 1.157 1.156v.227a1.157 1.157 0 0 1 -1.157 1.155h-45.037a1.157 1.157 0 0 1 -1.156-1.155v-.227a1.157 1.157 0 0 1 1.156-1.156zm-23.568-2 1.804-12.088h18.8l1.8 12.088zm65.468-25.75v5.662a6.007 6.007 0 0 1 -6 6h-96.527a6.007 6.007 0 0 1 -6-6v-5.662zm-26.064-64.116-3.7 3.7a1 1 0 0 0 -.127 1.26 28.922 28.922 0 0 1 4.258 10.264 1 1 0 0 0 .98.8h5.225a1.164 1.164 0 0 1 1.164 1.162v7.763a1.164 1.164 0 0 1 -1.162 1.163h-5.225a1 1 0 0 0 -.98.8 28.921 28.921 0 0 1 -4.258 10.264 1 1 0 0 0 .125 1.26l3.7 3.7a1.164 1.164 0 0 1 0 1.644l-5.49 5.489a1.191 1.191 0 0 1 -1.644 0l-3.7-3.7a1 1 0 0 0 -1.259-.126 28.951 28.951 0 0 1 -10.264 4.258 1 1 0 0 0 -.8.98v5.224a1.164 1.164 0 0 1 -1.162 1.163h-7.763a1.164 1.164 0 0 1 -1.162-1.163v-5.224a1 1 0 0 0 -.8-.98 28.932 28.932 0 0 1 -10.264-4.259 1 1 0 0 0 -1.259.127l-3.7 3.7a1.164 1.164 0 0 1 -1.644 0l-5.489-5.491a1.16 1.16 0 0 1 0-1.643l3.7-3.7a1 1 0 0 0 .127-1.26 28.917 28.917 0 0 1 -4.259-10.264 1 1 0 0 0 -.98-.8h-5.226a1.164 1.164 0 0 1 -1.162-1.162v-7.763a1.163 1.163 0 0 1 1.162-1.162h5.225a1 1 0 0 0 .98-.8 28.917 28.917 0 0 1 4.259-10.264 1 1 0 0 0 -.127-1.26l-3.7-3.7a1.16 1.16 0 0 1 0-1.643l5.489-5.489a1.166 1.166 0 0 1 1.644 0l3.7 3.7a1 1 0 0 0 1.259.127 28.935 28.935 0 0 1 10.264-4.259 1 1 0 0 0 .8-.98v-5.226a1.163 1.163 0 0 1 1.162-1.162h7.764a1.164 1.164 0 0 1 1.162 1.162v5.224a1 1 0 0 0 .8.98 28.907 28.907 0 0 1 10.263 4.259 1 1 0 0 0 1.26-.127l3.7-3.7a1.191 1.191 0 0 1 1.644 0l5.49 5.49a1.165 1.165 0 0 1 0 1.644z" fill="#000000" data-original="#3a2c60" style="" class=""/><path d="m117.264 42.454a1 1 0 0 0 -1 1v10.877a1 1 0 0 0 2 0v-10.877a1 1 0 0 0 -1-1z" fill="#000000" data-original="#3a2c60" style="" class=""/><path d="m50.422 39.393a4.31 4.31 0 0 1 1.378.207 5.025 5.025 0 0 1 1.349.75 1.237 1.237 0 0 0 .69.236.607.607 0 0 0 .49-.253.969.969 0 0 0 .2-.623 1.1 1.1 0 0 0 -.085-.455.959.959 0 0 0 -.3-.354 5.434 5.434 0 0 0 -1.736-.952 6.49 6.49 0 0 0 -2.089-.329 5.92 5.92 0 0 0 -3.009.742 4.944 4.944 0 0 0 -1.98 2.114 7.9 7.9 0 0 0 0 6.463 4.93 4.93 0 0 0 1.98 2.124 5.93 5.93 0 0 0 3.009.742 6.517 6.517 0 0 0 2.089-.329 5.453 5.453 0 0 0 1.736-.952.949.949 0 0 0 .3-.363 1.112 1.112 0 0 0 .085-.446.974.974 0 0 0 -.2-.624.61.61 0 0 0 -.49-.253.936.936 0 0 0 -.353.068 2.4 2.4 0 0 0 -.337.168 6.43 6.43 0 0 1 -1.391.742 3.965 3.965 0 0 1 -1.34.219 3.237 3.237 0 0 1 -2.654-1.1 4.991 4.991 0 0 1 -.9-3.235 4.963 4.963 0 0 1 .9-3.219 3.24 3.24 0 0 1 2.658-1.088z" fill="#000000" data-original="#3a2c60" style="" class=""/><path d="m66.988 37.691a1.116 1.116 0 0 0 -.994.725l-3.725 7.129-3.741-7.129a1.135 1.135 0 0 0 -1.027-.725.983.983 0 0 0 -.75.295 1.1 1.1 0 0 0 -.279.784v9.977a1.038 1.038 0 0 0 .253.741.9.9 0 0 0 .691.27.918.918 0 0 0 .7-.278 1.029 1.029 0 0 0 .261-.733v-6.859l2.881 5.342a1.536 1.536 0 0 0 .439.556.934.934 0 0 0 .556.169.909.909 0 0 0 .556-.177 1.683 1.683 0 0 0 .438-.548l2.865-5.43v6.944a1.038 1.038 0 0 0 .253.741.9.9 0 0 0 .69.27.954.954 0 0 0 .708-.27 1 1 0 0 0 .27-.741v-9.974a1.078 1.078 0 0 0 -.286-.784 1.015 1.015 0 0 0 -.759-.295z" fill="#000000" data-original="#3a2c60" style="" class=""/><path d="m72.507 38.087a3.889 3.889 0 0 0 -1.643 1.289 3.144 3.144 0 0 0 -.59 1.871 2.779 2.779 0 0 0 .473 1.668 3.391 3.391 0 0 0 1.4 1.079 12.149 12.149 0 0 0 2.41.742 8.151 8.151 0 0 1 2.043.664 1.081 1.081 0 0 1 .615.986 1.405 1.405 0 0 1 -.657 1.256 3.453 3.453 0 0 1 -1.888.43 6.088 6.088 0 0 1 -1.751-.237 4.985 4.985 0 0 1 -1.517-.758 1.375 1.375 0 0 0 -.691-.236.628.628 0 0 0 -.5.261.956.956 0 0 0 -.21.616.946.946 0 0 0 .387.809 5.409 5.409 0 0 0 1.879.935 8.523 8.523 0 0 0 2.452.346 6.164 6.164 0 0 0 2.419-.447 3.8 3.8 0 0 0 1.635-1.247 3.064 3.064 0 0 0 .581-1.846 2.538 2.538 0 0 0 -.5-1.6 3.63 3.63 0 0 0 -1.433-1.053 13.519 13.519 0 0 0 -2.435-.75 6.894 6.894 0 0 1 -2-.691 1.181 1.181 0 0 1 -.59-1.062 1.485 1.485 0 0 1 .665-1.289 3.126 3.126 0 0 1 1.813-.463 4.53 4.53 0 0 1 1.591.244 5.7 5.7 0 0 1 1.34.75 2.382 2.382 0 0 0 .38.185.92.92 0 0 0 .312.051.626.626 0 0 0 .5-.261.952.952 0 0 0 .211-.615.968.968 0 0 0 -.093-.447 1.267 1.267 0 0 0 -.313-.362 6.518 6.518 0 0 0 -6.294-.818z" fill="#000000" data-original="#3a2c60" style="" class=""/><path d="m62 20.858a22.474 22.474 0 1 0 22.474 22.474 22.5 22.5 0 0 0 -22.474-22.474zm0 42.947a20.474 20.474 0 1 1 20.474-20.473 20.5 20.5 0 0 1 -20.474 20.473z" fill="#000000" data-original="#3a2c60" style="" class=""/></g></g></svg>
