<svg height="512pt" viewBox="0 -31 512 512" width="512pt" xmlns="http://www.w3.org/2000/svg"><g fill-rule="evenodd"><path d="m10 85.21875h492v354.488281h-492zm0 0" fill="#f8f8f8"/><path d="m10 10h492v75.222656h-492zm0 0" fill="#55b2ff"/><path d="m57.71875 291.042969h96.683594v96.683593h-96.683594zm291.8125 0h96.6875v96.683593h-96.6875zm-145.90625 0h96.683594v96.683593h-96.683594zm0 0" fill="#d0ec7e"/><path d="m502 0h-492c-5.523438 0-10 4.476562-10 10v429.710938c0 5.519531 4.476562 10 10 10h206c5.523438 0 10-4.480469 10-10 0-5.523438-4.476562-10-10-10h-196v-334.492188h472v334.488281h-196c-5.523438 0-10 4.476563-10 10 0 5.523438 4.476562 10 10 10h206c5.523438 0 10-4.476562 10-10v-429.707031c0-5.523438-4.476562-10-10-10zm-482 75.21875v-55.21875h472v55.222656h-472zm0 0"/><path d="m417.910156 37.609375h-15.386718c-5.523438 0-10 4.480469-10 10 0 5.523437 4.476562 10 10 10h15.386718c5.523438 0 10-4.476563 10-10 0-5.519531-4.476562-10-10-10zm0 0"/><path d="m463.925781 37.609375h-15.386719c-5.523437 0-10 4.480469-10 10 0 5.523437 4.476563 10 10 10h15.386719c5.523438 0 10-4.476563 10-10 0-5.519531-4.476562-10-10-10zm0 0"/><path d="m371.898438 37.609375h-15.390626c-5.523437 0-10 4.480469-10 10 0 5.523437 4.476563 10 10 10h15.390626c5.523437 0 10-4.476563 10-10 0-5.519531-4.476563-10-10-10zm0 0"/><path d="m339.53125 291.042969v96.683593c0 5.523438 4.480469 10 10 10h96.6875c5.523438 0 10-4.476562 10-10v-96.683593c0-5.523438-4.476562-10-10-10h-96.6875c-5.519531 0-10 4.476562-10 10zm20 10h76.6875v76.683593h-76.6875zm0 0"/><path d="m47.71875 387.726562c0 5.523438 4.476562 10 10 10h96.683594c5.523437 0 10-4.476562 10-10v-96.683593c0-5.523438-4.476563-10-10-10h-96.683594c-5.523438 0-10 4.476562-10 10zm20-86.683593h76.683594v76.683593h-76.683594zm0 0"/><path d="m203.625 397.726562h96.683594c5.523437 0 10-4.476562 10-10v-96.683593c0-5.523438-4.476563-10-10-10h-96.683594c-5.523438 0-10 4.476562-10 10v96.683593c0 5.523438 4.476562 10 10 10zm10-96.683593h76.683594v76.683593h-76.683594zm0 0"/><path d="m197.667969 144.226562h15.359375c5.523437 0 10-4.476562 10-10 0-5.523437-4.476563-10-10-10h-15.359375c-5.523438 0-10 4.476563-10 10 0 5.523438 4.476562 10 10 10zm0 0"/><path d="m176.40625 241.476562c0-5.523437-4.476562-10-10-10h-15.355469c-5.523437 0-10 4.476563-10 10 0 5.523438 4.476563 10 10 10h15.355469c5.523438 0 10-4.476562 10-10zm0 0"/><path d="m197.667969 251.476562h15.359375c5.523437 0 10-4.476562 10-10 0-5.523437-4.476563-10-10-10h-15.359375c-5.523438 0-10 4.476563-10 10 0 5.523438 4.476562 10 10 10zm0 0"/><path d="m166.40625 124.226562h-15.355469c-5.523437 0-10 4.476563-10 10 0 5.523438 4.476563 10 10 10h15.355469c5.523438 0 10-4.476562 10-10 0-5.523437-4.476562-10-10-10zm0 0"/><path d="m244.289062 144.226562h15.355469c5.523438 0 10-4.476562 10-10 0-5.523437-4.476562-10-10-10h-15.355469c-5.523437 0-10 4.476563-10 10 0 5.523438 4.476563 10 10 10zm0 0"/><path d="m244.289062 251.476562h15.355469c5.523438 0 10-4.476562 10-10 0-5.523437-4.476562-10-10-10h-15.355469c-5.523437 0-10 4.476563-10 10 0 5.523438 4.476563 10 10 10zm0 0"/><path d="m290.910156 251.476562h15.355469c5.523437 0 10-4.476562 10-10 0-5.523437-4.476563-10-10-10h-15.355469c-5.523437 0-10 4.476563-10 10 0 5.523438 4.476563 10 10 10zm0 0"/><path d="m290.910156 144.226562h15.355469c5.523437 0 10-4.476562 10-10 0-5.523437-4.476563-10-10-10h-15.355469c-5.523437 0-10 4.476563-10 10 0 5.523438 4.476563 10 10 10zm0 0"/><path d="m104.429688 144.226562h15.355468c5.523438 0 10-4.476562 10-10 0-5.523437-4.476562-10-10-10h-15.355468c-5.523438 0-10 4.476563-10 10 0 5.523438 4.476562 10 10 10zm0 0"/><path d="m337.527344 144.226562h15.359375c5.519531 0 10-4.476562 10-10 0-5.523437-4.480469-10-10-10h-15.359375c-5.523438 0-10 4.476563-10 10 0 5.523438 4.476562 10 10 10zm0 0"/><path d="m47.71875 194.578125c0 5.523437 4.476562 10 10 10s10-4.476563 10-10v-13.449219c0-5.523437-4.476562-10-10-10s-10 4.476563-10 10zm0 0"/><path d="m47.71875 241.476562c0 5.523438 4.476562 10 10 10h15.449219c5.523437 0 10-4.476562 10-10 0-5.523437-4.476563-10-10-10h-5.449219v-5.449218c0-5.519532-4.476562-10-10-10s-10 4.480468-10 10zm0 0"/><path d="m57.71875 159.679688c5.523438 0 10-4.480469 10-10v-5.453126h5.449219c5.523437 0 10-4.476562 10-10 0-5.523437-4.476563-10-10-10h-15.449219c-5.523438 0-10 4.476563-10 10v15.453126c0 5.519531 4.476562 10 10 10zm0 0"/><path d="m337.527344 251.476562h15.359375c5.519531 0 10-4.476562 10-10 0-5.523437-4.480469-10-10-10h-15.359375c-5.523438 0-10 4.476563-10 10 0 5.523438 4.476562 10 10 10zm0 0"/><path d="m384.148438 144.226562h15.355468c5.523438 0 10-4.476562 10-10 0-5.523437-4.476562-10-10-10h-15.355468c-5.523438 0-10 4.476563-10 10 0 5.523438 4.476562 10 10 10zm0 0"/><path d="m104.429688 251.476562h15.355468c5.523438 0 10-4.476562 10-10 0-5.523437-4.476562-10-10-10h-15.355468c-5.523438 0-10 4.476563-10 10 0 5.523438 4.476562 10 10 10zm0 0"/><path d="m384.148438 251.476562h15.355468c5.523438 0 10-4.476562 10-10 0-5.523437-4.476562-10-10-10h-15.355468c-5.523438 0-10 4.476563-10 10 0 5.523438 4.476562 10 10 10zm0 0"/><path d="m456.21875 134.226562c0-5.523437-4.476562-10-10-10h-15.449219c-5.523437 0-10 4.476563-10 10 0 5.523438 4.476563 10 10 10h5.449219v5.453126c0 5.519531 4.476562 10 10 10s10-4.480469 10-10zm0 0"/><path d="m446.21875 171.128906c-5.523438 0-10 4.476563-10 10v13.449219c0 5.523437 4.476562 10 10 10s10-4.476563 10-10v-13.449219c0-5.523437-4.476562-10-10-10zm0 0"/><path d="m430.769531 251.476562h15.449219c5.523438 0 10-4.476562 10-10v-15.449218c0-5.519532-4.476562-10-10-10s-10 4.480468-10 10v5.449218h-5.449219c-5.523437 0-10 4.476563-10 10 0 5.523438 4.476563 10 10 10zm0 0"/><path d="m256 429.707031c-5.507812 0-10 4.492188-10 10 0 5.507813 4.492188 10 10 10s10-4.492187 10-10c0-5.507812-4.492188-10-10-10zm0 0"/></g></svg>