<svg id="Capa_1" enable-background="new 0 0 512.002 512.002" height="512" viewBox="0 0 512.002 512.002" width="512" xmlns="http://www.w3.org/2000/svg"><g><g><path d="m297.418 392.679h103.542c20.586 0 37.275 16.689 37.275 37.275v29.049h-140.817z" fill="#fb9"/><path d="m400.96 392.679h-23c20.586 0 37.275 16.688 37.275 37.275v29.049h23v-29.049c-.001-20.587-16.689-37.275-37.275-37.275z" fill="#ffa27d"/><path d="m450.661 429.952h-122.242c1.375-3.888 2.13-8.068 2.13-12.427 0-9.218-3.346-17.654-8.889-24.16l-61.748-74.098c-6.837-8.284-17.183-13.565-28.763-13.565h-129.484l.003 99.399h30.081c12.394 0 23.375 6.049 30.152 15.356l51.554 68.734c6.78 9.282 17.746 15.311 30.12 15.311h207.086c20.586 0 37.275-16.688 37.275-37.275s-16.689-37.275-37.275-37.275z" fill="#ffd9b3"/><g><path d="m450.661 429.952h-23c20.586 0 37.275 16.688 37.275 37.275s-16.689 37.275-37.275 37.275h23c20.586 0 37.275-16.688 37.275-37.275s-16.689-37.275-37.275-37.275z" fill="#fb9"/></g><path d="m66.001 280.853h24.332c9.15 0 16.567 7.417 16.567 16.567v115.964c0 9.15-7.417 16.567-16.567 16.567h-24.332z" fill="#f3f5f9"/><path d="m90.333 280.853h-22.998c9.149 0 16.567 7.417 16.567 16.567v115.964c0 9.15-7.417 16.567-16.567 16.567h22.998c9.15 0 16.567-7.417 16.567-16.567v-115.964c0-9.149-7.417-16.567-16.567-16.567z" fill="#cfd7e6"/><path d="m15.784 454.8h41.418c9.15 0 16.567-7.417 16.567-16.567v-165.664c0-9.15-7.417-16.567-16.567-16.567h-41.418c-4.575 0-8.283 3.709-8.283 8.283v182.232c-.001 4.575 3.708 8.283 8.283 8.283z" fill="#8db5ff"/><path d="m421.668 90.335c0-46.247-37.899-83.642-84.334-82.82-45.319.802-81.333 37.495-81.333 82.821 0 30.629 16.632 57.362 41.351 71.692 5.115 2.965 8.349 8.345 8.349 14.257v23.216h66.267v-23.091c0-5.981 3.264-11.427 8.435-14.432 24.672-14.342 41.265-41.049 41.265-71.643z" fill="#ffdf40"/><path d="m57.201 256.002h-23c9.149 0 16.567 7.417 16.567 16.567v165.665c0 9.15-7.417 16.567-16.567 16.567h23c9.15 0 16.567-7.417 16.567-16.567v-165.665c0-9.15-7.417-16.567-16.567-16.567z" fill="#7784ff"/><path d="m337.335 7.515c-3.39.06-6.72.344-9.995.795 40.269 5.629 71.263 40.205 71.263 82.025 0 30.594-16.593 57.301-41.265 71.643-5.171 3.006-8.435 8.452-8.435 14.432v23.091h23.066v-23.091c0-5.981 3.264-11.427 8.435-14.432 24.672-14.342 41.265-41.049 41.265-71.643-.001-46.247-37.9-83.641-84.334-82.82z" fill="#ffbe40"/><path d="m355.968 256.002h-34.267c-8.836 0-16-7.163-16-16v-33.7h66.267v33.7c0 8.836-7.163 16-16 16z" fill="#cfd7e6"/><path d="m348.968 206.302v33.7c0 8.837-7.163 16-16 16h23c8.837 0 16-7.163 16-16v-33.7z" fill="#b4c2db"/><path d="m371.968 222.869c9.15 0 16.567-7.417 16.567-16.567s-7.417-16.567-16.567-16.567h-66.267c-9.15 0-16.567 7.417-16.567 16.567s7.417 16.567 16.567 16.567z" fill="#f3f5f9"/><path d="m371.968 189.735h-23c9.15 0 16.567 7.417 16.567 16.567s-7.417 16.567-16.567 16.567h23c9.15 0 16.567-7.417 16.567-16.567s-7.417-16.567-16.567-16.567z" fill="#cfd7e6"/></g><g><path d="m450.661 422.453h-5.567c-3.581-21.129-22.002-37.274-44.134-37.274h-75.659c-.227 0-.45.014-.672.034l-58.932-70.72c-8.545-10.353-21.137-16.29-34.547-16.29h-116.75v-.782c0-13.271-10.796-24.067-24.067-24.067h-9.065v-.785c0-13.271-10.796-24.067-24.067-24.067h-41.417c-8.703 0-15.784 7.08-15.784 15.784v28.516c0 4.142 3.358 7.5 7.5 7.5s7.5-3.358 7.5-7.5v-28.516c0-.432.352-.784.784-.784h41.417c5 0 9.067 4.067 9.067 9.067v165.665c0 4.999-4.067 9.067-9.067 9.067h-41.417c-.432 0-.784-.352-.784-.784v-123.716c0-4.142-3.358-7.5-7.5-7.5s-7.5 3.358-7.5 7.5v123.716c0 8.703 7.081 15.784 15.784 15.784h41.417c13.271 0 24.067-10.796 24.067-24.067v-.782h9.065c13.27 0 24.067-10.796 24.067-24.067v-.784h17.349c9.489 0 18.495 4.587 24.089 12.271.021.028.042.057.063.085l51.498 68.658c8.411 11.514 21.934 18.387 36.176 18.387h207.087c24.688 0 44.774-20.086 44.774-44.775s-20.086-44.774-44.775-44.774zm-20.885 0h-92.004c.178-1.619.277-3.261.277-4.927 0-6.004-1.211-11.904-3.494-17.347h66.405c13.828 0 25.482 9.475 28.816 22.274zm-339.443-.001h-9.065v-134.099h9.065c4.999 0 9.067 4.067 9.067 9.067v8.263c0 .007-.001.013-.001.019s.001.013.001.019v107.663c0 5-4.068 9.068-9.067 9.068zm360.328 74.55h-207.086c-9.471 0-18.467-4.574-24.12-12.311l-51.524-68.694c-8.411-11.521-21.933-18.396-36.183-18.396h-17.348v-84.398h116.749c8.919 0 17.294 3.951 23.001 10.866l61.801 74.161c4.577 5.373 7.098 12.226 7.098 19.296 0 16.418-13.356 29.775-29.775 29.775-8.919 0-17.294-3.951-22.98-10.841l-58.211-70.481c-2.638-3.194-7.365-3.646-10.559-1.007-3.194 2.638-3.645 7.365-1.007 10.559l58.209 70.479c8.544 10.353 21.136 16.292 34.548 16.292 17.532 0 32.734-10.135 40.08-24.848h104.861c.007 0 .013.001.019.001s.013-.001.019-.001h12.408c16.418 0 29.774 13.357 29.774 29.774.001 16.417-13.356 29.774-29.774 29.774z"/><path d="m293.591 168.517c2.845 1.648 4.611 4.625 4.611 7.768v7.153c-9.608 3.16-16.567 12.212-16.567 22.864s6.959 19.704 16.567 22.864v10.836c0 12.958 10.542 23.5 23.5 23.5h34.267c12.958 0 23.5-10.542 23.5-23.5v-10.836c9.608-3.16 16.566-12.212 16.566-22.863 0-10.652-6.958-19.704-16.566-22.864v-7.027c0-3.216 1.802-6.262 4.704-7.948 27.754-16.134 44.995-46.071 44.995-78.127 0-24.432-9.599-47.317-27.028-64.441-17.426-17.12-40.509-26.302-64.938-25.878-23.648.418-45.815 9.826-62.417 26.489-2.923 2.934-2.914 7.683.02 10.607 2.934 2.923 7.682 2.914 10.607-.02 13.837-13.888 32.324-21.729 52.056-22.078 20.385-.369 39.628 7.303 54.159 21.58 14.536 14.281 22.541 33.367 22.541 53.741 0 26.733-14.382 51.701-37.533 65.159-7.504 4.361-12.166 12.376-12.166 20.917v5.824h-18.134v-51.267h9.066c4.143 0 7.5-3.358 7.5-7.5s-3.357-7.5-7.5-7.5h-33.133c-4.143 0-7.5 3.358-7.5 7.5s3.357 7.5 7.5 7.5h9.066v51.267h-18.133v-5.95c0-8.474-4.632-16.423-12.088-20.745-23.2-13.45-37.612-38.435-37.613-65.204 0-10.556 2.114-20.75 6.283-30.296 1.658-3.796-.075-8.217-3.872-9.875-3.792-1.658-8.217.076-9.874 3.872-5.001 11.452-7.537 23.665-7.537 36.299.002 32.099 17.279 62.056 45.091 78.179zm70.878 71.485c0 4.687-3.814 8.5-8.5 8.5h-34.267c-4.687 0-8.5-3.813-8.5-8.5v-9.633h51.267zm7.5-42.767c4.999 0 9.066 4.067 9.066 9.067 0 4.999-4.067 9.066-9.066 9.066h-66.267c-5 0-9.067-4.067-9.067-9.066s4.067-9.067 9.067-9.067z"/><path d="m173.168 130.969h33.133c4.142 0 7.5-3.358 7.5-7.5s-3.358-7.5-7.5-7.5h-33.133c-4.142 0-7.5 3.358-7.5 7.5s3.358 7.5 7.5 7.5z"/><path d="m229.186 216.373-28.694 16.567c-3.587 2.071-4.816 6.658-2.745 10.245 1.389 2.406 3.91 3.751 6.502 3.751 1.272 0 2.562-.324 3.743-1.006l28.694-16.567c3.587-2.071 4.816-6.658 2.745-10.245-2.072-3.587-6.658-4.816-10.245-2.745z"/><path d="m440.984 229.364 28.694 16.567c1.182.682 2.471 1.006 3.743 1.006 2.592 0 5.113-1.345 6.502-3.751 2.071-3.587.842-8.174-2.745-10.245l-28.694-16.567c-3.589-2.072-8.175-.843-10.245 2.745-2.071 3.586-.842 8.174 2.745 10.245z"/><path d="m504.502 115.969h-33.134c-4.143 0-7.5 3.358-7.5 7.5s3.357 7.5 7.5 7.5h33.134c4.143 0 7.5-3.358 7.5-7.5s-3.357-7.5-7.5-7.5z"/><path d="m444.741 31.57c1.272 0 2.563-.324 3.743-1.006l28.694-16.567c3.587-2.071 4.816-6.658 2.745-10.245-2.072-3.587-6.659-4.816-10.245-2.745l-28.694 16.567c-3.587 2.071-4.816 6.658-2.745 10.245 1.39 2.406 3.91 3.751 6.502 3.751z"/><path d="m200.491 13.997 28.694 16.567c1.181.682 2.471 1.006 3.743 1.006 2.592 0 5.113-1.345 6.502-3.752 2.071-3.587.842-8.174-2.745-10.245l-28.694-16.566c-3.587-2.072-8.174-.843-10.245 2.745-2.071 3.587-.842 8.174 2.745 10.245z"/></g></g></svg>