<svg id="Capa_1" enable-background="new 0 0 512 512" height="512" viewBox="0 0 512 512" width="512" xmlns="http://www.w3.org/2000/svg"><g><g><path d="m27.703 183.268h456.594v301.028c0 11.158-9.045 20.203-20.203 20.203h-416.187c-11.158 0-20.203-9.045-20.203-20.203v-301.028z" fill="#e4f6ff"/></g><g><path d="m453.992 183.268v301.028c0 11.158-9.045 20.203-20.203 20.203h30.305c11.158 0 20.203-9.045 20.203-20.203v-301.028z" fill="#b9e4ef"/></g><g><path d="m484.297 183.268h-456.594v-62.63c0-11.158 9.045-20.203 20.203-20.203h416.187c11.158 0 20.203 9.045 20.203 20.203v62.63z" fill="#80b4fb"/></g><g><path d="m464.094 100.435h-30.305c11.158 0 20.203 9.045 20.203 20.203v62.63h30.305v-62.63c0-11.158-9.046-20.203-20.203-20.203z" fill="#61a2f9"/></g><g><path d="m84.272 458.033v-436.391c0-7.811 6.332-14.142 14.142-14.142h315.171c7.811 0 14.142 6.332 14.142 14.142v436.39c0 7.811-6.332 14.142-14.142 14.142h-315.17c-7.811.001-14.143-6.331-14.143-14.141z" fill="#ffe07d"/></g><g><path d="m413.585 7.5h-20.203c7.811 0 14.142 6.332 14.142 14.142v436.39c0 7.81-6.332 14.142-14.142 14.142h20.203c7.811 0 14.142-6.332 14.142-14.142v-436.39c.001-7.81-6.331-14.142-14.142-14.142z" fill="#ffd064"/></g><g><g><path d="m116.598 39.825h129.301v139.402h-129.301z" fill="#80b4fb"/></g></g><g><g><path d="m143.872 393.382-27.274-20.203 27.274-20.203h251.53v40.406z" fill="#4a80aa"/></g><g><path d="m326.711 352.976h32.325v40.407h-32.325z" fill="#e4f6ff"/></g></g><g><path d="m484.3 252.15c-4.143 0-7.5 3.357-7.5 7.5v224.65c0 7.003-5.701 12.7-12.71 12.7h-416.18c-7.008 0-12.71-5.697-12.71-12.7v-32.27c0-4.143-3.358-7.5-7.5-7.5s-7.5 3.357-7.5 7.5v32.27c0 15.274 12.431 27.7 27.71 27.7h416.18c15.279 0 27.71-12.426 27.71-27.7v-224.65c0-4.142-3.358-7.5-7.5-7.5z"/><path d="m491.797 120.639c0-15.276-12.428-27.704-27.703-27.704h-28.864v-71.295c0-11.933-9.708-21.64-21.64-21.64h-315.18c-11.932 0-21.64 9.707-21.64 21.64v71.295h-28.863c-15.276 0-27.704 12.428-27.704 27.704l-.003 296.391c0 4.143 3.358 7.5 7.5 7.5s7.5-3.357 7.5-7.5v-226.26h41.57v135.61c0 4.143 3.358 7.5 7.5 7.5s7.5-3.357 7.5-7.5v-304.74c0-3.661 2.979-6.64 6.64-6.64h315.18c3.661 0 6.641 2.979 6.641 6.64v436.39c0 3.661-2.979 6.64-6.641 6.64h-315.18c-3.662 0-6.64-2.979-6.64-6.64v-96.65c0-4.143-3.358-7.5-7.5-7.5s-7.5 3.357-7.5 7.5v96.65c0 11.933 9.708 21.64 21.64 21.64h315.18c11.933 0 21.641-9.707 21.641-21.64v-267.26h41.569v33.881c0 4.143 3.357 7.5 7.5 7.5s7.5-3.357 7.5-7.5zm-456.594 55.131v-55.131c0-7.005 5.699-12.704 12.704-12.704h28.863v67.835zm400.027-67.835h28.863c7.005 0 12.703 5.699 12.703 12.704v55.131h-41.566z"/><path d="m213.573 64.65h-64.65c-4.142 0-7.5 3.357-7.5 7.5v17.495c0 4.143 3.358 7.5 7.5 7.5s7.5-3.357 7.5-7.5v-9.995h17.325v67.252c0 4.143 3.358 7.5 7.5 7.5s7.5-3.357 7.5-7.5v-67.252h17.325v9.995c0 4.143 3.358 7.5 7.5 7.5s7.5-3.357 7.5-7.5v-17.495c0-4.142-3.358-7.5-7.5-7.5z"/><path d="m116.598 186.728h129.301c4.142 0 7.5-3.357 7.5-7.5v-139.403c0-4.143-3.358-7.5-7.5-7.5h-129.301c-4.142 0-7.5 3.357-7.5 7.5v139.402c0 4.143 3.358 7.501 7.5 7.501zm7.5-139.403h114.301v124.402h-114.301z"/><path d="m395.402 47.325c4.143 0 7.5-3.357 7.5-7.5s-3.357-7.5-7.5-7.5h-96.976c-4.143 0-7.5 3.357-7.5 7.5s3.357 7.5 7.5 7.5z"/><path d="m270.724 74.676c0 4.143 3.357 7.5 7.5 7.5h117.179c4.143 0 7.5-3.357 7.5-7.5s-3.357-7.5-7.5-7.5h-117.179c-4.143 0-7.5 3.357-7.5 7.5z"/><path d="m278.224 117.026h117.179c4.143 0 7.5-3.357 7.5-7.5s-3.357-7.5-7.5-7.5h-117.179c-4.143 0-7.5 3.357-7.5 7.5s3.357 7.5 7.5 7.5z"/><path d="m278.224 151.877h117.179c4.143 0 7.5-3.357 7.5-7.5s-3.357-7.5-7.5-7.5h-117.179c-4.143 0-7.5 3.357-7.5 7.5s3.357 7.5 7.5 7.5z"/><path d="m116.598 221.073h278.805c4.143 0 7.5-3.357 7.5-7.5s-3.357-7.5-7.5-7.5h-278.805c-4.142 0-7.5 3.357-7.5 7.5s3.358 7.5 7.5 7.5z"/><path d="m116.598 255.924h278.805c4.143 0 7.5-3.357 7.5-7.5s-3.357-7.5-7.5-7.5h-278.805c-4.142 0-7.5 3.357-7.5 7.5s3.358 7.5 7.5 7.5z"/><path d="m116.598 290.774h228.297c4.143 0 7.5-3.357 7.5-7.5s-3.357-7.5-7.5-7.5h-228.297c-4.142 0-7.5 3.357-7.5 7.5s3.358 7.5 7.5 7.5z"/><path d="m278.224 186.728h117.179c4.143 0 7.5-3.357 7.5-7.5s-3.357-7.5-7.5-7.5h-117.179c-4.143 0-7.5 3.357-7.5 7.5s3.357 7.5 7.5 7.5z"/><path d="m112.133 379.205 27.274 20.203c1.292.957 2.857 1.474 4.464 1.474h251.53c4.143 0 7.5-3.357 7.5-7.5v-40.406c0-4.143-3.357-7.5-7.5-7.5h-28.866v-14.724c0-9.705-7.896-17.602-17.602-17.602h-82.833c-4.143 0-7.5 3.357-7.5 7.5s3.357 7.5 7.5 7.5h82.833c1.435 0 2.602 1.167 2.602 2.602v14.724h-207.663c-1.607 0-3.172.517-4.464 1.474l-27.274 20.203c-1.909 1.414-3.036 3.65-3.036 6.026s1.126 4.612 3.035 6.026zm239.403 6.677h-17.325v-25.406h17.325zm36.366 0h-21.366v-25.406h21.366zm-241.555-25.406h172.864v25.406h-172.864l-17.149-12.703z"/></g></g></svg>