<?xml version="1.0" encoding="iso-8859-1"?>
<!-- Generator: Adobe Illustrator 19.0.0, SVG Export Plug-In . SVG Version: 6.00 Build 0)  -->
<svg version="1.1" id="Capa_1" xmlns="http://www.w3.org/2000/svg" xmlns:xlink="http://www.w3.org/1999/xlink" x="0px" y="0px"
	 viewBox="0 0 511.999 511.999" style="enable-background:new 0 0 511.999 511.999;" xml:space="preserve">
<polygon style="fill:#FA982F;" points="256,349.772 170.666,298.572 170.666,213.238 256,264.438 "/>
<polygon style="fill:#F77219;" points="256,349.772 341.333,298.572 341.333,213.238 256,264.438 "/>
<polygon style="fill:#F9B44D;" points="170.666,213.238 256,162.038 341.333,213.238 256,264.438 "/>
<g>
	<path style="fill:#87CED9;" d="M249.173,3.318l-25.6,34.133l13.653,10.24l10.24-13.653v68.267h17.067V34.038l10.24,13.653
		l13.653-10.24l-25.6-34.133c-3.106-3.772-8.67-4.309-12.442-1.212C249.941,2.473,249.54,2.874,249.173,3.318z"/>
	<path style="fill:#87CED9;" d="M264.533,477.772v-68.267h-17.067v68.267l-10.24-13.653l-13.653,10.24l25.6,34.133
		c2.825,3.772,8.175,4.531,11.947,1.707c0.649-0.486,1.22-1.058,1.707-1.707l25.6-34.133l-13.653-10.24L264.533,477.772z"/>
	<rect x="247.466" y="119.372" style="fill:#87CED9;" width="17.067" height="17.067"/>
	<rect x="247.466" y="375.372" style="fill:#87CED9;" width="17.067" height="17.067"/>
	<path style="fill:#87CED9;" d="M102.4,264.438v-17.067H34.133l13.653-10.24l-10.24-13.653l-34.133,25.6
		c-3.772,2.825-4.531,8.175-1.707,11.947c0.486,0.649,1.058,1.22,1.707,1.707l34.133,25.6l10.24-13.653l-13.653-10.24H102.4
		L102.4,264.438z"/>
	<path style="fill:#87CED9;" d="M508.586,249.078l-34.133-25.6l-10.24,13.653l13.653,10.24H409.6v17.067h68.267l-13.653,10.24
		l10.24,13.653l34.133-25.6c3.772-2.825,4.531-8.175,1.707-11.947C509.807,250.136,509.235,249.565,508.586,249.078z"/>
	<rect x="119.466" y="247.372" style="fill:#87CED9;" width="17.067" height="17.067"/>
	<rect x="375.466" y="247.372" style="fill:#87CED9;" width="17.067" height="17.067"/>
	<path style="fill:#87CED9;" d="M95.496,121.932l-2.406-16.887l48.265,48.265l12.066-12.066l-48.265-48.265l16.887,2.406
		l2.415-16.896l-42.231-6.05c-4.659-0.691-9.003,2.526-9.694,7.185c-0.119,0.828-0.119,1.673,0,2.509l6.033,42.231L95.496,121.932z"
		/>
	<path style="fill:#87CED9;" d="M416.503,389.878l2.406,16.887l-48.265-48.265l-12.066,12.066l48.265,48.265l-16.87-2.423
		l-2.415,16.896l42.231,6.033c0.401,0.06,0.802,0.085,1.212,0.085c4.71,0,8.533-3.823,8.533-8.533c0-0.41-0.026-0.811-0.085-1.212
		l-6.033-42.231L416.503,389.878z"/>
	
		<rect x="156.921" y="156.869" transform="matrix(-0.7071 0.7071 -0.7071 -0.7071 399.4051 165.3655)" style="fill:#87CED9;" width="17.067" height="17.067"/>
	
		<rect x="337.979" y="337.881" transform="matrix(-0.7071 0.7071 -0.7071 -0.7071 836.4847 346.3444)" style="fill:#87CED9;" width="17.067" height="17.067"/>
	<path style="fill:#87CED9;" d="M141.354,358.484L93.09,406.749l2.406-16.887L78.6,387.446l-6.067,42.231
		c-0.666,4.668,2.569,8.986,7.236,9.66c0.401,0.06,0.811,0.085,1.212,0.085c0.41,0,0.811-0.026,1.212-0.085l42.231-6.033
		l-2.415-16.896l-16.887,2.406l48.265-48.265L141.354,358.484z"/>
	<path style="fill:#87CED9;" d="M370.645,153.326l48.265-48.265l-2.406,16.87l16.896,2.415l6.033-42.231
		c0.384-2.662-0.512-5.342-2.415-7.245c-1.894-1.911-4.582-2.807-7.245-2.415l-42.231,6.033l2.415,16.896l16.887-2.406
		l-48.265,48.265L370.645,153.326z"/>
	
		<rect x="157.01" y="337.878" transform="matrix(-0.7071 0.7071 -0.7071 -0.7071 527.5496 474.3045)" style="fill:#87CED9;" width="17.067" height="17.067"/>
	
		<rect x="337.979" y="156.859" transform="matrix(-0.7071 0.7071 -0.7071 -0.7071 708.4833 37.3218)" style="fill:#87CED9;" width="17.067" height="17.067"/>
</g>
<polygon style="fill:#F77219;" points="289.962,182.416 204.194,233.351 220.817,243.327 306.585,192.391 "/>
<path d="M165.401,206.616c-0.282,0.196-0.546,0.41-0.802,0.631c-0.265,0.299-0.512,0.623-0.734,0.956
	c-0.213,0.247-0.418,0.521-0.597,0.794c-0.196,0.393-0.375,0.802-0.512,1.22c-0.119,0.265-0.23,0.538-0.324,0.811
	c-0.196,0.717-0.299,1.459-0.299,2.21v85.333c0,2.995,1.57,5.769,4.139,7.313l85.333,51.2l0.094,0.043l0.094,0.068
	c0.452,0.23,0.913,0.427,1.399,0.572c0.196,0.068,0.384,0.179,0.589,0.239c1.451,0.401,2.987,0.401,4.437,0
	c0.205-0.06,0.393-0.171,0.589-0.239c0.486-0.145,0.947-0.341,1.399-0.572l0.094-0.068l0.094-0.043l85.333-51.2
	c2.569-1.545,4.139-4.318,4.139-7.313v-85.333c0-0.751-0.102-1.493-0.299-2.219c-0.085-0.265-0.196-0.521-0.316-0.768
	c-0.145-0.427-0.316-0.853-0.521-1.254c-0.179-0.273-0.375-0.538-0.589-0.785c-0.222-0.341-0.469-0.666-0.742-0.964
	c-0.256-0.222-0.521-0.435-0.794-0.631c-0.273-0.247-0.555-0.478-0.853-0.691l-85.333-51.2c-2.705-1.621-6.084-1.621-8.789,0
	l-85.333,51.2C165.981,206.13,165.683,206.36,165.401,206.616z M332.8,293.742l-68.267,40.96v-65.434l68.267-40.96V293.742z
	 M324.744,213.238L256,254.488l-26.078-15.65l68.745-41.25L324.744,213.238z M256,171.988l26.078,15.65l-68.745,41.25l-26.078-15.65
	L256,171.988z M179.2,228.308l68.267,40.96v65.425l-68.267-40.96V228.308z"/>
<path d="M264.533,34.038l10.24,13.653l13.653-10.24l-25.6-34.133c-3.106-3.772-8.67-4.309-12.442-1.212
	c-0.444,0.367-0.845,0.768-1.212,1.212l-25.6,34.133l13.653,10.24l10.24-13.653v68.267h17.067L264.533,34.038L264.533,34.038z"/>
<path d="M264.533,477.772v-68.267h-17.067v68.267l-10.24-13.653l-13.653,10.24l25.6,34.133c2.825,3.772,8.175,4.531,11.947,1.707
	c0.649-0.486,1.22-1.058,1.707-1.707l25.6-34.133l-13.653-10.24L264.533,477.772z"/>
<rect x="247.466" y="119.372" width="17.067" height="17.067"/>
<rect x="247.466" y="375.372" width="17.067" height="17.067"/>
<path d="M102.4,264.438v-17.067H34.133l13.653-10.24l-10.24-13.653l-34.133,25.6c-3.772,2.825-4.531,8.175-1.707,11.947
	c0.486,0.649,1.058,1.22,1.707,1.707l34.133,25.6l10.24-13.653l-13.653-10.24H102.4L102.4,264.438z"/>
<path d="M474.453,223.478l-10.24,13.653l13.653,10.24H409.6v17.067h68.267l-13.653,10.24l10.24,13.653l34.133-25.6
	c3.772-2.825,4.531-8.175,1.707-11.947c-0.486-0.649-1.058-1.22-1.707-1.707L474.453,223.478z"/>
<rect x="119.466" y="247.372" width="17.067" height="17.067"/>
<rect x="375.466" y="247.372" width="17.067" height="17.067"/>
<path d="M153.42,141.26l-48.265-48.265l16.887,2.406l2.415-16.896l-42.231-6.067c-4.659-0.691-9.003,2.526-9.694,7.185
	c-0.119,0.828-0.119,1.673,0,2.509l6.033,42.231l16.896-2.415l-2.406-16.887l48.265,48.265L153.42,141.26z"/>
<path d="M416.503,389.878l2.406,16.887l-48.265-48.265l-12.066,12.066l48.265,48.265l-16.87-2.423l-2.415,16.896l42.231,6.033
	c0.401,0.06,0.802,0.085,1.212,0.085c4.71,0,8.533-3.823,8.533-8.533c0-0.41-0.026-0.811-0.085-1.212l-6.033-42.231L416.503,389.878
	z"/>
<rect x="156.921" y="156.869" transform="matrix(-0.7071 0.7071 -0.7071 -0.7071 399.4051 165.3655)" width="17.067" height="17.067"/>
<rect x="337.979" y="337.881" transform="matrix(-0.7071 0.7071 -0.7071 -0.7071 836.4847 346.3444)" width="17.067" height="17.067"/>
<path d="M141.354,358.484L93.09,406.749l2.406-16.887L78.6,387.446l-6.067,42.231c-0.666,4.668,2.569,8.986,7.236,9.66
	c0.401,0.06,0.811,0.085,1.212,0.085c0.41,0,0.811-0.026,1.212-0.085l42.231-6.033l-2.415-16.896l-16.887,2.406l48.265-48.265
	L141.354,358.484z"/>
<path d="M433.399,124.364l6.033-42.231c0.384-2.662-0.512-5.342-2.415-7.245c-1.894-1.911-4.582-2.807-7.245-2.415l-42.231,6.033
	l2.415,16.896l16.887-2.406l-48.265,48.265l12.066,12.066l48.264-48.265l-2.406,16.87L433.399,124.364z"/>
<rect x="157.01" y="337.878" transform="matrix(-0.7071 0.7071 -0.7071 -0.7071 527.5496 474.3045)" width="17.067" height="17.067"/>
<rect x="337.979" y="156.859" transform="matrix(-0.7071 0.7071 -0.7071 -0.7071 708.4833 37.3218)" width="17.067" height="17.067"/>
<g>
</g>
<g>
</g>
<g>
</g>
<g>
</g>
<g>
</g>
<g>
</g>
<g>
</g>
<g>
</g>
<g>
</g>
<g>
</g>
<g>
</g>
<g>
</g>
<g>
</g>
<g>
</g>
<g>
</g>
</svg>
