<svg id="Capa_1" enable-background="new 0 0 512.002 512.002" height="512" viewBox="0 0 512.002 512.002" width="512" xmlns="http://www.w3.org/2000/svg"><g><g><g><path d="m440.449 64.295c-6.961 0-366.963 0-368.981 0-19.219 0-34.855 15.636-34.855 34.856v261.446c0 16.999 12.597 31.73 29.36 34.416l6.278 5.012h362l11.695-5.012c16.763-2.686 29.36-17.417 29.36-34.416 0-8.699 0-253.578 0-261.446-.002-19.219-15.638-34.856-34.857-34.856z" fill="#3f6d8e"/><path d="m69.862 360.598v-261.447c0-19.22 15.636-34.856 34.855-34.856-20.297 0-32.877 0-33.25 0-19.219 0-34.855 15.636-34.855 34.856v261.446c0 16.999 12.597 31.73 29.36 34.416l6.278 5.012h33.25l-6.278-5.012c-16.763-2.685-29.36-17.417-29.36-34.415z" fill="#365e7d"/><path d="m439.749 125.859h-365.5l-6.325 6.603v225.268c0 3.454 2.8 6.254 6.253 6.254h363.561c3.453 0 6.253-2.8 6.253-6.254 0-5.906 0-218.433 0-225.268z" fill="#e4f6ff"/><path d="m108.575 357.73v-225.268l6.325-6.603h-40.651l-6.325 6.603v225.268c0 3.454 2.8 6.254 6.253 6.254h40.651c-3.453 0-6.253-2.8-6.253-6.254z" fill="#d3effb"/><path d="m108.575 95.374h-34.397c-3.453 0-6.253 2.8-6.253 6.254v30.834h40.651l2.674-2.853v-32.25z" fill="#dd636e"/><path d="m437.738 95.373c-16.149 0-316.364 0-329.163 0v37.088h335.416v-30.834c0-3.453-2.8-6.254-6.253-6.254z" fill="#b1e4f9"/><path d="m188.085 177.128h-73.019c-3.585 0-6.491 2.906-6.491 6.491v135.698h86v-135.698c0-3.585-2.905-6.491-6.49-6.491z" fill="#3f6d8e"/><path d="m137.731 177.128h-22.665c-3.585 0-6.491 2.906-6.491 6.491v135.698h22.665v-135.698c0-3.585 2.906-6.491 6.491-6.491z" fill="#365e7d"/><path d="m166.394 319.317v-26.716c0-1.235-1.001-2.237-2.237-2.237h-25.163c-1.235 0-2.237 1.001-2.237 2.237v26.716z" fill="#e4f6ff"/><path d="m153.812 290.364h-14.818c-1.235 0-2.237 1.001-2.237 2.237v26.716h14.818v-26.716c0-1.235 1.002-2.237 2.237-2.237z" fill="#d3effb"/><path d="m498.639 395.014h-485.363c-3.214 0-5.82 2.631-5.82 5.876v20.213c0 14.998 12.152 27.269 27.005 27.269h442.992c14.853 0 27.005-12.271 27.005-27.269v-20.213c.001-3.246-2.605-5.876-5.819-5.876z" fill="#407093"/><path d="m67.924 421.103v-20.213c0-3.246 2.605-5.876 5.82-5.876h-60.467c-3.214 0-5.82 2.631-5.82 5.876v20.213c0 14.998 12.152 27.269 27.005 27.269h60.468c-14.853 0-27.006-12.271-27.006-27.269z" fill="#365e7d"/><path d="m183.465 395.014v13.561c0 6.665 5.4 12.119 12.001 12.119h120.984c6.601 0 12.001-5.454 12.001-12.119v-13.561z" fill="#5c90b9"/><path d="m243.933 408.575v-13.561h-60.468v13.561c0 6.665 5.4 12.119 12.001 12.119h60.468c-6.601-.001-12.001-5.454-12.001-12.119z" fill="#4a80aa"/><path d="m278.246 319.317v-75.962c0-1.235-1.001-2.237-2.237-2.237h-25.163c-1.235 0-2.237 1.001-2.237 2.237v75.962z" fill="#dd636e"/><path d="m337.52 319.317v-103.464c0-1.235-1.001-2.237-2.237-2.237h-25.163c-1.235 0-2.237 1.001-2.237 2.237v103.464z" fill="#ffaa5b"/><path d="m396.793 319.317v-130.966c0-1.235-1.001-2.237-2.237-2.237h-25.163c-1.235 0-2.237 1.001-2.237 2.237v130.966z" fill="#b3e59f"/><path d="m267.68 241.119h-16.833c-1.235 0-2.237 1.001-2.237 2.237v75.962h16.833v-75.962c0-1.236 1.002-2.237 2.237-2.237z" fill="#da4a54"/><path d="m326.953 213.616h-16.833c-1.235 0-2.237 1.001-2.237 2.237v103.464h16.833v-103.464c.001-1.235 1.002-2.237 2.237-2.237z" fill="#ff9838"/><path d="m386.227 186.114h-16.833c-1.235 0-2.237 1.001-2.237 2.237v130.966h16.833v-130.966c0-1.235 1.001-2.237 2.237-2.237z" fill="#95d6a4"/></g><g><path d="m74.221 371.151h363.561c7.583 0 13.753-6.17 13.753-13.754 0-7.864 0-243.363 0-256.103 0-7.584-6.17-13.754-13.753-13.754-4.567 0-356.432 0-363.561 0-7.584 0-13.754 6.17-13.754 13.754 0 17.101.001 248.991.001 256.103 0 7.584 6.17 13.754 13.753 13.754zm41.897-268.61h320.416v22.088h-320.416zm320.416 37.088v216.522h-361.066v-216.522zm-361.067-37.088h25.651v22.088h-25.651z"/><path d="m498.683 387.181h-25.644c6.131-7.405 9.809-16.846 9.809-26.916v-95.316c0-4.143-3.357-7.5-7.5-7.5s-7.5 3.357-7.5 7.5v95.316c0 13.106-9.631 24.579-22.494 26.916-11.075 0-361.341 0-378.705 0-12.863-2.337-22.493-13.809-22.493-26.916v-261.447c0-15.084 12.271-27.355 27.355-27.355h368.981c15.084 0 27.355 12.271 27.355 27.355v131.13c0 4.143 3.357 7.5 7.5 7.5s7.5-3.357 7.5-7.5v-131.13c0-23.354-19.001-42.355-42.355-42.355h-368.981c-23.354 0-42.355 19.001-42.355 42.355v261.446c0 10.07 3.677 19.511 9.808 26.916h-25.645c-7.344.001-13.319 6.002-13.319 13.378v20.213c0 19.172 15.479 34.769 34.505 34.769h442.992c19.026 0 34.505-15.597 34.505-34.769v-20.213c0-7.376-5.975-13.377-13.319-13.377zm-1.681 33.59c0 10.9-8.75 19.769-19.505 19.769h-442.992c-10.755-.001-19.505-8.869-19.505-19.769v-18.59h161.008v6.062c0 10.817 8.748 19.618 19.501 19.618h42.991c4.143 0 7.5-3.357 7.5-7.5s-3.357-7.5-7.5-7.5h-42.991c-2.439 0-4.501-2.115-4.501-4.618v-6.062h129.986v6.062c0 2.503-2.062 4.618-4.501 4.618h-42.993c-4.143 0-7.5 3.357-7.5 7.5s3.357 7.5 7.5 7.5h42.993c10.753 0 19.501-8.801 19.501-19.618v-6.062h161.008z"/><path d="m101.373 326.484h100.75c4.143 0 7.5-3.357 7.5-7.5s-3.357-7.5-7.5-7.5h-.005v-128.198c0-7.714-6.276-13.99-13.99-13.99h-73.019c-7.715 0-13.991 6.276-13.991 13.99v128.211c-4.023.135-7.245 3.431-7.245 7.487 0 4.143 3.357 7.5 7.5 7.5zm57.564-15h-14.637v-13.953h14.637zm-42.819-127.188h71v127.188h-13.182v-19.216c0-5.369-4.368-9.737-9.736-9.737h-25.163c-5.369 0-9.737 4.368-9.737 9.737v19.216h-13.182z"/><path d="m241.123 326.484h163.25c4.143 0 7.5-3.357 7.5-7.5s-3.357-7.5-7.5-7.5h-.037v-123.465c0-5.369-4.368-9.737-9.736-9.737h-25.163c-5.369 0-9.737 4.368-9.737 9.737v123.466h-14.637v-95.964c0-5.368-4.368-9.736-9.736-9.736h-25.163c-5.369 0-9.737 4.368-9.737 9.736v95.964h-14.637v-68.462c0-5.368-4.368-9.736-9.736-9.736h-25.164c-5.369 0-9.737 4.368-9.737 9.736v68.462h-.029c-4.143 0-7.5 3.357-7.5 7.5s3.356 7.499 7.499 7.499zm133.576-133.203h14.637v118.203h-14.637zm-59.273 27.503h14.637v90.7h-14.637zm-59.274 27.502h14.637v63.198h-14.637z"/></g></g><path d="m134.95 269.785h33.336c4.143 0 7.5-3.357 7.5-7.5s-3.357-7.5-7.5-7.5h-33.336c-4.143 0-7.5 3.357-7.5 7.5s3.358 7.5 7.5 7.5z"/><path d="m134.95 242.282h33.336c4.143 0 7.5-3.357 7.5-7.5s-3.357-7.5-7.5-7.5h-33.336c-4.143 0-7.5 3.357-7.5 7.5s3.358 7.5 7.5 7.5z"/><path d="m134.95 214.78h33.336c4.143 0 7.5-3.357 7.5-7.5s-3.357-7.5-7.5-7.5h-33.336c-4.143 0-7.5 3.357-7.5 7.5s3.358 7.5 7.5 7.5z"/></g></svg>