<?xml version="1.0"?>
<svg xmlns="http://www.w3.org/2000/svg" xmlns:xlink="http://www.w3.org/1999/xlink" xmlns:svgjs="http://svgjs.com/svgjs" version="1.1" width="512" height="512" x="0" y="0" viewBox="0 0 512 512" style="enable-background:new 0 0 512 512" xml:space="preserve" class=""><g><g xmlns="http://www.w3.org/2000/svg" id="Outline"><rect x="248" y="448" width="16" height="16" fill="#1b5083" data-original="#000000" style="" class=""/><path d="M368,324.688l-22.344-22.344a36.283,36.283,0,0,0-51.312,51.312L341.7,401.02A78.647,78.647,0,0,0,333.964,416H144V312H128V456a40.047,40.047,0,0,0,40,40H448a8,8,0,0,0,8-8V336.355a87.61,87.61,0,0,0-21.453-57.562L384,213.271V88a40.047,40.047,0,0,0-40-40h-8V64h8a24.027,24.027,0,0,1,24,24v8H336v16h32V324.688ZM144,456V432H329.616a77.578,77.578,0,0,0,7.75,48H168A24.027,24.027,0,0,1,144,456ZM422.188,288.945A72.007,72.007,0,0,1,440,336.355V480H355.984a61.837,61.837,0,0,1-.914-70.184l3.586-5.378a8,8,0,0,0-1-10.094l-52-52a20.285,20.285,0,0,1,28.688-28.688l68,68,11.312-11.312L384,340.688V239.461Z" fill="#1b5083" data-original="#000000" style="" class=""/><path d="M56,272h61.258l69.828,54.316a8,8,0,0,0,12.836-7.449L193.227,272H280a40.047,40.047,0,0,0,40-40V56a40.047,40.047,0,0,0-40-40H56A40.047,40.047,0,0,0,16,56V232A40.047,40.047,0,0,0,56,272ZM32,56A24.027,24.027,0,0,1,56,32H280a24.027,24.027,0,0,1,24,24V232a24.027,24.027,0,0,1-24,24H184a8,8,0,0,0-7.922,9.133l5.2,36.394-56.367-43.843A8.019,8.019,0,0,0,120,256H56a24.027,24.027,0,0,1-24-24Z" fill="#1b5083" data-original="#000000" style="" class=""/><path d="M64,176h38.885l15.235,4.353-5.706,17.116a7.991,7.991,0,0,0,5.391,10.222l56,16A7.913,7.913,0,0,0,176,224a8,8,0,0,0,7.586-5.469l5.927-17.78,24.292,6.94A8,8,0,0,0,224,200V72a8,8,0,0,0-10.195-7.691L102.885,96H64a8,8,0,0,0-8,8v64A8,8,0,0,0,64,176Zm106.836,30.2-40.6-11.6,3.281-9.851,40.605,11.6ZM208,189.4l-96-27.43v-51.93l96-27.43ZM72,112H96v48H72Z" fill="#1b5083" data-original="#000000" style="" class=""/><rect x="248" y="128" width="32" height="16" fill="#1b5083" data-original="#000000" style="" class=""/><rect x="246.111" y="79.999" width="35.777" height="16.002" transform="translate(-11.484 127.355) rotate(-26.565)" fill="#1b5083" data-original="#000000" style="" class=""/><rect x="255.999" y="166.111" width="16.002" height="35.777" transform="translate(-18.639 337.841) rotate(-63.435)" fill="#1b5083" data-original="#000000" style="" class=""/></g></g></svg>
