<svg id="Layer_5" enable-background="new 0 0 64 64" height="512" viewBox="0 0 64 64" width="512" xmlns="http://www.w3.org/2000/svg"><g><g><g><path d="m2 15h39v47h-39z" fill="#e6e9ed"/></g><g><path d="m18 32v6h-2-2v-6h2z" fill="#ff826e"/></g><g><path d="m26 38v11h-2-2v-11h2z" fill="#ff826e"/></g><g><path d="m10 48v6h-2-2v-6h2z" fill="#ff826e"/></g><g><path d="m45 36h-8l-15-20h38z" fill="#b4dd7f"/></g><g><path d="m45 36v6.84c-1.22-.54-2.58-.84-4-.84s-2.78.3-4 .84v-6.84z" fill="#b4dd7f"/></g><g><path d="m62 13v2c0 .55-.45 1-1 1h-1-38-1c-.55 0-1-.45-1-1v-2c0-.55.45-1 1-1h3 4 12 4 10 4 3c.55 0 1 .45 1 1z" fill="#a0d468"/></g><g><path d="m58 12h-4c0-3.31-2.69-6-6-6-1.91 0-3.62.9-4.72 2.29-.51-1.3-1.3-2.46-2.28-3.43 1.8-1.77 4.27-2.86 7-2.86 5.52 0 10 4.48 10 10z" fill="#ffc729"/></g><g><path d="m41 4.86c.98.97 1.77 2.13 2.28 3.43.47 1.15.72 2.4.72 3.71h-4c0-3.31-2.69-6-6-6s-6 2.69-6 6h-4c0-5.52 4.48-10 10-10 2.73 0 5.2 1.09 7 2.86z" fill="#ffc729"/></g><g><path d="m54 12h-10c0-1.31-.25-2.56-.72-3.71 1.1-1.39 2.81-2.29 4.72-2.29 3.31 0 6 2.69 6 6z" fill="#fcd770"/></g><g><path d="m40 12h-12c0-3.31 2.69-6 6-6s6 2.69 6 6z" fill="#fcd770"/></g><g><path d="m45 42.84c3.53 1.54 6 5.06 6 9.16 0 5.52-4.48 10-10 10s-10-4.48-10-10c0-4.1 2.47-7.62 6-9.16 1.22-.54 2.58-.84 4-.84s2.78.3 4 .84z" fill="#fcd770"/></g></g><g><path d="m40 45v2h-3v3c0 1.654 1.346 3 3 3h2c.552 0 1 .449 1 1v1h-3c-.552 0-1-.449-1-1h-2c0 1.654 1.346 3 3 3v2h2v-2h3v-3c0-1.654-1.346-3-3-3h-2c-.552 0-1-.449-1-1v-1h3c.552 0 1 .449 1 1h2c0-1.654-1.346-3-3-3v-2z"/><path d="m32.375 18.875h2v11.25h-2z" transform="matrix(.8 -.6 .6 .8 -8.025 24.933)"/><path d="m38 30.75h2v2.5h-2z" transform="matrix(.8 -.6 .6 .8 -11.4 29.81)"/><path d="m61 11h-2.051c-.507-5.598-5.221-10-10.949-10-2.587 0-5.037.889-7.003 2.518-1.903-1.572-4.342-2.518-6.997-2.518-5.728 0-10.442 4.402-10.949 10h-2.051c-1.103 0-2 .897-2 2v2c0 1.103.897 2 2 2h.5l14.5 19.333v5.881c-3.556 1.825-6 5.521-6 9.786 0 3.72 1.861 7.008 4.695 9h-31.695v-46h-2v48h40c6.065 0 11-4.935 11-11 0-4.264-2.444-7.961-6-9.786v-5.881l14.5-19.333h.5c1.103 0 2-.897 2-2v-2c0-1.103-.897-2-2-2zm-4.059 0h-2.021c-.488-3.387-3.401-6-6.92-6-1.644 0-3.197.568-4.435 1.587-.331-.583-.711-1.135-1.14-1.646 1.583-1.255 3.525-1.941 5.575-1.941 4.625 0 8.442 3.507 8.941 8zm-11.992 0c-.078-.864-.26-1.696-.527-2.491.939-.964 2.215-1.509 3.578-1.509 2.414 0 4.434 1.721 4.899 4zm-10.949-8c4.625 0 8.442 3.507 8.941 8h-2.021c-.488-3.387-3.401-6-6.92-6s-6.432 2.613-6.92 6h-2.021c.499-4.493 4.316-8 8.941-8zm4.899 8h-9.798c.465-2.279 2.485-4 4.899-4s4.434 1.721 4.899 4zm11.101 41c0 4.962-4.037 9-9 9s-9-4.038-9-9 4.037-9 9-9 9 4.038 9 9zm-9-11c-1.041 0-2.045.155-3 .426v-4.426h6v4.426c-.955-.271-1.959-.426-3-.426zm3.5-6h-7l-13.5-18h34zm-23.5-20v-2h40l.001 2z"/><path d="m7 59h2v-4h2v-8h-2v-10h-2v10h-2v8h2zm0-10h2v4h-2z"/><path d="m15 27v4h-2v8h2v10h2v-10h2v-8h-2v-4zm2 10h-2v-4h2z"/><path d="m23 32v5h-2v13h2v4h2v-4h2v-13h-2v-5zm2 16h-2v-9h2z"/><path d="m5 15h10v2h-10z"/><path d="m5 19h10v2h-10z"/><path d="m13 23h2v2h-2z"/><path d="m5 23h2v2h-2z"/><path d="m9 23h2v2h-2z"/></g></g></svg>