<?xml version="1.0"?>
<svg xmlns="http://www.w3.org/2000/svg" xmlns:xlink="http://www.w3.org/1999/xlink" xmlns:svgjs="http://svgjs.com/svgjs" version="1.1" width="512" height="512" x="0" y="0" viewBox="0 0 512 512" style="enable-background:new 0 0 512 512" xml:space="preserve" class=""><g><g xmlns="http://www.w3.org/2000/svg"><path d="m7.5 152.5c4.142 0 7.5-3.357 7.5-7.5v-46.335c0-13.876 11.358-25.165 25.32-25.165h249.873c4.142 0 7.5-3.357 7.5-7.5s-3.358-7.5-7.5-7.5h-249.873c-22.233 0-40.32 18.018-40.32 40.165v46.335c0 4.143 3.358 7.5 7.5 7.5z" fill="#ffa700" data-original="#000000" style="" class=""/><path d="m411.954 438.5h-371.634c-13.962 0-25.32-11.289-25.32-25.165v-233.335c0-4.143-3.358-7.5-7.5-7.5s-7.5 3.357-7.5 7.5v233.335c0 22.147 18.087 40.165 40.32 40.165h371.634c4.142 0 7.5-3.357 7.5-7.5s-3.358-7.5-7.5-7.5z" fill="#ffa700" data-original="#000000" style="" class=""/><path d="m471.68 58.5h-146.51c-4.142 0-7.5 3.357-7.5 7.5s3.358 7.5 7.5 7.5h146.51c13.961 0 25.32 11.289 25.32 25.165v314.67c0 13.876-11.358 25.165-25.32 25.165h-24.734c-4.142 0-7.5 3.357-7.5 7.5s3.358 7.5 7.5 7.5h24.734c22.232 0 40.32-18.018 40.32-40.165v-314.67c0-22.147-18.087-40.165-40.32-40.165z" fill="#ffa700" data-original="#000000" style="" class=""/><path d="m120.18 297.557c-4.142 0-7.5 3.357-7.5 7.5v71.506c0 11.641 10.985 20.759 25.009 20.759s25.009-9.118 25.009-20.759v-146.99c22.286-1.292 40.021-19.752 40.021-42.266s-17.735-40.973-40.021-42.266v-11.98c0-11.592-10.985-20.672-25.009-20.672s-25.009 9.08-25.009 20.672v11.98c-22.286 1.292-40.021 19.752-40.021 42.266s17.735 40.973 40.021 42.266v39.717c0 4.143 3.358 7.5 7.5 7.5s7.5-3.357 7.5-7.5v-39.638h20.019v146.911c0 2.719-4.281 5.759-10.009 5.759s-10.009-3.04-10.009-5.759v-71.506c-.001-4.143-3.359-7.5-7.501-7.5zm17.509-170.168c5.637 0 10.009 3.049 10.009 5.672v11.901h-20.018v-11.901c0-2.623 4.372-5.672 10.009-5.672zm-50.03 59.918c0-15.078 12.345-27.345 27.519-27.345h45.023c15.174 0 27.519 12.267 27.519 27.345s-12.345 27.345-27.519 27.345c-4.396-.282-39.66.156-45.023 0-15.175-.001-27.519-12.267-27.519-27.345z" fill="#ffa700" data-original="#000000" style="" class=""/><path d="m322.783 321.707c0-22.547-17.789-41.031-40.123-42.273l.109-146.164c0-11.642-10.985-20.761-25.009-20.761-14.023 0-25.009 9.119-25.009 20.766l.092 146.159c-22.333 1.243-40.121 19.727-40.121 42.273 0 22.537 17.773 41.014 40.092 42.271l-.063 12.94c0 11.582 10.985 20.654 25.009 20.654s25.009-9.072 25.009-20.697l-.075-12.898c22.318-1.259 40.089-19.734 40.089-42.27zm-65.023-194.198c5.729 0 10.009 3.041 10.009 5.755l-.109 146.099h-19.817l-.092-146.093c0-2.72 4.281-5.761 10.009-5.761zm0 255.064c-5.637 0-10.009-3.039-10.009-5.618l.063-12.903h19.88l.075 12.867c.001 2.615-4.372 5.654-10.009 5.654zm22.504-33.521h-45.024c-15.173 0-27.518-12.267-27.518-27.345s12.345-27.345 27.518-27.345h45.024c15.174 0 27.519 12.267 27.519 27.345s-12.345 27.345-27.519 27.345z" fill="#ffa700" data-original="#000000" style="" class=""/><path d="m400.824 196.81v-63.38c0-11.677-10.985-20.824-25.009-20.824s-25.009 9.147-25.009 20.847l.19 63.343c-22.376 1.198-40.211 19.703-40.211 42.28 0 22.58 17.84 41.087 40.219 42.281l-.198 95.868c0 11.595 10.985 20.677 25.009 20.677s25.009-9.082 25.009-20.677v-95.883c22.286-1.292 40.021-19.752 40.021-42.266s-17.735-40.974-40.021-42.266zm-25.01-69.205c5.729 0 10.009 3.075 10.009 5.824v63.301h-19.829l-.19-63.301c.001-2.748 4.282-5.824 10.01-5.824zm0 255.295c-5.637 0-10.009-3.052-10.009-5.661l.198-95.819h19.821v95.804c0 2.625-4.372 5.676-10.01 5.676zm22.513-116.48h-45.024c-15.174 0-27.519-12.267-27.519-27.345s12.345-27.345 27.519-27.345h45.024c15.173 0 27.518 12.267 27.518 27.345s-12.345 27.345-27.518 27.345z" fill="#ffa700" data-original="#000000" style="" class=""/></g></g></svg>
