<?xml version="1.0"?>
<svg xmlns="http://www.w3.org/2000/svg" xmlns:xlink="http://www.w3.org/1999/xlink" xmlns:svgjs="http://svgjs.com/svgjs" version="1.1" width="512" height="512" x="0" y="0" viewBox="0 0 512 512" style="enable-background:new 0 0 512 512" xml:space="preserve" class=""><g><g xmlns="http://www.w3.org/2000/svg"><g><path d="m223.662 57.968c-1.132-3.985-5.282-6.296-9.264-5.165-52.554 14.931-93.19 57.187-106.048 110.277-.975 4.026 1.498 8.08 5.523 9.055 4.059.981 8.087-1.528 9.055-5.523 11.588-47.843 48.208-85.923 95.569-99.379 3.985-1.133 6.297-5.281 5.165-9.265z" fill="#0f7095" data-original="#000000" style="" class=""/><path d="m213.466 100.653c-26.9 11.653-48.08 34.114-58.109 61.623-1.419 3.892.586 8.197 4.478 9.615 3.899 1.424 8.2-.595 9.615-4.477 8.625-23.657 26.841-42.974 49.979-52.998 3.801-1.646 5.547-6.062 3.9-9.863-1.645-3.801-6.061-5.548-9.863-3.9z" fill="#0f7095" data-original="#000000" style="" class=""/><path d="m491.992 213.68c-.002-21.746-17.601-39.354-39.359-39.354h-.011l-88.938.023c-19.672.004-38.558 8.344-51.814 22.881-.691.758-1.403 1.495-2.132 2.21.001-.16.003-.32.003-.48 0-29.632-24.107-53.738-53.739-53.738s-53.739 24.106-53.739 53.738c0 5.547.855 11.031 2.512 16.26h-145.445c-21.703 0-39.36 17.657-39.36 39.36v218.06c0 21.746 17.596 39.36 39.358 39.36h.016 393.34c21.698-.007 39.349-17.81 39.346-39.509zm-274.731-14.721c0-21.36 17.378-38.738 38.739-38.738s38.739 17.378 38.739 38.738c0 4.029-.609 7.97-1.813 11.753-6.824 2.939-14.241 4.507-21.807 4.507h-50.29c-2.343-5.068-3.568-10.616-3.568-16.26zm235.418 297.897-393.341.144h-.01c-13.457 0-24.359-10.891-24.359-24.36v-218.061c0-13.433 10.928-24.36 24.36-24.36h211.79c19.641 0 38.548-8.313 51.833-22.882 10.422-11.429 25.269-17.984 40.734-17.988l88.939-.023h.007c13.459 0 24.358 10.89 24.359 24.356l.039 258.812c.002 13.429-10.922 24.358-24.351 24.362z" fill="#0f7095" data-original="#000000" style="" class=""/><path d="m64.432 195.209c4.097.244 7.68-2.89 7.92-7.054 5.62-97.096 86.288-173.155 183.648-173.155 84.685 0 155.375 57.06 177.059 133.869 1.125 3.985 5.269 6.305 9.255 5.18s6.306-5.27 5.18-9.256c-23.392-82.86-99.676-144.793-191.494-144.793-105.299 0-192.544 82.267-198.623 187.288-.239 4.136 2.919 7.682 7.055 7.921z" fill="#0f7095" data-original="#000000" style="" class=""/><path d="m339.13 276.063h-166.26c-15.178 0-27.526 12.349-27.526 27.526v122.962c0 15.178 12.348 27.525 27.526 27.525h166.26c15.178 0 27.526-12.348 27.526-27.525v-42.431c0-4.143-3.358-7.5-7.5-7.5s-7.5 3.357-7.5 7.5v42.431c0 6.906-5.619 12.525-12.526 12.525h-166.26c-6.907 0-12.526-5.619-12.526-12.525v-122.961c0-6.907 5.619-12.526 12.526-12.526h166.26c6.907 0 12.526 5.619 12.526 12.526v45.472c0 4.143 3.358 7.5 7.5 7.5s7.5-3.357 7.5-7.5v-45.472c0-15.178-12.348-27.527-27.526-27.527z" fill="#0f7095" data-original="#000000" style="" class=""/><path d="m302.884 329.654-39.655-22.895c-4.459-2.573-10-2.574-14.458 0l-39.656 22.895c-4.456 2.574-7.229 7.37-7.229 12.521v45.789c0 5.148 2.77 9.946 7.229 12.521l39.655 22.895c4.458 2.573 9.999 2.575 14.458 0l39.656-22.895c4.458-2.575 7.229-7.373 7.229-12.521v-45.789c0-5.145-2.769-9.945-7.229-12.521zm-46.884-9.748 31.613 18.252-31.613 18.252-31.613-18.252zm-39.113 31.242 31.613 18.252v36.504l-31.613-18.252zm46.613 54.756v-36.504l31.613-18.252v36.504z" fill="#0f7095" data-original="#000000" style="" class=""/></g></g></g></svg>
