<?xml version="1.0"?>
<svg xmlns="http://www.w3.org/2000/svg" xmlns:xlink="http://www.w3.org/1999/xlink" xmlns:svgjs="http://svgjs.com/svgjs" version="1.1" width="512" height="512" x="0" y="0" viewBox="0 0 512 512" style="enable-background:new 0 0 512 512" xml:space="preserve" class=""><g><g xmlns="http://www.w3.org/2000/svg" id="XMLID_1009_"><g id="XMLID_689_"><path id="XMLID_703_" d="m70 254.442v112.279c0 29.11 53.325 44.342 106 44.342s106-15.231 106-44.342v-112.279c0-29.111-53.325-44.342-106-44.342s-106 15.232-106 44.342zm192 56.14c0 2.887-5.722 9.229-21.486 14.868-17.078 6.109-39.989 9.474-64.514 9.474s-47.436-3.364-64.514-9.474c-15.764-5.639-21.486-11.981-21.486-14.868v-29.123c20.283 11.44 53.265 17.325 86 17.325s65.717-5.884 86-17.325zm-21.486 71.008c-17.078 6.109-39.989 9.474-64.514 9.474s-47.436-3.364-64.514-9.474c-15.764-5.64-21.486-11.982-21.486-14.868v-29.123c20.283 11.44 53.265 17.325 86 17.325s65.717-5.884 86-17.325v29.123c0 2.886-5.722 9.228-21.486 14.868zm21.486-127.148c0 2.887-5.722 9.229-21.486 14.867-17.078 6.109-39.99 9.475-64.514 9.475s-47.436-3.365-64.514-9.475c-15.764-5.638-21.486-11.98-21.486-14.867s5.722-9.229 21.486-14.868c17.078-6.109 39.99-9.474 64.514-9.474s47.436 3.365 64.514 9.474c15.764 5.64 21.486 11.982 21.486 14.868z" fill="#0f7095" data-original="#000000" style="" class=""/><path id="XMLID_707_" d="m421.83 108.005c-2.63 0-5.21 1.07-7.07 2.93s-2.93 4.44-2.93 7.07 1.069 5.21 2.93 7.07 4.44 2.93 7.07 2.93c2.64 0 5.21-1.07 7.069-2.93 1.86-1.86 2.931-4.44 2.931-7.07s-1.07-5.21-2.931-7.07c-1.859-1.86-4.429-2.93-7.069-2.93z" fill="#0f7095" data-original="#000000" style="" class=""/><path id="XMLID_709_" d="m367.5 108.005c-2.63 0-5.21 1.07-7.07 2.93s-2.93 4.44-2.93 7.07 1.069 5.21 2.93 7.07 4.44 2.93 7.07 2.93 5.21-1.07 7.069-2.93c1.86-1.86 2.931-4.44 2.931-7.07s-1.07-5.21-2.931-7.07c-1.859-1.86-4.439-2.93-7.069-2.93z" fill="#0f7095" data-original="#000000" style="" class=""/><path id="XMLID_710_" d="m313.17 108.005c-2.641 0-5.21 1.07-7.07 2.93-1.87 1.86-2.93 4.44-2.93 7.07s1.06 5.21 2.93 7.07c1.86 1.86 4.43 2.93 7.07 2.93 2.63 0 5.21-1.07 7.07-2.93 1.859-1.86 2.93-4.44 2.93-7.07s-1.07-5.21-2.93-7.07-4.44-2.93-7.07-2.93z" fill="#0f7095" data-original="#000000" style="" class=""/><path id="XMLID_713_" d="m470 .005h-220c-23.159 0-42 18.841-42 42v117.038h-166c-23.159 0-42 18.841-42 42v219.08c0 23.159 18.841 42 42 42h6v29.866c0 8.117 4.846 15.368 12.344 18.475 2.489 1.031 5.093 1.532 7.673 1.532 5.193-.001 10.285-2.033 14.12-5.867l44.006-44.006h183.857c23.159 0 42-18.841 42-42v-64.541c0-5.522-4.478-10-10-10s-10 4.478-10 10v64.541c0 12.131-9.869 22-22 22h-188.042c-2.944 0-5.642 1.289-7.49 3.39l-46.468 46.459v-39.85c0-5.522-4.478-10-10-10h-16c-12.131 0-22-9.869-22-22v-219.08c0-12.131 9.869-22 22-22h268c12.131 0 22 9.869 22 22v64.539c0 5.522 4.478 10 10 10s10-4.478 10-10v-29.576h33.857l44.006 44.006c3.835 3.835 8.927 5.867 14.12 5.867 2.579 0 5.184-.502 7.673-1.532 7.498-3.106 12.344-10.357 12.344-18.475v-29.866h6c23.159 0 42-18.841 42-42v-152c0-23.159-18.841-42-42-42zm22 194c0 12.131-9.869 22-22 22h-16c-5.522 0-10 4.477-10 10l-.006 39.852-46.35-46.349c-1.855-2.168-4.604-3.502-7.603-3.502h-38.041v-14.962c0-23.159-18.841-42-42-42h-82v-117.039c0-12.131 9.869-22 22-22h220c12.131 0 22 9.869 22 22z" fill="#0f7095" data-original="#000000" style="" class=""/><path id="XMLID_714_" d="m342 300.585c-2.63 0-5.21 1.069-7.07 2.93-1.86 1.85-2.93 4.43-2.93 7.07 0 2.63 1.069 5.21 2.93 7.069 1.86 1.86 4.44 2.931 7.07 2.931s5.21-1.07 7.069-2.931c1.86-1.869 2.931-4.439 2.931-7.069 0-2.641-1.07-5.21-2.931-7.07-1.859-1.861-4.439-2.93-7.069-2.93z" fill="#0f7095" data-original="#000000" style="" class=""/></g></g></g></svg>
