<svg id="Capa_1" enable-background="new 0 0 511.99 511.99" height="512" viewBox="0 0 511.99 511.99" width="512" xmlns="http://www.w3.org/2000/svg"><g><g><g><path d="m48.257 367.476c-22.512 0-40.762-18.25-40.762-40.762v-201.965h81.524v201.965c0 22.513-18.25 40.762-40.762 40.762z" fill="#8993da"/><path d="m463.727 367.476c-22.512 0-40.762-18.25-40.762-40.762v-201.965h81.524v201.965c0 22.513-18.249 40.762-40.762 40.762z" fill="#365e7d"/><path d="m89.023 234.14v92.579c0 22.506-18.252 40.757-40.768 40.757-22.506 0-40.757-18.252-40.757-40.757v-92.579c0 22.516 18.252 40.768 40.757 40.768 22.516 0 40.768-18.252 40.768-40.768z" fill="#707dd3"/><path d="m504.495 234.14v92.579c0 22.506-18.252 40.757-40.768 40.757-22.506 0-40.757-18.252-40.757-40.757v-92.579c0 22.516 18.252 40.768 40.757 40.768 22.516 0 40.768-18.252 40.768-40.768z" fill="#2b4d66"/><g><path d="m422.968 124.745v213.069l-43.722 43.712-85.098 85.108c-11.944 11.934-31.296 11.934-43.23 0-5.972-5.972-8.948-13.788-8.948-21.615 0-7.722 2.902-15.444 8.728-21.384l-20.871 20.871c-11.944 11.934-31.296 11.934-43.23 0-5.962-5.972-8.948-13.788-8.948-21.615 0-7.753 2.934-15.496 8.791-21.447l-14.867 14.867c-11.944 11.934-31.296 11.934-43.23 0-5.962-5.972-8.948-13.799-8.948-21.615 0-7.753 2.923-15.496 8.78-21.437l-10.069 10.069c-5.972 5.962-13.799 8.948-21.615 8.948-7.827 0-15.643-2.986-21.615-8.948-11.934-11.944-11.934-31.296 0-43.23l166.817-166.817-72.907-28.829c12.615-12.615 29.725-19.708 47.568-19.708h206.614z" fill="#ffece4"/></g><path d="m206.352 208.627 16.728 17.638-131.016 131.015c-5.972 5.972-8.958 13.788-8.958 21.615 0 3.824.712 7.638 2.148 11.242-3.782-1.477-7.324-3.751-10.383-6.81-5.972-5.972-8.948-13.799-8.948-21.615 0-7.827 2.976-15.643 8.948-21.615z" fill="#ffddce"/><g fill="#e2a770"><path d="m417.34 338.338 9.952 9.952c10.167 10.167 10.167 26.652 0 36.819-10.167 10.167-26.652 10.167-36.819 0l-9.952-9.952c-10.167-10.167-10.167-26.652 0-36.819 10.167-10.168 26.652-10.168 36.819 0z"/><path d="m368.417 363.053 22.056 22.056c10.167 10.167 10.167 26.652 0 36.819-10.167 10.167-26.652 10.167-36.819 0l-22.056-22.056c-10.167-10.167-10.167-26.652 0-36.819 10.167-10.167 26.652-10.167 36.819 0z"/><path d="m343.702 411.976 9.952 9.952c10.167 10.167 10.167 26.652 0 36.819-10.167 10.167-26.652 10.167-36.819 0l-9.952-9.952c-10.167-10.167-10.167-26.652 0-36.819 10.167-10.168 26.652-10.168 36.819 0z"/><path d="m316.835 458.747c10.167 10.167 10.167 26.652 0 36.819-10.167 10.167-26.652 10.167-36.819 0-10.167-10.167-10.167-26.652 0-36.819 10.167-10.168 26.651-10.168 36.819 0z"/></g><g fill="#d5985c"><path d="m432.504 377.653c-1.247 2.703-2.986 5.228-5.207 7.449-5.082 5.092-11.745 7.628-18.409 7.628s-13.327-2.536-18.409-7.628l-9.954-9.954c-10.163-10.163-10.163-26.644 0-36.818 2.232-2.232 4.767-3.971 7.47-5.228-4.474 9.618-2.735 21.416 5.218 29.368l9.954 9.943c5.082 5.082 11.745 7.628 18.409 7.628 3.73 0 7.471-.796 10.928-2.388z"/><path d="m395.687 414.47c-1.247 2.703-2.986 5.228-5.207 7.45-5.082 5.092-11.745 7.628-18.409 7.628s-13.327-2.536-18.409-7.628l-22.055-22.055c-10.174-10.163-10.174-26.655 0-36.818 2.221-2.221 4.746-3.961 7.449-5.207-4.442 9.629-2.703 21.405 5.228 29.347l22.055 22.055c5.082 5.082 11.745 7.628 18.409 7.628 3.741 0 7.471-.797 10.939-2.4z"/><path d="m358.869 451.288c-1.247 2.703-2.986 5.228-5.207 7.449-5.082 5.092-11.745 7.628-18.409 7.628s-13.327-2.536-18.409-7.628l-9.954-9.943c-10.174-10.174-10.174-26.655 0-36.828 2.232-2.232 4.767-3.971 7.47-5.228-4.474 9.618-2.735 21.416 5.207 29.368l9.954 9.954c5.082 5.082 11.745 7.628 18.409 7.628 3.741-.001 7.481-.807 10.939-2.4z"/><path d="m322.062 488.106c-1.257 2.703-2.997 5.239-5.218 7.46-5.082 5.082-11.745 7.617-18.409 7.617s-13.327-2.536-18.419-7.617c-5.082-5.082-7.628-11.745-7.628-18.409s2.546-13.327 7.628-18.419c2.232-2.232 4.778-3.971 7.481-5.228-1.603 3.468-2.41 7.208-2.41 10.959 0 6.653 2.536 13.317 7.617 18.409 5.082 5.082 11.745 7.628 18.409 7.628 3.74-.001 7.491-.808 10.949-2.4z"/></g><path d="m324.427 270.706c-7.732 7.722-17.864 11.599-27.996 11.599-10.153 0-20.284-3.877-28.006-11.599l-40.097-40.097-21.982-21.982-117.703 117.704.115-62.917.262-138.669h127.332c11.588 0 22.705 4.61 30.898 12.803l77.177 77.166c15.455 15.466 15.455 40.538 0 55.992z" fill="#e2a770"/><path d="m313.359 265.369c-10.142 0-20.274-3.877-28.006-11.609l-67.281-67.281c-7.488-7.488-19.629-7.488-27.117 0l-3.373 3.373-54.535 54.535c-11.798 11.798-27.66 18.587-44.288 19.027l-.115 62.917 117.704-117.704 21.982 21.982.003-.003 40.09 40.095c7.732 7.722 17.864 11.599 28.006 11.599s20.274-3.877 27.996-11.599c2.955-2.955 5.343-6.255 7.177-9.775-5.702 2.955-11.967 4.443-18.243 4.443z" fill="#d5985c"/><g fill="#ffddce"><path d="m184.049 317.374 2.745 2.894c7.782 8.205 7.612 21.116-.384 29.113l-40.879 40.882c-5.972 5.972-8.958 13.788-8.958 21.615 0 3.824.712 7.638 2.148 11.242-3.782-1.477-7.324-3.751-10.383-6.81-5.972-5.972-8.948-13.799-8.948-21.615 0-7.827 2.976-15.643 8.948-21.615z"/><path d="m242.303 345.569 2.745 2.894c7.782 8.205 7.612 21.116-.384 29.113l-40.879 40.882c-5.972 5.972-8.958 13.788-8.958 21.615 0 3.824.712 7.638 2.148 11.242-3.782-1.477-7.324-3.751-10.383-6.81-5.972-5.972-8.948-13.799-8.948-21.615 0-7.827 2.976-15.643 8.948-21.615z"/><path d="m306.624 367.697 2.745 2.894c7.782 8.205 7.612 21.116-.384 29.113l-40.879 40.882c-5.972 5.972-8.958 13.788-8.958 21.615 0 3.824.712 7.638 2.148 11.242-3.782-1.477-7.324-3.751-10.383-6.81-5.972-5.972-8.948-13.799-8.948-21.615 0-7.827 2.976-15.643 8.948-21.615z"/></g><g fill="#f9f6f9"><circle cx="464.125" cy="176.036" r="18.61"/><circle cx="48.257" cy="176.036" r="18.61"/></g></g><g><path d="m371.757 213.587c-10.674 0-20.814-4.925-27.412-13.435l-58.004-74.819c-11.738-15.141-8.979-36.931 6.162-48.67 15.143-11.738 36.932-8.979 48.67 6.161l26.038 33.588 50.812-89.973c9.422-16.682 30.58-22.568 47.264-13.147 16.682 9.421 22.567 30.582 13.146 47.264l-76.468 135.4c-5.71 10.113-16.104 16.696-27.686 17.539-.842.061-1.684.092-2.522.092z" fill="#b3e59f"/><g fill="#95d6a4"><path d="m477.551 24.958c-.486-.324-.994-.624-1.503-.914-16.686-9.424-37.846-3.538-47.27 13.147l-50.808 89.972-10.754-10.754 50.808-89.972c9.424-16.686 30.585-22.571 47.27-13.147 5.18 2.927 9.308 6.974 12.257 11.668z"/><path d="m396.619 203.082c-5.839 6.024-13.76 9.794-22.34 10.418-.844.058-1.688.092-2.521.092-10.684 0-20.814-4.926-27.416-13.436l-58.001-74.825c-11.736-15.136-8.985-36.921 6.163-48.669 4.475-3.481 9.551-5.678 14.766-6.66-11.887 12.188-13.275 31.59-2.544 45.432l58.001 74.825c6.602 8.51 16.743 13.436 27.416 13.436 2.154-.005 4.372-.196 6.476-.613z"/></g></g></g><g><path d="m504.49 117.243h-49.458l29.938-53.01c5.541-9.812 6.929-21.194 3.907-32.051-3.021-10.856-10.088-19.886-19.9-25.427-20.255-11.439-46.041-4.27-57.479 15.983l-6.82 12.08c-2.036 3.607-.763 8.182 2.844 10.218 3.605 2.036 8.182.763 10.218-2.844l6.819-12.079c7.371-13.051 23.987-17.67 37.042-10.298 6.323 3.571 10.878 9.391 12.825 16.387 1.947 6.997 1.053 14.332-2.518 20.654l-76.47 135.4c-4.49 7.949-12.599 13.088-21.678 13.747-.681.048-1.335.072-2.002.072-8.34 0-16.371-3.935-21.482-10.525l-58.001-74.821c-9.186-11.846-7.02-28.959 4.829-38.147 11.847-9.187 28.959-7.02 38.147 4.828l26.04 33.59c1.538 1.984 3.968 3.067 6.472 2.885s4.751-1.606 5.986-3.792l29.24-51.78c2.037-3.607.764-8.182-2.843-10.219-3.606-2.036-8.181-.764-10.219 2.843l-23.693 41.958-19.127-24.675c-14.256-18.385-40.81-21.746-59.193-7.491-14.461 11.214-19.62 30.035-14.228 46.505l-266.186.002c-4.142 0-7.5 3.358-7.5 7.5v201.97c0 26.611 21.649 48.26 48.26 48.26 4.097 0 8.111-.522 12.014-1.523 1.828 5.659 4.975 10.848 9.302 15.174 7.421 7.421 17.168 11.131 26.916 11.131 5.272 0 10.541-1.095 15.446-3.266.438 9.493 4.341 18.355 11.105 25.119 7.421 7.421 17.168 11.131 26.916 11.131 7.098 0 14.192-1.978 20.392-5.913.886 8.679 4.693 16.726 10.946 22.979 7.421 7.421 17.168 11.131 26.916 11.131 9.614 0 19.223-3.617 26.605-10.836 1.093 8.234 4.825 15.849 10.795 21.83 5.451 5.461 12.284 9.053 19.715 10.467 1.063 6.765 4.188 13.266 9.389 18.468 6.334 6.334 14.755 9.822 23.713 9.822s17.379-3.488 23.713-9.822c7.418-7.418 10.622-17.475 9.623-27.177 1.15.118 2.311.181 3.483.181 8.958 0 17.379-3.489 23.713-9.822 6.334-6.334 9.822-14.755 9.822-23.713 0-1.164-.062-2.318-.178-3.46 1.143.116 2.299.178 3.464.178 2.297 0 4.567-.232 6.745-.691 4.054-.853 6.648-4.83 5.795-8.884s-4.832-6.646-8.884-5.795c-1.165.245-2.395.369-3.656.369-4.955 0-9.607-1.928-13.107-5.435l-22.057-22.046c-7.221-7.228-7.221-18.99-.002-26.216 3.504-3.504 8.159-5.433 13.106-5.433 4.948 0 9.603 1.93 13.108 5.435l22.057 22.052c.016.016.033.031.05.047 4.365 4.407 6.233 10.663 4.996 16.753-.825 4.059 1.797 8.018 5.856 8.843 4.058.823 8.018-1.797 8.843-5.857.69-3.395.841-6.818.495-10.164 1.154.119 2.313.184 3.473.184 8.587 0 17.175-3.269 23.713-9.806 5.721-5.721 8.939-13.012 9.653-20.499 6.473 3.231 13.763 5.06 21.477 5.06 26.611 0 48.26-21.649 48.26-48.26v-201.96c-.001-4.141-3.359-7.499-7.501-7.499zm-489.49 209.463v-194.47h66.52v63.12c0 4.142 3.358 7.5 7.5 7.5s7.5-3.358 7.5-7.5v-63.116h119.842c9.668 0 18.757 3.765 25.593 10.601l77.17 77.17c6.062 6.062 9.4 14.121 9.4 22.692s-3.338 16.626-9.4 22.685c-6.065 6.065-14.125 9.405-22.693 9.405-8.575 0-16.638-3.34-22.703-9.405l-62.075-62.075c-1.406-1.407-3.314-2.197-5.303-2.197s-3.897.79-5.303 2.197l-104.528 104.528v-82.485c0-4.142-3.358-7.5-7.5-7.5s-7.5 3.358-7.5 7.5v97.485l-11.944 11.944c-6.388 6.388-10.218 14.648-10.995 23.542-3.326 1.081-6.78 1.639-10.321 1.639-18.34 0-33.26-14.921-33.26-33.26zm296.537 163.547c-3.501 3.501-8.156 5.429-13.106 5.429s-9.605-1.928-13.106-5.429c-7.227-7.227-7.227-18.986 0-26.212 3.613-3.614 8.36-5.42 13.106-5.42s9.493 1.807 13.106 5.42c7.226 7.226 7.226 18.985 0 26.212zm36.818-36.819c-3.501 3.501-8.156 5.429-13.106 5.429s-9.605-1.928-13.106-5.429l-9.952-9.952c-3.501-3.501-5.429-8.155-5.429-13.106s1.928-9.605 5.429-13.106 8.156-5.429 13.106-5.429c4.948 0 9.599 1.926 13.099 5.423l9.959 9.958c3.501 3.501 5.429 8.156 5.429 13.106s-1.928 9.605-5.429 13.106zm1.655-105.518c-8.955 0-17.376 3.49-23.715 9.829-10.651 10.662-12.614 26.774-5.891 39.45-7.1 1.032-13.654 4.303-18.819 9.468-6.334 6.334-9.822 14.755-9.822 23.713 0 4.719.977 9.286 2.82 13.481-7.263.832-14.305 4.018-19.865 9.578-3.991 3.991-6.757 8.748-8.312 13.801-3.815-1.043-7.314-3.04-10.177-5.908-4.356-4.364-6.755-10.158-6.755-16.316 0-6.11 2.364-11.864 6.716-16.272l52.171-52.175c2.929-2.929 2.929-7.677 0-10.606s-7.678-2.929-10.606 0l-73.231 73.235c-8.993 8.993-23.625 8.993-32.619 0-4.356-4.356-6.755-10.148-6.755-16.309s2.399-11.953 6.755-16.31l55.37-55.37c2.929-2.929 2.929-7.677 0-10.606s-7.678-2.929-10.606 0l-70.398 70.398c-8.993 8.993-23.625 8.993-32.619 0-4.356-4.356-6.755-10.148-6.755-16.309s2.399-11.953 6.755-16.31l55.708-55.708c2.929-2.929 2.929-7.677 0-10.606s-7.678-2.929-10.606 0l-65.949 65.949c-8.993 8.992-23.625 8.993-32.619 0-4.356-4.356-6.755-10.148-6.755-16.309s2.399-11.953 6.755-16.309l126.17-126.167 56.771 56.771c8.898 8.898 20.728 13.798 33.31 13.798 12.576 0 24.402-4.9 33.298-13.797 8.896-8.891 13.795-20.714 13.795-33.293 0-12.578-4.898-24.404-13.793-33.299l-77.17-77.17s-.001-.001-.001-.001h29.655l56.209 72.509c7.932 10.228 20.394 16.334 33.336 16.334 1.008 0 2.038-.037 3.073-.11 14.116-1.024 26.702-8.999 33.668-21.332l6.97-12.341v139.41c0 .29.017.577.022.866-4.992-2.844-10.656-4.367-16.557-4.367-8.958 0-17.379 3.488-23.713 9.822-5.161 5.161-8.432 11.709-9.466 18.804-4.798-2.56-10.172-3.916-15.753-3.916zm71.984 31.88c-7.214 7.215-18.944 7.224-26.175.035-.013-.013-.024-.026-.037-.039l-9.965-9.96c-3.493-3.5-5.417-8.148-5.417-13.093 0-4.951 1.928-9.605 5.429-13.106s8.155-5.429 13.106-5.429 9.605 1.928 13.106 5.429l9.952 9.952c7.227 7.225 7.227 18.984.001 26.211zm74.996-53.093c0 18.34-14.92 33.26-33.26 33.26-18.339 0-33.26-14.92-33.26-33.26v-165.97l16.09-28.49h50.43z"/><path d="m438.02 176.027c0 14.397 11.713 26.11 26.11 26.11s26.11-11.713 26.11-26.11-11.713-26.11-26.11-26.11-26.11 11.713-26.11 26.11zm37.22 0c0 6.126-4.984 11.11-11.11 11.11s-11.11-4.984-11.11-11.11 4.984-11.11 11.11-11.11 11.11 4.984 11.11 11.11z"/><path d="m74.372 176.027c0-14.397-11.713-26.11-26.11-26.11s-26.11 11.713-26.11 26.11 11.713 26.11 26.11 26.11 26.11-11.713 26.11-26.11zm-37.22 0c0-6.126 4.984-11.11 11.11-11.11s11.11 4.984 11.11 11.11-4.984 11.11-11.11 11.11-11.11-4.984-11.11-11.11z"/></g></g></svg>