<svg height="512" viewBox="0 0 512 512" width="512" xmlns="http://www.w3.org/2000/svg"><g id="FilledOutline"><rect fill="#e4e4e3" height="464" rx="24" width="432" x="40" y="24"/><path d="m448 24h-384a24 24 0 0 0 -24 24v40h432v-40a24 24 0 0 0 -24-24z" fill="#0093b9"/><path d="m400 206.23a62.271 62.271 0 0 1 -18.23 44l-113.08 113.09-20.69 20.68-133.77-133.77a62.225 62.225 0 1 1 88-88l45.77 45.77 45.77-45.77a62.23 62.23 0 0 1 106.23 44z" fill="#ed5749"/><path d="m389.06 241.46a62.025 62.025 0 0 1 -7.29 8.77l-113.08 113.09-28.41-28.41a55.6 55.6 0 0 1 78.63-78.63l9.09 9.09 9.09-9.09a55.6 55.6 0 0 1 51.97-14.82z" fill="#d4342f"/><path d="m328 288 20.4-20.4a39.6 39.6 0 0 1 28-11.6 39.6 39.6 0 0 1 39.6 39.6 39.6 39.6 0 0 1 -11.6 28l-76.4 76.4-76.4-76.4a39.6 39.6 0 0 1 -11.6-28 39.6 39.6 0 0 1 39.6-39.6 39.6 39.6 0 0 1 28 11.6z" fill="#ed5749"/><path d="m448 16h-384a32.036 32.036 0 0 0 -32 32v416a32.036 32.036 0 0 0 32 32h384a32.036 32.036 0 0 0 32-32v-416a32.036 32.036 0 0 0 -32-32zm-384 16h384a16.019 16.019 0 0 1 16 16v32h-416v-32a16.019 16.019 0 0 1 16-16zm384 448h-384a16.019 16.019 0 0 1 -16-16v-368h416v368a16.019 16.019 0 0 1 -16 16z"/><path d="m64 48h16v16h-16z"/><path d="m96 48h16v16h-16z"/><path d="m128 48h16v16h-16z"/><path d="m376.4 248a47.287 47.287 0 0 0 -33.657 13.941l-14.743 14.746-14.745-14.746a47.6 47.6 0 0 0 -67.315 67.314l76.4 76.4a8 8 0 0 0 11.314 0l76.4-76.4a47.6 47.6 0 0 0 -33.654-81.255zm22.343 69.941-70.743 70.746-70.745-70.746a31.6 31.6 0 1 1 44.685-44.686l20.4 20.4a8 8 0 0 0 11.314 0l20.4-20.4a31.6 31.6 0 1 1 44.685 44.686z"/><path d="m248 372.686-128.117-128.117a54.225 54.225 0 1 1 76.685-76.687l45.775 45.775a8 8 0 0 0 11.314 0l45.775-45.775a54.226 54.226 0 0 1 87.7 60.805l14.562 6.626a70.225 70.225 0 0 0 -113.575-78.744l-40.119 40.117-40.117-40.117a70.226 70.226 0 0 0 -99.315 99.313l133.775 133.775a8 8 0 0 0 11.314 0l16-16-11.314-11.314z"/><path d="m72 376h16v16h-16z"/><path d="m104 376h64v16h-64z"/><path d="m72 408h128v16h-128z"/><path d="m72 440h160v16h-160z"/></g></svg>