<svg id="filled_outline" height="512" viewBox="0 0 512 512" width="512" xmlns="http://www.w3.org/2000/svg" data-name="filled outline"><path d="m216 360h80v80h-80z" fill="#cad8ed"/><path d="m24 96h240v-48h-224a16 16 0 0 0 -16 16z" fill="#89a8f5"/><path d="m264 96v176h224v72a16 16 0 0 1 -16 16h-432a16 16 0 0 1 -16-16v-248z" fill="#5771e5"/><path d="m104 240h32v64h-32z" fill="#51a37e"/><path d="m136 200h32v104h-32z" fill="#5ebd92"/><path d="m168 168h32v136h-32z" fill="#90d4b1"/><path d="m200 128h32v176h-32z" fill="#b6e3cc"/><path d="m72 272h32v32h-32z" fill="#308c72"/><path d="m184 440h144v32h-144z" fill="#e4e9f2"/><g fill="#f7c04a"><circle cx="448" cy="120" r="16"/><circle cx="448" cy="184" r="16"/><circle cx="384" cy="160" r="16"/><circle cx="344" cy="192" r="16"/><circle cx="472" cy="64" r="16"/><circle cx="376" cy="56" r="16"/></g><path d="m488 264h-216v-216a7.99977 7.99977 0 0 0 -8-8h-224a24.0275 24.0275 0 0 0 -24 24v280a24.0275 24.0275 0 0 0 24 24h168v64h-24a7.99977 7.99977 0 0 0 -8 8v32a7.99977 7.99977 0 0 0 8 8h144a7.99977 7.99977 0 0 0 8-8v-32a7.99977 7.99977 0 0 0 -8-8h-24v-64h168a24.0275 24.0275 0 0 0 24-24v-72a7.99977 7.99977 0 0 0 -8-8zm-448-208h216v32h-224v-24a8.00917 8.00917 0 0 1 8-8zm280 408h-128v-16h128zm-32-32h-64v-64h24v24a8 8 0 0 0 16 0v-24h24zm192-88a8.00917 8.00917 0 0 1 -8 8h-432a8.00917 8.00917 0 0 1 -8-8v-240h224v168a7.99977 7.99977 0 0 0 8 8h216z"/><circle cx="48" cy="72" r="8"/><circle cx="72" cy="72" r="8"/><circle cx="96" cy="72" r="8"/><path d="m240 128a7.99977 7.99977 0 0 0 -8-8h-32a7.99977 7.99977 0 0 0 -8 8v32h-24a7.99977 7.99977 0 0 0 -8 8v24h-24a7.99977 7.99977 0 0 0 -8 8v32h-24a7.99977 7.99977 0 0 0 -8 8v24h-24a7.99977 7.99977 0 0 0 -8 8v24h-16v16h224v-16h-32zm-160 152h16v16h-16zm32-32h16v48h-16zm32-40h16v88h-16zm32-32h16v120h-16zm32 120v-160h16v160z"/><path d="m288 296h16v16h-16z"/><path d="m344 216a24 24 0 1 0 -22.6239-32h-33.3761v16h33.3761a24.03756 24.03756 0 0 0 22.6239 16zm0-32a8 8 0 1 1 -8 8 8.00917 8.00917 0 0 1 8-8z"/><path d="m472 40a24.03756 24.03756 0 0 0 -22.6239 16h-17.3761a8.00106 8.00106 0 0 0 -6.07422 2.79346l-42.37793 49.44092-25.89111-25.89112a7.99877 7.99877 0 0 0 -5.65674-2.34326h-64v16h60.68652l29.65674 29.65674a7.99877 7.99877 0 0 0 5.65674 2.34326h41.3761a24 24 0 1 0 0-16h-23.9821l34.28565-40h13.69645a23.99854 23.99854 0 1 0 22.6239-32zm-24 72a8 8 0 1 1 -8 8 8.00917 8.00917 0 0 1 8-8zm24-40a8 8 0 1 1 8-8 8.00917 8.00917 0 0 1 -8 8z"/><path d="m376 80a24 24 0 1 0 -22.6239-32h-65.3761v16h65.3761a24.03756 24.03756 0 0 0 22.6239 16zm0-32a8 8 0 1 1 -8 8 8.00917 8.00917 0 0 1 8-8z"/><path d="m362.34546 149.65894a24.009 24.009 0 1 0 11.31348-11.31348l-16.0022-16.0022a7.99877 7.99877 0 0 0 -5.65674-2.34326h-64v16h60.68652zm29.65454 10.34106a8 8 0 1 1 -8-8 8.00917 8.00917 0 0 1 8 8z"/><path d="m414.24707 236.99756 24.63977-30.79968a24.018 24.018 0 1 0 -11.94006-10.68769l-22.79199 28.48981h-116.15479v16h120a7.99951 7.99951 0 0 0 6.24707-3.00244zm33.75293-60.99756a8 8 0 1 1 -8 8 8.00917 8.00917 0 0 1 8-8z"/></svg>