<svg height="512" viewBox="0 0 512 512" width="512" xmlns="http://www.w3.org/2000/svg"><g id="flat"><g fill="#6cbae5"><path d="m80.006 264a7.987 7.987 0 0 1 -6.406-3.2l-21.6-28.8h-28a8 8 0 0 1 0-16h32a8 8 0 0 1 6.4 3.2l24 32a8 8 0 0 1 -6.394 12.8z"/><path d="m232 456h-140a36 36 0 0 1 0-72h12a8 8 0 0 1 0 16h-12a20 20 0 0 0 0 40h140a8 8 0 0 1 0 16z"/><circle cx="232" cy="448" r="24"/><circle cx="128" cy="448" r="24"/></g><path d="m434.763 72.339a56 56 0 1 1 -74.424-27.074 55.855 55.855 0 0 1 74.424 27.074z" fill="#fbb540"/><path d="m436.3 116.094a56.017 56.017 0 0 1 -70.487 32.883 49.024 49.024 0 0 1 12.768-40.66l1.57-1.671 14.5-6.764 2.29-.13a49.019 49.019 0 0 1 39.359 16.342z" fill="#428dc5"/><path d="m479.494 333.72a56 56 0 1 1 -17.8-77.17 55.861 55.861 0 0 1 17.8 77.17z" fill="#c0f5f9"/><path d="m443.623 358.823a56.018 56.018 0 0 1 -65.953-41.23 49.025 49.025 0 0 1 41.058-11.423l2.257.408 13.567 8.482 1.355 1.849a49.022 49.022 0 0 1 7.716 41.914z" fill="#de9a9e"/><path d="m72 248 32 152h152l24-152z" fill="#b3e4e8"/><path d="m232 480a32 32 0 1 1 32-32 32.036 32.036 0 0 1 -32 32zm0-48a16 16 0 1 0 16 16 16.019 16.019 0 0 0 -16-16z" fill="#428dc5"/><path d="m128 480a32 32 0 1 1 32-32 32.036 32.036 0 0 1 -32 32zm0-48a16 16 0 1 0 16 16 16.019 16.019 0 0 0 -16-16z" fill="#428dc5"/><path d="m176 264a56 56 0 1 0 56 56 56.063 56.063 0 0 0 -56-56zm39.2 48h-13.317a71.835 71.835 0 0 0 -5.33-20.363l-3.314-7.726a40.143 40.143 0 0 1 21.961 28.089zm-39.2 43.69-5.846-13.628a55.78 55.78 0 0 1 -3.922-14.062h19.536a55.77 55.77 0 0 1 -3.92 14.057zm-9.768-43.69a55.77 55.77 0 0 1 3.92-14.057l5.848-13.633 5.846 13.628a55.78 55.78 0 0 1 3.922 14.062zm-7.471-28.089-3.316 7.732a71.817 71.817 0 0 0 -5.328 20.357h-13.312a40.145 40.145 0 0 1 21.956-28.089zm-21.956 44.089h13.312a71.835 71.835 0 0 0 5.33 20.363l3.314 7.726a40.143 40.143 0 0 1 -21.956-28.089zm56.434 28.089 3.316-7.732a71.817 71.817 0 0 0 5.328-20.357h13.317a40.145 40.145 0 0 1 -21.961 28.089z" fill="#85bc94"/><path d="m288 96h16v16h-16z" fill="#fbb540"/><path d="m240 96h32v16h-32z" fill="#fbd699"/><path d="m416 184h16v16h-16z" fill="#fbd699"/><path d="m368 184h32v16h-32z" fill="#fbb540"/><path d="m344 328h16v16h-16z" fill="#fbd699"/><path d="m296 328h32v16h-32z" fill="#fbb540"/><path d="m344 136.03v56h-100a28 28 0 0 0 0 56h100v56h-100a83.99 83.99 0 0 1 -84-84c0-1.34.03-2.68.1-4.01a84 84 0 0 1 83.9-79.99z" fill="#3775a4"/><path d="m224.2 192.2a28.005 28.005 0 0 0 -7.91 23.82 27.991 27.991 0 0 0 27.71 32.01h100v47.97h-100a83.982 83.982 0 0 1 -83.9-79.98 84 84 0 0 1 83.9-79.99h100v47.97h-100a27.952 27.952 0 0 0 -19.8 8.2z" fill="#428dc5"/><path d="m304 136.027h40v56h-40z" fill="#c7463b"/><path d="m304 184h40v8.027h-40z" fill="#b94137"/><path d="m304 248.027h40v56h-40z" fill="#c7463b"/><path d="m304 296h40v8.027h-40z" fill="#b94137"/><circle cx="384.014" cy="96.014" fill="#4799cf" r="24"/><circle cx="432.009" cy="304.035" fill="#f9adb1" r="24"/></g></svg>