<svg id="Layer_1" enable-background="new 0 0 128 128" height="512" viewBox="0 0 128 128" width="512" xmlns="http://www.w3.org/2000/svg"><g><path d="m123.115 58.028v-2.286c0-.552-.447-1-1-1s-1 .448-1 1v2.286c-1.132.339-1.964 1.378-1.964 2.618v1.958h-.653v-11.281c0-7.168-5.832-13-13-13h-8.838c-.978 0-1.928.118-2.844.323-.79-3.256-.631-6.755.635-10.04.549-1.422.342-3.007-.555-4.24-.896-1.233-2.325-1.922-3.861-1.839-7.955.42-15.19-4.838-17.235-12.522-.393-1.473-1.492-2.634-2.942-3.105-1.449-.47-3.021-.179-4.205.783-6.173 5.015-15.132 5.015-21.305 0-1.183-.962-2.755-1.253-4.205-.783-1.45.471-2.549 1.632-2.941 3.105-2.046 7.685-9.292 12.944-17.236 12.522-1.513-.084-2.967.605-3.862 1.839-.896 1.233-1.103 2.818-.555 4.24 2.862 7.42.093 15.941-6.583 20.262-1.28.828-2.044 2.233-2.044 3.757s.764 2.929 2.043 3.757c6.676 4.321 9.445 12.842 6.583 20.262-.548 1.422-.341 3.007.555 4.24.897 1.234 2.342 1.926 3.863 1.839 7.925-.431 15.188 4.837 17.235 12.522.392 1.473 1.492 2.634 2.941 3.105 1.45.471 3.022.179 4.205-.783 6.171-5.015 15.132-5.015 21.305 0 .811.659 1.804 1.004 2.816 1.004.465 0 .933-.073 1.389-.221 1.45-.471 2.55-1.632 2.942-3.105 1.213-4.558 4.259-8.248 8.19-10.42 2.574 4.947 7.467 8.488 13.231 9.171.231 1.166 1.105 2.103 2.239 2.413v4.491c0 1.006.484 1.892 1.223 2.466v12.706h-12.453c-1.938 0-3.514 1.578-3.514 3.518v4.731c0 .552.447 1 1 1h36.726c.553 0 1-.448 1-1v-4.731c0-1.939-1.576-3.518-3.513-3.518h-12.454v-12.706c.738-.573 1.223-1.46 1.223-2.466v-4.49c1.134-.31 2.008-1.248 2.239-2.413 8.534-1.01 15.179-8.289 15.179-17.103v-7.795c1.132-.339 1.964-1.378 1.964-2.618v-5.834c0-1.241-.832-2.28-1.964-2.619zm-15.182 33.949c-.298-1.418-1.555-2.487-3.059-2.487h-7.59c-1.504 0-2.762 1.068-3.06 2.486-4.973-.668-9.19-3.741-11.436-8.02.973-.397 1.986-.705 3.029-.916 2.329 3.518 6.318 5.846 10.843 5.846h8.838c7.168 0 13-5.832 13-13v-11.282h.653v1.876c0 1.241.832 2.279 1.964 2.618v7.795c0 7.711-5.754 14.086-13.182 15.084z" fill="#e6e7e8"/><g><g><path d="m80.66 71.886v-24.563c0-5.387 3.549-9.944 8.437-11.462-1.122-3.71-1.055-7.784.422-11.614.907-2.352-.913-4.857-3.43-4.721-8.458.457-16.077-5.079-18.256-13.264-.649-2.436-3.593-3.393-5.55-1.803-6.574 5.341-15.992 5.341-22.565 0-1.956-1.589-4.901-.633-5.55 1.803-2.179 8.185-9.798 13.72-18.256 13.264-2.517-.136-4.337 2.369-3.43 4.721 3.048 7.902.138 16.859-6.973 21.461-2.116 1.37-2.116 4.466 0 5.835 7.111 4.602 10.021 13.559 6.973 21.461-.907 2.352.913 4.857 3.43 4.721 8.458-.457 16.077 5.079 18.256 13.264.649 2.436 3.593 3.393 5.55 1.803 6.574-5.341 15.992-5.341 22.565 0 1.956 1.589 4.901.633 5.55-1.803 1.848-6.94 7.611-11.96 14.476-13.052-1.042-1.779-1.649-3.842-1.649-6.051z" fill="#6dc9f7"/><path d="m80.66 47.323c0-1.847.43-3.59 1.175-5.153-2.979-14.301-15.651-25.045-30.835-25.045-17.397 0-31.5 14.103-31.5 31.5s14.103 31.5 31.5 31.5c13.669 0 25.301-8.709 29.66-20.88z" fill="#d4fbff"/><path d="m67.758 37.035c-4.107-4.107-10.765-4.107-14.872 0l-1.886 1.886-1.887-1.887c-4.107-4.107-10.765-4.107-14.872 0-4.107 4.107-4.107 10.765 0 14.872l1.887 1.887 12.536 12.536c1.29 1.29 3.382 1.29 4.672 0l12.536-12.536 1.887-1.887c4.106-4.107 4.106-10.765-.001-14.871z" fill="#fa759e"/></g><g><g><path d="m101.497 83.886h-8.837c-6.627 0-12-5.373-12-12v-24.563c0-6.627 5.373-12 12-12h8.838c6.627 0 12 5.373 12 12v24.564c-.001 6.627-5.373 11.999-12.001 11.999z" fill="#ffd7e5"/><path d="m101.497 35.323h-8.837c-6.627 0-12 5.373-12 12v3c0-6.627 5.373-12 12-12h8.838c6.627 0 12 5.373 12 12v-3c-.001-6.628-5.373-12-12.001-12z" fill="#fff"/><g fill="#fa759e"><g><path d="m92.227 54.029h-11.567v-3.798h11.568c.979 0 1.772.793 1.772 1.772v.254c0 .979-.794 1.772-1.773 1.772z"/><path d="m92.227 61.504h-11.567v-3.798h11.568c.979 0 1.772.793 1.772 1.772v.254c0 .978-.794 1.772-1.773 1.772z"/><path d="m92.227 68.978h-11.567v-3.798h11.568c.979 0 1.772.793 1.772 1.772v.254c0 .979-.794 1.772-1.773 1.772z"/></g><g><path d="m113.497 54.029h-11.568c-.979 0-1.772-.793-1.772-1.772v-.254c0-.979.793-1.772 1.772-1.772h11.568z"/><path d="m113.497 61.504h-11.568c-.979 0-1.772-.793-1.772-1.772v-.254c0-.979.793-1.772 1.772-1.772h11.568z"/><path d="m113.497 68.978h-11.568c-.979 0-1.772-.793-1.772-1.772v-.254c0-.979.793-1.772 1.772-1.772h11.568z"/></g></g></g><path d="m115.441 120.322h-36.725v-4.731c0-1.39 1.125-2.517 2.513-2.517h31.699c1.388 0 2.513 1.127 2.513 2.517z" fill="#0089ef"/><path d="m98.569 99.032h-2.982c-.325 0-.629-.079-.905-.209v14.25h4.792v-14.25c-.275.131-.58.209-.905.209z" fill="#6dc9f7"/><path d="m100.873 86.49h-7.59c-1.175 0-2.128.954-2.128 2.131v.768c0 1.177.953 2.131 2.128 2.131h.177v5.381c0 1.177.953 2.131 2.128 2.131h2.982c1.175 0 2.128-.954 2.128-2.131v-5.381h.177c1.175 0 2.128-.954 2.128-2.131v-.768c-.002-1.177-.955-2.131-2.13-2.131z" fill="#0089ef"/><path d="m118.333 64.227h-.436c-.964 0-1.746-.782-1.746-1.746v-5.835c0-.964.782-1.746 1.746-1.746h.436c.964 0 1.746.782 1.746 1.746v5.835c-.001.964-.782 1.746-1.746 1.746z" fill="#0089ef"/><g><path d="m76.26 64.227h-.436c-.964 0-1.746-.782-1.746-1.746v-5.835c0-.964.782-1.746 1.746-1.746h.436c.964 0 1.746.782 1.746 1.746v5.835c0 .964-.782 1.746-1.746 1.746z" fill="#0089ef"/><g fill="#3a2c60"><path d="m60.322 32.955c-3.076 0-5.968 1.198-8.143 3.373l-1.179 1.179-1.18-1.179c-2.175-2.175-5.067-3.373-8.143-3.373s-5.968 1.198-8.143 3.373-3.373 5.066-3.373 8.143 1.198 5.968 3.373 8.143l14.422 14.422c.839.839 1.941 1.258 3.043 1.258s2.204-.419 3.043-1.258l14.422-14.422c2.176-2.175 3.374-5.067 3.374-8.143s-1.198-5.968-3.374-8.143c-2.174-2.176-5.066-3.373-8.142-3.373zm6.729 18.244-14.422 14.423c-.898.898-2.36.897-3.258 0l-14.422-14.423c-1.797-1.797-2.787-4.187-2.787-6.729s.99-4.931 2.787-6.729 4.187-2.787 6.729-2.787 4.932.99 6.729 2.787l1.887 1.886c.391.391 1.023.391 1.414 0l1.886-1.886c1.797-1.797 4.187-2.787 6.729-2.787s4.931.99 6.729 2.787 2.788 4.187 2.788 6.729c-.001 2.542-.991 4.932-2.789 6.729z"/><path d="m103.001 119.321h-9.749c-.553 0-1 .448-1 1s.447 1 1 1h9.749c.553 0 1-.448 1-1s-.447-1-1-1z"/><path d="m119.114 54.027v-2.286c0-.552-.447-1-1-1s-1 .448-1 1v2.286c-1.131.339-1.963 1.378-1.963 2.618v1.958h-.654v-11.28c0-7.168-5.832-13-13-13h-8.838c-.972 0-1.916.116-2.828.319-.792-3.256-.646-6.751.621-10.036.548-1.422.34-3.008-.557-4.241-.896-1.232-2.351-1.923-3.861-1.838-7.936.424-15.189-4.837-17.235-12.522-.393-1.473-1.492-2.634-2.942-3.105-1.45-.473-3.021-.179-4.205.783-6.174 5.015-15.134 5.013-21.304 0-1.183-.961-2.755-1.254-4.205-.783s-2.55 1.632-2.942 3.105c-2.046 7.685-9.294 12.938-17.236 12.522-1.52-.081-2.965.604-3.862 1.838-.896 1.233-1.104 2.819-.555 4.241 2.862 7.419.093 15.941-6.583 20.262-1.28.828-2.043 2.233-2.043 3.757s.764 2.929 2.043 3.757c6.677 4.321 9.446 12.842 6.583 20.262-.548 1.422-.341 3.008.555 4.241s2.333 1.916 3.862 1.838c7.941-.431 15.189 4.837 17.235 12.522.392 1.473 1.492 2.634 2.942 3.105.456.148.924.221 1.388.221 1.012 0 2.006-.345 2.816-1.003 6.173-5.016 15.133-5.014 21.304 0 1.184.961 2.755 1.256 4.205.783 1.45-.471 2.55-1.632 2.942-3.105 1.213-4.555 4.25-8.255 8.179-10.426 2.572 4.94 7.476 8.461 13.236 9.147.221 1.18 1.102 2.131 2.247 2.444v4.491c0 1.006.484 1.892 1.223 2.465v12.706h-12.454c-1.937 0-3.513 1.578-3.513 3.517v4.731c0 .552.447 1 1 1h10.536c.553 0 1-.448 1-1s-.447-1-1-1h-9.536v-3.731c0-.836.679-1.517 1.513-1.517h31.699c.835 0 1.514.681 1.514 1.517v3.731h-7.356c-.553 0-1 .448-1 1s.447 1 1 1h8.356c.553 0 1-.448 1-1v-4.731c0-1.939-1.576-3.517-3.514-3.517h-12.453v-12.706c.738-.573 1.223-1.46 1.223-2.465v-4.492c1.144-.313 2.025-1.263 2.247-2.443 8.527-1.016 15.17-8.263 15.17-17.072v-7.795c1.132-.339 1.964-1.378 1.964-2.619v-5.835c0-1.241-.832-2.28-1.964-2.619zm-.036 8.454c0 .411-.334.746-.745.746h-.437c-.411 0-.745-.334-.745-.746v-5.835c0-.411.334-.746.745-.746h.437c.411 0 .745.334.745.746zm-17.581-26.158c6.065 0 11 4.935 11 11v24.563c0 6.065-4.935 11-11 11h-8.838c-6.065 0-11-4.935-11-11v-24.563c0-6.065 4.935-11 11-11zm-25.673 26.904c-.411 0-.746-.334-.746-.746v-5.835c0-.411.335-.746.746-.746h.436c.411 0 .746.334.746.746v5.835c0 .411-.335.746-.746.746zm1.218 9.667v-7.795c1.132-.339 1.964-1.378 1.964-2.618v-1.876h.653v11.282c0 1.904.422 3.708 1.16 5.339-.971.23-1.92.527-2.835.903-.6-1.635-.942-3.393-.942-5.235zm-10.177 17.837c-.22.827-.813 1.453-1.626 1.718-.814.265-1.661.106-2.326-.434-6.902-5.607-16.923-5.608-23.827 0-.663.541-1.511.698-2.326.433-.813-.265-1.407-.891-1.627-1.718-2.201-8.267-9.786-14.032-18.265-14.032-.336 0-.673.009-1.011.027-.861.046-1.633-.325-2.136-1.017s-.615-1.548-.307-2.346c3.201-8.298.104-17.828-7.363-22.66-.719-.465-1.13-1.223-1.13-2.079 0-.855.412-1.613 1.13-2.078 7.467-4.832 10.563-14.362 7.363-22.66-.308-.798-.196-1.654.307-2.346s1.284-1.063 2.136-1.017c8.885.472 16.988-5.41 19.276-14.004.22-.827.813-1.453 1.627-1.718.815-.263 1.663-.105 2.326.434 6.902 5.607 16.924 5.607 23.826 0 .664-.539 1.511-.698 2.325-.433s1.407.891 1.626 1.718c2.289 8.595 10.404 14.476 19.276 14.004.864-.04 1.634.324 2.137 1.017s.615 1.548.308 2.346c-1.433 3.714-1.582 7.667-.663 11.342-4.83 1.899-8.263 6.598-8.263 12.094v11.282h-.653v-1.958c0-1.241-.832-2.279-1.964-2.618v-2.286c0-.552-.447-1-1-1s-1 .448-1 1v2.286c-1.132.339-1.964 1.378-1.964 2.618v5.835c0 1.241.832 2.279 1.964 2.618v7.795c0 2.152.409 4.205 1.132 6.104-4.467 2.415-7.935 6.58-9.308 11.733zm28.818 21.342v-12.041h2.792v12.041zm6.318-22.684c0 .624-.506 1.131-1.128 1.131h-.176c-.553 0-1 .448-1 1v5.381c0 .624-.506 1.131-1.128 1.131h-2.981c-.622 0-1.128-.507-1.128-1.131v-5.381c0-.552-.447-1-1-1h-.177c-.621 0-1.127-.507-1.127-1.131v-.768c0-.624.506-1.131 1.127-1.131h7.59c.622 0 1.128.507 1.128 1.131zm1.927-1.429c-.304-1.41-1.557-2.471-3.055-2.471h-7.59c-1.498 0-2.75 1.061-3.054 2.471-4.97-.666-9.191-3.727-11.44-7.997.974-.397 1.985-.71 3.029-.921 2.329 3.517 6.317 5.844 10.842 5.844h8.838c7.168 0 13-5.832 13-13v-11.281h.654v1.876c0 1.24.832 2.279 1.963 2.618v7.795c-.001 7.711-5.758 14.071-13.187 15.066z"/></g></g></g></g></g></svg>