<svg height="503pt" viewBox="0 -53 503.982 503" width="503pt" xmlns="http://www.w3.org/2000/svg"><path d="m266.4375 322.117188h106.152344c7.269531 0 14.246094-2.886719 19.382812-8.027344l59.054688-59.054688c11.203125-11.203125 29.363281-11.203125 40.570312 0 11.203125 11.207032 11.203125 29.367188 0 40.570313l-90.578125 90.578125c-5.140625 5.140625-12.113281 8.027344-19.382812 8.027344h-166.710938c-4.019531 0-7.960937-1.101563-11.394531-3.183594l-59.40625-36.039063h-63.921875v-97.070312h63.925781c12.851563-12.851563 30.28125-20.074219 48.460938-20.074219h123.007812c15.234375 0 27.585938 12.351562 27.585938 27.585938 0 15.234374-12.351563 27.582031-27.585938 27.582031h-49.160156c-8.035156 0-14.550781 6.515625-14.550781 14.554687 0 8.039063 6.515625 14.550782 14.550781 14.550782zm0 0" fill="#ff9f70"/><path d="m14 381.511719h56.203125c5.519531 0 10-4.476563 10-10v-133.015625c0-5.519532-4.480469-10-10-10h-56.203125c-5.523438 0-10 4.480468-10 10v133.015625c0 5.523437 4.476562 10 10 10zm0 0" fill="#7bac51"/><path d="m69.21875 228.496094h-13.175781c6.0625 0 10.980469 4.914062 10.980469 10.980468v131.054688c0 6.066406-4.914063 10.980469-10.980469 10.980469h13.175781c6.066406 0 10.984375-4.914063 10.984375-10.980469v-131.054688c0-6.0625-4.917969-10.980468-10.984375-10.980468zm0 0" fill="#5d8e33"/><path d="m14.980469 381.511719h13.179687c-6.066406 0-10.980468-4.914063-10.980468-10.980469v-131.054688c0-6.066406 4.914062-10.980468 10.980468-10.980468h-13.179687c-6.0625 0-10.980469 4.914062-10.980469 10.980468v131.054688c0 6.0625 4.914062 10.980469 10.980469 10.980469zm0 0" fill="#99ca6f"/><path d="m70.203125 385.511719h-56.203125c-7.71875 0-14-6.277344-14-14v-133.015625c0-7.71875 6.28125-14 14-14h56.203125c7.71875 0 14 6.28125 14 14v133.015625c0 7.71875-6.28125 14-14 14zm-56.203125-153.015625c-3.308594 0-6 2.691406-6 6v133.015625c0 3.308593 2.691406 6 6 6h56.203125c3.308594 0 6-2.691407 6-6v-133.015625c0-3.308594-2.691406-6-6-6zm0 0" fill="#690589"/><path d="m21.570312 279.992188c-2.207031 0-4-1.792969-4-4v-26.359376c0-2.207031 1.792969-4 4-4 2.207032 0 4 1.792969 4 4v26.359376c0 2.207031-1.789062 4-4 4zm0 0" fill="#690589"/><path d="m491.597656 255.039062c-8.191406-8.191406-20.09375-10.367187-30.285156-6.582031 3.746094 1.394531 7.273438 3.566407 10.285156 6.582031 11.203125 11.203126 11.203125 29.367188 0 40.570313l-90.574218 90.574219c-5.140626 5.144531-12.117188 8.03125-19.386719 8.03125h20c7.269531 0 14.246093-2.886719 19.386719-8.03125l90.574218-90.574219c11.203125-11.203125 11.203125-29.367187 0-40.570313zm0 0" fill="#e18152"/><path d="m323.183594 265.429688c0 15.234374-12.351563 27.585937-27.585938 27.585937h20c15.234375 0 27.585938-12.351563 27.585938-27.585937 0-15.234376-12.351563-27.582032-27.585938-27.582032h-20c15.234375 0 27.585938 12.347656 27.585938 27.582032zm0 0" fill="#e18152"/><path d="m381.636719 398.214844h-166.710938c-4.75 0-9.40625-1.300782-13.46875-3.765625l-58.449219-35.457031h-62.804687c-2.210937 0-4-1.792969-4-4v-97.074219c0-2.207031 1.789063-4 4-4h62.292969c13.554687-12.957031 31.277344-20.074219 50.09375-20.074219h123.007812c17.417969 0 31.585938 14.167969 31.585938 31.585938 0 17.414062-14.167969 31.582031-31.582032 31.582031h-49.160156c-2.820312 0-5.46875 1.097656-7.464844 3.089843-1.992187 1.996094-3.089843 4.644532-3.089843 7.460938 0 5.820312 4.734375 10.554688 10.554687 10.554688h106.148438c6.257812 0 12.132812-2.4375 16.554687-6.855469l59.054688-59.054688c12.746093-12.746093 33.480469-12.746093 46.226562 0 12.742188 12.746094 12.742188 33.480469 0 46.226563l-90.578125 90.578125c-5.933594 5.933593-13.820312 9.203125-22.210937 9.203125zm-297.433594-47.222656h59.925781c.730469 0 1.449219.199218 2.074219.578124l59.40625 36.039063c2.808594 1.703125 6.03125 2.605469 9.316406 2.605469h166.710938c6.253906 0 12.136719-2.4375 16.558593-6.859375l90.574219-90.578125c4.664063-4.664063 7.230469-10.859375 7.230469-17.453125s-2.566406-12.796875-7.230469-17.460938c-4.664062-4.664062-10.863281-7.230469-17.457031-7.230469s-12.792969 2.566407-17.457031 7.230469l-59.054688 59.054688c-5.929687 5.929687-13.820312 9.199219-22.210937 9.199219h-106.148438c-10.230468 0-18.554687-8.324219-18.554687-18.550782 0-4.957031 1.929687-9.617187 5.433593-13.121094 3.503907-3.503906 8.164063-5.433593 13.121094-5.433593h49.160156c13.003907 0 23.582032-10.582031 23.585938-23.585938 0-13.003906-10.582031-23.582031-23.585938-23.582031h-123.011718c-17.238282 0-33.445313 6.710938-45.632813 18.902344-.75.75-1.769531 1.171875-2.828125 1.171875h-59.925781zm0 0" fill="#690589"/><path d="m255.472656 5.507812-21.273437 1.015626 13.359375 13.359374c-23.707032 23.722657-36.761719 55.25-36.761719 88.792969 0 33.550781 13.066406 65.09375 36.789063 88.820313l14.378906-14.382813c-19.882813-19.882812-30.832032-46.320312-30.832032-74.4375 0-28.105469 10.9375-54.527343 30.808594-74.410156l12.769532 12.769531 2.03125-42.539062zm0 0" fill="#7bac51"/><path d="m428.667969 232.476562 21.269531-1.015624-13.359375-13.359376c23.707031-23.722656 36.765625-55.253906 36.765625-88.792968 0-33.550782-13.066406-65.09375-36.792969-88.820313l-14.378906 14.378907c19.882813 19.882812 30.835937 46.320312 30.835937 74.441406 0 28.105468-10.941406 54.527344-30.808593 74.410156l-12.769531-12.769531-2.03125 42.539062zm0 0" fill="#ff4397"/><path d="m425.945312 117.238281c-.972656-46.828125-39.726562-84.003906-86.554687-83.027343-46.828125.972656-84 39.726562-83.027344 86.554687.976563 46.828125 39.726563 84 86.554688 83.027344 46.828125-.976563 84.003906-39.726563 83.027343-86.554688zm0 0" fill="#fcc24c"/><path d="m341.152344 34.183594c-3.386719 0-6.71875.222656-10 .605468 42.121094 4.953126 74.808594 40.75 74.808594 84.203126 0 43.453124-32.6875 79.25-74.808594 84.203124 3.28125.386719 6.613281.605469 10 .605469 46.835937 0 84.808594-37.96875 84.808594-84.808593 0-46.835938-37.972657-84.808594-84.808594-84.808594zm0 0" fill="#dea42e"/><path d="m341.152344 203.800781c3.386718 0 6.71875-.21875 10-.605469-42.121094-4.953124-74.808594-40.75-74.808594-84.203124 0-43.453126 32.6875-79.25 74.808594-84.203126-3.28125-.382812-6.613282-.605468-10-.605468-46.839844 0-84.808594 37.972656-84.808594 84.808594 0 46.839843 37.96875 84.808593 84.808594 84.808593zm0 0" fill="#fce06a"/><g fill="#690589"><path d="m343.480469 71.042969c2.664062 0 4.773437 2.113281 4.773437 4.773437v2.441406c6.546875.777344 12.097656 2.886719 17.203125 6.105469 1.777344 1 3.332031 2.664063 3.332031 5.328125 0 3.4375-2.777343 6.101563-6.21875 6.101563-1.109374 0-2.21875-.332031-3.328124-1-3.882813-2.332031-7.65625-3.996094-11.433594-4.882813v21.3125c16.871094 4.214844 24.085937 10.984375 24.085937 22.863282 0 12.207031-9.542969 20.3125-23.640625 21.644531v6.660156c0 2.660156-2.109375 4.773437-4.773437 4.773437-2.664063 0-4.882813-2.113281-4.882813-4.773437v-6.882813c-8.324218-.886718-15.980468-3.882812-22.75-8.65625-1.886718-1.222656-3-2.996093-3-5.328124 0-3.441407 2.664063-6.105469 6.105469-6.105469 1.332031 0 2.664063.445312 3.660156 1.222656 5.214844 3.773437 10.324219 6.324219 16.425781 7.433594v-21.863281c-16.203124-4.214844-23.75-10.320313-23.75-22.863282 0-11.875 9.433594-20.089844 23.308594-21.199218v-2.332032c0-2.664062 2.21875-4.773437 4.882813-4.773437zm-4.4375 37.851562v-19.648437c-7.105469.667968-10.65625 4.441406-10.65625 9.324218 0 4.664063 2.109375 7.546876 10.65625 10.324219zm8.765625 15.425781v20.203126c7.105468-.777344 10.988281-4.332032 10.988281-9.65625.003906-4.886719-2.441406-7.882813-10.988281-10.546876zm0 0"/><path d="m341.152344 207.800781c-48.96875 0-88.808594-39.839843-88.808594-88.808593s39.839844-88.808594 88.808594-88.808594 88.808594 39.839844 88.808594 88.808594-39.839844 88.808593-88.808594 88.808593zm0-169.617187c-44.558594 0-80.808594 36.25-80.808594 80.808594 0 44.558593 36.25 80.808593 80.808594 80.808593s80.808594-36.25 80.808594-80.808593c0-44.558594-36.25-80.808594-80.808594-80.808594zm0 0"/><path d="m247.585938 201.492188c-1.058594 0-2.078126-.421876-2.828126-1.171876-24.480468-24.480468-37.960937-57.027343-37.960937-91.648437 0-33.265625 12.449219-64.628906 35.148437-88.75l-10.574218-10.574219c-1.117188-1.117187-1.472656-2.792968-.902344-4.269531s1.960938-2.476563 3.542969-2.550781l42.539062-2.03125c1.144531-.050782 2.222657.371094 3.019531 1.164062.796876.796875 1.21875 1.890625 1.167969 3.019532l-2.03125 42.542968c-.078125 1.578125-1.078125 2.96875-2.554687 3.539063-1.476563.570312-3.152344.21875-4.269532-.902344l-9.886718-9.886719c-17.351563 18.761719-26.863282 43-26.863282 68.699219 0 27.050781 10.535157 52.484375 29.664063 71.609375 1.5625 1.5625 1.5625 4.09375 0 5.65625l-14.382813 14.382812c-.75.75-1.765624 1.171876-2.828124 1.171876zm-4.164063-191.40625 6.964844 6.964843c1.5625 1.5625 1.5625 4.097657 0 5.65625-22.949219 22.96875-35.589844 53.496094-35.589844 85.964844 0 31.148437 11.628906 60.503906 32.832031 83.117187l8.730469-8.726562c-18.878906-20.28125-29.226563-46.539062-29.226563-74.390625 0-29.171875 11.355469-56.601563 31.976563-77.238281 1.5-1.5 4.160156-1.503906 5.660156 0l6.375 6.375 1.390625-29.113282zm0 0"/><path d="m407.398438 237.492188c-1.058594 0-2.078126-.417969-2.828126-1.171876-.796874-.796874-1.21875-1.890624-1.167968-3.019531l2.03125-42.539062c.078125-1.582031 1.078125-2.972657 2.554687-3.542969 1.46875-.570312 3.148438-.21875 4.269531.902344l9.886719 9.886718c17.351563-18.757812 26.863281-43 26.863281-68.699218 0-27.050782-10.539062-52.484375-29.664062-71.609375-.75-.75-1.171875-1.769531-1.171875-2.828125s.421875-2.078125 1.171875-2.828125l14.378906-14.378907c1.5625-1.5625 4.09375-1.5625 5.65625 0 24.480469 24.480469 37.964844 57.027344 37.964844 91.648438 0 33.265625-12.457031 64.625-35.152344 88.75l10.574219 10.570312c1.121094 1.121094 1.472656 2.796876.902344 4.273438-.570313 1.472656-1.957031 2.476562-3.539063 2.550781l-42.542968 2.03125c-.058594.003907-.125.003907-.1875.003907zm5.59375-37.320313-1.386719 29.117187 29.113281-1.390624-6.964844-6.964844c-1.5625-1.5625-1.5625-4.09375 0-5.65625 22.953125-22.964844 35.59375-53.496094 35.59375-85.964844 0-31.144531-11.628906-60.503906-32.835937-83.117188l-8.730469 8.730469c18.875 20.273438 29.226562 46.535157 29.226562 74.386719 0 29.175781-11.355468 56.605469-31.976562 77.238281-1.496094 1.5-4.15625 1.503907-5.65625 0zm0 0"/></g></svg>