<svg id="Layer_1" viewBox="0 0 512 512" xmlns="http://www.w3.org/2000/svg" data-name="Layer 1"><g fill="#d4e1f4"><path d="m376.477 446.156v-1.364a11.513 11.513 0 0 1 11.208-11.492h-19.7c-.073 0-.145 0-.218-.006a11.515 11.515 0 0 0 -11.29 11.5v1.364a11.521 11.521 0 0 0 11.508 11.509h20a11.521 11.521 0 0 1 -11.508-11.511z"/><path d="m478.71 433.3c-.073 0-.145.006-.218.006h.3c-.028-.006-.055-.006-.082-.006z"/><path d="m478.723 396.932c-.077 0-.154.006-.231.006h.315c-.029-.001-.056-.006-.084-.006z"/><path d="m478.492 421.284c.073 0 .145 0 .218.006.027 0 .054 0 .082-.006z"/><path d="m376.477 409.793v-1.364a11.513 11.513 0 0 1 11.193-11.491h-19.685c-.078 0-.154-.006-.231-.006a11.515 11.515 0 0 0 -11.277 11.5v1.364a11.515 11.515 0 0 0 11.29 11.5c.073 0 .145-.006.218-.006h19.7a11.513 11.513 0 0 1 -11.208-11.497z"/><path d="m478.71 360.568c-.073 0-.145 0-.218 0h.3c-.028.005-.055 0-.082 0z"/><path d="m376.477 373.429v-1.365a11.513 11.513 0 0 1 11.208-11.491h-19.7c-.073 0-.145 0-.218 0a11.514 11.514 0 0 0 -11.29 11.5v1.365a11.516 11.516 0 0 0 11.277 11.5c.077 0 .153-.006.231-.006h19.685a11.513 11.513 0 0 1 -11.193-11.503z"/><path d="m478.492 384.92c.077 0 .154 0 .231.006.028 0 .055 0 .084-.006z"/><path d="m478.723 324.2c-.077 0-.154.006-.231.006h.315c-.029.003-.056-.001-.084-.006z"/><path d="m478.492 348.557h.218.082z"/><path d="m376.477 337.065v-1.365a11.513 11.513 0 0 1 11.193-11.49h-19.685c-.078 0-.154 0-.231-.006a11.516 11.516 0 0 0 -11.277 11.5v1.364a11.515 11.515 0 0 0 11.29 11.5h.218 19.7a11.514 11.514 0 0 1 -11.208-11.503z"/><path d="m478.723 287.841c-.077 0-.154.006-.231.006h.315c-.029-.001-.056-.006-.084-.006z"/><path d="m478.492 312.192c.077 0 .154.006.231.006.028 0 .055 0 .084-.006z"/><path d="m376.477 300.7v-1.364a11.513 11.513 0 0 1 11.193-11.491h-19.685c-.078 0-.154 0-.231-.006a11.515 11.515 0 0 0 -11.277 11.5v1.361a11.515 11.515 0 0 0 11.277 11.5c.077 0 .153-.006.231-.006h19.685a11.512 11.512 0 0 1 -11.193-11.494z"/><path d="m478.492 275.829c.077 0 .154 0 .231.006.028 0 .055 0 .084-.006z"/><path d="m478.723 251.477c-.077 0-.154.006-.231.006h.315c-.029-.001-.056-.005-.084-.006z"/><path d="m376.477 264.338v-1.364a11.513 11.513 0 0 1 11.193-11.491h-19.685c-.078 0-.154 0-.231-.006a11.515 11.515 0 0 0 -11.277 11.5v1.364a11.516 11.516 0 0 0 11.277 11.5c.077 0 .153-.006.231-.006h19.685a11.513 11.513 0 0 1 -11.193-11.497z"/><path d="m478.717 215.114c-.076 0-.15 0-.225 0h.305c-.027.004-.053 0-.08 0z"/><path d="m478.492 239.465c.077 0 .154 0 .231.006.028 0 .055 0 .084-.006z"/><path d="m376.477 227.975v-1.365a11.513 11.513 0 0 1 11.2-11.491h-19.692c-.076 0-.15 0-.225 0a11.515 11.515 0 0 0 -11.283 11.5v1.365a11.515 11.515 0 0 0 11.277 11.5c.077 0 .153-.006.231-.006h19.685a11.512 11.512 0 0 1 -11.193-11.503z"/><path d="m376.477 191.611v-1.364a11.521 11.521 0 0 1 11.508-11.509h-20a11.521 11.521 0 0 0 -11.508 11.509v1.364a11.516 11.516 0 0 0 11.283 11.5c.075 0 .149-.006.225-.006h19.694a11.513 11.513 0 0 1 -11.202-11.494z"/><path d="m478.492 203.1c.075 0 .149 0 .225.006.027 0 .053 0 .08-.006z"/><path d="m232.045 323.436a66.848 66.848 0 0 1 6.921 24.38h20a66.848 66.848 0 0 0 -6.921-24.38z"/><path d="m258.917 360.177c.009-.092.019-.184.028-.277h-20c-.009.093-.019.185-.028.277-.022.23-.044.46-.069.689a66.537 66.537 0 0 1 -6.947 23.415h20a66.537 66.537 0 0 0 6.947-23.415c.025-.229.052-.459.069-.689z"/><path d="m243.985 396.365h-20a66.793 66.793 0 0 1 -31.505 21.512 12.162 12.162 0 0 0 7.875 2.869h20a12.162 12.162 0 0 1 -7.875-2.869 66.793 66.793 0 0 0 31.505-21.512z"/><path d="m208.165 446.156v-1.364a11.521 11.521 0 0 1 11.508-11.508h-20a11.521 11.521 0 0 0 -11.508 11.508v1.364a11.522 11.522 0 0 0 11.508 11.509h20a11.522 11.522 0 0 1 -11.508-11.509z"/><path d="m208.165 263.462v-1.362a11.521 11.521 0 0 1 11.508-11.508h-20a11.521 11.521 0 0 0 -11.508 11.508v1.364a11.522 11.522 0 0 0 11.508 11.509h20a11.522 11.522 0 0 1 -11.508-11.511z"/><path d="m212.771 289.622a12.179 12.179 0 0 1 7.584-2.651h-20a12.179 12.179 0 0 0 -7.584 2.651 67.612 67.612 0 0 1 31.468 21.73h20a67.612 67.612 0 0 0 -31.468-21.73z"/><path d="m42 372.091a12.2 12.2 0 0 1 12.19-12.191h-20a12.191 12.191 0 0 0 0 24.381h20a12.2 12.2 0 0 1 -12.19-12.19z"/><path d="m41.615 408.6a12.25 12.25 0 0 1 12.236-12.236h-20.074a12.233 12.233 0 0 0 -2.614 24.183c.637-.052 1.279-.085 1.929-.085h17.822a12.245 12.245 0 0 1 -9.299-11.862z"/><path d="m145.942 420.548c.1-.022.2-.06.3-.085"/><path d="m42.06 445.069v-1.386a11.694 11.694 0 0 1 8.8-11.309l-19.578-.174a11.7 11.7 0 0 0 -9.532 11.48v1.386a11.7 11.7 0 0 0 11.687 11.686h20.31a11.7 11.7 0 0 1 -11.687-11.683z"/></g><path d="m171.969 381.988c-.042 0-.083-.007-.125-.007s-.083.006-.125.007a11.368 11.368 0 0 1 -11.233-11.352 6 6 0 0 0 -12 0 23.4 23.4 0 0 0 17.358 22.573v5.112a6 6 0 0 0 12 0v-5.112a23.358 23.358 0 0 0 -6-45.932 11.358 11.358 0 1 1 11.356-11.358 6 6 0 0 0 12 0 23.4 23.4 0 0 0 -17.359-22.574v-4.322a6 6 0 0 0 -12 0v4.322a23.358 23.358 0 0 0 6 45.932 11.356 11.356 0 0 1 .125 22.711z" fill="#1ae5be"/><path d="m502 191.611v-1.364a23.535 23.535 0 0 0 -23.508-23.509h-110.507a23.535 23.535 0 0 0 -23.508 23.509v1.364a23.452 23.452 0 0 0 7.832 17.5 23.449 23.449 0 0 0 -7.832 17.5v1.365a23.451 23.451 0 0 0 7.831 17.5 23.453 23.453 0 0 0 -7.831 17.5v1.364a23.451 23.451 0 0 0 7.832 17.5 23.451 23.451 0 0 0 -7.832 17.5v1.36a23.449 23.449 0 0 0 7.832 17.5 23.452 23.452 0 0 0 -7.832 17.5v1.364a23.449 23.449 0 0 0 7.832 17.5 23.449 23.449 0 0 0 -7.832 17.5v1.365a23.452 23.452 0 0 0 7.832 17.5 23.449 23.449 0 0 0 -7.832 17.5v1.364a23.449 23.449 0 0 0 7.832 17.5 23.452 23.452 0 0 0 -7.832 17.5v1.364a23.535 23.535 0 0 0 23.508 23.509h110.507a23.535 23.535 0 0 0 23.508-23.51v-1.364a23.453 23.453 0 0 0 -7.833-17.5 23.449 23.449 0 0 0 7.833-17.5v-1.364a23.453 23.453 0 0 0 -7.832-17.5 23.456 23.456 0 0 0 7.832-17.5v-1.365a23.449 23.449 0 0 0 -7.833-17.5 23.45 23.45 0 0 0 7.833-17.5v-1.363a23.456 23.456 0 0 0 -7.832-17.5 23.452 23.452 0 0 0 7.832-17.5v-1.364a23.454 23.454 0 0 0 -7.832-17.5 23.454 23.454 0 0 0 7.832-17.5v-1.364a23.454 23.454 0 0 0 -7.832-17.5 23.452 23.452 0 0 0 7.832-17.5v-1.362a23.452 23.452 0 0 0 -7.832-17.5 23.456 23.456 0 0 0 7.832-17.499zm-12 254.545a11.522 11.522 0 0 1 -11.508 11.509h-110.507a11.521 11.521 0 0 1 -11.508-11.509v-1.364a11.515 11.515 0 0 1 11.29-11.5h110.943a11.516 11.516 0 0 1 11.29 11.5zm0-36.363a11.516 11.516 0 0 1 -11.29 11.5h-110.943a11.515 11.515 0 0 1 -11.29-11.5v-1.364a11.515 11.515 0 0 1 11.277-11.5h110.969a11.516 11.516 0 0 1 11.277 11.5zm0-36.364a11.517 11.517 0 0 1 -11.277 11.5h-110.969a11.516 11.516 0 0 1 -11.277-11.5v-1.365a11.514 11.514 0 0 1 11.29-11.5h110.943a11.515 11.515 0 0 1 11.29 11.5zm0-36.364a11.516 11.516 0 0 1 -11.29 11.5h-110.943a11.515 11.515 0 0 1 -11.29-11.5v-1.365a11.516 11.516 0 0 1 11.277-11.5h110.969a11.517 11.517 0 0 1 11.277 11.5zm0-36.363a11.515 11.515 0 0 1 -11.277 11.5h-110.969a11.515 11.515 0 0 1 -11.277-11.5v-1.364a11.515 11.515 0 0 1 11.277-11.5h110.969a11.516 11.516 0 0 1 11.277 11.5zm0-36.364a11.517 11.517 0 0 1 -11.277 11.5h-110.969a11.516 11.516 0 0 1 -11.277-11.5v-1.364a11.515 11.515 0 0 1 11.277-11.5h110.969a11.516 11.516 0 0 1 11.277 11.5zm0-36.363a11.516 11.516 0 0 1 -11.277 11.5h-110.969a11.515 11.515 0 0 1 -11.277-11.5v-1.365a11.515 11.515 0 0 1 11.283-11.5h110.957a11.515 11.515 0 0 1 11.283 11.5zm0-36.364a11.516 11.516 0 0 1 -11.283 11.5h-110.957a11.516 11.516 0 0 1 -11.283-11.5v-1.364a11.521 11.521 0 0 1 11.508-11.509h110.507a11.522 11.522 0 0 1 11.508 11.509z" fill="#0635c9"/><path d="m59.262 248.781a5.973 5.973 0 0 0 3.495-1.127l170.289-122.292 56.421 66.782a6 6 0 0 0 8.248.879l140.457-108.316 19.145 22.015a6 6 0 0 0 10.513-3.52l3.549-50.9a6 6 0 0 0 -5.568-6.4l-50.9-3.548a6 6 0 0 0 -4.945 9.923l20.318 23.363-135.353 104.377-56.3-66.636a6 6 0 0 0 -8.083-1l-174.791 125.526a6 6 0 0 0 3.505 10.874zm399.729-191.329-2.124 30.465-28.342-32.589z" fill="#1ae5be"/><path d="m333.688 263.462v-1.362a23.534 23.534 0 0 0 -23.508-23.51h-110.507a23.534 23.534 0 0 0 -23.508 23.51v1.364a23.451 23.451 0 0 0 8.054 17.692 24.29 24.29 0 0 0 -4.612 5.586 67.267 67.267 0 0 0 -74.892 61.16h-70.525a24.174 24.174 0 0 0 -15.871 42.423 24.144 24.144 0 0 0 -.473 36.048 23.453 23.453 0 0 0 -7.846 17.51v1.364a23.535 23.535 0 0 0 23.508 23.508h110.507a23.534 23.534 0 0 0 23.508-23.508v-1.364a23.456 23.456 0 0 0 -7.83-17.5 24.2 24.2 0 0 0 4.6-5.753 65.987 65.987 0 0 0 15.094 0 24.074 24.074 0 0 0 5.111 6.227 23.462 23.462 0 0 0 -8.331 17.932v1.364a23.535 23.535 0 0 0 23.508 23.509h110.505a23.535 23.535 0 0 0 23.508-23.509v-1.364a23.461 23.461 0 0 0 -8.366-17.962 24.142 24.142 0 0 0 .048-36.507 24.141 24.141 0 0 0 0-36.465 24.14 24.14 0 0 0 0-36.464 24.145 24.145 0 0 0 .262-36.238 23.452 23.452 0 0 0 8.056-17.691zm-299.498 96.438h70.56a66.842 66.842 0 0 0 7.084 24.381h-77.644a12.191 12.191 0 0 1 0-24.381zm0 36.465h85.551a67.605 67.605 0 0 0 31.491 21.464 12.129 12.129 0 0 1 -5.289 2.63h-114.357a12.187 12.187 0 0 1 2.6-24.094zm121.333 48.882a11.52 11.52 0 0 1 -11.508 11.508h-110.507a11.521 11.521 0 0 1 -11.508-11.508v-1.364a11.523 11.523 0 0 1 9.387-11.305l114.708-.006a11.52 11.52 0 0 1 9.428 11.311zm16.321-36.182a55.393 55.393 0 1 1 55.393-55.392 55.455 55.455 0 0 1 -55.393 55.392zm149.844 37.091a11.521 11.521 0 0 1 -11.508 11.509h-110.507a11.522 11.522 0 0 1 -11.508-11.509v-1.364a11.521 11.521 0 0 1 11.508-11.508h110.507a11.52 11.52 0 0 1 11.508 11.508zm-12.19-25.41h-109.143a12.161 12.161 0 0 1 -7.924-2.908 67.617 67.617 0 0 0 31.516-21.473h85.553a12.191 12.191 0 0 1 0 24.381zm0-36.465h-77.644a66.823 66.823 0 0 0 7.084-24.381h70.562a12.191 12.191 0 0 1 0 24.381zm0-36.465h-70.532a66.848 66.848 0 0 0 -6.921-24.38h77.455a12.19 12.19 0 0 1 0 24.38zm0-36.464h-85.259a67.619 67.619 0 0 0 -31.468-21.73 12.179 12.179 0 0 1 7.584-2.651h109.145a12.191 12.191 0 0 1 0 24.381zm12.19-47.89a11.521 11.521 0 0 1 -11.508 11.509h-110.507a11.522 11.522 0 0 1 -11.508-11.509v-1.362a11.521 11.521 0 0 1 11.508-11.508h110.507a11.52 11.52 0 0 1 11.508 11.508z" fill="#0635c9"/></svg>