<?xml version="1.0"?>
<svg xmlns="http://www.w3.org/2000/svg" xmlns:xlink="http://www.w3.org/1999/xlink" xmlns:svgjs="http://svgjs.com/svgjs" version="1.1" width="512" height="512" x="0" y="0" viewBox="0 0 64 64" style="enable-background:new 0 0 512 512" xml:space="preserve" class=""><g><g xmlns="http://www.w3.org/2000/svg"><path d="m57.15 42.178-6.15-1.025v-2.236c1.828-1.061 3.195-2.823 3.737-4.918h.263c2.206 0 4-1.794 4-4 0-1.84-1.255-3.378-2.95-3.842 1.763-1.046 2.95-2.963 2.95-5.157 0-3.309-2.691-6-6-6-1.129 0-2.145.474-2.873 1.229-1.247-.799-2.682-1.229-4.167-1.229h-1.354c-2.524 0-4.871 1.22-6.32 3.275l-.811.54c-1.55 1.033-2.475 2.762-2.475 4.624 0 .452.056.905.166 1.348l.692 2.767c-.529.679-.858 1.521-.858 2.446 0 2.206 1.794 4 4 4h.263c.542 2.095 1.909 3.856 3.737 4.918v2.236l-6.15 1.024c-3.39.565-5.85 3.468-5.85 6.905v13.917h32v-13.917c0-3.437-2.46-6.34-5.85-6.905zm-13.585.909 2.17 2.894-1.984 2.48-.532-5.317zm3.255 9.913h.361l1.6 8h-3.561zm.503-2h-.646l-.799-1.997 1.122-1.403 1.122 1.402zm.942-5.02 2.17-2.894.346.058-.532 5.317zm8.735-15.98c0 1.103-.897 2-2 2v-4c1.103 0 2 .897 2 2zm-18.416-9.521 1.137-.758.111-.167c1.066-1.6 2.851-2.555 4.773-2.555h1.354c1.137 0 2.237.333 3.183.963l.009.006c-.088.332-.151.673-.151 1.032 0 2.206 1.794 4 4 4h2v-2h-2c-1.103 0-2-.897-2-2s.897-2 2-2c2.206 0 4 1.794 4 4s-1.794 4-4 4h-11c-.552 0-1-.449-1-1s.448-1 1-1h1v-2h-1c-1.654 0-3 1.346-3 3v2c-.495 0-.965.102-1.403.267l-.491-1.964c-.07-.283-.106-.574-.106-.864 0-1.192.592-2.299 1.584-2.96zm-1.584 9.521c0-1.103.897-2 2-2v4c-1.103 0-2-.897-2-2zm4 2v-5.184c.314.112.648.184 1 .184h11v5c0 3.309-2.691 6-6 6s-6-2.691-6-6zm6 8c.692 0 1.359-.097 2-.263v1.931l-2 2.666-2-2.666v-1.931c.641.166 1.308.263 2 .263zm-14 9.083c0-2.454 1.757-4.529 4.178-4.933l4.064-.677 1.007 10.066 2.193-2.741.519 1.298-1.781 8.904h-4.18v-11h-2v11h-4zm28 11.917h-4v-11h-2v11h-4.18l-1.781-8.905.519-1.298 2.193 2.741 1.007-10.066 4.064.677c2.421.405 4.178 2.48 4.178 4.934z" fill="#1b5083" data-original="#000000" style="" class=""/><path d="m50 33h-2c0 .552-.448 1-1 1s-1-.448-1-1h-2c0 1.654 1.346 3 3 3s3-1.346 3-3z" fill="#1b5083" data-original="#000000" style="" class=""/><path d="m16 17h-2c-4.963 0-9 4.038-9 9v3.528c0 2.771-.655 5.546-1.895 8.025-1.376 2.755-2.105 5.839-2.105 8.919v.528c0 1.771.776 3.36 2 4.46v11.54h22v-2.515c0-5.593-2.136-10.849-6-14.869v-2.616h1.382c.558 0 1.118-.132 1.618-.382 1.233-.617 2-1.857 2-3.236v-2.661l3-1v-.721c0-2.917-1.712-8.279-2.01-9.188-.101-4.875-4.091-8.812-8.99-8.812zm-13 29.472c0-2.771.655-5.546 1.895-8.024 1.376-2.756 2.105-5.84 2.105-8.92v-3.528c0-3.86 3.141-7 7-7h2c3.519 0 6.432 2.613 6.92 6h-6.776c-1.717 0-3.194 1.282-3.438 2.981l-.576 4.036c-1.754.171-3.13 1.656-3.13 3.455 0 1.323.735 2.514 1.92 3.106l.08.04v5.382 2 1c0 2.206-1.794 4-4 4s-4-1.794-4-4zm2 12.528h6v2h-6zm18 2h-10v-8h-2v4h-6v-4.35c.627.222 1.298.35 2 .35 3.309 0 6-2.691 6-6h4.58c3.498 3.645 5.42 8.418 5.42 13.485zm-1-25.721v4.103c0 .617-.343 1.172-.895 1.447-.223.112-.473.171-.723.171h-5.382v2h2v2h-4v-1-6.618l-1.187-.593c-.501-.251-.813-.756-.813-1.317 0-.812.66-1.472 1.472-1.472h1.396l.82-5.736c.102-.721.729-1.264 1.457-1.264h7.126c.459 1.469 1.496 4.979 1.696 7.29z" fill="#1b5083" data-original="#000000" style="" class=""/><circle cx="20" cy="31" r="1" fill="#1b5083" data-original="#000000" style="" class=""/><path d="m21 5h14v2h-14z" fill="#1b5083" data-original="#000000" style="" class=""/><path d="m21 9h10v2h-10z" fill="#1b5083" data-original="#000000" style="" class=""/><path d="m33 9h2v2h-2z" fill="#1b5083" data-original="#000000" style="" class=""/><path d="m35 16.586v-1.586h.166c2.114 0 3.834-1.72 3.834-3.834v-6.166c0-2.206-1.794-4-4-4h-14c-2.206 0-4 1.794-4 4v6.166c0 2.114 1.72 3.834 3.834 3.834h6.752l3.292 3.292c.449.45 1.071.708 1.708.708 1.331 0 2.414-1.083 2.414-2.414zm-2.707.293-3.879-3.879h-7.58c-1.012 0-1.834-.823-1.834-1.834v-6.166c0-1.103.897-2 2-2h14c1.103 0 2 .897 2 2v6.166c0 1.011-.822 1.834-1.834 1.834h-2.166v3.586c0 .337-.469.532-.707.293z" fill="#1b5083" data-original="#000000" style="" class=""/></g></g></svg>
