<svg fill="#3979F8" height="496pt" viewBox="0 0 496 496" width="496pt" xmlns="http://www.w3.org/2000/svg"><path d="m248 16v-16c-136.753906 0-248 111.246094-248 248h16c0-127.921875 104.078125-232 232-232zm0 0"/><path d="m480 248c0 127.921875-104.078125 232-232 232v16c136.753906 0 248-111.246094 248-248zm0 0"/><path d="m248 48v-16c-119.105469 0-216 96.894531-216 216h16c0-110.28125 89.71875-200 200-200zm0 0"/><path d="m248 448v16c119.105469 0 216-96.894531 216-216h-16c0 110.28125-89.71875 200-200 200zm0 0"/><path d="m294.855469 416c23.503906 0 45.609375-9.160156 62.222656-25.777344l32.570313-32.566406c3.128906-3.128906 3.128906-8.183594 0-11.3125l-56-56c-3.128907-3.128906-8.183594-3.128906-11.3125 0l-30.625 30.625c-4.527344 4.535156-10.550782 7.03125-16.96875 7.03125h-5.484376c-6.417968 0-12.449218-2.496094-16.976562-7.03125l-77.25-77.25c-4.535156-4.535156-7.03125-10.558594-7.03125-16.976562v-5.484376c0-6.417968 2.496094-12.449218 7.03125-16.976562l30.625-30.625c3.128906-3.128906 3.128906-8.183594 0-11.3125l-56-56c-3.128906-3.128906-8.183594-3.128906-11.3125 0l-32.566406 32.566406c-16.617188 16.617188-25.777344 38.722656-25.777344 62.234375v13.71875c0 23.503907 9.160156 45.609375 25.777344 62.226563l113.144531 113.140625c16.605469 16.609375 38.710937 25.769531 62.222656 25.769531zm33.144531-108.6875 44.6875 44.6875-12.6875 12.6875-44.6875-44.6875zm-184-184 44.6875 44.6875-12.6875 12.6875-44.6875-44.6875zm-26.910156 142.464844c-13.59375-13.601563-21.089844-31.679688-21.089844-50.914063v-13.71875c0-19.234375 7.496094-37.3125 21.089844-50.914062l2.910156-2.917969 44.6875 44.6875-.96875.96875c-7.550781 7.550781-11.71875 17.597656-11.71875 28.289062v5.484376c0 10.691406 4.167969 20.738281 11.71875 28.289062l77.25 77.25c7.550781 7.550781 17.597656 11.71875 28.289062 11.71875h5.484376c10.691406 0 20.738281-4.167969 28.289062-11.71875l.96875-.96875 44.6875 44.6875-2.910156 2.910156c-13.601563 13.59375-31.679688 21.089844-50.914063 21.089844h-13.71875c-19.234375 0-37.3125-7.496094-50.914062-21.089844zm0 0"/><path d="m228.9375 160.609375c-2.992188 1.230469-4.9375 4.160156-4.9375 7.390625v72c0 4.425781 3.574219 8 8 8h72c3.230469 0 6.160156-1.945312 7.390625-4.9375 1.242187-2.992188.554687-6.429688-1.734375-8.71875l-18.34375-18.34375 42.34375-42.34375c3.128906-3.128906 3.128906-8.183594 0-11.3125l-24-24c-3.128906-3.128906-8.183594-3.128906-11.3125 0l-42.34375 42.34375-18.34375-18.34375c-2.289062-2.289062-5.726562-2.96875-8.71875-1.734375zm11.0625 26.703125 10.34375 10.34375c3.128906 3.128906 8.183594 3.128906 11.3125 0l42.34375-42.34375 12.6875 12.6875-42.34375 42.34375c-3.128906 3.128906-3.128906 8.183594 0 11.3125l10.34375 10.34375h-44.6875zm0 0"/><path d="m364.6875 168-42.34375 42.34375c-3.128906 3.128906-3.128906 8.183594 0 11.3125l24 24c1.558594 1.558594 3.609375 2.34375 5.65625 2.34375s4.097656-.785156 5.65625-2.34375l42.34375-42.34375 18.34375 18.34375c2.296875 2.296875 5.734375 2.992188 8.71875 1.734375 2.992188-1.230469 4.9375-4.160156 4.9375-7.390625v-72c0-4.425781-3.574219-8-8-8h-72c-3.230469 0-6.160156 1.945312-7.390625 4.9375-1.242187 2.992188-.554687 6.429688 1.734375 8.71875zm51.3125-16v44.6875l-10.34375-10.34375c-3.128906-3.128906-8.183594-3.128906-11.3125 0l-42.34375 42.34375-12.6875-12.6875 42.34375-42.34375c3.128906-3.128906 3.128906-8.183594 0-11.3125l-10.34375-10.34375zm0 0"/></svg>