<?xml version="1.0"?>
<svg xmlns="http://www.w3.org/2000/svg" xmlns:xlink="http://www.w3.org/1999/xlink" xmlns:svgjs="http://svgjs.com/svgjs" version="1.1" width="512" height="512" x="0" y="0" viewBox="0 0 64 64" style="enable-background:new 0 0 512 512" xml:space="preserve" class=""><g><path xmlns="http://www.w3.org/2000/svg" d="m48 3c-3.379 0-6.49 1.136-9 3.028v-5.028h-23.414l-10.586 10.586v11.515c-2.279.465-4 2.485-4 4.899v30c0 2.757 2.243 5 5 5h52c2.757 0 5-2.243 5-5v-40c0-8.271-6.729-15-15-15zm4.536 24.715c1.452-2.685 2.281-5.659 2.43-8.715h5.994c-.338 4.364-2.87 8.292-6.709 10.401-.427-.695-1.014-1.27-1.715-1.686zm-13.903-.715c-2.107-2.191-3.357-4.992-3.584-8h5.984c.132 2.814.822 5.495 2.06 8zm6.825-21.747c-.751.936-1.608 2.187-2.376 3.747h-4.441c1.806-1.878 4.165-3.219 6.817-3.747zm15.491 11.747h-5.99c-.108-2.268-.563-4.272-1.193-6h5.171c1.129 1.758 1.844 3.802 2.012 6zm-7.99 0h-9.918c.124-2.303.654-4.313 1.353-6h7.213c.698 1.687 1.228 3.697 1.352 6zm-7.596-8c.963-1.716 1.993-2.932 2.637-3.607.644.675 1.674 1.891 2.637 3.607zm-8.3 2h5.171c-.631 1.728-1.086 3.732-1.193 6h-5.99c.168-2.198.883-4.242 2.012-6zm8.294 16c-1.395-2.48-2.176-5.163-2.324-8h9.934c-.149 2.862-.942 5.566-2.358 8.062-.202-.025-.401-.062-.609-.062zm12.002-18h-4.441c-.767-1.56-1.625-2.811-2.376-3.747 2.652.528 5.011 1.869 6.817 3.747zm-20.359-1.164c-2.474 2.676-4 6.241-4 10.164 0 3.293 1.07 6.416 3.019 9h-5.019v-12h-22v8h-2v-10h10v-10h20zm-8 19.164h-8.5l-1.5-2c-.939-1.252-2.435-2-4-2h-4v-6h18zm-20.586-16 6.586-6.586v6.586zm-2.414 14h9c.939 0 1.836.449 2.4 1.2l2.1 2.8h30.5c1.302 0 2.402.839 2.816 2h-49.816v-3c0-1.654 1.346-3 3-3zm0 36c-1.654 0-3-1.346-3-3v-25h50v25c0 1.125.373 2.164 1.002 3zm55-3c0 1.654-1.346 3-3 3s-3-1.346-3-3v-26c0-.24-.038-.471-.071-.702 2.578-1.346 4.665-3.392 6.071-5.841z" fill="#3979f8" data-original="#000000" style=""/><path xmlns="http://www.w3.org/2000/svg" d="m45 13h2v2h-2z" fill="#3979f8" data-original="#000000" style=""/><path xmlns="http://www.w3.org/2000/svg" d="m49 13h2v2h-2z" fill="#3979f8" data-original="#000000" style=""/><path xmlns="http://www.w3.org/2000/svg" d="m45 21h2v2h-2z" fill="#3979f8" data-original="#000000" style=""/><path xmlns="http://www.w3.org/2000/svg" d="m49 21h2v2h-2z" fill="#3979f8" data-original="#000000" style=""/><path xmlns="http://www.w3.org/2000/svg" d="m5 27h2v2h-2z" fill="#3979f8" data-original="#000000" style=""/><path xmlns="http://www.w3.org/2000/svg" d="m9 27h2v2h-2z" fill="#3979f8" data-original="#000000" style=""/><path xmlns="http://www.w3.org/2000/svg" d="m13 27h2v2h-2z" fill="#3979f8" data-original="#000000" style=""/><path xmlns="http://www.w3.org/2000/svg" d="m57 57h2v2h-2z" fill="#3979f8" data-original="#000000" style=""/><path xmlns="http://www.w3.org/2000/svg" d="m57 53h2v2h-2z" fill="#3979f8" data-original="#000000" style=""/><path xmlns="http://www.w3.org/2000/svg" d="m57 49h2v2h-2z" fill="#3979f8" data-original="#000000" style=""/><path xmlns="http://www.w3.org/2000/svg" d="m5 59h14v-10h-14zm2-8h10v6h-10z" fill="#3979f8" data-original="#000000" style=""/><path xmlns="http://www.w3.org/2000/svg" d="m19 5h2v2h-2z" fill="#3979f8" data-original="#000000" style=""/><path xmlns="http://www.w3.org/2000/svg" d="m23 5h12v2h-12z" fill="#3979f8" data-original="#000000" style=""/><path xmlns="http://www.w3.org/2000/svg" d="m19 9h14v2h-14z" fill="#3979f8" data-original="#000000" style=""/></g></svg>
