<svg xmlns="http://www.w3.org/2000/svg" width="48.339" height="16.888" viewBox="0 0 48.339 16.888">
  <g id="Group_13289" data-name="Group 13289" transform="translate(-740 -3586.615)">
    <path id="Path_65078" data-name="Path 65078" d="M3.153,2.5,8.2,2.187l.652,4.772-5.184.755Z" transform="translate(778 3590)" fill="#f1f1f1"/>
    <path id="Path_65079" data-name="Path 65079" d="M3.506,2.9l3.467-.549V7.535L3.506,7.054Z" transform="translate(739 3590)" fill="#f1f1f1"/>
    <path id="Path_65080" data-name="Path 65080" d="M3.986,3.615l2.456-.4v2.3H3.749Z" transform="translate(752 3592)" fill="#f1f1f1"/>
    <path id="Path_65081" data-name="Path 65081" d="M3.386,2.211l3.056.132.271,5.043H2.752Z" transform="translate(770 3590)" fill="#f1f1f1"/>
    <g id="Django" transform="translate(740 3586.615)">
      <path id="Path_65076" data-name="Path 65076" d="M5.7,0H8.343V12.236A17.438,17.438,0,0,1,4.91,12.6C1.682,12.6,0,11.138,0,8.34A4.218,4.218,0,0,1,4.549,3.894a4.227,4.227,0,0,1,1.15.137Zm0,6.159a2.626,2.626,0,0,0-.893-.137A2,2,0,0,0,2.7,8.288a1.926,1.926,0,0,0,2.094,2.18A6.155,6.155,0,0,0,5.7,10.4Z" fill="#404cdc"/>
      <path id="Path_65077" data-name="Path 65077" d="M71.269,4.2v6.128c0,2.111-.155,3.124-.618,4a4.227,4.227,0,0,1-2.163,1.957l-2.455-1.167a3.826,3.826,0,0,0,2.094-1.768c.378-.755.5-1.631.5-3.931V4.2ZM68.625.127h2.643V2.839H68.625ZM72.865,4.8a7.954,7.954,0,0,1,3.5-.789c1.356,0,2.249.36,2.644,1.064A4.076,4.076,0,0,1,79.3,7.079v5.373a29.09,29.09,0,0,1-3.776.292c-2.214,0-3.21-.773-3.21-2.489,0-1.854,1.322-2.712,4.566-2.987V6.684c0-.481-.24-.652-.91-.652a6.923,6.923,0,0,0-3.107.807V4.8ZM77,9c-1.751.172-2.318.446-2.318,1.133,0,.515.326.755,1.047.755A7.293,7.293,0,0,0,77,10.77ZM80.59,4.607a15.854,15.854,0,0,1,4.154-.6,3.96,3.96,0,0,1,2.918.91,3.139,3.139,0,0,1,.721,2.506v5.184H85.74V7.526c0-1.013-.343-1.391-1.287-1.391a3.982,3.982,0,0,0-1.219.189v6.283H80.59Zm8.821,9.441a6.017,6.017,0,0,0,2.832.7c1.734,0,2.472-.7,2.472-2.386v-.051a3.877,3.877,0,0,1-5.51-3.588c0-3,2.18-4.7,6.042-4.7A16.687,16.687,0,0,1,98.7,4.4l-.905,1.907c-.7-.137-.056-.018-.588-.07v.275l.034,1.116.017,1.442c.017.36.017.721.034,1.081v.721c0,2.266-.189,3.33-.755,4.206C95.711,16.366,94.286,17,92.261,17a7.562,7.562,0,0,1-2.849-.515V14.049Zm5.253-7.9H94.39a2.888,2.888,0,0,0-1.528.378A2.048,2.048,0,0,0,91.9,8.47c0,1.322.653,2.077,1.82,2.077a3.28,3.28,0,0,0,1-.172v-.91c0-.309-.017-.653-.017-1.013l-.017-1.219-.017-.876V6.152Zm8.138-2.18a3.987,3.987,0,0,1,4.257,4.36c0,2.764-1.682,4.5-4.36,4.5a4,4,0,0,1-4.275-4.343c0-2.781,1.683-4.515,4.378-4.515ZM102.75,10.7c1.013,0,1.614-.841,1.614-2.3,0-1.442-.584-2.3-1.6-2.3-1.047,0-1.648.841-1.648,2.3S101.721,10.7,102.75,10.7Z" transform="translate(-58.72 -0.113)" fill="#404cdc"/>
    </g>
  </g>
</svg>
