<?xml version="1.0"?>
<svg xmlns="http://www.w3.org/2000/svg" xmlns:xlink="http://www.w3.org/1999/xlink" xmlns:svgjs="http://svgjs.com/svgjs" version="1.1" width="512" height="512" x="0" y="0" viewBox="0 0 24 24" style="enable-background:new 0 0 512 512" xml:space="preserve" class=""><rect width="24" height="24" fill="#24cfbf" shape="square"/><g transform="matrix(0.62,0,0,0.62,4.560000000000001,4.560000000000001)"><g xmlns="http://www.w3.org/2000/svg"><path d="m20.25 13h-3.5c-.414 0-.75-.336-.75-.75v-3.5c0-.414.336-.75.75-.75h3.5c.414 0 .75.336.75.75v3.5c0 .414-.336.75-.75.75zm-2.75-1.5h2v-2h-2z" fill="#ffffff" data-original="#000000" style=""/></g><g xmlns="http://www.w3.org/2000/svg"><path d="m20.25 20h-3.5c-.414 0-.75-.336-.75-.75v-3.5c0-.414.336-.75.75-.75h3.5c.414 0 .75.336.75.75v3.5c0 .414-.336.75-.75.75zm-2.75-1.5h2v-2h-2z" fill="#ffffff" data-original="#000000" style=""/></g><g xmlns="http://www.w3.org/2000/svg"><path d="m13 5.5h1.5v17h-1.5z" fill="#ffffff" data-original="#000000" style=""/></g><g xmlns="http://www.w3.org/2000/svg"><path d="m9.25 10.5h-5.5c-.414 0-.75-.336-.75-.75s.336-.75.75-.75h5.5c.414 0 .75.336.75.75s-.336.75-.75.75z" fill="#ffffff" data-original="#000000" style=""/></g><g xmlns="http://www.w3.org/2000/svg"><path d="m9.25 14.5h-5.5c-.414 0-.75-.336-.75-.75s.336-.75.75-.75h5.5c.414 0 .75.336.75.75s-.336.75-.75.75z" fill="#ffffff" data-original="#000000" style=""/></g><g xmlns="http://www.w3.org/2000/svg"><path d="m9.25 18.5h-5.5c-.414 0-.75-.336-.75-.75s.336-.75.75-.75h5.5c.414 0 .75.336.75.75s-.336.75-.75.75z" fill="#ffffff" data-original="#000000" style=""/></g><g xmlns="http://www.w3.org/2000/svg"><path d="m21.25 23h-18.5c-1.517 0-2.75-1.233-2.75-2.75v-16.5c0-1.517 1.233-2.75 2.75-2.75h18.5c1.517 0 2.75 1.233 2.75 2.75v16.5c0 1.517-1.233 2.75-2.75 2.75zm-18.5-20.5c-.689 0-1.25.561-1.25 1.25v16.5c0 .689.561 1.25 1.25 1.25h18.5c.689 0 1.25-.561 1.25-1.25v-16.5c0-.689-.561-1.25-1.25-1.25z" fill="#ffffff" data-original="#000000" style=""/></g><g xmlns="http://www.w3.org/2000/svg"><path d="m23.25 6h-22.5c-.414 0-.75-.336-.75-.75s.336-.75.75-.75h22.5c.414 0 .75.336.75.75s-.336.75-.75.75z" fill="#ffffff" data-original="#000000" style=""/></g></g></svg>
