<?xml version="1.0"?>
<svg xmlns="http://www.w3.org/2000/svg" xmlns:xlink="http://www.w3.org/1999/xlink" xmlns:svgjs="http://svgjs.com/svgjs" version="1.1" width="512" height="512" x="0" y="0" viewBox="0 0 24 24" style="enable-background:new 0 0 512 512" xml:space="preserve"><rect width="24" height="24" fill="#1168ab" shape="square"/><g transform="matrix(0.43000000000000005,0,0,0.42999999999999994,6.840000000000003,6.840000000000004)"><path xmlns="http://www.w3.org/2000/svg" d="m19.5 24h-15c-1.93 0-3.5-1.57-3.5-3.5s1.57-3.5 3.5-3.5h15c1.93 0 3.5 1.57 3.5 3.5s-1.57 3.5-3.5 3.5zm-15-6c-1.379 0-2.5 1.122-2.5 2.5s1.121 2.5 2.5 2.5h15c1.379 0 2.5-1.122 2.5-2.5s-1.121-2.5-2.5-2.5z" fill="#ffffff" data-original="#000000" style=""/><path xmlns="http://www.w3.org/2000/svg" d="m5.5 22c-.827 0-1.5-.673-1.5-1.5s.673-1.5 1.5-1.5 1.5.673 1.5 1.5-.673 1.5-1.5 1.5zm0-2c-.275 0-.5.224-.5.5s.225.5.5.5.5-.224.5-.5-.225-.5-.5-.5z" fill="#ffffff" data-original="#000000" style=""/><path xmlns="http://www.w3.org/2000/svg" d="m10.5 22c-.827 0-1.5-.673-1.5-1.5s.673-1.5 1.5-1.5 1.5.673 1.5 1.5-.673 1.5-1.5 1.5zm0-2c-.275 0-.5.224-.5.5s.225.5.5.5.5-.224.5-.5-.225-.5-.5-.5z" fill="#ffffff" data-original="#000000" style=""/><path xmlns="http://www.w3.org/2000/svg" d="m1.571 20.35c-.019 0-.037-.001-.057-.003-.274-.031-.472-.278-.441-.552l1.732-15.571c.141-1.268 1.21-2.224 2.485-2.224h3.21c.276 0 .5.224.5.5s-.224.5-.5.5h-3.21c-.765 0-1.406.574-1.491 1.334l-1.732 15.571c-.028.256-.245.445-.496.445z" fill="#ffffff" data-original="#000000" style=""/><path xmlns="http://www.w3.org/2000/svg" d="m22.429 20.35c-.251 0-.468-.189-.496-.445l-1.732-15.571c-.085-.76-.726-1.334-1.491-1.334h-3.21c-.276 0-.5-.224-.5-.5s.224-.5.5-.5h3.21c1.275 0 2.344.956 2.485 2.223l1.731 15.572c.03.274-.167.521-.441.552-.019.002-.038.003-.056.003z" fill="#ffffff" data-original="#000000" style=""/><path xmlns="http://www.w3.org/2000/svg" d="m12 8.75c-.276 0-.5-.224-.5-.5v-7.75c0-.276.224-.5.5-.5s.5.224.5.5v7.75c0 .277-.224.5-.5.5z" fill="#ffffff" data-original="#000000" style=""/><path xmlns="http://www.w3.org/2000/svg" d="m12 9c-.128 0-.256-.049-.354-.146l-2.5-2.5c-.195-.195-.195-.512 0-.707s.512-.195.707 0l2.147 2.146 2.146-2.146c.195-.195.512-.195.707 0s.195.512 0 .707l-2.5 2.5c-.097.097-.225.146-.353.146z" fill="#ffffff" data-original="#000000" style=""/><path xmlns="http://www.w3.org/2000/svg" d="m15.5 12h-7c-.827 0-1.5-.673-1.5-1.5v-2c0-.276.224-.5.5-.5s.5.224.5.5v2c0 .276.225.5.5.5h7c.275 0 .5-.224.5-.5v-2c0-.276.224-.5.5-.5s.5.224.5.5v2c0 .827-.673 1.5-1.5 1.5z" fill="#ffffff" data-original="#000000" style=""/></g></svg>
