<svg id="Capa_1" enable-background="new 0 0 512 512" height="512" viewBox="0 0 512 512" width="512" xmlns="http://www.w3.org/2000/svg"><g><g><path d="m313.861 395.578h-28.355c.738 2.635 1.134 5.413 1.134 8.283 0 16.92-13.72 30.64-30.64 30.64s-30.64-13.72-30.64-30.64c0-2.871.395-5.649 1.134-8.283h-28.355l-11.429 86.333h138.58z" fill="#e0d3ce"/><g fill="#cdbfbb"><path d="m225.36 403.861c0 4.65 1.04 9.06 2.89 13h-32.93l2.82-21.28h28.35c-.73 2.63-1.13 5.41-1.13 8.28z"/><path d="m283.75 416.861c1.85-3.94 2.89-8.35 2.89-13 0-2.87-.4-5.65-1.13-8.28h28.35l2.82 21.28z"/><path d="m325.29 481.911h-18.11l-11.43-86.33h18.11z"/></g><g><g><path d="m504.5 365.644h-497v-315.56c0-11.046 8.954-20 20-20h457c11.046 0 20 8.954 20 20z" fill="#f8f3f1"/><path d="m504.5 50.084v315.56h-22.5v-315.56c0-11.05-8.95-20-20-20h22.5c11.05 0 20 8.95 20 20z" fill="#efe2dd"/></g><path d="m484.5 403.864h-457c-11.046 0-20-8.954-20-20v-46.635h497v46.635c0 11.046-8.954 20-20 20z" fill="#756f6f"/><path d="m504.5 337.224v46.64c0 11.05-8.95 20-20 20h-22.5c11.05 0 20-8.95 20-20v-46.64z" fill="#5b5555"/></g></g><g><g><path d="m407.723 199.657h-124.457l-18.718-67.007 159.314-11.74" fill="#fcb44d"/><path d="m426.47 120.718-15.75 78.939h-17l15.5-77.669z" fill="#fca62f"/></g><g><g><g><circle cx="301.407" cy="265.445" fill="#848181" r="17.002"/><path d="m318.406 265.444c0 7.988-5.501 14.691-12.934 16.513 1.84-2.723 2.915-6.002 2.915-9.527 0-9.391-7.605-17.005-16.996-17.005-1.403 0-2.769.173-4.071.501 3.051-4.518 8.225-7.487 14.09-7.487 9.391 0 16.996 7.615 16.996 17.005z" fill="#756f6f"/></g></g><g><g><circle cx="386.907" cy="265.445" fill="#848181" r="17.002"/><path d="m403.906 265.444c0 7.988-5.501 14.691-12.934 16.513 1.84-2.723 2.915-6.002 2.915-9.527 0-9.391-7.605-17.005-16.996-17.005-1.403 0-2.769.173-4.071.501 3.051-4.518 8.225-7.487 14.09-7.487 9.391 0 16.996 7.615 16.996 17.005z" fill="#756f6f"/></g></g></g></g><g><path d="m194 210.431h-114c-5.523 0-10-4.477-10-10v-30.231c0-5.523 4.477-10 10-10h114c5.523 0 10 4.477 10 10v30.232c0 5.522-4.477 9.999-10 9.999z" fill="#5bbd93"/><path d="m204 170.198v30.23c0 5.53-4.48 10-10 10h-18.48c5.52 0 10-4.47 10-10v-30.23c0-5.52-4.48-10-10-10h18.48c5.52 0 10 4.479 10 10z" fill="#2db181"/><g><path d="m512 50.089c0-15.163-12.337-27.5-27.5-27.5h-109.5c-4.143 0-7.5 3.357-7.5 7.5s3.357 7.5 7.5 7.5h109.5c6.893 0 12.5 5.607 12.5 12.5l-.002 279.64h-481.997l-.001-279.64c0-6.893 5.607-12.5 12.5-12.5h313.5c4.143 0 7.5-3.357 7.5-7.5s-3.357-7.5-7.5-7.5h-313.5c-15.164 0-27.5 12.337-27.5 27.5v333.775c0 15.163 12.336 27.5 27.5 27.5h160.983l-8.346 63.046h-16.37c-4.142 0-7.5 3.357-7.5 7.5s3.358 7.5 7.5 7.5h184.465c4.143 0 7.5-3.357 7.5-7.5s-3.357-7.5-7.5-7.5h-16.37l-2.228-16.829c-.544-4.106-4.313-6.984-8.42-6.451-4.106.544-6.994 4.313-6.451 8.42l1.967 14.86h-121.462l8.346-63.046h14.985c3.462 17.607 18.83 30.636 37.401 30.636 18.279 0 33.841-13.246 37.377-30.636h15.008l1.938 14.641c.5 3.772 3.722 6.517 7.426 6.517.328 0 .66-.021.994-.065 4.106-.544 6.994-4.313 6.451-8.42l-1.677-12.672h160.983c15.164 0 27.5-12.337 27.5-27.5zm-256 376.911c-10.205 0-18.819-6.481-21.914-15.636h43.785c-3.155 9.062-11.839 15.636-21.871 15.636zm241-43.135c0 6.893-5.607 12.5-12.5 12.5h-457c-6.893 0-12.5-5.607-12.5-12.5v-39.136h482z"/><path d="m272.345 229.956h133.829c3.576 0 6.655-2.525 7.355-6.032l24.431-122.447h9.307c4.143 0 7.5-3.357 7.5-7.5s-3.357-7.5-7.5-7.5h-15.458c-3.576 0-6.655 2.525-7.355 6.032l-4.22 21.149-156.236 11.512c-2.243.165-4.293 1.328-5.586 3.168s-1.692 4.163-1.087 6.329l18.717 67.007c.905 3.241 3.858 5.482 7.224 5.482h118.313l-1.556 7.799h-127.678c-11.3 0-20.492 9.192-20.492 20.492 0 11.299 9.192 20.491 20.492 20.491h6.48c-1.236 2.924-1.92 6.137-1.92 9.506 0 13.511 10.991 24.502 24.502 24.502s24.502-10.991 24.502-24.502c0-3.369-.684-6.581-1.92-9.506h40.335c-1.236 2.924-1.92 6.137-1.92 9.506 0 13.511 10.991 24.502 24.502 24.502s24.502-10.991 24.502-24.502c0-3.369-.684-6.581-1.92-9.506h7.397c4.143 0 7.5-3.357 7.5-7.5s-3.357-7.5-7.5-7.5h-144.54c-3.028 0-5.492-2.463-5.492-5.491s2.463-5.491 5.492-5.491zm16.613-37.799-14.721-52.7 142.951-10.535-12.617 63.235zm12.449 82.79c-5.239 0-9.502-4.263-9.502-9.502s4.263-9.502 9.502-9.502 9.502 4.263 9.502 9.502-4.263 9.502-9.502 9.502zm85.5 0c-5.239 0-9.502-4.263-9.502-9.502s4.263-9.502 9.502-9.502 9.502 4.263 9.502 9.502-4.263 9.502-9.502 9.502z"/><path d="m307.387 145.708c-4.143 0-7.5 3.357-7.5 7.5v21c0 4.143 3.357 7.5 7.5 7.5s7.5-3.357 7.5-7.5v-21c0-4.143-3.358-7.5-7.5-7.5z"/><path d="m332.887 145.708c-4.143 0-7.5 3.357-7.5 7.5v21c0 4.143 3.357 7.5 7.5 7.5s7.5-3.357 7.5-7.5v-21c0-4.143-3.358-7.5-7.5-7.5z"/><path d="m358.387 145.708c-4.143 0-7.5 3.357-7.5 7.5v21c0 4.143 3.357 7.5 7.5 7.5s7.5-3.357 7.5-7.5v-21c0-4.143-3.358-7.5-7.5-7.5z"/><path d="m383.887 145.708c-4.143 0-7.5 3.357-7.5 7.5v21c0 4.143 3.357 7.5 7.5 7.5s7.5-3.357 7.5-7.5v-21c0-4.143-3.358-7.5-7.5-7.5z"/><path d="m104.659 129.374c4.142 0 7.5-3.357 7.5-7.5v-18.992l4.225 3.972c1.448 1.361 3.294 2.036 5.136 2.036 1.997 0 3.99-.793 5.465-2.362 2.837-3.018 2.691-7.765-.326-10.602l-16.862-15.854c-2.888-2.715-7.388-2.715-10.275 0l-16.863 15.853c-3.018 2.837-3.164 7.584-.326 10.602 2.836 3.017 7.583 3.164 10.602.326l4.225-3.972v18.992c-.001 4.143 3.357 7.501 7.499 7.501z"/><path d="m165.33 129.374c4.142 0 7.5-3.357 7.5-7.5v-18.992l4.225 3.972c1.448 1.361 3.294 2.036 5.136 2.036 1.997 0 3.99-.793 5.465-2.362 2.837-3.018 2.691-7.765-.326-10.602l-16.862-15.854c-2.888-2.715-7.388-2.715-10.275 0l-16.863 15.853c-3.018 2.837-3.164 7.584-.326 10.602 2.836 3.017 7.583 3.164 10.602.326l4.225-3.972v18.992c-.001 4.143 3.357 7.501 7.499 7.501z"/><path d="m211.5 170.2c0-9.649-7.851-17.5-17.5-17.5h-114c-9.649 0-17.5 7.851-17.5 17.5v30.231c0 9.649 7.851 17.5 17.5 17.5h49c4.142 0 7.5-3.357 7.5-7.5s-3.358-7.5-7.5-7.5h-49c-1.378 0-2.5-1.121-2.5-2.5v-30.231c0-1.379 1.122-2.5 2.5-2.5h114c1.378 0 2.5 1.121 2.5 2.5v30.231c0 1.379-1.122 2.5-2.5 2.5h-31c-4.142 0-7.5 3.357-7.5 7.5s3.358 7.5 7.5 7.5h31c9.649 0 17.5-7.851 17.5-17.5z"/><path d="m70 258.931h51.521c4.142 0 7.5-3.357 7.5-7.5s-3.358-7.5-7.5-7.5h-51.521c-4.142 0-7.5 3.357-7.5 7.5s3.358 7.5 7.5 7.5z"/><path d="m70 285.498h134c4.142 0 7.5-3.357 7.5-7.5s-3.358-7.5-7.5-7.5h-134c-4.142 0-7.5 3.357-7.5 7.5s3.358 7.5 7.5 7.5z"/></g></g></g></svg>