<svg id="Capa_1" enable-background="new 0 0 512 512" height="512" viewBox="0 0 512 512" width="512" xmlns="http://www.w3.org/2000/svg"><g><path d="m417.639 504.5h-323.278c-4.183 0-7.574-3.391-7.574-7.574v-338.552h338.427v338.552c-.001 4.183-3.392 7.574-7.575 7.574z" fill="#f6f1f1"/><path d="m86.787 158.374v17.748h301.261c9.393 0 17.007 7.614 17.007 17.007v311.371h12.585c4.183 0 7.574-3.391 7.574-7.574v-338.552z" fill="#efe7e4"/><path d="m349.897 7.5h-255.536c-4.183 0-7.574 3.391-7.574 7.574v143.3h338.427v-103.604z" fill="#e7a561"/><path d="m366.956 67.071 29.988 19.927c5.066 3.367 8.111 9.046 8.111 15.129v56.246h20.159v-103.603z" fill="#e49542"/><path d="m349.897 7.5 15.241 57.373c.904 3.404 4.416 5.413 7.808 4.467l52.268-14.571z" fill="#e28424"/><g><circle cx="256" cy="331.437" fill="#80b4fb" r="92.655"/><g fill="#78d0b1"><path d="m163.345 331.437c0 26.412 11.051 50.241 28.781 67.119.539-.774 1.06-1.561 1.542-2.375 3.054-5.162 4.891-10.985 5.472-16.947.634-6.505-.754-12.662-2.321-18.93-1.578-6.311-2.62-12.487-.269-18.751 2.16-5.753 6.152-10.619 9.317-15.823 6.455-10.616 10.378-23.535 6.244-35.728-1.135-3.347-2.715-6.528-4.428-9.612-1.742-3.135-3.494-6.338-5.584-9.258-2.275-3.178-5.576-6.198-9.327-7.415-18.106 16.912-29.427 40.992-29.427 67.72z"/><path d="m320.207 264.64c-.076.058-.153.115-.229.172-5.825 4.439-11.239 9.396-16.135 14.844-4.844 5.39-9.205 11.231-12.973 17.422-3.937 6.467-7.794 13.55-8.904 21.135-.552 3.771-.401 7.631.882 11.249 1.318 3.717 3.601 7.037 4.593 10.875.956 3.7.81 7.631-.363 11.264-1.205 3.734-3.658 6.842-5.975 9.944-9.689 12.966-12.52 28.989-11.655 44.883.297 5.461.902 10.967 1.767 16.414 43.933-7.258 77.442-45.416 77.442-91.405-.002-26.245-10.916-49.939-28.45-66.797z"/></g></g><g><path d="m429.201 48.417-75.316-47.27c-1.196-.75-2.578-1.147-3.988-1.147h-121.992c-4.143 0-7.5 3.357-7.5 7.5s3.357 7.5 7.5 7.5h116.224l13.759 51.799c.957 3.6 3.264 6.601 6.496 8.449 3.236 1.851 6.997 2.316 10.575 1.316l42.754-11.918v86.228h-323.426v-135.801c0-.04.033-.073.074-.073h103.557c4.143 0 7.5-3.357 7.5-7.5s-3.357-7.5-7.5-7.5h-103.557c-8.312 0-15.074 6.762-15.074 15.073v481.853c0 8.312 6.763 15.074 15.074 15.074h323.278c8.312 0 15.074-6.763 15.074-15.074v-37.772c0-4.143-3.357-7.5-7.5-7.5s-7.5 3.357-7.5 7.5v37.772c0 .041-.033.074-.074.074h-323.278c-.041 0-.074-.033-.074-.074v-331.052h323.427v263.293c0 4.143 3.357 7.5 7.5 7.5s7.5-3.357 7.5-7.5v-374.397c-.001-2.582-1.328-4.981-3.513-6.353zm-57.121 13.378-10.047-37.824 44.821 28.13z"/><path d="m257.62 40.207c-4.143 0-7.5 3.357-7.5 7.5v70.399c0 3.652 2.631 6.773 6.231 7.392 1.751.302 22.932.125 25.983.108 4.142-.023 7.481-3.4 7.458-7.542-.023-4.128-3.377-7.458-7.499-7.458h-.043c-5.972.033-12.397.057-17.131.06v-62.959c.001-4.143-3.357-7.5-7.499-7.5z"/><path d="m123.728 40.207c-4.143 0-7.5 3.357-7.5 7.5v48.483c0 10.3 4.748 18.341 14.516 24.581 5.071 3.239 10.796 4.887 17.016 4.895h.048c5.37 0 10.408-1.165 14.974-3.465 14.387-7.245 17.406-18.171 17.406-26.062v-48.432c0-4.143-3.357-7.5-7.5-7.5s-7.5 3.357-7.5 7.5v48.433c0 3.458-.949 8.533-9.152 12.665-2.453 1.235-5.222 1.861-8.229 1.861h-.027c-3.365-.004-6.296-.834-8.959-2.535-5.393-3.445-7.592-6.904-7.592-11.94v-48.484c-.001-4.143-3.358-7.5-7.501-7.5z"/><path d="m242.192 66.019c0-14.232-12.044-25.812-26.848-25.812h-18.724c-.004 0-.008 0-.011 0s-.007 0-.011 0c-4.143 0-7.5 3.357-7.5 7.5v70.459c0 4.143 3.357 7.5 7.5 7.5s7.5-3.357 7.5-7.5v-23.408l24.964 28.363c1.482 1.685 3.553 2.545 5.633 2.545 1.76 0 3.527-.616 4.952-1.87 3.109-2.736 3.411-7.476.675-10.585l-19.329-21.961c12.1-2.501 21.199-12.862 21.199-25.231zm-26.848 10.811c-2.576 0-7.159.02-11.136.04-.059-11.264-.025-7.825-.064-21.663h11.2c6.422 0 11.848 4.951 11.848 10.812s-5.426 10.811-11.848 10.811z"/><path d="m226.962 243.103c-1.607-3.816-6.005-5.612-9.823-3.999-37.235 15.688-61.295 51.932-61.295 92.333 0 55.126 44.854 100.156 100.155 100.156 54.811 0 100.156-44.538 100.156-100.156 0-55.226-44.93-100.155-100.156-100.155-2.372 0-4.816.089-7.266.265-4.131.296-7.24 3.885-6.944 8.017.295 4.131 3.883 7.25 8.017 6.944 2.093-.149 4.177-.226 6.193-.226 19.814 0 38.054 6.821 52.538 18.213-3.647 3.206-7.084 6.601-10.273 10.148-5.175 5.757-9.818 11.993-13.801 18.535-4.385 7.202-8.622 15.089-9.919 23.947-.781 5.335-.367 10.329 1.233 14.843.707 1.995 1.596 3.814 2.379 5.419.846 1.731 1.645 3.367 2.021 4.826.596 2.305.513 4.755-.239 7.084-.734 2.277-2.488 4.614-4.345 7.09l-.501.669c-9.801 13.115-14.22 29.863-13.136 49.779.169 3.103.446 6.269.808 9.464-2.235.177-4.486.293-6.766.293-20.607 0-39.524-7.36-54.27-19.586 2.613-5.261 4.294-11.085 4.874-17.045.741-7.607-.765-14.5-2.51-21.477-1.454-5.813-2.049-10.232-.523-14.297 1.2-3.197 3.288-6.316 5.499-9.619 1.062-1.586 2.161-3.227 3.204-4.942 11.244-18.49 9.979-33.063 6.938-42.032-1.475-4.35-3.545-8.273-4.975-10.848l-.28-.505c-1.737-3.128-3.533-6.363-5.761-9.475-.725-1.013-1.751-2.308-3.054-3.653 5.429-4.036 11.389-7.478 17.821-10.188 3.82-1.607 5.61-6.005 4.001-9.822zm49.974 162.918c-.889-16.311 2.534-29.764 10.173-39.986l.484-.646c2.398-3.196 5.116-6.819 6.621-11.482 1.627-5.041 1.795-10.381.487-15.445-.757-2.926-1.983-5.438-3.066-7.655-.667-1.367-1.298-2.658-1.72-3.85-.775-2.187-.953-4.762-.529-7.656.908-6.205 4.329-12.473 7.89-18.32 3.502-5.753 7.588-11.239 12.145-16.309 3.109-3.46 6.509-6.744 10.124-9.84 13.429 15.058 21.611 34.891 21.611 56.606 0 39.503-27.041 72.803-63.583 82.38-.284-2.635-.498-5.241-.637-7.797zm-77.478-84.189c-.873 1.437-1.834 2.872-2.852 4.392-2.59 3.868-5.268 7.867-7.078 12.693-3.054 8.134-1.798 15.96.015 23.207 1.468 5.868 2.642 11.151 2.132 16.383-.232 2.384-.716 4.73-1.423 6.986-12.119-14.714-19.407-33.55-19.407-54.056 0-22.166 8.527-42.852 23.077-58.329.733.694 1.442 1.502 2.078 2.39 1.728 2.413 3.241 5.14 4.844 8.026l.282.508c1.848 3.326 3.044 5.91 3.882 8.379 3.651 10.77-1.004 21.944-5.55 29.421z"/></g></g></svg>