<svg id="Capa_1" enable-background="new 0 0 512 512" height="512" viewBox="0 0 512 512" width="512" xmlns="http://www.w3.org/2000/svg"><g><path d="m201.508 327.295-60.814 92.555c-3.243 4.935-4.463 10.929-3.408 16.739l9.779 53.856c1.478 8.139 8.566 14.056 16.838 14.056 9.451 0 17.113-7.662 17.113-17.113v-54.366l66.107-78.602-3.159-27.124h-42.456z" fill="#365e7d"/><path d="m201.508 327.295-21.898 33.326h62.297l5.216-6.202-3.16-27.124z" fill="#2b4d66"/><path d="m310.492 327.295 60.814 92.555c3.243 4.935 4.463 10.929 3.408 16.739l-9.779 53.856c-1.478 8.139-8.566 14.056-16.838 14.056-9.451 0-17.113-7.662-17.113-17.113v-54.366l-66.107-78.602 3.159-27.124h42.456z" fill="#365e7d"/><path d="m310.492 327.295h-42.456l-3.159 27.124 5.216 6.202h62.296z" fill="#2b4d66"/><path d="m256 490.701c-11.051 0-20.009-8.958-20.009-20.009v-129.435h40.019v129.435c-.001 11.05-8.959 20.009-20.01 20.009z" fill="#365e7d"/><path d="m235.99 341.257h40.019v19.364h-40.019z" fill="#2b4d66"/><path d="m463.582 40.794h-415.164c-2.837 0-5.137-2.3-5.137-5.137v-23.02c0-2.837 2.3-5.137 5.137-5.137h415.164c2.837 0 5.137 2.3 5.137 5.137v23.019c0 2.838-2.3 5.138-5.137 5.138z" fill="#81a7c6"/><path d="m463.582 7.5h-20.009c2.837 0 5.137 2.3 5.137 5.137v23.019c0 2.837-2.3 5.137-5.137 5.137h20.009c2.837 0 5.137-2.3 5.137-5.137v-23.019c0-2.837-2.3-5.137-5.137-5.137z" fill="#5c90b9"/><path d="m440.378 40.794h-368.757v252.199c0 6.371 5.165 11.536 11.536 11.536h345.685c6.371 0 11.536-5.165 11.536-11.536z" fill="#f9f6f9"/><path d="m71.621 40.794v16.646h334.591c7.818 0 14.156 6.338 14.156 14.156v221.396c0 6.371-5.165 11.536-11.536 11.536h20.009c6.371 0 11.536-5.165 11.536-11.536v-252.198z" fill="#dddaec"/><path d="m244.517 189.75h-27.823c-12.748 0-23.082-10.334-23.082-23.082v-22.757c0-12.748 10.334-23.082 23.082-23.082h27.823z" fill="#81a7c6"/><path d="m244.517 189.75 81.062 27.147v-123.214l-81.062 27.146z" fill="#ffd064"/><path d="m306.408 100.103v110.374l19.171 6.42v-123.214z" fill="#ebb044"/><path d="m347.967 230.546h-17.507c-2.696 0-4.881-2.185-4.881-4.881v-142.136c0-2.696 2.185-4.881 4.881-4.881h17.507c2.696 0 4.881 2.185 4.881 4.881v142.136c0 2.695-2.185 4.881-4.881 4.881z" fill="#365e7d"/><path d="m216.694 189.75v63.828c0 5.323 4.315 9.637 9.637 9.637h1.387c3.557 0 6.825-1.959 8.501-5.097l7.161-13.409c.746-1.397 1.136-2.956 1.136-4.54v-50.419z" fill="#365e7d"/><path d="m159.72 269.005h-38.569c-10.322 0-18.69-8.368-18.69-18.69 0-10.322 8.368-18.69 18.69-18.69h38.569c10.322 0 18.69 8.368 18.69 18.69 0 10.322-8.368 18.69-18.69 18.69z" fill="#95d6a4"/><path d="m159.72 231.625h-19.894c10.322 0 18.69 8.368 18.69 18.69s-8.368 18.69-18.69 18.69h19.894c10.322 0 18.69-8.368 18.69-18.69s-8.368-18.69-18.69-18.69z" fill="#78c2a4"/><path d="m320.574 341.257h-129.148c-9.538 0-17.269-7.732-17.269-17.269v-19.459h163.686v19.459c0 9.537-7.732 17.269-17.269 17.269z" fill="#81a7c6"/><path d="m316.834 304.529v19.459c0 9.538-7.732 17.269-17.269 17.269h21.009c9.537 0 17.269-7.732 17.269-17.269v-19.459z" fill="#5c90b9"/><g><path d="m216.694 113.329c-16.862 0-30.581 13.719-30.581 30.582v22.758c0 14.275 9.833 26.294 23.081 29.647v57.262c0 9.45 7.688 17.138 17.138 17.138h1.387c6.338 0 12.131-3.474 15.116-9.064l7.161-13.408c1.322-2.476 2.021-5.268 2.021-8.074v-39.998l21.61 7.237c3.925 1.315 8.178-.802 9.493-4.729s-.802-8.178-4.729-9.493l-26.374-8.833v-58.126l66.062-22.122v102.371l-9.701-3.249c-3.926-1.312-8.179.802-9.494 4.73-1.314 3.928.803 8.179 4.73 9.494l14.465 4.844v3.37c0 6.827 5.554 12.381 12.381 12.381h17.507c6.827 0 12.381-5.554 12.381-12.381v-142.137c0-6.827-5.554-12.381-12.381-12.381h-17.507c-6.827 0-12.381 5.554-12.381 12.381v4.756l-74.787 25.044zm116.386-27.181h12.269v136.897h-12.269zm-131.967 80.521v-22.758c0-8.592 6.989-15.582 15.581-15.582h20.323v53.921h-20.323c-8.592 0-15.581-6.989-15.581-15.581zm35.904 73.5c0 .35-.087.697-.252 1.007l-7.161 13.409c-.373.697-1.096 1.131-1.886 1.131h-1.387c-1.179 0-2.138-.959-2.138-2.138v-56.328h12.823v42.919z"/><path d="m226.565 158.211v-5.842c0-4.143-3.357-7.5-7.5-7.5s-7.5 3.357-7.5 7.5v5.842c0 4.143 3.357 7.5 7.5 7.5s7.5-3.357 7.5-7.5z"/><path d="m102.46 87.097h101.152c4.143 0 7.5-3.357 7.5-7.5s-3.357-7.5-7.5-7.5h-101.152c-4.143 0-7.5 3.357-7.5 7.5s3.358 7.5 7.5 7.5z"/><path d="m102.46 122.369h61.152c4.143 0 7.5-3.357 7.5-7.5s-3.357-7.5-7.5-7.5h-61.152c-4.143 0-7.5 3.357-7.5 7.5s3.358 7.5 7.5 7.5z"/><path d="m102.46 157.642h61.152c4.143 0 7.5-3.357 7.5-7.5s-3.357-7.5-7.5-7.5h-61.152c-4.143 0-7.5 3.357-7.5 7.5s3.358 7.5 7.5 7.5z"/><path d="m102.46 192.915h61.152c4.143 0 7.5-3.357 7.5-7.5s-3.357-7.5-7.5-7.5h-61.152c-4.143 0-7.5 3.357-7.5 7.5s3.358 7.5 7.5 7.5z"/><path d="m377.375 233.983h32.165c4.143 0 7.5-3.357 7.5-7.5s-3.357-7.5-7.5-7.5h-32.165c-4.143 0-7.5 3.357-7.5 7.5s3.357 7.5 7.5 7.5z"/><path d="m377.375 257.244h32.165c4.143 0 7.5-3.357 7.5-7.5s-3.357-7.5-7.5-7.5h-32.165c-4.143 0-7.5 3.357-7.5 7.5s3.357 7.5 7.5 7.5z"/><path d="m409.54 265.505h-92.165c-4.143 0-7.5 3.357-7.5 7.5s3.357 7.5 7.5 7.5h92.165c4.143 0 7.5-3.357 7.5-7.5s-3.358-7.5-7.5-7.5z"/><path d="m121.151 276.505h38.569c14.441 0 26.189-11.749 26.189-26.189 0-14.441-11.748-26.19-26.189-26.19h-38.569c-14.441 0-26.19 11.749-26.19 26.19-.001 14.44 11.748 26.189 26.19 26.189zm0-37.38h38.569c6.17 0 11.189 5.02 11.189 11.19s-5.02 11.189-11.189 11.189h-38.569c-6.171 0-11.19-5.02-11.19-11.189-.001-6.17 5.019-11.19 11.19-11.19z"/><path d="m463.583 0h-346.129c-4.143 0-7.5 3.357-7.5 7.5s3.357 7.5 7.5 7.5h343.766v18.294h-410.439v-18.294h36.687c4.143 0 7.5-3.357 7.5-7.5s-3.358-7.5-7.501-7.5h-39.05c-6.967 0-12.636 5.669-12.636 12.638v23.019c0 6.969 5.669 12.638 12.637 12.638h15.704v244.698c0 10.496 8.54 19.036 19.036 19.036h83.499v11.96c0 9.62 5.516 17.97 13.549 22.07l-45.78 69.672c-4.32 6.574-5.925 14.457-4.52 22.197l9.779 53.857c2.129 11.713 12.314 20.215 24.218 20.215 13.572 0 24.613-11.041 24.613-24.613v-51.631l39.975-47.53v82.465c0 15.169 12.341 27.51 27.509 27.51 15.169 0 27.51-12.341 27.51-27.51v-19.719c0-4.143-3.357-7.5-7.5-7.5s-7.5 3.357-7.5 7.5v19.719c0 6.897-5.612 12.51-12.51 12.51s-12.509-5.612-12.509-12.51v-121.934h25.019v72.229c0 4.143 3.357 7.5 7.5 7.5s7.5-3.357 7.5-7.5v-32.759l39.975 47.53v51.631c0 13.572 11.041 24.613 24.612 24.613 11.906 0 22.091-8.502 24.217-20.216l9.779-53.855c1.406-7.738-.198-15.621-4.519-22.197l-45.78-69.673c8.032-4.1 13.549-12.45 13.549-22.07v-11.96h83.499c10.496 0 19.036-8.54 19.036-19.036v-244.7h15.704c6.968 0 12.637-5.669 12.637-12.638v-23.018c0-6.969-5.669-12.638-12.636-12.638zm-235.092 364.921-53.215 63.273c-1.137 1.352-1.76 3.061-1.76 4.827v54.365c0 5.301-4.312 9.613-9.613 9.613-4.649 0-8.628-3.321-9.459-7.896l-9.779-53.856c-.714-3.934.103-7.939 2.297-11.28l49.418-75.211h32.111zm138.843 70.327-9.779 53.856c-.831 4.575-4.809 7.896-9.459 7.896-5.3 0-9.612-4.312-9.612-9.613v-54.365c0-1.767-.623-3.476-1.76-4.827l-53.215-63.273v-16.165h32.111l49.418 75.211c2.195 3.342 3.01 7.347 2.296 11.28zm-36.991-111.26c0 5.387-4.383 9.769-9.77 9.769h-128.31c-.01 0-.02 0-.03 0h-.808c-5.387 0-9.77-4.382-9.77-9.769v-11.96h148.687v11.96zm102.535-30.996c0 2.226-1.811 4.036-4.036 4.036h-345.684c-2.226 0-4.036-1.811-4.036-4.036v-244.698h353.757v244.698z"/></g></g></svg>