<svg id="Capa_1" enable-background="new 0 0 512 512" height="512" viewBox="0 0 512 512" width="512" xmlns="http://www.w3.org/2000/svg"><g><g clip-rule="evenodd" fill-rule="evenodd"><path d="m7.512 156.773h480.507c8.391 1.474 14.996 8.107 16.498 16.497v261.043c-1.502 8.391-8.107 14.995-16.498 16.497h-432.743c-26.391 0-47.765-21.401-47.765-47.792v-246.245z" fill="#ecf4ff"/><path d="m55.276 61.218c-26.391 0-47.765 21.373-47.765 47.764v294.037c0-26.39 21.374-47.764 47.765-47.764 8.73 0 16.781 2.013 23.698 6.265 2.353 1.445 5.102-.142 5.102-3.118 0-93.94 0-231.987 0-281.452 0-2.891-1.502-7.483-5.811-9.864-6.831-3.772-14.626-5.868-22.989-5.868z" fill="#cbe2ff"/><path d="m131.274 195.041h71.377c3.997 0 7.285 3.288 7.285 7.285v71.348c0 4.025-3.288 7.285-7.285 7.285h-71.377c-3.997 0-7.257-3.26-7.257-7.285v-71.348c0-3.997 3.26-7.285 7.257-7.285z" fill="#cbe2ff"/><path d="m464.463 116.011-33.478-10.176-30.614 10.176v238.904l32.23 8.391 31.862-8.391z" fill="#ff6978"/><path d="m436.456 410.049 11.99-23.584 16.017-31.55h-32.032-32.06l16.016 31.55 11.991 23.584c1.785 3.543 6.292 3.543 8.078 0z" fill="#ffcbbe"/><path d="m464.463 116.011v-35.206c0-10.771-8.816-19.587-19.588-19.587h-24.888c-10.801 0-19.616 8.815-19.616 19.587v35.206z" fill="#ff8793"/><path d="m127.986 418.014h48.87l8.022-26.531-8.022-20.637h-48.87c-6.236 1.105-11.169 6.038-12.274 12.303v22.592c1.105 6.236 6.037 11.167 12.274 12.273z" fill="#f2ce7e"/><path d="m176.856 418.014h61.172l8.363-30.16-8.363-46.403v-8.532c-1.105-6.265-6.038-11.196-12.302-12.303h-36.567c-6.265 1.107-11.197 6.038-12.302 12.303v85.095z" fill="#b3e59f"/><path d="m238.028 418.014h61.144l6.18-20.324-6.18-26.844v-17.121c-1.105-6.236-6.038-11.169-12.302-12.274h-48.842z" fill="#f2ce7e"/><path d="m299.172 418.014h48.871c6.236-1.105 11.168-6.037 12.274-12.273v-22.592c-1.105-6.265-6.038-11.197-12.274-12.303h-48.871z" fill="#b3e59f"/><path d="m463.754 426.547h-432.743c-6.917 0-13.465-1.475-19.389-4.11 7.427 16.724 24.18 28.374 43.654 28.374h432.742c8.391-1.502 14.996-8.106 16.498-16.497v-261.044c-1.502-8.39-8.107-15.023-16.498-16.497h-7.767v253.275c-1.501 8.392-8.106 14.996-16.497 16.499z" fill="#cbe2ff"/><path d="m59.811 156.773v198.652c6.974.595 13.437 2.579 19.163 6.094 2.353 1.445 5.102-.142 5.102-3.118v-201.628-79.824c0-2.891-1.502-7.483-5.811-9.864-6.831-3.771-14.626-5.867-22.989-5.867-4.167 0-8.25.538-12.104 1.53 3.798 1.021 7.427 2.466 10.829 4.337 4.309 2.381 5.811 6.974 5.811 9.864v79.824z" fill="#bed8fb"/><path d="m440.198 116.011v40.762 198.142h24.265v-198.142-40.762z" fill="#eb616f"/><path d="m440.198 80.805v27.836 7.37h24.265v-35.206c0-10.771-8.816-19.587-19.588-19.587h-24.294c10.801 0 19.617 8.815 19.617 19.587z" fill="#f77b87"/></g><path d="m456.979 108.527v-27.722c0-3.316-1.389-6.35-3.572-8.532-2.211-2.211-5.216-3.571-8.532-3.571h-24.888c-3.346 0-6.35 1.36-8.561 3.571-2.183 2.183-3.544 5.216-3.544 8.532v27.723h49.097zm-313.516 134.787c-2.919-2.947-2.919-7.682 0-10.602 2.92-2.947 7.682-2.947 10.602 0l6.832 6.832 18.964-18.992c2.92-2.92 7.682-2.92 10.602 0 2.948 2.948 2.948 7.682 0 10.63l-24.264 24.265c-2.921 2.92-7.683 2.92-10.603 0zm281.456-86.541c0-4.139 3.345-7.512 7.512-7.512 4.139 0 7.483 3.373 7.483 7.512v157.408c0 4.138-3.345 7.512-7.483 7.512-4.167 0-7.512-3.374-7.512-7.512zm-118.235 253.758h46.149v-32.174h-46.149zm53.632 14.995c-81.525 0-163.08 0-244.605 0-4.139 0-7.512-3.374-7.512-7.513v-47.168c0-4.139 3.373-7.483 7.512-7.483h53.661v-42.747c0-4.138 3.345-7.482 7.483-7.482h61.172c4.139 0 7.484 3.345 7.484 7.482v13.323h53.66c4.139 0 7.512 3.373 7.512 7.512v21.912h53.632c4.139 0 7.512 3.345 7.512 7.483v47.168c.001 4.139-3.372 7.513-7.511 7.513zm-114.804-14.995h46.149v-61.569h-46.149zm-61.144 0h46.148v-69.081-13.322h-46.148zm-61.173 0h46.178v-32.174h-46.178zm-31.635-261.269h301.299v-33.251-35.206c0-7.455 3.061-14.229 7.965-19.134 4.904-4.904 11.679-7.966 19.163-7.966h24.888c7.455 0 14.23 3.062 19.134 7.966s7.965 11.679 7.965 19.134v35.206 33.251h32.542c4.139 0 7.483 3.373 7.483 7.512v294.036c0 4.139-3.345 7.484-7.483 7.484h-207.64c-4.139 0-7.483-3.346-7.483-7.484s3.345-7.512 7.483-7.512h200.128v-279.041h-25.03v54.227c0 4.139-3.374 7.512-7.512 7.512-4.139 0-7.484-3.373-7.484-7.512v-61.71-33.25h-49.097v33.25 190.658h49.097v-94.961c0-4.139 3.345-7.512 7.484-7.512 4.138 0 7.512 3.373 7.512 7.512v102.444c0 1.814-.482 2.722-1.276 4.252l-31.578 62.192c-.708 1.389-1.842 2.579-3.345 3.345-3.685 1.871-8.164.368-10.034-3.316l-31.692-62.362c-.737-1.502-1.19-2.352-1.19-4.11v-190.659h-301.299v56.749c0 4.139-3.345 7.513-7.484 7.513s-7.512-3.374-7.512-7.513v-64.232-82.007c-6.435-4.024-13.691-6.065-21.288-6.065-11.112 0-21.175 4.507-28.489 11.792-7.285 7.313-11.793 17.376-11.793 28.488v256.195c.397-.426.794-.851 1.19-1.247 10.007-10.007 23.84-16.186 39.091-16.186 6.095 0 11.991 1.021 17.575 2.863 1.248.425 2.495.907 3.713 1.417v-97.029c0-4.139 3.373-7.512 7.512-7.512s7.484 3.373 7.484 7.512v109.899c0 1.559-.51 3.146-1.531 4.508-2.466 3.288-7.172 3.939-10.488 1.445-3.43-2.607-7.314-4.677-11.452-6.038-3.968-1.332-8.277-2.069-12.812-2.069-11.112 0-21.175 4.508-28.489 11.793-7.285 7.284-11.793 17.376-11.793 28.487 0 11.141 4.507 21.203 11.793 28.488 7.313 7.285 17.376 11.792 28.489 11.792h207.64c4.139 0 7.483 3.374 7.483 7.512 0 4.139-3.345 7.484-7.483 7.484h-207.64c-15.251 0-29.084-6.18-39.091-16.186-10.006-10.007-16.185-23.812-16.185-39.091v-294.038c0-15.251 6.179-29.084 16.185-39.09 10.007-10.007 23.84-16.187 39.091-16.187 11.82 0 23.442 3.855 32.938 10.886 2.013 1.36 3.345 3.656 3.345 6.265v78.407zm360.713 213.165h-39.713l19.871 39.09zm-100.234-167.726c4.139 0 7.483 3.373 7.483 7.512s-3.345 7.483-7.483 7.483h-101.51c-4.139 0-7.483-3.345-7.483-7.483 0-4.139 3.345-7.512 7.483-7.512zm-42.208 71.603c4.167 0 7.512 3.345 7.512 7.483s-3.345 7.512-7.512 7.512h-59.301c-4.139 0-7.483-3.373-7.483-7.512s3.345-7.483 7.483-7.483zm42.208-35.802c4.139 0 7.483 3.346 7.483 7.512 0 4.139-3.345 7.484-7.483 7.484h-101.51c-4.139 0-7.483-3.346-7.483-7.484 0-4.166 3.345-7.512 7.483-7.512zm-228.022-42.973h85.919c4.139 0 7.483 3.373 7.483 7.512v85.918c0 4.139-3.345 7.512-7.483 7.512h-85.919c-4.167 0-7.512-3.373-7.512-7.512v-85.918c0-4.139 3.345-7.512 7.512-7.512zm78.408 15.024h-70.924v70.923h70.924z"/></g></svg>