<svg height="512pt" viewBox="-23 0 512 512.00303" width="512pt" xmlns="http://www.w3.org/2000/svg"><path d="m152.03125 276.773438 160.78125 12.503906s111.742188 10.902344 125.371094-24.527344c13.625-35.433594-44.96875-25.890625-44.96875-55.871094 0-29.980468 64.910156-39.886718 64.910156-75.816406 0-35.925781-67.117188-17.476562-87.558594-37.917969-20.441406-20.441406-1.992187-87.558593-37.921875-87.558593-35.929687 0-45.835937 64.910156-75.8125 64.910156-29.980469 0-20.441406-58.597656-55.871093-44.96875-35.433594 13.628906-24.53125 125.371094-24.53125 125.371094l25.890624 175.789062" fill="#ff491f"/><path d="m208.972656 430.132812c13.535156-19.585937 12.8125-46.035156-2.136718-64.890624l-112.589844-14.390626 55.773437 94.382813zm0 0" fill="#3c3f4d"/><path d="m258.28125 274.878906c7.851562-21.347656 3.195312-46.253906-13.941406-63.394531-17.140625-17.140625-42.046875-21.792969-63.398438-13.945313l-.894531 67.511719zm0 0" fill="#2c92bf"/><path d="m244.78125 211.941406c16.777344 17.121094 21.28125 41.773438 13.5 62.941406l-68.695312-8.632812 48.125-11.941406c10.644531-18.097656 16.179687-32.640625 7.070312-42.367188zm0 0" fill="#1f81a3"/><path d="m189.585938 266.25-7.175782 1.160156.585938-1.988281zm0 0" fill="#2c92bf"/><path d="m141.480469 158.078125 156.273437 156.273437-111.246094 62.265626-107.296874-107.292969zm0 0" fill="#e6e6e6"/><path d="m237.847656 254.445312 59.90625 59.90625-111.246094 62.265626-42.570312-42.566407zm0 0" fill="#ccc"/><path d="m79.210938 269.324219-65.140626 65.144531c-8.648437 8.644531-8.648437 22.660156 0 31.304688l75.980469 75.984374c8.644531 8.644532 22.664063 8.644532 31.308594 0l65.144531-65.144531" fill="#2c92bf"/><path d="m119.929688 413.15625c-8.644532 8.644531-22.660157 8.644531-31.304688 0l-75.984375-75.984375c-.167969-.167969-.328125-.339844-.488281-.511719-6.664063 8.679688-6.03125 21.164063 1.917968 29.113282l75.984376 75.984374c8.644531 8.644532 22.660156 8.644532 31.304687 0l65.144531-65.144531-15.015625-15.015625zm0 0" fill="#1f81a3"/><path d="m249.523438 476.574219-24.0625 24.0625c-4.398438 4.394531-11.3125 5.03125-16.445313 1.5l-66.0625-45.511719-21.589844-14.867188 42.617188-42.617187 21.589843 14.867187 62.144532 42.808594c6.648437 4.578125 7.507812 14.058594 1.808594 19.757813zm0 0" fill="#e6e6e6"/><path d="m185.570312 414.007812-42.617187 42.617188-21.589844-14.867188 42.617188-42.617187zm0 0" fill="#ccc"/><path d="m266.933594 272.808594c6.738281-23.519532.230468-49.226563-17.230469-66.6875-17.460937-17.460938-43.167969-23.972656-66.6875-17.230469l-36.175781-36.175781c-1.679688-1.679688-4.046875-2.476563-6.402344-2.148438-2.355469.324219-4.417969 1.734375-5.578125 3.808594l-61.753906 110.328125-64.398438 64.402344c-5.613281 5.613281-8.707031 13.074219-8.707031 21.015625 0 7.9375 3.09375 15.402344 8.707031 21.015625l75.984375 75.984375c5.792969 5.792968 13.402344 8.691406 21.015625 8.691406 5.554688 0 11.105469-1.550781 15.953125-4.636719l16.988282 11.699219c3.445312 2.375 8.171874 1.507812 10.546874-1.941406 2.375-3.449219 1.507813-8.175782-1.945312-10.550782l-14.085938-9.703124 31.714844-31.710938 39.753906 27.382812c.011719.007813.019532.015626.027344.023438.007813.003906.015625.003906.023438.011719l38.730468 26.679687c1.789063 1.230469 2.199219 2.972656 2.285157 3.902344.082031.925781-.003907 2.714844-1.539063 4.25l-24.054687 24.054688c-1.820313 1.816406-4.671875 2.078124-6.785157.621093l-48.617187-33.488281c-3.453125-2.378906-8.175781-1.507812-10.550781 1.941406-2.375 3.449219-1.503906 8.171875 1.945312 10.546875l48.617188 33.492188c3.523437 2.425781 7.582031 3.617187 11.617187 3.617187 5.285157 0 10.535157-2.039062 14.496094-6.003906l24.058594-24.058594c4.316406-4.3125 6.472656-10.273437 5.917969-16.355468-.558594-6.078126-3.757813-11.546876-8.785157-15.011719l-32.882812-22.648438c9.796875-18.832031 9.226562-41.765625-1.40625-60.09375l83.722656-46.859375c2.070313-1.160156 3.480469-3.226562 3.808594-5.578125.324219-2.355469-.46875-4.722656-2.148438-6.402343zm-27.957032-55.960938c11.429688 11.429688 16.808594 27.410156 15.082032 43.085938l-58.167969-58.164063c15.675781-1.730469 31.65625 3.648438 43.085937 15.078125zm-143.5625 219.546875-75.984374-75.984375c-2.746094-2.746094-4.261719-6.402344-4.261719-10.289062 0-3.886719 1.515625-7.542969 4.265625-10.292969l59.777344-59.777344 96.566406 96.5625-59.78125 59.78125c-5.671875 5.671875-14.90625 5.671875-20.582032 0zm111.109376-17.164062-30.738282-21.171875 15.339844-15.339844 13.375-7.484375c7.855469 13.359375 8.597656 30.007813 2.023438 43.996094zm-18.714844-52.039063-99.175782-99.171875 54.566407-97.492187 142.097656 142.097656zm0 0"/><path d="m85.667969 318.679688c-2.960938-2.964844-7.761719-2.964844-10.726563 0l-34.320312 34.316406c-2.960938 2.964844-2.960938 7.765625 0 10.726562 1.484375 1.480469 3.425781 2.222656 5.363281 2.222656 1.941406 0 3.882813-.742187 5.363281-2.222656l34.320313-34.320312c2.960937-2.960938 2.960937-7.761719 0-10.722656zm0 0"/><path d="m105.515625 338.523438c-2.964844-2.960938-7.765625-2.960938-10.726563 0l-34.320312 34.320312c-2.960938 2.960938-2.960938 7.765625 0 10.726562 1.480469 1.480469 3.421875 2.21875 5.363281 2.21875 1.941407 0 3.882813-.738281 5.363281-2.21875l34.320313-34.320312c2.960937-2.960938 2.960937-7.765625 0-10.726562zm0 0"/><path d="m125.359375 358.371094c-2.960937-2.960938-7.761719-2.960938-10.722656 0l-34.320313 34.320312c-2.964844 2.960938-2.964844 7.761719 0 10.722656 1.480469 1.480469 3.421875 2.222657 5.363282 2.222657 1.941406 0 3.882812-.738281 5.363281-2.222657l34.320312-34.320312c2.960938-2.960938 2.960938-7.761719-.003906-10.722656zm0 0"/><path d="m176.421875 160.480469c.246094 0 .492187-.011719.746094-.035157 4.167969-.40625 7.21875-4.117187 6.808593-8.285156-.023437-.273437-2.648437-27.683594-.996093-56.402344 1.984375-34.566406 9.53125-56.855468 20.703125-61.152343 11.167968-4.296875 14.265625-.460938 21.699218 16.492187 5.664063 12.914063 12.707032 28.980469 31.449219 28.980469 18.398438 0 29.664063-17.113281 40.558594-33.664063l1.445313-2.195312c2.308593-3.496094 1.34375-8.199219-2.148438-10.507812-3.496094-2.304688-8.199219-1.34375-10.511719 2.148437l-1.457031 2.214844c-9.082031 13.800781-17.664062 26.839843-27.886719 26.839843-7.957031 0-11.625-6.375-17.554687-19.90625-6.027344-13.746093-15.136719-34.523437-41.039063-24.558593-17.976562 6.914062-27.921875 31.261719-30.402343 74.4375-1.71875 29.882812.933593 57.582031 1.046874 58.746093.378907 3.917969 3.679688 6.847657 7.539063 6.847657zm0 0"/><path d="m427.640625 180.988281c17.84375-11.746093 38.070313-25.058593 38.070313-47.925781 0-12.652344-6.402344-21.703125-19.027344-26.894531-9.609375-3.953125-21.878906-5.261719-33.738282-6.527344-14.949218-1.597656-30.402343-3.246094-37.015624-9.859375-6.613282-6.613281-8.265626-22.070312-9.859376-37.015625-1.265624-11.863281-2.574218-24.128906-6.527343-33.742187-5.195313-12.621094-14.242188-19.023438-26.898438-19.023438-11.90625 0-22.648437 5.644531-32.835937 17.257812-2.761719 3.148438-2.449219 7.941407.699218 10.703126 3.148438 2.761718 7.941407 2.449218 10.703126-.699219 7.335937-8.363281 13.949218-12.09375 21.433593-12.09375 12.761719 0 15.496094 12.554687 18.34375 39.207031 1.875 17.566406 3.8125 35.730469 14.214844 46.132812 10.398437 10.402344 28.566406 12.339844 46.128906 14.214844 26.652344 2.84375 39.210938 5.582032 39.210938 18.339844 0 14.691406-15.175781 24.679688-31.246094 35.253906-16.550781 10.894532-33.667969 22.164063-33.667969 40.5625 0 18.738282 16.066406 25.785156 28.980469 31.445313 16.953125 7.433593 20.789063 10.535156 16.492187 21.703125-3.304687 8.589844-17.40625 15.179687-39.710937 18.554687-4.140625.625-6.988281 4.492188-6.363281 8.632813.570312 3.757812 3.800781 6.453125 7.488281 6.453125.378906 0 .761719-.03125 1.144531-.085938 29.144532-4.410156 46.023438-13.605469 51.601563-28.109375 9.960937-25.902344-10.8125-35.011718-24.5625-41.039062-13.527344-5.933594-19.902344-9.597656-19.902344-17.554688 0-10.222656 13.039063-18.804687 26.84375-27.890625zm0 0"/><path d="m370.753906 282.683594c-28.960937 1.738281-56.925781-.925782-57.207031-.953125-4.164063-.40625-7.875 2.644531-8.28125 6.8125s2.640625 7.878906 6.808594 8.285156c.890625.085937 16.953125 1.621094 37.652343 1.621094 6.925782 0 14.371094-.171875 21.941407-.625 4.179687-.253907 7.363281-3.847657 7.113281-8.027344s-3.839844-7.363281-8.027344-7.113281zm0 0"/><path d="m297.429688 147.519531v-21.75c0-7.171875-2.257813-12.597656-6.710938-16.121093-3.921875-3.105469-9.4375-4.679688-16.390625-4.679688-7.007813 0-12.542969 1.574219-16.445313 4.679688-4.414062 3.511718-6.652343 8.933593-6.652343 16.121093v21.75c0 7.1875 2.238281 12.609375 6.652343 16.121094 3.902344 3.105469 9.4375 4.679687 16.445313 4.679687 6.953125 0 12.46875-1.574218 16.390625-4.675781 4.453125-3.527343 6.710938-8.953125 6.710938-16.125zm-23.101563 7.222657c-4.894531 0-7.378906-2.429688-7.378906-7.222657v-21.75c0-4.792969 2.484375-7.222656 7.378906-7.222656 4.929687 0 7.53125 2.496094 7.53125 7.222656v21.75c.003906 4.726563-2.601563 7.222657-7.53125 7.222657zm0 0"/><path d="m335.746094 98.6875c-2.992188 0-5.378906 1.421875-6.546875 3.898438l-53.757813 110.429687c-.496094.988281-.777344 2.070313-.777344 2.964844 0 3.980469 3.496094 8.242187 8.703126 8.242187 3.054687 0 5.933593-1.601562 7.003906-3.898437l53.910156-110.425781c.519531-1.035157.628906-2.183594.628906-2.96875 0-4.929688-4.738281-8.242188-9.164062-8.242188zm0 0"/><path d="m321.527344 175.085938v21.75c0 7.1875 2.242187 12.613281 6.65625 16.125 3.902344 3.105468 9.4375 4.679687 16.445312 4.679687 6.953125 0 12.46875-1.574219 16.390625-4.679687 4.453125-3.527344 6.710938-8.949219 6.710938-16.125v-21.746094c0-7.175782-2.257813-12.597656-6.710938-16.125-3.921875-3.105469-9.4375-4.679688-16.390625-4.679688-7.007812 0-12.542968 1.574219-16.445312 4.679688-4.414063 3.511718-6.65625 8.933594-6.65625 16.121094zm30.632812 21.75c0 4.726562-2.601562 7.226562-7.53125 7.226562-4.894531 0-7.378906-2.433594-7.378906-7.226562v-21.75c0-4.792969 2.484375-7.222657 7.378906-7.222657 4.929688 0 7.53125 2.496094 7.53125 7.222657zm0 0"/></svg>