<svg height="512pt" viewBox="0 0 512 512" width="512pt" xmlns="http://www.w3.org/2000/svg"><g fill-rule="evenodd"><path d="m190.003906 142.003906h311.996094v-17.777344c0-12.222656-10-22.222656-22.222656-22.222656h-367.554688c-12.21875 0-22.21875 10-22.21875 22.222656v37.777344h80c11 0 20-9 20-20zm0 0" fill="#ffba4a"/><path d="m198.085938 249.496094c0-8.25-6.75-15-15-15h-73.78125l9.746093-9.746094c5.835938-5.835938 5.835938-15.378906 0-21.214844-5.832031-5.832031-15.378906-5.832031-21.210937 0l-35.355469 35.355469c-9.765625 9.765625-2.238281 25.605469 10.605469 25.605469h110c8.246094 0 14.996094-6.75 14.996094-15zm0 0" fill="#fd4848"/><path d="m254.96875 294.996094h-109.996094c-8.25 0-15 6.75-15 15s6.75 15 15 15h73.78125l-9.746094 9.746094c-5.835937 5.835937-5.835937 15.378906 0 21.214843 5.832032 5.832031 15.378907 5.832031 21.210938 0l35.355469-35.355469c9.765625-9.765624 2.238281-25.605468-10.605469-25.605468zm0 0" fill="#fd4848"/><path d="m144.972656 294.996094h109.996094c12.84375 0 20.371094 15.839844 10.605469 25.605468l-35.355469 35.355469c-5.832031 5.835938-15.378906 5.832031-21.210938 0-5.835937-5.832031-5.835937-15.378906 0-21.210937l9.746094-9.75h-73.78125c-8.25 0-15-6.75-15-15s6.75-15 15-15zm165.027344 107.003906v-155.996094c0-8.800781 7.199219-16 16-16h79.996094c8.800781 0 16 7.199219 16 16v155.996094h57.78125c12.222656 0 22.222656-10 22.222656-22.222656v-237.773438h-311.996094c0 11-9 20-20 20h-80v49.367188l7.835938-7.835938c5.832031-5.832031 15.378906-5.832031 21.210937 0 5.832031 5.835938 5.835938 15.382813 0 21.214844l-9.75 9.75h73.785157c8.25 0 15 6.75 15 14.996094 0 8.25-6.75 15-15 15h-93.082032v115.285156c0 12.21875 10 22.21875 22.21875 22.21875zm0 0" fill="#f2f2f2"/><path d="m310 246.003906v239.996094c0 8.800781 7.199219 16 16 16h79.996094c8.800781 0 16-7.199219 16-16v-239.996094c0-8.800781-7.199219-16-16-16h-79.996094c-8.800781 0-16 7.199219-16 16zm55.996094 15.996094c13.257812 0 24 10.746094 24 24s-10.742188 24-24 24c-13.253906 0-24-10.746094-24-24s10.746094-24 24-24zm0 80c13.257812 0 24 10.746094 24 24s-10.742188 24-24 24c-13.253906 0-24-10.746094-24-24s10.746094-24 24-24zm0 80c13.257812 0 24 10.746094 24 24s-10.742188 24-24 24c-13.253906 0-24-10.746094-24-24s10.746094-24 24-24zm0 0" fill="#a3bfee"/><path d="m389.996094 286c0 13.253906-10.742188 24-24 24-13.253906 0-24-10.746094-24-24s10.746094-24 24-24c13.257812 0 24 10.746094 24 24zm0 0" fill="#fd4848"/><path d="m389.996094 366c0 13.253906-10.742188 24-24 24-13.253906 0-24-10.746094-24-24s10.746094-24 24-24c13.257812 0 24 10.746094 24 24zm0 0" fill="#ffba4a"/><path d="m389.996094 446c0 13.253906-10.742188 24-24 24-13.253906 0-24-10.746094-24-24s10.746094-24 24-24c13.257812 0 24 10.746094 24 24zm0 0" fill="#73ca5b"/><path d="m112.222656 102.003906h309.773438v-52.003906h-311.996094c0 11-9 20-20 20h-80v217.773438c0 12.21875 10 22.21875 22.222656 22.21875h57.777344v-45.496094h-16.910156c-12.847656 0-20.371094-15.84375-10.605469-25.605469l27.519531-27.519531v-87.148438c0-12.21875 10-22.21875 22.21875-22.21875zm0 0" fill="#f2f2f2"/><path d="m110 50h311.996094v-17.777344c0-12.222656-10-22.222656-22.21875-22.222656h-367.554688c-12.222656 0-22.222656 10-22.222656 22.222656v37.777344h80c11 0 20-9 20-20zm0 0" fill="#ffba4a"/></g><path d="m71.984375 20h.269531c5.523438 0 10-4.476562 10-10s-4.476562-10-10-10h-.269531c-5.519531 0-10 4.476562-10 10s4.480469 10 10 10zm0 0"/><path d="m479.777344 92.003906h-47.78125v-59.78125c0-17.769531-14.453125-32.222656-32.222656-32.222656h-287.550782c-5.523437 0-10 4.476562-10 10s4.476563 10 10 10h287.554688c6.738281 0 12.222656 5.484375 12.222656 12.222656v7.777344h-302c-5.519531 0-10 4.476562-10 10 0 5.511719-4.484375 10-10 10h-70v-27.777344c0-6.738281 5.484375-12.222656 12.222656-12.222656h11.03125c5.523438 0 10-4.476562 10-10s-4.476562-10-10-10h-11.03125c-17.769531 0-32.222656 14.453125-32.222656 32.222656v255.550782c0 17.765624 14.453125 32.222656 32.222656 32.222656h47.78125v59.78125c0 17.769531 14.453125 32.222656 32.21875 32.222656h187.777344v74c0 14.335938 11.660156 26 26 26h79.996094c14.339844 0 26-11.664062 26-26v-74h47.78125c17.769531 0 32.222656-14.453125 32.222656-32.222656v-255.550782c0-17.765624-14.453125-32.222656-32.222656-32.222656zm12.222656 32.222656v7.777344h-301.996094c-5.523437 0-10 4.476563-10 10 0 5.515625-4.488281 10-10 10h-70v-27.777344c0-6.738281 5.480469-12.222656 12.21875-12.222656h367.554688c6.738281 0 12.222656 5.484375 12.222656 12.222656zm-391.9375 114.097657c1.546875 3.738281 5.195312 6.171875 9.238281 6.171875h73.785157c2.710937 0 5 2.289062 5 5 0 2.710937-2.289063 5-5 5h-109.996094c-2.445313 0-4.011719-1.679688-4.664063-3.25-.554687-1.339844-.808593-3.347656 1.128907-5.285156l35.355468-35.355469c1.914063-1.914063 5.160156-1.910157 7.070313 0 1.910156 1.914062 1.914062 5.15625 0 7.070312l-9.75 9.75c-2.859375 2.859375-3.714844 7.164063-2.167969 10.898438zm-67.839844 61.671875c-6.738281 0-12.222656-5.484375-12.222656-12.222656v-207.773438h70c13.039062 0 24.160156-8.359375 28.285156-20h293.710938v32.003906h-299.773438c-17.765625 0-32.21875 14.457032-32.21875 32.222656v83.003907l-24.59375 24.589843c-7.273437 7.277344-9.367187 17.652344-5.460937 27.082032 3.925781 9.472656 13.007812 15.59375 23.140625 15.59375h6.914062v25.5zm379.773438 186.003906c0 3.253906-2.746094 6-6 6h-79.996094c-3.253906 0-6-2.746094-6-6v-240c0-3.25 2.746094-6 6-6h79.996094c3.253906 0 6 2.75 6 6zm67.78125-94h-47.78125v-146c0-14.335938-11.660156-26-26-26h-79.996094c-14.339844 0-26 11.664062-26 26v146h-187.777344c-6.738281 0-12.21875-5.484375-12.21875-12.222656v-105.28125h83.082032c13.785156 0 25-11.214844 25-25s-11.214844-25-25-25h-51.878907c1.453125-3.207032 2.21875-6.71875 2.21875-10.355469 0-6.6875-2.59375-12.964844-7.304687-17.675781-4.707032-4.710938-10.988282-7.304688-17.675782-7.304688-2.925781 0-5.773437.496094-8.441406 1.449219v-18.605469h70c13.039063 0 24.160156-8.359375 28.285156-20h293.710938v227.773438c0 6.738281-5.484375 12.222656-12.222656 12.222656zm0 0"/><path d="m365.996094 252c-18.746094 0-34 15.253906-34 34 0 18.75 15.253906 34 34 34 18.75 0 34-15.25 34-34 0-18.746094-15.25-34-34-34zm0 48c-7.71875 0-14-6.277344-14-14 0-7.71875 6.28125-14 14-14 7.722656 0 14 6.28125 14 14 0 7.722656-6.277344 14-14 14zm0 0"/><path d="m365.996094 332c-18.746094 0-34 15.253906-34 34 0 18.75 15.253906 34 34 34 18.75 0 34-15.25 34-34 0-18.746094-15.25-34-34-34zm0 48c-7.71875 0-14-6.28125-14-14s6.28125-14 14-14c7.722656 0 14 6.28125 14 14 0 7.722656-6.277344 14-14 14zm0 0"/><path d="m365.996094 412c-18.746094 0-34 15.253906-34 34 0 18.75 15.253906 34 34 34 18.75 0 34-15.25 34-34 0-18.746094-15.25-34-34-34zm0 48c-7.71875 0-14-6.28125-14-14s6.28125-14 14-14c7.722656 0 14 6.28125 14 14s-6.277344 14-14 14zm0 0"/><path d="m254.96875 284.996094h-109.996094c-13.785156 0-25 11.214844-25 25s11.214844 25 25 25h51.886719c-4.183594 9.214844-2.488281 20.464844 5.074219 28.03125 4.875 4.875 11.277344 7.3125 17.679687 7.3125 6.402344 0 12.804688-2.4375 17.679688-7.3125l35.355469-35.355469c7.273437-7.273437 9.367187-17.652344 5.460937-27.082031-3.925781-9.472656-13.007813-15.59375-23.140625-15.59375zm3.535156 28.535156-35.355468 35.351562c-1.914063 1.917969-5.152344 1.917969-7.070313 0-1.914063-1.914062-1.914063-5.152343 0-7.070312l9.75-9.746094c2.859375-2.863281 3.714844-7.164062 2.167969-10.898437-1.550782-3.738281-5.195313-6.175781-9.238282-6.175781h-73.785156c-2.710937 0-5-2.289063-5-5 0-2.707032 2.289063-5 5-5h109.996094c2.445312 0 4.011719 1.679687 4.664062 3.25.554688 1.34375.808594 3.351562-1.128906 5.289062zm0 0"/><path d="m270.03125 436h-.238281c-5.519531 0-10 4.476562-10 10s4.480469 10 10 10h.238281c5.519531 0 10-4.476562 10-10s-4.476562-10-10-10zm0 0"/><path d="m240.027344 436h-.234375c-5.523438 0-10 4.476562-10 10s4.476562 10 10 10h.234375c5.523437 0 10-4.476562 10-10s-4.476563-10-10-10zm0 0"/><path d="m210.027344 436h-.234375c-5.523438 0-10 4.476562-10 10s4.476562 10 10 10h.234375c5.523437 0 10-4.476562 10-10s-4.476563-10-10-10zm0 0"/><path d="m237.851562 259.496094h.238282c5.519531 0 10-4.476563 10-10 0-5.523438-4.480469-10-10-10h-.238282c-5.519531 0-10 4.476562-10 10 0 5.523437 4.476563 10 10 10zm0 0"/><path d="m462 172.007812h-.238281c-5.523438 0-10 4.476563-10 10 0 5.519532 4.476562 10 10 10h.238281c5.519531 0 10-4.480468 10-10 0-5.523437-4.480469-10-10-10zm0 0"/><path d="m431.996094 172.007812h-.234375c-5.523438 0-10 4.476563-10 10 0 5.519532 4.476562 10 10 10h.234375c5.523437 0 10-4.480468 10-10 0-5.523437-4.476563-10-10-10zm0 0"/><path d="m401.996094 172.007812h-.234375c-5.523438 0-10 4.476563-10 10 0 5.519532 4.476562 10 10 10h.234375c5.523437 0 10-4.480468 10-10 0-5.523437-4.476563-10-10-10zm0 0"/></svg>