<svg id="Capa_1" enable-background="new 0 0 512 512" height="512" viewBox="0 0 512 512" width="512" xmlns="http://www.w3.org/2000/svg"><g><path d="m493.342 449.454h-474.683c-6.163 0-11.159-4.996-11.159-11.159v-273.849c0-6.163 4.996-11.159 11.159-11.159h474.682c6.163 0 11.159 4.996 11.159 11.159v273.849c0 6.163-4.996 11.159-11.158 11.159z" fill="#61a2f9"/><path d="m493.341 153.288h-23.669c6.163 0 11.159 4.996 11.159 11.159v273.849c0 6.163-4.996 11.159-11.159 11.159h23.669c6.163 0 11.159-4.996 11.159-11.159v-273.85c0-6.162-4.996-11.158-11.159-11.158z" fill="#5490f9"/><path d="m473.302 183.288h-434.604c-.661 0-1.198.536-1.198 1.198v141.597l106.311 5.037 101.205 65.66 105.468-57.724 124.016 2.43v-157c0-.662-.536-1.198-1.198-1.198z" fill="#cbe2ff"/><path d="m473.302 183.288h-20.804c.662 0 1.198.536 1.198 1.198v156.592l20.804.408v-157c0-.662-.536-1.198-1.198-1.198z" fill="#bed8fb"/><path d="m38.698 419.454h434.604c.662 0 1.198-.536 1.198-1.198v-76.772l-113.031-56.316-105.469 57.725-101.205-65.66-117.295 48.85v92.174c0 .661.536 1.197 1.198 1.197z" fill="#95d6a4"/><path d="m453.696 331.12v87.137c0 .662-.536 1.198-1.198 1.198h20.804c.662 0 1.198-.536 1.198-1.198v-76.772z" fill="#78c2a4"/><circle cx="100.782" cy="231.539" fill="#ffd064" r="18.691"/><path d="m438.177 62.546h-123.478c-3.14 0-5.685 2.545-5.685 5.685v136.925c0 3.14 2.545 5.685 5.685 5.685h18.829c2.214 0 4.227 1.286 5.158 3.295l6.279 13.554c1.172 2.53 4.769 2.53 5.941 0l6.279-13.554c.931-2.009 2.944-3.295 5.158-3.295h75.834c3.14 0 5.685-2.545 5.685-5.685v-136.925c0-3.139-2.545-5.685-5.685-5.685z" fill="#ffd064"/><g><path d="m438.177 62.546h-20.564c3.14 0 5.685 2.545 5.685 5.685v136.925c0 3.14-2.545 5.685-5.685 5.685h20.564c3.14 0 5.685-2.545 5.685-5.685v-136.925c0-3.139-2.545-5.685-5.685-5.685z" fill="#ebb044"/></g><g><path d="m493.342 145.788h-41.979v-77.557c0-7.27-5.915-13.185-13.186-13.185h-46.745c-4.143 0-7.5 3.358-7.5 7.5s3.357 7.5 7.5 7.5h44.931v133.294h-74.019c-5.115 0-9.812 2.999-11.965 7.643l-2.443 5.275-2.445-5.278c-2.151-4.642-6.847-7.641-11.962-7.641h-17.014v-133.293h44.93c4.143 0 7.5-3.358 7.5-7.5s-3.357-7.5-7.5-7.5h-46.745c-7.27 0-13.185 5.915-13.185 13.185v77.556h-282.856c-10.289.001-18.659 8.371-18.659 18.659v273.849c0 10.288 8.37 18.658 18.659 18.658h310.016c4.143 0 7.5-3.357 7.5-7.5s-3.357-7.5-7.5-7.5h-310.016c-2.018 0-3.659-1.641-3.659-3.658v-273.849c0-2.018 1.642-3.659 3.659-3.659h282.855v15h-262.817c-4.796 0-8.697 3.902-8.697 8.698v50.751c0 4.142 3.357 7.5 7.5 7.5s7.5-3.358 7.5-7.5v-44.449h256.515v14.368c0 7.271 5.915 13.185 13.185 13.185h17.669l5.791 12.5c1.784 3.853 5.53 6.246 9.776 6.246s7.992-2.393 9.776-6.245l5.791-12.501h74.674c7.271 0 13.186-5.915 13.186-13.185v-14.368h15.637v138.581l-102.187-50.913c-2.199-1.096-4.793-1.046-6.945.134l-101.542 55.575-97.449-63.224c-2.075-1.345-4.681-1.582-6.966-.632l-106.911 44.526v-49.61c0-4.143-3.357-7.5-7.5-7.5s-7.5 3.357-7.5 7.5v153.032c0 4.796 3.901 8.698 8.697 8.698h434.604c4.796 0 8.698-3.902 8.698-8.698v-233.77c0-4.796-3.902-8.698-8.698-8.698h-21.939v-15h41.979c2.018 0 3.658 1.641 3.658 3.659v273.849c0 2.018-1.641 3.658-3.658 3.658h-134.68c-4.143 0-7.5 3.357-7.5 7.5s3.357 7.5 7.5 7.5h134.681c10.288 0 18.658-8.37 18.658-18.658v-273.85c0-10.288-8.37-18.658-18.658-18.658zm-448.342 266.167v-80.871l109.029-45.408 97.889 63.509c2.302 1.492 5.25 1.618 7.683.287l102.031-55.843 105.368 52.498v65.827h-422z"/><path d="m126.974 231.539c0-14.442-11.749-26.191-26.191-26.191-14.441 0-26.19 11.749-26.19 26.191s11.749 26.191 26.19 26.191c14.442 0 26.191-11.749 26.191-26.191zm-37.382 0c0-6.171 5.02-11.191 11.19-11.191s11.191 5.02 11.191 11.191-5.021 11.191-11.191 11.191-11.19-5.02-11.19-11.191z"/><path d="m390.284 171.534c.853.319 1.742.476 2.628.476 1.508 0 3.002-.455 4.275-1.337 2.021-1.401 3.226-3.704 3.226-6.163v-52.75c0-2.459-1.205-4.762-3.226-6.163s-4.598-1.723-6.903-.861l-26.612 9.959h-10.584c-12.925 0-23.44 10.515-23.44 23.44 0 10.81 7.358 19.929 17.327 22.626l4.392 18.38c.823 3.443 3.897 5.758 7.289 5.758.576 0 1.163-.067 1.749-.207 4.028-.962 6.515-5.009 5.552-9.038l-3.365-14.08h1.081zm-4.871-17.84-12.883-4.821v-21.478l12.883-4.821zm-32.325-23.999h4.442v16.88h-4.442c-4.654 0-8.44-3.786-8.44-8.44s3.786-8.44 8.44-8.44z"/><path d="m414.825 145.635h5.126c4.143 0 7.5-3.358 7.5-7.5s-3.357-7.5-7.5-7.5h-5.126c-4.143 0-7.5 3.358-7.5 7.5s3.358 7.5 7.5 7.5z"/><path d="m414.874 124.131c.562 0 1.134-.063 1.705-.196l5.015-1.166c4.035-.938 6.545-4.969 5.606-9.004-.938-4.035-4.972-6.545-9.003-5.606l-5.015 1.166c-4.035.938-6.545 4.969-5.606 9.004.805 3.463 3.889 5.802 7.298 5.802z"/><path d="m416.579 152.334c-4.035-.938-8.065 1.572-9.003 5.606-.938 4.035 1.571 8.066 5.606 9.004l5.015 1.166c.571.133 1.143.196 1.705.196 3.408 0 6.493-2.34 7.298-5.803.938-4.035-1.571-8.066-5.606-9.004z"/></g></g></svg>