<svg height="511pt" viewBox="1 -74 511.999 511" width="511pt" xmlns="http://www.w3.org/2000/svg"><path d="m483.375 31.441406v303.386719h-454.75v-303.386719c0-12.945312 10.496094-23.441406 23.449219-23.441406h407.851562c12.953125 0 23.449219 10.496094 23.449219 23.441406zm0 0" fill="#e5f4ff"/><path d="m459.925781 8h-58.660156c12.949219 0 23.445313 10.496094 23.445313 23.441406v303.386719h58.664062v-303.386719c0-12.945312-10.496094-23.441406-23.449219-23.441406zm0 0" fill="#c4daec"/><path d="m299.105469 312.457031c0 9.03125-7.320313 16.355469-16.351563 16.355469h-53.507812c-9.03125 0-16.351563-7.324219-16.351563-16.355469h-203.125c-1.253906 0-2.269531 1.015625-2.269531 2.269531v20.460938c0 11.984375 9.714844 21.695312 21.695312 21.695312h453.609376c11.980468 0 21.695312-9.710937 21.695312-21.695312v-20.460938c0-1.253906-1.015625-2.269531-2.269531-2.269531zm0 0" fill="#628db2"/><path d="m502.230469 312.457031h-58.09375c1.253906 0 2.269531 1.015625 2.269531 2.269531v20.460938c0 11.984375-9.714844 21.699219-21.695312 21.699219h58.09375c11.980468 0 21.695312-9.714844 21.695312-21.699219v-20.460938c0-1.253906-1.015625-2.269531-2.269531-2.269531zm0 0" fill="#41739f"/><path d="m483.375 31.441406v47.242188h-454.75v-47.242188c0-12.945312 10.496094-23.441406 23.449219-23.441406h407.851562c12.953125 0 23.449219 10.496094 23.449219 23.441406zm0 0" fill="#c4daec"/><path d="m459.925781 8h-58.660156c12.949219 0 23.445313 10.496094 23.445313 23.441406v47.242188h58.664062v-47.242188c0-12.945312-10.496094-23.441406-23.449219-23.441406zm0 0" fill="#a3c0d9"/><path d="m52.074219 8h87.125c-10.234375 0-18.535157 8.300781-18.535157 18.539062 0 5.113282-2.074218 9.753907-5.433593 13.101563-3.347657 3.359375-7.980469 5.4375-13.101563 5.4375h-73.503906v-13.636719c0-12.945312 10.496094-23.441406 23.449219-23.441406zm0 0" fill="#83a7c5"/><path d="m483.375 31.441406v13.636719h-238.433594c-10.234375 0-18.535156-8.304687-18.535156-18.539063 0-5.113281-2.074219-9.753906-5.433594-13.105468-3.347656-3.359375-7.980468-5.433594-13.101562-5.433594h252.054687c12.953125 0 23.449219 10.496094 23.449219 23.441406zm0 0" fill="#83a7c5"/><path d="m459.925781 8h-58.660156c12.949219 0 23.445313 10.496094 23.445313 23.441406v13.636719h58.664062v-13.636719c0-12.945312-10.496094-23.441406-23.449219-23.441406zm0 0" fill="#628db2"/><path d="m442.632812 276.011719h-164.558593c-2.082031 0-3.769531-1.6875-3.769531-3.769531v-155.804688c0-2.082031 1.6875-3.769531 3.769531-3.769531h164.558593c2.085938 0 3.773438 1.6875 3.773438 3.769531v155.800781c0 2.085938-1.6875 3.773438-3.773438 3.773438zm0 0" fill="#82aaff"/><path d="m502.230469 304.957031h-11.359375v-273.511719c0-17.0625-13.878906-30.945312-30.941406-30.945312h-407.859376c-17.0625 0-30.941406 13.882812-30.941406 30.945312l-.003906 244.230469c0 4.140625 3.359375 7.5 7.5 7.5s7.5-3.359375 7.5-7.5l.003906-189.496093h439.742188v218.777343h-55.523438c-4.144531 0-7.5 3.355469-7.5 7.5 0 4.140625 3.355469 7.5 7.5 7.5h76.652344v15.230469c0 7.828125-6.367188 14.195312-14.195312 14.195312h-453.609376c-7.828124 0-14.195312-6.367187-14.195312-14.195312v-15.230469h191.601562c3.152344 9.488281 12.113282 16.355469 22.644532 16.355469h53.507812c10.53125 0 19.496094-6.867188 22.644532-16.355469h77.917968c4.144532 0 7.5-3.359375 7.5-7.5 0-4.144531-3.355468-7.5-7.5-7.5h-84.210937c-4.140625 0-7.5 3.355469-7.5 7.5 0 4.882813-3.972657 8.855469-8.851563 8.855469h-53.507812c-4.882813 0-8.855469-3.972656-8.855469-8.855469 0-4.144531-3.355469-7.5-7.5-7.5h-203.121094c-5.386719 0-9.769531 4.378907-9.769531 9.765625v20.464844c0 16.097656 13.097656 29.195312 29.195312 29.195312h453.609376c16.097656 0 29.195312-13.097656 29.195312-29.195312v-20.464844c0-5.382812-4.382812-9.765625-9.769531-9.765625zm-26.359375-273.511719v6.132813h-230.929688c-6.085937 0-11.039062-4.953125-11.039062-11.039063 0-3.945312-.886719-7.6875-2.460938-11.039062h228.488282c8.789062 0 15.941406 7.152344 15.941406 15.945312zm-423.800782-15.945312h63.554688c-1.574219 3.351562-2.460938 7.09375-2.460938 11.039062 0 6.085938-4.953124 11.039063-11.039062 11.039063h-65.996094v-6.132813c0-8.792968 7.152344-15.945312 15.941406-15.945312zm-15.941406 55.679688v-18.601563h65.996094c14.359375 0 26.039062-11.679687 26.039062-26.039063 0-6.085937 4.949219-11.039062 11.035157-11.039062h68.664062c6.085938 0 11.039063 4.953125 11.039063 11.039062 0 14.359376 11.679687 26.039063 26.035156 26.039063h230.933594v18.601563zm0 0"/><path d="m442.632812 283.511719c6.214844 0 11.273438-5.054688 11.273438-11.269531v-155.804688c0-6.214844-5.058594-11.269531-11.273438-11.269531h-164.558593c-6.214844 0-11.269531 5.054687-11.269531 11.269531v155.800781c0 6.214844 5.054687 11.273438 11.269531 11.273438zm-160.828124-163.34375h157.101562v148.34375h-157.101562zm0 0"/><path d="m344.019531 188.804688c-.515625-1.605469-1.6875-2.84375-3.519531-3.710938s-3.9375-1.300781-6.3125-1.300781c-2.378906 0-4.484375.433593-6.3125 1.300781-1.832031.867188-3.003906 2.105469-3.519531 3.710938l-17.925781 58.800781c-.128907.515625-.195313.867187-.195313 1.058593 0 1.671876 1.042969 3.121094 3.132813 4.339844 2.085937 1.222656 4.257812 1.832032 6.507812 1.832032 2.761719 0 4.398438-.929688 4.914062-2.796876l3.277344-12.046874h20.335938l3.277344 12.046874c.515624 1.867188 2.152343 2.796876 4.917968 2.796876 2.25 0 4.417969-.609376 6.503906-1.832032 2.089844-1.21875 3.132813-2.667968 3.132813-4.339844 0-.191406-.0625-.542968-.191406-1.058593zm-16.871093 39.617187 7.039062-25.835937 7.035156 25.835937zm0 0"/><path d="m408.691406 189.863281c-4.304687-3.664062-10.058594-5.496093-17.253906-5.496093h-17.058594c-1.929687 0-3.503906.453124-4.726562 1.351562-1.21875.898438-1.832032 1.960938-1.832032 3.179688v61.40625c0 1.222656.613282 2.28125 1.832032 3.179687 1.222656.902344 2.796875 1.351563 4.726562 1.351563h17.058594c7.195312 0 12.949219-1.832032 17.253906-5.496094 4.304688-3.664063 6.457032-9.414063 6.457032-17.253906v-24.96875c0-7.839844-2.152344-13.589844-6.457032-17.253907zm-8.578125 42.222657c0 6.425781-2.890625 9.640624-8.675781 9.640624h-8.578125v-44.246093h8.578125c5.785156 0 8.675781 3.214843 8.675781 9.640625zm0 0"/><path d="m70.480469 127.773438h159.691406c4.140625 0 7.5-3.359376 7.5-7.5 0-4.144532-3.359375-7.5-7.5-7.5h-159.691406c-4.140625 0-7.5 3.355468-7.5 7.5 0 4.140624 3.359375 7.5 7.5 7.5zm0 0"/><path d="m70.480469 166.625h159.691406c4.140625 0 7.5-3.359375 7.5-7.5 0-4.144531-3.359375-7.5-7.5-7.5h-159.691406c-4.140625 0-7.5 3.355469-7.5 7.5 0 4.140625 3.359375 7.5 7.5 7.5zm0 0"/><path d="m70.480469 205.472656h159.691406c4.140625 0 7.5-3.355468 7.5-7.5 0-4.140625-3.359375-7.5-7.5-7.5h-159.691406c-4.140625 0-7.5 3.359375-7.5 7.5 0 4.144532 3.359375 7.5 7.5 7.5zm0 0"/><path d="m70.480469 244.324219h159.691406c4.140625 0 7.5-3.359375 7.5-7.5s-3.359375-7.5-7.5-7.5h-159.691406c-4.140625 0-7.5 3.359375-7.5 7.5s3.359375 7.5 7.5 7.5zm0 0"/><path d="m70.480469 283.175781h103.566406c4.144531 0 7.5-3.359375 7.5-7.5 0-4.144531-3.355469-7.5-7.5-7.5h-103.566406c-4.140625 0-7.5 3.355469-7.5 7.5 0 4.140625 3.359375 7.5 7.5 7.5zm0 0"/><path d="m423.085938 133.46875c-2.933594-2.929688-7.679688-2.929688-10.609376 0l-3.472656 3.472656-3.472656-3.472656c-2.929688-2.929688-7.675781-2.929688-10.605469 0-2.929687 2.929688-2.929687 7.679688 0 10.605469l3.472657 3.476562-3.472657 3.472657c-2.929687 2.929687-2.929687 7.679687 0 10.605468 1.464844 1.464844 3.382813 2.199219 5.304688 2.199219 1.917969 0 3.835937-.734375 5.300781-2.199219l3.472656-3.472656 3.472656 3.472656c1.464844 1.464844 3.382813 2.199219 5.304688 2.199219 1.917969 0 3.839844-.734375 5.304688-2.199219 2.925781-2.925781 2.925781-7.675781 0-10.605468l-3.476563-3.472657 3.476563-3.476562c2.929687-2.925781 2.925781-7.675781 0-10.605469zm0 0"/></svg>