<svg id="Layer_1" enable-background="new 0 0 128 128" height="512" viewBox="0 0 128 128" width="512" xmlns="http://www.w3.org/2000/svg"><g><path d="m104.323 45.568c0-21.131-17.191-38.322-38.323-38.322s-38.323 17.192-38.323 38.322c0 7.508 2.179 14.513 5.925 20.432-3.746 5.919-5.925 12.924-5.925 20.432 0 21.131 17.191 38.322 38.323 38.322s38.323-17.191 38.323-38.322c0-7.508-2.179-14.513-5.925-20.432 3.746-5.919 5.925-12.924 5.925-20.432z" fill="#e6e7e8"/><g><path d="m62 45.109c13.068 0 24.561 6.722 31.228 16.891 3.849-5.871 6.094-12.887 6.094-20.431 0-20.613-16.71-37.323-37.323-37.323s-37.323 16.71-37.323 37.323c0 7.544 2.246 14.561 6.094 20.431 6.669-10.169 18.161-16.891 31.23-16.891z" fill="#0089ef"/><path d="m62 7.246c20.11 0 36.496 15.906 37.285 35.823.02-.498.038-.997.038-1.5 0-20.613-16.71-37.323-37.323-37.323s-37.323 16.71-37.323 37.323c0 .503.018 1.002.038 1.5.789-19.917 17.175-35.823 37.285-35.823z" fill="#fff"/><path d="m62 78.891c-13.068 0-24.561-6.722-31.228-16.891-3.849 5.871-6.094 12.887-6.094 20.431 0 20.613 16.71 37.323 37.323 37.323s37.323-16.71 37.323-37.323c0-7.544-2.246-14.561-6.094-20.431-6.669 10.169-18.162 16.891-31.23 16.891z" fill="#d4fbff"/><ellipse cx="62" cy="62" fill="#6dc9f7" rx="31.228" ry="16.891"/><g><path d="m76.75 66.051s-6.604 7.906-14.75 7.906-14.75-7.906-14.75-7.906 6.604-7.906 14.75-7.906 14.75 7.906 14.75 7.906z" fill="#fff"/><g fill="#3a2c60"><path d="m100.322 41.568c0-21.131-17.191-38.322-38.322-38.322s-38.323 17.191-38.323 38.322c0 7.512 2.193 14.511 5.943 20.432-3.749 5.921-5.943 12.92-5.943 20.432 0 21.131 17.191 38.322 38.323 38.322 10.228 0 19.845-3.98 27.082-11.209.391-.39.391-1.023.001-1.414-.39-.39-1.024-.391-1.414-.001-6.859 6.851-15.975 10.624-25.669 10.624-20.028 0-36.323-16.294-36.323-36.322 0-6.796 1.902-13.146 5.164-18.591 7.204 10.073 18.728 16.051 31.159 16.051 12.43 0 23.954-5.978 31.158-16.051 3.263 5.445 5.164 11.794 5.164 18.591 0 3.588-.522 7.133-1.551 10.535-.16.528.139 1.086.667 1.246s1.087-.139 1.247-.668c1.086-3.59 1.637-7.328 1.637-11.113 0-7.512-2.193-14.511-5.943-20.432 3.75-5.92 5.943-12.92 5.943-20.432zm-38.322-36.322c20.028 0 36.322 16.294 36.322 36.322 0 6.796-1.902 13.146-5.164 18.591-7.204-10.073-18.728-16.051-31.158-16.051-12.431 0-23.955 5.978-31.158 16.051-3.263-5.445-5.164-11.795-5.164-18.591-.001-20.028 16.294-36.322 36.322-36.322zm0 72.646c-12.063 0-23.237-5.928-30.025-15.892 6.788-9.964 17.963-15.892 30.025-15.892s23.236 5.928 30.025 15.892c-6.789 9.964-17.963 15.892-30.025 15.892z"/><path d="m96.77 96.062c-.51-.214-1.096.022-1.311.53-1.304 3.077-3.03 5.963-5.131 8.576-.346.431-.278 1.061.153 1.406.185.148.406.221.626.221.292 0 .583-.128.78-.373 2.217-2.759 4.038-5.803 5.414-9.049.215-.509-.023-1.096-.531-1.311z"/><path d="m62 57.145c-8.516 0-15.235 7.928-15.518 8.266-.31.371-.31.91 0 1.281.282.338 7.002 8.266 15.518 8.266s15.235-7.928 15.517-8.266c.31-.371.31-.91 0-1.281-.282-.339-7.001-8.266-15.517-8.266zm0 15.812c-6.245 0-11.658-5.084-13.398-6.907 1.737-1.824 7.139-6.905 13.398-6.905 6.244 0 11.656 5.082 13.397 6.906-1.741 1.824-7.153 6.906-13.397 6.906z"/><path d="m62 55.632c.552 0 1-.447 1-1v-4.589c0-.553-.448-1-1-1s-1 .447-1 1v4.589c0 .553.448 1 1 1z"/><path d="m68.404 55.51c.152.083.316.122.478.122.354 0 .697-.188.879-.521l1.966-3.605c.265-.484.086-1.092-.399-1.356s-1.092-.085-1.357.399l-1.966 3.605c-.264.484-.086 1.091.399 1.356z"/><path d="m54.239 55.11c.182.333.525.521.879.521.162 0 .326-.039.478-.122.485-.265.664-.872.399-1.356l-1.967-3.605c-.264-.484-.87-.663-1.357-.399-.485.265-.664.872-.399 1.356z"/></g><circle cx="62" cy="66.051" fill="#0089ef" r="6.064"/><circle cx="59.948" cy="63.998" fill="#d4fbff" r="1.924"/></g></g></g></svg>