<svg height="512pt" viewBox="0 -20 512 512" width="512pt" xmlns="http://www.w3.org/2000/svg"><path d="m10 408v14c0 22.089844 17.910156 40 40 40h412c22.089844 0 40-17.910156 40-40v-14zm0 0" fill="#4dbaf6"/><path d="m71 104.011719h-4c-22.089844 0-40 17.910156-40 40v262.421875c0 .871094.707031 1.578125 1.578125 1.578125h454.84375c.871094 0 1.578125-.707031 1.578125-1.578125v-262.421875c0-22.089844-17.910156-40-40-40zm0 0" fill="#ade5ff"/><path d="m387.171875 330h-289.171875c-9.941406 0-18-8.058594-18-18v-284c0-9.941406 8.058594-18 18-18h316c9.941406 0 18 8.058594 18 18v302" fill="#fff"/><path d="m414 10h-316c-9.941406 0-18 8.058594-18 18v54h352v-54c0-9.941406-8.058594-18-18-18zm0 0" fill="#a0e557"/><path d="m502 398h-7v-253.988281c0-27.570313-22.429688-50-50-50h-3v-66.011719c0-15.4375-12.5625-28-28-28h-316c-15.4375 0-28 12.5625-28 28v66.011719h-3c-27.570312 0-50 22.429687-50 50v253.988281h-7c-5.523438 0-10 4.476562-10 10v14c0 27.570312 22.429688 50 50 50h412c27.570312 0 50-22.429688 50-50v-14c0-5.523438-4.476562-10-10-10zm-412-370c0-4.410156 3.589844-8 8-8h316c4.410156 0 8 3.589844 8 8v44h-332zm-53 116.011719c0-16.542969 13.457031-30 30-30h3v197.988281c0 15.4375 12.5625 28 28 28h316c15.4375 0 28-12.5625 28-28v-66c0-5.523438-4.476562-10-10-10s-10 4.476562-10 10v66c0 4.410156-3.589844 8-8 8h-316c-4.410156 0-8-3.589844-8-8v-220h20v58.34375c0 5.523438 4.476562 10 10 10s10-4.476562 10-10v-58.34375h292v74c0 5.523438 4.476562 10 10 10s10-4.476562 10-10v-51.988281h3c16.542969 0 30 13.457031 30 30v253.988281h-438zm455 277.988281c0 16.542969-13.457031 30-30 30h-412c-16.542969 0-30-13.457031-30-30v-4h6.769531c.078125.003906.152344.011719.230469.011719h458c.078125 0 .152344-.007813.230469-.011719h6.769531zm0 0"/><path d="m274 425h-36.082031c-5.523438 0-10 4.476562-10 10s4.476562 10 10 10h36.082031c5.523438 0 10-4.476562 10-10s-4.476562-10-10-10zm0 0"/><path d="m272.484375 56h108.699219c5.519531 0 10-4.476562 10-10s-4.480469-10-10-10h-108.699219c-5.523437 0-10 4.476562-10 10s4.476563 10 10 10zm0 0"/><path d="m168.328125 56c2.632813 0 5.210937-1.070312 7.070313-2.929688 1.871093-1.859374 2.929687-4.441406 2.929687-7.070312s-1.058594-5.210938-2.929687-7.070312c-1.859376-1.859376-4.4375-2.929688-7.070313-2.929688-2.628906 0-5.207031 1.070312-7.066406 2.929688-1.863281 1.859374-2.933594 4.441406-2.933594 7.070312s1.070313 5.210938 2.933594 7.070312c1.859375 1.859376 4.4375 2.929688 7.066406 2.929688zm0 0"/><path d="m130.730469 53.070312c1.867187-1.859374 2.9375-4.441406 2.9375-7.070312s-1.070313-5.210938-2.9375-7.070312c-1.859375-1.859376-4.429688-2.929688-7.070313-2.929688-2.632812 0-5.199218 1.070312-7.0625 2.929688-1.867187 1.859374-2.929687 4.441406-2.929687 7.070312s1.0625 5.210938 2.929687 7.070312c1.863282 1.859376 4.429688 2.929688 7.0625 2.929688 2.640625 0 5.210938-1.070312 7.070313-2.929688zm0 0"/><path d="m213 56c2.628906 0 5.210938-1.070312 7.070312-2.929688 1.859376-1.859374 2.929688-4.441406 2.929688-7.070312s-1.070312-5.210938-2.929688-7.070312c-1.859374-1.859376-4.441406-2.929688-7.070312-2.929688s-5.210938 1.070312-7.070312 2.929688c-1.859376 1.859374-2.929688 4.429687-2.929688 7.070312 0 2.628906 1.070312 5.210938 2.929688 7.070312 1.859374 1.859376 4.441406 2.929688 7.070312 2.929688zm0 0"/><path d="m432 196c-2.628906 0-5.210938 1.070312-7.070312 2.929688-1.859376 1.859374-2.929688 4.441406-2.929688 7.070312s1.070312 5.210938 2.929688 7.070312c1.859374 1.859376 4.441406 2.929688 7.070312 2.929688s5.210938-1.070312 7.070312-2.929688c1.859376-1.859374 2.929688-4.441406 2.929688-7.070312s-1.070312-5.210938-2.929688-7.070312c-1.859374-1.859376-4.441406-2.929688-7.070312-2.929688zm0 0"/><path d="m295.671875 156h-16.308594c-5.523437 0-10 4.476562-10 10v80c0 5.523438 4.476563 10 10 10h16.308594c26.207031 0 47.523437-21.320312 47.523437-47.523438v-4.953124c0-26.203126-21.316406-47.523438-47.523437-47.523438zm27.523437 52.476562c0 15.175782-12.347656 27.523438-27.523437 27.523438h-6.308594v-60h6.308594c15.179687 0 27.523437 12.347656 27.523437 27.523438zm0 0"/><path d="m215.199219 162.8125c-1.371094-4.070312-5.183594-6.8125-9.480469-6.8125-4.292969 0-8.105469 2.742188-9.476562 6.8125l-26.917969 80c-1.761719 5.234375 1.054687 10.902344 6.289062 12.664062 5.238281 1.765626 10.90625-1.054687 12.667969-6.289062l2.585938-7.6875h29.703124l2.589844 7.6875c1.402344 4.179688 5.300782 6.816406 9.476563 6.816406 1.054687 0 2.132812-.171875 3.1875-.527344 5.234375-1.761718 8.050781-7.429687 6.289062-12.664062zm-17.601563 58.6875 8.125-24.140625 8.121094 24.140625zm0 0"/><path d="m120 179.839844c-2.628906 0-5.210938 1.070312-7.070312 2.929687-1.859376 1.871094-2.929688 4.441407-2.929688 7.070313s1.070312 5.210937 2.929688 7.070312c1.859374 1.859375 4.441406 2.929688 7.070312 2.929688s5.210938-1.070313 7.070312-2.929688c1.859376-1.859375 2.929688-4.429687 2.929688-7.070312 0-2.628906-1.070312-5.210938-2.929688-7.070313-1.859374-1.859375-4.441406-2.929687-7.070312-2.929687zm0 0"/></svg>