<svg id="Capa_1" enable-background="new 0 0 512 512" height="512" viewBox="0 0 512 512" width="512" xmlns="http://www.w3.org/2000/svg"><g><g><g><g><path d="m333.761 29.322h-12.96c9.819 10.999 15.802 25.491 15.802 41.359v11.502c18.523 4.377 32.312 21.006 32.312 40.867v56.45c0 26.074-12.735 49.163-32.312 63.423v33.805h65.475v-179.089c0-37.574-30.742-68.317-68.317-68.317z" fill="#f46700"/><g fill="#fe7701"><path d="m223.739 275.729h32.261c6.144 0 11.125-4.981 11.125-11.125v-10.214c-31.905-9.942-55.067-39.711-55.067-74.889v-20.839c0-21.361 17.317-38.678 38.678-38.678h13.286c3.395 0 6.633-1.427 8.923-3.932l25.861-28.286c3.913-4.28 9.446-6.718 15.245-6.718h12.86c3.695 0 7.277.481 10.691 1.377v-11.743c0-34.75-28.432-63.182-63.182-63.182-52.539 0-95.525 42.986-95.525 95.525v181.334l8.019 13.89v-17.316c0-2.318 1.886-4.205 4.205-4.205h32.959z"/><path d="m313.849 254.373v10.231c0 6.144 4.981 11.125 11.125 11.125h12.63v-33.531c-7.082 5.33-15.099 9.476-23.755 12.175z"/></g><path d="m274.421 7.5c-52.539 0-95.525 42.986-95.525 95.525v181.334l8.019 13.89v-17.316c0-2.318 1.886-4.205 4.205-4.205h21.173v-173.703c0-46.226 33.279-85.051 77.061-93.715-4.794-1.173-9.791-1.81-14.933-1.81z" fill="#f46700"/></g><g><path d="m156.629 335.947c-.367.212-.747.375-1.135.499l-8.586 14.084v81.612c0 4.454-1.278 8.606-3.477 12.124.121-.194.244-.385.36-.583l43.123-70.741v-54.481z" fill="#ffe5c2"/></g><g><path d="m404.002 275.729h-8.944l-1 2.324v96.044l.096.203c4.295 9.059 6.112 19.191 5.256 29.301-.746 8.819-3.642 17.486-8.375 25.065l-.13.208-5.612 73.818.865 1.807h40.284c2.874 0 5.204-2.33 5.204-5.204v-195.921c.001-15.268-12.376-27.645-27.644-27.645z" fill="#fed2a4"/></g><path d="m395.059 373.872v-98.144h-37.824l-17.672 52.085c-2.297 6.771-8.652 11.325-15.802 11.325h-66.547c-7.15 0-13.505-4.555-15.802-11.325l-17.672-52.085h-32.62c-2.874 0-5.204 2.33-5.204 5.204v92.939c-4.23 8.922-6.256 19.092-5.349 29.813.787 9.302 3.819 17.977 8.523 25.51l5.36 70.495c.206 2.713 2.468 4.81 5.189 4.81h186.521l5.725-75.304c4.705-7.533 7.736-16.209 8.523-25.51.907-10.721-1.12-20.891-5.349-29.813z" fill="#fd4755"/><g><path d="m228.391 499.69-3.394-44.645c-15.044-3.554-27.907-13.039-35.907-25.849l5.36 70.495c.206 2.713 2.468 4.81 5.189 4.81h33.941c-2.721-.001-4.983-2.097-5.189-4.811z" fill="#fb2b3a"/></g><g><path d="m214.213 403.686c-.907-10.722 1.119-20.891 5.349-29.813v-92.939c0-2.874 2.33-5.204 5.204-5.204h-33.647c-2.874 0-5.204 2.33-5.204 5.204v92.939c-4.23 8.922-6.256 19.092-5.349 29.813 2.41 28.479 25.753 51.16 54.287 52.806 5.765 0 8.093-7.372 3.408-10.732-13.39-9.605-22.583-24.769-24.048-42.074z" fill="#fb2b3a"/></g><g><path d="m313.849 264.604v-11.284c-7.375 2.339-15.222 3.61-23.362 3.61s-15.987-1.27-23.362-3.61v11.285c0 6.144-4.981 11.125-11.125 11.125h-32.261l17.672 52.085c2.297 6.771 8.652 11.325 15.802 11.325h66.547c7.15 0 13.505-4.555 15.802-11.325l17.672-52.085h-32.261c-6.144-.001-11.124-4.982-11.124-11.126z" fill="#fed2a4"/></g><g><g><path d="m264.502 292.589h16.759c6.144 0 11.125-4.981 11.125-11.125v-24.573c-.632.015-1.263.037-1.899.037-8.14 0-15.987-1.27-23.362-3.61v11.285c0 6.144-4.981 11.125-11.125 11.125h-32.262l17.672 52.085c2.297 6.771 8.652 11.325 15.802 11.325h16.106l-13.553-39.944c-1.098-3.241 1.313-6.605 4.737-6.605z" fill="#ffbd86"/></g></g><g><path d="m372.963 138.896h-5.047v40.604c0 6.722-.864 13.245-2.482 19.468h7.529c16.589 0 30.037-13.448 30.037-30.037 0-16.587-13.448-30.035-30.037-30.035z" fill="#fed2a4"/></g><g><g><path d="m326.912 81.047h-12.86c-5.799 0-11.332 2.438-15.245 6.718l-25.861 28.286c-2.291 2.505-5.529 3.932-8.923 3.932h-13.286c-21.361 0-38.678 17.317-38.678 38.678v20.839c0 43.315 35.114 78.429 78.429 78.429 43.315 0 78.429-35.114 78.429-78.429v-56.45c-.001-23.197-18.807-42.003-42.005-42.003z" fill="#ffe5c2"/></g><g><g><path d="m241.119 175.489v-21.905c0-13.964 7.042-26.28 17.767-33.6h-8.15c-21.361 0-38.678 17.317-38.678 38.678v20.839c0 43.315 35.114 78.429 78.429 78.429 5.594 0 11.046-.596 16.308-1.709-37.491-7.746-65.676-40.946-65.676-80.732z" fill="#fed2a4"/></g></g></g></g><g><g><path d="m149.471 84.78c-15.4 3.849-20.582 9.031-24.431 24.431-.596 2.385-3.965 2.385-4.561 0-3.849-15.4-9.031-20.582-24.431-24.431-2.385-.596-2.385-3.965 0-4.561 15.4-3.849 20.582-9.031 24.431-24.431.596-2.385 3.965-2.385 4.561 0 3.849 15.4 9.031 20.582 24.431 24.431 2.384.597 2.384 3.965 0 4.561z" fill="#fed402"/></g></g><g><path d="m479.927 224.215c-13.116 3.278-17.529 7.691-20.808 20.808-.508 2.031-3.377 2.031-3.885 0-3.278-13.116-7.691-17.529-20.808-20.808-2.031-.508-2.031-3.377 0-3.884 13.116-3.278 17.529-7.691 20.808-20.808.508-2.031 3.377-2.031 3.885 0 3.278 13.116 7.691 17.529 20.808 20.808 2.031.508 2.031 3.377 0 3.884z" fill="#fed402"/></g></g><g><path d="m143.388 312.76-21.473 12.397c-1.419.819-3.036 1.252-4.674 1.252-3.372 0-6.505-1.799-8.178-4.696l-7.989-13.837v124.266c0 12.657 10.26 22.917 22.917 22.917 6.615 0 12.576-2.803 16.759-7.286 3.82-4.094 6.158-9.59 6.158-15.631v-122.997c-.816 1.496-2.015 2.747-3.52 3.615z" fill="#fed2a4"/></g><g><g><path d="m122.166 432.143v-107.13l-.251.145c-1.419.819-3.036 1.252-4.674 1.252-3.372 0-6.505-1.799-8.178-4.696l-7.989-13.837v124.266c0 12.657 10.26 22.917 22.917 22.917 3.804 0 7.39-.931 10.548-2.572-7.349-3.816-12.373-11.491-12.373-20.345z" fill="#ffbd86"/></g></g><path d="m192.783 308.413-18.364-31.807-2.478.276-27.937 16.129 3.693 6.396c2.862 4.958 1.148 11.356-3.81 14.218l-5.104 2.947 9.966 17.263c1.593 2.759 5.12 3.704 7.879 2.111l34.043-19.655c2.76-1.591 3.705-5.119 2.112-7.878z" fill="#26a6fe"/><path d="m192.783 308.413-6.093-10.554-21.618 12.481c-2.759 1.593-6.286.648-7.879-2.111l-9.886-17.124-3.302 1.906 3.693 6.396c2.862 4.958 1.148 11.356-3.81 14.218l-5.104 2.947 9.966 17.263c1.593 2.759 5.12 3.704 7.879 2.111l34.043-19.655c2.759-1.591 3.704-5.119 2.111-7.878z" fill="#0593fc"/><g><g><path d="m111.07 256.785c4.958-2.862 11.356-1.148 14.218 3.81l19.216 33.284 29.915-17.272-46.753-110.091c-1.354-3.188-5.193-4.473-8.193-2.74l-59.33 34.254c-3 1.732-3.807 5.699-1.723 8.466l42.359 56.232z" fill="#eaf6ff"/><g><path d="m111.07 256.785c2.406-1.389 5.15-1.692 7.666-1.077l-32.574-43.242c-2.084-2.767-1.277-6.734 1.723-8.466l44.733-25.826-4.951-11.658c-1.354-3.188-5.193-4.473-8.193-2.74l-59.33 34.254c-3 1.732-3.807 5.699-1.723 8.466l42.359 56.232z" fill="#d8ecfe"/></g><g><circle cx="112.828" cy="220.772" fill="#26a6fe" r="12.5"/></g></g></g><g><path d="m143.888 313.627-21.473 12.397c-4.958 2.862-11.356 1.148-14.218-3.81l-22.409-38.814c-2.862-4.958-1.148-11.356 3.81-14.218l21.473-12.397c4.958-2.862 11.356-1.148 14.218 3.81l22.409 38.814c2.862 4.957 1.147 11.355-3.81 14.218z" fill="#ffe5c2"/></g><g><path d="m144.601 294.046-16.581 9.573c-4.958 2.862-11.356 1.148-14.218-3.81l-19.313-33.452-4.891 2.824c-4.958 2.862-6.672 9.26-3.81 14.218l22.409 38.814c2.862 4.958 9.26 6.672 14.218 3.81l21.473-12.397c4.958-2.862 6.672-9.26 3.81-14.218z" fill="#fed2a4"/></g><g><path d="m296.894 195.796c2.153-3.539 1.03-8.153-2.509-10.306l-9.317-5.668 12.125-24.219c1.854-3.704.355-8.209-3.349-10.064-3.705-1.855-8.211-.354-10.064 3.349l-15.216 30.395c-1.747 3.49-.526 7.736 2.808 9.765l15.216 9.258c1.218.741 2.563 1.094 3.891 1.094 2.532-.002 5.003-1.283 6.415-3.604z"/><path d="m253.22 142.124c-4.142 0-7.5 3.358-7.5 7.5v18.912c0 4.142 3.358 7.5 7.5 7.5s7.5-3.358 7.5-7.5v-18.912c0-4.143-3.358-7.5-7.5-7.5z"/><path d="m327.755 142.124c-4.142 0-7.5 3.358-7.5 7.5v18.912c0 4.142 3.358 7.5 7.5 7.5s7.5-3.358 7.5-7.5v-18.912c0-4.143-3.358-7.5-7.5-7.5z"/><path d="m307.578 135.536c2.929 2.929 7.678 2.929 10.606 0 5.316-5.316 13.967-5.317 19.286 0 1.464 1.464 3.384 2.197 5.303 2.197s3.839-.732 5.303-2.197c2.929-2.929 2.929-7.678 0-10.606-5.412-5.412-12.604-8.393-20.249-8.393-7.646 0-14.837 2.98-20.25 8.393-2.929 2.928-2.929 7.677.001 10.606z"/><path d="m327.755 189.959c-4.142 0-7.5 3.358-7.5 7.5 0 13.04-10.609 23.649-23.649 23.649-4.142 0-7.5 3.358-7.5 7.5s3.358 7.5 7.5 7.5c21.311 0 38.649-17.338 38.649-38.649 0-4.142-3.358-7.5-7.5-7.5z"/><path d="m428.404 137h6.355v6.355c0 4.142 3.358 7.5 7.5 7.5s7.5-3.358 7.5-7.5v-6.355h6.354c4.142 0 7.5-3.358 7.5-7.5s-3.358-7.5-7.5-7.5h-6.354v-6.355c0-4.142-3.358-7.5-7.5-7.5s-7.5 3.358-7.5 7.5v6.355h-6.355c-4.142 0-7.5 3.358-7.5 7.5s3.358 7.5 7.5 7.5z"/><path d="m36.904 160c0 4.142 3.358 7.5 7.5 7.5s7.5-3.358 7.5-7.5v-6.355h6.355c4.142 0 7.5-3.358 7.5-7.5s-3.358-7.5-7.5-7.5h-6.355v-6.355c0-4.142-3.358-7.5-7.5-7.5s-7.5 3.358-7.5 7.5v6.355h-6.355c-4.142 0-7.5 3.358-7.5 7.5s3.358 7.5 7.5 7.5h6.355z"/><path d="m65.969 317.355h-6.355v-6.355c0-4.142-3.358-7.5-7.5-7.5s-7.5 3.358-7.5 7.5v6.355h-6.354c-4.142 0-7.5 3.358-7.5 7.5s3.358 7.5 7.5 7.5h6.354v6.355c0 4.142 3.358 7.5 7.5 7.5s7.5-3.358 7.5-7.5v-6.355h6.355c4.142 0 7.5-3.358 7.5-7.5s-3.358-7.5-7.5-7.5z"/><path d="m94.229 92.056c12.768 3.192 15.783 6.207 18.974 18.974 1.099 4.398 5.029 7.47 9.556 7.47s8.458-3.072 9.557-7.47c3.191-12.767 6.206-15.782 18.974-18.974 4.398-1.099 7.469-5.028 7.469-9.556s-3.072-8.458-7.469-9.556c-12.768-3.192-15.783-6.207-18.974-18.974-1.099-4.398-5.029-7.47-9.557-7.47-4.527 0-8.457 3.072-9.557 7.47-3.191 12.767-6.206 15.782-18.973 18.973-4.398 1.099-7.47 5.029-7.47 9.557s3.072 8.458 7.47 9.556zm28.53-20.927c2.774 4.983 6.387 8.596 11.371 11.371-4.983 2.774-8.596 6.388-11.371 11.371-2.774-4.983-6.387-8.596-11.371-11.371 4.983-2.774 8.596-6.388 11.371-11.371z"/><path d="m481.746 213.055c-10.444-2.61-12.74-4.906-15.351-15.35-1.061-4.243-4.852-7.205-9.219-7.205s-8.158 2.964-9.217 7.205c-2.611 10.444-4.907 12.74-15.352 15.351-4.242 1.061-7.204 4.852-7.204 9.219s2.963 8.158 7.204 9.217c10.444 2.611 12.74 4.907 15.351 15.35 1.06 4.242 4.85 7.205 9.217 7.205h.001c4.367 0 8.158-2.962 9.219-7.205 2.61-10.444 4.906-12.739 15.35-15.351 4.242-1.06 7.204-4.85 7.205-9.217s-2.961-8.158-7.204-9.219zm-24.569 16.803c-2.009-3.11-4.476-5.576-7.585-7.585 3.109-2.009 5.576-4.476 7.585-7.585 2.009 3.109 4.476 5.576 7.585 7.585-3.109 2.009-5.576 4.476-7.585 7.585z"/><path d="m102.827 203.451c-9.55 5.514-12.833 17.771-7.32 27.321 3.7 6.409 10.437 9.996 17.354 9.996 3.391 0 6.825-.862 9.966-2.676 4.627-2.671 7.937-6.984 9.319-12.144s.673-10.55-1.998-15.176c-5.513-9.551-17.771-12.834-27.321-7.321zm14.831 18.615c-.346 1.29-1.173 2.368-2.33 3.036s-2.505.844-3.794.5c-1.29-.346-2.368-1.173-3.036-2.329-1.378-2.388-.557-5.453 1.83-6.831.786-.453 1.644-.668 2.492-.668 1.73 0 3.414.897 4.339 2.499.667 1.156.844 2.503.499 3.793z"/><path d="m409.578 268.676v-91.506c.597-2.653.922-5.407.922-8.238 0-2.832-.324-5.589-.922-8.243v-63.05c0-41.805-34.011-75.816-75.817-75.816h-8.338c-12.874-13.434-30.971-21.823-51.002-21.823-56.808 0-103.025 46.217-103.025 103.025v147.273l-12.3-28.964c-1.619-3.812-6.023-5.59-9.835-3.972-3.813 1.619-5.591 6.022-3.972 9.835l19.633 46.232-17.673 10.203-15.466-26.789c-2.386-4.133-6.249-7.091-10.877-8.332-4.629-1.241-9.453-.61-13.586 1.777l-4.543 2.623-37.188-49.367 55.939-32.296 9.977 23.493c1.619 3.813 6.022 5.59 9.835 3.972 3.813-1.619 5.591-6.022 3.972-9.835l-10.742-25.294c-1.484-3.496-4.401-6.191-8.003-7.396-3.603-1.205-7.554-.807-10.843 1.092l-59.33 34.254c-3.29 1.899-5.61 5.123-6.367 8.845-.757 3.721.119 7.595 2.404 10.628l37.259 49.462-3.842 2.218c-4.133 2.386-7.092 6.249-8.332 10.877s-.609 9.454 1.777 13.586l14.282 24.737v120.256c0 16.772 13.645 30.417 30.417 30.417 8.401 0 16.508-3.524 22.242-9.669 1.54-1.65 2.871-3.45 3.993-5.36l23.46-38.481c1.289 8.075 4.07 15.665 8.058 22.478l5.225 68.732c.501 6.583 6.065 11.74 12.668 11.74h226.805c7.005 0 12.704-5.699 12.704-12.704v-36.296c0-4.142-3.358-7.5-7.5-7.5s-7.5 3.358-7.5 7.5v34h-29.896l4.978-65.471c4.759-8.131 7.819-17.363 8.652-27.21.933-11.021-.906-22.075-5.322-32.08v-89.01h1.444c11.108 0 20.145 9.037 20.145 20.145v124.626c0 4.142 3.358 7.5 7.5 7.5s7.5-3.358 7.5-7.5v-124.626c-.001-17.481-12.832-32.018-29.57-34.698zm-270.17 163.467c0 3.918-1.471 7.652-4.142 10.515-2.95 3.161-6.955 4.902-11.275 4.902-8.501 0-15.417-6.916-15.417-15.417v-99.472c1.253.687 2.588 1.245 4.005 1.625 1.55.416 3.122.621 4.683.621 3.1 0 6.155-.811 8.903-2.397l9.873-5.7 3.37 5.837zm.73-125.012-21.473 12.397c-.894.516-1.764.396-2.204.278-.439-.118-1.253-.449-1.77-1.343l-22.408-38.813c-.516-.895-.396-1.765-.278-2.204s.449-1.253 1.343-1.77l21.473-12.397c.507-.292 1.006-.381 1.423-.381.319 0 .59.052.78.103.439.118 1.253.449 1.77 1.343l22.409 38.814c.787 1.366.3 3.185-1.065 3.973zm254.44-209.492v40.636c-5.231-3.697-11.441-6.098-18.162-6.714v-8.51c0-20.874-12.994-38.759-31.313-46.025v-6.344c0-12.228-3.124-23.738-8.611-33.781 32.27 1.437 58.086 28.12 58.086 60.738zm-33.162 25.412v56.45c0 39.11-31.819 70.929-70.929 70.929s-70.929-31.818-70.929-70.929v-20.839c0-17.191 13.986-31.178 31.178-31.178h13.286c5.486 0 10.756-2.322 14.458-6.372l25.861-28.286c2.486-2.72 6.025-4.279 9.71-4.279h12.86c19.027 0 34.505 15.478 34.505 34.504zm-32.312 133.166v12.011h-4.13c-1.999 0-3.625-1.626-3.625-3.625v-4.929c2.652-1.024 5.236-2.184 7.755-3.457zm-150.689 116.022c-.113.257-.218.517-.327.775l-23.679 38.845v-59.222l6.347-10.412 17.66-10.196v40.21zm-24.036-43.653-5.39-9.335c3.424-2.404 5.88-5.901 6.98-10.006 1.23-4.591.614-9.374-1.725-13.484l16.93-9.774 14.248 24.678zm32.017-59.424v-166.137c0-48.538 39.488-88.025 88.025-88.025 15.231 0 29.049 6.152 39.112 16.095.286 1.172.838 2.284 1.674 3.221 8.961 10.039 13.896 22.953 13.896 36.365v2.928c-.727-.036-1.456-.062-2.191-.062h-12.86c-7.885 0-15.459 3.338-20.78 9.157l-25.861 28.286c-.868.949-2.103 1.493-3.388 1.493h-13.286c-25.462 0-46.178 20.715-46.178 46.178v20.839c0 36.505 22.893 67.746 55.067 80.174v4.93c0 1.999-1.626 3.625-3.625 3.625h-32.269-32.612c-1.673 0-3.262.341-4.724.933zm206.539 133.891c-2.096 24.763-22.407 44.518-47.246 45.951-4.135.239-7.294 3.785-7.055 7.92.23 3.988 3.536 7.068 7.48 7.068.146 0 .292-.004.439-.013 13.549-.782 26.05-5.776 36.205-13.677l-3.55 46.698h-177.442l-3.55-46.698c10.155 7.901 22.657 12.896 36.206 13.677 4.14.242 7.681-2.92 7.92-7.055.238-4.135-2.92-7.681-7.056-7.92-24.839-1.433-45.15-21.188-47.246-45.952-.759-8.966.85-17.946 4.653-25.968.476-1.004.723-2.101.723-3.212v-50.503l1.007-.582c3.069-1.772 5.265-4.633 6.182-8.057.917-3.423.446-6.999-1.326-10.067l-5.863-10.156v-11.278h24.949l15.945 46.995c3.332 9.818 12.536 16.415 22.904 16.415h27.786c4.142 0 7.5-3.358 7.5-7.5s-3.358-7.5-7.5-7.5h-27.787c-3.938 0-7.435-2.506-8.7-6.235l-14.31-42.176h21.797c10.27 0 18.625-8.355 18.625-18.625v-.667c5.145.965 10.442 1.492 15.862 1.492s10.717-.528 15.861-1.492v.667c0 10.27 8.355 18.625 18.625 18.625h21.796l-14.31 42.176c-1.265 3.729-4.761 6.235-8.699 6.235h-3.76c-4.142 0-7.5 3.358-7.5 7.5s3.358 7.5 7.5 7.5h3.761c10.369 0 19.573-6.597 22.904-16.416l15.945-46.995h24.948v90.643c0 1.111.247 2.208.723 3.213 3.803 8.023 5.412 17.002 4.654 25.969zm1.643-134.824h-49.475v-22.476c12.345-10.195 21.807-23.76 26.953-39.284h.907c8.044 0 15.498-2.552 21.615-6.876zm-18.991-76.938c.532-3.857.829-7.789.829-11.79v-32.816c10.79 1.669 19.084 10.997 19.084 22.248 0 11.535-8.722 21.05-19.913 22.358z"/></g></g></svg>