<svg fill="#3979F8" xmlns="http://www.w3.org/2000/svg" viewBox="0 0 64 64" width="512" height="512"><g id="Upgrade"><path d="M53,14H50.94A8.977,8.977,0,0,0,36.76,7.7a14.982,14.982,0,0,0-26.45,6.34A8.993,8.993,0,0,0,11,32H53a9,9,0,0,0,0-18Zm4.96,13.95A7.034,7.034,0,0,1,53,30H11a7,7,0,0,1,0-14h.12A7.042,7.042,0,0,1,18,23h2a9.049,9.049,0,0,0-7.67-8.89A13,13,0,0,1,38,17h2a14.907,14.907,0,0,0-2.11-7.65A6.994,6.994,0,1,1,42,22v2a9.016,9.016,0,0,0,8.94-8H53a7.007,7.007,0,0,1,4.96,11.95Z"/><path d="M11,28H32V26H11a3,3,0,0,1,0-6V18a5,5,0,0,0,0,10Z"/><path d="M32,41a4,4,0,1,0,4,4A4,4,0,0,0,32,41Zm0,6a2,2,0,1,1,2-2A2,2,0,0,1,32,47Z"/><path d="M61.781,44.375l-8-10A1,1,0,0,0,52,35v4H40.387l-2.764-2.518a1,1,0,0,0-1.188-.118l-1.142.685-.323-1.292A1,1,0,0,0,34,35H30a1,1,0,0,0-.97.757l-.323,1.292-1.142-.685a1,1,0,0,0-1.188.118L23.613,39H12V35a1,1,0,0,0-1.781-.625l-8,10a1,1,0,0,0,0,1.25l8,10A1,1,0,0,0,11,56a1.023,1.023,0,0,0,.331-.056A1,1,0,0,0,12,55V51H23.613l2.764,2.518a1,1,0,0,0,1.188.118l1.142-.685.323,1.292A1,1,0,0,0,30,55h4a1,1,0,0,0,.97-.757l.323-1.292,1.142.685a1,1,0,0,0,1.188-.118L40.387,51H52v4a1,1,0,0,0,.669.944A1.023,1.023,0,0,0,53,56a1,1,0,0,0,.781-.375l8-10A1,1,0,0,0,61.781,44.375ZM11,49a1,1,0,0,0-1,1v2.149L4.281,45,10,37.851V40a1,1,0,0,0,1,1H23.472l.495.728-1.21.3A1,1,0,0,0,22,43v4a1,1,0,0,0,.757.97l1.21.3L23.472,49Zm25.826,2.538-1.661-1a1,1,0,0,0-1.485.615L33.219,53H30.781l-.461-1.844a1,1,0,0,0-1.485-.615l-1.661,1-1.859-1.692,1.113-1.633a1,1,0,0,0-.584-1.533L24,46.219V43.781l1.844-.461a1,1,0,0,0,.584-1.533l-1.113-1.633,1.859-1.692,1.661,1a1,1,0,0,0,1.485-.615L30.781,37h2.438l.461,1.844a1,1,0,0,0,1.485.615l1.661-1,1.859,1.692-1.113,1.633a1,1,0,0,0,.584,1.533L40,43.781v2.438l-1.844.461a1,1,0,0,0-.584,1.533l1.113,1.633ZM54,52.149V50a1,1,0,0,0-1-1H40.528l-.495-.728,1.21-.3A1,1,0,0,0,42,47V43a1,1,0,0,0-.757-.97l-1.21-.3L40.528,41H53a1,1,0,0,0,1-1V37.851L59.719,45Z"/><path d="M41,59V55H39v4a3,3,0,0,0,3,3H52V60H42A1,1,0,0,1,41,59Z"/><rect x="54" y="60" width="2" height="2"/><path d="M23,59a1,1,0,0,1-1,1H12v2H22a3,3,0,0,0,3-3V55H23Z"/><rect x="8" y="60" width="2" height="2"/></g></svg>
