<?xml version="1.0" encoding="iso-8859-1"?>
<!-- Generator: Adobe Illustrator 19.0.0, SVG Export Plug-In . SVG Version: 6.00 Build 0)  -->
<svg version="1.1" id="Capa_1" xmlns="http://www.w3.org/2000/svg" xmlns:xlink="http://www.w3.org/1999/xlink" x="0px" y="0px"
	 viewBox="0 0 512.011 512.011" style="enable-background:new 0 0 512.011 512.011;" xml:space="preserve">
<g transform="translate(-1)">
	<path style="fill:#FDD7AD;" d="M488.641,1.427l-231.636,99.046L25.369,1.427C19.835-0.811,13.546-0.114,8.637,3.283
		S0.86,12.321,1.005,18.288v475.454c-0.145,5.968,2.723,11.608,7.632,15.005c4.909,3.397,11.198,4.095,16.732,1.856l231.636-99.046
		l231.636,99.046c5.534,2.239,11.823,1.541,16.732-1.856c4.909-3.397,7.778-9.037,7.632-15.005V18.288
		c0.145-5.968-2.723-11.608-7.632-15.005C500.464-0.114,494.175-0.811,488.641,1.427z"/>
	<path style="fill:#CBB292;" d="M513.005,18.268v475.454c0.145,5.968-2.723,11.608-7.632,15.005
		c-4.909,3.397-11.198,4.095-16.732,1.856l-231.636-99.046V100.453L488.641,1.408c5.534-2.239,11.823-1.541,16.732,1.856
		C510.282,6.66,513.151,12.3,513.005,18.268z"/>
	<path style="fill:#46B29D;" d="M221.695,211.857v35.31c-0.007,2.48-1.051,4.844-2.878,6.521c-1.827,1.677-4.272,2.513-6.744,2.307
		L44.349,240.017c-4.561-0.416-8.048-4.248-8.033-8.828v-63.47l35.31-35.31l33.898,45.197l1.412-1.059l44.138-17.655
		L221.695,211.857z"/>
	<path style="fill:#3B97D3;" d="M221.695,138.235v73.622l-70.621-52.966l-44.138,17.655l-1.412,1.059l-33.898-45.197l-35.31,35.31
		V66.379c-0.025-2.97,1.454-5.752,3.931-7.391c2.477-1.639,5.615-1.914,8.34-0.73l167.724,71.857
		C219.566,131.502,221.683,134.695,221.695,138.235z"/>
	<g>
		<path style="fill:#7F6E5D;" d="M221.695,300.133H36.316c-4.875,0-8.828-3.952-8.828-8.828s3.952-8.828,8.828-8.828h185.379
			c4.875,0,8.828,3.952,8.828,8.828S226.57,300.133,221.695,300.133z"/>
		<path style="fill:#7F6E5D;" d="M36.307,353.099c-4.709-0.007-8.584-3.71-8.805-8.414c-0.221-4.704,3.289-8.754,7.978-9.202
			l185.379-17.655c4.846-0.448,9.141,3.11,9.602,7.955c0.461,4.845-3.086,9.149-7.929,9.623L37.152,353.06
			C36.867,353.086,36.583,353.099,36.307,353.099z"/>
		<path style="fill:#7F6E5D;" d="M477.695,300.133H292.316c-4.875,0-8.828-3.952-8.828-8.828s3.952-8.828,8.828-8.828h185.379
			c4.875,0,8.828,3.952,8.828,8.828S482.57,300.133,477.695,300.133z"/>
		<path style="fill:#7F6E5D;" d="M292.307,264.823c-4.709-0.007-8.584-3.71-8.805-8.414c-0.221-4.704,3.289-8.754,7.978-9.202
			l185.379-17.655c4.846-0.448,9.141,3.11,9.602,7.955s-3.086,9.149-7.929,9.623l-185.379,17.655
			C292.867,264.81,292.583,264.823,292.307,264.823z"/>
		<path style="fill:#7F6E5D;" d="M292.307,229.512c-4.552-0.005-8.354-3.469-8.781-8.001s2.663-8.645,7.134-9.499l185.379-35.31
			c4.79-0.914,9.413,2.228,10.328,7.017c0.914,4.79-2.228,9.413-7.017,10.328l-185.379,35.31
			C293.422,229.459,292.865,229.511,292.307,229.512z"/>
		<path style="fill:#7F6E5D;" d="M477.704,353.099c-0.276,0-0.561-0.013-0.845-0.039L291.48,335.405
			c-4.844-0.474-8.39-4.778-7.929-9.623c0.461-4.845,4.756-8.403,9.602-7.955l185.379,17.655c4.688,0.449,8.199,4.498,7.978,9.202
			S482.413,353.091,477.704,353.099z"/>
	</g>
</g>
<g>
</g>
<g>
</g>
<g>
</g>
<g>
</g>
<g>
</g>
<g>
</g>
<g>
</g>
<g>
</g>
<g>
</g>
<g>
</g>
<g>
</g>
<g>
</g>
<g>
</g>
<g>
</g>
<g>
</g>
</svg>
