<?xml version="1.0" encoding="iso-8859-1"?>
<!-- Generator: Adobe Illustrator 19.0.0, SVG Export Plug-In . SVG Version: 6.00 Build 0)  -->
<svg version="1.1" id="Capa_1" xmlns="http://www.w3.org/2000/svg" xmlns:xlink="http://www.w3.org/1999/xlink" x="0px" y="0px"
	 viewBox="0 0 512 512" style="enable-background:new 0 0 512 512;" xml:space="preserve">
<polygon style="fill:#90D1F3;" points="44.138,476.69 0,476.69 0,0 317.793,0 317.793,308.966 176.552,308.966 176.552,476.69 
	79.448,476.69 79.448,256 61.793,220.69 44.138,256 "/>
<rect x="176.552" y="308.966" style="fill:#269BD8;" width="335.448" height="203.034"/>
<polygon style="fill:#591E00;" points="79.448,256 61.793,220.69 44.138,256 44.138,264.828 79.448,264.828 "/>
<rect x="44.138" y="264.828" style="fill:#FFFFFF;" width="35.31" height="194.207"/>
<path style="fill:#FCBF29;" d="M467.862,132.414v-22.396c21.804-19.5,23.667-52.983,4.167-74.787s-52.983-23.667-74.787-4.167
	c-21.804,19.5-23.667,52.983-4.167,74.787c1.306,1.465,2.701,2.86,4.167,4.167v22.396H467.862z"/>
<path style="opacity:0.5;fill:#F28D01;enable-background:new    ;" d="M454.621,101.517c-29.255-0.035-52.939-23.773-52.904-53.027
	c0.009-8.589,2.11-17.055,6.118-24.655C382.005,37.447,372.1,69.42,385.713,95.25c2.931,5.57,6.841,10.567,11.529,14.769v22.396
	h70.621v-22.396c4.617-4.167,8.466-9.101,11.388-14.592C471.658,99.434,463.201,101.526,454.621,101.517z"/>
<g>
	<rect x="44.138" y="423.724" style="fill:#0D529E;" width="35.31" height="35.31"/>
	<path style="fill:#0D529E;" d="M512,308.966L512,308.966c0,29.255-23.711,52.966-52.966,52.966H229.517
		c-29.255,0-52.966-23.711-52.966-52.966H512z"/>
</g>
<rect x="353.103" y="167.724" style="fill:#90D1F3;" width="158.897" height="105.931"/>
<g>
	<circle style="fill:#FCBF29;" cx="70.621" cy="70.621" r="35.31"/>
	<path style="fill:#FCBF29;" d="M44.138,494.345c0,9.754,7.901,17.655,17.655,17.655s17.655-7.901,17.655-17.655v-35.31h-35.31
		V494.345z"/>
</g>
<g>
	<rect x="423.724" y="97.103" style="fill:#FFFFFF;" width="17.655" height="35.31"/>
	<path style="fill:#FFFFFF;" d="M432.552,105.931c-2.339,0-4.59-0.927-6.241-2.586l-26.483-26.483L412.31,64.38l20.242,20.242
		l20.242-20.242l12.482,12.482l-26.483,26.483C437.142,105.004,434.891,105.931,432.552,105.931z"/>
</g>
<g>
	<rect x="370.759" y="123.586" style="fill:#591E00;" width="123.586" height="17.655"/>
	<rect x="61.793" y="61.793" style="fill:#591E00;" width="17.655" height="17.655"/>
	<rect x="379.586" y="194.207" style="fill:#591E00;" width="17.655" height="17.655"/>
	<rect x="423.724" y="229.517" style="fill:#591E00;" width="44.138" height="17.655"/>
	<rect x="141.241" y="44.138" style="fill:#591E00;" width="150.069" height="17.655"/>
	<rect x="141.241" y="79.448" style="fill:#591E00;" width="114.759" height="17.655"/>
	<rect x="203.034" y="432.552" style="fill:#591E00;" width="17.655" height="17.655"/>
	<rect x="247.172" y="432.552" style="fill:#591E00;" width="114.759" height="17.655"/>
	<rect x="247.172" y="467.862" style="fill:#591E00;" width="79.448" height="17.655"/>
	<rect x="423.724" y="194.207" style="fill:#591E00;" width="61.793" height="17.655"/>
</g>
<g>
</g>
<g>
</g>
<g>
</g>
<g>
</g>
<g>
</g>
<g>
</g>
<g>
</g>
<g>
</g>
<g>
</g>
<g>
</g>
<g>
</g>
<g>
</g>
<g>
</g>
<g>
</g>
<g>
</g>
</svg>
