<?xml version="1.0" encoding="iso-8859-1"?>
<!-- Generator: Adobe Illustrator 19.0.0, SVG Export Plug-In . SVG Version: 6.00 Build 0)  -->
<svg fill="#fff" version="1.1" id="Capa_1" xmlns="http://www.w3.org/2000/svg" xmlns:xlink="http://www.w3.org/1999/xlink" x="0px" y="0px"
	 viewBox="0 0 512.002 512.002" style="enable-background:new 0 0 512.002 512.002;" xml:space="preserve">
<g>
	<g>
		<path d="M445.81,66.194C403.125,23.508,346.372,0,286.006,0c-60.367,0-117.121,23.508-159.809,66.194
			c-5.872,5.872-11.367,12.019-16.503,18.396C81.638,68.937,49.346,60,15.001,60h-15v452.002h30V90.676
			c22.369,2.024,43.462,8.533,62.373,18.616C71.276,144.152,60.001,184.208,60.001,226c0,60.367,23.509,117.12,66.196,159.806
			C168.884,428.492,225.639,452,286.006,452c60.366,0,117.119-23.508,159.804-66.194c42.685-42.686,66.191-99.439,66.191-159.806
			S488.494,108.879,445.81,66.194z M210.001,271v-15.996c0-55.525-23.329-105.703-60.697-141.252
			C171.154,98.776,197.572,90,226.004,90c74.989,0,135.997,61.009,135.997,136c0,32.757-11.642,62.844-31.003,86.346V271H210.001z
			 M300.998,301v38.394c-9.27,6.151-19.332,11.195-30,14.946V301H300.998z M240.998,301v60.169
			c-4.926,0.543-9.927,0.831-14.994,0.831c-5.414,0-10.752-0.328-16.003-0.946V301h0H240.998z M90.045,229.505
			c-0.021-1.167-0.044-2.333-0.044-3.505s0.024-2.338,0.044-3.505c0.873-34.343,14.548-65.555,36.41-89.052
			C159.347,163.627,180,206.947,180,255.004v98.981C128.624,335.462,91.503,286.84,90.045,229.505z M286.006,422
			c-45.272,0-87.003-15.435-120.222-41.309c18.679,7.296,38.989,11.309,60.22,11.309c91.531,0,165.997-74.467,165.997-166
			S317.535,60,226.004,60c-21.231,0-41.542,4.012-60.22,11.309C199.003,45.435,240.734,30,286.006,30
			c108.072,0,195.995,87.925,195.995,196S394.078,422,286.006,422z"/>
	</g>
</g>
<g>
	<g>
		<path d="M285.998,166c-24.813,0-45,20.187-45,45s20.187,45,44.999,45c24.813,0,45.001-20.187,45.001-45S310.812,166,285.998,166z
			 M285.997,226c-8.271,0-14.999-6.729-14.999-15s6.729-15,15-15s15,6.729,15,15S294.269,226,285.997,226z"/>
	</g>
</g>
<g>
</g>
<g>
</g>
<g>
</g>
<g>
</g>
<g>
</g>
<g>
</g>
<g>
</g>
<g>
</g>
<g>
</g>
<g>
</g>
<g>
</g>
<g>
</g>
<g>
</g>
<g>
</g>
<g>
</g>
</svg>
