<svg id="Capa_1" enable-background="new 0 0 512 512" height="512" viewBox="0 0 512 512" width="512" xmlns="http://www.w3.org/2000/svg"><g><path d="m509.08 430.905v-322.514c0-4.552-3.69-8.241-8.241-8.241h-244.839v338.998h244.838c4.552-.001 8.242-3.691 8.242-8.243z" fill="#fe646f"/><path d="m503.759 100.149h-29.202c4.552 0 8.241 3.69 8.241 8.241v322.515c0 4.552-3.69 8.241-8.241 8.241h29.202c4.552 0 8.241-3.69 8.241-8.241v-322.514c0-4.552-3.69-8.242-8.241-8.242z" fill="#fd4755"/><path d="m256 439.147h-247.759c-4.552 0-8.241-3.69-8.241-8.241v-322.515c0-4.552 3.69-8.241 8.241-8.241h247.759z" fill="#fd4755"/><path d="m256 409.497h-219.081c-3.983 0-7.211-3.229-7.211-7.211v-322.222c0-3.983 3.229-7.211 7.211-7.211h195.387c13.086 0 23.694 10.608 23.694 23.694z" fill="#ffe177"/><g><path d="m143.929 210.501c-4.267 0-7.726-3.459-7.726-7.726v-32.796c0-4.268 3.459-7.726 7.726-7.726s7.726 3.459 7.726 7.726v32.796c0 4.268-3.459 7.726-7.726 7.726z" fill="#acacac"/></g><path d="m475.081 409.497h-219.081v-312.95c0-13.086 10.608-23.694 23.694-23.694h195.387c3.983 0 7.211 3.229 7.211 7.211v322.221c0 3.983-3.229 7.212-7.211 7.212z" fill="#fff3be"/><g><path d="m422.719 133.709h-107.146c-8.817 0-15.965-7.148-15.965-15.965 0-8.817 7.148-15.965 15.965-15.965h107.145c8.817 0 15.965 7.148 15.965 15.965 0 8.817-7.147 15.965-15.964 15.965z" fill="#acacac"/><g><path d="m342.6 176.915h-42.991c-4.268 0-7.726-3.459-7.726-7.726s3.459-7.726 7.726-7.726h42.991c4.268 0 7.726 3.459 7.726 7.726s-3.459 7.726-7.726 7.726z" fill="#acacac"/></g><g><path d="m391.018 212.118h-91.409c-4.268 0-7.726-3.459-7.726-7.726 0-4.268 3.459-7.726 7.726-7.726h91.409c4.268 0 7.726 3.459 7.726 7.726.001 4.268-3.458 7.726-7.726 7.726z" fill="#bfbfbf"/></g><g><path d="m438.683 212.118h-21.395c-4.268 0-7.726-3.459-7.726-7.726 0-4.268 3.459-7.726 7.726-7.726h21.395c4.268 0 7.726 3.459 7.726 7.726.001 4.268-3.458 7.726-7.726 7.726z" fill="#bfbfbf"/></g><g><path d="m391.018 241.905h-91.409c-4.268 0-7.726-3.459-7.726-7.726s3.459-7.726 7.726-7.726h91.409c4.268 0 7.726 3.459 7.726 7.726s-3.458 7.726-7.726 7.726z" fill="#bfbfbf"/></g><g><path d="m438.683 241.905h-21.395c-4.268 0-7.726-3.459-7.726-7.726s3.459-7.726 7.726-7.726h21.395c4.268 0 7.726 3.459 7.726 7.726s-3.458 7.726-7.726 7.726z" fill="#bfbfbf"/></g><g><path d="m391.018 271.692h-91.409c-4.268 0-7.726-3.459-7.726-7.726s3.459-7.726 7.726-7.726h91.409c4.268 0 7.726 3.459 7.726 7.726s-3.458 7.726-7.726 7.726z" fill="#bfbfbf"/></g><g><path d="m438.683 271.692h-21.395c-4.268 0-7.726-3.459-7.726-7.726s3.459-7.726 7.726-7.726h21.395c4.268 0 7.726 3.459 7.726 7.726s-3.458 7.726-7.726 7.726z" fill="#bfbfbf"/></g><g><path d="m342.6 315.446h-42.991c-4.268 0-7.726-3.459-7.726-7.726s3.459-7.726 7.726-7.726h42.991c4.268 0 7.726 3.459 7.726 7.726s-3.459 7.726-7.726 7.726z" fill="#acacac"/></g><g><path d="m391.018 351.16h-91.409c-4.268 0-7.726-3.459-7.726-7.726s3.459-7.726 7.726-7.726h91.409c4.268 0 7.726 3.459 7.726 7.726s-3.458 7.726-7.726 7.726z" fill="#bfbfbf"/></g><g><path d="m438.683 351.16h-21.395c-4.268 0-7.726-3.459-7.726-7.726s3.459-7.726 7.726-7.726h21.395c4.268 0 7.726 3.459 7.726 7.726s-3.458 7.726-7.726 7.726z" fill="#bfbfbf"/></g><g><path d="m391.018 381.378h-91.409c-4.268 0-7.726-3.459-7.726-7.726 0-4.268 3.459-7.726 7.726-7.726h91.409c4.268 0 7.726 3.459 7.726 7.726.001 4.267-3.458 7.726-7.726 7.726z" fill="#bfbfbf"/></g><g><path d="m438.683 381.378h-21.395c-4.268 0-7.726-3.459-7.726-7.726 0-4.268 3.459-7.726 7.726-7.726h21.395c4.268 0 7.726 3.459 7.726 7.726.001 4.267-3.458 7.726-7.726 7.726z" fill="#bfbfbf"/></g></g><path d="m207.543 245.442v-.258c0-35.133-28.481-63.614-63.614-63.614-35.133 0-63.614 28.481-63.614 63.614v.258z" fill="#9c9c9c"/><path d="m206.107 305.339h-126.713c-7.112 0-12.877-5.765-12.877-12.877 0-7.112 5.765-12.877 12.877-12.877h126.712c7.112 0 12.877 5.765 12.877 12.877.001 7.112-5.764 12.877-12.876 12.877z" fill="#f8f6f6"/><g><path d="m218.984 253.168h-152.467c-4.267 0-7.726-3.459-7.726-7.726 0-4.268 3.459-7.726 7.726-7.726h152.467c4.267 0 7.726 3.459 7.726 7.726.001 4.268-3.459 7.726-7.726 7.726z" fill="#acacac"/></g><path d="m475.081 72.853h-29.202c3.983 0 7.211 3.229 7.211 7.211v322.221c0 3.983-3.229 7.211-7.211 7.211h29.202c3.983 0 7.211-3.229 7.211-7.211v-322.221c0-3.982-3.229-7.211-7.211-7.211z" fill="#ffe177"/></g></svg>