<svg id="Capa_1" enable-background="new 0 0 512 512" height="512" viewBox="0 0 512 512" width="512" xmlns="http://www.w3.org/2000/svg"><g><path d="m171.569 111.34 63.827 144.66-63.828 144.66h-156.018c-8.588 0-15.55-6.962-15.55-15.55v-258.22c0-8.588 6.962-15.55 15.55-15.55z" fill="#9dc6fb"/><path d="m171.569 111.34h-23.504l57.842 131.095c3.813 8.642 3.813 18.489 0 27.13l-57.842 131.095h23.504l63.827-144.66z" fill="#80b4fb"/><path d="m171.569 111.34 61.963 140.435c1.188 2.692 1.188 5.759 0 8.45l-61.963 140.435h324.881c8.588 0 15.55-6.962 15.55-15.55v-258.22c0-8.588-6.962-15.55-15.55-15.55z" fill="#365e7d"/><path d="m496.45 111.34h-24.534c8.588 0 15.55 6.962 15.55 15.55v258.22c0 8.588-6.962 15.55-15.55 15.55h24.534c8.588 0 15.55-6.962 15.55-15.55v-258.22c0-8.588-6.962-15.55-15.55-15.55z" fill="#2b4d66"/><path d="m61.797 243.701-28.805-63.452c-1.041-2.294-.551-4.993 1.23-6.774l28.805-28.805c2.361-2.361 6.189-2.361 8.55 0l28.805 28.805c1.781 1.781 2.271 4.48 1.23 6.774l-28.805 63.452c-2.146 4.729-8.863 4.729-11.01 0z" fill="#e7a561"/><path d="m100.383 173.475-28.806-28.805c-2.361-2.361-6.189-2.361-8.55 0l-10.708 10.708 21.958 21.958c1.781 1.781 2.271 4.48 1.23 6.774l-20.382 44.897 6.671 14.695c2.147 4.729 8.864 4.729 11.011 0l28.805-63.452c1.042-2.295.552-4.994-1.229-6.775z" fill="#e49542"/><path d="m496.45 111.34h-48.766l-10.675 35.173c-2.087 6.875.03 14.336 5.416 19.091l69.575 61.423v-100.137c0-8.588-6.962-15.55-15.55-15.55z" fill="#e7a561"/><path d="m496.45 111.34h-24.534c8.588 0 15.55 6.962 15.55 15.55v78.478l24.534 21.659v-100.137c0-8.588-6.962-15.55-15.55-15.55z" fill="#e49542"/><path d="m159.009 307.938h-113.91c-3.68 0-6.663-2.983-6.663-6.663v-17.02c0-3.68 2.983-6.663 6.663-6.663h113.91c3.68 0 6.663 2.983 6.663 6.663v17.02c0 3.68-2.983 6.663-6.663 6.663z" fill="#365e7d"/><path d="m159.009 277.593h-21.525c3.68 0 6.662 2.983 6.662 6.663v17.02c0 3.68-2.983 6.663-6.662 6.663h21.525c3.68 0 6.662-2.983 6.662-6.663v-17.02c.001-3.68-2.982-6.663-6.662-6.663z" fill="#2b4d66"/><g><path d="m115.908 342.149h-70.757c-4.268 0-7.726-3.459-7.726-7.726 0-4.268 3.459-7.726 7.726-7.726h70.758c4.268 0 7.726 3.459 7.726 7.726-.001 4.267-3.459 7.726-7.727 7.726z" fill="#e7a561"/></g><g><path d="m85.003 368.634h-39.852c-4.268 0-7.726-3.459-7.726-7.726s3.459-7.726 7.726-7.726h39.852c4.268 0 7.726 3.459 7.726 7.726s-3.459 7.726-7.726 7.726z" fill="#e7a561"/></g><g><g><g><path d="m273.25 168.419h-13.13c-4.268 0-7.726-3.459-7.726-7.726s3.459-7.726 7.726-7.726h13.13c4.268 0 7.726 3.459 7.726 7.726.001 4.267-3.458 7.726-7.726 7.726z" fill="#f9f6f9"/></g><g><path d="m404.172 168.419h-101.621c-4.268 0-7.726-3.459-7.726-7.726s3.459-7.726 7.726-7.726h101.621c4.268 0 7.726 3.459 7.726 7.726s-3.459 7.726-7.726 7.726z" fill="#f9f6f9"/></g></g><g><g><path d="m273.25 206.542h-13.13c-4.268 0-7.726-3.459-7.726-7.726s3.459-7.726 7.726-7.726h13.13c4.268 0 7.726 3.459 7.726 7.726.001 4.267-3.458 7.726-7.726 7.726z" fill="#f9f6f9"/></g><g><path d="m404.172 206.542h-101.621c-4.268 0-7.726-3.459-7.726-7.726s3.459-7.726 7.726-7.726h101.621c4.268 0 7.726 3.459 7.726 7.726s-3.459 7.726-7.726 7.726z" fill="#f9f6f9"/></g></g><g><g><path d="m273.25 244.665h-13.13c-4.268 0-7.726-3.459-7.726-7.726s3.459-7.726 7.726-7.726h13.13c4.268 0 7.726 3.459 7.726 7.726.001 4.267-3.458 7.726-7.726 7.726z" fill="#f9f6f9"/></g><g><path d="m455.681 244.665h-153.13c-4.268 0-7.726-3.459-7.726-7.726s3.459-7.726 7.726-7.726h153.13c4.268 0 7.726 3.459 7.726 7.726s-3.459 7.726-7.726 7.726z" fill="#f9f6f9"/></g></g><g><g><path d="m455.681 282.788h-153.13c-4.268 0-7.726-3.459-7.726-7.726s3.459-7.726 7.726-7.726h153.13c4.268 0 7.726 3.459 7.726 7.726s-3.459 7.726-7.726 7.726z" fill="#f9f6f9"/></g></g><g><g><path d="m273.25 320.911h-13.13c-4.268 0-7.726-3.459-7.726-7.726s3.459-7.726 7.726-7.726h13.13c4.268 0 7.726 3.459 7.726 7.726s-3.458 7.726-7.726 7.726z" fill="#f9f6f9"/></g><g><path d="m373.266 320.911h-70.715c-4.268 0-7.726-3.459-7.726-7.726s3.459-7.726 7.726-7.726h70.715c4.268 0 7.726 3.459 7.726 7.726s-3.458 7.726-7.726 7.726z" fill="#f9f6f9"/></g></g><g><g><path d="m273.25 359.033h-13.13c-4.268 0-7.726-3.459-7.726-7.726s3.459-7.726 7.726-7.726h13.13c4.268 0 7.726 3.459 7.726 7.726s-3.458 7.726-7.726 7.726z" fill="#f9f6f9"/></g><g><path d="m373.266 359.033h-70.715c-4.268 0-7.726-3.459-7.726-7.726s3.459-7.726 7.726-7.726h70.715c4.268 0 7.726 3.459 7.726 7.726s-3.458 7.726-7.726 7.726z" fill="#f9f6f9"/></g></g></g></g></svg>