<svg id="flat" height="512" viewBox="0 0 512 512" width="512" xmlns="http://www.w3.org/2000/svg"><path d="m488 200v144a40.00182 40.00182 0 0 1 -40 40h-384a40.00182 40.00182 0 0 1 -40-40v-144a24.00619 24.00619 0 0 1 24-24h416a24.00619 24.00619 0 0 1 24 24z" fill="#548aff"/><path d="m488 296v48a40.00182 40.00182 0 0 1 -40 40h-384a40.00182 40.00182 0 0 1 -40-40v-48a24.00619 24.00619 0 0 0 24 24h416a24.00619 24.00619 0 0 0 24-24z" fill="#4976f2"/><path d="m384 352v49.37012a16.14406 16.14406 0 0 1 -4.68994 11.31982l-70.62012 70.62012a16.14406 16.14406 0 0 1 -11.31982 4.68994h-153.37012a15.99564 15.99564 0 0 1 -16-16v-120z" fill="#ffc431"/><path d="m72 344h368v16h-368z" fill="#4366d9"/><path d="m128 176h256v144h-256z" fill="#7dafff"/><path d="m232 208h48v48h-48z" fill="#3cde8d"/><g fill="#639aff"><path d="m304 200h16v16h-16z"/><path d="m304 224h16v16h-16z"/><path d="m304 248h16v16h-16z"/><path d="m328 200h16v16h-16z"/><path d="m328 224h16v16h-16z"/><path d="m328 248h16v16h-16z"/><path d="m192 200h16v16h-16z"/><path d="m192 224h16v16h-16z"/><path d="m192 248h16v16h-16z"/><path d="m168 200h16v16h-16z"/><path d="m168 224h16v16h-16z"/><path d="m168 248h16v16h-16z"/></g><path d="m104 24h304a24 24 0 0 1 24 24v128a0 0 0 0 1 0 0h-352a0 0 0 0 1 0 0v-128a24 24 0 0 1 24-24z" fill="#4976f2"/><path d="m382.55005 408a15.82658 15.82658 0 0 1 -3.24 4.68994l-70.62012 70.62012a15.82658 15.82658 0 0 1 -4.68994 3.24v-62.55006a15.99548 15.99548 0 0 1 16-16z" fill="#ffe28f"/><path d="m168 440h24v16h-24z" fill="#ffb401"/><path d="m208 440h56v16h-56z" fill="#ffb401"/><path d="m168 408h48v16h-48z" fill="#ffb401"/><path d="m232 408h32v16h-32z" fill="#ffb401"/><path d="m168 376h16v16h-16z" fill="#ffb401"/><path d="m264 376h40v16h-40z" fill="#ffb401"/><path d="m200 376h48v16h-48z" fill="#ffb401"/><path d="m144 72h224v104h-224z" fill="#ffc431"/><path d="m104 112h16v16h-16z" fill="#639aff"/><path d="m104 144h16v32h-16z" fill="#639aff"/><path d="m392 128h16v16h-16z" fill="#639aff"/><path d="m392 64h16v48h-16z" fill="#639aff"/></svg>