<?xml version="1.0"?>
<svg xmlns="http://www.w3.org/2000/svg" xmlns:xlink="http://www.w3.org/1999/xlink" xmlns:svgjs="http://svgjs.com/svgjs" version="1.1" width="512" height="512" x="0" y="0" viewBox="0 0 512 512" style="enable-background:new 0 0 512 512" xml:space="preserve"><g><g xmlns="http://www.w3.org/2000/svg"><path d="m241.5 115h-241v282h241v115h30v-512h-30zm0 72h-151l-40-42h191zm0 30v78h-142.429v-78zm-172.429-9v96l-38.571 40.5v-177zm-18.571 159 40-42h151v42z" fill="#ffffff" data-original="#000000" style=""/><path d="m301.5 187h30v30h-30z" fill="#ffffff" data-original="#000000" style=""/><path d="m301.5 307h30v30h-30z" fill="#ffffff" data-original="#000000" style=""/><path d="m301.5 367h30v30h-30z" fill="#ffffff" data-original="#000000" style=""/><path d="m361.5 367h30v30h-30z" fill="#ffffff" data-original="#000000" style=""/><path d="m421.5 367h30v30h-30z" fill="#ffffff" data-original="#000000" style=""/><path d="m481.5 367h30v30h-30z" fill="#ffffff" data-original="#000000" style=""/><path d="m361.5 187h30v30h-30z" fill="#ffffff" data-original="#000000" style=""/><path d="m361.5 307h30v30h-30z" fill="#ffffff" data-original="#000000" style=""/><path d="m391.5 247h30v30h-30z" fill="#ffffff" data-original="#000000" style=""/><path d="m301.5 127h30v30h-30z" fill="#ffffff" data-original="#000000" style=""/><path d="m361.5 127h30v30h-30z" fill="#ffffff" data-original="#000000" style=""/><path d="m421.5 127h30v30h-30z" fill="#ffffff" data-original="#000000" style=""/><path d="m481.5 127h30v30h-30z" fill="#ffffff" data-original="#000000" style=""/><path d="m481.5 187h30v30h-30z" fill="#ffffff" data-original="#000000" style=""/><path d="m481.5 247h30v30h-30z" fill="#ffffff" data-original="#000000" style=""/><path d="m481.5 307h30v30h-30z" fill="#ffffff" data-original="#000000" style=""/></g></g></svg>
