<?xml version="1.0"?>
<svg xmlns="http://www.w3.org/2000/svg" xmlns:xlink="http://www.w3.org/1999/xlink" xmlns:svgjs="http://svgjs.com/svgjs" version="1.1" width="512" height="512" x="0" y="0" viewBox="0 0 512 512" style="enable-background:new 0 0 512 512" xml:space="preserve" class=""><g><path xmlns="http://www.w3.org/2000/svg" d="m396 60h40c5.522 0 10-4.477 10-10v-40c0-5.523-4.478-10-10-10h-40c-5.522 0-10 4.477-10 10v10h-101.714c-9.454-26.508-47.129-26.491-56.572 0h-101.714v-10c0-5.523-4.477-10-10-10h-40c-5.523 0-10 4.477-10 10v40c0 5.523 4.477 10 10 10h40c5.523 0 10-4.477 10-10v-10h99.074l-154.929 111.893c-5.464 3.724-5.464 12.49 0 16.214l62.16 44.893-62.16 44.893c-5.464 3.724-5.464 12.49 0 16.214l62.16 44.893-62.16 44.893c-5.464 3.724-5.464 12.49 0 16.214l180 130c3.495 2.524 8.215 2.524 11.709 0l180-130c5.465-3.724 5.464-12.49 0-16.214l-62.159-44.893 62.159-44.893c5.465-3.724 5.464-12.49 0-16.214l-62.159-44.893 62.159-44.893c5.465-3.724 5.464-12.49 0-16.214l-154.928-111.893h99.074v10c0 5.523 4.478 10 10 10zm-290-20h-20v-20h20zm150-20c5.514 0 10 4.486 10 10-.549 13.266-19.453 13.262-20 0 0-5.514 4.486-10 10-10zm162.92 352-162.92 117.665-162.92-117.665 56.305-40.665 100.76 72.771c3.495 2.524 8.215 2.524 11.709 0l100.761-72.772zm0-106-162.92 117.665-162.92-117.665 56.305-40.665 100.76 72.771c3.495 2.524 8.215 2.524 11.709 0l100.761-72.772zm-162.92 11.665-162.92-117.665 145.854-105.339c9.643 7.049 24.49 7.049 34.132 0l145.854 105.339zm150-257.665h20v20h-20z" fill="#ffffff" data-original="#000000" style="" class=""/></g></svg>
