<?xml version="1.0" encoding="utf-8"?>
<!-- Generator: Adobe Illustrator 24.3.0, SVG Export Plug-In . SVG Version: 6.00 Build 0)  -->
<svg version="1.1" id="Layer_1" xmlns="http://www.w3.org/2000/svg" xmlns:xlink="http://www.w3.org/1999/xlink" x="0px" y="0px"
	 viewBox="0 0 512 512" style="enable-background:new 0 0 512 512;" xml:space="preserve">
<style type="text/css">
	.st0{fill:#1B5083;}
</style>
<path class="st0" d="M416.3,111.6L392,87.3l-24.3,24.3l-11.3-11.3L392,64.7l35.7,35.7L416.3,111.6z"/>
<path class="st0" d="M384,80h16v88h-16V80z"/>
<path class="st0" d="M432,272h-16v-34.4c60.4-12.3,101.6-68.3,95.4-129.6C505.2,46.6,453.6,0,392,0S278.8,46.6,272.6,107.9
	c-6.2,61.3,35,117.3,95.4,129.6V272h-16v224h-32V240h-80v256h-32V304h-80v192H96V384H16v112H0v16h512v-16h-80V272z M80,496H32v-96
	h48V496z M192,496h-48V320h48V496z M304,496h-48V256h48V496z M288,120c0-55.5,43.6-101.2,99-103.9c55.4-2.7,103.2,38.7,108.5,94
	c5.3,55.3-33.7,104.9-88.7,112.9l-6.9,1V272h-16v-48.1l-6.9-1C326.1,215.3,288.2,171.6,288,120z M416,496h-48V288h48V496z"/>
<path class="st0" d="M480,120c0-48.6-39.4-88-88-88s-88,39.4-88,88s39.4,88,88,88C440.6,207.9,479.9,168.6,480,120z M320,120
	c0-39.8,32.2-72,72-72s72,32.2,72,72c0,39.8-32.2,72-72,72C352.3,191.9,320,159.7,320,120z"/>
<path class="st0" d="M115.1,272h56.2l68.7-68.7V224h16v-48h-48v16h20.7l-64,64h-55.8L2.6,354.1l10.9,11.7L115.1,272z"/>
<path class="st0" d="M464,272h48v16h-48V272z"/>
<path class="st0" d="M464,304h48v16h-48V304z"/>
<path class="st0" d="M464,336h48v16h-48V336z"/>
<path class="st0" d="M464,368h48v16h-48V368z"/>
<path class="st0" d="M464,400h48v16h-48V400z"/>
<path class="st0" d="M464,432h48v16h-48V432z"/>
<path class="st0" d="M464,464h48v16h-48V464z"/>
</svg>
