<svg height="512pt" fill="#1B5083" viewBox="-24 0 511 512" width="512pt" xmlns="http://www.w3.org/2000/svg"><path d="m448.953125 481.230469h-12.941406v-331.105469c0-8.496094-6.890625-15.386719-15.386719-15.386719h-79.699219c-8.496093 0-15.386719 6.890625-15.386719 15.386719v331.105469h-37.886718v-215.875c0-8.496094-6.886719-15.386719-15.382813-15.386719h-79.703125c-8.496094 0-15.382812 6.890625-15.382812 15.386719v215.875h-37.890625v-244.136719c0-8.496094-6.890625-15.382812-15.386719-15.382812h-79.699219c-8.5 0-15.386719 6.886718-15.386719 15.382812v244.136719h-12.933593c-8.5 0-15.386719 6.886719-15.386719 15.382812 0 8.5 6.886719 15.386719 15.386719 15.386719h433.066406c8.496094 0 15.386719-6.886719 15.386719-15.386719 0-8.496093-6.890625-15.382812-15.386719-15.382812zm-92.644531-315.722657h48.933594v315.722657h-48.933594zm-148.355469 115.230469h48.929687v200.492188h-48.929687zm-148.363281-28.257812h48.929687v228.75h-48.929687zm0 0"/><path d="m107.863281 176.265625c.453125 0 .914063-.019531 1.371094-.058594 1.390625-.125 34.578125-3.195312 81.691406-19.886719 43.257813-15.328124 107.144531-45.632812 165.863281-102.972656.292969-.285156.558594-.585937.824219-.890625v23.675781c0 8.5 6.886719 15.386719 15.382813 15.386719s15.386718-6.886719 15.386718-15.386719v-60.746093c0-8.5-6.890624-15.386719-15.386718-15.386719h-60.75c-8.496094 0-15.382813 6.886719-15.382813 15.386719 0 8.496093 6.886719 15.382812 15.382813 15.382812h23.6875c-.214844.1875-.4375.363281-.644532.566407-15.832031 15.460937-32.074218 28.800781-48.128906 40.316406-39.089844 28.023437-77.097656 45.160156-105.5 55.304687-5.90625 2.109375-11.574218 3.980469-16.976562 5.652344-34.550782 10.691406-57.90625 12.921875-58.171875 12.949219-8.453125.753906-14.699219 8.21875-13.953125 16.675781.707031 8.003906 7.421875 14.03125 15.304687 14.03125zm0 0"/></svg>