<?xml version="1.0"?>
<svg xmlns="http://www.w3.org/2000/svg" xmlns:xlink="http://www.w3.org/1999/xlink" xmlns:svgjs="http://svgjs.com/svgjs" version="1.1" width="512" height="512" x="0" y="0" viewBox="0 0 64 64" style="enable-background:new 0 0 512 512" xml:space="preserve" class=""><g><g xmlns="http://www.w3.org/2000/svg"><path d="m61 19c.29 0 .554.026.785.077l1.215.267v-9.344c0-1.654-1.346-3-3-3h-7c0-3.309-2.691-6-6-6s-6 2.691-6 6h-9-1-8c0-3.309-2.691-6-6-6s-6 2.691-6 6h-7c-1.654 0-3 1.346-3 3v9.344l1.215-.267c.231-.051.495-.077.785-.077 2.206 0 4 1.794 4 4s-1.794 4-4 4c-.288 0-.552-.026-.787-.077l-1.213-.265v16.271c0 4.19 1.464 8.219 4.11 11.445-.066.198-.11.406-.11.626v8h20v-8c0-.612-.282-1.153-.716-1.521 1.795-4.5 2.716-9.234 2.716-14.095v-.384h10v.384c0 4.861.921 9.595 2.716 14.095-.434.368-.716.909-.716 1.521v8h20v-8c0-.22-.044-.428-.11-.626 2.646-3.227 4.11-7.256 4.11-11.445v-16.271l-1.213.265c-.235.051-.499.077-.787.077-2.206 0-4-1.794-4-4s1.794-4 4-4zm-38 42h-16v-6l16-.001zm2-21.616c0 4.699-.907 9.274-2.677 13.616h-15.323c-.137 0-.27.014-.399.04-2.318-2.858-3.601-6.414-3.601-10.111v-7.929c1.103 0 2 .896 2 1.996v5.01c0 1.651 1.35 2.994 3.055 2.994.785 0 1.524-.306 2.081-.86.558-.556.865-1.295.865-2.081l-.001-12.059c0-.551.449-1 1-1s1 .449 1 1v11h2v-13c0-.551.449-1 1-1s1 .449 1 1v13h2v-11c0-.551.449-1 1-1s1 .449 1 1v11h2v-7c0-.551.449-1 1-1s1 .449 1 1zm-16 2.676c0 .25-.098.486-.276.664-.179.178-.417.276-.714.276-.567 0-1.01-.437-1.01-.994v-3.006h2zm15-11.06c-.352 0-.686.072-1 .184v-1.184c0-1.654-1.346-3-3-3-.395 0-.77.081-1.116.22-.345-1.275-1.501-2.22-2.884-2.22s-2.538.945-2.884 2.22c-.346-.139-.721-.22-1.116-.22-1.654 0-3 1.346-3 3v7h-2v-.004c0-2.204-1.794-3.996-4-3.996v-4c3.309 0 6-2.691 6-6s-2.691-6-6-6v-7c0-.551.449-1 1-1h9.342l-.265-1.213c-.051-.235-.077-.499-.077-.787 0-2.206 1.794-4 4-4s4 1.794 4 4c0 .288-.026.552-.077.787l-.265 1.213h10.342v8c-3.309 0-6 2.691-6 6s2.691 6 6 6v8h-4v-3c0-1.654-1.346-3-3-3zm33 30h-16v-6h16zm4-18.071c0 3.697-1.283 7.253-3.601 10.112-.129-.027-.262-.041-.399-.041h-15.323c-1.77-4.341-2.677-8.916-2.677-13.616v-.384h2v4h13.008c.111.198.231.39.359.578-.863.92-1.367 2.145-1.367 3.422h2c0-.939.449-1.837 1.2-2.4l1.2-.899c1.002-.751 1.6-1.951 1.6-3.208v-3.489c0-1.104.897-2.003 2-2.005zm-4.8-.829-.273.205c-.596-.932-.927-2.013-.927-3.134v-.171h2v1.492c0 .631-.299 1.232-.8 1.608zm-2.976-1.1h-2.224v-2h2v.171c0 .622.081 1.234.224 1.829zm-4.224 0h-2v-2h2zm-4 0h-2v-2h2zm16-12v4c-2.204 0-3.998 1.794-4 4h-24v-10.342l-1.213.265c-.235.051-.499.077-.787.077-2.206 0-4-1.794-4-4s1.794-4 4-4c.29 0 .554.026.785.077l1.215.267v-10.344h10.342l-.265-1.213c-.051-.235-.077-.499-.077-.787 0-2.206 1.794-4 4-4s4 1.794 4 4c0 .288-.026.552-.077.787l-.265 1.213h9.342c.551 0 1 .449 1 1v7c-3.309 0-6 2.691-6 6s2.691 6 6 6z" fill="#3979f8" data-original="#000000" style=""/><path d="m43.059 44.504-.504-.336-1.109 1.664.504.336c1.283.856 2.05 2.289 2.05 3.832h2c0-2.214-1.1-4.269-2.941-5.496z" fill="#3979f8" data-original="#000000" style=""/></g></g></svg>
