<svg height="512pt" viewBox="0 0 512 512" width="512pt" xmlns="http://www.w3.org/2000/svg"><path d="m414.859375 308.835938c-19.003906-7.308594-40.804687-23.488282-44.46875-46.34375l18.007813-6.707032c18.167968-6.765625 23.21875-24.539062 18.75-37.828125-4.355469-12.953125-18.179688-23.230469-36.171876-17.8125l-1.695312.507813-1.21875-23.40625c-.144531-61.667969-50.359375-111.796875-112.0625-111.796875s-111.917969 50.128906-112.0625 111.796875l-1.21875 23.410156-1.695312-.511719c-17.988282-5.414062-31.816407 4.863281-36.171876 17.8125-4.46875 13.289063.582032 31.0625 18.75 37.828125l18.011719 6.707032c-3.667969 22.859374-25.46875 39.035156-44.472656 46.34375-20.890625 6.648437-25.417969 17.800781-25.527344 26-.179687 13.523437 11.433594 28.902343 43.84375 33.699218 1.6875 8.683594 5.238281 15.273438 10.761719 20.007813 11.222656 9.628906 26.582031 8.144531 40.132812 6.835937 7.410157-.71875 15.070313-1.457031 19.402344.058594 9.441406 3.308594 18.339844 8.832031 26.941406 14.171875 13.417969 8.328125 27.292969 16.941406 43.304688 16.941406s29.886719-8.613281 43.304688-16.941406c8.605468-5.339844 17.5-10.863281 26.941406-14.171875 4.332031-1.515625 11.996094-.777344 19.402344-.058594 13.554687 1.308594 28.914062 2.792969 40.132812-6.835937 5.523438-4.734375 9.078125-11.324219 10.761719-20.007813 32.410156-4.796875 44.023437-20.175781 43.847656-33.695312-.113281-8.207032-4.636719-19.355469-25.53125-26.003906zm-28.128906 40.707031c-4.960938.421875-8.855469 4.429687-9.136719 9.402343-.40625 7.160157-2.03125 12.011719-4.832031 14.417969-4.757813 4.078125-15.144531 3.074219-25.191407 2.105469-9.5625-.925781-19.453124-1.878906-27.9375 1.09375-11.515624 4.03125-21.359374 10.144531-30.878906 16.050781-12.042968 7.480469-22.445312 13.9375-32.753906 13.9375s-20.710938-6.457031-32.757812-13.9375c-9.519532-5.90625-19.363282-12.019531-30.875-16.050781-4.320313-1.515625-9.003907-2.011719-13.820313-2.011719-4.648437 0-9.425781.460938-14.121094.917969-10.042969.96875-20.429687 1.972656-25.1875-2.105469-2.800781-2.40625-4.429687-7.257812-4.832031-14.417969-.28125-4.972656-4.175781-8.980468-9.136719-9.402343-25.550781-2.171875-33.710937-10.667969-33.660156-14.441407.023437-1.726562 3.730469-4.742187 11.820313-7.28125.191406-.058593.378906-.125.566406-.195312 26.824218-10.214844 58.148437-35.167969 58.148437-71.878906 0-4.179688-2.59375-7.914063-6.507812-9.371094l-25.058594-9.332031c-7.246094-2.699219-8.175781-8.535157-6.773437-12.710938.78125-2.316406 3.457031-7.445312 11.453124-5.035156l13.898438 4.183594c2.941406.886719 6.125.371093 8.636719-1.394531 2.511719-1.769532 4.070312-4.59375 4.230469-7.660157l1.898437-36.390625c.007813-.171875.011719-.347656.011719-.519531 0-50.765625 41.300781-92.066406 92.066406-92.066406s92.0625 41.300781 92.0625 92.066406c0 .171875.007812.34375.015625.519531l1.894531 36.390625c.160156 3.066407 1.722656 5.890625 4.230469 7.65625 2.515625 1.769531 5.695313 2.285157 8.640625 1.398438l13.898438-4.183594c8-2.410156 10.671874 2.71875 11.449218 5.035156 1.40625 4.175781.472656 10.011719-6.773437 12.710938l-25.054688 9.328125c-3.914062 1.460937-6.507812 5.195312-6.507812 9.371094 0 36.714843 31.324219 61.667968 58.148437 71.882812.1875.070312.375.136719.5625.195312 8.089844 2.539063 11.796875 5.550782 11.820313 7.28125.050781 3.777344-8.109375 12.273438-33.65625 14.441407zm0 0"/><path d="m393.519531 447.800781c-40.25 28.914063-87.800781 44.199219-137.519531 44.199219-130.128906 0-236-105.867188-236-236 0-49.71875 15.28125-97.269531 44.195312-137.519531 3.222657-4.484375 2.199219-10.734375-2.285156-13.953125-4.484375-3.222656-10.734375-2.199219-13.957031 2.285156-31.371094 43.667969-47.953125 95.257812-47.953125 149.1875 0 68.378906 26.628906 132.667969 74.980469 181.019531 48.351562 48.351563 112.640625 74.980469 181.019531 74.980469 53.929688 0 105.519531-16.582031 149.1875-47.957031 4.488281-3.222657 5.511719-9.46875 2.289062-13.953125-3.222656-4.488282-9.46875-5.511719-13.957031-2.289063zm0 0"/><path d="m437.019531 74.980469c-48.351562-48.351563-112.640625-74.980469-181.019531-74.980469-53.925781 0-105.515625 16.582031-149.191406 47.957031-4.484375 3.222657-5.507813 9.472657-2.289063 13.957031 3.222657 4.484376 9.472657 5.511719 13.957031 2.289063 40.253907-28.917969 87.808594-44.203125 137.523438-44.203125 130.132812 0 236 105.871094 236 236 0 49.710938-15.285156 97.265625-44.199219 137.519531-3.222656 4.488281-2.195312 10.734375 2.289063 13.957031 1.765625 1.269532 3.804687 1.878907 5.824218 1.878907 3.109376 0 6.179688-1.449219 8.132813-4.167969 31.371094-43.675781 47.953125-95.261719 47.953125-149.1875 0-68.378906-26.628906-132.667969-74.980469-181.019531zm0 0"/><path d="m82.046875 92.054688c2.5625 0 5.125-.980469 7.074219-2.933594 3.90625-3.902344 3.90625-10.234375 0-14.140625-3.902344-3.90625-10.234375-3.90625-14.140625 0l-.003907.003906c-3.90625 3.90625-3.902343 10.234375 0 14.140625 1.953126 1.953125 4.511719 2.929688 7.070313 2.929688zm0 0"/><path d="m422.550781 423.21875-.003906.003906c-3.714844 4.085938-3.410156 10.410156.675781 14.125 1.914063 1.742188 4.320313 2.597656 6.722656 2.597656 2.71875 0 5.433594-1.101562 7.40625-3.273437 3.714844-4.085937 3.414063-10.410156-.675781-14.125-4.085937-3.714844-10.410156-3.414063-14.125.671875zm0 0"/></svg>