<svg id="_x33_0" enable-background="new 0 0 64 64" height="512" viewBox="0 0 64 64" width="512" xmlns="http://www.w3.org/2000/svg"><g><g><g><path d="m28 5c0 .65-.21 1.28-.6 1.8l-2.4 3.2h-3.38c-3.29 0-6.13 2.28-6.84 5.48l-.78 3.52s-.62-.62-1.17-1.17c-.53-.53-1.25-.83-2.01-.83h-.04c-1.54 0-2.78 1.24-2.78 2.77v.06c0 1.36.68 2.62 1.81 3.37l1.19.8-.31 1.26c-.45 1.79-1.38 3.43-2.69 4.74l-4.63-9.27c-.9-1.79-1.37-3.78-1.37-5.79 0-7.14 5.8-12.94 12.94-12.94h10.06c.83 0 1.58.34 2.12.88s.88 1.29.88 2.12z" fill="#656d78"/></g><g><path d="m22 50h6v8h-6-13c-1.96 0-3.73-.8-5-2.1-1.24-1.26-2-2.98-2-4.9v-7.29c0-4.11 2.32-7.87 6-9.71l6 8 4-5c2.59 3.24 4 7.26 4 11.4z" fill="#4fc1e9"/></g><g><path d="m22 58v4h-18v-6.1c1.27 1.3 3.04 2.1 5 2.1z" fill="#4fc1e9"/></g><g><path d="m25.89 27c-.53 2.84-3.03 5-6.03 5-.98 0-1.95-.24-2.81-.68l.95 5.68c-3.27 0-6.48-.89-9.29-2.57l-.71-.43v-4c1.31-1.31 2.24-2.95 2.69-4.74l.31-1.26-1.19-.8c-1.13-.75-1.81-2.01-1.81-3.37v-.06c0-1.53 1.24-2.77 2.78-2.77h.04c.76 0 1.48.3 2.01.83.55.55 1.17 1.17 1.17 1.17l.78-3.52c.71-3.2 3.55-5.48 6.84-5.48h3.38c3 4 3 12 3 12l-2 1v2.86c0 .39-.04.77-.11 1.14z" fill="#f0d0b4"/></g><g><path d="m8.71 34.43c2.81 1.68 6.02 2.57 9.29 2.57l-4 5-6-8z" fill="#f0d0b4"/></g><g><path d="m28 50 .35-.35.8-.8c.54-.54 1.28-.85 2.05-.85.27 0 .53.04.78.11.78.21 1.45.75 1.82 1.5l.2.39c1.1 0 2.1.45 2.83 1.17.72.73 1.17 1.73 1.17 2.83 0 1.48-.8 2.77-2 3.46-.59.34-1.27.54-2 .54h-2-4z" fill="#f0d0b4"/></g><g><path d="m36 57.46v2.54c0 .55-.22 1.05-.59 1.41-.36.37-.86.59-1.41.59-1.1 0-2-.9-2-2v-2h2c.73 0 1.41-.2 2-.54z" fill="#969faa"/></g><g><path d="m32 48-.02.11c-.25-.07-.51-.11-.78-.11-.77 0-1.51.31-2.05.85l-.8.8c-1.38-.63-2.35-2.03-2.35-3.65v-4c0-2.21 1.79-4 4-4h2z" fill="#ccd1d9"/></g><g><path d="m48 36v16c-2.63-1.32-5.53-2-8.47-2h-1.53v-12h1.53c2.94 0 5.84-.68 8.47-2z" fill="#ccd1d9"/></g><g><path d="m38 38v12h-4l-.2-.39c-.37-.75-1.04-1.29-1.82-1.5l.02-.11v-10z" fill="#ff826e"/></g><g><path d="m52 47v6c0 .55-.45 1-1 1h-2c-.55 0-1-.45-1-1v-1-16-1c0-.55.45-1 1-1h2c.55 0 1 .45 1 1v6z" fill="#ff826e"/></g><g><path d="m53 41c1.66 0 3 1.34 3 3 0 .83-.34 1.58-.88 2.12s-1.29.88-2.12.88h-1v-6z" fill="#fcd770"/></g><g><path d="m60 26h-26c-1.105 0-2-.895-2-2v-20c0-1.105.895-2 2-2h26c1.105 0 2 .895 2 2v20c0 1.105-.895 2-2 2z" fill="#e6e9ed"/></g><g><path d="m42.77 15.67c.89 1.4 2.45 2.33 4.23 2.33-4.42 0-8 3.58-8 8h-5c-1.03 0-1.89-.79-1.99-1.8.41-4.59 4.26-8.2 8.96-8.2.63 0 1.23-.11 1.78-.32z" fill="#fcd770"/></g><g><path d="m53 16c4.74 0 8.63 3.67 8.97 8.32-.15.95-.98 1.68-1.97 1.68h-5c0-2.21-.9-4.21-2.34-5.66-1.45-1.44-3.45-2.34-5.66-2.34 1.77 0 3.33-.93 4.22-2.32.56.21 1.15.32 1.78.32z" fill="#fcd770"/></g><g><path d="m55 26h-10l-3.59 3.59c-.26.26-.62.41-1 .41-.78 0-1.41-.63-1.41-1.41v-2.59c0-4.42 3.58-8 8-8 2.21 0 4.21.9 5.66 2.34 1.44 1.45 2.34 3.45 2.34 5.66z" fill="#ff826e"/></g><g><path d="m53 6c2.76 0 5 2.24 5 5s-2.24 5-5 5c-.63 0-1.22-.11-1.78-.32.49-.77.78-1.69.78-2.68 0-2.13-1.34-3.96-3.22-4.67v-.01c.88-1.39 2.44-2.32 4.22-2.32z" fill="#f0d0b4"/></g><g><path d="m52 13c0 .99-.29 1.91-.78 2.68-.89 1.39-2.45 2.32-4.22 2.32-1.78 0-3.34-.93-4.23-2.33-.49-.77-.77-1.69-.77-2.67 0-2.13 1.33-3.94 3.2-4.67.56-.21 1.17-.33 1.8-.33s1.23.12 1.78.33c1.88.71 3.22 2.54 3.22 4.67z" fill="#f0d0b4"/></g><g><path d="m40.97 6c1.78 0 3.34.93 4.23 2.32v.01c-1.87.73-3.2 2.54-3.2 4.67 0 .98.28 1.9.77 2.67l-.02.01c-.55.21-1.15.32-1.78.32-2.76 0-5-2.24-5-5s2.24-5 5-5z" fill="#f0d0b4"/></g></g><g><path d="m21 15c-1.654 0-3 1.346-3 3h2c0-.551.448-1 1-1s1 .449 1 1h2c0-1.654-1.346-3-3-3z"/><path d="m53 40v-5c0-1.103-.897-2-2-2h-2c-1.103 0-2 .897-2 2v.362c-2.336 1.069-4.904 1.638-7.472 1.638h-9.528c-2.757 0-5 2.243-5 5v4c0 1.105.377 2.149 1.017 3h-3.017v-.597c0-4.26-1.442-8.436-4.052-11.8l-.632-3.791c.505.112 1.019.188 1.543.188 3.938 0 7.141-3.203 7.141-7.141v-2.241l2-1v-.618c0-.324-.039-7.626-2.776-11.966l1.977-2.635c.515-.688.799-1.54.799-2.399 0-2.206-1.794-4-4-4h-10.056c-7.688 0-13.944 6.255-13.944 13.944 0 2.153.509 4.31 1.472 6.236l4.528 9.056v3.17c-3.715 2.105-6 5.994-6 10.302v7.292c0 2.021.759 3.864 2 5.274v6.726h20v-4h8v1c0 1.654 1.346 3 3 3s3-1.346 3-3v-2.026c1.207-.914 2-2.348 2-3.974 0-1.13-.392-2.162-1.027-3h1.555c2.567 0 5.136.569 7.472 1.638v.362c0 1.103.897 2 2 2h2c1.103 0 2-.897 2-2v-5c2.206 0 4-1.794 4-4s-1.794-4-4-4zm-18.39 9c-.381-.681-.944-1.212-1.61-1.557v-8.443h4v10zm-7.61-7c0-1.654 1.346-3 3-3h1v8.02c-.966.05-1.87.435-2.559 1.124l-.244.244c-.739-.56-1.197-1.437-1.197-2.388zm-2-19.618v3.478c0 .048-.013.093-.014.141h-1.158c-1.557 0-3.021-.606-4.121-1.707l-1.414 1.414c1.478 1.478 3.443 2.292 5.535 2.292h.69c-.815 1.765-2.59 3-4.659 3-1.019 0-2.004-.298-2.852-.863l-1.453-.969-1.109 1.664 1.453.969c.078.052.164.089.244.138l.67 4.019c-2.676-.187-5.276-1.003-7.585-2.388l-.227-.136v-3.062c1.275-1.38 2.2-3.047 2.655-4.873l.486-1.939-1.78-1.187c-.852-.569-1.361-1.519-1.361-2.6 0-.978.797-1.773 1.82-1.773.493 0 .955.19 1.301.536l2.46 2.46 1.178-5.298c.613-2.766 3.022-4.698 5.856-4.698h2.864c2.059 3.153 2.436 8.576 2.505 10.39zm-8.989 15.503-1.986 2.482-2.684-3.578c1.503.561 3.071.928 4.67 1.096zm-11.75-17.599c-.825-1.65-1.261-3.497-1.261-5.342 0-6.586 5.358-11.944 11.944-11.944h10.056c1.103 0 2 .897 2 2 0 .43-.142.856-.399 1.2l-2.101 2.8h-2.885c-3.779 0-6.99 2.576-7.81 6.265l-.388 1.744c-.707-.652-1.626-1.009-2.642-1.009-2.082 0-3.775 1.693-3.775 3.829 0 1.695.842 3.268 2.252 4.207l.606.405-.144.573c-.287 1.153-.804 2.229-1.499 3.183zm-1.261 23.422c0-3.478 1.804-6.612 4.736-8.394l6.239 8.319 3.991-4.988c1.96 2.861 3.034 6.278 3.034 9.758v.597h-10v-.838c0-2.206-.354-4.385-1.052-6.478l-1.896.632c.629 1.889.948 3.856.948 5.846v1.424l-1.707 1.707 1.414 1.414 1.707-1.707h16.586v6h-18c-3.309 0-6-2.691-6-6zm18 17.292h-16v-3.082c1.178.684 2.542 1.082 4 1.082h12zm14-1c0 .551-.448 1-1 1s-1-.449-1-1v-1h1c.342 0 .677-.035 1-.101zm2-6c0 1.654-1.346 3-3 3h-5v-6.586l.855-.856c.36-.36.839-.558 1.349-.558.727 0 1.38.404 1.705 1.053l.472.947h.619c1.654 0 3 1.346 3 3zm2.528-5h-.528v-10h.528c2.552 0 5.104-.507 7.472-1.462v12.924c-2.368-.955-4.92-1.462-7.472-1.462zm9.472 4v-18h2l.001 18zm4-7v-4c1.103 0 2 .897 2 2s-.897 2-2 2z"/><path d="m59 43h4v2h-4z"/><path d="m57.379 37.5h4.243v2h-4.243z" transform="matrix(.707 -.707 .707 .707 -9.797 53.349)"/><path d="m58.5 47.379h2v4.243h-2z" transform="matrix(.707 -.707 .707 .707 -17.575 56.571)"/><path d="m60 1h-26c-1.654 0-3 1.346-3 3v20c0 .051.012.098.015.148-.003.033-.01.064-.012.097l.022.002c.127 1.537 1.405 2.753 2.975 2.753h4v1.586c0 1.331 1.083 2.414 2.414 2.414.637 0 1.259-.258 1.707-.707l3.293-3.293h14.586c1.654 0 3-1.346 3-3v-20c0-1.654-1.346-3-3-3zm-27 3c0-.551.448-1 1-1h26c.552 0 1 .449 1 1v15.02c-1.1-1.463-2.588-2.615-4.302-3.304 1.399-1.1 2.302-2.803 2.302-4.716 0-3.309-2.691-6-6-6-1.807 0-3.484.798-4.618 2.167-.444-.105-.906-.167-1.382-.167-.484 0-.952.064-1.403.173-1.134-1.373-2.813-2.173-4.622-2.173-3.309 0-6 2.691-6 6 0 1.913.903 3.616 2.302 4.715-1.701.684-3.179 1.826-4.277 3.273zm14 13c-2.206 0-4-1.794-4-4s1.794-4 4-4 4 1.794 4 4-1.794 4-4 4zm-10.025-6c0-2.206 1.794-4 4-4 1.005 0 1.947.374 2.672 1.027-1.596 1.079-2.647 2.906-2.647 4.973 0 .69.123 1.35.338 1.967-.121.011-.241.033-.363.033-2.206 0-4-1.794-4-4zm13.364-2.982c.723-.647 1.661-1.018 2.661-1.018 2.206 0 4 1.794 4 4s-1.794 4-4 4c-.115 0-.226-.021-.339-.031.216-.617.339-1.278.339-1.969 0-2.073-1.057-3.904-2.661-4.982zm-16.339 16.982c-.502 0-.9-.377-.972-.859.433-4.024 3.869-7.141 7.947-7.141.476 0 .941-.075 1.398-.185.294.357.633.674 1.002.954-2.869 1.269-4.955 3.992-5.315 7.231zm10.586 0-3.88 3.879c-.236.238-.706.045-.706-.293v-2.586c0-3.86 3.141-7 7-7 3.519 0 6.432 2.613 6.92 6zm15.414 0h-4.059c-.36-3.239-2.446-5.962-5.315-7.231.366-.279.703-.594.997-.948.45.106.908.179 1.377.179 4.104 0 7.56 3.157 7.956 7.218-.103.444-.482.782-.956.782z"/></g></g></svg>