<?xml version="1.0"?>
<svg xmlns="http://www.w3.org/2000/svg" xmlns:xlink="http://www.w3.org/1999/xlink" xmlns:svgjs="http://svgjs.com/svgjs" version="1.1" width="512" height="512" x="0" y="0" viewBox="0 0 512.002 512.002" style="enable-background:new 0 0 512 512" xml:space="preserve" class=""><g><g xmlns="http://www.w3.org/2000/svg"><g><path d="m402.002 272.422v-34.421c0-13.028-8.35-24.138-19.978-28.272l.287-111.9c.007-2.667-1.051-5.225-2.94-7.108l-88.075-87.803c-1.874-1.868-4.413-2.918-7.06-2.918h-194.234c-16.542 0-30 13.458-30 30v10.001h-10.001c-16.542 0-30 13.458-30 30l.002 99.718c-11.641 4.128-20.003 15.244-20.003 28.282v260c0 16.542 13.458 30 30 30h290.079c20.056 15.064 44.965 24.001 71.923 24.001 66.168 0 120-53.832 120-120 0-62.8-48.493-114.481-110-119.58zm-107.766-238.332 53.879 53.714h-45.804c-4.453 0-8.076-3.623-8.076-8.076v-45.638zm-244.235 25.912h10.001l.001 107.999h-20l-.002-97.999c0-5.514 4.486-10 10-10zm-30.001 397.999v-260c0-5.514 4.486-10 10-10h100c5.514 0 10 4.486 10 10v20.001c0 5.523 4.477 10 10 10h107.308c5.523 0 10-4.477 10-10s-4.477-10-10-10h-97.308v-10.001c0-3.578-.632-7.01-1.786-10.194h144.098c5.523 0 10-4.477 10-10s-4.477-10-10-10h-172.312c-.67 0-1.324.069-1.957.194h-48.039l-.002-138.001c0-5.514 4.486-10 10-10h184.234v59.728c0 15.481 12.595 28.076 28.076 28.076h59.973l-.257 100.198h-14.719c-5.523 0-10 4.477-10 10s4.477 10 10 10h24.693c5.514 0 10 4.486 10 10v34.421c-61.507 5.099-110 56.779-110 119.58 0 28.816 10.212 55.289 27.204 75.999h-269.206c-5.514-.001-10-4.487-10-10.001zm372.002 34.001c-55.14 0-100-44.86-100-100s44.86-100 100-100c55.141 0 100 44.86 100 100s-44.859 100-100 100z" fill="#3979f8" data-original="#000000" style=""/><path d="m110.004 67.802h124.23c5.523 0 10-4.477 10-10s-4.477-10-10-10h-124.23c-5.523 0-10 4.477-10 10s4.477 10 10 10z" fill="#3979f8" data-original="#000000" style=""/><path d="m110.004 107.804h124.23c5.523 0 10-4.477 10-10s-4.477-10-10-10h-124.23c-5.523 0-10 4.477-10 10s4.477 10 10 10z" fill="#3979f8" data-original="#000000" style=""/><path d="m302.312 127.805h-192.308c-5.523 0-10 4.477-10 10s4.477 10 10 10h192.308c5.523 0 10-4.477 10-10s-4.477-10-10-10z" fill="#3979f8" data-original="#000000" style=""/><path d="m429.358 337.598c-8.013 0-15.546 3.121-21.212 8.786l-27.6 27.6-4.69-4.69c-5.666-5.666-13.199-8.786-21.212-8.786s-15.546 3.121-21.212 8.786c-5.666 5.666-8.786 13.199-8.786 21.212s3.121 15.546 8.786 21.212l25.902 25.901c5.666 5.666 13.199 8.787 21.212 8.787s15.546-3.121 21.212-8.786l48.812-48.812c5.666-5.666 8.786-13.199 8.786-21.212s-3.121-15.546-8.786-21.212c-5.666-5.665-13.199-8.786-21.212-8.786zm7.07 37.068-48.812 48.812c-1.888 1.889-4.399 2.928-7.069 2.928-2.671 0-5.181-1.04-7.069-2.928l-25.902-25.902c-3.898-3.898-3.898-10.241 0-14.139 1.888-1.889 4.399-2.928 7.069-2.928s5.181 1.04 7.069 2.928l11.761 11.761c3.905 3.905 10.237 3.905 14.143 0l34.671-34.671c1.888-1.889 4.399-2.928 7.069-2.928s5.181 1.04 7.07 2.928c1.888 1.888 2.928 4.398 2.928 7.069s-1.04 5.182-2.928 7.07z" fill="#3979f8" data-original="#000000" style=""/><path d="m149.994 427.999c-5.523 0-10 4.477-10 10s4.477 10 10 10h.007c5.523 0 9.997-4.477 9.997-10s-4.481-10-10.004-10z" fill="#3979f8" data-original="#000000" style=""/><path d="m104.998 427.999h-54.997c-5.523 0-10 4.477-10 10s4.477 10 10 10h54.996c5.523 0 10-4.477 10-10s-4.476-10-9.999-10z" fill="#3979f8" data-original="#000000" style=""/><path d="m302.312 228.002c5.523 0 10-4.477 10-10s-4.477-10-10-10h-.007c-5.523 0-9.996 4.477-9.996 10s4.48 10 10.003 10z" fill="#3979f8" data-original="#000000" style=""/></g></g></g></svg>
