<?xml version="1.0" encoding="iso-8859-1"?>
<!-- Generator: Adobe Illustrator 16.0.0, SVG Export Plug-In . SVG Version: 6.00 Build 0)  -->
<!DOCTYPE svg PUBLIC "-//W3C//DTD SVG 1.1//EN" "http://www.w3.org/Graphics/SVG/1.1/DTD/svg11.dtd">
<svg version="1.1" id="Capa_1" xmlns="http://www.w3.org/2000/svg" xmlns:xlink="http://www.w3.org/1999/xlink" x="0px" y="0px"
	 width="38.212px" height="38.212px" viewBox="0 0 38.212 38.212" style="enable-background:new 0 0 38.212 38.212;"
	 xml:space="preserve">
<g>
	<g>
		<path d="M17.477,28.791c-4.311-4.353-6.523-10.426-7.569-16.344C9.42,9.685,10.341,5.962,7.062,5.065
			C4.908,4.477,2.885,5.681,2.39,7.729c-1.091,4.515,1.517,11.614,3.139,15.81c1.392,3.602,3.507,6.934,6.065,9.812
			c1.711,1.927,4.314,4.572,7.075,4.836c0.55,0.052,1.174,0.01,1.392,0.016c0.219,0.006,0.451-0.067,0.522-0.144
			c0.071-0.077,0.295-0.202,0.49-0.298c0.116-0.057,0.23-0.118,0.346-0.187c3.301-1.95,5.663-5.444,7.849-8.494
			c1.715-2.392,2.71-3.407,5.301-4.531c1.024-0.444,1.435-1.525,1.435-2.561c0-3.663-5.215-3.779-7.427-5.738
			c-1.587-1.405-2.383-3.512-2.871-5.515c-0.158-0.65-0.218-1.324-0.278-1.988c-0.154-1.731,2.115-1.986,3.074-0.858
			c0.358,0.421,0.371,1.35,0.294,1.897c-0.375,2.69-1.374,6.49,2.228,6.49c3.068,0,4.693-0.882,4.913-4.17
			c0.245-3.669,0.533-7.299-2.334-9.965c-2.007-1.866-4.988-2.281-7.601-2.103c-8.342,0.567-8.777,9.714-6.376,15.853
			c0.733,1.875,2.083,3.456,3.522,4.819C26.029,23.445,20.868,32.215,17.477,28.791z M23.008,28.718
			c2.074-2.494,4.729-5.053,3.018-7.611c-0.308-0.459-0.438-0.975-0.183-1.234s0.426-0.517,0.384-0.574
			c-0.042-0.057-0.305,0.103-0.585,0.357s-0.553,0.42-0.606,0.369c-0.031-0.03-0.063-0.061-0.101-0.089
			c-0.317-0.257-0.618-0.536-0.904-0.832c-0.384-0.396-0.339-1.054,0.061-1.434c0.002-0.002,0.004-0.004,0.006-0.006
			c0.401-0.38,0.706-0.729,0.683-0.78c-0.023-0.051-0.363,0.219-0.758,0.605c-0.015,0.013-0.027,0.027-0.041,0.041
			c-0.396,0.386-0.999,0.351-1.312-0.105c-0.105-0.155-0.208-0.313-0.308-0.473c-0.292-0.469-0.167-1.174,0.237-1.549
			c0.169-0.157,0.339-0.313,0.507-0.469c0.404-0.375,0.646-1.005,0.56-1.41c-0.088-0.405-0.471-0.432-0.875-0.056
			c-0.239,0.222-0.478,0.444-0.717,0.666c-0.405,0.375-0.677,0.852-0.599,1.058c0.079,0.207-0.048-0.03-0.25-0.544
			c-1.188-3.039-1.437-6.523-0.606-9.453C21.49,2.119,24.167,1,26.914,1.2c0.551,0.04,0.783,0.326,0.524,0.57
			c-0.152,0.144-0.309,0.292-0.469,0.443c-0.168,0.16-0.328,0.313-0.482,0.462c-0.268,0.255-0.219,0.254,0.134,0.041
			c0.352-0.213,0.868-0.57,1.13-0.838c0.263-0.268,0.915-0.394,1.439-0.219c1.452,0.485,2.78,1.31,3.696,2.381
			c1.86,2.174,1.194,5.699,1.112,8.291c-0.05,1.568-0.443,2.785-2.244,2.785c-1.739,0-0.948-5.679-0.913-6.643
			c0.001-0.014-0.003-0.025-0.008-0.035c-0.008-0.018-0.008-0.051-0.001-0.073c0.004-0.013,0.008-0.026,0.006-0.04
			c-0.029-0.26-0.078-0.503-0.144-0.73c-0.114-0.396-0.128-0.542,0.006-0.326c0.134,0.216,0.463,0.171,0.78-0.124
			c0.316-0.294,0.185-0.631-0.294-0.585c-0.48,0.046-1.059-0.204-1.46-0.584c-1.932-1.833-5.698-0.996-6.27,2.24
			c-0.346,1.961,0.577,4.783,1.551,6.419c0.722,1.211,1.542,2.39,2.718,3.213c1.561,1.091,6.337,2.574,6.337,4.707
			c0,0.154-3.115,1.776-3.68,2.161c-1.563,1.067-2.759,4.052-3.877,5.611c-2.058,2.873-4.944,7.318-8.515,6.018
			c-0.519-0.19-0.748-0.601-0.565-0.795c0.182-0.193,0.005-0.661-0.378-1.06c-0.007-0.007-0.014-0.015-0.021-0.023
			c-0.382-0.398-0.877-0.542-1.122-0.305s-0.782,0.135-1.183-0.245c-0.241-0.228-0.477-0.46-0.709-0.695
			c-0.387-0.396-0.434-0.98-0.125-1.29c0.31-0.311,0.428-0.744,0.269-0.973c-0.159-0.228-0.566-0.158-0.913,0.159
			c-0.347,0.317-0.916,0.231-1.252-0.207c-0.325-0.424-0.638-0.857-0.94-1.299c-0.312-0.456-0.238-1.151,0.149-1.544
			c0.017-0.018,0.033-0.033,0.049-0.049c0.388-0.394,0.687-0.743,0.667-0.782c-0.019-0.039-0.365,0.235-0.77,0.61
			c-0.016,0.015-0.032,0.029-0.049,0.045c-0.405,0.375-0.902,0.414-1.107,0.083c-0.205-0.33-0.032-0.907,0.375-1.28
			c0.051-0.046,0.102-0.093,0.153-0.14c0.407-0.374,0.611-0.945,0.464-1.278c-0.147-0.334-0.589-0.3-0.993,0.076
			c-0.078,0.071-0.155,0.145-0.233,0.217c-0.404,0.376-0.941,0.286-1.186-0.209C8.3,24.811,8.04,24.252,7.795,23.688
			c-0.22-0.506-0.074-1.244,0.31-1.642c0.178-0.184,0.357-0.367,0.535-0.551c0.385-0.396,0.625-0.955,0.542-1.252
			s-0.466-0.221-0.857,0.168c-0.2,0.2-0.4,0.398-0.599,0.596c-0.392,0.391-0.866,0.287-1.048-0.234
			c-0.303-0.865-0.583-1.736-0.829-2.617c-0.674-2.417-1.018-4.912-1.3-7.399c-0.053-0.47,0.059-1.364,0.28-2.257
			c0.133-0.536,0.564-1.241,0.909-1.591c0.345-0.35,0.427-0.614,0.199-0.53c-0.228,0.084-0.22-0.407,0.331-0.441
			c0.397-0.025,0.82,0.5,1.221,1.942C7.492,7.89,7.493,7.9,7.494,7.911c0.002,0.018-0.31,0.349-0.698,0.742
			C6.364,9.088,5.933,9.524,5.502,9.96c-0.388,0.393-0.691,0.861-0.675,1.047s0.353,0.026,0.751-0.357
			c0.379-0.365,0.759-0.729,1.138-1.096c0.397-0.384,0.715-0.75,0.711-0.816c-0.002-0.039-0.005-0.08-0.006-0.12
			c-0.004-0.106,0.003-0.21,0.019-0.31C7.466,8.138,7.589,8.447,7.597,9c0.005,0.393-0.004,0.79,0.021,1.122
			c0.323,4.217,1.469,8.305,3.185,12.158C13.149,27.538,17.836,34.941,23.008,28.718z"/>
		<path d="M33.901,16.277c-0.017-0.021-0.051-0.018-0.073,0.004c-0.022,0.022-0.012,0.041,0.022,0.041
			C33.886,16.322,33.916,16.299,33.901,16.277z"/>
		<path d="M22.534,8.958c-0.388,0.393-0.377,0.416,0.024,0.049c0.401-0.367,0.73-0.703,0.736-0.749
			c0.006-0.047-0.302,0.235-0.689,0.628C22.582,8.908,22.558,8.933,22.534,8.958z"/>
		<path d="M31.626,12.238c-0.396,0.384-0.722,0.713-0.725,0.736c-0.002,0.023,0.331-0.256,0.743-0.622
			c0.503-0.445,1.011-0.896,1.523-1.349c0.414-0.366,0.751-0.736,0.754-0.828c0.002-0.091-0.317,0.146-0.714,0.53
			C32.681,11.216,32.154,11.729,31.626,12.238z"/>
		<path d="M31.841,9.946c-0.396,0.385-0.722,0.777-0.729,0.875c-0.009,0.098,0.31-0.133,0.709-0.515
			c0.422-0.404,0.837-0.802,1.245-1.192c0.397-0.382,0.707-0.758,0.688-0.838c-0.019-0.081-0.362,0.169-0.758,0.553
			C32.61,9.2,32.224,9.574,31.841,9.946z"/>
		<path d="M25.045,27.404c1.271-1.36,2.535-2.713,3.79-4.058c0.376-0.404,0.579-0.896,0.417-1.069
			c-0.096-0.104-0.202-0.2-0.317-0.286c-0.079-0.06-0.158-0.122-0.237-0.184c-0.13-0.104-0.545,0.122-0.929,0.505
			c-0.383,0.383-0.596,1.03-0.648,1.443c-0.031,0.245-0.109,0.484-0.242,0.709c-0.628,1.065-1.276,2.022-1.908,2.875
			C24.641,27.784,24.668,27.809,25.045,27.404z"/>
		<path d="M24.204,4.859c-3.012,2.891-1.936,1.901-2.997,2.945c-0.394,0.388-0.722,0.793-0.728,0.908
			C20.475,8.78,20.472,8.85,20.472,8.92c0,0.066,0.002,0.131,0.004,0.196c0.004,0.108,0.318-0.126,0.704-0.521
			c0.684-0.7,1.362-1.396,2.035-2.084c0.386-0.396,0.866-1.115,1.146-1.566C24.643,4.495,24.602,4.477,24.204,4.859z"/>
		<path d="M28.496,26.272c0.389-0.394,0.806-0.873,0.93-1.073c0.074-0.12,0.148-0.241,0.223-0.365
			c0.021-0.036,0.038-0.072,0.055-0.11c0.026-0.062-0.261,0.212-0.642,0.613c-1.893,1.998-3.707,3.911-5.461,5.753
			c-0.38,0.4-0.67,0.728-0.646,0.729c0.023,0.001,0.358-0.315,0.747-0.708C25.304,29.493,26.913,27.869,28.496,26.272z"/>
		<path d="M31.128,10.579c-0.001,0.022,0.316-0.274,0.709-0.662c0.431-0.425,0.82-0.81,1.148-1.135
			c0.392-0.389,0.379-0.401-0.021-0.02c-0.375,0.358-0.747,0.718-1.118,1.08C31.451,10.226,31.13,10.557,31.128,10.579z"/>
		<path d="M22.533,10.968c-0.238,0.225-0.549,0.521-1.021,0.982c-0.396,0.386-0.688,0.845-0.654,1.023
			c0.032,0.178,0.391,0.016,0.794-0.361c0.313-0.293,0.626-0.586,0.936-0.877c0.403-0.378,0.715-0.855,0.701-1.066
			C23.274,10.459,22.935,10.589,22.533,10.968z"/>
		<path d="M24.409,2.145c-0.116,0.115-0.115,0.116,0.002,0.002C24.527,2.032,24.525,2.03,24.409,2.145z"/>
		<path d="M7.366,15.853c-0.288,0.297-0.576,0.594-0.863,0.891c-0.384,0.396-0.638,0.982-0.562,1.307
			c0.076,0.325,0.46,0.273,0.854-0.114c0.263-0.259,0.525-0.519,0.789-0.777c0.393-0.388,0.655-0.997,0.591-1.362
			C8.109,15.432,7.75,15.456,7.366,15.853z"/>
		<path d="M7.139,14.306c0.385-0.396,0.643-1.137,0.586-1.657c-0.057-0.52-0.414-0.628-0.808-0.24c-0.337,0.333-0.676,0.667-1.015,1
			c-0.393,0.388-0.651,1.123-0.564,1.64c0.087,0.518,0.479,0.615,0.864,0.22C6.517,14.943,6.83,14.623,7.139,14.306z"/>
		<path d="M9.591,23.883c0.333-0.31,0.598-0.575,0.591-0.593c-0.006-0.017-0.276,0.234-0.602,0.562
			C9.253,24.18,9.258,24.193,9.591,23.883z"/>
	</g>
</g>
<g>
</g>
<g>
</g>
<g>
</g>
<g>
</g>
<g>
</g>
<g>
</g>
<g>
</g>
<g>
</g>
<g>
</g>
<g>
</g>
<g>
</g>
<g>
</g>
<g>
</g>
<g>
</g>
<g>
</g>
</svg>
