<?xml version="1.0" encoding="iso-8859-1"?>
<!-- Generator: Adobe Illustrator 19.0.0, SVG Export Plug-In . SVG Version: 6.00 Build 0)  -->
<svg version="1.1" id="Capa_1" xmlns="http://www.w3.org/2000/svg" xmlns:xlink="http://www.w3.org/1999/xlink" x="0px" y="0px"
	 viewBox="0 0 512.001 512.001" style="enable-background:new 0 0 512.001 512.001;" xml:space="preserve">
<path style="fill:#005ECF;" d="M426.448,281.077c-42.589,0-77.115,34.526-77.115,77.115c0,72.273,77.115,142.974,77.115,142.974
	s77.115-70.701,77.115-142.974C503.563,315.602,469.037,281.077,426.448,281.077z"/>
<path style="fill:#FF3502;" d="M77.293,7.5C39.265,7.5,8.437,38.328,8.437,76.356c0,64.532,68.856,127.662,68.856,127.662
	s68.856-63.129,68.856-127.662C146.15,38.328,115.321,7.5,77.293,7.5z"/>
<path style="fill:#004FAE;" d="M440.866,282.443c-4.673-0.884-9.488-1.366-14.419-1.366c-42.589,0-77.115,34.526-77.115,77.115
	c0,72.272,77.115,142.974,77.115,142.974s5.895-5.408,14.419-14.748c-22.32-24.458-62.696-75.926-62.696-128.226
	C378.171,320.532,405.172,289.198,440.866,282.443z"/>
<circle style="fill:#97C7EF;" cx="426.451" cy="358.19" r="51.28"/>
<path style="fill:#CD2A01;" d="M90.559,8.79C86.265,7.951,81.833,7.5,77.293,7.5C39.265,7.5,8.437,38.328,8.437,76.356
	c0,64.532,68.856,127.662,68.856,127.662s5.442-4.989,13.266-13.596c-20.007-22.009-55.591-67.675-55.591-114.066
	C34.968,42.867,58.88,14.974,90.559,8.79z"/>
<circle style="fill:#97C7EF;" cx="77.29" cy="76.36" r="45.788"/>
<g>
	<circle style="fill:#D2E7F8;" cx="77.29" cy="76.36" r="26.531"/>
	<circle style="fill:#D2E7F8;" cx="426.451" cy="358.19" r="31.05"/>
</g>
<path d="M77.293,23.068c-29.383,0-53.288,23.905-53.288,53.288s23.905,53.288,53.288,53.288s53.288-23.905,53.288-53.288
	S106.677,23.068,77.293,23.068z M77.293,114.644c-21.112,0-38.288-17.176-38.288-38.288s17.176-38.288,38.288-38.288
	s38.288,17.176,38.288,38.288S98.406,114.644,77.293,114.644z"/>
<path d="M153.65,76.356C153.65,34.253,119.396,0,77.293,0S0.938,34.253,0.938,76.356c0,67.06,68.377,130.521,71.288,133.19
	l5.068,4.647l0.195-0.179h29.805v-15h-14.41C112.769,177.907,153.65,128.212,153.65,76.356z M77.293,193.511
	C61.763,177.71,15.937,126.8,15.937,76.356C15.938,42.524,43.462,15,77.293,15s61.356,27.524,61.356,61.356
	C138.65,126.799,92.823,177.709,77.293,193.511z"/>
<path d="M426.448,299.412c-32.411,0-58.78,26.369-58.78,58.78c0,32.412,26.369,58.78,58.78,58.78c32.412,0,58.78-26.369,58.78-58.78
	C485.228,325.78,458.859,299.412,426.448,299.412z M426.448,401.972c-24.14,0-43.78-19.64-43.78-43.78s19.64-43.78,43.78-43.78
	c24.141,0,43.78,19.64,43.78,43.78C470.228,382.332,450.589,401.972,426.448,401.972z"/>
<path d="M426.448,273.577c-46.657,0-84.615,37.958-84.615,84.615c0,59.521,48.424,116.565,69.759,138.809h-15.448v15h30v-0.938
	l0.304,0.278l5.068-4.647c3.248-2.978,79.546-73.79,79.546-148.502C511.063,311.535,473.104,273.577,426.448,273.577z
	 M426.444,490.683c-16.814-16.974-69.611-74.873-69.611-132.491c0-38.386,31.229-69.615,69.615-69.615s69.615,31.229,69.615,69.615
	C496.063,415.729,443.251,473.696,426.444,490.683z"/>
<path d="M333.063,252.974c-3.607-10.516-9.276-20.01-16.848-28.22l-11.026,10.17c6.153,6.671,10.758,14.382,13.686,22.917
	L333.063,252.974z"/>
<rect x="137.29" y="199.01" width="30" height="15"/>
<path d="M173.252,389.985c4.999-7.599,11.342-14.055,18.855-19.187l-8.461-12.386c-9.135,6.24-16.849,14.089-22.926,23.33
	L173.252,389.985z"/>
<path d="M322.145,284.341c-0.747,9.025-3.317,17.625-7.64,25.561l13.172,7.176c5.329-9.781,8.497-20.379,9.417-31.499
	L322.145,284.341z"/>
<path d="M289.46,205.676c-10.108-4.42-20.87-6.662-31.986-6.662h-0.18v15h0.18c9.035,0,17.774,1.818,25.975,5.405L289.46,205.676z"
	/>
<rect x="276.141" y="497" width="30" height="15"/>
<path d="M273.184,341.889l3.618,14.557c10.795-2.683,20.746-7.513,29.574-14.354l-9.188-11.856
	C290.018,335.792,281.942,339.712,273.184,341.889z"/>
<rect x="336.141" y="497" width="30" height="15"/>
<path d="M161.93,427.901c0-4.379,0.412-8.759,1.224-13.02l-14.735-2.808c-0.988,5.184-1.489,10.509-1.489,15.828
	c0,5.677,0.57,11.354,1.695,16.874l14.698-2.995C162.398,437.245,161.93,432.575,161.93,427.901z"/>
<path d="M173.738,466.547l-12.427,8.401c6.196,9.165,14.008,16.917,23.22,23.038l8.303-12.493
	C185.258,480.459,178.833,474.085,173.738,466.547z"/>
<rect x="197.29" y="199.01" width="30" height="15"/>
<path d="M217.682,495.714l-2.879,14.721c5.311,1.039,10.77,1.565,16.226,1.565h15.117v-15h-15.117
	C226.536,497,222.046,496.567,217.682,495.714z"/>
<path d="M231.027,358.802h14.144v-15h-14.144c-5.814,0-11.625,0.598-17.271,1.776l3.065,14.684
	C221.462,359.293,226.242,358.802,231.027,358.802z"/>
<g>
</g>
<g>
</g>
<g>
</g>
<g>
</g>
<g>
</g>
<g>
</g>
<g>
</g>
<g>
</g>
<g>
</g>
<g>
</g>
<g>
</g>
<g>
</g>
<g>
</g>
<g>
</g>
<g>
</g>
</svg>
