<svg id="Capa_1" enable-background="new 0 0 512 512" height="512" viewBox="0 0 512 512" width="512" xmlns="http://www.w3.org/2000/svg"><g><g id="_x3C_Group_x3E__23_"><path d="m263.128 498.915 5.47-1.378 103.714-107.703c6.172-6.409 1.63-17.088-7.268-17.088h-45.443c-5.572 0-10.09-4.517-10.09-10.09v-33.126l-22.639-136.477 22.639-134.233v-41.23c0-5.572-4.517-10.09-10.09-10.09h-71.731l-8.818 6.347c-5.572 0-10.09 4.517-10.09 10.09l5.045 340.426c0 5.572-12.653 8.384-18.225 8.384h-45.443c-.55 0-1.084.041-1.6.119-7.819 1.186-4.839 11.654.951 17.667l100.34 105.064c3.97 4.12 9.309 7.439 13.278 3.318z" fill="#df646e"/><path d="m268.6 497.54-3.73 3.87c-3.97 4.12-10.57 4.12-14.54 0l-107.44-111.58c-5.79-6-2.15-15.77 5.67-16.96z" fill="#dc4955"/><path d="m255.92 48.67c-8.38 0-16.652.708-24.75 2.09-1.823.311-3.48-1.109-3.48-2.957v-40.303h-11.91c-5.573 0-10.09 4.517-10.09 10.09v39.95 273.27 31.85c0 5.57-4.52 10.09-10.09 10.09h22c5.573 0 10.09-4.517 10.09-10.09v-22.122c0-1.849 1.657-3.268 3.48-2.957 8.098 1.381 16.37 2.089 24.75 2.089 18.65 0 36.76-3.48 53.59-10.14v-270.71c-16.83-6.66-34.94-10.15-53.59-10.15z" fill="#dc4955"/><g><path d="m348.464 103.309c-50.182-50.182-131.544-50.182-181.726 0s-45.044 129.683 5.139 179.866 126.406 52.043 176.588 1.861 50.182-131.545-.001-181.727z" fill="#f7f9fa"/><path d="m354.261 278.832c-1.84 2.11-3.78 4.18-5.8 6.2-50.18 50.19-131.54 50.19-181.72 0-50.19-50.18-50.19-131.54 0-181.72 2.02-2.02 4.09-3.96 6.2-5.8-44.31 50.47-42.37 127.36 5.8 175.52 48.16 48.17 125.05 50.11 175.52 5.8z" fill="#e9edf1"/><path d="m327.292 124.481c-38.489-38.489-100.892-38.489-139.381 0s-34.098 96.204 4.391 134.693 96.501 43.177 134.989 4.688c38.489-38.489 38.489-100.892.001-139.381z" fill="#e9edf1"/><path d="m333.491 257.062c-1.94 2.34-4.01 4.61-6.2 6.8-38.49 38.49-100.89 38.49-139.38 0s-38.49-100.89 0-139.38c2.19-2.19 4.46-4.26 6.8-6.2-32.17 38.72-30.1 96.28 6.2 132.58s93.86 38.37 132.58 6.2z" fill="#dce6eb"/></g></g><g><path d="m341.213 148.164c1.968 3.646 6.517 5.006 10.162 3.039s5.006-6.517 3.039-10.162c-23.304-44.756-79.702-69.142-128.871-54.417-59.348 16.794-93.968 78.74-77.175 138.087 16.602 59.839 80.034 93.809 138.088 77.174 49.325-13.958 82.792-59.45 81.385-110.628-.113-4.14-3.54-7.396-7.703-7.291-4.141.114-7.405 3.563-7.291 7.703 1.218 44.31-27.763 83.697-70.475 95.783-51.388 14.541-105.029-15.436-119.57-66.825-14.541-51.39 15.437-105.028 66.825-119.57 43.32-12.258 90.245 7.555 111.586 47.107z"/><path d="m279.143 249.333c7.691 7.958 22.871 9.177 31.819 0 8.771-8.773 8.771-23.047-.001-31.82-7.691-7.959-22.873-9.176-31.818 0-7.96 7.693-9.179 22.871 0 31.82zm10.606-21.214c2.232-2.133 6.829-3.4 10.605 0 2.925 2.924 2.925 7.683.001 10.606-2.233 2.133-6.83 3.401-10.606 0-2.133-2.229-3.401-6.83 0-10.606z"/><path d="m232.668 171.04c7.96-7.691 9.177-22.872.001-31.82-7.691-7.959-22.873-9.177-31.819 0-7.959 7.691-9.178 22.873-.001 31.82 7.691 7.958 22.872 9.177 31.819 0zm-21.213-10.607c-2.132-2.233-3.399-6.828.001-10.606 2.233-2.133 6.829-3.4 10.606 0 3.787 3.551 2.443 12.463-5.304 12.803-1.25-.039-3.108-.422-5.303-2.197z"/><path d="m208.113 249.058c1.919 0 3.839-.732 5.304-2.197l95-95c2.929-2.929 2.929-7.678 0-10.606-2.93-2.929-7.678-2.929-10.607 0l-95 95c-3.559 3.447-2.316 12.704 5.303 12.803z"/><path d="m367.741 62.702c0-4.142-3.357-7.5-7.5-7.5s-7.5 3.358-7.5 7.5v28.922c-10.818-10.221-22.897-18.399-35.73-24.542v-49.492c0-9.699-7.891-17.59-17.589-17.59h-83.641c-9.699 0-17.59 7.891-17.59 17.59v47.995c-13.989 6.268-27.173 14.934-38.933 26.015v-28.898c0-4.142-3.357-7.5-7.5-7.5s-7.5 3.358-7.5 7.5v45.448c-23.618 30.634-33.817 69.944-27.521 108.778.663 4.088 4.512 6.866 8.604 6.203 4.089-.663 6.866-4.515 6.203-8.604-6.654-41.049 7.306-82.694 37.343-111.398 50.246-48.014 130.165-46.23 178.153 3.973 23.247 24.318 35.625 56.238 34.854 89.879-.771 33.643-14.601 64.98-38.939 88.239-50.244 48.014-130.165 46.23-178.154-3.973-7.824-8.185-14.493-17.335-19.82-27.197-1.968-3.644-6.52-5.003-10.163-3.034-3.645 1.969-5.003 6.519-3.034 10.164 5.964 11.04 13.425 21.279 22.175 30.433 12.983 13.581 28.052 23.995 44.234 31.221v39.823c0 1.428-1.162 2.589-2.59 2.589h-45.442c-7.176 0-13.378 4.102-16.187 10.706-2.809 6.603-1.462 13.916 3.516 19.085l107.442 111.576c3.347 3.475 7.846 5.388 12.67 5.388 4.825 0 9.324-1.914 12.671-5.389l44.642-46.359c2.873-2.983 2.783-7.731-.2-10.604-2.984-2.875-7.732-2.784-10.604.2l-44.642 46.359c-.665.69-1.454.793-1.866.793-.411 0-1.2-.103-1.865-.793l-107.445-111.576c-1.033-1.073-.768-2.221-.517-2.81.25-.588.893-1.576 2.383-1.576h45.442c9.699 0 17.59-7.891 17.59-17.589v-34.139c13.851 4.371 28.258 6.572 42.679 6.571 15.6-.001 31.211-2.574 46.141-7.721v35.288c0 9.699 7.891 17.589 17.59 17.589h45.443c1.49 0 2.133.988 2.383 1.576.251.589.517 1.736-.518 2.81l-38.688 40.176c-2.873 2.983-2.783 7.731.2 10.604 1.455 1.401 3.329 2.098 5.201 2.098 1.967 0 3.932-.769 5.403-2.298l38.688-40.176c4.978-5.169 6.325-12.482 3.517-19.085s-9.011-10.706-16.187-10.706h-45.443c-1.428 0-2.59-1.162-2.59-2.589v-41.445c13.03-6.257 25.305-14.633 36.307-25.146 27.235-26.026 42.709-61.092 43.572-98.739.747-32.566-9.526-63.686-29.148-89.112zm-154.55-2.834v-42.278c0-1.428 1.162-2.59 2.59-2.59h83.641c1.428 0 2.589 1.162 2.589 2.59v43.344c-28.644-9.837-59.899-10.227-88.82-1.066z"/><path d="m410.241 0c-4.143 0-7.5 3.358-7.5 7.5v117.63c0 4.142 3.357 7.5 7.5 7.5s7.5-3.358 7.5-7.5v-117.63c0-4.142-3.357-7.5-7.5-7.5z"/><path d="m101.759 0c-4.143 0-7.5 3.358-7.5 7.5v117.63c0 4.142 3.357 7.5 7.5 7.5s7.5-3.358 7.5-7.5v-117.63c0-4.142-3.358-7.5-7.5-7.5z"/></g></g></svg>