<svg id="Capa_1" enable-background="new 0 0 512 512" height="512" viewBox="0 0 512 512" width="512" xmlns="http://www.w3.org/2000/svg"><g><circle cx="454" cy="75.166" fill="#ffc682" r="31.5"/><path d="m421.846 204.334h63.809c9.994 0 18.846-8.674 18.846-18.668v-4c0-27.483-23.029-49.668-50.513-49.668h-.475c-27.483 0-49.763 22.279-49.763 49.763v4.477c0 9.994 8.102 18.096 18.096 18.096z" fill="#50758d"/><circle cx="454" cy="339.166" fill="#ffc682" r="31.5"/><path d="m421.846 468.334h63.809c9.994 0 18.846-8.674 18.846-18.668v-4c0-27.483-23.029-49.668-50.513-49.668h-.475c-27.483 0-49.763 22.279-49.763 49.763v4.477c0 9.994 8.102 18.096 18.096 18.096z" fill="#50758d"/><path d="m289.5 84v80c0 5.523-4.477 10-10 10h-51l-10-49.154 10-50.846h51c5.523 0 10 4.477 10 10z" fill="#f5f5f5"/><path d="m289.5 348v80c0 5.523-4.477 10-10 10h-51l-10-50 10-50h51c5.523 0 10 4.477 10 10z" fill="#f5f5f5"/><path d="m228.5 338v100h-37.43c-100.05 0-183.52-81.86-183.57-181.91v-.09l49.883-10 50.117 10c0 22.64 9.18 43.14 24.02 57.98s35.34 24.02 57.98 24.02z" fill="#fd646f"/><path d="m228.5 74v100h-39c-.64 0-1.28.01-1.92.03-44.4 1.01-80.08 37.32-80.08 81.97h-100c0-100.36 81.64-182 182-182z" fill="#2edffc"/><g fill="#fad207"><path d="m372.5 445.5h-54c-4.143 0-7.5-3.357-7.5-7.5s3.357-7.5 7.5-7.5h54c4.143 0 7.5 3.357 7.5 7.5s-3.357 7.5-7.5 7.5z"/><path d="m362.5 345.5h-42c-4.143 0-7.5-3.357-7.5-7.5s3.357-7.5 7.5-7.5h42c4.143 0 7.5 3.357 7.5 7.5s-3.357 7.5-7.5 7.5z"/><path d="m397.5 395.5h-31.5c-4.143 0-7.5-3.357-7.5-7.5s3.357-7.5 7.5-7.5h31.5c4.143 0 7.5 3.357 7.5 7.5s-3.357 7.5-7.5 7.5z"/><path d="m334 395.5h-9.5c-4.143 0-7.5-3.357-7.5-7.5s3.357-7.5 7.5-7.5h9.5c4.143 0 7.5 3.357 7.5 7.5s-3.357 7.5-7.5 7.5z"/><path d="m372.5 81.5h-54c-4.143 0-7.5-3.357-7.5-7.5s3.357-7.5 7.5-7.5h54c4.143 0 7.5 3.357 7.5 7.5s-3.357 7.5-7.5 7.5z"/><path d="m362.5 181.5h-42c-4.143 0-7.5-3.357-7.5-7.5s3.357-7.5 7.5-7.5h42c4.143 0 7.5 3.357 7.5 7.5s-3.357 7.5-7.5 7.5z"/><path d="m397.5 131.5h-21.5c-4.143 0-7.5-3.357-7.5-7.5s3.357-7.5 7.5-7.5h21.5c4.143 0 7.5 3.357 7.5 7.5s-3.357 7.5-7.5 7.5z"/><path d="m344 131.5h-19.5c-4.143 0-7.5-3.357-7.5-7.5s3.357-7.5 7.5-7.5h19.5c4.143 0 7.5 3.357 7.5 7.5s-3.357 7.5-7.5 7.5z"/></g><path d="m289.5 149v15c0 5.523-4.477 10-10 10h-51l-10-12.5 10-12.5z" fill="#e6e6e6"/><path d="m228.5 149v25h-39c-.64 0-1.28.01-1.92.03-44.4 1.01-80.08 37.32-80.08 81.97-.63-4.07 0-20.76 0-25 0-45.29 47.71-82 93-82z" fill="#27bdf3"/><path d="m289.5 413v15c0 5.523-4.477 10-10 10h-51l-10-12.5 10-12.5z" fill="#e6e6e6"/><path d="m228.5 413v25c-33.847.421-72.337 1.186-103.84-12.542-67.975-25.893-117.21-94.581-117.15-167.688 13.3 87.52 90.57 155.23 181.56 155.23z" fill="#fc4755"/><path d="m441.85 204.33h-20c-10 0-18.1-8.1-18.1-18.09v-4.48c0-27.48 22.28-49.76 49.76-49.76h.48c3.34 0 6.61.33 9.78.96-22.82 4.52-40.02 24.65-40.02 48.8v4.48c0 9.99 8.1 18.09 18.1 18.09z" fill="#2b597f"/><path d="m441.85 468.33h-20c-10 0-18.1-8.1-18.1-18.09v-4.48c0-27.48 22.28-49.76 49.76-49.76h.48c3.34 0 6.61.33 9.78.96-22.82 4.52-40.02 24.65-40.02 48.8v4.48c0 9.99 8.1 18.09 18.1 18.09z" fill="#2b597f"/><path d="m472.64 100.56c-5.22 3.84-11.66 6.11-18.64 6.11-17.4 0-31.5-14.11-31.5-31.5 0-16.51 12.69-30.05 28.86-31.39-7.8 5.72-12.86 14.97-12.86 25.39 0 17.39 14.1 31.5 31.5 31.5.89 0 1.77-.04 2.64-.11z" fill="#ffac5c"/><path d="m472.64 364.556c-5.22 3.84-11.66 6.11-18.64 6.11-17.4 0-31.5-14.11-31.5-31.5 0-16.51 12.69-30.05 28.86-31.39-7.8 5.72-12.86 14.97-12.86 25.39 0 17.39 14.1 31.5 31.5 31.5.89 0 1.77-.04 2.64-.11z" fill="#ffac5c"/><path d="m372.5 445.5h-54c-4.143 0-7.5-3.357-7.5-7.5s3.357-7.5 7.5-7.5h54c4.143 0 7.5 3.357 7.5 7.5s-3.357 7.5-7.5 7.5z" fill="#fad207"/><path d="m362.5 345.5h-42c-4.143 0-7.5-3.357-7.5-7.5s3.357-7.5 7.5-7.5h42c4.143 0 7.5 3.357 7.5 7.5s-3.357 7.5-7.5 7.5z" fill="#fad207"/><path d="m397.5 395.5h-31.5c-4.143 0-7.5-3.357-7.5-7.5s3.357-7.5 7.5-7.5h31.5c4.143 0 7.5 3.357 7.5 7.5s-3.357 7.5-7.5 7.5z" fill="#fad207"/><path d="m334 395.5h-9.5c-4.143 0-7.5-3.357-7.5-7.5s3.357-7.5 7.5-7.5h9.5c4.143 0 7.5 3.357 7.5 7.5s-3.357 7.5-7.5 7.5z" fill="#fad207"/><path d="m372.5 81.5h-54c-4.143 0-7.5-3.357-7.5-7.5s3.357-7.5 7.5-7.5h54c4.143 0 7.5 3.357 7.5 7.5s-3.357 7.5-7.5 7.5z" fill="#fad207"/><path d="m362.5 181.5h-42c-4.143 0-7.5-3.357-7.5-7.5s3.357-7.5 7.5-7.5h42c4.143 0 7.5 3.357 7.5 7.5s-3.357 7.5-7.5 7.5z" fill="#fad207"/><path d="m397.5 131.5h-21.5c-4.143 0-7.5-3.357-7.5-7.5s3.357-7.5 7.5-7.5h21.5c4.143 0 7.5 3.357 7.5 7.5s-3.357 7.5-7.5 7.5z" fill="#fad207"/><path d="m344 131.5h-19.5c-4.143 0-7.5-3.357-7.5-7.5s3.357-7.5 7.5-7.5h19.5c4.143 0 7.5 3.357 7.5 7.5s-3.357 7.5-7.5 7.5z" fill="#fad207"/></g><g><path d="m454 114.166c21.505 0 39-17.495 39-39s-17.495-39-39-39-39 17.495-39 39 17.495 39 39 39zm0-63c13.233 0 24 10.767 24 24s-10.767 24-24 24-24-10.767-24-24 10.767-24 24-24z"/><path d="m453.987 124.499h-.475c-31.575 0-57.263 25.688-57.263 57.262v4.478c0 14.113 11.482 25.596 25.596 25.596h63.809c14.281 0 26.346-11.983 26.346-26.168v-4c0-31.523-26.024-57.168-58.013-57.168zm43.013 61.167c0 5.845-5.408 11.168-11.346 11.168h-63.809c-5.843 0-10.596-4.753-10.596-10.596v-4.478c0-23.303 18.959-42.262 42.263-42.262h.475c23.718 0 43.013 18.916 43.013 42.167z"/><path d="m493 339.166c0-21.505-17.495-39-39-39s-39 17.495-39 39 17.495 39 39 39 39-17.495 39-39zm-63 0c0-13.233 10.767-24 24-24s24 10.767 24 24-10.767 24-24 24-24-10.767-24-24z"/><path d="m453.987 388.499h-.475c-31.575 0-57.263 25.688-57.263 57.262v4.478c0 14.113 11.482 25.596 25.596 25.596h63.809c14.281 0 26.346-11.983 26.346-26.168v-4c0-31.523-26.024-57.168-58.013-57.168zm43.013 61.167c0 5.845-5.408 11.168-11.346 11.168h-63.809c-5.843 0-10.596-4.753-10.596-10.596v-4.478c0-23.303 18.959-42.262 42.263-42.262h.475c23.718 0 43.013 18.916 43.013 42.167z"/><path d="m289.5 66.5h-100c-50.557 0-98.134 19.744-133.968 55.595-35.806 35.822-55.523 83.363-55.531 133.876 0 .01-.001.019-.001.029 0 .006.001.012.001.018 0 .026-.001.051-.001.077.027 55.213 24.697 107.703 67.683 144.011 3.148 2.663 7.886 2.286 10.569-.89 2.673-3.165 2.274-7.896-.89-10.569-37.675-31.821-60.062-77.093-62.181-125.147h85.136c3.823 45.854 42.358 82 89.183 82h31.5v85h-29.926c-29.943 0-59.647-7.798-85.903-22.551-3.61-2.029-8.184-.747-10.212 2.864-2.029 3.611-.747 8.184 2.864 10.212 28.494 16.012 60.74 24.475 93.251 24.475h98.426c4.143 0 7.5-3.357 7.5-7.5v-100c0-4.143-3.357-7.5-7.5-7.5h-100c-41.079 0-74.5-33.421-74.5-74.5 0-18.603 6.894-36.414 19.41-50.154 2.79-3.062 2.569-7.806-.493-10.595-3.061-2.79-7.805-2.568-10.595.493-13.348 14.651-21.358 33.157-22.995 52.756h-85.16c1.844-43.708 19.771-84.584 50.974-115.802 33.002-33.015 76.811-51.198 123.359-51.198h31.5v85h-31.5c-12.078 0-23.8 2.367-34.84 7.037-3.814 1.613-5.6 6.014-3.985 9.829 1.613 3.815 6.014 5.599 9.829 3.985 9.181-3.883 18.937-5.852 28.996-5.852h100c4.143 0 7.5-3.357 7.5-7.5v-99.999c0-4.143-3.357-7.5-7.5-7.5zm-7.5 364h-46v-85h46zm0-264h-46v-85h46z"/><path d="m318.5 81.5h54c4.143 0 7.5-3.357 7.5-7.5s-3.357-7.5-7.5-7.5h-54c-4.143 0-7.5 3.357-7.5 7.5s3.357 7.5 7.5 7.5z"/><path d="m313 174c0 4.143 3.357 7.5 7.5 7.5h42c4.143 0 7.5-3.357 7.5-7.5s-3.357-7.5-7.5-7.5h-42c-4.143 0-7.5 3.357-7.5 7.5z"/><path d="m368.5 124c0 4.143 3.357 7.5 7.5 7.5h21.5c4.143 0 7.5-3.357 7.5-7.5s-3.357-7.5-7.5-7.5h-21.5c-4.143 0-7.5 3.357-7.5 7.5z"/><path d="m344 131.5c4.143 0 7.5-3.357 7.5-7.5s-3.357-7.5-7.5-7.5h-19.5c-4.143 0-7.5 3.357-7.5 7.5s3.357 7.5 7.5 7.5z"/><path d="m372.5 430.5h-54c-4.143 0-7.5 3.357-7.5 7.5s3.357 7.5 7.5 7.5h54c4.143 0 7.5-3.357 7.5-7.5s-3.357-7.5-7.5-7.5z"/><path d="m370 338c0-4.143-3.357-7.5-7.5-7.5h-42c-4.143 0-7.5 3.357-7.5 7.5s3.357 7.5 7.5 7.5h42c4.143 0 7.5-3.357 7.5-7.5z"/><path d="m366 395.5h31.5c4.143 0 7.5-3.357 7.5-7.5s-3.357-7.5-7.5-7.5h-31.5c-4.143 0-7.5 3.357-7.5 7.5s3.357 7.5 7.5 7.5z"/><path d="m324.5 380.5c-4.143 0-7.5 3.357-7.5 7.5s3.357 7.5 7.5 7.5h9.5c4.143 0 7.5-3.357 7.5-7.5s-3.357-7.5-7.5-7.5z"/></g></svg>