<?xml version="1.0" encoding="iso-8859-1"?>
<!-- Generator: Adobe Illustrator 19.0.0, SVG Export Plug-In . SVG Version: 6.00 Build 0)  -->
<svg version="1.1" id="Capa_1" xmlns="http://www.w3.org/2000/svg" xmlns:xlink="http://www.w3.org/1999/xlink" x="0px" y="0px"
	 viewBox="0 0 512 512" style="enable-background:new 0 0 512 512;" xml:space="preserve">
<path style="fill:#90D1F3;" d="M344.262,291.344L344.262,291.344c0-22.763-8.261-44.749-23.248-61.872l-38.535-44.043v-70.61
	h-52.957v70.61l-38.535,44.043c-14.987,17.123-23.248,39.109-23.248,61.872l0,0v203.003c0,9.753,7.899,17.652,17.652,17.652H326.61
	c9.753,0,17.652-7.899,17.652-17.652L344.262,291.344L344.262,291.344z"/>
<rect x="229.477" y="114.829" style="fill:#0D529E;" width="52.957" height="35.305"/>
<path style="fill:#FCBF29;" d="M450.177,467.869H97.128V344.302h-8.826c-14.625,0-26.479-11.854-26.479-26.479l0,0
	c0-14.625,11.854-26.479,26.479-26.479h361.875V467.869z"/>
<path style="fill:#F28D01;" d="M61.823,361.954v97.088c0,14.625,11.854,26.479,26.479,26.479l0,0h8.826V344.302h-8.826
	c-14.625,0-26.479-11.854-26.479-26.479l0,0V361.954z"/>
<circle style="fill:#FFFFFF;" cx="255.956" cy="361.963" r="35.305"/>
<path style="fill:#FCBF29;" d="M291.305,114.82V92.428c21.792-19.497,23.663-52.975,4.166-74.776
	c-19.497-21.801-52.975-23.663-74.776-4.166s-23.672,52.975-4.175,74.776c1.306,1.465,2.701,2.86,4.166,4.166v22.392H291.305z"/>
<path style="opacity:0.5;fill:#F28D01;enable-background:new    ;" d="M278.065,83.928c-29.25-0.035-52.931-23.769-52.896-53.019
	c0.009-8.597,2.109-17.052,6.117-24.652c-25.826,13.61-35.729,45.579-22.118,71.404c2.93,5.569,6.84,10.565,11.527,14.766v22.392
	h70.61V92.428c4.616-4.157,8.473-9.1,11.386-14.59C295.1,81.845,286.644,83.937,278.065,83.928z"/>
<g>
	<rect x="247.129" y="79.524" style="fill:#FFFFFF;" width="17.652" height="35.305"/>
	<path style="fill:#FFFFFF;" d="M256,88.341c-2.339,0-4.59-0.927-6.24-2.586l-26.479-26.479l12.489-12.48L256,67.035l20.239-20.239
		l12.489,12.48l-26.479,26.479C260.589,87.415,258.339,88.341,256,88.341z"/>
</g>
<g>
	<rect x="194.172" y="106.003" style="fill:#591E00;" width="123.567" height="17.652"/>
	<rect x="247.129" y="353.137" style="fill:#591E00;" width="17.652" height="17.652"/>
	<rect x="211.825" y="423.746" style="fill:#591E00;" width="88.262" height="17.652"/>
	<rect x="132.477" y="317.832" style="fill:#591E00;" width="17.652" height="17.652"/>
	<rect x="132.477" y="353.137" style="fill:#591E00;" width="17.652" height="17.652"/>
	<rect x="132.477" y="388.441" style="fill:#591E00;" width="17.652" height="17.652"/>
	<rect x="132.477" y="423.746" style="fill:#591E00;" width="17.652" height="17.652"/>
</g>
<g>
</g>
<g>
</g>
<g>
</g>
<g>
</g>
<g>
</g>
<g>
</g>
<g>
</g>
<g>
</g>
<g>
</g>
<g>
</g>
<g>
</g>
<g>
</g>
<g>
</g>
<g>
</g>
<g>
</g>
</svg>
