<svg id="Repair_Service" height="512" viewBox="0 0 64 64" width="512" xmlns="http://www.w3.org/2000/svg" data-name="Repair Service"><path d="m3 5h58v54h-58z" fill="#91d1f5"/><rect fill="#ffc740" height="32" rx="2" width="34" x="15" y="20"/><path d="m20.1 27.1 4 4 2.121-.707.708-2.121-4-4a5.991 5.991 0 0 1 8.578 5.486 3.932 3.932 0 0 0 1.164 2.842l9.815 9.815a3 3 0 0 1 0 4.242 3 3 0 0 1 -4.243 0l-9.807-9.807a4.064 4.064 0 0 0 -2.9-1.167 5.99 5.99 0 0 1 -5.436-8.583z" fill="#d8d7da"/><path d="m38.657 23.343a3 3 0 0 1 3 3v11a0 0 0 0 1 0 0h-6a0 0 0 0 1 0 0v-11a3 3 0 0 1 3-3z" fill="#8cc63e" transform="matrix(.707 .707 -.707 .707 32.778 -18.447)"/><path d="m28.757 43.071 6.364-6.364-2.828-2.828-6.364 6.364h-1.414l-3.536 4.949 2.829 2.829 4.949-3.536z" fill="#e9e9ea"/><path d="m3 5h58v8h-58z" fill="#006ca9"/><path d="m47 19h-30a3 3 0 0 0 -3 3v28a3 3 0 0 0 3 3h30a3 3 0 0 0 3-3v-28a3 3 0 0 0 -3-3zm1 31a1 1 0 0 1 -1 1h-30a1 1 0 0 1 -1-1v-28a1 1 0 0 1 1-1h30a1 1 0 0 1 1 1z"/><path d="m45.485 27.515a4 4 0 0 0 -6.828-2.828l-6 6a2.9 2.9 0 0 1 -.146-.915 6.938 6.938 0 0 0 -2.045-5.042 7.017 7.017 0 0 0 -7.966-1.352 1 1 0 0 0 -.273 1.61l3.56 3.552-.357 1.06-1.061.355-3.562-3.562a1.009 1.009 0 0 0 -.875-.279 1 1 0 0 0 -.734.554 7.076 7.076 0 0 0 .636 7.124 6.968 6.968 0 0 0 5.658 2.888 3.212 3.212 0 0 1 1.946.639l-1.923 1.924h-1a1 1 0 0 0 -.814.419l-3.535 4.949a1 1 0 0 0 .106 1.288l2.828 2.829a1 1 0 0 0 1.288.107l4.95-3.536a1 1 0 0 0 .419-.814v-1l1.951-1.951 5.824 5.833a3.971 3.971 0 0 0 2.828 1.173 4.005 4.005 0 0 0 2.84-6.84l-5.122-5.122 6.238-6.238a3.971 3.971 0 0 0 1.169-2.825zm-19.96 7.165h-.025a4.971 4.971 0 0 1 -4.931-5.7l2.827 2.826a1 1 0 0 0 1.024.241l2.12-.71a1 1 0 0 0 .631-.63l.71-2.121a1 1 0 0 0 -.242-1.025l-2.826-2.82a5.014 5.014 0 0 1 4.243 1.4 4.959 4.959 0 0 1 1.457 3.6 4.947 4.947 0 0 0 .63 2.453l-.261.261a1 1 0 0 0 0 1.414l-2.028 2.031a5.081 5.081 0 0 0 -3.329-1.22zm2.526 7.684a1 1 0 0 0 -.293.707v.9l-3.842 2.744-1.631-1.631 2.744-3.841h.9a1 1 0 0 0 .707-.293l5.657-5.657 1.414 1.414zm13.732.753a2.012 2.012 0 0 1 .006 2.83 2.055 2.055 0 0 1 -2.841.007l-5.825-5.834 2-2a1 1 0 0 0 1.414 0l.126-.126zm1.117-14.188-7.072 7.071-2.828-2.829 7.071-7.07a2.047 2.047 0 0 1 2.828 0 2 2 0 0 1 0 2.828z"/><path d="m61 4h-58a1 1 0 0 0 -1 1v54a1 1 0 0 0 1 1h58a1 1 0 0 0 1-1v-54a1 1 0 0 0 -1-1zm-1 54h-56v-44h56zm0-46h-56v-6h56z"/><path d="m6 8h2v2h-2z"/><path d="m10 8h2v2h-2z"/><path d="m14 8h2v2h-2z"/></svg>