<svg height="512" viewBox="0 0 64 64" width="512" xmlns="http://www.w3.org/2000/svg"><g id="megaphone"><path d="m47.08 41.62-24.76 5.99-7.09 1.72-.5-.87-4-6.92-.5-.87 22.61-23.72a2 2 0 0 1 3.18.37l12.32 21.36a2 2 0 0 1 -1.26 2.94z" fill="#57a4ff"/><path d="m47.08 41.62-24.76 5.99-7.09 1.72-.5-.87-2.51-4.34 2.1-.51 24.76-5.99a2 2 0 0 0 1.26-2.94l-9.2-15.95 1.7-1.78a2 2 0 0 1 3.18.37l12.32 21.36a2 2 0 0 1 -1.26 2.94z" fill="#006df0"/><circle cx="17" cy="21" fill="#ff7956" r="14"/><path d="m31 21a13.994 13.994 0 0 1 -25.69 7.69 13.99 13.99 0 0 0 19.38-19.38 13.969 13.969 0 0 1 6.31 11.69z" fill="#ff5023"/><path d="m47.37 25a5.992 5.992 0 0 1 -2.19 8.2l-6-10.4a6 6 0 0 1 8.19 2.2z" fill="#c6c5ca"/><path d="m48.18 28a6.007 6.007 0 0 1 -3 5.2l-1.55-2.69a5.979 5.979 0 0 0 -.26-5.51 5.882 5.882 0 0 0 -3.2-2.65 5.774 5.774 0 0 1 2-.35 6.015 6.015 0 0 1 6.01 6z" fill="#898890"/><path d="m22.32 47.61 6.47 11.21-4.33 2.5a2 2 0 0 1 -2.73-.73l-6.5-11.26z" fill="#00d7df"/><path d="m28.79 58.82-4.33 2.5a2 2 0 0 1 -2.73-.73l3.06-1.77-5.98-10.36 3.51-.85z" fill="#009698"/><circle cx="22" cy="26" fill="#ffde55" r="3"/><path d="m9.002 42.004h3.996v7.993h-3.996z" fill="#c6c5ca" transform="matrix(.866 -.5 .5 .866 -21.544 11.68)"/><circle cx="12" cy="16" fill="#ffde55" r="3"/><path d="m11.27 50.46 1 1.74-3.47 2a2 2 0 0 1 -2.73-.74l-4-6.92a2.018 2.018 0 0 1 .73-2.74l3.47-2 1 1.74z" fill="#ffde55"/><path d="m49.21 38.18-2.7-4.69a6.989 6.989 0 0 0 -6.92-11.98l-2.71-4.69a3 3 0 0 0 -4.77-.56l-.68.71a14.99 14.99 0 1 0 -17.76 18.64l-4.16 4.37a1 1 0 0 0 -.15 1.19l-1.73 1-.5-.87a.993.993 0 0 0 -1.36-.36l-3.47 2a3 3 0 0 0 -1.09 4.1l4 6.92a2.951 2.951 0 0 0 1.82 1.4 3 3 0 0 0 .78.11 2.933 2.933 0 0 0 1.49-.41l3.47-2a1 1 0 0 0 .36-1.36l-.5-.87 1.73-1a.01.01 0 0 1 .01.01l6.5 11.25a2.994 2.994 0 0 0 4.09 1.1l4.33-2.5a1.026 1.026 0 0 0 .47-.61 1.007 1.007 0 0 0 -.1-.76l-5.8-10.05 23.46-5.68a2.994 2.994 0 0 0 1.89-4.41zm-2.7-12.68a5.017 5.017 0 0 1 -1.02 6.24l-4.89-8.48a5 5 0 0 1 5.91 2.24zm-42.51-4.5a13 13 0 1 1 13 13 13.012 13.012 0 0 1 -13-13zm4.3 32.33a1.007 1.007 0 0 1 -.76.1.971.971 0 0 1 -.6-.47l-4-6.92a1.007 1.007 0 0 1 .36-1.37l2.6-1.5.5.87 2 3.46 2.5 4.33zm3.33-4.23-1.5-2.6-1.5-2.6 1.73-1 3 5.2zm15.8 9.35-3.47 2a.945.945 0 0 1 -.75.1.983.983 0 0 1 -.61-.46l-5.83-10.1 5.06-1.23zm20.1-18.38a.994.994 0 0 1 -.68.58l-31.13 7.53-.12-.22-4-6.92a.01.01 0 0 0 -.01-.01l-.12-.21 4.63-4.87c.3.02.6.05.9.05a15.018 15.018 0 0 0 15-15 14.7 14.7 0 0 0 -.09-1.63l1.65-1.73a.964.964 0 0 1 .84-.31 1.008 1.008 0 0 1 .75.49l3.16 5.47v.01l6 10.4a.01.01 0 0 1 .01.01l3.16 5.47a.966.966 0 0 1 .05.89z"/><path d="m42.327 10.608h8.485v2h-8.485z" transform="matrix(.259 -.966 .966 .259 23.304 53.586)"/><path d="m43.325 17.438h2.828v2h-2.828z" transform="matrix(.259 -.966 .966 .259 15.35 56.88)"/><path d="m52.167 19.5h6v2h-6z" transform="matrix(.866 -.5 .5 .866 -2.86 30.325)"/><path d="m48.904 22.25h3v2h-3z" transform="matrix(.866 -.5 .5 .866 -4.872 28.316)"/><path d="m57.569 28.15h2v8.485h-2z" transform="matrix(.259 -.966 .966 .259 12.122 80.582)"/><path d="m50.739 29.148h2v2.828h-2z" transform="matrix(.259 -.966 .966 .259 8.828 72.629)"/><path d="m4 39h2v-2h2v-2h-2v-2h-2v2h-2v2h2z"/><path d="m27 8h2v-2h2v-2h-2v-2h-2v2h-2v2h2z"/><path d="m35 13h2v-2h2v-2h-2v-2h-2v2h-2v2h2z"/><path d="m22 22a4 4 0 1 0 4 4 4 4 0 0 0 -4-4zm0 6a2 2 0 1 1 2-2 2 2 0 0 1 -2 2z"/><path d="m12 20a4 4 0 1 0 -4-4 4 4 0 0 0 4 4zm0-6a2 2 0 1 1 -2 2 2 2 0 0 1 2-2z"/><path d="m5.686 20h22.627v2h-22.627z" transform="matrix(.707 -.707 .707 .707 -9.87 18.172)"/></g></svg>