<svg id="Capa_1" enable-background="new 0 0 512 512" height="512" viewBox="0 0 512 512" width="512" xmlns="http://www.w3.org/2000/svg"><g><g><g><path d="m241.691 355.152c-20.459 0-40.917-7.787-56.491-23.361l-17.967-17.966c-15.09-15.09-23.4-35.152-23.4-56.492s8.31-41.402 23.4-56.491l55.323-55.324c31.151-31.149 81.834-31.149 112.983 0l17.966 17.966c15.09 15.09 23.4 35.152 23.4 56.492s-8.31 41.402-23.4 56.491l-55.323 55.324c-15.574 15.574-36.033 23.361-56.491 23.361zm37.358-188.085c-8.953 0-17.904 3.407-24.72 10.223l-55.323 55.324c-6.603 6.602-10.24 15.381-10.24 24.719 0 9.339 3.637 18.117 10.24 24.72l17.966 17.966c13.631 13.63 35.809 13.63 49.439 0l55.323-55.324c6.603-6.602 10.24-15.381 10.24-24.719s-3.637-18.117-10.24-24.72l-17.966-17.966c-6.814-6.814-15.768-10.223-24.719-10.223z" fill="#7c8b96"/></g></g><g><g><path d="m206.99 470.716c-21.34 0-41.402-8.31-56.492-23.399l-17.966-17.966c-15.09-15.09-23.4-35.151-23.4-56.491s8.31-41.403 23.399-56.492l55.324-55.323c15.089-15.09 35.151-23.399 56.491-23.399s41.402 8.31 56.491 23.4l17.966 17.965c15.09 15.09 23.4 35.151 23.4 56.491s-8.31 41.403-23.399 56.492l-55.324 55.323c-15.088 15.089-35.15 23.399-56.49 23.399zm37.358-188.139c-9.338 0-18.116 3.636-24.719 10.24l-55.324 55.323c-6.602 6.602-10.239 15.382-10.239 24.72s3.637 18.116 10.239 24.719l17.966 17.966c6.603 6.603 15.382 10.24 24.719 10.24 9.338 0 18.116-3.636 24.719-10.24l55.324-55.323c6.602-6.602 10.239-15.382 10.239-24.72s-3.636-18.116-10.239-24.719l-17.967-17.966c-6.603-6.604-15.381-10.24-24.718-10.24z" fill="#7c8b96"/></g></g><g><path d="m55.196 81.343-4.993 11.871v380.234c0 17.156 13.907 31.063 31.063 31.063h349.468c17.156 0 31.063-13.907 31.063-31.063v-380.234l-4.992-11.871z" fill="#d8eafb"/></g><g><path d="m410.933 81.343v341.241c0 17.156-13.907 31.063-31.063 31.063h-329.667v19.801c0 17.156 13.907 31.063 31.063 31.063h349.468c17.156 0 31.063-13.907 31.063-31.063v-380.234l-4.992-11.871z" fill="#b3d8fb"/></g><g><path d="m430.734 7.489h-349.468c-17.156 0-31.063 13.907-31.063 31.063v54.662h411.594v-54.662c0-17.155-13.908-31.063-31.063-31.063z" fill="#1690fb"/></g><g><path d="m430.734 7.489h-19.801v85.725h50.864v-54.662c0-17.155-13.908-31.063-31.063-31.063z" fill="#0571f9"/></g><g><g><path d="m376.909 219.972c0 21.348-8.308 41.408-23.405 56.495l-20.929 20.939c-3.625-6.68-8.238-12.871-13.769-18.392l-15.686-15.696 18.612-18.622c6.61-6.6 10.245-15.387 10.245-24.723s-3.635-18.113-10.245-24.713l-17.963-17.973c-6.81-6.81-15.766-10.215-24.723-10.215-8.947 0-17.903 3.405-24.713 10.215l-55.327 55.327c-6.6 6.6-10.235 15.377-10.235 24.723 0 .899.03 1.797.11 2.696.619 8.318 4.164 16.056 10.125 22.017l15.686 15.696 2.277 2.277c6.82 6.82 15.766 10.225 24.723 10.225s17.903-3.405 24.723-10.225l4.933-4.933 15.686 15.697c5.961 5.961 9.506 13.689 10.125 22.007-15.447 14.908-35.457 22.356-55.467 22.356-20.459 0-40.919-7.788-56.495-23.355l-2.277-2.277-15.686-15.696c-5.532-5.522-10.145-11.713-13.769-18.393-6.291-11.563-9.626-24.573-9.626-38.093 0-21.348 8.308-41.408 23.395-56.495l55.327-55.327c31.143-31.143 81.827-31.143 112.98 0l17.963 17.973c15.097 15.087 23.405 35.147 23.405 56.485z" fill="#7c8b96"/></g></g><g><g><path d="m342.201 335.499c0 21.338-8.308 41.408-23.395 56.495l-55.327 55.327c-15.087 15.087-35.147 23.395-56.485 23.395-21.348 0-41.408-8.308-56.495-23.395l-17.963-17.973c-15.097-15.087-23.405-35.147-23.405-56.485 0-21.348 8.308-41.408 23.405-56.495l20.929-20.939c3.625 6.68 8.238 12.871 13.769 18.393l15.686 15.696-18.612 18.622c-6.61 6.6-10.245 15.387-10.245 24.723s3.635 18.113 10.245 24.713l17.963 17.973c3.295 3.305 7.149 5.861 11.333 7.589 4.184 1.737 8.717 2.646 13.39 2.646 9.336 0 18.113-3.635 24.713-10.235l55.327-55.327c6.6-6.6 10.235-15.387 10.235-24.723 0-.909-.03-1.807-.11-2.706-.619-8.318-4.164-16.046-10.125-22.007l-15.686-15.697-2.277-2.276c-6.61-6.6-15.387-10.235-24.723-10.235s-18.113 3.634-24.723 10.235l-4.933 4.933-15.686-15.696c-5.961-5.961-9.506-13.699-10.125-22.017 14.978-14.448 34.608-22.386 55.467-22.386 21.338 0 41.398 8.307 56.495 23.395l2.277 2.277 15.686 15.696c5.532 5.522 10.145 11.712 13.769 18.392 6.291 11.562 9.626 24.572 9.626 38.092z" fill="#9cabb8"/></g></g><g><g><path d="m353.504 163.487-17.963-17.973c-.021-.021-.044-.04-.065-.062l.781.781c15.09 15.09 23.4 35.152 23.4 56.492s-8.31 41.402-23.4 56.491l-18.623 18.624 1.172 1.173c5.532 5.522 10.145 11.712 13.769 18.392l20.929-20.939c15.097-15.087 23.405-35.147 23.405-56.495 0-21.337-8.308-41.397-23.405-56.484z" fill="#465961"/></g><g><path d="m285.862 309.614-4.928 4.928c-15.575 15.574-36.034 23.361-56.492 23.361-20.443 0-40.884-7.776-56.454-23.326l14.931 14.94 2.277 2.277c15.577 15.566 36.036 23.355 56.495 23.355 20.01 0 40.02-7.449 55.467-22.356-.619-8.318-4.164-16.046-10.125-22.007z" fill="#465961"/></g></g><g><g><path d="m332.575 297.406c-3.625-6.68-8.238-12.871-13.769-18.392l-15.686-15.696-2.277-2.277c-.047-.047-.097-.09-.144-.137l.857.857c15.09 15.09 23.4 35.151 23.4 56.491s-8.31 41.403-23.399 56.492l-55.324 55.323c-15.089 15.09-35.151 23.399-56.491 23.399-21.284 0-41.295-8.269-56.371-23.284l17.129 17.138c15.087 15.087 35.147 23.395 56.495 23.395 21.338 0 41.398-8.308 56.485-23.395l55.327-55.327c15.087-15.087 23.395-35.157 23.395-56.495-.001-13.519-3.336-26.529-9.627-38.092z" fill="#7c8b96"/></g></g><g><path d="m340.836 140.221c-34.069-34.068-89.504-34.068-123.574 0l-26.093 26.093c-2.925 2.925-2.925 7.666 0 10.592 2.924 2.923 7.666 2.923 10.591 0l26.093-26.093c28.231-28.229 74.163-28.229 102.393 0l17.966 17.966c13.675 13.675 21.206 31.856 21.206 51.197 0 19.339-7.531 37.521-21.206 51.196l-14.264 14.264c-2.921-4.165-6.209-8.087-9.844-11.716l-10.399-10.404 13.325-13.326c8.017-8.017 12.433-18.676 12.433-30.015 0-11.338-4.416-21.998-12.433-30.015l-17.966-17.966c-8.008-8.007-18.667-12.416-30.015-12.416-11.349 0-22.008 4.409-30.015 12.416l-55.323 55.324c-8.018 8.016-12.433 18.676-12.433 30.014s4.416 21.998 12.433 30.016l17.966 17.966c8.276 8.275 19.146 12.412 30.015 12.412 10.709 0 21.413-4.025 29.641-12.057l10.405 10.411c3.881 3.881 6.405 8.624 7.458 13.851-13.153 11.453-29.901 17.733-47.504 17.733-19.364 0-37.545-7.518-51.196-21.168l-17.967-17.966c-13.675-13.675-21.206-31.856-21.206-51.197 0-19.339 7.531-37.521 21.207-51.197l5.983-5.983c2.924-2.924 2.924-7.666 0-10.591-2.925-2.923-7.666-2.924-10.591.001l-5.982 5.982c-16.504 16.505-25.593 38.447-25.593 61.787 0 12.857 2.773 25.284 8.009 36.617l-17.112 17.12c-16.508 16.498-25.6 38.442-25.6 61.792 0 23.345 9.092 45.286 25.597 61.779l17.964 17.975c16.501 16.501 38.445 25.588 61.791 25.588 4.136 0 7.489-3.352 7.489-7.489 0-4.136-3.353-7.489-7.489-7.489-19.345 0-37.528-7.53-51.199-21.2l-17.966-17.977c-13.677-13.667-21.209-31.846-21.209-51.188 0-19.347 7.533-37.53 21.213-51.201l14.271-14.278c2.91 4.146 6.179 8.082 9.835 11.738l10.395 10.395-13.317 13.324c-8.023 8.011-12.442 18.674-12.442 30.022 0 11.343 4.419 22.002 12.436 30.007l17.956 17.966c3.975 3.987 8.611 7.091 13.766 9.219 5.144 2.135 10.615 3.218 16.261 3.218 11.337 0 21.995-4.413 30.008-12.428l55.327-55.327c8.261-8.224 13.358-20.915 12.293-33.335-.761-10.046-5.125-19.522-12.291-26.69l-17.97-17.979c-8.025-8.011-18.683-12.424-30.014-12.424-11.157 0-21.657 4.286-29.643 12.071l-10.404-10.404c-3.846-3.845-6.407-8.631-7.477-13.838 13.178-11.485 29.934-17.784 47.523-17.784 19.336 0 37.519 7.531 51.2 21.202l17.968 17.978c4.975 4.966 9.173 10.573 12.482 16.671 5.701 10.479 8.715 22.415 8.715 34.514 0 19.345-7.53 37.529-21.202 51.199l-55.327 55.327c-5.825 5.825-12.485 10.564-19.793 14.087-3.726 1.795-5.29 6.271-3.495 9.997 1.291 2.679 3.965 4.24 6.752 4.24 1.09 0 2.198-.24 3.246-.745 8.828-4.254 16.862-9.969 23.881-16.987l55.327-55.327c16.501-16.501 25.589-38.445 25.589-61.791 0-12.688-2.758-25.236-8.005-36.618l17.117-17.117c16.504-16.505 25.593-38.447 25.593-61.787s-9.089-45.284-25.593-61.788zm-114.425 270.032c-5.185 5.185-12.081 8.041-19.417 8.041-3.665 0-7.205-.697-10.533-2.079-3.328-1.374-6.318-3.377-8.893-5.961l-17.969-17.979c-5.189-5.181-8.047-12.075-8.047-19.413 0-7.343 2.858-14.242 8.052-19.429l13.394-13.401c16.083 14.611 36.761 22.609 58.693 22.609 15.301 0 30.067-3.939 43.068-11.307-.897 1.267-1.902 2.471-3.022 3.591zm34.086-114.942c-9.696 9.118-24.446 9.857-34.958 2.207 5.119-4.808 11.762-7.451 18.808-7.451 5.883 0 11.484 1.841 16.15 5.244zm-16.149-65.155c-15.284 0-30.046 3.945-43.054 11.323.894-1.259 1.894-2.456 3.008-3.57l55.323-55.324c5.178-5.179 12.077-8.03 19.424-8.03 7.348 0 14.246 2.851 19.424 8.029l17.966 17.967c5.189 5.188 8.046 12.086 8.046 19.424s-2.858 14.235-8.046 19.423l-13.398 13.399c-16.11-14.631-36.789-22.641-58.693-22.641z"/><path d="m469.286 38.552c0-21.258-17.295-38.552-38.552-38.552h-349.468c-21.257 0-38.552 17.294-38.552 38.552v434.895c0 21.258 17.294 38.552 38.552 38.552h349.468c21.257 0 38.552-17.294 38.552-38.552zm-38.552 458.47h-349.468c-12.999 0-23.574-10.576-23.574-23.575v-372.744h307.55c4.136 0 7.489-3.352 7.489-7.489s-3.353-7.489-7.489-7.489h-307.55v-47.173c0-12.999 10.575-23.575 23.574-23.575h349.468c12.999 0 23.574 10.576 23.574 23.575v47.173h-53.37c-4.136 0-7.489 3.352-7.489 7.489s3.353 7.489 7.489 7.489h53.369v372.744c.001 13-10.575 23.575-23.573 23.575z"/><ellipse cx="102.466" cy="50.352" rx="13.936" ry="13.936" transform="matrix(.998 -.071 .071 .998 -3.312 7.39)"/><circle cx="145.336" cy="50.352" r="13.936"/><circle cx="188.207" cy="50.352" r="13.936"/></g></g></svg>