<?xml version="1.0"?>
<svg xmlns="http://www.w3.org/2000/svg" xmlns:xlink="http://www.w3.org/1999/xlink" xmlns:svgjs="http://svgjs.com/svgjs" version="1.1" width="512" height="512" x="0" y="0" viewBox="0 0 512 512" style="enable-background:new 0 0 512 512" xml:space="preserve" class=""><g><g xmlns="http://www.w3.org/2000/svg" id="Outline"><path d="M488,40H456a8,8,0,0,0-8,8V89.353a160.427,160.427,0,0,1-8,50V128a32,32,0,0,0-64,0v24a31.809,31.809,0,0,0,4.724,16.713,7.982,7.982,0,0,0-3.584,11.4l18.717,31.195a24,24,0,1,0,24.286,0l18.717-31.195A176.447,176.447,0,0,0,464,89.353V88h16v7.5a235.256,235.256,0,0,1-30.946,116.529,8,8,0,0,0-.992,2.977L440.938,272H375.16l-7.209-64.884A8,8,0,0,0,352,208v64H336V208a24.028,24.028,0,0,1,24-24V168a40.045,40.045,0,0,0-40,40V312a8,8,0,0,0,8,8h29.633l-5.441,92.494L340.686,424H336V384a8,8,0,0,0-8-8h-4.686l-11.506-11.506-7.769-132.067,7.6-45.614,22.522-37.538A181.33,181.33,0,0,0,360,56V24a8,8,0,0,0-8-8H320a8,8,0,0,0-8,8V56a107.551,107.551,0,0,1-15.324,55.323L291.47,120H283.7A31.8,31.8,0,0,0,288,104V80a32,32,0,0,0-64,0v24a31.8,31.8,0,0,0,4.305,16H220.53l-5.206-8.677A107.551,107.551,0,0,1,200,56V24a8,8,0,0,0-8-8H160a8,8,0,0,0-8,8V56a181.33,181.33,0,0,0,25.836,93.275l22.522,37.538,4.346,26.07,15.782-2.631-4.595-27.567a8,8,0,0,0-1.031-2.8l-23.3-38.841A165.327,165.327,0,0,1,168.194,64h16.065A123.575,123.575,0,0,0,201.6,119.556l7.536,12.56A8,8,0,0,0,216,136h11.47l16.387,27.311a24,24,0,1,0,24.286,0L284.53,136H296a8,8,0,0,0,6.86-3.884l7.536-12.56A123.575,123.575,0,0,0,327.741,64h16.065a165.327,165.327,0,0,1-23.362,77.043l-23.3,38.841a8,8,0,0,0-1.031,2.8L289.223,224H216a8,8,0,0,0-7.986,7.53l-7.822,132.964L188.686,376H184a8,8,0,0,0-8,8v40h-4.686l-11.506-11.506L154.367,320H184a8,8,0,0,0,8-8V208a40.045,40.045,0,0,0-40-40H131.7A31.8,31.8,0,0,0,136,152V128a32,32,0,0,0-64,0v11.351a160.427,160.427,0,0,1-8-50V48a8,8,0,0,0-8-8H24a8,8,0,0,0-8,8V95.5A251.289,251.289,0,0,0,48.258,218.566l5.4,43.226,15.876-1.984-5.6-44.8a8,8,0,0,0-.992-2.977A235.256,235.256,0,0,1,32,95.5V88H48v1.353a176.447,176.447,0,0,0,25.14,90.763l18.717,31.195a24,24,0,1,0,24.286,0L132.53,184H152a24.028,24.028,0,0,1,24,24v64H160V208a8,8,0,0,0-15.951-.884L136.84,272H64a8,8,0,0,0-7.986,7.53L48.192,412.494,34.343,426.343A8,8,0,0,0,40,440H184a8,8,0,0,0,8-8V392H320v40a8,8,0,0,0,8,8H480v40H32V448H16v40a8,8,0,0,0,8,8H488a8,8,0,0,0,8-8V432a8,8,0,0,0-8-8H475.314l-11.506-11.506-7.779-132.233,7.713-61.7A251.289,251.289,0,0,0,496,95.5V48A8,8,0,0,0,488,40ZM417.871,184,408,200.451,398.129,184ZM392,128a16,16,0,0,1,32,0v24a16,16,0,0,1-32,0Zm16,112a8,8,0,1,1,8-8A8.009,8.009,0,0,1,408,240ZM168,48V32h16V48Zm72,56V80a16,16,0,0,1,32,0v24a16,16,0,0,1-32,0Zm16,88a8,8,0,1,1,8-8A8.009,8.009,0,0,1,256,192Zm0-39.549L246.129,136h19.742ZM328,48V32h16V48ZM32,72V56H48V72Zm56,56a16,16,0,0,1,32,0v24a16,16,0,0,1-32,0Zm16,112a8,8,0,1,1,8-8A8.009,8.009,0,0,1,104,240Zm0-39.549L94.129,184h19.742ZM176,288v16H160V288ZM97.224,424,104,376.568,110.776,424Zm29.714,0L111.919,318.868a8,8,0,0,0-15.838,0L81.062,424H59.313l2.344-2.343a8,8,0,0,0,2.329-5.187L71.543,288h64.914l7.557,128.47a8,8,0,0,0,2.329,5.187L148.687,424Zm122.286-48L256,328.568,262.776,376Zm29.714,0L263.919,270.868a8,8,0,0,0-15.838,0L233.062,376H211.313l2.344-2.343a8,8,0,0,0,2.329-5.187L223.543,240h64.914l7.557,128.47a8,8,0,0,0,2.329,5.187L300.687,376ZM352,304H336V288h16Zm49.224,120L408,376.568,414.776,424Zm29.714,0L415.919,318.868a8,8,0,0,0-15.838,0L385.062,424H363.313l2.344-2.343a8,8,0,0,0,2.329-5.187L375.543,288h64.914l7.557,128.47a8,8,0,0,0,2.329,5.187L452.687,424ZM464,72V56h16V72Z" fill="#3979f8" data-original="#000000" style="" class=""/></g></g></svg>
