<?xml version="1.0"?>
<svg xmlns="http://www.w3.org/2000/svg" xmlns:xlink="http://www.w3.org/1999/xlink" xmlns:svgjs="http://svgjs.com/svgjs" version="1.1" width="512" height="512" x="0" y="0" viewBox="0 0 479 479.21543" style="enable-background:new 0 0 512 512" xml:space="preserve" class=""><g><path xmlns="http://www.w3.org/2000/svg" d="m232.109375 215.214844 64-111.199219c4.796875-9.601563 8-20 8-30.398437v-5.601563c-.800781-38.398437-33.601563-68.800781-72-68-38.402344-.800781-71.203125 29.601563-72 68v5.601563c0 10.398437 2.398437 21.597656 8 31.199218zm-56-148c.796875-29.597656 26.398437-52.800782 56-52 29.597656-.800782 55.199219 22.402344 56 52v5.601562c0 8-1.601563 16-5.601563 23.199219l-50.398437 87.199219-50.402344-87.199219c-4-7.199219-5.597656-15.199219-5.597656-23.199219zm0 0" fill="#3979f8" data-original="#000000" style="" class=""/><path xmlns="http://www.w3.org/2000/svg" d="m232.109375 95.214844c17.597656 0 32-14.398438 32-32 0-17.597656-14.402344-32-32-32-17.601563 0-32 14.402344-32 32 0 17.601562 14.398437 32 32 32zm0-48c8.796875 0 16 7.199218 16 16 0 8.800781-7.203125 16-16 16-8.800781 0-16-7.199219-16-16 0-8.800782 7.199219-16 16-16zm0 0" fill="#3979f8" data-original="#000000" style="" class=""/><path xmlns="http://www.w3.org/2000/svg" d="m424.109375 141.617188v-38.402344h-112v16h96v16h-112v16h115.199219l36.800781 73.601562v6.398438h-432v-6.398438l36.796875-73.601562h115.203125v-16h-112v-16h96v-16h-112v38.402344l-40 80v45.597656c0 12 6.398437 23.199218 16 29.601562v182.398438h432v-182.398438c9.597656-6.402344 16-17.601562 16-29.601562v-45.597656zm-108 145.597656c-11.203125 0-20-8.800782-20-20v-20h40v20c0 11.199218-8.800781 20-20 20zm-244-40h40v20c0 11.199218-8.800781 20-20 20-11.203125 0-20-8.800782-20-20zm56 0h40v20c0 11.199218-8.800781 20-20 20-11.203125 0-20-8.800782-20-20zm56 0h40v20c0 11.199218-8.800781 20-20 20-11.203125 0-20-8.800782-20-20zm56 0h40v20c0 11.199218-8.800781 20-20 20-11.203125 0-20-8.800782-20-20zm112 0h40v20c0 11.199218-8.800781 20-20 20-11.203125 0-20-8.800782-20-20zm-296 0v20c0 11.199218-8.800781 20-20 20-11.203125 0-20-8.800782-20-20v-20zm-20 56c11.199219 0 21.597656-4.800782 28-13.597656 12 15.199218 34.398437 18.398437 49.597656 6.398437 2.402344-1.601563 4-4 6.402344-6.398437 12 15.199218 34.398437 18.398437 49.597656 6.398437 2.402344-1.601563 4-4 6.402344-6.398437 12 15.199218 34.398437 18.398437 49.597656 6.398437 2.402344-1.601563 4-4 6.402344-6.398437 12 15.199218 34.398437 18.398437 49.597656 6.398437 2.402344-1.601563 4-4 6.402344-6.398437 5.597656 7.199218 14.398437 12 24 13.597656v128h-280v-128.800782c1.597656.800782 2.398437.800782 4 .800782zm-4 144h280v16h-280zm400 16h-104v-162.398438c6.398437-2.402344 12-6.402344 16-11.199218 12 15.199218 34.398437 18.398437 49.597656 6.398437 2.402344-1.601563 4-4 6.402344-6.398437 6.398437 8.796874 16.796875 13.597656 28 13.597656 1.597656 0 2.398437 0 4-.800782zm16-196c0 11.199218-8.800781 20-20 20-11.203125 0-20-8.800782-20-20v-20h40zm0 0" fill="#3979f8" data-original="#000000" style="" class=""/><path xmlns="http://www.w3.org/2000/svg" d="m344.109375 359.214844h16v16h-16zm0 0" fill="#3979f8" data-original="#000000" style="" class=""/><path xmlns="http://www.w3.org/2000/svg" d="m296.109375 319.214844h-248v88h248zm-16 72h-216v-56h216zm0 0" fill="#3979f8" data-original="#000000" style="" class=""/></g></svg>
