<?xml version="1.0"?>
<svg xmlns="http://www.w3.org/2000/svg" xmlns:xlink="http://www.w3.org/1999/xlink" xmlns:svgjs="http://svgjs.com/svgjs" version="1.1" width="512" height="512" x="0" y="0" viewBox="0 0 64 64" style="enable-background:new 0 0 512 512" xml:space="preserve" class=""><g><path xmlns="http://www.w3.org/2000/svg" d="m62 57h-1v-55c0-.552-.448-1-1-1h-40c-.552 0-1 .448-1 1v13h-15c-.552 0-1 .448-1 1v41h-1c-.552 0-1 .448-1 1v4c0 .552.448 1 1 1h60c.552 0 1-.448 1-1v-4c0-.552-.448-1-1-1zm-11 0v-9c0-.552-.448-1-1-1h-5v-2h14v12zm-46-18v-8h8v8zm10-8h8v8h-8zm10 0h8v8h-8zm10 0h8v8h-8zm10-14h4v8h-4zm14 26h-14v-2h14zm-14-4v-8h4v8zm14 0h-8v-8h8zm0-14h-8v-8h8zm-14 2h14v2h-14zm0 22h4v8h-4zm14-38h-8v-8h8zm-28 0v-8h8v8zm10-8h8v8h-8zm-12 0v8h-8v-8zm-8 10h38v2h-15-23zm22 4v12h-38v-12zm-38 24h38v16h-2v-9c0-.552-.448-1-1-1h-12c-.552 0-1 .448-1 1v9h-6v-9c0-.552-.448-1-1-1h-12c-.552 0-1 .448-1 1v9h-2zm24 16v-8h4v8zm6-8h4v8h-4zm-26 8v-8h4v8zm6-8h4v8h-4zm46 12h-58v-2h58z" fill="#3979f8" data-original="#000000" style=""/><path xmlns="http://www.w3.org/2000/svg" d="m13 24.236.105.211c.339.678 1.45.678 1.789 0l.106-.211v2.764h2v-7c0-.464-.319-.867-.77-.973-.454-.106-.917.111-1.125.526l-1.105 2.211-1.105-2.211c-.208-.415-.67-.631-1.125-.526-.451.106-.77.509-.77.973v7h2z" fill="#3979f8" data-original="#000000" style=""/><path xmlns="http://www.w3.org/2000/svg" d="m21 25h2v2h2v-5c0-1.654-1.346-3-3-3s-3 1.346-3 3v5h2zm1-4c.551 0 1 .449 1 1v1h-2v-1c0-.551.449-1 1-1z" fill="#3979f8" data-original="#000000" style=""/><path xmlns="http://www.w3.org/2000/svg" d="m28 27h3v-2h-2v-6h-2v7c0 .552.448 1 1 1z" fill="#3979f8" data-original="#000000" style=""/><path xmlns="http://www.w3.org/2000/svg" d="m34 27h3v-2h-2v-6h-2v7c0 .552.448 1 1 1z" fill="#3979f8" data-original="#000000" style=""/><path xmlns="http://www.w3.org/2000/svg" d="m7 43h14v2h-14z" fill="#3979f8" data-original="#000000" style=""/><path xmlns="http://www.w3.org/2000/svg" d="m27 43h14v2h-14z" fill="#3979f8" data-original="#000000" style=""/></g></svg>
