<svg id="Capa_1" enable-background="new 0 0 512 512" height="512" viewBox="0 0 512 512" width="512" xmlns="http://www.w3.org/2000/svg"><g><path d="m361.375 293.312c36.776-30.403 60.25-76.355 60.25-127.687 0-91.326-74.299-165.625-165.625-165.625s-165.625 74.299-165.625 165.625c0 51.332 23.474 97.284 60.25 127.687v53.873h-46.25v41.806l151.625 123.009 151.625-123.01v-41.806h-46.25zm-241-127.687c0-74.784 60.841-135.625 135.625-135.625s135.625 60.841 135.625 135.625-60.841 135.625-135.625 135.625-135.625-60.841-135.625-135.625zm254.185 211.56-118.56 96.184-118.56-96.185h43.185v-64.101c22.622 11.611 48.247 18.167 75.375 18.167s52.753-6.556 75.375-18.167v64.101h43.185z"/><path d="m247.422 180.625h17.156c8.951 0 16.233 7.282 16.233 16.233s-7.282 16.233-16.233 16.233h-17.461c-8.646 0-15.68-7.034-15.68-15.68h-30c0 23.113 17.258 42.258 39.562 45.258v21.357h30v-21.392c22.463-3.137 39.811-22.464 39.811-45.777 0-25.493-20.74-46.233-46.233-46.233h-17.156c-8.951 0-16.233-7.282-16.233-16.233s7.282-16.233 16.233-16.233h16.763c8.962 0 16.253 7.29 16.253 16.252h30c0-23.188-17.154-42.44-39.438-45.746v-21.44h-30v21.392c-22.463 3.137-39.811 22.464-39.811 45.777.001 25.492 20.741 46.232 46.234 46.232z"/></g></svg>