<svg fill="#1B5083" id="Capa_1" enable-background="new 0 0 510 510" height="512" viewBox="0 0 510 510" width="512" xmlns="http://www.w3.org/2000/svg"><g><path d="m120 315c-33.084 0-60 26.916-60 60s26.916 60 60 60 60-26.916 60-60-26.916-60-60-60zm0 90c-16.542 0-30-13.458-30-30s13.458-30 30-30 30 13.458 30 30-13.458 30-30 30z"/><path d="m480 390h-240v-30c0-66.168-53.832-120-120-120s-120 53.832-120 120v30c0 66.168 53.832 120 120 120h90 30 270v-105-15-45h-30zm-270 90h-90c-49.626 0-90-40.374-90-90v-30c0-49.626 40.374-90 90-90s90 40.374 90 90v30zm270 0h-45v-30h-30v30h-30v-30h-30v30h-30v-30h-30v30h-45v-60h240z"/><path d="m0 0v150h360v165h150v-315zm390 285v-165h-360v-90h30v30h30v-30h30v45h30v-45h30v30h30v-30h30v45h30v-45h30v30h30v-30h30v45h30v-45h30v30h30v-30h30v75h-30v30h30v30h-45v30h45v30h-30v30h30v30z"/></g></svg>