<svg id="Layer_3" enable-background="new 0 0 64 64" height="512" viewBox="0 0 64 64" width="512" xmlns="http://www.w3.org/2000/svg"><g><g><path d="m43 21c0 9.941-4.925 18-11 18s-11-8.059-11-18z" fill="#f9d18b"/></g><g><path d="m38 47h-12c-1.105 0-2 .895-2 2v2h16v-2c0-1.105-.895-2-2-2z" fill="#f9d18b"/></g><g><path d="m36 47-.153-.229c-1.204-1.807-1.847-3.93-1.847-6.102v-1.669h-4v1.669c0 2.172-.643 4.295-1.847 6.102l-.153.229" fill="#f5b953"/></g><g><path d="m32 32-4 2 1-4-3-3h4l2-4 2 4h4l-3 3 1 4z" fill="#f5b953"/></g><g><circle cx="11" cy="53" fill="#c7e2fc" r="9"/></g><g><circle cx="53" cy="53" fill="#e47c6e" r="9"/></g><g><path d="m58 53-8 4v-8z" fill="#fff"/></g><g><circle cx="53" cy="11" fill="#4472b2" r="9"/></g><g><circle cx="12" cy="11" fill="#c7e2fc" r="9"/></g><g><path d="m15 16h-6c-1.105 0-2-.895-2-2v-6c0-1.105.895-2 2-2h6c1.105 0 2 .895 2 2v6c0 1.105-.895 2-2 2z" fill="#c18e59"/></g><g><path d="m12 21c-5.514 0-10-4.486-10-10s4.486-10 10-10 10 4.486 10 10-4.486 10-10 10zm0-18c-4.411 0-8 3.589-8 8s3.589 8 8 8 8-3.589 8-8-3.589-8-8-8z"/></g><g><path d="m53 21c-5.514 0-10-4.486-10-10s4.486-10 10-10 10 4.486 10 10-4.486 10-10 10zm0-18c-4.411 0-8 3.589-8 8s3.589 8 8 8 8-3.589 8-8-3.589-8-8-8z"/></g><g><path d="m11 63c-5.514 0-10-4.486-10-10s4.486-10 10-10 10 4.486 10 10-4.486 10-10 10zm0-18c-4.411 0-8 3.589-8 8s3.589 8 8 8 8-3.589 8-8-3.589-8-8-8z"/></g><g><path d="m53 63c-5.514 0-10-4.486-10-10s4.486-10 10-10 10 4.486 10 10-4.486 10-10 10zm0-18c-4.411 0-8 3.589-8 8s3.589 8 8 8 8-3.589 8-8-3.589-8-8-8z"/></g><g><path d="m15 17h-6c-1.654 0-3-1.346-3-3v-6c0-1.654 1.346-3 3-3h6c1.654 0 3 1.346 3 3v6c0 1.654-1.346 3-3 3zm-6-10c-.552 0-1 .449-1 1v6c0 .551.448 1 1 1h6c.552 0 1-.449 1-1v-6c0-.551-.448-1-1-1z"/></g><g><path d="m12 13c-1.103 0-2-.897-2-2s.897-2 2-2 2 .897 2 2-.897 2-2 2zm0-2.001v.001z"/></g><g><path d="m53 17h-2v-9c0-1.654 1.346-3 3-3h3v2h-3c-.552 0-1 .449-1 1z"/></g><g><path d="m49 9h6v2h-6z"/></g><g><path d="m50 58c-.183 0-.365-.05-.525-.149-.295-.183-.475-.504-.475-.851v-8c0-.347.18-.668.475-.851s.662-.198.973-.044l8 4c.338.17.552.516.552.895s-.214.725-.553.895l-8 4c-.141.07-.294.105-.447.105zm1-7.382v4.764l4.764-2.382z"/></g><g><path d="m7 56c-1.654 0-3-1.346-3-3s1.346-3 3-3 3 1.346 3 3-1.346 3-3 3zm0-4c-.552 0-1 .449-1 1s.448 1 1 1 1-.449 1-1-.448-1-1-1z"/></g><g><path d="m14 52c-1.654 0-3-1.346-3-3s1.346-3 3-3 3 1.346 3 3-1.346 3-3 3zm0-4c-.552 0-1 .449-1 1s.448 1 1 1 1-.449 1-1-.448-1-1-1z"/></g><g><path d="m14 60c-1.654 0-3-1.346-3-3s1.346-3 3-3 3 1.346 3 3-1.346 3-3 3zm0-4c-.552 0-1 .449-1 1s.448 1 1 1 1-.449 1-1-.448-1-1-1z"/></g><g><path d="m9 52.764h2v4.472h-2z" transform="matrix(.447 -.894 .894 .447 -43.666 39.348)"/></g><g><path d="m7.764 50h4.472v2h-4.472z" transform="matrix(.894 -.447 .447 .894 -21.752 9.856)"/></g><g><path d="m32 40c-6.617 0-12-8.523-12-19 0-.552.447-1 1-1h22c.553 0 1 .448 1 1 0 10.477-5.383 19-12 19zm-9.982-18c.305 8.91 4.666 16 9.982 16s9.678-7.09 9.982-16z"/></g><g><path d="m18 38c-2.206 0-4-1.794-4-4h2c0 1.103.897 2 2 2s2-.897 2-2-.897-2-2-2c-2.757 0-5-2.243-5-5s2.243-5 5-5h3v2h-3c-1.654 0-3 1.346-3 3s1.346 3 3 3c2.206 0 4 1.794 4 4s-1.794 4-4 4z"/></g><g><path d="m46 38c-2.206 0-4-1.794-4-4s1.794-4 4-4c1.654 0 3-1.346 3-3s-1.346-3-3-3h-3v-2h3c2.757 0 5 2.243 5 5s-2.243 5-5 5c-1.103 0-2 .897-2 2s.897 2 2 2 2-.897 2-2h2c0 2.206-1.794 4-4 4z"/></g><g><path d="m40 52h-16c-.553 0-1-.448-1-1v-2c0-1.654 1.346-3 3-3h12c1.654 0 3 1.346 3 3v2c0 .552-.447 1-1 1zm-15-2h14v-1c0-.551-.448-1-1-1h-12c-.552 0-1 .449-1 1z"/></g><g><path d="m28.833 47.554-1.666-1.107.152-.229c1.1-1.648 1.681-3.566 1.681-5.548v-1.67h2v1.669c0 2.378-.697 4.68-2.016 6.656z"/></g><g><path d="m35.167 47.554-.152-.229c-1.318-1.976-2.015-4.278-2.015-6.656v-1.669h2v1.669c0 1.981.581 3.899 1.68 5.547l.153.23z"/></g><g><path d="m36 35c-.152 0-.306-.035-.447-.105l-3.553-1.777-3.553 1.776c-.349.174-.768.13-1.073-.114-.305-.245-.438-.644-.344-1.023l.862-3.451-2.6-2.6c-.286-.286-.372-.716-.217-1.09.155-.372.521-.616.925-.616h3.382l1.724-3.447c.34-.678 1.449-.678 1.789 0l1.723 3.447h3.382c.404 0 .77.244.924.617.155.374.069.804-.217 1.09l-2.6 2.6.862 3.451c.095.379-.039.778-.344 1.023-.181.144-.402.219-.625.219zm-4-4c.153 0 .307.035.447.105l2.056 1.028-.473-1.891c-.086-.341.015-.701.263-.95l1.293-1.292h-1.586c-.379 0-.725-.214-.895-.553l-1.105-2.211-1.105 2.211c-.17.339-.516.553-.895.553h-1.586l1.293 1.293c.248.249.349.609.263.95l-.473 1.891 2.056-1.028c.14-.071.294-.106.447-.106z"/></g><g><path d="m4.576 46.467c-.321-.607-.625-1.232-.904-1.857l1.826-.815c.264.59.546 1.17.846 1.738zm-1.68-3.772c-.237-.644-.455-1.305-.647-1.963l1.92-.561c.18.615.383 1.231.604 1.833zm-1.164-3.964c-.147-.666-.274-1.349-.378-2.031l1.977-.301c.098.638.217 1.277.354 1.899zm-.621-4.083c-.058-.678-.093-1.372-.106-2.062l2-.038c.012.649.045 1.293.099 1.932zm1.922-4.034-1.998-.093c.032-.685.088-1.378.166-2.061l1.986.227c-.072.638-.125 1.287-.154 1.927zm.436-3.839-1.967-.358c.122-.67.269-1.349.437-2.018l1.939.486c-.155.622-.293 1.252-.409 1.89zm.945-3.745-1.902-.619c.212-.651.449-1.305.704-1.942l1.857.744c-.239.596-.459 1.202-.659 1.817zm1.438-3.585-1.803-.868c.296-.613.618-1.229.958-1.83l1.74.984c-.316.56-.615 1.131-.895 1.714z"/></g><g><path d="m32.586 62.995-.037-2c.648-.012 1.293-.045 1.932-.1l.168 1.993c-.684.058-1.378.094-2.063.107zm-2.065-.029c-.687-.033-1.379-.088-2.06-.166l.227-1.987c.635.072 1.278.124 1.927.155zm6.178-.32-.299-1.978c.631-.095 1.27-.214 1.897-.354l.434 1.952c-.672.15-1.356.277-2.032.38zm-10.284-.147c-.67-.122-1.35-.27-2.018-.438l.486-1.939c.623.156 1.253.293 1.891.409zm14.318-.747-.562-1.92c.614-.179 1.231-.383 1.835-.604l.689 1.877c-.645.237-1.305.455-1.962.647zm-18.324-.264c-.652-.212-1.306-.449-1.942-.705l.744-1.856c.596.239 1.207.46 1.817.659zm22.199-1.16-.812-1.828c.583-.259 1.167-.543 1.736-.845l.936 1.768c-.61.323-1.235.627-1.86.905zm-26.033-.378c-.352-.169-.7-.345-1.043-.526l.936-1.768c.321.17.646.334.975.492z"/></g><g><path d="m59.423 46.469-1.766-.938c.17-.32.334-.645.491-.972l1.803.865c-.169.352-.345.701-.528 1.045zm1.361-2.936-1.857-.744c.239-.596.459-1.202.659-1.817l1.902.619c-.212.651-.449 1.305-.704 1.942zm1.278-3.931-1.939-.486c.155-.622.293-1.252.409-1.89l1.967.358c-.123.67-.27 1.349-.437 2.018zm.737-4.062-1.986-.227c.072-.639.125-1.287.154-1.927l1.998.093c-.032.685-.088 1.378-.166 2.061zm-1.805-4.089c-.012-.649-.045-1.293-.099-1.932l1.992-.168c.058.678.093 1.372.106 2.062zm-.325-3.85c-.098-.638-.217-1.277-.354-1.899l1.953-.433c.147.666.274 1.349.378 2.031zm-.837-3.772c-.18-.615-.383-1.231-.604-1.833l1.877-.69c.237.644.455 1.305.647 1.963zm-1.33-3.623c-.264-.59-.546-1.17-.846-1.738l1.768-.935c.321.607.625 1.232.904 1.857z"/></g><g><path d="m45.542 6.349-.109-.058.936-1.768.09.047zm-26.196-.45-.875-1.799c.611-.297 1.247-.58 1.888-.84l.752 1.853c-.599.243-1.188.505-1.765.786zm24.349-.444c-.584-.258-1.188-.5-1.794-.72l.684-1.88c.648.236 1.293.495 1.917.77zm-20.771-1.007-.625-1.899c.65-.214 1.317-.409 1.982-.58l.496 1.938c-.622.159-1.245.341-1.853.541zm17.141-.312c-.618-.178-1.249-.338-1.874-.474l.424-1.954c.669.145 1.343.315 2.005.506zm-13.4-.647-.365-1.966c.674-.125 1.361-.229 2.043-.309l.232 1.986c-.637.075-1.279.172-1.91.289zm9.624-.174c-.634-.094-1.273-.167-1.921-.22l.162-1.993c.683.055 1.373.134 2.052.235zm-5.787-.277-.102-1.997c.53-.027 1.064-.041 1.6-.041l.468.003-.033 2-.435-.003c-.503 0-1.002.013-1.498.038z"/></g></g></svg>