<?xml version="1.0"?>
<svg xmlns="http://www.w3.org/2000/svg" xmlns:xlink="http://www.w3.org/1999/xlink" xmlns:svgjs="http://svgjs.com/svgjs" version="1.1" width="512" height="512" x="0" y="0" viewBox="0 0 64 64" style="enable-background:new 0 0 512 512" xml:space="preserve" class=""><g><g xmlns="http://www.w3.org/2000/svg"><g><g><path d="m62 4v10h-60v-10c0-1.1.9-2 2-2h56c1.1 0 2 .9 2 2z" fill="#5c94ff" data-original="#b4dd7f" style="" class=""/></g><g><path d="m2 14v26 1 5c0 1.1.9 2 2 2h10.68.01c.09.04.18.07.27.1h.01c.67.24 1.35.45 2.03.64 3.25.89 6.55 1.26 9 1.26v-7.6c-1.82-1.05-3.34-2.57-4.39-4.39-1.03-1.77-1.61-3.82-1.61-6.01s.58-4.24 1.61-6.01c2.07-3.58 5.95-5.99 10.39-5.99s8.32 2.41 10.39 5.99c1.03 1.77 1.61 3.82 1.61 6.01s-.58 4.24-1.61 6.01c-1.05 1.82-2.57 3.34-4.39 4.39v7.6c2.45 0 5.75-.37 9-1.26.68-.19 1.36-.4 2.03-.64h.01c.09-.03.18-.06.27-.1h.01 10.68c1.1 0 2-.9 2-2v-5-1-26z" fill="#e6e9ed" data-original="#e6e9ed" style="" class=""/></g><g><path d="m32 44c2.19 0 4.24-.58 6-1.6v7.6 10l-6-4-6 4v-10-7.6c1.76 1.02 3.81 1.6 6 1.6z" fill="#fcd770" data-original="#fcd770" style="" class=""/></g><g><path d="m6 18h10v6h-10z" fill="#ef0707" data-original="#ff826e" style="" class=""/></g><g><path d="m48 18h10v6h-10z" fill="#ef0707" data-original="#ff826e" style="" class=""/></g><g><path d="m8 43v1h-3c-1.66 0-3-1.34-3-3v-1h3c1.66 0 3 1.34 3 3z" fill="#a0d468" data-original="#a0d468" style="" class=""/></g><g><path d="m62 40v1c0 1.66-1.34 3-3 3h-3v-1c0-1.66 1.34-3 3-3z" fill="#a0d468" data-original="#a0d468" style="" class=""/></g><g><path d="m17 38v3c0 2.76-2.24 5-5 5h-1v-3c0-2.76 2.24-5 5-5z" fill="#5c94ff" data-original="#b4dd7f" style="" class=""/></g><g><path d="m17 48.74v2.26c0 2.76-2.24 5-5 5h-1v-3c0-2.4 1.7-4.41 3.96-4.9h.01c.67.24 1.35.45 2.03.64z" fill="#5c94ff" data-original="#b4dd7f" style="" class=""/></g><g><path d="m53 53v3h-1c-2.76 0-5-2.24-5-5v-2.26c.68-.19 1.36-.4 2.03-.64h.01c2.26.49 3.96 2.5 3.96 4.9z" fill="#5c94ff" data-original="#b4dd7f" style="" class=""/></g><g><path d="m53 43v3h-1c-2.76 0-5-2.24-5-5v-3h1c2.76 0 5 2.24 5 5z" fill="#5c94ff" data-original="#b4dd7f" style="" class=""/></g><g><path d="m36.33 26h-8.66c.86-3.59 2.48-6 4.33-6s3.47 2.41 4.33 6z" fill="#73e0f9" data-original="#69d6f4" style="" class=""/></g><g><path d="m27 32h10c0 2.19-.24 4.24-.67 6h-8.66c-.43-1.76-.67-3.81-.67-6z" fill="#73e0f9" data-original="#69d6f4" style="" class=""/></g><g><path d="m37 32h7c0 2.19-.58 4.24-1.61 6.01l-.01-.01h-6.05c.43-1.76.67-3.81.67-6z" fill="#73e0f9" data-original="#69d6f4" style="" class=""/></g><g><path d="m32 20c4.44 0 8.32 2.41 10.39 5.99l-.01.01h-6.05c-.86-3.59-2.48-6-4.33-6z" fill="#73e0f9" data-original="#69d6f4" style="" class=""/></g><g><path d="m37 32h-10c0-2.19.24-4.24.67-6h8.66c.43 1.76.67 3.81.67 6z" fill="#73e0f9" data-original="#69d6f4" style="" class=""/></g><g><path d="m21.62 26h6.05c-.43 1.76-.67 3.81-.67 6h-7c0-2.19.58-4.24 1.61-6.01z" fill="#73e0f9" data-original="#69d6f4" style="" class=""/></g><g><path d="m44 32h-7c0-2.19-.24-4.24-.67-6h6.05l.01-.01c1.03 1.77 1.61 3.82 1.61 6.01z" fill="#73e0f9" data-original="#69d6f4" style="" class=""/></g><g><path d="m27.67 38h-6.05l-.01.01c-1.03-1.77-1.61-3.82-1.61-6.01h7c0 2.19.24 4.24.67 6z" fill="#73e0f9" data-original="#69d6f4" style="" class=""/></g><g><path d="m36.33 38h6.05l.01.01c-1.05 1.82-2.57 3.34-4.39 4.39-1.76 1.02-3.81 1.6-6 1.6 1.85 0 3.47-2.41 4.33-6z" fill="#73e0f9" data-original="#69d6f4" style="" class=""/></g><g><path d="m27.67 38h8.66c-.86 3.59-2.48 6-4.33 6s-3.47-2.41-4.33-6z" fill="#73e0f9" data-original="#69d6f4" style="" class=""/></g><g><path d="m21.62 38h6.05c.86 3.59 2.48 6 4.33 6-2.19 0-4.24-.58-6-1.6-1.82-1.05-3.34-2.57-4.39-4.39z" fill="#73e0f9" data-original="#69d6f4" style="" class=""/></g><g><path d="m21.61 25.99c2.07-3.58 5.95-5.99 10.39-5.99-1.85 0-3.47 2.41-4.33 6h-6.05z" fill="#73e0f9" data-original="#69d6f4" style="" class=""/></g><g><path d="m22 6h4v4h-4z" fill="#e6e9ed" data-original="#e6e9ed" style="" class=""/></g><g><path d="m14 6h4v4h-4z" fill="#e6e9ed" data-original="#e6e9ed" style="" class=""/></g><g><path d="m6 6h4v4h-4z" fill="#e6e9ed" data-original="#e6e9ed" style="" class=""/></g></g><g><path d="m60 1h-56c-1.654 0-3 1.346-3 3v35 2 5c0 1.654 1.346 3 3 3h7.559c-.966 1.075-1.559 2.48-1.559 4v4h2c3.309 0 6-2.691 6-6v-.975c2.581.606 5.063.884 7 .955v10.888l7-4.666 7 4.666v-10.888c1.937-.071 4.419-.349 7-.955v.975c0 3.309 2.691 6 6 6h2v-4c0-1.52-.593-2.925-1.559-4h7.559c1.654 0 3-1.346 3-3v-5-2-35c0-1.654-1.346-3-3-3zm-56 2h56c.552 0 1 .448 1 1v9h-58v-9c0-.552.448-1 1-1zm0 44c-.552 0-1-.448-1-1v-1.556c.591.344 1.268.556 2 .556h2.615c.725.68 1.526 1.288 2.385 1.831v.169zm-1-6h2c1.103 0 2 .897 2 2h-2c-1.103 0-2-.897-2-2zm13 10c0 2.206-1.794 4-4 4v-2c0-1.807 1.234-3.383 2.959-3.849.346.118.693.229 1.041.334zm19.714-8.659c.553-.919 1.023-2.046 1.391-3.341h3.373c-1.246 1.507-2.89 2.665-4.764 3.341zm-6.723-3.341h6.019c-.789 2.473-1.935 4-3.009 4s-2.221-1.527-3.01-4zm6.988-6c-.052 1.447-.217 2.791-.46 4h-7.038c-.244-1.209-.408-2.553-.46-4zm-7.958-2c.052-1.447.217-2.791.46-4h7.038c.244 1.209.408 2.553.46 4zm13.765 6h-4.216c.225-1.237.363-2.581.409-4h4.971c-.13 1.43-.538 2.779-1.164 4zm-3.808-6c-.046-1.419-.184-2.763-.409-4h4.216c.626 1.221 1.034 2.57 1.164 4zm-.873-6c-.368-1.295-.837-2.422-1.391-3.341 1.874.675 3.518 1.834 4.764 3.341zm-2.096 0h-6.019c.789-2.473 1.935-4 3.009-4s2.221 1.527 3.01 4zm-8.114 0h-3.373c1.246-1.507 2.891-2.665 4.764-3.341-.554.919-1.023 2.046-1.391 3.341zm-4.681 2h4.216c-.225 1.237-.363 2.581-.409 4h-4.971c.13-1.43.538-2.779 1.164-4zm3.808 6c.046 1.419.184 2.763.409 4h-4.216c-.626-1.221-1.034-2.57-1.164-4zm.873 6c.368 1.295.837 2.422 1.391 3.341-1.874-.675-3.518-1.834-4.764-3.341zm6.105 16.465v-8.465h-2v8.465l-4 2.667v-14.135c1.54.644 3.229 1.003 5 1.003s3.46-.359 5-1.003v14.135zm19-.465c-2.206 0-4-1.794-4-4v-1.515c.348-.105.695-.216 1.041-.334 1.725.466 2.959 2.042 2.959 3.849zm0-10c-2.206 0-4-1.794-4-4v-2c2.206 0 4 1.794 4 4zm8 2h-6v-.169c.859-.543 1.66-1.152 2.385-1.831h2.615c.732 0 1.409-.212 2-.556v1.556c0 .552-.448 1-1 1zm-3-4c0-1.103.897-2 2-2h2c0 1.103-.897 2-2 2zm2-4c-2.206 0-4 1.794-4 4v.56c-.313.292-.646.571-1 .838v-1.398c0-3.309-2.691-6-6-6h-2v4c0 2.601 1.667 4.814 3.986 5.645-3.477 1.454-7.552 2.212-10.986 2.335v-6.044c3.602-2.314 6-6.347 6-10.937 0-7.168-5.832-13-13-13s-13 5.832-13 13c0 4.59 2.398 8.623 6 10.937v6.044c-3.434-.124-7.509-.881-10.986-2.336 2.319-.83 3.986-3.043 3.986-5.644v-4h-2c-3.309 0-6 2.691-6 6v1.398c-.354-.267-.687-.546-1-.838v-.56c0-2.206-1.794-4-4-4h-2v-24h58v24zm-47 6v-2c0-2.206 1.794-4 4-4v2c0 2.206-1.794 4-4 4z" fill="#000000" data-original="#000000" style="" class=""/><path d="m11 5h-6v6h6zm-2 4h-2v-2h2z" fill="#000000" data-original="#000000" style="" class=""/><path d="m19 5h-6v6h6zm-2 4h-2v-2h2z" fill="#000000" data-original="#000000" style="" class=""/><path d="m27 5h-6v6h6zm-2 4h-2v-2h2z" fill="#000000" data-original="#000000" style="" class=""/><path d="m5 25h12v-8h-12zm2-6h8v4h-8z" fill="#000000" data-original="#000000" style="" class=""/><path d="m5 27h12v2h-12z" fill="#000000" data-original="#000000" style="" class=""/><path d="m15 31h2v2h-2z" fill="#000000" data-original="#000000" style="" class=""/><path d="m5 31h8v2h-8z" fill="#000000" data-original="#000000" style="" class=""/><path d="m47 17v8h12v-8zm10 6h-8v-4h8z" fill="#000000" data-original="#000000" style="" class=""/><path d="m47 27h12v2h-12z" fill="#000000" data-original="#000000" style="" class=""/><path d="m47 31h2v2h-2z" fill="#000000" data-original="#000000" style="" class=""/><path d="m51 31h8v2h-8z" fill="#000000" data-original="#000000" style="" class=""/></g></g></g></svg>
