<svg height="512" viewBox="0 0 512 512" width="512" xmlns="http://www.w3.org/2000/svg" xmlns:xlink="http://www.w3.org/1999/xlink"><linearGradient id="New_Gradient_Swatch_5" gradientUnits="userSpaceOnUse" x1="164.965" x2="347.035" y1="245.524" y2="63.454"><stop offset=".011" stop-color="#f8c73f"/><stop offset="1" stop-color="#fada7f"/></linearGradient><linearGradient id="linear-gradient" gradientUnits="userSpaceOnUse" x1="262.308" x2="329.692" y1="379.134" y2="311.751"><stop offset="0" stop-color="#f7d1d1"/><stop offset="1" stop-color="#fcf0f0"/></linearGradient><linearGradient id="linear-gradient-2" x1="314.308" x2="373.692" xlink:href="#linear-gradient" y1="383.134" y2="323.751"/><linearGradient id="linear-gradient-3" x1="366.308" x2="417.692" xlink:href="#linear-gradient" y1="387.134" y2="335.751"/><linearGradient id="linear-gradient-4" x1="201.515" x2="366.485" xlink:href="#linear-gradient" y1="473.515" y2="308.544"/><g id="_09-rating" data-name="09-rating"><g id="linear_color" data-name="linear color"><path d="m256 16 40.28 73.679 90.068 13.087-65.174 63.53 15.386 89.704-80.56-42.353-80.56 42.353 15.386-89.704-65.174-63.53 90.068-13.087z" fill="url(#New_Gradient_Swatch_5)"/><path d="m320 328v-16a24 24 0 0 0 -48 0v76.826h48z" fill="url(#linear-gradient)"/><path d="m368 344v-16a24 24 0 0 0 -48 0v60.826h48z" fill="url(#linear-gradient-2)"/><path d="m416 344a24 24 0 0 0 -48 0v44.826h48z" fill="url(#linear-gradient-3)"/><path d="m272 352v-128a24 24 0 0 0 -48 0v195.769c-10.885-14.967-21.493-29.212-29.714-39.55-28.01-35.22-67.908-9.879-67.908-9.879l97.622 125.66h192v-120z" fill="url(#linear-gradient-4)"/><path d="m391.52 193.375a19.945 19.945 0 0 1 0 28.229 12 12 0 1 0 16.96 16.979 43.94 43.94 0 0 0 0-62.187 12 12 0 1 0 -16.96 16.979z"/><path d="m442.423 142.49a12 12 0 0 0 -16.963 16.979 67.859 67.859 0 0 1 0 96.042 12 12 0 1 0 16.963 16.978 91.86 91.86 0 0 0 0-130z"/><path d="m120.48 221.6a19.945 19.945 0 0 1 0-28.229 12 12 0 1 0 -16.96-16.971 43.94 43.94 0 0 0 0 62.187 12 12 0 1 0 16.96-16.987z"/><path d="m86.548 142.5a12 12 0 0 0 -16.971-.009 91.86 91.86 0 0 0 0 130 12 12 0 1 0 16.963-16.98 67.859 67.859 0 0 1 0-96.042 12 12 0 0 0 .008-16.969z"/><path d="m392 308a35.78 35.78 0 0 0 -15.909 3.717 35.955 35.955 0 0 0 -48-16 35.961 35.961 0 0 0 -44.091-17.653v-36.133l46.977 24.691a12 12 0 0 0 17.41-12.651l-14.323-83.482 60.662-59.126a12 12 0 0 0 -6.651-20.463l-84.139-12.233-37.407-68.423a12 12 0 0 0 -21.058 0l-37.407 68.423-84.139 12.233a12 12 0 0 0 -6.651 20.468l60.662 59.126-14.323 83.482c-1.945 9.452 9.039 17.415 17.411 12.651l30.976-16.291v133.12c-3.044-3.988-5.824-7.567-8.318-10.705-18.009-22.646-40.15-24.766-55.554-22.557a76.838 76.838 0 0 0 -28.182 10.016 12.076 12.076 0 0 0 -3.046 17.49l97.62 125.66a12 12 0 0 0 18.954-14.724l-88.085-113.387a48.794 48.794 0 0 1 6.828-1.391c13.238-1.689 23.933 2.832 32.679 13.83 7.33 9.22 17.221 22.385 29.4 39.13 6.668 9.317 21.8 4.391 21.705-7.058v-195.76a12 12 0 0 1 24 0s.021 128.823.062 129.227a12 12 0 0 0 23.876 0c.041-.4.062-41.227.062-41.227a12 12 0 0 1 24 0v48a12 12 0 0 0 24 0v-32a12 12 0 0 1 24 0v40a12 12 0 0 0 24 0v-24a12 12 0 0 1 24 0v152a12 12 0 0 0 24 0v-152a36.04 36.04 0 0 0 -36.001-36zm-144-120a36.035 36.035 0 0 0 -35.98 35.211l-20.64 10.852 11.277-65.734a12 12 0 0 0 -3.451-10.622l-47.768-46.559 66.007-9.592a12 12 0 0 0 8.8-6.119l29.755-54.421 29.751 54.421a12 12 0 0 0 8.8 6.119l66.007 9.592-47.768 46.559a12 12 0 0 0 -3.451 10.622l11.278 65.737-38.017-19.984a36.058 36.058 0 0 0 -34.6-26.082z"/></g></g></svg>