<svg fill="#fff" id="Layer_1" height="512" viewBox="0 0 64 64" width="512" xmlns="http://www.w3.org/2000/svg" data-name="Layer 1"><path d="m3 62h31a3 3 0 0 0 3-3v-1h19a2 2 0 0 0 2-2v-46a2 2 0 0 0 -2-2h-22a2 2 0 0 0 -2 2v36a2 2 0 0 1 -2-2v-2.5a3.5 3.5 0 0 0 -7 0v2.5a2 2 0 0 1 -2 2h-18a1 1 0 0 0 -1 1v14a1 1 0 0 0 1 1zm31-52h22v46h-19v-7a3 3 0 0 0 -3-3zm-12 37.858a4 4 0 0 0 3-3.858v-2.5a1.5 1.5 0 0 1 3 0v2.5a4 4 0 0 0 4 4h2a1 1 0 0 1 1 1v10a1 1 0 0 1 -1 1h-4a1 1 0 0 1 0-2h2v-2h-2a1 1 0 0 1 0-2h2v-2h-2a1 1 0 0 1 0-2h2v-2h-2a2.987 2.987 0 0 0 -2.22 5 2.954 2.954 0 0 0 0 4 2.908 2.908 0 0 0 -.6 3h-5.18zm-6 .142h4v12h-4zm-12 0h10v12h-10z"/><path d="m17 57h2v2h-2z"/><path d="m58 2h-26a4 4 0 0 0 -4 4v30h2v-30a2 2 0 0 1 2-2h26a2 2 0 0 1 2 2v52a2 2 0 0 1 -2 2h-19v2h19a4 4 0 0 0 4-4v-52a4 4 0 0 0 -4-4z"/><path d="m20 26h2v2h-2z"/><path d="m22 28h2v2h-2z"/><path d="m20 30h2v2h-2z"/><path d="m18 28h2v2h-2z"/><path d="m14 34h2v2h-2z"/><path d="m16 36h2v2h-2z"/><path d="m14 38h2v2h-2z"/><path d="m12 36h2v2h-2z"/><path d="m21 35h2v2h-2z"/><path d="m14 23h2v2h-2z"/><path d="m45 42a10 10 0 1 0 -10-10 10.011 10.011 0 0 0 10 10zm0-18a8 8 0 1 1 -8 8 8.009 8.009 0 0 1 8-8z"/><path d="m40 29h2v2h-2z"/><path d="m48 29h2v2h-2z"/><path d="m45 38a4 4 0 0 0 4-4h-2a2 2 0 0 1 -4 0h-2a4 4 0 0 0 4 4z"/><path d="m44 5h2v2h-2z"/></svg>