<svg id="Capa_1" enable-background="new 0 0 512 512" height="512" viewBox="0 0 512 512" width="512" xmlns="http://www.w3.org/2000/svg"><g><g><path d="m504.5 90.333h-497v-62.63c0-11.158 9.045-20.203 20.203-20.203h456.594c11.158 0 20.203 9.045 20.203 20.203z" fill="#80b4fb"/></g><g><path d="m484.297 7.5h-30.305c11.158 0 20.203 9.045 20.203 20.203v62.63h30.305v-62.63c0-11.158-9.045-20.203-20.203-20.203z" fill="#61a2f9"/></g><g><path d="m7.5 90.333h497v331.333c0 11.158-9.045 20.203-20.203 20.203h-456.594c-11.158 0-20.203-9.045-20.203-20.203z" fill="#e4f6ff"/></g><g><path d="m239.837-22.805h32.325v323.252h-32.325z" fill="#e278b1" transform="matrix(0 1 -1 0 394.821 -117.179)"/></g><g><path d="m474.195 90.333v331.333c0 11.158-9.045 20.203-20.203 20.203h30.305c11.158 0 20.203-9.045 20.203-20.203v-331.333z" fill="#b9e4ef"/></g><g><circle cx="256" cy="352.976" fill="#9bb9c1" r="151.524"/></g><g><path d="m352.011 235.752c21.433 26.138 34.3 59.571 34.3 96.011 0 83.685-67.84 151.524-151.524 151.524-36.44 0-69.872-12.867-96.011-34.3 27.789 33.888 69.979 55.513 117.224 55.513 83.685 0 151.524-67.84 151.524-151.524 0-47.245-21.625-89.436-55.513-117.224z" fill="#86a0af"/></g><g><circle cx="256" cy="352.976" fill="#e4f6ff" r="119.199"/></g><g><path d="m328.972 258.791c15.67 20.179 25.014 45.503 25.014 72.972 0 65.727-53.473 119.199-119.199 119.199-27.468 0-52.792-9.344-72.972-25.014 21.825 28.106 55.927 46.228 94.185 46.228 65.727 0 119.199-53.473 119.199-119.199 0-38.26-18.121-72.361-46.227-94.186z" fill="#b9e4ef"/></g><g><circle cx="256" cy="352.976" fill="#86a0af" r="18.183"/></g><g><path d="m256 201.451c-41.842 0-79.723 16.96-107.144 44.38l22.897 22.897c21.584-21.584 51.384-34.952 84.247-34.952z" fill="#80b4fb"/></g><g><path d="m256 201.451c41.842 0 79.723 16.96 107.144 44.38l-22.897 22.897c-21.584-21.584-51.384-34.952-84.247-34.952z" fill="#ffe07d"/></g><g><path d="m171.753 268.729-22.897-22.897c-27.421 27.421-44.38 65.302-44.38 107.144h32.325c0-32.864 13.368-62.664 34.952-84.247z" fill="#a2f4c1"/></g><g><path d="m340.247 268.729 22.897-22.897c27.421 27.421 44.38 65.302 44.38 107.144h-32.325c0-32.864-13.368-62.664-34.952-84.247z" fill="#e278b1"/></g><g><path d="m386.311 331.762c0 7.201-.514 14.28-1.485 21.213h22.699c0-41.842-16.96-79.723-44.38-107.144l-2.116 2.116c15.969 24.006 25.282 52.821 25.282 83.815z" fill="#dd5ca2"/></g><g><path d="m484.297 0h-456.594c-15.275 0-27.703 12.428-27.703 27.703v259.287c0 4.143 3.358 7.5 7.5 7.5s7.5-3.357 7.5-7.5v-189.16h482v30.29c0 4.143 3.358 7.5 7.5 7.5s7.5-3.357 7.5-7.5v-100.417c0-15.275-12.428-27.703-27.703-27.703zm-469.297 82.83v-55.127c0-7.005 5.699-12.703 12.703-12.703h456.594c7.004 0 12.703 5.698 12.703 12.703v55.127z"/><path d="m417.626 212.134h-36.366c-4.142 0-7.5 3.357-7.5 7.5s3.358 7.5 7.5 7.5h36.366c4.142 0 7.5-3.357 7.5-7.5s-3.358-7.5-7.5-7.5z"/><path d="m417.626 179.809h-84.854c-4.142 0-7.5 3.357-7.5 7.5s3.358 7.5 7.5 7.5h84.854c4.142 0 7.5-3.357 7.5-7.5s-3.358-7.5-7.5-7.5z"/><path d="m94.374 227.134h36.366c4.142 0 7.5-3.357 7.5-7.5s-3.358-7.5-7.5-7.5h-36.366c-4.142 0-7.5 3.357-7.5 7.5s3.358 7.5 7.5 7.5z"/><path d="m94.374 194.809h84.854c4.142 0 7.5-3.357 7.5-7.5s-3.358-7.5-7.5-7.5h-84.854c-4.142 0-7.5 3.357-7.5 7.5s3.358 7.5 7.5 7.5z"/><path d="m425.126 122.658c0-4.143-3.358-7.5-7.5-7.5h-323.252c-4.142 0-7.5 3.357-7.5 7.5v32.325c0 4.143 3.358 7.5 7.5 7.5h323.252c4.142 0 7.5-3.357 7.5-7.5zm-15 24.825h-308.252v-17.325h308.252z"/><circle cx="438.839" cy="48.917" r="12.122"/><circle cx="397.423" cy="48.917" r="12.122"/><circle cx="356.006" cy="48.917" r="12.122"/><path d="m504.5 155.62c-4.142 0-7.5 3.357-7.5 7.5v258.55c0 7.003-5.697 12.7-12.7 12.7h-91.737c14.255-23.826 22.461-51.668 22.461-81.395 0-87.687-71.338-159.024-159.024-159.024s-159.024 71.338-159.024 159.025c0 29.726 8.207 57.568 22.461 81.395h-91.737c-7.003 0-12.7-5.697-12.7-12.7v-99.68c0-4.143-3.358-7.5-7.5-7.5s-7.5 3.357-7.5 7.5v99.68c0 15.274 12.426 27.7 27.7 27.7h101.912c29.084 38.04 74.915 62.629 126.388 62.629s97.304-24.589 126.387-62.63h101.913c15.274 0 27.7-12.426 27.7-27.7v-258.55c0-4.142-3.358-7.5-7.5-7.5zm-122.03 189.856c-.493-8.37-1.803-16.658-3.928-24.726-1.055-4.007-5.157-6.396-9.163-5.343-4.005 1.056-6.397 5.158-5.342 9.163 2.43 9.227 3.663 18.785 3.663 28.41 0 61.586-50.108 111.689-111.7 111.689s-111.7-50.103-111.7-111.689c0-61.592 50.108-111.7 111.7-111.7 39.021 0 74.589 19.905 95.146 53.246 2.174 3.525 6.796 4.622 10.32 2.447 3.526-2.174 4.622-6.794 2.448-10.32-3.886-6.303-8.328-12.236-13.233-17.752l12.275-12.274c21.464 23.803 35.118 54.778 36.875 88.848h-17.361zm-252.942 0h-17.358c1.756-34.07 15.411-65.045 36.875-88.848l12.268 12.268c-18.347 20.635-30.065 47.284-31.785 76.58zm210.546-87.181c-6.569-5.841-13.732-11.018-21.386-15.393-16.856-9.635-35.796-15.235-55.188-16.388v-17.368c34.07 1.756 65.045 15.411 88.849 36.875zm-91.574-31.787c-29.295 1.719-55.943 13.435-76.58 31.78l-12.268-12.268c23.803-21.464 54.778-35.119 88.849-36.875v17.363zm7.5 270.492c-76.9 0-139.915-60.582-143.83-136.524h17.358c3.893 66.38 59.126 119.194 126.472 119.194s122.579-52.814 126.472-119.194h17.358c-3.915 75.942-66.93 136.524-143.83 136.524z"/><path d="m256 398.004c-4.142 0-7.5 3.357-7.5 7.5v12.122c0 4.143 3.358 7.5 7.5 7.5s7.5-3.357 7.5-7.5v-12.122c0-4.143-3.358-7.5-7.5-7.5z"/><path d="m312.126 286.243-44.066 44.066c-3.598-1.922-7.703-3.016-12.06-3.016-14.162 0-25.683 11.521-25.683 25.683s11.521 25.683 25.683 25.683 25.683-11.521 25.683-25.683c0-4.357-1.094-8.461-3.016-12.06l44.066-44.065c2.929-2.93 2.929-7.678 0-10.607-2.929-2.928-7.678-2.93-10.607-.001zm-56.126 77.415c-5.891 0-10.683-4.792-10.683-10.683s4.792-10.683 10.683-10.683 10.683 4.792 10.683 10.683-4.792 10.683-10.683 10.683z"/><path d="m288.325 398.004c-4.142 0-7.5 3.357-7.5 7.5v12.122c0 4.143 3.358 7.5 7.5 7.5s7.5-3.357 7.5-7.5v-12.122c0-4.143-3.358-7.5-7.5-7.5z"/><path d="m223.675 398.004c-4.142 0-7.5 3.357-7.5 7.5v12.122c0 4.143 3.358 7.5 7.5 7.5s7.5-3.357 7.5-7.5v-12.122c0-4.143-3.358-7.5-7.5-7.5z"/></g></g></svg>