<svg height="512" viewBox="0 0 128 128" width="512" xmlns="http://www.w3.org/2000/svg"><g><g><path d="m14 17h100a8 8 0 0 1 8 8v77a9 9 0 0 1 -9 9h-98a9 9 0 0 1 -9-9v-77a8 8 0 0 1 8-8z" fill="#e1f7ff"/><path d="m114 17h-100a8 8 0 0 0 -8 8v13.433h116v-13.433a8 8 0 0 0 -8-8z" fill="#0081d0"/><circle cx="21.57" cy="27.717" fill="#f37249" r="4"/><circle cx="37.626" cy="27.717" fill="#ffcc5b" r="4"/><path d="m122 25a8 8 0 0 0 -8-8h-53.738l-10.138 21.433h71.876z" fill="#a4def7"/></g><path d="m17.933 52.717h34v44h-34z" fill="#59b7e8"/><path d="m64.067 52.717h46v11h-46z" fill="#ffcc5b"/><path d="m51.933 85.732-22.609-15.38-11.391 10.699v15.666h34z" fill="#f37249"/><path d="m45.239 63.6a4.012 4.012 0 1 0 -4.012 4.012 4.012 4.012 0 0 0 4.012-4.012z" fill="#ffcc5b"/></g><path d="m40.91 111a1.75 1.75 0 0 1 1.75-1.75h1.276a1.75 1.75 0 1 1 0 3.5h-1.276a1.75 1.75 0 0 1 -1.75-1.75zm73.09-95.75h-100a9.761 9.761 0 0 0 -9.75 9.75v77a10.762 10.762 0 0 0 10.75 10.75h19.933a1.75 1.75 0 0 0 0-3.5h-19.933a7.258 7.258 0 0 1 -7.25-7.25v-61.817h83.165a1.75 1.75 0 0 0 0-3.5h-38.027l5.512-11.647a1.75 1.75 0 1 0 -3.164-1.5l-6.22 13.147h-41.266v-11.683a6.257 6.257 0 0 1 6.25-6.25h100a6.257 6.257 0 0 1 6.25 6.25v11.683h-10.183a1.75 1.75 0 0 0 0 3.5h10.183v61.817a7.258 7.258 0 0 1 -7.25 7.25h-59.53a1.75 1.75 0 0 0 0 3.5h59.53a10.762 10.762 0 0 0 10.75-10.75v-77a9.761 9.761 0 0 0 -9.75-9.75zm-14.532 24.933h1.915a1.75 1.75 0 0 0 0-3.5h-1.915a1.75 1.75 0 0 0 0 3.5zm-77.898-14.717a2.253 2.253 0 0 1 2.25 2.25 1.75 1.75 0 0 0 3.5 0 5.75 5.75 0 1 0 -5.75 5.75 1.75 1.75 0 0 0 0-3.5 2.25 2.25 0 0 1 0-4.5zm16.056-3.5a5.75 5.75 0 1 1 -5.75 5.75 5.757 5.757 0 0 1 5.75-5.75zm0 3.5a2.25 2.25 0 1 0 2.25 2.25 2.253 2.253 0 0 0 -2.25-2.25zm76.391 2.25a1.751 1.751 0 0 0 -1.75-1.75h-44.745a1.75 1.75 0 0 0 0 3.5h44.745a1.75 1.75 0 0 0 1.75-1.75zm-62.084 70.75h-34a1.749 1.749 0 0 1 -1.75-1.75v-44a1.75 1.75 0 0 1 1.75-1.75h34a1.751 1.751 0 0 1 1.75 1.75v44a1.75 1.75 0 0 1 -1.75 1.75zm-1.75-44h-30.5v22.541l8.443-7.93a1.749 1.749 0 0 1 2.183-.172l16.691 11.354a1.75 1.75 0 1 1 -1.968 2.894l-15.532-10.565-9.817 9.221v13.157h30.5zm13.884-3.5h46a1.75 1.75 0 0 1 1.75 1.75v11a1.749 1.749 0 0 1 -1.75 1.75h-46a1.75 1.75 0 0 1 -1.75-1.75v-11a1.751 1.751 0 0 1 1.75-1.75zm1.75 11h42.5v-7.5h-42.5zm-1.75 14.5h46a1.75 1.75 0 0 0 0-3.5h-46a1.75 1.75 0 1 0 0 3.5zm46 7.5h-32.812a1.75 1.75 0 0 0 0 3.5h32.812a1.75 1.75 0 0 0 0-3.5zm-46 3.5h5.784a1.75 1.75 0 0 0 0-3.5h-5.784a1.75 1.75 0 1 0 0 3.5zm0 11h46a1.75 1.75 0 0 0 0-3.5h-46a1.75 1.75 0 1 0 0 3.5zm-22.84-29.1a5.762 5.762 0 1 0 0-11.524 1.75 1.75 0 0 0 0 3.5 2.262 2.262 0 1 1 -2.262 2.258 1.75 1.75 0 0 0 -3.5 0 5.769 5.769 0 0 0 5.762 5.763z" fill="#2f464c"/></svg>