<svg fill="#3979F8" id="Icons" height="512" viewBox="0 0 74 74" width="512" xmlns="http://www.w3.org/2000/svg"><path d="m47.155 61.924a1 1 0 0 1 -.693-1.72l1.564-1.504a1 1 0 1 1 1.387 1.441l-1.564 1.506a1 1 0 0 1 -.694.277z"/><path d="m33.8 72a8.119 8.119 0 0 1 -2.415-.369l-8.16-2.521a5.94 5.94 0 0 0 -5.3.917l-1.218.919a2.491 2.491 0 0 1 -3.326-.306 33.509 33.509 0 0 1 -6.57-9.923 2.488 2.488 0 0 1 .931-3.05l6.384-4.155a14.126 14.126 0 0 1 6.732-2.334 9.922 9.922 0 0 1 7.558 2.343c.067.048 3.122 2.294 8.954.643l.747-.177a4.031 4.031 0 0 1 4.73 2.6c.036.1.071.214.1.331.006.024.024.1.028.128a4.037 4.037 0 0 1 -3.075 4.824c-4.505 1-10.547 2-13.741 1.067a1 1 0 0 1 .561-1.92c2.144.626 6.789.225 12.746-1.1a2.038 2.038 0 0 0 1.569-2.412 1.9 1.9 0 0 0 -.067-.241 2.038 2.038 0 0 0 -2.391-1.331l-.7.166c-6.827 1.932-10.586-.926-10.743-1.048a7.932 7.932 0 0 0 -6.134-1.878 12.138 12.138 0 0 0 -5.778 2.014l-6.389 4.157a.49.49 0 0 0 -.173.6 31.521 31.521 0 0 0 6.186 9.327.49.49 0 0 0 .661.072l1.219-.92a7.944 7.944 0 0 1 7.087-1.223l8.162 2.522a6.108 6.108 0 0 0 5.611-1.037 1 1 0 1 1 1.239 1.57 8.115 8.115 0 0 1 -5.025 1.745z"/><path d="m41.924 66.948a1 1 0 0 1 -.694-1.72l1.533-1.478a1 1 0 0 1 1.388 1.441l-1.533 1.477a1 1 0 0 1 -.694.28z"/><path d="m42.558 57.676-.692-.727-.617-.787 9.542-8.219a3.918 3.918 0 0 1 5.269 5.8l-2.952 2.84a1 1 0 1 1 -1.387-1.441l2.955-2.843a1.918 1.918 0 0 0 -2.58-2.836z"/><path d="m35.607 49.048a11.7 11.7 0 1 1 11.7-11.7 11.709 11.709 0 0 1 -11.7 11.7zm0-21.392a9.7 9.7 0 1 0 9.7 9.7 9.707 9.707 0 0 0 -9.7-9.7z"/><path d="m35.607 38.352a3.764 3.764 0 0 1 -3.936-3.552 3.23 3.23 0 0 1 .091-.766 3.849 3.849 0 0 1 3.845-2.786 3.9 3.9 0 0 1 3.844 2.782 1 1 0 1 1 -1.941.479 2.066 2.066 0 0 0 -3.8 0 1.2 1.2 0 0 0 -.034.291 1.778 1.778 0 0 0 1.936 1.552 1 1 0 0 1 0 2z"/><path d="m35.607 43.457a3.846 3.846 0 0 1 -3.844-2.774 1 1 0 0 1 1.942-.478 2.071 2.071 0 0 0 3.805 0 1.322 1.322 0 0 0 .034-.3 1.779 1.779 0 0 0 -1.937-1.552 1 1 0 0 1 0-2 3.764 3.764 0 0 1 3.937 3.547 3.287 3.287 0 0 1 -.092.775 3.845 3.845 0 0 1 -3.845 2.782z"/><path d="m35.612 44.428a1 1 0 0 1 -1-1v-.971a1 1 0 0 1 2 0v.971a1 1 0 0 1 -1 1z"/><path d="m35.612 33.249a1 1 0 0 1 -1-1v-.972a1 1 0 0 1 2 0v.972a1 1 0 0 1 -1 1z"/><path d="m17.22 29.082a4.149 4.149 0 0 1 -2.906-7.1l18.261-17.982a8.694 8.694 0 0 1 8-1.642l8.831 2.6a6.474 6.474 0 0 0 5.762-1.077l1.3-1.008a2.611 2.611 0 0 1 3.486.273 36.1 36.1 0 0 1 7.209 10.578 2.606 2.606 0 0 1 -.933 3.206l-6.818 4.57a15.148 15.148 0 0 1 -7.184 2.6 10.622 10.622 0 0 1 -8.122-2.4c-.08-.055-3.431-2.456-9.733-.58l-.8.2a4.261 4.261 0 0 1 -4.359-1.468l-9.245 8.181a4.139 4.139 0 0 1 -2.749 1.049zm20.888-25.082a6.669 6.669 0 0 0 -4.2 1.49l-18.191 17.916a2.145 2.145 0 0 0 2.929 3.132l9.7-8.584a4.268 4.268 0 0 1 3.233-4.954c4.831-1.143 11.314-2.3 14.754-1.348a1 1 0 0 1 -.535 1.927c-2.329-.646-7.344-.148-13.759 1.367a2.274 2.274 0 0 0 -1.715 2.714v.02a.992.992 0 0 1 .18.5 2.27 2.27 0 0 0 2.581 1.2l.754-.189c7.3-2.172 11.36.833 11.528.962a8.611 8.611 0 0 0 6.69 1.952 13.158 13.158 0 0 0 6.243-2.264l6.824-4.572a.607.607 0 0 0 .207-.751 34.092 34.092 0 0 0 -6.817-9.986.605.605 0 0 0 -.817-.075l-1.3 1.009a8.485 8.485 0 0 1 -7.55 1.413l-8.833-2.6a6.668 6.668 0 0 0 -1.906-.279z"/></svg>