<?xml version="1.0" encoding="iso-8859-1"?>
<!-- Generator: Adobe Illustrator 19.0.0, SVG Export Plug-In . SVG Version: 6.00 Build 0)  -->
<svg version="1.1" id="Capa_1" xmlns="http://www.w3.org/2000/svg" xmlns:xlink="http://www.w3.org/1999/xlink" x="0px" y="0px"
	 viewBox="0 0 204.802 204.802" style="enable-background:new 0 0 204.802 204.802;" xml:space="preserve">
<rect x="92.16" y="139.948" style="fill:#00E7FF;" width="20.48" height="30.72"/>
<path style="fill:#602F75;" d="M112.64,174.081H92.16c-1.884,0-3.413-1.529-3.413-3.413v-30.72c0-1.884,1.529-3.413,3.413-3.413
	h20.48c1.884,0,3.413,1.529,3.413,3.413v30.72C116.053,172.552,114.524,174.081,112.64,174.081z M95.573,167.254h13.653v-23.893
	H95.573V167.254z"/>
<path style="fill:#FFFFFF;" d="M79.077,146.774H13.257c-5.437,0-9.844-4.407-9.844-9.844V33.738c0-5.437,4.407-9.844,9.844-9.844
	h178.285c5.437,0,9.844,4.407,9.844,9.844V136.93c0,5.437-4.407,9.844-9.844,9.844h-68.094"/>
<path style="fill:#602F75;" d="M191.543,150.188h-68.094c-1.884,0-3.413-1.529-3.413-3.413c0-1.884,1.529-3.413,3.413-3.413h68.094
	c3.545,0,6.431-2.884,6.431-6.431V33.737c0-3.545-2.884-6.431-6.431-6.431H13.257c-3.546,0.002-6.431,2.886-6.431,6.432v103.194
	c0,3.545,2.884,6.431,6.431,6.431h65.819c1.884,0,3.413,1.529,3.413,3.413s-1.529,3.413-3.413,3.413H13.257
	C5.948,150.189,0,144.243,0,136.932V33.738c0-7.31,5.946-13.257,13.257-13.257h178.287c7.31,0,13.257,5.946,13.257,13.257v103.194
	C204.8,144.242,198.854,150.188,191.543,150.188z"/>
<g>
	<circle style="fill:#FFE600;" cx="175.787" cy="124.588" r="11.947"/>
	<g>
		<circle style="fill:#EA3457;" cx="175.787" cy="63.148" r="5.12"/>
		<circle style="fill:#EA3457;" cx="175.787" cy="46.081" r="5.12"/>
	</g>
	<rect x="75.093" y="170.668" style="fill:#00E7FF;" width="54.613" height="10.24"/>
</g>
<g>
	<path style="fill:#602F75;" d="M129.707,184.321H75.093c-1.884,0-3.413-1.529-3.413-3.413v-10.24c0-1.884,1.529-3.413,3.413-3.413
		h54.613c1.884,0,3.413,1.529,3.413,3.413v10.24C133.12,182.792,131.591,184.321,129.707,184.321z M78.507,177.494h47.787v-3.413
		H78.507V177.494z"/>
	<path style="fill:#602F75;" d="M102.4,129.708c-12.553,0-22.019-20.543-22.019-47.787s9.467-47.787,22.019-47.787
		s22.019,20.543,22.019,47.787S114.953,129.708,102.4,129.708z M102.4,40.961c-7.171,0-15.193,17.517-15.193,40.96
		s8.021,40.96,15.193,40.96s15.193-17.517,15.193-40.96S109.571,40.961,102.4,40.961z"/>
	<path style="fill:#602F75;" d="M132.062,114.476c-11.752,0-28.327-6.729-42.25-15.749C72.383,87.439,59.994,73.568,58.249,63.392
		c-0.609-3.555,0.056-6.721,1.929-9.149c8.218-10.679,34.374-2.367,54.811,10.871c17.428,11.288,29.817,25.158,31.563,35.335
		c0.609,3.555-0.056,6.721-1.929,9.149C142.003,113.003,137.561,114.476,132.062,114.476z M72.75,56.188
		c-3.569,0-6.06,0.787-7.163,2.219c-0.696,0.906-0.896,2.161-0.609,3.831c1.142,6.649,10.561,19.11,28.546,30.759
		c22.851,14.8,42.01,17.212,45.691,12.438c0.696-0.906,0.896-2.161,0.609-3.831c-1.142-6.649-10.561-19.11-28.546-30.759
		C95.278,60.482,81.084,56.188,72.75,56.188z"/>
	<path style="fill:#602F75;" d="M72.738,114.476c-5.501,0-9.941-1.473-12.561-4.876c-1.872-2.43-2.538-5.594-1.929-9.149
		c1.746-10.177,14.135-24.047,31.563-35.335c20.437-13.239,46.595-21.547,54.811-10.871c1.872,2.43,2.538,5.594,1.929,9.149
		c-1.746,10.177-14.135,24.047-31.563,35.335C101.067,107.746,84.49,114.476,72.738,114.476z M132.05,56.188
		c-8.334,0-22.526,4.292-38.528,14.657c-17.985,11.65-27.404,24.11-28.546,30.759c-0.287,1.671-0.087,2.925,0.609,3.831
		c3.683,4.775,22.842,2.364,45.691-12.438c17.985-11.65,27.404-24.11,28.546-30.759c0.287-1.671,0.087-2.925-0.609-3.831
		C138.11,56.975,135.617,56.188,132.05,56.188z"/>
</g>
<rect x="27.307" y="27.308" style="fill:#00E7FF;" width="23.893" height="116.053"/>
<g>
</g>
<g>
</g>
<g>
</g>
<g>
</g>
<g>
</g>
<g>
</g>
<g>
</g>
<g>
</g>
<g>
</g>
<g>
</g>
<g>
</g>
<g>
</g>
<g>
</g>
<g>
</g>
<g>
</g>
</svg>
