<svg fill="#fff" id="Capa_1" enable-background="new 0 0 512 512" height="512" viewBox="0 0 512 512" width="512" xmlns="http://www.w3.org/2000/svg"><g><path d="m71.802 82.375h151.127c4.143 0 7.5-3.358 7.5-7.5s-3.357-7.5-7.5-7.5h-151.127c-4.143 0-7.5 3.358-7.5 7.5s3.357 7.5 7.5 7.5z"/><path d="m71.802 131.75h151.127c4.143 0 7.5-3.358 7.5-7.5s-3.357-7.5-7.5-7.5h-151.127c-4.143 0-7.5 3.358-7.5 7.5s3.357 7.5 7.5 7.5z"/><path d="m359.777 207.896h-281.976c-4.143 0-7.5 3.358-7.5 7.5s3.357 7.5 7.5 7.5h281.977c4.143 0 7.5-3.358 7.5-7.5s-3.358-7.5-7.501-7.5z"/><path d="m359.777 269.998h-281.976c-4.143 0-7.5 3.358-7.5 7.5s3.357 7.5 7.5 7.5h281.977c4.143 0 7.5-3.358 7.5-7.5s-3.358-7.5-7.501-7.5z"/><path d="m189.865 332.101h-112.064c-4.143 0-7.5 3.358-7.5 7.5s3.357 7.5 7.5 7.5h112.064c4.143 0 7.5-3.358 7.5-7.5s-3.357-7.5-7.5-7.5z"/><path d="m189.865 394.203h-112.064c-4.143 0-7.5 3.358-7.5 7.5s3.357 7.5 7.5 7.5h112.064c4.143 0 7.5-3.358 7.5-7.5s-3.357-7.5-7.5-7.5z"/><path d="m468.561 312.523h-225.32c-15.239 0-27.637 12.397-27.637 27.636v143.982c0 15.239 12.397 27.636 27.637 27.636h225.319c15.239 0 27.637-12.397 27.637-27.636v-143.981c0-15.239-12.397-27.637-27.636-27.637zm-.744 15-96.562 79.65c-8.896 7.339-21.811 7.338-30.707 0l-96.563-79.65zm-224.576 169.255c-.597 0-1.184-.042-1.759-.122l63.504-62.783c2.946-2.912 2.974-7.661.062-10.606-2.914-2.946-7.663-2.972-10.606-.061l-63.675 62.952c-.106-.657-.161-1.33-.161-2.017v-143.981c0-1.308.2-2.57.571-3.758l99.828 82.343c7.214 5.951 16.055 8.925 24.898 8.925 8.841 0 17.686-2.976 24.898-8.925l99.827-82.343c.371 1.188.57 2.45.57 3.758v143.982c0 .686-.055 1.36-.161 2.017l-63.713-62.989c-2.944-2.913-7.693-2.886-10.606.061-2.912 2.946-2.885 7.694.062 10.606l63.542 62.82c-.575.08-1.162.122-1.759.122h-225.322z"/><path d="m187.25 497h-137.474c-10.462 0-18.974-8.511-18.974-18.973v-444.054c.001-10.462 8.512-18.973 18.974-18.973h240.25v89.248c0 15.165 12.337 27.502 27.502 27.502h89.248v153.377c0 4.142 3.357 7.5 7.5 7.5s7.5-3.358 7.5-7.5v-160.877c0-1.989-.79-3.897-2.196-5.303l-116.75-116.75c-1.407-1.407-3.314-2.197-5.304-2.197h-247.75c-18.733 0-33.973 15.24-33.973 33.973v444.054c0 18.733 15.24 33.973 33.974 33.973h137.473c4.143 0 7.5-3.358 7.5-7.5s-3.357-7.5-7.5-7.5zm117.776-392.752v-78.642l91.144 91.144h-78.642c-6.893 0-12.502-5.608-12.502-12.502z"/></g></svg>