<svg fill="#3979F8" id="Layer_5" enable-background="new 0 0 64 64" height="512" viewBox="0 0 64 64" width="512" xmlns="http://www.w3.org/2000/svg"><path d="m39 52v-13h1c2.206 0 4-1.794 4-4v-8c0-5.129-3.24-9.504-7.777-11.218 2.263-1.415 3.777-3.922 3.777-6.782 0-4.411-3.589-8-8-8s-8 3.589-8 8c0 2.86 1.514 5.367 3.777 6.782-4.537 1.714-7.777 6.089-7.777 11.218v8c0 2.206 1.794 4 4 4h1v13c0 2.206 1.794 4 4 4 1.201 0 2.266-.542 3-1.382.734.84 1.799 1.382 3 1.382 2.206 0 4-1.794 4-4zm-6.021-26.272-.979 1.469-.979-1.47.577-8.707c.134-.005.266-.02.402-.02s.268.015.403.02zm-6.979-16.728c0-3.309 2.691-6 6-6s6 2.691 6 6-2.691 6-6 6-6-2.691-6-6zm11 43c0 1.103-.897 2-2 2s-2-.897-2-2v-18h-2v18c0 1.103-.897 2-2 2s-2-.897-2-2v-29h-2v14h-1c-1.103 0-2-.897-2-2v-8c0-4.676 3.23-8.601 7.573-9.69l-.594 8.962 3.021 4.531 3.021-4.53-.594-8.962c4.343 1.088 7.573 5.013 7.573 9.689v8c0 1.103-.897 2-2 2h-1v-14h-2z"/><path d="m56.949 41.506c1.254-1.1 2.051-2.71 2.051-4.506 0-3.309-2.691-6-6-6s-6 2.691-6 6c0 1.795.796 3.404 2.05 4.505-.993.345-1.922.864-2.747 1.539-2.981.347-5.303 2.884-5.303 5.956 0 1.796.797 3.406 2.051 4.506-3.516 1.225-6.051 4.565-6.051 8.494v1h20v-1c0-3.929-2.535-7.269-6.051-8.494.764-.67 1.354-1.53 1.701-2.506h10.35v-1c0-3.929-2.535-7.269-6.051-8.494zm-3.949-8.506c2.206 0 4 1.794 4 4s-1.794 4-4 4-4-1.794-4-4 1.794-4 4-4zm-5 22c3.521 0 6.442 2.612 6.929 6h-15.858c.486-3.388 3.408-6 6.929-6zm-1-2c-2.206 0-4-1.794-4-4s1.794-4 4-4 4 1.794 4 4-1.794 4-4 4zm6-4c0-2.455-1.483-4.567-3.599-5.495.82-.328 1.7-.505 2.599-.505h2c3.521 0 6.442 2.612 6.929 6z"/><path d="m20.949 53.506c1.254-1.1 2.051-2.71 2.051-4.506 0-3.073-2.322-5.609-5.303-5.956-.824-.676-1.753-1.195-2.747-1.539 1.254-1.101 2.05-2.71 2.05-4.505 0-3.309-2.691-6-6-6s-6 2.691-6 6c0 1.796.797 3.406 2.051 4.506-3.516 1.225-6.051 4.565-6.051 8.494v1h10.35c.347.976.937 1.836 1.701 2.506-3.516 1.225-6.051 4.565-6.051 8.494v1h20v-1c0-3.929-2.535-7.269-6.051-8.494zm-9.949-20.506c2.206 0 4 1.794 4 4s-1.794 4-4 4-4-1.794-4-4 1.794-4 4-4zm0 16h-7.929c.486-3.388 3.408-6 6.929-6h2c.9 0 1.78.177 2.6.505-2.117.928-3.6 3.04-3.6 5.495zm6-4c2.206 0 4 1.794 4 4s-1.794 4-4 4-4-1.794-4-4 1.794-4 4-4zm-7.929 16c.486-3.388 3.408-6 6.929-6h2c3.521 0 6.442 2.612 6.929 6z"/><path d="m60 6c0-2.757-2.243-5-5-5h-8c-2.757 0-5 2.243-5 5v5h13c2.757 0 5-2.243 5-5zm-16 0c0-1.654 1.346-3 3-3h8c1.654 0 3 1.346 3 3s-1.346 3-3 3h-11z"/><path d="m46 5h2v2h-2z"/><path d="m50 5h2v2h-2z"/><path d="m54 5h2v2h-2z"/><path d="m9 11h13v-5c0-2.757-2.243-5-5-5h-8c-2.757 0-5 2.243-5 5s2.243 5 5 5zm0-8h8c1.654 0 3 1.346 3 3v3h-11c-1.654 0-3-1.346-3-3s1.346-3 3-3z"/><path d="m16 5h2v2h-2z"/><path d="m12 5h2v2h-2z"/><path d="m8 5h2v2h-2z"/><path d="m50 13c-2.757 0-5 2.243-5 5v5h13c2.757 0 5-2.243 5-5s-2.243-5-5-5zm11 5c0 1.654-1.346 3-3 3h-11v-3c0-1.654 1.346-3 3-3h8c1.654 0 3 1.346 3 3z"/><path d="m49 17h2v2h-2z"/><path d="m53 17h2v2h-2z"/><path d="m57 17h2v2h-2z"/><path d="m6 23h13v-5c0-2.757-2.243-5-5-5h-8c-2.757 0-5 2.243-5 5s2.243 5 5 5zm0-8h8c1.654 0 3 1.346 3 3v3h-11c-1.654 0-3-1.346-3-3s1.346-3 3-3z"/><path d="m13 17h2v2h-2z"/><path d="m9 17h2v2h-2z"/><path d="m5 17h2v2h-2z"/></svg>