<?xml version="1.0"?>
<svg xmlns="http://www.w3.org/2000/svg" xmlns:xlink="http://www.w3.org/1999/xlink" xmlns:svgjs="http://svgjs.com/svgjs" version="1.1" width="512" height="512" x="0" y="0" viewBox="0 0 512 512" style="enable-background:new 0 0 512 512" xml:space="preserve" class=""><g><g xmlns="http://www.w3.org/2000/svg" id="Out_line" data-name="Out line"><path d="M488,240a8.00008,8.00008,0,0,0-8-8H416a8.00008,8.00008,0,0,0-8,8V480H392V344a8.00008,8.00008,0,0,0-8-8H320a8.00008,8.00008,0,0,0-8,8V480H296V408a8.00008,8.00008,0,0,0-8-8H224a8.00008,8.00008,0,0,0-8,8v72H200V360a8.00008,8.00008,0,0,0-8-8H128a8.00008,8.00008,0,0,0-8,8V480H104V400a8.00008,8.00008,0,0,0-8-8H32a8.00008,8.00008,0,0,0-8,8v80H16v16H496V480h-8Zm-64,8h48V480H424ZM328,352h48V480H328Zm-96,64h48v64H232Zm-96-48h48V480H136ZM40,408H88v72H40Z" fill="#3979f8" data-original="#000000" style="" class=""/><path d="M488,120H440v16h28.686l-106.345,106.34546a23.99424,23.99424,0,0,0-31.99585,31.99487l-64.00439,64.00513a23.96431,23.96431,0,0,0-28.14062,5.57446l-54.2378-22.60571c.02368-.4353.0376-.873.0376-1.31421a24,24,0,1,0-47.81006,2.96582L60.42285,360.84424l7.1543,14.31152,75.78223-37.88611a23.95019,23.95019,0,0,0,34.44042-1.18957l54.2378,22.60571c-.02368.4353-.0376.873-.0376,1.31421a24,24,0,1,0,45.65479-10.34033l64.00439-64.00513a23.99417,23.99417,0,0,0,31.99561-31.99487L480,147.314V176h16V128A8.00008,8.00008,0,0,0,488,120ZM160,328a8,8,0,1,1,8-8A8.00917,8.00917,0,0,1,160,328Zm96,40a8,8,0,1,1,8-8A8.00917,8.00917,0,0,1,256,368Zm96-96a8,8,0,1,1,8-8A8.00917,8.00917,0,0,1,352,272Z" fill="#3979f8" data-original="#000000" style="" class=""/><path d="M152,195.73a76.01718,76.01718,0,0,0,40.27-11.46,200.35215,200.35215,0,0,1,57.66992-24.51,7.99844,7.99844,0,0,0,0-15.52A200.35215,200.35215,0,0,1,192.27,119.73a76.441,76.441,0,0,0-80.54,0,200.35215,200.35215,0,0,1-57.66992,24.51,7.99844,7.99844,0,0,0,0,15.52A200.35215,200.35215,0,0,1,111.73,184.27,76.01718,76.01718,0,0,0,152,195.73Zm55.7-49.49q6.735,3.12012,13.67017,5.76-6.93018,2.655-13.67017,5.76a55.437,55.437,0,0,0,0-11.52Zm-92.53-9.89q2.53491-1.485,5.04-3.04993a60.34515,60.34515,0,0,1,63.58008,0q2.50488,1.55988,5.04,3.04993a40.217,40.217,0,0,1,0,31.29992q-2.53491,1.48516-5.04,3.05a60.34515,60.34515,0,0,1-63.58008,0q-2.50488-1.56006-5.04-3.05a40.217,40.217,0,0,1,0-31.29992ZM96.30005,157.76q-6.735-3.12012-13.67017-5.76,6.93018-2.655,13.67017-5.76a55.437,55.437,0,0,0,0,11.52Z" fill="#3979f8" data-original="#000000" style="" class=""/><path d="M152,176a24,24,0,1,0-24-24A24.02718,24.02718,0,0,0,152,176Zm0-32a8,8,0,1,1-8,8A8.00917,8.00917,0,0,1,152,144Z" fill="#3979f8" data-original="#000000" style="" class=""/><path d="M152,288a135.64284,135.64284,0,0,0,69-18.78l64.47,26.7a7.99474,7.99474,0,0,0,10.45-10.45L269.22,221A135.64287,135.64287,0,0,0,288,152c0-74.99-61.01-136-136-136S16,77.01,16,152,77.01,288,152,288Zm0-256A120.01724,120.01724,0,0,1,253.51,216.02v.01c-.02.03-.03.04993-.05.08a121.03115,121.03115,0,0,1-14.31982,18.39l11.61987,11q4.00488-4.2301,7.63989-8.8L273.75,273.75l-50.39014-20.87a7.91783,7.91783,0,0,0-3.05981-.61,8.0316,8.0316,0,0,0-4.28,1.24A120.005,120.005,0,1,1,152,32Z" fill="#3979f8" data-original="#000000" style="" class=""/></g></g></svg>
