<?xml version="1.0"?>
<svg xmlns="http://www.w3.org/2000/svg" xmlns:xlink="http://www.w3.org/1999/xlink" xmlns:svgjs="http://svgjs.com/svgjs" version="1.1" width="512" height="512" x="0" y="0" viewBox="0 0 512 512" style="enable-background:new 0 0 512 512" xml:space="preserve" class=""><g><g xmlns="http://www.w3.org/2000/svg"><g><path d="m406.089 271.266v-146.973h28.116l-63.376-76.675h-9.344l-63.375 76.675h28.115v146.973zm-39.932-205.756 36.188 43.783h-11.256v146.973h-49.865v-146.973h-11.256z" fill="#3979f8" data-original="#000000" style="" class=""/><path d="m196.225 122.952v148.314h79.865v-148.314zm64.864 133.314h-49.865v-118.314h49.865z" fill="#3979f8" data-original="#000000" style="" class=""/><path d="m86.225 271.266h79.865v-125.223h-79.865zm15-110.223h49.865v95.223h-49.865z" fill="#3979f8" data-original="#000000" style="" class=""/><path d="m479.44.77h-353.38v15h353.38c9.683 0 17.56 7.877 17.56 17.56v273.78h-89.5v15h89.5v50.99c0 9.683-7.877 17.56-17.56 17.56h-446.88c-9.683 0-17.56-7.877-17.56-17.56v-50.99h377.5v-15h-377.5v-273.78c0-9.683 7.877-17.56 17.56-17.56h78.5v-15h-78.5c-17.954 0-32.56 14.606-32.56 32.56v339.77c0 17.954 14.606 32.56 32.56 32.56h446.88c17.954 0 32.56-14.606 32.56-32.56v-339.77c0-17.954-14.606-32.56-32.56-32.56z" fill="#3979f8" data-original="#000000" style="" class=""/><path d="m323.764 426.688-14.708 2.944 4.663 23.293h-115.438l4.663-23.293-14.708-2.944-5.253 26.238h-51.381v58.304h248.796v-58.304h-51.381zm41.634 41.238v28.304h-218.796v-28.304z" fill="#3979f8" data-original="#000000" style="" class=""/></g><g><path d="m308 363.887h-15v-15h15zm-45 0h-15v-15h15zm-45 0h-15v-15h15z" fill="#3979f8" data-original="#000000" style="" class=""/></g><g><path d="m358.555 201.155h15v15h-15z" fill="#3979f8" data-original="#000000" style="" class=""/></g><g><path d="m228.712 201.155h15v15h-15z" fill="#3979f8" data-original="#000000" style="" class=""/></g><g><path d="m118.555 201.155h15v15h-15z" fill="#3979f8" data-original="#000000" style="" class=""/></g></g></g></svg>
