<svg height="512pt" viewBox="0 0 512 512" width="512pt" xmlns="http://www.w3.org/2000/svg"><path d="m331 181v-136c0-19.5-12.597656-36.300781-30-42.300781-4.800781-1.796875-9.601562-2.699219-15-2.699219h-150c-24.902344 0-45 20.097656-45 45v241c0 24.898438 20.097656 45 45 45h150c5.398438 0 10.199219-.902344 15-2.699219 17.402344-6 30-22.800781 30-42.300781v-45l30-30zm-60 0-30 31.199219 30 28.800781v30h-120v-211h120zm0 0" fill="#474f54"/><path d="m361 211-30 30v45c0 19.5-12.597656 36.300781-30 42.300781v-325.601562c17.402344 6 30 22.800781 30 42.300781v136zm0 0" fill="#32393f"/><g fill="#9bfcff"><path d="m0 241h61v30h-61zm0 0"/><path d="m52.679688 208.480469-46-30 16.640624-24.960938 46 30zm0 0"/><path d="m23.320312 358.480469-16.640624-24.960938 46-30 16.640624 24.960938zm0 0"/></g><path d="m451 241h61v30h-61zm0 0" fill="#76e2f8"/><path d="m459.320312 208.480469-16.640624-24.960938 46-30 16.640624 24.960938zm0 0" fill="#76e2f8"/><path d="m488.679688 358.480469-46-30 16.640624-24.960938 46 30zm0 0" fill="#76e2f8"/><path d="m421 226v241c0 24.898438-20.097656 45-45 45h-150c-24.902344 0-45-20.101562-45-45v-241c0-24.902344 20.097656-45 45-45h45v60h-30v211h120v-211h-30v-60h45c24.902344 0 45 20.097656 45 45zm0 0" fill="#ff9100"/><path d="m421 226v241c0 24.898438-20.097656 45-45 45h-75v-60h60v-211h-30v-60h45c24.902344 0 45 20.097656 45 45zm0 0" fill="#ff641a"/></svg>