<svg id="_x33_0" enable-background="new 0 0 62 62" height="512" viewBox="0 0 62 62" width="512" xmlns="http://www.w3.org/2000/svg"><g><g><g><path d="m47 53v-23.56c0-.15.02-.3.04-.44.04-.14.08-.27.14-.4l1.66-3.6h-7.84l-1.68 5.05c-.19.57-.72.95-1.32.95s-1.13-.38-1.32-.95l-1.68-5.05h-6c-1.1 0-2-.9-2-2v-6h-24v40h44.34c-.22-.63-.34-1.3-.34-2z" fill="#f0d0b4"/></g><g><path d="m22 35h-14c-.552 0-1-.448-1-1v-12c0-.552.448-1 1-1h14c.552 0 1 .448 1 1v12c0 .552-.448 1-1 1z" fill="#e6e9ed"/></g><g><path d="m20.49 57c-2.02 2.44-5.07 4-8.49 4-6.08 0-11-4.92-11-11 0-2.36.74-4.54 2-6.33 1.99-2.83 5.28-4.67 9-4.67 6.08 0 11 4.92 11 11 0 2.66-.94 5.1-2.51 7z" fill="#b4dd7f"/></g><g><path d="m27 9v8h-24v-7c0-.55.45-1 1-1z" fill="#ef7385"/></g><g><path d="m59 1h-30c-1.1 0-2 .9-2 2v20c0 1.1.9 2 2 2h6l1.68 5.05c.19.57.72.95 1.32.95s1.13-.38 1.32-.95l1.68-5.05h7.84 8.32 1.84c1.1 0 2-.9 2-2v-20c0-1.1-.9-2-2-2z" fill="#e6e9ed"/></g><g><path d="m37.29 6.46c.63.63 1.71.19 1.71-.7v-.76h4v.76c0 .89 1.08 1.33 1.71.7l.53-.53 2.83 2.83-.53.53c-.63.63-.19 1.71.7 1.71h.76v4h-.76c-.89 0-1.33 1.08-.7 1.71l.53.53-2.83 2.83-.53-.53c-.63-.63-1.71-.19-1.71.7v.76h-4v-.76c0-.89-1.08-1.33-1.71-.7l-.53.53-2.83-2.83.53-.53c.63-.63.19-1.71-.7-1.71h-.76v-4h.76c.89 0 1.33-1.08.7-1.71l-.53-.53 2.83-2.83zm7.71 6.54c0-2.21-1.79-4-4-4s-4 1.79-4 4 1.79 4 4 4 4-1.79 4-4z" fill="#fcd770"/></g><g><path d="m59 29.44v19.56h-6v-20h5.96c.02.14.04.29.04.44z" fill="#ef7385"/></g><g><path d="m53 29v20h-6v-19.56c0-.15.02-.3.04-.44z" fill="#fcd770"/></g><g><path d="m59 49v4h-12v-4h6z" fill="#ffeaa7"/></g><g><path d="m59 53v2c0 3.31-2.69 6-6 6-2.61 0-4.84-1.67-5.66-4-.22-.63-.34-1.3-.34-2v-2z" fill="#ccd1d9"/></g><g><path d="m58.96 29h-5.96-5.96c.04-.14.08-.27.14-.4l1.66-3.6h.01l4.15-9 4.15 9h.01l1.66 3.6c.06.13.1.26.14.4z" fill="#ccd1d9"/></g><g><path d="m17.53 27.85 4.47 7.15h-12l4.47-7.15c.33-.53.91-.85 1.53-.85s1.2.32 1.53.85z" fill="#b4dd7f"/></g><g><path d="m16.32 48.54c.42.29.68.77.68 1.28v.36c0 .51-.26.99-.68 1.28l-4.93 3.28c-.26.17-.55.26-.85.26-.85 0-1.54-.69-1.54-1.54v-6.92c0-.85.69-1.54 1.54-1.54.3 0 .59.09.85.26z" fill="#ef7385"/></g></g><g><path d="m16.871 47.712-4.93-3.287c-.418-.278-.904-.425-1.406-.425-1.397 0-2.535 1.137-2.535 2.535v6.93c0 1.398 1.138 2.535 2.535 2.535.502 0 .988-.147 1.406-.426l4.93-3.287c.707-.471 1.129-1.26 1.129-2.109v-.356c0-.849-.422-1.638-1.129-2.11zm-.871 2.466c0 .179-.089.346-.238.445l-4.93 3.287c-.332.221-.832-.044-.832-.445v-6.93c0-.295.24-.535.535-.535.106 0 .209.031.297.09l4.93 3.287c.149.1.238.266.238.445z"/><path d="m59 0h-30c-1.654 0-3 1.346-3 3v5h-22c-1.103 0-2 .897-2 2v33.381c-1.261 1.899-2 4.174-2 6.619 0 6.617 5.383 12 12 12 3.542 0 6.721-1.552 8.919-4h25.766c1.126 2.361 3.53 4 6.315 4 3.859 0 7-3.14 7-7v-25.561c0-.432-.096-.866-.275-1.257l-1.008-2.182h.283c1.654 0 3-1.346 3-3v-20c0-1.654-1.346-3-3-3zm-33 10v6h-22v-6zm-14 50c-5.514 0-10-4.486-10-10s4.486-10 10-10 10 4.486 10 10-4.486 10-10 10zm10.376-4c1.027-1.768 1.624-3.813 1.624-6 0-6.617-5.383-12-12-12-3.075 0-5.874 1.172-8 3.081v-23.081h22v5c0 1.654 1.346 3 3 3h5.279l1.456 4.369c.327.975 1.237 1.631 2.265 1.631s1.938-.656 2.265-1.632l1.456-4.368h5.562l-1.007 2.183c-.18.39-.276.825-.276 1.256v25.561c0 .34.033.672.08 1zm28.033-32h5.182l1.846 4h-8.875zm.923-2 1.668-3.614 1.668 3.614zm-3.332 8h4v18h-4zm0 20h10v2h-10zm6-2v-18h4v18zm-1 12c-2.757 0-5-2.243-5-5v-1h10v1c0 2.757-2.243 5-5 5zm7-37c0 .551-.448 1-1 1h-1.206l-4.794-10.386-4.794 10.386h-7.927l-1.911 5.734c-.107.318-.629.317-.736.001l-1.911-5.735h-6.721c-.552 0-1-.449-1-1v-20c0-.551.448-1 1-1h30c.552 0 1 .449 1 1z"/><path d="m49.486 8.758-4.244-4.244-1.242 1.243v-1.757h-6v1.758l-1.242-1.244-4.244 4.244 1.244 1.242h-1.758v6h1.758l-1.244 1.243 4.244 4.244 1.242-1.244v1.757h6v-1.758l1.242 1.244 4.244-4.244-1.244-1.242h1.758v-6h-1.758zm-1.486 5.257c-.711.085-1.326.545-1.605 1.22-.279.674-.17 1.434.272 1.998l-1.435 1.435c-.563-.441-1.322-.55-1.998-.272-.674.279-1.134.894-1.22 1.605h-2.029c-.086-.711-.546-1.326-1.22-1.605-.675-.279-1.434-.17-1.998.272l-1.435-1.435c.442-.563.552-1.323.272-1.998-.278-.675-.893-1.135-1.604-1.22v-2.029c.711-.085 1.326-.545 1.605-1.22.279-.674.17-1.434-.272-1.998l1.435-1.435c.563.442 1.323.552 1.998.272.674-.279 1.134-.894 1.22-1.605h2.029c.086.711.546 1.326 1.22 1.605.674.278 1.433.169 1.998-.272l1.435 1.435c-.442.563-.552 1.323-.272 1.998.279.675.895 1.135 1.605 1.22v2.029z"/><path d="m41 8c-2.757 0-5 2.243-5 5s2.243 5 5 5 5-2.243 5-5-2.243-5-5-5zm0 8c-1.654 0-3-1.346-3-3s1.346-3 3-3 3 1.346 3 3-1.346 3-3 3z"/><path d="m7 12h2v2h-2z"/><path d="m11 12h2v2h-2z"/><path d="m15 12h2v2h-2z"/><path d="m28 50h2v2h-2z"/><path d="m34 50h2v2h-2z"/><path d="m40 50h2v2h-2z"/><path d="m22 20h-14c-1.103 0-2 .897-2 2v12c0 1.103.897 2 2 2h14c1.103 0 2-.897 2-2v-12c0-1.103-.897-2-2-2zm-14 2h14l.001 11.115-3.623-5.797c-.516-.825-1.405-1.318-2.378-1.318s-1.862.493-2.378 1.318l-4.176 6.682h-1.446zm12.196 12h-8.393l3.514-5.622c.297-.474 1.068-.473 1.365 0z"/><path d="m10 24h2v2h-2z"/><path d="m28 34h4v2h-4z"/><path d="m34 34h8v2h-8z"/><path d="m28 38h14v2h-14z"/><path d="m28 42h14v2h-14z"/><path d="m28 46h14v2h-14z"/></g></g></svg>