<?xml version="1.0"?>
<svg xmlns="http://www.w3.org/2000/svg" xmlns:xlink="http://www.w3.org/1999/xlink" xmlns:svgjs="http://svgjs.com/svgjs" version="1.1" width="512" height="512" x="0" y="0" viewBox="0 0 480 480" style="enable-background:new 0 0 512 512" xml:space="preserve"><g>
<g xmlns="http://www.w3.org/2000/svg">
	<g>
		<path d="M432,0c-26.472,0-48,21.528-48,48c0,23.736,17.336,43.448,40,47.28V112h-96c-4.416,0-8,3.584-8,8v24h-72V95.28    c22.664-3.824,40-23.536,40-47.28c0-26.472-21.528-48-48-48s-48,21.528-48,48c0,23.736,17.336,43.448,40,47.28V144h-72v-24    c0-4.416-3.584-8-8-8H56V95.28C78.664,91.456,96,71.744,96,48C96,21.528,74.472,0,48,0S0,21.528,0,48    c0,23.736,17.336,43.448,40,47.28V120c0,4.416,3.584,8,8,8h96v16h-40c-4.416,0-8,3.584-8,8v48c0,2.88,1.544,5.536,4.048,6.96    L208,268.296V320c0,2.952,1.624,5.664,4.224,7.056c1.184,0.632,2.48,0.944,3.776,0.944c1.552,0,3.096-0.456,4.44-1.344l48-32    c2.224-1.488,3.56-3.984,3.56-6.656v-19.704l107.952-61.336c2.504-1.424,4.048-4.08,4.048-6.96v-48c0-4.416-3.584-8-8-8h-40v-16    h96c4.416,0,8-3.584,8-8V95.28c22.664-3.824,40-23.536,40-47.28C480,21.528,458.472,0,432,0z M16,48c0-17.648,14.352-32,32-32    s32,14.352,32,32S65.648,80,48,80S16,65.648,16,48z M208,48c0-17.648,14.352-32,32-32s32,14.352,32,32s-14.352,32-32,32    S208,65.648,208,48z M368,160v35.344L260.048,256.68c-2.504,1.424-4.048,4.08-4.048,6.96v20.08l-32,21.336V263.64    c0-2.88-1.544-5.536-4.048-6.96L112,195.344V160H368z M432,80c-17.648,0-32-14.352-32-32s14.352-32,32-32s32,14.352,32,32    S449.648,80,432,80z" fill="#3979f8" data-original="#000000" style=""/>
	</g>
</g>
<g xmlns="http://www.w3.org/2000/svg">
	<g>
		<path d="M240,336c-39.696,0-72,32.304-72,72s32.304,72,72,72s72-32.304,72-72S279.696,336,240,336z M232,432c-4.408,0-8-3.592-8-8    h-16c0,13.232,10.768,24,24,24v15.36c-27.096-3.904-48-27.208-48-55.36c0-28.152,20.904-51.456,48-55.36V368    c-13.232,0-24,10.768-24,24s10.768,24,24,24h16c4.408,0,8,3.592,8,8c0,4.408-3.592,8-8,8H232z M248,463.36V448    c13.232,0,24-10.768,24-24s-10.768-24-24-24h-16c-4.408,0-8-3.592-8-8c0-4.408,3.592-8,8-8h16c4.408,0,8,3.592,8,8h16    c0-13.232-10.768-24-24-24v-15.36c27.096,3.904,48,27.208,48,55.36C296,436.152,275.096,459.456,248,463.36z" fill="#3979f8" data-original="#000000" style=""/>
	</g>
</g>
<g xmlns="http://www.w3.org/2000/svg">
</g>
<g xmlns="http://www.w3.org/2000/svg">
</g>
<g xmlns="http://www.w3.org/2000/svg">
</g>
<g xmlns="http://www.w3.org/2000/svg">
</g>
<g xmlns="http://www.w3.org/2000/svg">
</g>
<g xmlns="http://www.w3.org/2000/svg">
</g>
<g xmlns="http://www.w3.org/2000/svg">
</g>
<g xmlns="http://www.w3.org/2000/svg">
</g>
<g xmlns="http://www.w3.org/2000/svg">
</g>
<g xmlns="http://www.w3.org/2000/svg">
</g>
<g xmlns="http://www.w3.org/2000/svg">
</g>
<g xmlns="http://www.w3.org/2000/svg">
</g>
<g xmlns="http://www.w3.org/2000/svg">
</g>
<g xmlns="http://www.w3.org/2000/svg">
</g>
<g xmlns="http://www.w3.org/2000/svg">
</g>
</g></svg>
