<?xml version="1.0"?>
<svg xmlns="http://www.w3.org/2000/svg" xmlns:xlink="http://www.w3.org/1999/xlink" xmlns:svgjs="http://svgjs.com/svgjs" version="1.1" width="512" height="512" x="0" y="0" viewBox="0 0 512 512" style="enable-background:new 0 0 512 512" xml:space="preserve" class=""><g><g xmlns="http://www.w3.org/2000/svg"><g><path d="m165.687 102.646c4.143 0 7.5-3.357 7.5-7.5v-18.817h18.641c4.143 0 7.5-3.357 7.5-7.5s-3.357-7.5-7.5-7.5h-20.522c-7.233 0-13.118 5.885-13.118 13.119v20.697c-.001 4.143 3.356 7.501 7.499 7.501z" fill="#3979f8" data-original="#000000" style=""/><path d="m427.578 76.329h18.296v18.816c0 4.143 3.357 7.5 7.5 7.5s7.5-3.357 7.5-7.5v-20.697c0-7.234-5.885-13.119-13.119-13.119h-20.177c-4.143 0-7.5 3.357-7.5 7.5s3.358 7.5 7.5 7.5z" fill="#3979f8" data-original="#000000" style=""/><path d="m427.578 364.018h20.177c7.234 0 13.119-5.885 13.119-13.119v-20.003c0-4.143-3.357-7.5-7.5-7.5s-7.5 3.357-7.5 7.5v18.122h-18.296c-4.143 0-7.5 3.357-7.5 7.5s3.358 7.5 7.5 7.5z" fill="#3979f8" data-original="#000000" style=""/><path d="m171.305 364.018h20.522c4.143 0 7.5-3.357 7.5-7.5s-3.357-7.5-7.5-7.5h-18.641v-18.122c0-4.143-3.357-7.5-7.5-7.5s-7.5 3.357-7.5 7.5v20.003c.001 7.234 5.885 13.119 13.119 13.119z" fill="#3979f8" data-original="#000000" style=""/><path d="m491.612 405.909h-380.133c-2.971 0-5.388-2.417-5.388-5.388v-380.133c0-11.242-9.147-20.388-20.389-20.388h-65.314c-11.242 0-20.388 9.146-20.388 20.388v121.997c0 4.143 3.357 7.5 7.5 7.5s7.5-3.357 7.5-7.5v-121.997c0-2.971 2.417-5.388 5.388-5.388h65.314c2.972 0 5.389 2.417 5.389 5.388v36.445h-25.424c-4.143 0-7.5 3.357-7.5 7.5s3.357 7.5 7.5 7.5h25.424v32.792h-15.591c-4.143 0-7.5 3.357-7.5 7.5s3.357 7.5 7.5 7.5h15.591v32.791h-25.424c-4.143 0-7.5 3.357-7.5 7.5s3.357 7.5 7.5 7.5h25.424v32.792h-15.591c-4.143 0-7.5 3.357-7.5 7.5s3.357 7.5 7.5 7.5h15.591v32.791h-25.424c-4.143 0-7.5 3.357-7.5 7.5s3.357 7.5 7.5 7.5h25.424v32.792h-15.591c-4.143 0-7.5 3.357-7.5 7.5s3.357 7.5 7.5 7.5h15.591v32.792h-25.424c-4.143 0-7.5 3.357-7.5 7.5s3.357 7.5 7.5 7.5h25.424v41.938c0 2.877.599 5.617 1.679 8.101l-77.77 77.771v-308.946c0-4.143-3.357-7.5-7.5-7.5s-7.5 3.357-7.5 7.5v314.165c0 11.237 9.14 20.388 20.388 20.388h471.225c11.242 0 20.388-9.146 20.388-20.388v-65.314c-.001-11.242-9.147-20.389-20.389-20.389zm5.388 85.703c0 2.971-2.417 5.388-5.388 5.388h-466.005l77.77-77.77c2.484 1.08 5.224 1.679 8.101 1.679h37.177v25.439c0 4.143 3.357 7.5 7.5 7.5s7.5-3.357 7.5-7.5v-25.439h32.792v15.606c0 4.143 3.357 7.5 7.5 7.5s7.5-3.357 7.5-7.5v-15.606h32.791v25.439c0 4.143 3.357 7.5 7.5 7.5s7.5-3.357 7.5-7.5v-25.439h32.792v15.606c0 4.143 3.357 7.5 7.5 7.5s7.5-3.357 7.5-7.5v-15.606h32.791v25.439c0 4.143 3.357 7.5 7.5 7.5s7.5-3.357 7.5-7.5v-25.439h32.792v15.606c0 4.143 3.357 7.5 7.5 7.5s7.5-3.357 7.5-7.5v-15.606h32.791v25.439c0 4.143 3.357 7.5 7.5 7.5s7.5-3.357 7.5-7.5v-25.439h41.208c2.971 0 5.388 2.417 5.388 5.389z" fill="#3979f8" data-original="#000000" style=""/><path d="m212.405 281.775 85.843 49.562c6.96 4.018 15.605 4.019 22.563 0l85.843-49.562c6.959-4.017 11.282-11.504 11.282-19.54v-99.124c0-8.024-4.315-15.519-11.281-19.54l-85.843-49.561c-6.959-4.018-15.605-4.018-22.564 0l-85.842 49.562c-6.954 4.013-11.283 11.5-11.283 19.54v99.124c0 8.035 4.323 15.523 11.282 19.539zm7.499-12.99c-2.332-1.347-3.781-3.856-3.781-6.55v-94.83l85.907 49.598v99.197zm85.844-161.785c2.332-1.347 5.23-1.349 7.563 0l82.125 47.415-28.285 16.33c-3.587 2.071-4.816 6.658-2.745 10.245 2.08 3.605 6.675 4.806 10.245 2.745l28.285-16.33v94.83c0 2.693-1.448 5.203-3.781 6.55l-82.125 47.414v-99.196l26.736-15.436c3.587-2.071 4.816-6.658 2.745-10.245-2.07-3.587-6.66-4.815-10.245-2.745l-26.736 15.436-85.907-49.598z" fill="#3979f8" data-original="#000000" style=""/></g></g></g></svg>
