<?xml version="1.0"?>
<svg xmlns="http://www.w3.org/2000/svg" xmlns:xlink="http://www.w3.org/1999/xlink" xmlns:svgjs="http://svgjs.com/svgjs" version="1.1" width="512" height="512" x="0" y="0" viewBox="0 0 512 512" style="enable-background:new 0 0 512 512" xml:space="preserve" class=""><g><g xmlns="http://www.w3.org/2000/svg"><path d="m473.187 26.739h-41.387c-4.164 0-7.54 3.375-7.54 7.54s3.375 7.54 7.54 7.54h41.387c13.087 0 23.734 10.647 23.734 23.734v47.494h-481.842v-47.494c0-13.087 10.647-23.734 23.734-23.734h358.241c4.164 0 7.54-3.375 7.54-7.54s-3.375-7.54-7.54-7.54h-358.241c-21.401 0-38.813 17.412-38.813 38.814v316.775c0 21.402 17.412 38.813 38.813 38.813h84.116c31.244 39.055 79.282 64.12 133.071 64.12s101.827-25.065 133.071-64.12h84.116c21.402 0 38.813-17.412 38.813-38.813v-316.775c0-21.402-17.412-38.814-38.813-38.814zm-217.187 443.443c-85.621 0-155.279-69.657-155.279-155.278s69.658-155.28 155.279-155.28 155.279 69.658 155.279 155.279-69.658 155.279-155.279 155.279zm217.187-64.121h-73.331c16.774-26.377 26.503-57.651 26.503-91.158 0-93.936-76.422-170.358-170.358-170.358s-170.359 76.422-170.359 170.358c0 33.507 9.729 64.781 26.503 91.158h-73.332c-13.087 0-23.734-10.647-23.734-23.734v-254.201h481.841v254.201c.001 13.087-10.646 23.734-23.733 23.734z" fill="#3979f8" data-original="#000000" style="" class=""/><path d="m50.157 77.433c0 7.749 6.282 14.031 14.031 14.031s14.031-6.282 14.031-14.031-6.282-14.031-14.031-14.031-14.031 6.282-14.031 14.031z" fill="#3979f8" data-original="#000000" style="" class=""/><path d="m93.318 77.433c0 7.749 6.282 14.031 14.031 14.031s14.031-6.282 14.031-14.031-6.282-14.031-14.031-14.031-14.031 6.282-14.031 14.031z" fill="#3979f8" data-original="#000000" style="" class=""/><path d="m136.48 77.433c0 7.749 6.282 14.031 14.031 14.031s14.031-6.282 14.031-14.031-6.282-14.031-14.031-14.031-14.031 6.282-14.031 14.031z" fill="#3979f8" data-original="#000000" style="" class=""/><path d="m175.426 276.459c-3.894-1.464-8.245.497-9.716 4.393-4.103 10.875-6.183 22.331-6.183 34.051 0 53.196 43.277 96.473 96.473 96.473 36.97 0 71.159-21.566 87.1-54.944.002-.003.003-.007.004-.01 6.216-13.019 9.368-26.988 9.368-41.519 0-23.07-8.144-44.272-21.702-60.89 2.957-4.326 2.464-9.974-1.32-13.757-3.828-3.828-9.562-4.283-13.907-1.208-16.409-12.909-37.093-20.618-59.543-20.618-26.37 0-50.995 10.439-69.336 29.393-2.896 2.992-2.818 7.765.175 10.662 2.424 2.155 6.764 3.299 10.662-.175 13.712-14.171 31.588-22.685 50.96-24.445v59.989c-6.335 5.266-10 8.393-10.956 9.35-3.874 3.873-6.007 9.022-6.007 14.499s2.133 10.626 6.006 14.5c3.874 3.873 9.023 6.006 14.5 6.006s10.626-2.133 14.499-6.006c.413-.413 1.242-1.345 2.463-2.766l56.945 27.146c-14.578 24.342-41.249 39.714-69.91 39.714-44.88 0-81.394-36.513-81.394-81.394 0-9.895 1.753-19.561 5.213-28.728 1.469-3.895-.497-8.245-4.394-9.716zm88.114-42.603c14.805 1.366 28.462 6.731 39.912 14.977-16.29 13.252-29.608 24.124-39.912 32.581zm-11.537 89.274c-2.313.057-8.181-3.386-3.842-9.258.77-.757 6.382-5.69 44.344-36.671-30.976 37.956-35.913 43.573-36.67 44.343-1.024 1.023-2.385 1.586-3.832 1.586zm69.043-57.086c10.255 13.618 16.348 30.538 16.348 48.859 0 9.717-1.668 19.132-4.967 28.081l-53.466-25.488c9.156-11.067 23.217-28.258 42.085-51.452z" fill="#3979f8" data-original="#000000" style="" class=""/><path d="m256 174.704c-77.307 0-140.2 62.893-140.2 140.2 0 77.306 62.893 140.199 140.2 140.199 13.213 0 26.297-1.846 38.89-5.487 4.001-1.156 6.306-5.337 5.149-9.337-1.156-4-5.338-6.308-9.337-5.149-11.232 3.248-22.907 4.894-34.702 4.894-68.992 0-125.121-56.128-125.121-125.12s56.129-125.121 125.121-125.121 125.121 56.129 125.121 125.121c0 43.843-22.402 83.751-59.926 106.757-3.55 2.176-4.663 6.818-2.487 10.368 2.176 3.551 6.82 4.664 10.368 2.487 20.1-12.323 36.92-29.641 48.64-50.083 12.092-21.091 18.484-45.134 18.484-69.529 0-77.307-62.893-140.2-140.2-140.2z" fill="#3979f8" data-original="#000000" style="" class=""/><path d="m107.349 165.629h-57.192c-4.164 0-7.54 3.375-7.54 7.54 0 4.164 3.375 7.54 7.54 7.54h57.192c4.164 0 7.54-3.375 7.54-7.54 0-4.164-3.375-7.54-7.54-7.54z" fill="#3979f8" data-original="#000000" style="" class=""/><path d="m83.091 197.296h-32.934c-4.164 0-7.54 3.375-7.54 7.54s3.375 7.54 7.54 7.54h32.934c4.164 0 7.54-3.375 7.54-7.54s-3.375-7.54-7.54-7.54z" fill="#3979f8" data-original="#000000" style="" class=""/><path d="m455.388 155.734c-12.54 0-22.741 10.201-22.741 22.741s10.201 22.742 22.741 22.742 22.742-10.202 22.742-22.742-10.202-22.741-22.742-22.741zm0 30.403c-4.224 0-7.661-3.437-7.661-7.662 0-4.224 3.437-7.661 7.661-7.661 4.225 0 7.662 3.437 7.662 7.661 0 4.225-3.437 7.662-7.662 7.662z" fill="#3979f8" data-original="#000000" style="" class=""/><path d="m455.388 215.125c-12.54 0-22.741 10.201-22.741 22.741s10.201 22.742 22.741 22.742 22.742-10.202 22.742-22.742-10.202-22.741-22.742-22.741zm0 30.403c-4.224 0-7.661-3.437-7.661-7.662 0-4.224 3.437-7.661 7.661-7.661 4.225 0 7.662 3.437 7.662 7.661 0 4.225-3.437 7.662-7.662 7.662z" fill="#3979f8" data-original="#000000" style="" class=""/></g></g></svg>
