<?xml version="1.0"?>
<svg xmlns="http://www.w3.org/2000/svg" xmlns:xlink="http://www.w3.org/1999/xlink" xmlns:svgjs="http://svgjs.com/svgjs" version="1.1" width="512" height="512" x="0" y="0" viewBox="0 0 512 512" style="enable-background:new 0 0 512 512" xml:space="preserve" class=""><g><g xmlns="http://www.w3.org/2000/svg"><g><rect fill="#e6fff8" height="480" rx="20" width="256" x="128" y="16" data-original="#006df0" style="" class=""/><path d="m296 48h-80l-8-32h96z" fill="#787680" data-original="#787680" style=""/><path d="m448 304h-128l8-128h112z" fill="#ffda44" data-original="#ffda44" style=""/><path d="m368 256 40-40" fill="#d8d7da" data-original="#d8d7da" style=""/><circle cx="368" cy="216" fill="#d8d7da" r="8" data-original="#d8d7da" style=""/><circle cx="408" cy="256" fill="#d8d7da" r="8" data-original="#d8d7da" style=""/><path d="m72 288h128v80h-128z" fill="#d80027" data-original="#d80027" style=""/><path d="m64 256h144v32h-144z" fill="#d80027" data-original="#d80027" style=""/><g fill="#ff9811"><path d="m112 256h48v32h-48z" fill="#ff9811" data-original="#ff9811" style="" class=""/><path d="m120 288h32v80h-32z" fill="#ff9811" data-original="#ff9811" style="" class=""/><path d="m116 216a20 20 0 0 1 20 20v20a0 0 0 0 1 0 0h-20a20 20 0 0 1 -20-20 20 20 0 0 1 20-20z" fill="#ff9811" data-original="#ff9811" style="" class=""/><path d="m156 216h20a0 0 0 0 1 0 0v20a20 20 0 0 1 -20 20 20 20 0 0 1 -20-20 20 20 0 0 1 20-20z" transform="matrix(-1 0 0 -1 312 472)" fill="#ff9811" data-original="#ff9811" style="" class=""/></g></g><g><path d="m256 456a8 8 0 0 0 0 16h64a8 8 0 0 0 0-16z" fill="#000000" data-original="#000000" style="" class=""/><path d="m344 472h8a8 8 0 0 0 0-16h-8a8 8 0 0 0 0 16z" fill="#000000" data-original="#000000" style="" class=""/><path d="m455.98 303.5-8-128a8 8 0 0 0 -7.98-7.5h-24v-16a32.058 32.058 0 0 0 -24-30.99v-85.01a28.031 28.031 0 0 0 -28-28h-216a28.031 28.031 0 0 0 -28 28v172.29a27.985 27.985 0 0 0 -29.29 39.71h-26.71a8 8 0 0 0 -8 8v32a8 8 0 0 0 8 8v72a8 8 0 0 0 8 8h48v100a28.031 28.031 0 0 0 28 28h216a28.031 28.031 0 0 0 28-28v-164h56a7.99 7.99 0 0 0 7.98-8.5zm-71.98-167.5a16.021 16.021 0 0 1 16 16v16h-32v-16a16.021 16.021 0 0 1 16-16zm-90.25-112-4 16h-67.5l-4-16zm-221.75 240h32v16h-32zm40 96h-32v-64h32zm4-112a12 12 0 1 1 12-12v12zm4 16h32v16h-32zm48 16v-16h32v16zm24 16v64h-32v-64zm-36-48h-12v-12a12 12 0 1 1 12 12zm-28 112v-64h16v64zm248 116a12.01 12.01 0 0 1 -12 12h-216a12.01 12.01 0 0 1 -12-12v-100h64a8 8 0 0 0 8-8v-72a8 8 0 0 0 8-8v-32a8 8 0 0 0 -8-8h-26.71a27.75 27.75 0 0 0 2.71-12 27.982 27.982 0 0 0 -48-19.57l-.02-.02c.01-.14.02-.27.02-.41v-180a12.01 12.01 0 0 1 12-12h53.75l6.49 25.94a8 8 0 0 0 7.76 6.06h80a8 8 0 0 0 7.76-6.06l6.49-25.94h53.75a12.01 12.01 0 0 1 12 12v85.01a32.058 32.058 0 0 0 -24 30.99v16h-24a8 8 0 0 0 -7.98 7.5l-8 128a7.99 7.99 0 0 0 7.98 8.5h56zm-47.48-180 7-112h96.96l7 112z" fill="#000000" data-original="#000000" style="" class=""/><path d="m402.343 210.343-40 40a8 8 0 0 0 11.314 11.314l40-40a8 8 0 0 0 -11.314-11.314z" fill="#000000" data-original="#000000" style="" class=""/><circle cx="368" cy="216" r="8" fill="#000000" data-original="#000000" style="" class=""/><circle cx="408" cy="256" r="8" fill="#000000" data-original="#000000" style="" class=""/></g></g></g></svg>
