<svg height="464pt" viewBox="0 -72 464 464" width="464pt" xmlns="http://www.w3.org/2000/svg"><path d="m128 288h-80l-16-288h96zm0 0" fill="#ffd782"/><path d="m96 80h-96l32-80h96zm0 0" fill="#f4b442"/><path d="m128 288h160l16-288h-176zm0 0" fill="#f9f0a2"/><path d="m160 80h176l-32-80h-176zm0 0" fill="#f4b442"/><path d="m176 144h192v176h-192zm0 0" fill="#ffd782"/><path d="m368 320 48-48 48 48zm0 0" fill="#db9f40"/><path d="m416 272v-128h-48v176zm0 0" fill="#f4b442"/><path d="m416 272v-128h48v176zm0 0" fill="#db982c"/><path d="m272 144h48v176h-48zm0 0" fill="#d89832"/><path d="m216 200h-16v-32h48v16h-32zm0 0" fill="#f4b442"/><path d="m200 216h16v16h-16zm0 0" fill="#f4b442"/><g fill="#dd9c33"><path d="m64.019531 168.527344 15.964844-1.0625 8 119.996094-15.964844 1.066406zm0 0"/><path d="m64 136h16v16h-16zm0 0"/></g></svg>