<svg height="464pt" viewBox="0 -8 464 464" width="464pt" xmlns="http://www.w3.org/2000/svg"><path d="m368 400h-304v-368c0-17.671875 14.328125-32 32-32h336c-17.671875 0-32 14.328125-32 32v336c0 17.671875-14.328125 32-32 32zm0 0" fill="#87ced9"/><path d="m72 400h296c17.671875 0 32-14.328125 32-32v-296zm0 0" fill="#71c4d1"/><path d="m464 48h-64v-16c0-17.671875 14.328125-32 32-32s32 14.328125 32 32zm0 0" fill="#4ba5c4"/><path d="m0 352v16c0 17.671875 14.328125 32 32 32h336c-17.671875 0-32-14.328125-32-32v-16zm0 0" fill="#a2e0e8"/><path d="m288.199219 328v120l32-24 32 24v-120zm0 0" fill="#e3584b"/><path d="m288.199219 328v19.617188c4.789062 3.582031 11.183593 4.171874 16.542969 1.527343 2.304687 6.507813 8.457031 10.855469 15.359374 10.855469 6.902344 0 13.054688-4.347656 15.355469-10.855469 5.441407 2.6875 11.9375 2.039063 16.742188-1.664062v-19.480469zm0 0" fill="#d64740"/><path d="m357.167969 280.617188c2.964843-6.234376 1.6875-13.65625-3.1875-18.539063s-12.296875-6.175781-18.53125-3.222656c-2.304688-6.5-8.457031-10.84375-15.351563-10.84375-6.898437 0-13.050781 4.34375-15.355468 10.84375-6.234376-2.957031-13.65625-1.667969-18.535157 3.21875-4.875 4.886719-6.144531 12.3125-3.175781 18.542969-6.5 2.320312-10.839844 8.480468-10.839844 15.382812s4.339844 13.0625 10.839844 15.382812c-2.96875 6.230469-1.699219 13.65625 3.175781 18.542969 4.878907 4.886719 12.300781 6.175781 18.535157 3.21875 2.304687 6.5 8.457031 10.84375 15.355468 10.84375 6.894532 0 13.046875-4.34375 15.351563-10.84375 6.234375 2.953125 13.65625 1.660157 18.53125-3.222656s6.152343-12.304687 3.1875-18.539063c6.492187-2.328124 10.824219-8.484374 10.824219-15.382812s-4.332032-13.054688-10.824219-15.382812zm0 0" fill="#ffc24f"/><path d="m357.167969 280.617188c2.570312-5.261719 2.058593-11.507813-1.328125-16.28125-8.726563 32.054687-32.382813 57.933593-63.527344 69.496093 4.066406 1.472657 8.554688 1.222657 12.429688-.6875 2.304687 6.507813 8.457031 10.855469 15.359374 10.855469 6.902344 0 13.054688-4.347656 15.355469-10.855469 6.234375 2.957031 13.660157 1.667969 18.535157-3.21875s6.148437-12.3125 3.175781-18.542969c6.492187-2.328124 10.824219-8.484374 10.824219-15.382812s-4.332032-13.054688-10.824219-15.382812zm0 0" fill="#ffba38"/><g fill="#5eb3d1"><path d="m256 56h32v16h-32zm0 0"/><path d="m176 56h64v16h-64zm0 0"/><path d="m152 96h160v16h-160zm0 0"/><path d="m112 144h40v16h-40zm0 0"/><path d="m112 184h88v16h-88zm0 0"/><path d="m168 144h184v16h-184zm0 0"/><path d="m216 184h136v16h-136zm0 0"/><path d="m112 224h160v16h-160zm0 0"/><path d="m112 264h136v16h-136zm0 0"/></g></svg>