<?xml version="1.0"?>
<svg xmlns="http://www.w3.org/2000/svg" xmlns:xlink="http://www.w3.org/1999/xlink" xmlns:svgjs="http://svgjs.com/svgjs" version="1.1" width="512" height="512" x="0" y="0" viewBox="0 0 511.999 511.999" style="enable-background:new 0 0 512 512" xml:space="preserve" class=""><g>
<g xmlns="http://www.w3.org/2000/svg">
	<g>
		<path d="M416.314,234.663c0-0.002-0.001-0.004-0.001-0.007c-1.478-5.416-5.004-9.793-9.675-12.007    c-56.365-25.833-57.779-29.54-68.692-29.54c-4.237,0-8.369,0.94-12.28,2.794l-56.411,26.745c-4.672,2.214-8.199,6.59-9.679,12.015    c-1.83,6.738-4.901,20.646-4.901,38.087c0,46.804,21.299,89.936,66.226,122.264c10.4,7.487,23.675,7.494,34.089,0    c45.025-32.402,66.226-75.57,66.226-122.263C421.216,255.308,418.145,241.401,416.314,234.663z M346.169,382.756    c-5.128,3.689-11.305,3.7-16.445,0.001c-40.914-29.448-59.946-68.244-59.946-110.007c0-15.689,2.74-28.116,4.371-34.119    c0.367-1.347,1.077-2.1,1.575-2.335c59.001-27.507,56.939-28.085,62.222-28.085c5.248,0,3.277,0.604,62.223,28.085    c0.495,0.235,1.204,0.986,1.572,2.328c1.634,6.012,4.374,18.439,4.374,34.128C406.114,314.436,387.153,353.252,346.169,382.756z" fill="#1b5083" data-original="#000000" style="" class=""/>
	</g>
</g>
<g xmlns="http://www.w3.org/2000/svg">
	<g>
		<path d="M429.167,0H166.408c-19.796,0-35.901,16.105-35.901,35.9v342.906H87.184c-21.678,0-39.314,17.637-39.314,39.315v45.258    c0,26.808,21.81,48.617,48.617,48.617c115.596,0,233.076-0.001,313.766,0.003c29.707,0,53.876-24.169,53.876-53.876V34.962    C464.128,15.684,448.444,0,429.167,0z M105.404,495.836c-22.557,5.585-42.431-11.203-42.431-32.457v-45.258    c0-13.351,10.861-24.212,24.211-24.212h43.329c0,0.002,0,0.003,0,0.004v0.001c0,0.001,0,0.005,0,0.007c0,0.005,0,0.011,0,0.02    c0,0.065,0,0.121,0,0.159c0,0.013,0,0.023,0,0.033c0,0.007,0,0.016,0,0.024c0,0.004,0,0.006,0,0.01c0,0.003,0,0.004,0,0.007    c0.001,1.647,0.007,12.395,0.037,69.203C130.55,478.971,119.847,492.111,105.404,495.836z M449.026,458.124L449.026,458.124    c-0.001,21.379-17.394,38.773-38.774,38.773H132.236c16.282-17.097,13.168-36.388,13.416-46.227v-64.313    c0-0.268-0.015-0.533-0.042-0.794V35.9c0-11.468,9.331-20.798,20.799-20.798h262.758c10.95,0,19.859,8.909,19.859,19.859V458.124z    " fill="#1b5083" data-original="#000000" style="" class=""/>
	</g>
</g>
<g xmlns="http://www.w3.org/2000/svg">
	<g>
		<path d="M382.411,259.946c-3.247-2.618-8-2.107-10.618,1.139c-50.583,62.411-47.265,59.212-48.253,59.279    c-0.974,0.063,0.022,0.246-20.12-18.613c-3.025-2.87-7.804-2.748-10.676,0.277c-2.872,3.025-2.748,7.804,0.277,10.677    l19.286,18.311c3.013,2.862,7.034,4.454,11.168,4.454c4.789,0,9.483-2.159,12.607-6.033l47.467-58.87    C386.167,267.318,385.657,262.564,382.411,259.946z" fill="#1b5083" data-original="#000000" style="" class=""/>
	</g>
</g>
<g xmlns="http://www.w3.org/2000/svg">
	<g>
		<path d="M368.898,57.698H176.588c-4.17,0-7.551,3.38-7.551,7.551s3.381,7.551,7.551,7.551h192.309c4.17,0,7.551-3.38,7.551-7.551    S373.068,57.698,368.898,57.698z" fill="#1b5083" data-original="#000000" style="" class=""/>
	</g>
</g>
<g xmlns="http://www.w3.org/2000/svg">
	<g>
		<path d="M413.664,57.698h-14.561c-4.17,0-7.551,3.38-7.551,7.551s3.381,7.551,7.551,7.551h14.561c4.17,0,7.551-3.38,7.551-7.551    S417.835,57.698,413.664,57.698z" fill="#1b5083" data-original="#000000" style="" class=""/>
	</g>
</g>
<g xmlns="http://www.w3.org/2000/svg">
	<g>
		<path d="M413.664,438.105h-179.22c-4.17,0-7.551,3.38-7.551,7.551c0,4.171,3.381,7.551,7.551,7.551h179.22    c4.17,0,7.551-3.38,7.551-7.551C421.216,441.485,417.835,438.105,413.664,438.105z" fill="#1b5083" data-original="#000000" style="" class=""/>
	</g>
</g>
<g xmlns="http://www.w3.org/2000/svg">
	<g>
		<path d="M204.239,438.105h-27.65c-4.17,0-7.551,3.38-7.551,7.551c0,4.171,3.381,7.551,7.551,7.551h27.65    c4.17,0,7.551-3.38,7.551-7.551C211.79,441.485,208.409,438.105,204.239,438.105z" fill="#1b5083" data-original="#000000" style="" class=""/>
	</g>
</g>
<g xmlns="http://www.w3.org/2000/svg">
	<g>
		<path d="M413.664,112.065H176.588c-4.17,0-7.551,3.38-7.551,7.551c0,4.171,3.381,7.551,7.551,7.551h237.076    c4.17,0,7.551-3.38,7.551-7.551C421.216,115.445,417.835,112.065,413.664,112.065z" fill="#1b5083" data-original="#000000" style="" class=""/>
	</g>
</g>
<g xmlns="http://www.w3.org/2000/svg">
	<g>
		<path d="M413.664,166.432H275.725c-4.17,0-7.551,3.38-7.551,7.551s3.381,7.551,7.551,7.551h137.939c4.17,0,7.551-3.38,7.551-7.551    S417.835,166.432,413.664,166.432z" fill="#1b5083" data-original="#000000" style="" class=""/>
	</g>
</g>
<g xmlns="http://www.w3.org/2000/svg">
	<g>
		<path d="M245.52,166.432h-68.931c-4.17,0-7.551,3.38-7.551,7.551s3.381,7.551,7.551,7.551h68.931c4.17,0,7.551-3.38,7.551-7.551    S249.69,166.432,245.52,166.432z" fill="#1b5083" data-original="#000000" style="" class=""/>
	</g>
</g>
<g xmlns="http://www.w3.org/2000/svg">
	<g>
		<path d="M232.36,220.799h-55.772c-4.17,0-7.551,3.38-7.551,7.551c0,4.171,3.381,7.551,7.551,7.551h55.772    c4.17,0,7.551-3.38,7.551-7.551C239.911,224.179,236.53,220.799,232.36,220.799z" fill="#1b5083" data-original="#000000" style="" class=""/>
	</g>
</g>
<g xmlns="http://www.w3.org/2000/svg">
	<g>
		<path d="M232.36,275.167h-55.772c-4.17,0-7.551,3.38-7.551,7.551c0,4.171,3.381,7.551,7.551,7.551h55.772    c4.17,0,7.551-3.38,7.551-7.551C239.911,278.547,236.53,275.167,232.36,275.167z" fill="#1b5083" data-original="#000000" style="" class=""/>
	</g>
</g>
<g xmlns="http://www.w3.org/2000/svg">
	<g>
		<path d="M245.449,329.535h-68.861c-4.17,0-7.551,3.38-7.551,7.551s3.381,7.551,7.551,7.551h68.861c4.17,0,7.551-3.38,7.551-7.551    S249.62,329.535,245.449,329.535z" fill="#1b5083" data-original="#000000" style="" class=""/>
	</g>
</g>
<g xmlns="http://www.w3.org/2000/svg">
	<g>
		<path d="M269.862,383.902h-93.274c-4.17,0-7.551,3.38-7.551,7.551c0,4.171,3.381,7.551,7.551,7.551h93.274    c4.17,0,7.551-3.38,7.551-7.551C277.414,387.282,274.033,383.902,269.862,383.902z" fill="#1b5083" data-original="#000000" style="" class=""/>
	</g>
</g>
<g xmlns="http://www.w3.org/2000/svg">
</g>
<g xmlns="http://www.w3.org/2000/svg">
</g>
<g xmlns="http://www.w3.org/2000/svg">
</g>
<g xmlns="http://www.w3.org/2000/svg">
</g>
<g xmlns="http://www.w3.org/2000/svg">
</g>
<g xmlns="http://www.w3.org/2000/svg">
</g>
<g xmlns="http://www.w3.org/2000/svg">
</g>
<g xmlns="http://www.w3.org/2000/svg">
</g>
<g xmlns="http://www.w3.org/2000/svg">
</g>
<g xmlns="http://www.w3.org/2000/svg">
</g>
<g xmlns="http://www.w3.org/2000/svg">
</g>
<g xmlns="http://www.w3.org/2000/svg">
</g>
<g xmlns="http://www.w3.org/2000/svg">
</g>
<g xmlns="http://www.w3.org/2000/svg">
</g>
<g xmlns="http://www.w3.org/2000/svg">
</g>
</g></svg>
