<?xml version="1.0"?>
<svg xmlns="http://www.w3.org/2000/svg" xmlns:xlink="http://www.w3.org/1999/xlink" xmlns:svgjs="http://svgjs.com/svgjs" version="1.1" width="512" height="512" x="0" y="0" viewBox="0 0 512 512" style="enable-background:new 0 0 512 512" xml:space="preserve" class=""><g><g xmlns="http://www.w3.org/2000/svg" id="filled_outline" data-name="filled outline"><path d="m62 48h388a30 30 0 0 1 30 30v306a0 0 0 0 1 0 0h-448a0 0 0 0 1 0 0v-306a30 30 0 0 1 30-30z" fill="#e7e7e7" data-original="#cbcbcb" style="" class=""/><path d="m72 112h368a0 0 0 0 1 0 0v226a14 14 0 0 1 -14 14h-340a14 14 0 0 1 -14-14v-226a0 0 0 0 1 0 0z" fill="#fbfdff" data-original="#fbfdff" style="" class=""/><path d="m488 416v22a26 26 0 0 1 -26 26h-412a26 26 0 0 1 -26-26v-22h184l16 16h64l16-16z" fill="#e7e7e7" data-original="#cbcbcb" style="" class=""/><path d="m32 384-8 32h184l16 16h64l16-16h184l-8-32z" fill="#dddddd" data-original="#b9b9b9" style="" class=""/><circle cx="256" cy="216" fill="#fbb540" r="72" data-original="#fbb540" style=""/><path d="m269.923 215.434-19.2-12.33a5.233 5.233 0 0 1 -2.723-4.229v-1.175a4.852 4.852 0 0 1 1.89-3.611 9.974 9.974 0 0 1 12.22 0 4.848 4.848 0 0 1 1.89 3.611 8 8 0 0 0 16 0 20.855 20.855 0 0 0 -7.483-15.764 24.482 24.482 0 0 0 -8.517-4.69v-9.246a8 8 0 0 0 -16 0v9.246a24.482 24.482 0 0 0 -8.517 4.69 20.855 20.855 0 0 0 -7.483 15.764v1.175a21.166 21.166 0 0 0 10.077 17.691l19.2 12.33a5.233 5.233 0 0 1 2.723 4.229v1.175a4.852 4.852 0 0 1 -1.89 3.611 9.974 9.974 0 0 1 -12.22 0 4.848 4.848 0 0 1 -1.89-3.611 8 8 0 0 0 -16 0 20.855 20.855 0 0 0 7.483 15.764 24.482 24.482 0 0 0 8.517 4.69v9.246a8 8 0 0 0 16 0v-9.246a24.482 24.482 0 0 0 8.517-4.69 20.855 20.855 0 0 0 7.483-15.764v-1.175a21.166 21.166 0 0 0 -10.077-17.691z" fill="#d18d28" data-original="#d18d28" style="" class=""/><path d="m304 228.274 26.74 85.352 17.276-16.66 22.213 23.034 5.964-16.865 17.07-5.348-22.213-23.034 17.276-16.66z" fill="#eaeae8" data-original="#eaeae8" style="" class=""/><path d="m86 80h340a14 14 0 0 1 14 14v18a0 0 0 0 1 0 0h-368a0 0 0 0 1 0 0v-18a14 14 0 0 1 14-14z" fill="#009cf7" data-original="#009cf7" style="" class=""/><g fill="#eaeae8"><circle cx="224" cy="320" r="8" fill="#eaeae8" data-original="#eaeae8" style="" class=""/><circle cx="256" cy="320" r="8" fill="#eaeae8" data-original="#eaeae8" style="" class=""/><circle cx="288" cy="320" r="8" fill="#eaeae8" data-original="#eaeae8" style="" class=""/></g><path d="m495.981 415.635c-.008-.2-.02-.392-.043-.585-.011-.093-.027-.185-.042-.277-.031-.2-.067-.4-.114-.6-.009-.037-.012-.076-.021-.113l-7.761-31.043v-305.017a38.043 38.043 0 0 0 -38-38h-388a38.043 38.043 0 0 0 -38 38v305.017l-7.761 31.043c-.009.037-.012.076-.021.113-.047.2-.083.4-.114.6-.015.092-.031.183-.042.275-.023.193-.035.389-.043.586 0 .1-.014.194-.015.292v.073 22a34.038 34.038 0 0 0 34 34h411.996a34.038 34.038 0 0 0 34-34v-21.999c0-.025 0-.049 0-.073 0-.098-.014-.195-.019-.292zm-455.981-337.635a22.025 22.025 0 0 1 22-22h388a22.025 22.025 0 0 1 22 22v298h-432zm-1.754 314h435.508l4 16h-173.754a8 8 0 0 0 -5.657 2.343l-13.656 13.657h-57.374l-13.656-13.657a8 8 0 0 0 -5.657-2.343h-173.754zm441.754 46a18.021 18.021 0 0 1 -18 18h-412a18.021 18.021 0 0 1 -18-18v-14h172.687l13.656 13.657a8 8 0 0 0 5.657 2.343h64a8 8 0 0 0 5.657-2.343l13.656-13.657h172.687z" fill="#000000" data-original="#000000" style="" class=""/><path d="m262.11 237.911a9.444 9.444 0 0 1 -6.1 2.09h-.024a9.439 9.439 0 0 1 -6.1-2.091 4.848 4.848 0 0 1 -1.886-3.61 8 8 0 0 0 -16 0 20.855 20.855 0 0 0 7.483 15.764 24.482 24.482 0 0 0 8.517 4.69v9.246a8 8 0 0 0 16 0v-9.246a24.482 24.482 0 0 0 8.517-4.69 20.855 20.855 0 0 0 7.483-15.764v-1.175a21.166 21.166 0 0 0 -10.077-17.691l-19.2-12.33a5.233 5.233 0 0 1 -2.723-4.229v-1.175a4.852 4.852 0 0 1 1.89-3.611 9.444 9.444 0 0 1 6.1-2.09h.024a9.439 9.439 0 0 1 6.1 2.091 4.848 4.848 0 0 1 1.886 3.61 8 8 0 0 0 16 0 20.855 20.855 0 0 0 -7.483-15.764 24.482 24.482 0 0 0 -8.517-4.69v-9.246a8 8 0 0 0 -16 0v9.246a24.482 24.482 0 0 0 -8.517 4.69 20.855 20.855 0 0 0 -7.483 15.764v1.175a21.166 21.166 0 0 0 10.077 17.691l19.2 12.33a5.233 5.233 0 0 1 2.723 4.229v1.175a4.852 4.852 0 0 1 -1.89 3.611z" fill="#000000" data-original="#000000" style="" class=""/><path d="m256 296a79.625 79.625 0 0 0 54.206-21.158l12.9 41.176a8 8 0 0 0 13.188 3.366l11.517-11.106 16.66 17.275a8 8 0 0 0 13.3-2.886l4.631-13.094 13.253-4.152a8 8 0 0 0 3.367-13.188l-16.66-17.275 11.517-11.106a8 8 0 0 0 -2.886-13.3l-56.337-19.921a80 80 0 1 0 -78.656 65.369zm117.455-34.681-7.958 7.675a8 8 0 0 0 -.206 11.312l13.229 13.716-4.72 1.478a8 8 0 0 0 -5.151 4.968l-1.649 4.661-13.229-13.716a8 8 0 0 0 -11.312-.2l-7.958 7.674-18.083-57.737zm-117.455-109.319a63.9 63.9 0 0 1 63.319 73.205l-12.652-4.474a8 8 0 0 0 -10.3 9.935l8.385 26.763a63.99 63.99 0 1 1 -48.752-105.429z" fill="#000000" data-original="#000000" style="" class=""/><path d="m426 72h-340a22.025 22.025 0 0 0 -22 22v244a22.025 22.025 0 0 0 22 22h340a22.025 22.025 0 0 0 22-22v-244a22.025 22.025 0 0 0 -22-22zm6 266a6.006 6.006 0 0 1 -6 6h-340a6.006 6.006 0 0 1 -6-6v-218h352zm0-234h-352v-10a6.006 6.006 0 0 1 6-6h340a6.006 6.006 0 0 1 6 6z" fill="#000000" data-original="#000000" style="" class=""/><circle cx="224" cy="320" r="8" fill="#000000" data-original="#000000" style="" class=""/><circle cx="256" cy="320" r="8" fill="#000000" data-original="#000000" style="" class=""/><circle cx="288" cy="320" r="8" fill="#000000" data-original="#000000" style="" class=""/></g></g></svg>
