<svg height="469pt" viewBox="-18 0 469 469.56" width="469pt" xmlns="http://www.w3.org/2000/svg"><path d="m432.738281 322.21875v53.089844c0 10.269531-8.320312 18.597656-18.589843 18.601562h-395.277344c-10.269532-.003906-18.589844-8.332031-18.589844-18.601562v-53.089844zm0 0" fill="#fedb41"/><path d="m432.738281 107.378906v214.839844h-91.828125v-233.429688h73.238282c10.269531 0 18.59375 8.324219 18.589843 18.589844zm0 0" fill="#00acea"/><path d="m215.511719 254.011719 1 .316406 73.410156-23.667969v-100.199218l-73.410156-23.671876-73.410157 23.671876v100.199218zm125.398437 67.429687v.777344h-248.800781v-294.539062c0-15.289063 12.390625-27.68359425 27.679687-27.679688h147.222657v62.289062c0 7.644532 6.195312 13.839844 13.839843 13.839844h54.667969l5.390625 6zm0 0" fill="#00efd1"/><g fill="#00acea"><path d="m267.011719 0 68.5 76.128906h-54.660157c-7.644531 0-13.839843-6.195312-13.839843-13.839844zm0 0"/><path d="m277.378906 393.910156 18.589844 67.210938h-158.917969l18.589844-67.210938zm0 0"/><path d="m289.921875 130.460938v100.199218l-73.410156 23.667969-1-.316406v-100.191407l1 .320313zm0 0"/></g><path d="m215.511719 153.820312-72.410157-23.359374 73.410157-23.671876 73.410156 23.671876-73.410156 23.679687zm0 0" fill="#fedb41"/><path d="m215.511719 153.820312v100.191407l-72.410157-23.351563v-100.199218zm0 0" fill="#2ed3ff"/><path d="m92.109375 321.441406v.777344h-91.828125v-214.839844c-.003906-10.265625 8.320312-18.589844 18.589844-18.589844h73.238281zm0 0" fill="#00acea"/><path d="m338.859375 461.558594c0-4.417969-3.582031-8-8-8h-228.699219c-4.417968 0-8 3.582031-8 8 0 4.417968 3.582032 8 8 8h228.699219c4.417969 0 8-3.582032 8-8zm0 0" fill="#f4b844"/></svg>