<?xml version="1.0"?>
<svg xmlns="http://www.w3.org/2000/svg" xmlns:xlink="http://www.w3.org/1999/xlink" xmlns:svgjs="http://svgjs.com/svgjs" version="1.1" width="512" height="512" x="0" y="0" viewBox="0 0 476 475" style="enable-background:new 0 0 512 512" xml:space="preserve" class=""><g><path xmlns="http://www.w3.org/2000/svg" d="m470 117.519531v256.5c0 22.09375-17.910156 40-40 40h-384c-22.089844 0-40-17.90625-40-40v-256.5zm-156.550781 130.421875h31.25l-33.378907-24.300781-73.320312-53.378906-106.699219 77.679687h31.25v102.320313h150.898438zm0 0" fill="#c3f3ff" data-original="#6fe3ff" style="" class=""/><path xmlns="http://www.w3.org/2000/svg" d="m470 46.5v71.019531h-464v-71.019531c0-22.089844 17.910156-40 40-40h384c22.089844 0 40 17.910156 40 40zm-242.390625 16.25c.027344-9.472656-7.628906-17.171875-17.097656-17.199219-9.472657-.027343-17.175781 7.628907-17.203125 17.097657-.027344 9.472656 7.628906 17.175781 17.101562 17.203124 9.472656.023438 17.171875-7.628906 17.199219-17.101562zm-77.03125-.238281c.03125-9.46875-7.621094-17.171875-17.089844-17.203125-9.46875-.027344-17.167969 7.621094-17.199219 17.089844-.027343 9.46875 7.621094 17.171874 17.089844 17.203124s17.171875-7.621093 17.199219-17.089843zm-77.027344-.242188c.03125-9.46875-7.621093-17.167969-17.089843-17.199219s-17.171876 7.621094-17.199219 17.089844c-.03125 9.46875 7.621093 17.167969 17.089843 17.199219s17.167969-7.621094 17.199219-17.089844zm0 0" fill="#e48e66" data-original="#e48e66" style=""/><path xmlns="http://www.w3.org/2000/svg" d="m344.699219 247.941406h-31.25v102.320313h-150.898438v-102.320313h-31.25l106.699219-77.679687 73.320312 53.378906zm-86.699219-7.652344c0-11.042968-8.953125-20-20-20s-20 8.957032-20 20c0 11.046876 8.953125 20 20 20 11.046875.003907 20.003906-8.953124 20-20zm0 0" fill="#f8ec7d" data-original="#f8ec7d" style=""/><path xmlns="http://www.w3.org/2000/svg" d="m258 240.289062c0 11.046876-8.953125 20-20 20s-20-8.953124-20-20c0-11.042968 8.953125-20 20-20s20 8.957032 20 20zm0 0" fill="#c3f3ff" data-original="#6fe3ff" style="" class=""/><path xmlns="http://www.w3.org/2000/svg" d="m210.511719 45.550781c9.472656.027344 17.128906 7.730469 17.097656 17.203125-.027344 9.472656-7.734375 17.128906-17.207031 17.097656s-17.125-7.738281-17.09375-17.210937c.035156-9.46875 7.734375-17.117187 17.203125-17.089844zm0 0" fill="#f8ec7d" data-original="#f8ec7d" style=""/><path xmlns="http://www.w3.org/2000/svg" d="m133.488281 45.308594c9.46875.03125 17.121094 7.734375 17.089844 17.203125-.027344 9.46875-7.730469 17.117187-17.199219 17.089843-9.46875-.03125-17.121094-7.734374-17.089844-17.203124s7.730469-17.121094 17.199219-17.089844zm0 0" fill="#f8ec7d" data-original="#f8ec7d" style=""/><path xmlns="http://www.w3.org/2000/svg" d="m56.460938 45.070312c9.46875.03125 17.121093 7.730469 17.089843 17.199219s-7.730469 17.121094-17.199219 17.089844-17.121093-7.730469-17.089843-17.199219c.027343-9.46875 7.730469-17.121094 17.199219-17.089844zm0 0" fill="#f8ec7d" data-original="#f8ec7d" style=""/><g xmlns="http://www.w3.org/2000/svg" fill="#63316d"><path d="m46 420.019531h384c25.394531-.027343 45.972656-20.605469 46-46v-327.519531c-.027344-25.394531-20.605469-45.972656-46-46h-384c-25.394531.027344-45.9726562 20.605469-46 46v327.519531c.0273438 25.394531 20.605469 45.972657 46 46zm-34-373.519531c.023438-18.769531 15.230469-33.976562 34-34h384c18.769531.023438 33.976562 15.230469 34 34v65.019531h-452zm0 77.019531h452v250.5c-.023438 18.769531-15.230469 33.980469-34 34h-384c-18.769531-.019531-33.976562-15.230469-34-34zm0 0" fill="#000000" data-original="#63316d" style="" class=""/><path d="m133.507812 39.308594h-.070312c-12.785156-.019532-23.164062 10.324218-23.183594 23.109375-.023437 12.78125 10.324219 23.160156 23.105469 23.183593h.078125c12.78125.019532 23.160156-10.328124 23.179688-23.109374.019531-12.785157-10.324219-23.164063-23.109376-23.183594zm7.78125 31.050781c-2.082031 2.082031-4.914062 3.25-7.859374 3.242187h-.035157c-6.15625-.011718-11.136719-5.011718-11.125-11.167968s5.011719-11.136719 11.167969-11.125h.035156c4.507813.015625 8.5625 2.742187 10.273438 6.914062 1.710937 4.171875.742187 8.960938-2.457032 12.136719zm0 0" fill="#000000" data-original="#63316d" style="" class=""/><path d="m56.480469 39.070312h-.082031c-12.78125-.019531-23.160157 10.324219-23.179688 23.109376-.019531 12.78125 10.328125 23.160156 23.109375 23.179687h.070313c12.785156.019531 23.164062-10.324219 23.183593-23.105469.019531-12.785156-10.324219-23.164062-23.105469-23.183594zm-.082031 34.289063h-.035157c-6.152343-.007813-11.136719-5.007813-11.125-11.160156.007813-6.15625 5.007813-11.140625 11.160157-11.128907h.039062c6.15625.011719 11.136719 5.007813 11.125 11.164063-.007812 6.15625-5.007812 11.136719-11.164062 11.125zm0 0" fill="#000000" data-original="#63316d" style="" class=""/><path d="m210.527344 39.550781h-.074219c-12.785156-.019531-23.164063 10.332031-23.179687 23.117188-.019532 12.785156 10.332031 23.164062 23.117187 23.183593h.078125c12.753906-.007812 23.101562-10.328124 23.140625-23.082031.023437-12.78125-10.300781-23.167969-23.082031-23.21875zm7.792968 31.058594c-2.082031 2.082031-4.910156 3.246094-7.855468 3.242187h-.035156c-6.160157-.007812-11.144532-5.007812-11.136719-11.164062.003906-6.15625 5.003906-11.144531 11.160156-11.136719h.039063c4.507812.011719 8.566406 2.738281 10.28125 6.914063 1.714843 4.171875.746093 8.964844-2.453126 12.144531zm0 0" fill="#000000" data-original="#63316d" style="" class=""/><path d="m131.300781 253.941406h25.25v96.320313c0 3.3125 2.683594 6 6 6h150.898438c3.316406 0 6-2.6875 6-6v-96.320313h25.25c2.597656-.003906 4.902343-1.675781 5.703125-4.144531.804687-2.46875-.070313-5.175781-2.171875-6.707031l-106.699219-77.679688c-2.105469-1.53125-4.957031-1.53125-7.0625 0l-106.699219 77.679688c-2.101562 1.53125-2.976562 4.238281-2.171875 6.707031.800782 2.46875 3.105469 4.140625 5.703125 4.144531zm106.699219-76.257812 88.265625 64.257812h-12.816406c-3.3125 0-6 2.683594-6 6v96.320313h-138.898438v-96.320313c0-3.316406-2.6875-6-6-6h-12.816406zm0 0" fill="#000000" data-original="#63316d" style="" class=""/><path d="m238 266.289062c14.359375 0 26-11.640624 26-26 0-14.359374-11.640625-26-26-26s-26 11.640626-26 26c.015625 14.355469 11.648438 25.984376 26 26zm0-40c7.730469 0 14 6.269532 14 14 0 7.734376-6.269531 14-14 14s-14-6.265624-14-14c.007812-7.726562 6.269531-13.992187 14-14zm0 0" fill="#000000" data-original="#63316d" style="" class=""/></g></g></svg>
