<svg id="Capa_1" enable-background="new 0 0 512 512" height="512" viewBox="0 0 512 512" width="512" xmlns="http://www.w3.org/2000/svg"><g><g><path d="m304.233 119.819c-8.848 0-16.021 7.173-16.021 16.021v-8.011c0-8.849-7.173-16.021-16.021-16.021s-16.021 7.173-16.021 16.021v-8.011c0-8.849-7.173-16.021-16.021-16.021s-16.021 7.173-16.021 16.021v8.011c0-8.849-7.173-16.021-16.021-16.021s-16.021 7.173-16.021 16.021v32.043c0 8.848 7.173 16.021 16.021 16.021s16.021-7.173 16.021-16.021v-8.011c0 8.848 7.173 16.021 16.021 16.021s16.021-7.173 16.021-16.021v8.011c0 8.848 7.173 16.021 16.021 16.021s16.021-7.173 16.021-16.021c0 8.848 7.173 16.021 16.021 16.021s16.021-7.173 16.021-16.021v-24.032c.001-8.849-7.173-16.021-16.021-16.021z" fill="#ffd18d"/><path d="m111.639 304.064h-96.128c-4.424 0-8.011 3.586-8.011 8.011 0 30.969 25.105 56.075 56.075 56.075 30.969 0 56.075-25.105 56.075-56.075-.001-4.424-3.587-8.011-8.011-8.011z" fill="#ffd18d"/><path d="m39.543 312.075c0-4.424 0-8.011 0-8.011h-24.032c-4.424 0-8.011 3.586-8.011 8.011 0 30.969 25.106 56.075 56.075 56.075 5.571 0 10.942-.84 16.021-2.353-23.157-6.898-40.053-28.325-40.053-53.722z" fill="#fbbd80"/><path d="m216.116 159.872v144.192h88.117v-49.293c0-9.824 1.205-19.612 3.588-29.143l.596-2.385c1.98-7.919 3.178-16.177 3.62-24.317z" fill="#ffd18d"/><path d="m304.233 175.893c-8.848 0-16.021-7.173-16.021-16.021 0 8.848-7.174 16.021-16.021 16.021s-16.021-7.173-16.021-16.021v-8.011c0-4.424-3.587-8.011-8.011-8.011h-40.053c-13.273 0-24.032 10.759-24.032 24.032v26.816c0 8.705 2.026 17.291 5.92 25.077l12.192 24.386c3.894 7.786 5.92 16.371 5.92 25.077v42.837h24.032v-98.357c4.764-2.779 8.011-7.888 8.011-13.792 5.539 0 11.015-1.154 16.053-3.36 9.998 4.256 21.982 4.256 31.98 0 7.312 3.202 14.837 4.255 23.856 2.361.119-2.253.207-4.51.207-6.769v-18.486c-2.366 1.376-5.078 2.221-8.012 2.221z" fill="#fbbd80"/><path d="m312.244 296.053h-112.149c-4.424 0-8.011 3.586-8.011 8.011v64.085h128.171v-64.085c0-4.424-3.587-8.011-8.011-8.011z" fill="#eceaec"/><path d="m224.127 312.075v-16.021h-24.032c-4.424 0-8.011 3.587-8.011 8.011v64.085h128.171v-40.053h-80.107c-8.848-.001-16.021-7.174-16.021-16.022z" fill="#dbd8db"/><path d="m320.255 352.128h-128.171c-4.424 0-8.011 3.587-8.011 8.011l32.043 48.064h112.149v-48.064c0-4.424-3.586-8.011-8.01-8.011z" fill="#ffc263"/><path d="m192.084 352.128c-4.424 0-8.011 3.586-8.011 8.011v48.064h32.043v-56.075z" fill="#ffaa5a"/><path d="m496.489 304.064h-96.128c-4.424 0-8.011 3.586-8.011 8.011 0 30.969 25.105 56.075 56.075 56.075 30.969 0 56.075-25.105 56.075-56.075 0-4.424-3.586-8.011-8.011-8.011z" fill="#ffd18d"/><path d="m424.393 312.075c0-4.424 0-8.011 0-8.011h-24.032c-4.424 0-8.011 3.586-8.011 8.011 0 30.969 25.106 56.075 56.075 56.075 5.571 0 10.942-.84 16.021-2.353-23.157-6.898-40.053-28.325-40.053-53.722z" fill="#fbbd80"/></g><g><path d="m119.726 296.597h-2.519l-46.442-147.065c-.985-3.12-3.88-5.241-7.152-5.241s-6.167 2.121-7.152 5.241l-46.442 147.065h-2.519c-4.142 0-7.5 3.358-7.5 7.5v8.016c0 35.076 28.537 63.613 63.613 63.613s63.613-28.537 63.613-63.613v-8.016c0-4.142-3.358-7.5-7.5-7.5zm-56.113-119.901 37.863 119.901h-75.726zm48.613 135.417c0 26.805-21.808 48.613-48.613 48.613s-48.613-21.808-48.613-48.613v-.516h.468.04 96.184c.005 0 .01.001.015.001s.011-.001.016-.001h.502v.516z"/><path d="m151.791 144.29h-43.525c-3.223 0-6.125-2.288-7.391-5.828-5.614-15.693-20.588-26.236-37.262-26.236-21.816 0-39.564 17.749-39.564 39.564 0 4.142 3.358 7.5 7.5 7.5s7.5-3.358 7.5-7.5c0-13.545 11.02-24.564 24.564-24.564 10.354 0 19.653 6.546 23.138 16.289 3.428 9.583 11.873 15.776 21.515 15.776h43.525c4.142 0 7.5-3.358 7.5-7.5s-3.358-7.501-7.5-7.501z"/><path d="m504.5 296.597h-2.519l-46.442-147.065c-.985-3.12-3.88-5.241-7.152-5.241s-6.167 2.121-7.152 5.241l-46.442 147.065h-2.519c-4.142 0-7.5 3.358-7.5 7.5v8.016c0 35.076 28.537 63.613 63.613 63.613s63.613-28.537 63.613-63.613v-8.016c0-4.142-3.358-7.5-7.5-7.5zm-7.5 15.516c0 26.805-21.808 48.613-48.613 48.613s-48.613-21.808-48.613-48.613v-.516h.468.04 48.105c4.142 0 7.5-3.358 7.5-7.5s-3.358-7.5-7.5-7.5h-37.863l37.863-119.901 37.863 119.901h-5.799c-4.142 0-7.5 3.358-7.5 7.5s3.358 7.5 7.5 7.5h16.015c.005 0 .01.001.015.001s.011-.001.016-.001h.503z"/><path d="m327.629 346.636v-42.54c0-8.556-6.96-15.516-15.516-15.516h-.516v-33.81c0-9.21 1.133-18.41 3.366-27.344l4.426-17.704c1.005-4.018-1.438-8.09-5.457-9.095-4.015-1.003-8.09 1.438-9.095 5.457l-4.426 17.703c-2.531 10.123-3.814 20.547-3.814 30.982v33.81h-81.193v-19.334c0-9.824-2.322-19.662-6.716-28.448l-12.2-24.401c-3.357-6.714-5.132-14.232-5.132-21.74v-26.834c0-9.125 7.423-16.548 16.548-16.548h40.596v8.532c0 4.705-3.828 8.532-8.532 8.532h-24.048c-4.142 0-7.5 3.358-7.5 7.5v24.049c0 4.142 3.358 7.5 7.5 7.5s7.5-3.358 7.5-7.5v-16.549h16.548c6.19 0 11.827-2.406 16.032-6.328 4.206 3.922 9.842 6.328 16.032 6.328s11.827-2.406 16.032-6.328c4.206 3.922 9.842 6.328 16.032 6.328 12.976 0 23.532-10.557 23.532-23.532v-.516h76.106c9.642 0 18.086-6.192 21.515-15.776 3.485-9.743 12.783-16.289 23.138-16.289 13.545 0 24.564 11.02 24.564 24.564 0 4.142 3.358 7.5 7.5 7.5s7.5-3.358 7.5-7.5c0-21.816-17.749-39.564-39.564-39.564-16.674 0-31.648 10.543-37.262 26.236-1.266 3.541-4.167 5.828-7.391 5.828h-76.106v-8.532c0-12.976-10.557-23.532-23.532-23.532-4.368 0-8.46 1.2-11.969 3.283-4.137-6.77-11.597-11.299-20.095-11.299-4.368 0-8.46 1.2-11.97 3.283-4.137-6.77-11.596-11.299-20.095-11.299s-15.958 4.529-20.095 11.299c-3.51-2.083-7.601-3.283-11.97-3.283-12.976 0-23.532 10.556-23.532 23.532v19.098c-4.981 5.58-8.016 12.932-8.016 20.983v26.834c0 9.825 2.322 19.662 6.716 28.448l12.2 24.401c3.357 6.715 5.132 14.232 5.132 21.74v19.334h-.516c-8.556 0-15.516 6.96-15.516 15.516v42.54c-4.774 2.648-8.016 7.738-8.016 13.573v48.097c0 4.142 3.358 7.5 7.5 7.5s7.5-3.358 7.5-7.5v-48.095c0-.285.231-.516.516-.516h128.258c.285 0 .516.231.516.516v48.097c0 4.142 3.358 7.5 7.5 7.5s7.5-3.358 7.5-7.5v-48.097c.001-5.836-3.241-10.925-8.015-13.574zm-23.532-219.41c4.705 0 8.532 3.828 8.532 8.532v24.048c0 4.705-3.828 8.532-8.532 8.532s-8.532-3.828-8.532-8.532v-24.048c-.001-4.704 3.827-8.532 8.532-8.532zm-32.065-8.016c4.705 0 8.532 3.828 8.532 8.532v32.064c0 4.705-3.828 8.532-8.532 8.532s-8.532-3.828-8.532-8.532v-32.064c0-4.705 3.828-8.532 8.532-8.532zm-40.596.516c0-4.705 3.828-8.532 8.532-8.532s8.532 3.828 8.532 8.532v16.548h-17.064zm-23.533-.516c4.705 0 8.532 3.828 8.532 8.532v8.532h-8.532c-2.957 0-5.816.418-8.532 1.182v-9.714c0-4.705 3.828-8.532 8.532-8.532zm-8.016 184.371h112.226c.285 0 .516.231.516.516v40.597h-113.258v-40.597c0-.285.232-.516.516-.516z"/></g></g></svg>