<svg height="454pt" viewBox="-51 0 454 454.02085" width="454pt" xmlns="http://www.w3.org/2000/svg"><path d="m176.660156 10 166.652344 434.019531-166.652344-110.417969-166.648437 110.417969zm145.730469 408.410156-146.230469-380.507812v285.699218c2.046875-.011718 4.046875.566407 5.769532 1.667969zm0 0" fill="#00efd1"/><path d="m176.160156 37.902344 146.230469 380.507812-140.460937-93.140625c-1.722657-1.101562-3.722657-1.679687-5.769532-1.667969zm0 0" fill="#00acea"/><path d="m3.753906 451.820312c3.390625 2.722657 8.15625 2.9375 11.78125.535157l161.125-106.757813 161.128906 106.757813c3.625 2.402343 8.386719 2.1875 11.78125-.535157 3.390626-2.722656 4.636719-7.324218 3.078126-11.382812l-166.652344-434.019531c-1.484375-3.867188-5.195313-6.417969-9.335938-6.417969s-7.851562 2.550781-9.335937 6.417969l-166.648438 434.019531c-1.558593 4.058594-.316406 8.660156 3.078125 11.382812zm178.453125-126.964843c-1.65625-1.074219-3.574219-1.675781-5.546875-1.746094v-282.511719l144.699219 376.53125zm-6.546875-284.351563v283.167969c-1.613281.15625-3.167968.703125-4.523437 1.59375l-140.574219 93.144531zm0 0" fill="#083863"/></svg>