<?xml version="1.0"?>
<svg xmlns="http://www.w3.org/2000/svg" xmlns:xlink="http://www.w3.org/1999/xlink" xmlns:svgjs="http://svgjs.com/svgjs" version="1.1" width="512" height="512" x="0" y="0" viewBox="0 0 512.06 512.06" style="enable-background:new 0 0 512 512" xml:space="preserve"><circle r="256.03" cx="256.03" cy="256.03" fill="#aed71d" shape="circle"/><g transform="matrix(0.6599999999999999,0,0,0.6599999999999999,87.05021514892582,87.05019569396975)"><g xmlns="http://www.w3.org/2000/svg"><g><path d="m271.03 370.28v66.78c0 8.28-6.72 15-15 15s-15-6.72-15-15v-66.78c0-8.28 6.72-15 15-15s15 6.72 15 15z" fill="#5e54ac" data-original="#5e54ac" style=""/></g><path d="m271.03 370.28v66.78c0 8.28-6.72 15-15 15v-96.78c8.28 0 15 6.72 15 15z" fill="#453d81" data-original="#453d81" style=""/><path d="m512.03 212.6c0 46.64-37.81 84.45-84.45 84.45h-343.1c-46.64 0-84.45-37.81-84.45-84.45 0-36.9 23.67-68.25 56.66-79.74-2.71-41.5 30.2-75.99 71.1-75.99 11.02 0 21.45 2.51 30.76 6.97 16.4-37.58 53.87-63.84 97.48-63.84s81.08 26.26 97.48 63.84c9.31-4.46 19.74-6.97 30.76-6.97 40.99 0 73.81 34.58 71.11 75.99 32.98 11.49 56.65 42.84 56.65 79.74z" fill="#a8ebfa" data-original="#a8ebfa" style=""/><path d="m512.03 212.6c0 46.64-37.81 84.45-84.45 84.45h-171.55v-297.05c43.61 0 81.08 26.26 97.48 63.84 9.31-4.46 19.74-6.97 30.76-6.97 40.99 0 73.81 34.58 71.11 75.99 32.98 11.49 56.65 42.84 56.65 79.74z" fill="#7dd5f4" data-original="#7dd5f4" style=""/><g><g><path d="m176.03 482.06h-50c-8.284 0-15-6.716-15-15s6.716-15 15-15h35v-81.78c0-8.284 6.716-15 15-15s15 6.716 15 15v96.78c0 8.284-6.716 15-15 15z" fill="#5e54ac" data-original="#5e54ac" style=""/></g></g><g><g><path d="m386.03 482.06h-50c-8.284 0-15-6.716-15-15v-96.78c0-8.284 6.716-15 15-15s15 6.716 15 15v81.78h35c8.284 0 15 6.716 15 15s-6.716 15-15 15z" fill="#453d81" data-original="#453d81" style=""/></g></g><g><circle cx="256.03" cy="467.06" fill="#ffe14d" r="45" data-original="#ffe14d" style=""/></g><g><circle cx="96.03" cy="467.06" fill="#ffe14d" r="45" data-original="#ffe14d" style=""/></g><g><circle cx="416.03" cy="467.06" fill="#fabe2c" r="45" data-original="#fabe2c" style=""/></g><g><path d="m381.03 150.28v220c0 8.28-6.72 15-15 15h-220c-8.28 0-15-6.72-15-15v-220c0-8.28 6.72-15 15-15h220c8.28 0 15 6.72 15 15z" fill="#4793ff" data-original="#4793ff" style=""/></g><path d="m301.03 467.06c0 24.81-20.19 45-45 45v-90c24.81 0 45 20.19 45 45z" fill="#fabe2c" data-original="#fabe2c" style=""/><path d="m381.03 150.28v220c0 8.28-6.72 15-15 15h-110v-250h110c8.28 0 15 6.72 15 15z" fill="#525cdd" data-original="#525cdd" style=""/><g><path d="m306.03 225.28v70c0 8.28-6.72 15-15 15h-70c-8.28 0-15-6.72-15-15v-70c0-8.28 6.72-15 15-15h70c8.28 0 15 6.72 15 15z" fill="#f0f7ff" data-original="#f0f7ff" style=""/></g><path d="m306.03 225.28v70c0 8.28-6.72 15-15 15h-35v-100h35c8.28 0 15 6.72 15 15z" fill="#c0ccdd" data-original="#c0ccdd" style=""/></g></g></svg>
