<?xml version="1.0"?>
<svg xmlns="http://www.w3.org/2000/svg" xmlns:xlink="http://www.w3.org/1999/xlink" xmlns:svgjs="http://svgjs.com/svgjs" version="1.1" width="512" height="512" x="0" y="0" viewBox="0 0 510 510" style="enable-background:new 0 0 512 512" xml:space="preserve" class=""><circle r="255" cx="255" cy="255" fill="#3c8dcd" shape="circle" transform="matrix(1,0,0,1,0,0)"/><g transform="matrix(0.5900000000000001,0,0,0.5900000000000001,104.5499999999999,104.5499999999999)"><g xmlns="http://www.w3.org/2000/svg" id="XMLID_2010_"><path id="XMLID_2287_" d="m480 435v-300h-75l-150 225.042v74.958l112.5 16z" fill="#444444" data-original="#444444" style="" class=""/><path id="XMLID_2284_" d="m30 435h225v-71.667l-108.333-18.333-116.667 15z" fill="#5a5a5a" data-original="#5a5a5a" style=""/><path id="XMLID_2281_" d="m60 435 96.667 13 98.333-13 15-36.333-15-38.625-97.5-26.542-97.5 26.5z" fill="#78c4f8" data-original="#78c4f8" style="" class=""/><path id="XMLID_2278_" d="m255 435 97.5 18.5 97.5-18.5v-270h-45l-150 195.042z" fill="#249ec5" data-original="#249ec5" style="" class=""/><path id="XMLID_2275_" d="m0 0v360h202.5l13.5-180-13.5-180c-11.243 0-191.257 0-202.5 0z" fill="#f2f4f9" data-original="#f2f4f9" style="" class=""/><path id="XMLID_2272_" d="m405 0c-11.243 0-191.257 0-202.5 0v360h202.5s0-350.12 0-360z" fill="#dbf0f9" data-original="#dbf0f9" style="" class=""/><path id="XMLID_2269_" d="m157.5 60s-148.758 0-157.5 0c0-7.259 0-52.693 0-60h202.5c-12.117 16.155-45 60-45 60z" fill="#c3e2ed" data-original="#c3e2ed" style=""/><g id="XMLID_2264_"><g><path id="XMLID_248_" d="m255 60h30v30h-30z" fill="#fdbf00" data-original="#fdbf00" style="" class=""/></g></g><g id="XMLID_2259_"><g><path id="XMLID_277_" d="m315 60h30v30h-30z" fill="#f03800" data-original="#f03800" style="" class=""/></g></g><path id="XMLID_2256_" d="m225 150h120v90h-120z" fill="#fdbf00" data-original="#fdbf00" style="" class=""/><g id="XMLID_2251_"><path id="XMLID_2255_" d="m202.5 300h-142.5v-30h142.5l10.167 15z" fill="#78c4f8" data-original="#78c4f8" style="" class=""/></g><g id="XMLID_2246_"><path id="XMLID_2250_" d="m202.5 270h142.5v30h-142.5z" fill="#249ec5" data-original="#249ec5" style="" class=""/></g><g id="XMLID_2225_"><path id="XMLID_2245_" d="m60 210h105v30h-105z" fill="#78c4f8" data-original="#78c4f8" style="" class=""/></g><g id="XMLID_2218_"><path id="XMLID_2222_" d="m60 150h105v30h-105z" fill="#78c4f8" data-original="#78c4f8" style="" class=""/></g><path id="XMLID_2189_" d="m0 435c0 41.353 33.644 75 75 75h180l15-37.5-15-37.5s-178.675 0-255 0z" fill="#444444" data-original="#444444" style="" class=""/><path id="XMLID_2215_" d="m255 435v75h180c41.354 0 75-75 75-75z" fill="#323233" data-original="#323233" style="" class=""/></g></g></svg>
