<?xml version="1.0"?>
<svg xmlns="http://www.w3.org/2000/svg" xmlns:xlink="http://www.w3.org/1999/xlink" xmlns:svgjs="http://svgjs.com/svgjs" version="1.1" width="512" height="512" x="0" y="0" viewBox="0 0 512 512" style="enable-background:new 0 0 512 512" xml:space="preserve" class=""><g>
<g xmlns="http://www.w3.org/2000/svg">
	<g>
		<path d="M289.519,307.46c-4.901,0.301-9.773,0.179-14.779-0.471c-0.352-0.046-0.691-0.112-1.028-0.181    c3.88,12.417,5.972,25.617,5.972,39.296c0,72.793-59.221,132.014-132.014,132.014c-12.343,0-24.561-1.7-36.312-5.055    c-3.983-1.14-8.134,1.171-9.271,5.153c-1.137,3.983,1.17,8.134,5.153,9.271c13.091,3.736,26.693,5.631,40.429,5.631    c81.064,0,147.014-65.95,147.014-147.014C294.683,332.734,292.879,319.78,289.519,307.46z" fill="#3979f8" data-original="#000000" style="" class=""/>
	</g>
</g>
<g xmlns="http://www.w3.org/2000/svg">
	<g>
		<path d="M398.374,202.856c3.101-11.885,4.757-24.348,4.757-37.191c0-81.272-66.12-147.391-147.392-147.391    c-22.634,0-44.351,4.996-64.548,14.851c-3.732,1.821-5.282,6.323-3.461,10.055s6.323,5.281,10.055,3.46    c18.126-8.843,37.624-13.327,57.954-13.327c72.98,0,132.353,59.373,132.353,132.353c0,11.927-1.595,23.486-4.567,34.486    c-6.252-0.8-12.59-1.207-18.917-1.207c-2.209,0-4.411,0.053-6.604,0.149c-0.131-0.007-0.259-0.02-0.392-0.02    c-0.387,0-0.765,0.038-1.137,0.095c-28.838,1.555-56.17,11.372-79.49,28.638c-7.686,5.691-14.726,12.035-21.074,18.941    c-6.349-6.906-13.388-13.25-21.074-18.941c-23.457-17.367-50.973-27.197-79.998-28.663c-0.319-0.041-0.642-0.07-0.973-0.07    c-0.075,0-0.147,0.009-0.221,0.011c-2.136-0.091-4.279-0.141-6.43-0.141c-6.44,0-12.89,0.419-19.251,1.247    c-2.979-11.012-4.578-22.585-4.578-34.526c0-32.509,11.898-63.766,33.502-88.012c2.763-3.101,2.489-7.853-0.612-10.616    c-3.1-2.762-7.854-2.489-10.616,0.612c-24.061,27.005-37.312,61.815-37.312,98.017c0,12.887,1.668,25.39,4.789,37.312    C48.332,218.461,0,276.854,0,346.335c0,45.464,20.508,87.69,56.265,115.852c3.263,2.57,7.99,2.009,10.56-1.254    c2.57-3.262,2.008-7.99-1.255-10.559c-32.113-25.292-50.532-63.214-50.532-104.039c0-62.777,43.936-115.474,102.671-128.985    c17.121,45.573,56.191,80.49,104.271,91.8c-3.103,11.883-4.763,24.343-4.763,37.185c0,81.272,66.12,147.391,147.392,147.391    S512,427.606,512,346.335C512,276.679,463.426,218.163,398.374,202.856z M146.347,240.084    c-5.376-7.877-9.922-16.361-13.516-25.328c4.478-0.483,8.998-0.735,13.516-0.764V240.084z M177.651,272.457    c-5.797-4.251-11.237-8.961-16.266-14.078v-43.631c5.501,0.581,10.931,1.494,16.266,2.746V272.457z M209.4,289.639    c-5.77-2.164-11.353-4.712-16.71-7.626V221.99c5.725,2.094,11.302,4.598,16.71,7.488V289.639z M365.132,213.988    c4.522,0.018,9.045,0.264,13.53,0.736c-3.596,8.978-8.148,17.473-13.53,25.36V213.988z M333.827,217.571    c5.335-1.266,10.765-2.192,16.266-2.788v43.597c-5.029,5.117-10.469,9.827-16.266,14.078V217.571z M302.079,229.666    c5.407-2.911,10.983-5.441,16.71-7.555v59.901c-5.358,2.915-10.941,5.463-16.71,7.627V229.666z M285.935,239.892    c0.364-0.27,0.739-0.519,1.105-0.785v55.162c-0.544,0.132-1.086,0.269-1.633,0.395c-4.827-12.903-11.455-25.131-19.735-36.267    C271.719,251.616,278.483,245.409,285.935,239.892z M278.127,325.787H233.87c0.742-4.734,1.735-9.384,2.966-13.939    c6.191,0.796,12.5,1.208,18.903,1.208c6.575,0,13.048-0.439,19.397-1.278C276.382,316.384,277.383,321.06,278.127,325.787z     M255.913,270.764c5.716,8.211,10.492,17.07,14.235,26.467c-4.734,0.515-9.54,0.787-14.408,0.787    c-4.755,0-9.451-0.258-14.078-0.749C245.407,287.859,250.188,278.986,255.913,270.764z M224.438,294.268v-55.406    c0.482,0.347,0.972,0.676,1.45,1.03c7.482,5.539,14.271,11.775,20.336,18.587c-8.211,11.043-14.849,23.215-19.717,36.279    C225.815,294.601,225.126,294.436,224.438,294.268z M232.255,346.335c0-1.854,0.05-3.695,0.126-5.531    c0.142,0.008,0.283,0.022,0.427,0.022h46.818c0.077,1.833,0.118,3.67,0.118,5.509c0,3.599-0.153,7.187-0.446,10.757h-46.604    C232.408,353.543,232.255,349.956,232.255,346.335z M234.787,372.13h42.402c-1.129,5.667-2.628,11.249-4.479,16.71h-33.453    C237.414,383.419,235.92,377.839,234.787,372.13z M256.03,421.928c-3.984-5.707-7.536-11.737-10.597-18.049h21.134    C263.545,410.15,260.022,416.187,256.03,421.928z M364.608,478.687c-39.284,0-74.619-17.21-98.879-44.478    c18.777-25.285,29.054-56.247,29.054-87.874c0-12.656-1.645-25.192-4.815-37.3c47.9-11.435,86.797-46.314,103.841-91.789    c58.975,13.333,103.152,66.141,103.152,129.089C496.961,419.315,437.588,478.687,364.608,478.687z" fill="#3979f8" data-original="#000000" style="" class=""/>
	</g>
</g>
<g xmlns="http://www.w3.org/2000/svg">
</g>
<g xmlns="http://www.w3.org/2000/svg">
</g>
<g xmlns="http://www.w3.org/2000/svg">
</g>
<g xmlns="http://www.w3.org/2000/svg">
</g>
<g xmlns="http://www.w3.org/2000/svg">
</g>
<g xmlns="http://www.w3.org/2000/svg">
</g>
<g xmlns="http://www.w3.org/2000/svg">
</g>
<g xmlns="http://www.w3.org/2000/svg">
</g>
<g xmlns="http://www.w3.org/2000/svg">
</g>
<g xmlns="http://www.w3.org/2000/svg">
</g>
<g xmlns="http://www.w3.org/2000/svg">
</g>
<g xmlns="http://www.w3.org/2000/svg">
</g>
<g xmlns="http://www.w3.org/2000/svg">
</g>
<g xmlns="http://www.w3.org/2000/svg">
</g>
<g xmlns="http://www.w3.org/2000/svg">
</g>
</g></svg>
