<?xml version="1.0"?>
<svg xmlns="http://www.w3.org/2000/svg" xmlns:xlink="http://www.w3.org/1999/xlink" xmlns:svgjs="http://svgjs.com/svgjs" version="1.1" width="512" height="512" x="0" y="0" viewBox="0 0 480 480.00673" style="enable-background:new 0 0 512 512" xml:space="preserve" class=""><g><path xmlns="http://www.w3.org/2000/svg" d="m448.003906 464.007812v-352h-64v352h-24v-272h-64v272h-24v-208h-64v208h-16v-144h-64v144h-24v-96h-64v96h-24v-463.9999995h-15.99999975v479.9999995h479.99999975v-16zm-392 0v-80h32v80zm88 0v-128h32v128zm80 0v-192h32v192zm88 0v-256h32v256zm88 0v-336h32v336zm0 0" fill="#3979f8" data-original="#000000" style="" class=""/><path xmlns="http://www.w3.org/2000/svg" d="m72.003906 344.007812c13.253906 0 24-10.746093 24-24-.027344-3.9375-1.035156-7.808593-2.9375-11.257812l49.601563-54.632812c8.519531 3.738281 18.4375 2.160156 25.375-4.039063 6.941406-6.195313 9.625-15.871094 6.871093-24.757813l51.511719-37.503906c8.785157 6.003906 20.472657 5.511719 28.71875-1.210937 8.246094-6.726563 11.078125-18.074219 6.960938-27.886719l54.625-49.601562c3.460937 1.886718 7.332031 2.878906 11.273437 2.890624 13.253906 0 24-10.746093 24-24-.03125-2.300781-.402344-4.585937-1.097656-6.777343l51.496094-37.457031c9.097656 6.257812 21.285156 5.5 29.539062-1.832032 8.253906-7.332031 10.441406-19.347656 5.300782-29.117187-5.140626-9.769531-16.28125-14.773438-26.996094-12.125-10.71875 2.652343-18.246094 12.269531-18.242188 23.308593.03125 2.300782.398438 4.582032 1.09375 6.773438l-51.496094 37.457031c-8.777343-6.007812-20.464843-5.515625-28.710937 1.203125s-11.085937 18.066406-6.976563 27.878906l-54.621093 49.597657c-3.460938-1.898438-7.34375-2.898438-11.289063-2.910157-13.253906 0-24 10.742188-24 24 .03125 2.300782.398438 4.582032 1.09375 6.773438l-51.496094 37.496094c-9.074218-6.398438-21.367187-5.691406-29.648437 1.710937-8.285156 7.402344-10.363281 19.539063-5.023437 29.273438l-49.597657 54.632812c-8.960937-3.78125-19.320312-1.78125-26.226562 5.066407-6.910157 6.847656-9 17.1875-5.296875 26.183593 3.703125 8.992188 12.46875 14.863281 22.195312 14.863281zm344-328c4.417969 0 8 3.582032 8 8 0 4.417969-3.582031 8-8 8-4.417968 0-8-3.582031-8-8 0-4.417968 3.582032-8 8-8zm-88 64c4.417969 0 8 3.582032 8 8 0 4.417969-3.582031 8-8 8-4.417968 0-8-3.582031-8-8 0-4.417968 3.582032-8 8-8zm-88 80c4.417969 0 8 3.582032 8 8 0 4.417969-3.582031 8-8 8-4.417968 0-8-3.582031-8-8 0-4.417968 3.582032-8 8-8zm-88 64c4.417969 0 8 3.582032 8 8 0 4.417969-3.582031 8-8 8-4.417968 0-8-3.582031-8-8 0-4.417968 3.582032-8 8-8zm-80 88c4.417969 0 8 3.582032 8 8 0 4.417969-3.582031 8-8 8-4.417968 0-8-3.582031-8-8 0-4.417968 3.582032-8 8-8zm0 0" fill="#3979f8" data-original="#000000" style="" class=""/></g></svg>
