<?xml version="1.0"?>
<svg xmlns="http://www.w3.org/2000/svg" xmlns:xlink="http://www.w3.org/1999/xlink" xmlns:svgjs="http://svgjs.com/svgjs" version="1.1" width="512" height="512" x="0" y="0" viewBox="0 0 512 512.00145" style="enable-background:new 0 0 512 512" xml:space="preserve" class=""><g><path xmlns="http://www.w3.org/2000/svg" d="m223.375 340.238281-.082031-.085937c-.613281-.65625-1.230469-1.3125-1.863281-1.957032l-83.828126-85.871093c-5.109374-5.238281-11.957031-8.121094-19.292968-8.121094-7.4375 0-14.609375 3.109375-19.679688 8.527344-9.511718 10.167969-9.636718 26.214843-.285156 36.53125l50.480469 55.648437c1.726562 1.90625 2.679687 4.371094 2.679687 6.9375 0 3.199219-1.4375 6.160156-3.957031 8.136719-4.210937 3.3125-10.351563 2.816406-13.984375-1.125l-58.402344-63.546875c-4.011718-4.367188-6.453125-10.03125-6.875-15.945312l-6.972656-98.695313c-1.121094-16.007813-14.574219-28.546875-30.625-28.546875h-.226562c-8.222657.0625-15.925782 3.332031-21.679688 9.203125-5.761719 5.871094-8.8789062 13.636719-8.77734375 21.867187l1.57812475 132.390626c.191407 15.140624 5.824219 29.707031 15.859375 41.015624l88.691406 100.023438c3.332032 3.757812 5.144532 8.582031 5.101563 13.566406l-.320313 34.132813c-.019531 2.03125.773438 3.984375 2.203126 5.425781 1.425781 1.441406 3.371093 2.25 5.402343 2.25h97.777344c3.671875 0 6.820313-2.625 7.480469-6.238281l18.078125-99.0625c4.386719-24.042969-2.496094-48.855469-18.40625-66.375-.023438-.03125-.050781-.058594-.074219-.085938zm3.523438 63.730469-16.941407 92.824219h-83.761719l.25-26.46875c.070313-8.757813-3.101562-17.207031-8.929687-23.785157l-88.699219-100.035156c-7.613281-8.574218-11.882812-19.621094-12.027344-31.101562l-1.578124-132.390625c-.050782-4.152344 1.523437-8.074219 4.429687-11.039063 2.902344-2.960937 6.789063-4.609375 10.878906-4.640625h.167969c8.097656 0 14.886719 6.328125 15.457031 14.40625l6.972657 98.703125c.664062 9.335938 4.515624 18.269532 10.84375 25.160156l58.410156 63.550782c8.980468 9.753906 24.171875 10.976562 34.566406 2.789062 6.210938-4.871094 9.773438-12.195312 9.773438-20.09375 0-6.351562-2.351563-12.445312-6.625-17.15625l-50.476563-55.648437c-4.078125-4.496094-4.019531-11.492188.128906-15.925781 2.234375-2.390626 5.28125-3.710938 8.570313-3.710938 3.199218 0 6.183594 1.253906 8.40625 3.535156l83.84375 85.882813c.558594.570312 1.089844 1.140625 1.625 1.710937l.042968.046875c12.726563 14.039063 18.207032 33.992188 14.671876 53.386719zm0 0" fill="#3979f8" data-original="#000000" style="" class=""/><path xmlns="http://www.w3.org/2000/svg" d="m503.023438 161.328125c-5.757813-5.875-13.457032-9.140625-21.742188-9.203125h-.167969c-16.027343 0-29.480469 12.535156-30.625 28.542969l-6.957031 98.695312c-.417969 5.90625-2.863281 11.574219-6.871094 15.949219l-58.414062 63.539062c-3.632813 3.949219-9.78125 4.445313-14 1.125-2.507813-1.96875-3.945313-4.929687-3.945313-8.128906 0-2.566406.949219-5.03125 2.679688-6.9375l50.484375-55.652344c9.34375-10.308593 9.226562-26.351562-.285156-36.535156-5.082032-5.414062-12.253907-8.519531-19.683594-8.519531-7.335938 0-14.1875 2.882813-19.289063 8.117187l-83.886719 85.929688c-.652343.683594-1.308593 1.371094-1.949218 2.070312-15.921875 17.515626-22.808594 42.328126-18.425782 66.378907l18.097657 99.0625c.660156 3.613281 3.808593 6.238281 7.480469 6.238281h97.761718c2.03125 0 3.976563-.8125 5.402344-2.253906 1.429688-1.441406 2.222656-3.394532 2.203125-5.421875l-.320313-34.109375c-.03125-5.019532 1.785157-9.84375 5.113282-13.589844l45.960937-51.832031c2.785157-3.140625 2.5-7.949219-.644531-10.734375-3.140625-2.785156-7.949219-2.5-10.734375.644531l-45.957031 51.828125c-5.824219 6.554688-9 15-8.945313 23.804688l.246094 26.457031h-83.746094l-16.957031-92.824219c-3.539062-19.417969 1.960938-39.386719 14.707031-53.40625.546875-.597656 1.121094-1.199219 1.644531-1.746094l83.835938-85.878906c2.21875-2.273438 5.203125-3.527344 8.402344-3.527344 3.292968 0 6.34375 1.320313 8.582031 3.703125 4.140625 4.4375 4.195313 11.433594.121094 15.925781l-50.484375 55.652344c-4.269532 4.710938-6.621094 10.804688-6.621094 17.15625 0 7.902344 3.5625 15.226563 9.757812 20.085938 10.410157 8.195312 25.597657 6.976562 34.585938-2.785156l58.429688-63.554688c6.324218-6.90625 10.171874-15.839844 10.835937-25.15625l6.957031-98.691406c.578125-8.085938 7.367188-14.414063 15.453125-14.414063h.109375c4.152344.03125 8.039063 1.679688 10.941406 4.640625 2.90625 2.964844 4.480469 6.882813 4.429688 11.039063l-1.578125 132.390625c-.132813 11.476562-4.402344 22.523437-12.019531 31.105468l-23.742188 26.777344c-2.785156 3.140625-2.496094 7.945313.644532 10.734375 3.140624 2.785157 7.949218 2.496094 10.734374-.644531l23.742188-26.773438c10.042969-11.316406 15.671875-25.882812 15.84375-41.019531l1.582031-132.386719c.097657-8.226562-3.019531-15.996093-8.777343-21.867187zm0 0" fill="#3979f8" data-original="#000000" style="" class=""/><path xmlns="http://www.w3.org/2000/svg" d="m334.660156 253.246094c8.960938-6.511719 13.367188-17.339844 11.496094-28.261719l-8.105469-47.25c-.761719-4.4375.710938-8.96875 3.9375-12.113281l34.328125-33.460938c7.933594-7.734375 10.734375-19.082031 7.3125-29.621094-3.425781-10.535156-12.363281-18.070312-23.328125-19.664062l-47.4375-6.894531c-4.460937-.648438-8.3125-3.445313-10.304687-7.484375l-21.21875-42.988282c-4.902344-9.9375-14.832032-16.109374-25.910156-16.109374-11.078126 0-21.007813 6.171874-25.910157 16.109374l-21.21875 42.988282c-1.992187 4.039062-5.847656 6.839844-10.304687 7.488281l-47.441406 6.890625c-10.964844 1.59375-19.902344 9.128906-23.324219 19.664062-3.421875 10.539063-.621094 21.886719 7.3125 29.621094 3.007812 2.933594 7.820312 2.867188 10.75-.136718 2.933593-3.007813 2.871093-7.820313-.136719-10.753907-3.816406-3.71875-5.109375-8.960937-3.460938-14.027343 1.644532-5.070313 5.773438-8.550782 11.046876-9.316407l47.441406-6.894531c9.410156-1.367188 17.546875-7.273438 21.753906-15.804688l21.214844-42.988281c2.359375-4.777343 6.949218-7.628906 12.273437-7.628906 5.328125 0 9.917969 2.851563 12.273438 7.628906l21.21875 42.988281c4.207031 8.53125 12.34375 14.4375 21.753906 15.804688l47.441406 6.894531c5.273438.765625 9.402344 4.246094 11.046875 9.316407 1.648438 5.066406.355469 10.308593-3.460937 14.027343l-34.328125 33.464844c-6.8125 6.636719-9.917969 16.199219-8.308594 25.574219l8.101562 47.25c.902344 5.25-1.132812 10.253906-5.445312 13.386718-4.308594 3.128907-9.695312 3.519532-14.414062 1.039063l-42.429688-22.308594c-8.421875-4.421875-18.472656-4.421875-26.894531 0l-42.429688 22.308594c-4.714843 2.480469-10.105469 2.09375-14.414062-1.039063-4.3125-3.132812-6.347657-8.136718-5.445313-13.386718l8.101563-47.25c1.609375-9.375-1.496094-18.9375-8.308594-25.574219l-16.054687-15.652344c-3.007813-2.933593-7.820313-2.867187-10.753907.136719-2.929687 3.007812-2.867187 7.824219.140625 10.753906l16.054688 15.648438c3.226562 3.148437 4.695312 7.675781 3.933594 12.117187l-8.101563 47.25c-1.875 10.917969 2.53125 21.75 11.492187 28.261719 5.066407 3.675781 10.992188 5.546875 16.960938 5.546875 4.589844 0 9.207031-1.105469 13.472656-3.347656l42.433594-22.308594c3.988281-2.097656 8.746094-2.097656 12.734375 0l42.433594 22.308594c9.804687 5.152343 21.464843 4.308593 30.429687-2.203125zm0 0" fill="#3979f8" data-original="#000000" style="" class=""/><path xmlns="http://www.w3.org/2000/svg" d="m380.195312 57.457031c.972657.414063 1.984376.613281 2.976563.613281 2.957031 0 5.769531-1.734374 7-4.628906l18.25-42.851562c1.644531-3.867188-.152344-8.332032-4.015625-9.976563-3.867188-1.644531-8.332031.152344-9.976562 4.015625l-18.25 42.855469c-1.644532 3.863281.152343 8.328125 4.015624 9.972656zm0 0" fill="#3979f8" data-original="#000000" style="" class=""/><path xmlns="http://www.w3.org/2000/svg" d="m409.402344 87.292969c1.046875 3.207031 4.027344 5.246093 7.230468 5.246093.78125 0 1.574219-.121093 2.355469-.375l46.640625-15.207031c3.992188-1.304687 6.171875-5.597656 4.871094-9.589843-1.300781-3.992188-5.59375-6.175782-9.585938-4.871094l-46.636718 15.207031c-3.996094 1.304687-6.175782 5.59375-4.875 9.589844zm0 0" fill="#3979f8" data-original="#000000" style="" class=""/><path xmlns="http://www.w3.org/2000/svg" d="m411.066406 129.472656c-3.957031-1.402344-8.304687.667969-9.710937 4.625-1.402344 3.957032.664062 8.304688 4.625 9.710938l31.429687 11.152344c.839844.296874 1.699219.4375 2.542969.4375 3.128906 0 6.058594-1.945313 7.164063-5.0625 1.40625-3.957032-.664063-8.304688-4.625-9.710938zm0 0" fill="#3979f8" data-original="#000000" style="" class=""/><path xmlns="http://www.w3.org/2000/svg" d="m120.6875 53.441406c1.230469 2.894532 4.042969 4.625 6.996094 4.625.996094 0 2.003906-.195312 2.976562-.609375 3.867188-1.644531 5.664063-6.109375 4.019532-9.976562l-18.25-42.851563c-1.644532-3.863281-6.109376-5.664062-9.976563-4.019531-3.863281 1.648437-5.660156 6.113281-4.015625 9.976563zm0 0" fill="#3979f8" data-original="#000000" style="" class=""/><path xmlns="http://www.w3.org/2000/svg" d="m45.230469 76.957031 46.636719 15.207031c.78125.253907 1.578124.375 2.359374.375 3.203126 0 6.179688-2.039062 7.226563-5.246093 1.304687-3.996094-.878906-8.285157-4.871094-9.589844l-46.636719-15.207031c-3.996093-1.300782-8.285156.878906-9.585937 4.871094-1.304687 3.996093.878906 8.285156 4.871094 9.589843zm0 0" fill="#3979f8" data-original="#000000" style="" class=""/><path xmlns="http://www.w3.org/2000/svg" d="m99.792969 129.472656-31.429688 11.152344c-3.957031 1.40625-6.027343 5.753906-4.625 9.710938 1.105469 3.117187 4.039063 5.0625 7.167969 5.0625.84375 0 1.699219-.140626 2.542969-.4375l31.429687-11.152344c3.957032-1.40625 6.027344-5.753906 4.621094-9.710938-1.402344-3.957031-5.75-6.027344-9.707031-4.625zm0 0" fill="#3979f8" data-original="#000000" style="" class=""/></g></svg>
