<?xml version="1.0"?>
<svg xmlns="http://www.w3.org/2000/svg" xmlns:xlink="http://www.w3.org/1999/xlink" xmlns:svgjs="http://svgjs.com/svgjs" version="1.1" width="512" height="512" x="0" y="0" viewBox="0 0 512 512" style="enable-background:new 0 0 512 512" xml:space="preserve"><g><path xmlns="http://www.w3.org/2000/svg" d="M256,352a24,24,0,1,1,24-24A24.02718,24.02718,0,0,1,256,352Zm0-32a8,8,0,1,0,8,8A8.00917,8.00917,0,0,0,256,320Z" fill="#3979f8" data-original="#000000" style=""/><path xmlns="http://www.w3.org/2000/svg" d="M264,296H248a8,8,0,0,1-7.84473-6.43066l-16-80A8.00012,8.00012,0,0,1,232,200h48a8.00012,8.00012,0,0,1,7.84473,9.56934l-16,80A8,8,0,0,1,264,296Zm-9.44141-16h2.88282l12.80029-64H241.7583Z" fill="#3979f8" data-original="#000000" style=""/><path xmlns="http://www.w3.org/2000/svg" d="M380.68945,400H131.31055A27.31076,27.31076,0,0,1,107.042,360.16309L225.55273,130.54883a34.26349,34.26349,0,0,1,60.89454,0L404.958,360.16406A27.31,27.31,0,0,1,380.68945,400ZM256,128a18.19566,18.19566,0,0,0-16.22949,9.88672L121.25977,367.502A11.31053,11.31053,0,0,0,131.31055,384h249.3789a11.30975,11.30975,0,0,0,10.05078-16.49707L272.22949,137.88672A18.19566,18.19566,0,0,0,256,128Z" fill="#3979f8" data-original="#000000" style=""/><path xmlns="http://www.w3.org/2000/svg" d="M288,104H272V72a8.00079,8.00079,0,0,1,6.97412-7.93457L256,36.49609,233.02588,64.06543A8.00079,8.00079,0,0,1,240,72v32H224V80h-8a7.9999,7.9999,0,0,1-6.146-13.12109l40-48a7.99981,7.99981,0,0,1,12.292,0l40,48A7.9999,7.9999,0,0,1,296,80h-8Z" fill="#3979f8" data-original="#000000" style=""/><path xmlns="http://www.w3.org/2000/svg" d="M72.00146,304a7.99889,7.99889,0,0,1-5.123-1.85449l-48-40a7.99963,7.99963,0,0,1,0-12.291l48-40A7.99967,7.99967,0,0,1,80,216v8h72v16H72a8.00164,8.00164,0,0,1-7.93506-6.97363L36.49658,256l27.56836,22.97363A8.00164,8.00164,0,0,1,72,272h56v16H80v8a7.99911,7.99911,0,0,1-7.99854,8Z" fill="#3979f8" data-original="#000000" style=""/><path xmlns="http://www.w3.org/2000/svg" d="M256,496a8.00036,8.00036,0,0,1-6.146-2.87891l-40-48A7.9999,7.9999,0,0,1,216,432h8V416h16v24a8.00079,8.00079,0,0,1-6.97412,7.93457L256,475.50391l22.97412-27.56934A8.00079,8.00079,0,0,1,272,440V416h16v16h8a7.9999,7.9999,0,0,1,6.146,13.12109l-40,48A8.00036,8.00036,0,0,1,256,496Z" fill="#3979f8" data-original="#000000" style=""/><path xmlns="http://www.w3.org/2000/svg" d="M439.99854,304A7.99911,7.99911,0,0,1,432,296v-8H384V272h56a8.00164,8.00164,0,0,1,7.93506,6.97363L475.50342,256l-27.56836-22.97363A8.00164,8.00164,0,0,1,440,240H360V224h72v-8a7.99967,7.99967,0,0,1,13.12158-6.14551l48,40a7.99963,7.99963,0,0,1,0,12.291l-48,40A7.99889,7.99889,0,0,1,439.99854,304Z" fill="#3979f8" data-original="#000000" style=""/><path xmlns="http://www.w3.org/2000/svg" d="M162.05371,213.35156,95.69434,139.61914l-10.0376,10.03809A8.00038,8.00038,0,0,1,72,144V80a8.00008,8.00008,0,0,1,8-8h64a8.0001,8.0001,0,0,1,5.65674,13.65723L139.31348,96l58.34326,58.34277-11.31348,11.31446-64-64a8.00034,8.00034,0,0,1,0-11.31446L124.68652,88H88v36.68652l2.34326-2.34375a8.00041,8.00041,0,0,1,11.603.30567l72,80Z" fill="#3979f8" data-original="#000000" style=""/><path xmlns="http://www.w3.org/2000/svg" d="M488,496H424a8.0001,8.0001,0,0,1-5.65674-13.65723L428.686,472l-50.34278-50.34277,11.31348-11.31446,56,56a8.00034,8.00034,0,0,1,0,11.31446L443.314,480H480V443.31348l-2.34326,2.34375a7.90288,7.90288,0,0,1-5.77783,2.34179,8.00313,8.00313,0,0,1-5.70459-2.51562l-52.70606-56,11.65137-10.9668,47.0542,49.9961,10.16943-10.16993A8.00038,8.00038,0,0,1,496,424v64A8.00008,8.00008,0,0,1,488,496Z" fill="#3979f8" data-original="#000000" style=""/><path xmlns="http://www.w3.org/2000/svg" d="M88,496H24a8.00008,8.00008,0,0,1-8-8V424a8.00038,8.00038,0,0,1,13.65674-5.65723L39.82617,428.5127l47.0542-49.9961,11.65137,10.9668-52.70606,56a8.00313,8.00313,0,0,1-5.70459,2.51562,7.8645,7.8645,0,0,1-5.77783-2.34179L32,443.31348V480H68.686l-2.34278-2.34277a8.00034,8.00034,0,0,1,0-11.31446l56-56,11.31348,11.31446L83.314,472l10.34278,10.34277A8.0001,8.0001,0,0,1,88,496Z" fill="#3979f8" data-original="#000000" style=""/><path xmlns="http://www.w3.org/2000/svg" d="M349.94629,213.35156l-11.89258-10.70312,72-80a8.00041,8.00041,0,0,1,11.603-.30567L424,124.68652V88H387.31348l2.34326,2.34277a8.00034,8.00034,0,0,1,0,11.31446l-64,64-11.31348-11.31446L372.68652,96,362.34326,85.65723A8.0001,8.0001,0,0,1,368,72h64a8.00008,8.00008,0,0,1,8,8v64a8.00038,8.00038,0,0,1-13.65674,5.65723l-10.0376-10.03809Z" fill="#3979f8" data-original="#000000" style=""/></g></svg>
