<?xml version="1.0"?>
<svg xmlns="http://www.w3.org/2000/svg" xmlns:xlink="http://www.w3.org/1999/xlink" xmlns:svgjs="http://svgjs.com/svgjs" version="1.1" width="512" height="512" x="0" y="0" viewBox="0 0 512 512" style="enable-background:new 0 0 512 512" xml:space="preserve"><g><g xmlns="http://www.w3.org/2000/svg"><path d="m504.5 462h-240.501c-4.143 0-7.5 3.357-7.5 7.5s3.357 7.5 7.5 7.5h233.001v20h-474.5c-2 0-3.877-.779-5.307-2.214-1.414-1.409-2.193-3.286-2.193-5.286v-94.5c0-4.143-3.357-7.5-7.5-7.5s-7.5 3.357-7.5 7.5v94.5c0 6.018 2.347 11.669 6.587 15.893 4.244 4.26 9.895 6.607 15.913 6.607h482c4.143 0 7.5-3.357 7.5-7.5v-35c0-4.143-3.357-7.5-7.5-7.5z" fill="#3979f8" data-original="#000000" style=""/><path d="m7.5 368.5c4.143 0 7.5-3.357 7.5-7.5v-346h20v454.5c0 4.143 3.357 7.5 7.5 7.5h187.499c4.143 0 7.5-3.357 7.5-7.5s-3.357-7.5-7.5-7.5h-179.999v-454.5c0-4.143-3.357-7.5-7.5-7.5h-35c-4.143 0-7.5 3.357-7.5 7.5v353.5c0 4.143 3.357 7.5 7.5 7.5z" fill="#3979f8" data-original="#000000" style=""/><path d="m296.664 285.528c-.387.043-1.146.018-1.845-.562l-54.908-45.457c-3.706-3.068-8.574-4.483-13.342-3.883-4.773.601-9.135 3.175-11.966 7.064l-112.726 154.869c-3.895 5.351-4.449 12.338-1.447 18.236s8.978 9.563 15.596 9.563h340.144c9.649 0 17.5-7.851 17.5-17.5v-108.815c0-4.143-3.357-7.5-7.5-7.5s-7.5 3.357-7.5 7.5v108.814c0 1.379-1.121 2.5-2.5 2.5h-340.145c-1.334 0-1.968-.855-2.228-1.366-.26-.51-.578-1.526.206-2.604l112.727-154.867c.554-.761 1.31-.959 1.71-1.01.399-.05 1.182-.045 1.905.555l54.907 45.457c3.637 3.009 8.229 4.411 12.92 3.931 4.695-.475 8.912-2.76 11.871-6.437l144.179-179.074c.916-1.141 2.018-1.06 2.778-.79.762.268 1.669.895 1.669 2.357v147.428c0 4.143 3.357 7.5 7.5 7.5s7.5-3.357 7.5-7.5v-147.428c0-7.524-4.585-14.003-11.681-16.505-7.097-2.5-14.73-.33-19.45 5.53l-144.178 179.075c-.57.708-1.307.88-1.696.919z" fill="#3979f8" data-original="#000000" style=""/><path d="m78.047 283.908c3.873 2.82 8.448 4.312 13.23 4.312 7.178 0 13.983-3.462 18.203-9.26l97.411-133.824 44.659 36.974c6.754 5.591 15.273 8.183 23.992 7.3 8.721-.881 16.541-5.114 21.998-11.892l62.166-76.454 13.378 9.688c5.288 3.828 12.207 4.402 18.053 1.496 5.847-2.906 9.565-8.766 9.706-15.293l1.245-57.603c.008-.351-.009-.701-.051-1.049-.004-.036-.009-.073-.014-.109-.907-10.131-8.839-20.593-24.265-19.847-.43.02-.856.077-1.275.171-.064.014-.128.028-.191.045l-56.982 14.189c-6.479 1.613-11.404 6.665-12.854 13.183s.871 13.18 6.055 17.387l11.979 9.722-53.965 66.354-45.188-37.411c-6.877-5.692-15.908-8.318-24.777-7.21-8.864 1.114-16.964 5.896-22.222 13.12l-22.776 31.291c-2.438 3.35-1.699 8.04 1.649 10.478 3.35 2.438 8.039 1.7 10.478-1.649l22.776-31.291c2.832-3.89 7.193-6.465 11.961-7.064 4.781-.603 9.645.816 13.346 3.881l51.015 42.235c1.541 1.275 3.531 1.885 5.519 1.687 1.991-.196 3.821-1.18 5.083-2.731l60.319-74.167c2.106-2.592 3.078-5.85 2.733-9.173-.344-3.323-1.962-6.313-4.556-8.418l-13.922-11.299c-1.045-.849-.99-1.921-.865-2.484.126-.563.531-1.559 1.837-1.884l56.206-13.996c6.398-.041 7.724 3.771 7.94 6.196l-1.234 57.123c-.028 1.315-.881 1.934-1.387 2.185-.505.253-1.513.56-2.578-.213l-15.294-11.075c-5.37-3.887-12.849-2.902-17.029 2.239l-63.68 78.316c-2.942 3.654-7.149 5.928-11.847 6.402-4.69.473-9.28-.92-12.917-3.931l-50.808-42.063c-1.595-1.319-3.66-1.921-5.719-1.664-2.054.258-3.91 1.354-5.128 3.027l-102.106 140.277c-1.429 1.963-3.643 3.088-6.076 3.088-1.588 0-3.108-.497-4.401-1.438-1.619-1.179-2.683-2.917-2.995-4.896s.167-3.961 1.346-5.58l61.678-84.734c2.438-3.35 1.699-8.04-1.649-10.478-3.35-2.437-8.039-1.7-10.478 1.649l-61.679 84.735c-3.537 4.858-4.971 10.804-4.035 16.741.934 5.936 4.125 11.154 8.982 14.689z" fill="#3979f8" data-original="#000000" style=""/></g></g></svg>
