<svg id="Layer_1" enable-background="new 0 0 256 256" height="512" viewBox="0 0 256 256" width="512" xmlns="http://www.w3.org/2000/svg"><g><g><path d="m182.745 31.692h-9.452c-11.216 0-20.283 9.087-20.283 20.283 0-11.196-9.067-20.283-20.283-20.283h-9.452c-11.216 0-20.283 9.087-20.283 20.283 0-11.196-9.067-20.283-20.283-20.283h-9.452c-11.216 0-20.283 9.087-20.283 20.283v7.427h50.019 50.018 50.019v-7.427c-.002-11.196-9.069-20.283-20.285-20.283z" fill="#72c1e8"/></g><g><path d="m194.201 54.833h-1c-1.381 0-2.5-1.119-2.5-2.5s1.119-2.5 2.5-2.5h1c1.381 0 2.5 1.119 2.5 2.5s-1.119 2.5-2.5 2.5zm-11 0h-121c-1.381 0-2.5-1.119-2.5-2.5s1.119-2.5 2.5-2.5h121c1.381 0 2.5 1.119 2.5 2.5s-1.119 2.5-2.5 2.5z" fill="#c5e5ff"/></g><g><path d="m199.868 76.56h-142.666l57.868 64.207v32.021l26.929 11.889v-43.91z" fill="#f0c020"/></g><g><path d="m131.143 169.462c-1.381 0-2.5-1.119-2.5-2.5v-1.762c0-1.381 1.119-2.5 2.5-2.5s2.5 1.119 2.5 2.5v1.762c0 1.381-1.12 2.5-2.5 2.5zm0-11.762c-1.381 0-2.5-1.119-2.5-2.5v-19.39c0-.618.229-1.214.643-1.674l42.586-47.25c.926-1.025 2.505-1.108 3.531-.183 1.025.924 1.107 2.505.184 3.531l-41.943 46.537v18.43c-.001 1.38-1.121 2.499-2.501 2.499z" fill="#f9e5af"/></g><g><circle cx="77.981" cy="18.846" fill="#ffb69f" r="12.846"/></g><g><circle cx="178.019" cy="18.846" fill="#ffb69f" r="12.846"/></g><g><circle cx="128" cy="18.846" fill="#ffb69f" r="12.846"/></g><g><g><path d="m153.009 242.573v7.427h-50.019v-7.427c0-11.196 9.067-20.283 20.283-20.283h9.452c11.218 0 20.284 9.087 20.284 20.283z" fill="#72c1e8"/></g><g><path d="m144.996 247.833c-1.381 0-2.5-1.119-2.5-2.5v-2.057c0-1.381 1.119-2.5 2.5-2.5s2.5 1.119 2.5 2.5v2.057c0 1.381-1.119 2.5-2.5 2.5zm-5.161-11.973c-1.87-1.98-4.395-3.07-7.108-3.07-1.381 0-2.5-1.119-2.5-2.5s1.119-2.5 2.5-2.5c4.044 0 7.96 1.69 10.743 4.638.948 1.003.903 2.586-.101 3.534-1.005.949-2.589.901-3.534-.102z" fill="#c5e5ff"/></g><g><circle cx="128" cy="209.444" fill="#ffb69f" r="12.846"/></g></g><g><path d="m175.979 99.33c-.92 1.02-.84 2.61.181 3.53 1.019.93 2.62.826 3.529-.18.93-1.033.846-2.589-.18-3.53-.989-.89-2.65-.8-3.53.18z"/><path d="m199.87 74.06h-142.67c-2.176 0-3.289 2.59-1.86 4.17l57.229 63.5v31.06c0 .99.58 1.89 1.49 2.28l26.931 11.89c1.716.75 3.51-.539 3.51-2.28v-42.95l28.5-31.62c.92-1.03.84-2.61-.19-3.53-.979-.89-2.64-.81-3.529.18l-29.141 32.33c-.41.46-.64 1.06-.64 1.68v40.07l-21.931-9.68v-30.39c0-.62-.229-1.22-.64-1.68l-54.11-60.03h131.431l-11.58 12.84c-.934 1.06-.828 2.635.189 3.53.98.89 2.641.8 3.53-.18l15.33-17.02c1.44-1.569.333-4.17-1.849-4.17z"/><path d="m55.47 59.4v-4c0-1.38-1.12-2.5-2.5-2.5s-2.5 1.12-2.5 2.5v4c0 1.38 1.12 2.5 2.5 2.5s2.5-1.12 2.5-2.5z"/><path d="m53.229 47.89c1.395.447 2.743-.328 3.16-1.58.443-1.331-.273-2.729-1.57-3.16-1.279-.43-2.739.29-3.17 1.57v.01c-.422 1.267.22 2.692 1.58 3.16z"/><path d="m152.24 236.48c1.25-.57 1.81-2.05 1.239-3.31-.55-1.21-2.08-1.8-3.3-1.24-1.225.542-1.83 2.009-1.25 3.3.569 1.276 2.082 1.808 3.311 1.25z"/><path d="m146.569 224.47c-2.42-1.851-5.128-3.166-8.008-3.923 2.937-2.797 4.779-6.735 4.779-11.107 0-8.46-6.88-15.34-15.34-15.34s-15.34 6.88-15.351 15.34c.006 4.379 1.857 8.323 4.804 11.121-9.856 2.587-16.963 11.499-16.963 22.009v7.43c0 1.38 1.119 2.5 2.5 2.5 1.38 0 2.5-1.12 2.5-2.5v-7.43c.02-9.78 8-17.76 17.779-17.78h9.46c3.94 0 7.681 1.26 10.801 3.65 1.06.82 2.689.6 3.5-.46.84-1.1.63-2.67-.461-3.51zm-18.569-25.37c5.689.01 10.33 4.65 10.35 10.34-.02 5.7-4.66 10.34-10.35 10.35-5.69-.01-10.34-4.65-10.351-10.35.011-5.69 4.661-10.33 10.351-10.34z"/><path d="m153.01 241.44c-1.38 0-2.5 1.13-2.5 2.5v6.06c0 1.38 1.12 2.5 2.5 2.5s2.5-1.12 2.5-2.5v-6.06c0-1.37-1.12-2.5-2.5-2.5z"/><path d="m188.579 29.949c2.937-2.796 4.78-6.732 4.78-11.1 0-8.46-6.88-15.35-15.34-15.35s-15.35 6.89-15.35 15.35c0 4.374 1.851 8.316 4.799 11.113-3.857 1.013-7.398 3.009-10.29 5.907-1.709 1.709-3.098 3.649-4.17 5.74-1.072-2.091-2.461-4.031-4.17-5.74-2.892-2.899-6.435-4.896-10.293-5.908 2.945-2.797 4.793-6.738 4.793-11.112 0-8.46-6.88-15.35-15.34-15.35s-15.34 6.89-15.351 15.35c.006 4.374 1.856 8.315 4.803 11.112-3.858 1.013-7.4 3.009-10.292 5.908-1.709 1.709-3.099 3.649-4.17 5.74-1.072-2.091-2.461-4.031-4.17-5.74-2.892-2.899-6.435-4.896-10.292-5.908 2.947-2.797 4.797-6.738 4.803-11.112-.01-8.459-6.89-15.349-15.35-15.349s-15.34 6.89-15.34 15.35c0 4.373 1.847 8.313 4.791 11.11-3.627.954-6.986 2.78-9.771 5.4-1.006.944-1.067 2.521-.11 3.54.91.97 2.54 1.02 3.52.12l.011-.01c3.31-3.1 7.63-4.82 12.17-4.82h9.46c9.79.02 17.76 8 17.78 17.79v7.42c0 1.38 1.119 2.5 2.5 2.5 1.38 0 2.5-1.12 2.5-2.5v-.01-7.41-.01c.02-9.78 8-17.76 17.779-17.78h9.46c9.78.02 17.761 8 17.78 17.78v7.43c0 1.38 1.12 2.5 2.5 2.5s2.5-1.12 2.5-2.5v-.01-7.42c.021-9.78 7.99-17.76 17.78-17.78h9.46c9.78.02 17.76 8 17.78 17.78v7.43c0 1.38 1.119 2.5 2.5 2.5 1.369 0 2.5-1.12 2.5-2.5 0-2.612 0-.662 0-7.43.001-10.546-7.205-19.438-16.95-22.021zm-110.6-21.449c5.7.01 10.34 4.65 10.351 10.35-.011 5.69-4.65 10.33-10.351 10.34-5.689-.01-10.33-4.65-10.35-10.34.02-5.7 4.661-10.34 10.35-10.35zm50.021 0c5.689.01 10.33 4.65 10.35 10.35-.02 5.69-4.66 10.33-10.35 10.34-5.69-.01-10.34-4.65-10.351-10.34.011-5.7 4.661-10.34 10.351-10.35zm50.02 0c5.69.01 10.33 4.65 10.351 10.35-.021 5.69-4.66 10.33-10.351 10.34-5.7-.01-10.34-4.65-10.35-10.34.01-5.7 4.649-10.34 10.35-10.35z"/></g></g></svg>