<svg id="Layer_1" enable-background="new 0 0 512.595 512.595" height="512" viewBox="0 0 512.595 512.595" width="512" xmlns="http://www.w3.org/2000/svg"><g><g><g><g><path d="m449.097 94.395c0-36.36-19.071-68.26-47.752-86.261v69.485c0 6.506-3.424 12.532-9.014 15.862l-35.566 21.189c-5.823 3.469-13.078 3.469-18.901 0l-35.566-21.19c-5.589-3.33-9.014-9.356-9.014-15.862v-69.484c-28.368 17.805-47.335 49.207-47.745 85.073-.506 44.235 27.715 82.506 67.227 96.889v215.189c0 19.08 15.468 34.547 34.548 34.547 19.081 0 34.548-15.467 34.548-34.547v-215.132c39.207-14.146 67.235-51.677 67.235-95.758z" fill="#d4d9ff"/></g></g><g><path d="m401.345 8.134v47.24c4.994 12.017 7.752 25.196 7.752 39.021 0 41.793-25.193 77.698-61.22 93.369-3.65 1.588-6.013 5.182-6.013 9.162v208.359c0 11.627-5.744 21.912-14.548 28.173 5.644 4.014 12.547 6.374 20 6.374 19.081 0 34.548-15.468 34.548-34.548v-215.13c39.206-14.146 67.234-51.677 67.234-95.759-.001-36.36-19.072-68.26-47.753-86.261z" fill="#c7cdff"/></g><g><g><g><path d="m172.86 396.66h88.589v107.792h-88.589z" fill="#fff5b5"/><path d="m221.449 396.66h40v107.792h-40z" fill="#ffef8f"/><path d="m350.038 261.726h88.589v242.726h-88.589z" fill="#a6f5cf"/><path d="m398.627 261.726h40v242.726h-40z" fill="#8aedbd"/><path d="m261.449 331.656h88.589v172.796h-88.589z" fill="#ff8ccc"/><path d="m310.038 331.656h40v172.796h-40z" fill="#ff78c2"/></g></g></g><g><g><g><path d="m126.863 470.04h51.257c9.414 0 17.046-7.632 17.046-17.046 0-9.414-7.632-17.046-17.046-17.046h-51.257c-9.414 0-17.046 7.632-17.046 17.046 0 9.414 7.632 17.046 17.046 17.046z" fill="#7776d0"/><path d="m178.12 435.947h-40c9.414 0 17.046 7.632 17.046 17.046 0 9.414-7.632 17.046-17.046 17.046h40c9.414 0 17.046-7.632 17.046-17.046 0-9.414-7.632-17.046-17.046-17.046z" fill="#6967bf"/><path d="m126.863 504.128h51.257c9.414 0 17.046-7.632 17.046-17.046 0-9.414-7.632-17.046-17.046-17.046h-51.257c-9.414 0-17.046 7.632-17.046 17.046 0 9.414 7.632 17.046 17.046 17.046z" fill="#d4d9ff"/><path d="m178.12 470.035h-40c9.414 0 17.046 7.632 17.046 17.046 0 9.415-7.632 17.047-17.046 17.047h40c9.414 0 17.046-7.632 17.046-17.047 0-9.414-7.632-17.046-17.046-17.046z" fill="#c7cdff"/></g><g><path d="m32.009 274.507c0-67.532 55.565-122.086 123.472-120.442 63.117 1.528 114.862 52.404 117.394 115.486 1.324 32.993-10.644 63.169-30.967 85.657-7.194 7.96-11.061 18.355-10.7 29.085 0 28.521-23.122 51.642-51.644 51.642h-54.146c-28.522 0-51.644-23.121-51.644-51.642.238-10.484-3.248-20.906-10.363-28.715-19.5-21.399-31.402-49.838-31.402-81.071z" fill="#ffd54d"/><path d="m272.875 269.552c-2.532-63.082-54.277-113.958-117.394-115.486-7.865-.19-15.565.374-23.032 1.624 55.184 9.293 98.125 56.538 100.426 113.863 1.324 32.993-10.644 63.169-30.967 85.657-7.194 7.96-11.061 18.355-10.7 29.085 0 28.521-23.122 51.642-51.644 51.642h40c28.522 0 51.644-23.121 51.644-51.642-.361-10.73 3.506-21.125 10.7-29.085 20.323-22.489 32.291-52.665 30.967-85.658z" fill="#ffc919"/></g></g></g></g><g><path d="m438.627 254.226h-49.264v-58.944c40.428-16.863 67.233-56.751 67.233-100.888 0-37.845-19.164-72.467-51.265-92.613-5.196-3.261-11.487.995-11.487 6.353v69.485c0 3.843-2.051 7.451-5.353 9.418l-35.565 21.188c-3.462 2.062-7.762 2.063-11.224 0l-35.566-21.188c-3.302-1.967-5.353-5.576-5.353-9.418v-69.485c0-5.356-6.291-9.615-11.487-6.353-31.669 19.876-50.83 54.022-51.257 91.34-.51 44.548 26.301 84.922 67.227 102.091v128.944h-34.778c7.223-17.132 10.648-35.795 9.881-54.905-2.696-67.166-57.474-121.056-124.707-122.684-25.433-.615-50.159 6.21-71.532 19.74-8.194 5.185-.169 17.866 8.022 12.674 18.861-11.939 40.697-17.966 63.146-17.418 59.348 1.437 107.702 49.003 110.082 108.289 1.194 29.758-9.118 58.285-29.037 80.328-8.541 9.45-13.025 21.602-12.635 34.229-.063 24.287-19.841 44.026-44.144 44.026h-19.573v-109.816h29.534c4.142 0 7.5-3.357 7.5-7.5s-3.358-7.5-7.5-7.5h-74.068c-4.142 0-7.5 3.357-7.5 7.5s3.358 7.5 7.5 7.5h29.534v109.816h-19.573c-24.316 0-44.103-19.759-44.144-44.064.269-12.812-4.104-24.827-12.32-33.844-18.989-20.838-29.446-47.836-29.446-76.021 0-26.043 8.612-50.512 24.904-70.762 6.079-7.555-5.611-16.96-11.687-9.402-18.196 22.616-28.217 51.086-28.217 80.164 0 31.931 11.847 62.517 33.359 86.123 5.626 6.176 8.613 14.52 8.409 23.494-.001.057-.002.113-.002.17 0 25.795 16.601 47.786 39.681 55.852-5.748 9.32-4.329 22.037 3.26 29.892-14.623 15.136-3.436 41.915 17.648 41.915h311.764c4.143 0 7.5-3.357 7.5-7.5v-242.726c0-4.142-3.357-7.5-7.5-7.5zm-123.295-71.178c-37.717-13.729-62.751-49.799-62.293-89.755.313-27.394 12.332-52.809 32.745-70.345v54.671c0 9.1 4.856 17.646 12.675 22.305l35.565 21.188c8.199 4.887 18.383 4.884 26.58.001l35.565-21.188c7.818-4.658 12.675-13.204 12.675-22.305v-54.679c20.724 17.782 32.752 43.607 32.752 71.453 0 39.615-25.028 75.263-62.279 88.704-2.973 1.072-4.954 3.895-4.954 7.055v64.073h-24.325c-4.143 0-7.5 3.357-7.5 7.5v62.43h-22.271v-134.06c0-3.154-1.972-5.969-4.935-7.048zm-67.859 177.189c2.27-2.512 4.429-5.098 6.477-7.752v36.675h-15.44c.89-10.876 1.034-20.149 8.963-28.923zm-12.197 43.923h18.674v92.792h-53.356c3.916-8.882 1.922-19.93-4.826-26.915 7.584-7.85 9.001-20.585 3.26-29.892 16.847-5.887 30.242-19.194 36.248-35.985zm-57.156 58.375h-51.257c-12.269 0-12.323-19.088 0-19.088h51.257c12.323 0 12.269 19.088 0 19.088zm-60.803 24.547c0-5.22 4.336-9.542 9.546-9.542h51.257c12.268 0 12.323 19.088 0 19.088h-51.257c-5.263 0-9.546-4.282-9.546-9.546zm313.81 9.87h-73.589v-32.581c0-9.697-15-9.697-15 0v32.581h-73.589v-157.796h73.589v85.261c0 9.697 15 9.697 15 0v-155.19h73.589z"/><path d="m152.492 135.555c9.652 0 9.668-15 0-15-9.652 0-9.668 15 0 15z"/><path d="m24.616 340.937c-9.652 0-9.668 15 0 15 9.652 0 9.667-15 0-15z"/><path d="m7.245 292.892c-9.652 0-9.668 15 0 15 9.652 0 9.668-15 0-15z"/><path d="m7.355 241.803c-9.652 0-9.668 15 0 15 9.651 0 9.667-15 0-15z"/><path d="m24.932 208.833c9.652 0 9.668-15 0-15-9.652 0-9.668 15 0 15z"/><path d="m57.857 169.767c9.652 0 9.668-15 0-15-9.652 0-9.668 15 0 15z"/><path d="m100.538 144.915c9.652 0 9.668-15 0-15-9.652 0-9.668 15 0 15z"/><path d="m205.893 144.915c9.652 0 9.668-15 0-15-9.652 0-9.668 15 0 15z"/><circle cx="479.26" cy="504.452" r="7.5"/><circle cx="479.26" cy="424.452" r="7.5"/><circle cx="479.26" cy="464.452" r="7.5"/><circle cx="479.26" cy="384.452" r="7.5"/><path d="m510.248 185.555-25.802-24.577c-2.859-2.737-7.519-2.737-10.377 0l-25.802 24.577c-7.022 6.688 3.324 17.55 10.346 10.861l13.146-12.521v158.592c0 4.143 3.357 7.5 7.5 7.5s7.5-3.357 7.5-7.5v-158.591l13.146 12.521c6.983 6.652 17.388-4.151 10.343-10.862z"/></g></g></svg>