<svg id="Layer_5" enable-background="new 0 0 62 62" height="512" viewBox="0 0 62 62" width="512" xmlns="http://www.w3.org/2000/svg"><g><g><g><path d="m22 53h12v4h-12z" fill="#aab2bd"/></g><g><path d="m44 58v2c0 .55-.45 1-1 1h-30c-.55 0-1-.45-1-1v-2c0-.55.45-1 1-1h9 12 9c.55 0 1 .45 1 1z" fill="#969faa"/></g><g><path d="m5 15h50v30h-54v-26c0-2.209 1.791-4 4-4z" fill="#69d6f4"/></g><g><path d="m55 45v4c0 2.21-1.79 4-4 4h-17-12-17c-2.21 0-4-1.79-4-4v-4h10 31z" fill="#ccd1d9"/></g><g><path d="m23 1 5 8h-3v6 4.35c-1.43.33-2.78.91-3.98 1.68l-.02-.03v-6-6h-3z" fill="#ffeaa7"/></g><g><path d="m14 11-2.5 4-2.5 4-2.5-4-2.5-4h3v-11h4v11z" fill="#ffeaa7"/></g><g><path d="m15.57 28.17c.92-2.98 2.87-5.5 5.45-7.14 1.2-.77 2.55-1.35 3.98-1.68.96-.23 1.97-.35 3-.35 5.49 0 10.17 3.4 12.08 8.21.62-.13 1.26-.21 1.92-.21 4.97 0 9 4.03 9 9s-4.03 9-9 9h-31c-3.31 0-6-2.69-6-6s2.69-6 6-6h.08c.24-1.42.98-2.67 2.03-3.56.7-.6 1.54-1.04 2.46-1.26z" fill="#e6e9ed"/></g><g><path d="m61 11v4l-1.27.42c-.68.23-1.22.74-1.49 1.4 0 .01-.01.02-.01.02-.27.66-.25 1.4.07 2.03l.6 1.2-2.83 2.83-.82-.41-.38-.19c-.63-.32-1.37-.34-2.03-.07 0 0-.01.01-.02.01-.66.27-1.17.81-1.4 1.49l-.42 1.27h-4l-.42-1.27c-.23-.68-.74-1.22-1.4-1.49-.01 0-.02-.01-.02-.01-.66-.27-1.4-.25-2.03.07l-1.2.6-2.83-2.83.6-1.2c.32-.63.34-1.37.07-2.03 0 0-.01-.01-.01-.02-.27-.66-.81-1.17-1.49-1.4l-1.27-.42v-4l1.27-.42c.68-.23 1.22-.74 1.49-1.4 0-.01.01-.02.01-.02.27-.66.25-1.4-.07-2.03l-.6-1.2 2.83-2.83 1.2.6c.63.32 1.37.34 2.03.07 0 0 .01-.01.02-.01.66-.27 1.17-.81 1.4-1.49l.42-1.27h4l.42 1.27c.23.68.74 1.22 1.4 1.49.01 0 .02.01.02.01.66.27 1.4.25 2.03-.07l1.2-.6 2.83 2.83-.6 1.2c-.32.63-.34 1.37-.07 2.03 0 0 .01.01.01.02.27.66.81 1.17 1.49 1.4z" fill="#ef7385"/></g><g><circle cx="36" cy="39" fill="#ef7385" r="2"/></g><g><circle cx="28" cy="39" fill="#ef7385" r="2"/></g><g><circle cx="20" cy="39" fill="#ef7385" r="2"/></g></g><g><circle cx="24" cy="49" r="1"/><circle cx="28" cy="49" r="1"/><circle cx="32" cy="49" r="1"/><path d="m28 24c3.385 0 6.417 2.144 7.546 5.333l1.885-.667c-1.41-3.987-5.201-6.666-9.431-6.666-1.561 0-3.056.35-4.445 1.04l.891 1.791c1.109-.551 2.305-.831 3.554-.831z"/><path d="m22.667 26.038-1.334-1.491c-.626.561-1.181 1.199-1.648 1.897l1.662 1.112c.374-.559.818-1.07 1.32-1.518z"/><path d="m48 36c0-3.309-2.691-6-6-6v2c2.206 0 4 1.794 4 4s-1.794 4-4 4v2c3.309 0 6-2.691 6-6z"/><path d="m20 36c-1.654 0-3 1.346-3 3s1.346 3 3 3 3-1.346 3-3-1.346-3-3-3zm0 4c-.552 0-1-.449-1-1s.448-1 1-1 1 .449 1 1-.448 1-1 1z"/><path d="m28 36c-1.654 0-3 1.346-3 3s1.346 3 3 3 3-1.346 3-3-1.346-3-3-3zm0 4c-.552 0-1-.449-1-1s.448-1 1-1 1 .449 1 1-.448 1-1 1z"/><path d="m33 39c0 1.654 1.346 3 3 3s3-1.346 3-3-1.346-3-3-3-3 1.346-3 3zm4 0c0 .551-.448 1-1 1s-1-.449-1-1 .448-1 1-1 1 .449 1 1z"/><path d="m60.042 16.374 1.958-.653v-5.441l-1.958-.653c-.396-.132-.717-.434-.887-.85-.162-.391-.147-.828.038-1.199l.923-1.847-3.848-3.847-1.846.923c-.372.186-.81.201-1.221.03-.395-.162-.696-.482-.829-.878l-.651-1.959h-5.441l-.652 1.958c-.133.396-.435.717-.85.887-.389.161-.828.149-1.2-.039l-1.846-.923-3.848 3.847.923 1.847c.186.371.2.808.03 1.221-.162.394-.482.695-.879.828l-1.958.653v3.721h-10v-4h2c.363 0 .698-.197.875-.515.176-.318.166-.707-.027-1.015l-5-8c-.365-.585-1.33-.585-1.695 0l-5 8c-.193.308-.203.697-.027 1.015s.511.515.874.515h2v4h-6.696l1.544-2.47c.193-.308.203-.697.027-1.015-.177-.318-.512-.515-.875-.515h-2v-8h-2v9c0 .552.447 1 1 1h1.195l-3.195 5.113-3.195-5.113h1.195c.553 0 1-.448 1-1v-11h-2v10h-2c-.363 0-.698.197-.875.515-.176.318-.166.707.027 1.015l1.562 2.499c-2.621.151-4.714 2.312-4.714 4.971v30c0 2.757 2.243 5 5 5h16v2h-8c-1.103 0-2 .897-2 2v2c0 1.103.897 2 2 2h30c1.103 0 2-.897 2-2v-2c0-1.103-.897-2-2-2h-8v-2h16c2.757 0 5-2.243 5-5v-23h-2v18h-6.026c2.438-1.825 4.026-4.727 4.026-8 0-5.514-4.486-10-10-10-.436 0-.876.03-1.317.089-2.294-4.94-7.187-8.089-12.683-8.089-.678 0-1.345.056-2 .149v-2.149h10.838l1.12.374c.396.132.717.434.887.85.162.391.147.828-.038 1.199l-.923 1.847 3.848 3.847 1.846-.923c.372-.186.81-.201 1.221-.03.395.162.696.482.829.878l.651 1.958h5.441l.652-1.958c.133-.396.435-.717.851-.888.39-.161.827-.147 1.199.039l1.846.923 3.848-3.847-.923-1.847c-.186-.371-.2-.808-.03-1.221.162-.393.483-.695.879-.827zm-17.041 43.626h-30.001v-2h30zm-10.001-4h-10v-2h10zm21-10v3c0 1.654-1.346 3-3 3h-46c-1.654 0-3-1.346-3-3v-3zm-14.853-18.42.313.789.829-.181c.573-.125 1.149-.188 1.711-.188 4.411 0 8 3.589 8 8s-3.589 8-8 8h-31c-2.757 0-5-2.243-5-5s2.242-5 5.064-5h.001l.861.015.143-.85c.405-2.413 2.479-4.165 4.931-4.165 2.116 0 4.011 1.339 4.715 3.333l1.887-.666c-.976-2.762-3.585-4.621-6.51-4.66 1.93-4.244 6.134-7.007 10.908-7.007 4.945 0 9.32 2.975 11.147 7.58zm-24.346-.225c-2.163.71-3.874 2.439-4.523 4.682-3.522.362-6.278 3.347-6.278 6.963 0 1.958.81 3.728 2.111 5h-4.111v-25c0-1.654 1.346-3 3-3h.946l2.206 3.53c.183.292.503.47.848.47s.665-.178.848-.47l2.206-3.53h7.946v2h2v-9c0-.552-.447-1-1-1h-1.195l3.195-5.113 3.195 5.113h-1.195c-.553 0-1 .448-1 1v9.585c-4.242 1.25-7.685 4.451-9.199 8.77zm42.505-10.895c-.382.927-.346 1.968.099 2.856l.278.557-1.809 1.809-.557-.278c-.89-.445-1.933-.479-2.875-.091-.934.383-1.65 1.147-1.966 2.096l-.197.591h-2.559l-.197-.591c-.315-.949-1.032-1.713-1.983-2.104-.928-.383-1.967-.347-2.857.099l-.557.278-1.809-1.809.278-.557c.444-.889.48-1.93.091-2.875-.382-.933-1.146-1.65-2.096-1.966l-.59-.196v-2.559l.591-.197c.949-.316 1.714-1.033 2.104-1.984.382-.927.346-1.968-.099-2.856l-.278-.557 1.809-1.809.557.278c.89.444 1.931.48 2.875.091.934-.383 1.65-1.147 1.966-2.096l.196-.59h2.559l.197.591c.315.949 1.032 1.713 1.984 2.104.927.38 1.967.345 2.856-.099l.557-.278 1.809 1.809-.278.557c-.444.889-.48 1.93-.091 2.875.382.933 1.146 1.65 2.096 1.966l.59.196v2.559l-.591.197c-.949.315-1.714 1.032-2.103 1.983z"/><path d="m45 16.586-1.293-1.293-1.414 1.414 2.707 2.707 10.707-10.707-1.414-1.414z"/></g></g></svg>