<svg height="512" viewBox="0 0 60 60" width="512" xmlns="http://www.w3.org/2000/svg"><g id="Page-1" fill="none" fill-rule="evenodd"><g id="073---SEO-Rankings" fill-rule="nonzero"><path id="Shape" d="m59 4v9h-58v-9c0-1.65685425 1.34314575-3 3-3h52c1.6568542 0 3 1.34314575 3 3z" fill="#02a9f4"/><path id="Shape" d="m56 1h-3c1.6568542 0 3 1.34314575 3 3v9h3v-9c0-1.65685425-1.3431458-3-3-3z" fill="#0377bc"/><path id="Shape" d="m59 13v43c0 1.6568542-1.3431458 3-3 3h-52c-1.65685425 0-3-1.3431458-3-3v-43z" fill="#f5f5f5"/><path id="Shape" d="m56 13v43c0 1.6568542-1.3431458 3-3 3h3c1.6568542 0 3-1.3431458 3-3v-43z" fill="#cfd8dc"/><circle id="Oval" cx="7" cy="7" fill="#e91e63" r="2"/><circle id="Oval" cx="15" cy="7" fill="#ffdc00" r="2"/><circle id="Oval" cx="23" cy="7" fill="#a4c400" r="2"/><rect id="Rectangle-path" fill="#3f51b5" height="4" rx="2" width="14" x="41" y="5"/><rect id="Rectangle-path" fill="#ffdc00" height="16" rx="4" width="50" x="5" y="39"/><path id="Shape" d="m51 39h-3c2.209139 0 4 1.790861 4 4v8c0 2.209139-1.790861 4-4 4h3c2.209139 0 4-1.790861 4-4v-8c0-2.209139-1.790861-4-4-4z" fill="#fec108"/><path id="Shape" d="m26 18h8c.5522847 0 1 .4477153 1 1v20h-10v-20c0-.5522847.4477153-1 1-1z" fill="#9d27b0"/><path id="Shape" d="m34 18h-3c.5522847 0 1 .4477153 1 1v20h3v-20c0-.5522847-.4477153-1-1-1z" fill="#6a1b9a"/><path id="Shape" d="m11 23h8c.5522847 0 1 .4477153 1 1v15h-10v-15c0-.5522847.4477153-1 1-1z" fill="#e91e63"/><path id="Shape" d="m19 23h-3c.5522847 0 1 .4477153 1 1v15h3v-15c0-.5522847-.4477153-1-1-1z" fill="#ad1457"/><path id="Shape" d="m41 21h8c.5522847 0 1 .4477153 1 1v17h-10v-17c0-.5522847.4477153-1 1-1z" fill="#e91e63"/><path id="Shape" d="m49 21h-3c.5522847 0 1 .4477153 1 1v17h3v-17c0-.5522847-.4477153-1-1-1z" fill="#ad1457"/><g fill="#000"><path id="Shape" d="m56 0h-52c-2.209139 0-4 1.790861-4 4v52c0 2.209139 1.790861 4 4 4h52c2.209139 0 4-1.790861 4-4v-52c0-2.209139-1.790861-4-4-4zm-52 2h52c1.1045695 0 2 .8954305 2 2v8h-56v-8c0-1.1045695.8954305-2 2-2zm52 56h-52c-1.1045695 0-2-.8954305-2-2v-42h56v42c0 1.1045695-.8954305 2-2 2z"/><path id="Shape" d="m7 10c1.65685425 0 3-1.34314575 3-3s-1.34314575-3-3-3-3 1.34314575-3 3 1.34314575 3 3 3zm0-4c.55228475 0 1 .44771525 1 1s-.44771525 1-1 1-1-.44771525-1-1 .44771525-1 1-1z"/><path id="Shape" d="m15 10c1.6568542 0 3-1.34314575 3-3s-1.3431458-3-3-3-3 1.34314575-3 3 1.3431458 3 3 3zm0-4c.5522847 0 1 .44771525 1 1s-.4477153 1-1 1-1-.44771525-1-1 .4477153-1 1-1z"/><path id="Shape" d="m23 10c1.6568542 0 3-1.34314575 3-3s-1.3431458-3-3-3-3 1.34314575-3 3 1.3431458 3 3 3zm0-4c.5522847 0 1 .44771525 1 1s-.4477153 1-1 1-1-.44771525-1-1 .4477153-1 1-1z"/><path id="Shape" d="m43 10h10c1.6568542-.00000002 3-1.34314577 3-3s-1.3431458-2.99999998-3-3h-10c-1.6568542.00000002-3 1.34314577-3 3s1.3431458 2.99999998 3 3zm0-4h10c.5522847 0 1 .44771525 1 1s-.4477153 1-1 1h-10c-.5522847 0-1-.44771525-1-1s.4477153-1 1-1z"/><path id="Shape" d="m22 46c-.4851707-.000473-.9000069-.3491365-.9839455-.8269912-.0839386-.4778548.1872399-.9470217.6432053-1.1128119.4559653-.1657902.9651545.0196329 1.2077402.4398031.2843876.4596821.882589.61017 1.3506397.3397768s.6365131-.8637835.3803603-1.3397768c-.7279453-1.2608382-2.2560751-1.8170246-3.6241605-1.3190692-1.3680854.4979555-2.1811672 1.9062958-1.9283301 3.3400638.252837 1.433768 1.4986001 2.4790424 2.9544906 2.4790054.4851707.000473.9000069.3491365.9839455.8269912.0839386.4778548-.1872399.9470217-.6432053 1.1128119-.4559653.1657902-.9651545-.0196329-1.2077402-.4398031-.2843876-.4596821-.882589-.61017-1.3506397-.3397768s-.6365131.8637835-.3803603 1.3397768c.7279453 1.2608382 2.2560751 1.8170246 3.6241605 1.3190692 1.3680854-.4979555 2.1811672-1.9062958 1.9283301-3.3400638-.252837-1.433768-1.4986001-2.4790424-2.9544906-2.4790054z"/><path id="Shape" d="m32 44c.5522847 0 1-.4477153 1-1s-.4477153-1-1-1h-3c-1.1045695 0-2 .8954305-2 2v6c0 1.1045695.8954305 2 2 2h3c.5522847 0 1-.4477153 1-1s-.4477153-1-1-1h-3v-2h1c.5522847 0 1-.4477153 1-1s-.4477153-1-1-1h-1v-2z"/><path id="Shape" d="m38 42c-1.6568542 0-3 1.3431458-3 3v4c0 1.6568542 1.3431458 3 3 3s3-1.3431458 3-3v-4c0-1.6568542-1.3431458-3-3-3zm1 7c0 .5522847-.4477153 1-1 1s-1-.4477153-1-1v-4c0-.5522847.4477153-1 1-1s1 .4477153 1 1z"/><path id="Shape" d="m51 38v-16c0-1.1045695-.8954305-2-2-2h-8c-1.1045695 0-2 .8954305-2 2v16h-3v-19c0-1.1045695-.8954305-2-2-2h-8c-1.1045695 0-2 .8954305-2 2v19h-3v-14c0-1.1045695-.8954305-2-2-2h-8c-1.1045695 0-2 .8954305-2 2v14c-2.76005315.0033061-4.99669388 2.2399468-5 5v8c.00330612 2.7600532 2.23994685 4.9966939 5 5h42c2.7600532-.0033061 4.9966939-2.2399468 5-5v-8c-.0033061-2.7600532-2.2399468-4.9966939-5-5zm-10-16h8v16h-8zm-15-3h8v19h-8zm-15 5h8v14h-8zm43 27c0 1.6568542-1.3431458 3-3 3h-42c-1.65685425 0-3-1.3431458-3-3v-8c0-1.6568542 1.34314575-3 3-3h42c1.6568542 0 3 1.3431458 3 3z"/><path id="Shape" d="m14 26c-.5522847 0-1 .4477153-1 1v6c0 .5522847.4477153 1 1 1s1-.4477153 1-1v-6c0-.5522847-.4477153-1-1-1z"/><path id="Shape" d="m29 21c-.5522847 0-1 .4477153-1 1v6c0 .5522847.4477153 1 1 1s1-.4477153 1-1v-6c0-.5522847-.4477153-1-1-1z"/><path id="Shape" d="m44 24c-.5522847 0-1 .4477153-1 1v6c0 .5522847.4477153 1 1 1s1-.4477153 1-1v-6c0-.5522847-.4477153-1-1-1z"/></g></g></g></svg>