<svg id="filled_outline" height="512" viewBox="0 0 512 512" width="512" xmlns="http://www.w3.org/2000/svg" data-name="filled outline"><path d="m144 280h-88v-64h-32v-24a24.00619 24.00619 0 0 1 24-24h96z" fill="#ffb401"/><path d="m56 280h88v176h-88z" fill="#718799"/><path d="m177.592 140.146-85.269 152.087-27.912-15.649 84.897-151.424z" fill="#c47220"/><path d="m112 448 32-16 40 24v16h-72z" fill="#c5dafa"/><path d="m352 224h-136a16 16 0 0 1 -16-16v-96a16 16 0 0 1 16-16h136z" fill="#a6cfff"/><path d="m352 96h120a16 16 0 0 1 16 16v96a16 16 0 0 1 -16 16h-120z" fill="#548aff"/><circle cx="432" cy="152" fill="#8be0e8" r="24"/><path d="m112 144v36a12 12 0 1 1 -24 0v-36z" fill="#ffceb6"/><path d="m120 136h-24l-8 8v8a16 16 0 0 0 16 16 16 16 0 0 0 16-16z" fill="#ffceb6"/><path d="m88 144v-16a16 16 0 0 1 16-16h12.6863a11.31369 11.31369 0 0 1 11.3137 11.3137 11.31372 11.31372 0 0 1 -3.31371 8l-4.68629 4.6863h-24z" fill="#c47220"/><path d="m96 432 32 24v16h-72v-24z" fill="#e0edff"/><path d="m56 216v8h72l14.34315-14.34315a5.65684 5.65684 0 0 1 4-1.65685 5.65685 5.65685 0 0 1 5.65685 5.65685v10.34315h24v16a16 16 0 0 1 -16 16h-112a24 24 0 0 1 -24-24v-16.00006z" fill="#ffceb6"/><circle cx="184" cy="96" fill="#8be0e8" r="56"/><path d="m208 160h-8l-14.34315-14.34315a5.65684 5.65684 0 0 0 -4-1.65685 5.65685 5.65685 0 0 0 -5.65685 5.65685v10.34315h-24v16a16 16 0 0 0 16 16h24a16 16 0 0 0 16-16z" fill="#ffceb6"/><path d="m168 200h24a24.0275 24.0275 0 0 0 24-24v-16a7.99 7.99 0 0 0 -3.58887-6.67114 63.99262 63.99262 0 1 0 -92.41113-57.32886 63.32378 63.32378 0 0 0 .56494 8.3916 19.33726 19.33726 0 0 0 -3.87842-.3916h-12.68652a24.0275 24.0275 0 0 0 -24 24v32h-32a32.03667 32.03667 0 0 0 -32 32v40a32.03667 32.03667 0 0 0 32 32v208a8.00039 8.00039 0 0 0 8 8h128a8.00039 8.00039 0 0 0 8-8v-16a8.00153 8.00153 0 0 0 -3.88379-6.86035l-36.11621-21.66992v-163.46973h8a24.0275 24.0275 0 0 0 24-24v-16a8.00039 8.00039 0 0 0 -8-8h-16v-2.34277a13.6609 13.6609 0 0 0 -7.59863-12.22144l2.86352-5.10767a23.84818 23.84818 0 0 0 12.73511 3.67188zm-40.56934 13.25586-2.74414 2.74414h-17.13672l38.447-68.5752a64.02914 64.02914 0 0 0 7.0752 4.5752h-1.072a8.00039 8.00039 0 0 0 -8 8v16a23.93621 23.93621 0 0 0 .8252 6.23047zm-31.43066-38.63208a23.88238 23.88238 0 0 0 8 1.37622v4a4 4 0 0 1 -8 0zm104 1.37622a8.00917 8.00917 0 0 1 -8 8h-24a8.00917 8.00917 0 0 1 -8-8v-8h16a8.00039 8.00039 0 0 0 8-8v-4.68652l10.34277 10.34375a8.00235 8.00235 0 0 0 5.65723 2.34277zm-16-128a47.99892 47.99892 0 0 1 10.21313 94.89893l-2.89868-2.89893a13.65122 13.65122 0 0 0 -20.9729 2.019 48.0019 48.0019 0 0 1 13.65845-94.019zm-49.90112 87.928-6.09888 10.87815v-7.4917l2.34375-2.34375a19.53082 19.53082 0 0 0 2.35913-2.8623c.45654.61352.91821 1.2229 1.396 1.8196zm-30.09888-15.928h12.68652a3.31318 3.31318 0 0 1 2.34278 5.65625l-2.34375 2.34375h-20.68555a8.00917 8.00917 0 0 1 8-8zm-8 27.31348 3.31348-3.31348h12.68652v8a8 8 0 0 1 -16 0zm-48 28.68652h32v4a20.01871 20.01871 0 0 0 18.22681 19.91016l-9.02076 16.08984h-25.20605v-16h-16v8h-16v-16a16.01833 16.01833 0 0 1 16-16zm88 251.05566-19.95532 9.97754-11.77368-8.83008 7.71142-115.67089-15.96484-1.06446-7.665 114.9751-24.35258 9.74121v-150.65869l24.41113 13.68652a7.99969 7.99969 0 0 0 10.89063-3.0664l4.56689-8.14551h32.13135zm-46.74219-145.71289-13.95605-7.82422 5.33618-9.51855h18.34306zm-25.25781 182.65723v-10.584l30.79688-12.31836 25.20312 18.90236v4zm112 0h-40v-8a8.0009 8.0009 0 0 0 -3.2002-6.40039l-2.44433-1.833 13.29394-6.64746 32.35059 19.41015zm-40-192h-23.16089l4.48511-8h18.67578zm32-40v8a8.00917 8.00917 0 0 1 -8 8h-112a16.01833 16.01833 0 0 1 -16-16v-8h16a8.00039 8.00039 0 0 0 8 8h72a8.00235 8.00235 0 0 0 5.65723-2.34277l10.34277-10.34375v4.68652a8.00039 8.00039 0 0 0 8 8z"/><path d="m472 88h-208v16h80v112h-144v16h272a24.0275 24.0275 0 0 0 24-24v-96a24.0275 24.0275 0 0 0 -24-24zm8 120a8.00917 8.00917 0 0 1 -8 8h-112v-112h112a8.00917 8.00917 0 0 1 8 8z"/><path d="m432 120a31.978 31.978 0 0 0 -27.55566 48.24121l-26.10157 26.10156 11.31446 11.31446 26.10156-26.10157a31.994 31.994 0 1 0 16.24121-59.55566zm0 48a16 16 0 1 1 16-16 16.01833 16.01833 0 0 1 -16 16z"/><path d="m232 184h16v16h-16z"/><path d="m264 184h16v16h-16z"/><path d="m296 144h16v56h-16z"/></svg>