<svg fill="#3979F8" viewBox="0 0 128 128" xmlns="http://www.w3.org/2000/svg"><g><path d="m121.5 4.75h-115a1.751 1.751 0 0 0 -1.75 1.75v97.31a1.751 1.751 0 0 0 1.75 1.75h13.513l-7.02 7.021a6.256 6.256 0 0 0 0 8.838 6.258 6.258 0 0 0 8.839 0l15.859-15.859h83.809a1.751 1.751 0 0 0 1.75-1.75v-97.31a1.751 1.751 0 0 0 -1.75-1.75zm-113.25 3.5h111.5v14.192h-111.5zm11.107 110.7a2.751 2.751 0 0 1 -3.89-3.89l10-10 .021-.021 9.766-9.766 3.89 3.889zm21.834-16.89 1.663-1.664a1.748 1.748 0 0 0 0-2.474l-1.941-1.942 4.253-4.259a21.653 21.653 0 1 0 -2.475-2.475l-4.253 4.259-1.947-1.947a1.749 1.749 0 0 0 -2.475 0l-10.5 10.5h-15.266v-76.116h111.5v76.118zm5.149-13.988a18.154 18.154 0 1 1 25.674 0 18.175 18.175 0 0 1 -25.674 0z"></path><path d="m106.005 10.6a4.75 4.75 0 1 0 4.75 4.75 4.756 4.756 0 0 0 -4.75-4.75zm0 6a1.25 1.25 0 1 1 1.25-1.25 1.251 1.251 0 0 1 -1.25 1.25z"></path><path d="m91.262 10.6a4.75 4.75 0 1 0 4.75 4.75 4.756 4.756 0 0 0 -4.75-4.75zm0 6a1.25 1.25 0 1 1 1.25-1.25 1.25 1.25 0 0 1 -1.25 1.25z"></path><path d="m76.518 10.6a4.75 4.75 0 1 0 4.75 4.75 4.756 4.756 0 0 0 -4.75-4.75zm0 6a1.25 1.25 0 1 1 1.25-1.25 1.251 1.251 0 0 1 -1.25 1.25z"></path><path d="m103.808 32.93h-79.616a1.75 1.75 0 0 0 -1.75 1.75v9a1.751 1.751 0 0 0 1.75 1.75h79.616a1.751 1.751 0 0 0 1.75-1.75v-9a1.75 1.75 0 0 0 -1.75-1.75zm-1.75 9h-76.116v-5.5h76.116z"></path><path d="m71.246 76.62a1.75 1.75 0 0 0 1.541 1.937 1.911 1.911 0 0 0 .2.011 1.749 1.749 0 0 0 1.737-1.552 15.7 15.7 0 0 0 -1.329-8.332 1.75 1.75 0 1 0 -3.18 1.462 12.2 12.2 0 0 1 1.031 6.474z"></path></g></svg>