<svg height="512" viewBox="0 0 512 512" width="512" xmlns="http://www.w3.org/2000/svg"><g><g><path d="m496 64v332a19.994 19.994 0 0 1 -20 20h-440a19.994 19.994 0 0 1 -20-20v-332z" fill="#d8d7da"/><path d="m496 36v28h-480v-28a19.994 19.994 0 0 1 20-20h440a19.994 19.994 0 0 1 20 20z" fill="#ff9811"/><path d="m440 160v16h-64v-16l8-16h48z" fill="#d8d7da"/><path d="m432 144h-48l24-48z" fill="#3e3d42"/><path d="m376 176h64v248h-64z" fill="#d80027"/><path d="m376 448h64v16a32 32 0 0 1 -64 0z" fill="#d8d7da"/><g fill="#ffda44"><path d="m376 424h64v24h-64z"/><path d="m64 96h208v144h-208z"/></g></g><g><path d="m476 8h-440a28.031 28.031 0 0 0 -28 28v360a28.031 28.031 0 0 0 28 28h332v40a40 40 0 0 0 80 0v-40h28a28.031 28.031 0 0 0 28-28v-360a28.031 28.031 0 0 0 -28-28zm-44 456a24 24 0 0 1 -48 0v-8h48zm0-24h-48v-8h48zm0-24h-48v-232h48zm0-248h-48v-6.11l4.94-9.89h38.12l4.94 9.89zm-35.06-32 11.06-22.11 11.06 22.11zm91.06 260a12.01 12.01 0 0 1 -12 12h-28v-248a8.081 8.081 0 0 0 -.84-3.58l-32-64a8.009 8.009 0 0 0 -14.32 0l-32 64a8.081 8.081 0 0 0 -.84 3.58v248h-332a12.01 12.01 0 0 1 -12-12v-324h464zm0-340h-464v-20a12.01 12.01 0 0 1 12-12h440a12.01 12.01 0 0 1 12 12z"/><path d="m48 48h8a8 8 0 0 0 0-16h-8a8 8 0 0 0 0 16z"/><path d="m80 48h8a8 8 0 0 0 0-16h-8a8 8 0 0 0 0 16z"/><path d="m112 48h8a8 8 0 0 0 0-16h-8a8 8 0 0 0 0 16z"/><path d="m408 192a8 8 0 0 0 -8 8v200a8 8 0 0 0 16 0v-200a8 8 0 0 0 -8-8z"/><path d="m272 264h-208a8 8 0 0 0 0 16h208a8 8 0 0 0 0-16z"/><path d="m272 296h-208a8 8 0 0 0 0 16h208a8 8 0 0 0 0-16z"/><path d="m272 328h-208a8 8 0 0 0 0 16h208a8 8 0 0 0 0-16z"/><path d="m208 360h-144a8 8 0 0 0 0 16h144a8 8 0 0 0 0-16z"/><path d="m272 88h-208a8 8 0 0 0 -8 8v144a8 8 0 0 0 8 8h208a8 8 0 0 0 8-8v-144a8 8 0 0 0 -8-8zm-8 144h-192v-128h192z"/></g></g></svg>