<?xml version="1.0" encoding="iso-8859-1"?>
<!-- Generator: Adobe Illustrator 19.0.0, SVG Export Plug-In . SVG Version: 6.00 Build 0)  -->
<svg version="1.1" id="Capa_1" xmlns="http://www.w3.org/2000/svg" xmlns:xlink="http://www.w3.org/1999/xlink" x="0px" y="0px"
	 viewBox="0 0 468.293 468.293" style="enable-background:new 0 0 468.293 468.293;" xml:space="preserve">
<path style="fill:#DA8542;" d="M91.552,443.317V24.976C91.552,11.182,102.734,0,116.528,0h235.237
	c13.794,0,24.976,11.182,24.976,24.976v418.341c0,13.794-11.182,24.976-24.976,24.976H116.528
	C102.734,468.293,91.552,457.111,91.552,443.317z"/>
<rect x="110.142" y="53.011" style="fill:#E0E5E8;" width="247.989" height="340.855"/>
<g>
	<circle style="fill:#3B566A;" cx="234.146" cy="431.266" r="24.801"/>
	<path style="fill:#3B566A;" d="M249.274,34.257h-65.097c-4.28,0-7.75-3.47-7.75-7.75v0c0-4.28,3.47-7.75,7.75-7.75h65.097
		c4.28,0,7.75,3.47,7.75,7.75v0C257.023,30.787,253.554,34.257,249.274,34.257z"/>
	<path style="fill:#3B566A;" d="M284.116,34.257h-9.3c-4.28,0-7.75-3.47-7.75-7.75v0c0-4.28,3.47-7.75,7.75-7.75h9.3
		c4.28,0,7.75,3.47,7.75,7.75v0C291.866,30.787,288.396,34.257,284.116,34.257z"/>
</g>
<g>
	<path style="fill:#1A76A1;" d="M268.579,132.206c-2.731,0-4.944,2.212-4.946,4.943c-0.002,2.731,2.208,4.943,4.939,4.943
		c31.799,0,57.652,25.871,57.627,57.673c-0.002,2.731,2.208,4.943,4.939,4.943c1.365,0,2.601-0.553,3.496-1.447
		c0.895-0.894,1.449-2.13,1.45-3.496C336.115,162.512,305.831,132.206,268.579,132.206z"/>
	<path style="fill:#1A76A1;" d="M268.564,155.275c-2.731,0-4.944,2.212-4.946,4.943c-0.002,2.731,2.208,4.943,4.939,4.943
		c19.078,0,34.588,15.523,34.575,34.606c-0.002,2.731,2.208,4.943,4.939,4.943c1.365,0,2.601-0.553,3.496-1.447
		c0.895-0.894,1.449-2.13,1.45-3.496C313.033,175.232,293.092,155.273,268.564,155.275z"/>
	<path style="fill:#1A76A1;" d="M263.597,183.288c-0.002,2.731,2.208,4.943,4.939,4.943c3.081,0,5.977,1.199,8.155,3.38
		c2.176,2.178,3.373,5.075,3.371,8.156c-0.004,2.729,2.208,4.943,4.939,4.943c1.365,0,2.601-0.553,3.496-1.447
		c0.895-0.894,1.449-2.13,1.45-3.496c0.004-5.721-2.217-11.101-6.26-15.148c-4.043-4.046-9.421-6.277-15.144-6.274
		C265.813,178.345,263.599,180.557,263.597,183.288z"/>
</g>
<path style="fill:#E56354;" d="M203.766,312.222l-20.171,20.171c-4.877,4.877-12.784,4.877-17.66,0l-30.032-30.032
	c-4.877-4.877-4.877-12.784,0-17.66l20.171-20.171L203.766,312.222z"/>
<path style="fill:#29A1DA;" d="M202.914,175.605c-4.769,31.946-19.654,61.752-42.77,84.868l-4.063,4.063l47.698,47.698l4.063-4.063
	c23.116-23.116,52.922-38.001,84.868-42.77c8.677-1.296,12.357-11.707,6.153-17.911l-78.038-78.038
	C214.621,163.248,204.21,166.928,202.914,175.605z"/>
<g>
</g>
<g>
</g>
<g>
</g>
<g>
</g>
<g>
</g>
<g>
</g>
<g>
</g>
<g>
</g>
<g>
</g>
<g>
</g>
<g>
</g>
<g>
</g>
<g>
</g>
<g>
</g>
<g>
</g>
</svg>
