<svg id="Layer_3" enable-background="new 0 0 64 64" height="512" viewBox="0 0 64 64" width="512" xmlns="http://www.w3.org/2000/svg"><g><path d="m42 62h-20c-3.314 0-6-2.686-6-6v-48c0-3.314 2.686-6 6-6h20c3.314 0 6 2.686 6 6v48c0 3.314-2.686 6-6 6z" fill="#8892a0"/><path d="m22 2c-3.314 0-6 2.686-6 6v37.183c16.56-3.649 29-19.132 29-37.683 0-1.645-.109-3.262-.299-4.852-.812-.411-1.728-.648-2.701-.648z" fill="#b8bec6"/><path d="m16 8h32v42h-32z" fill="#a1cdfb"/><path d="m44.99 8h-28.99v37.183c16.41-3.616 28.768-18.855 28.99-37.183z" fill="#c7e2fc"/><path d="m22 38h-18c-1.105 0-2 .895-2 2v12c0 1.105.895 2 2 2h18c1.105 0 2-.895 2-2v-5l4-2-4-2v-3c0-1.105-.895-2-2-2z" fill="#8bd2f5"/><path d="m3.5 51c8.615 0 15.912-5.45 18.492-13h-17.992c-1.105 0-2 .895-2 2v10.926c.497.037.994.074 1.5.074z" fill="#b9e4f9"/><path d="m58 37h-10c-2.209 0-4-1.791-4-4v-10c0-2.209 1.791-4 4-4h10c2.209 0 4 1.791 4 4v10c0 2.209-1.791 4-4 4z" fill="#bf5763"/><path d="m59.998 19.553c-.59-.342-1.267-.553-1.998-.553h-10c-2.209 0-4 1.791-4 4v10c0 .21.031.413.062.614.945.244 1.926.386 2.938.386 7.164 0 12.971-6.463 12.998-14.447z" fill="#e0747c"/><circle cx="32" cy="56" fill="#c7e2fc" r="2"/><path d="m2 12h20v14h-20z" fill="#976947"/><path d="m2 12 10 8 10-8z" fill="#ac876c"/><circle cx="53" cy="29" fill="#c7e2fc" r="4"/><g><path d="m32 52.905c-1.654 0-3 1.346-3 3s1.346 3 3 3 3-1.346 3-3-1.346-3-3-3zm0 4c-.551 0-1-.449-1-1s.449-1 1-1 1 .449 1 1-.449 1-1 1z"/><path d="m58 17.905h-9v-10c0-3.86-3.14-7-7-7h-20c-3.86 0-7 3.14-7 7v3h-13c-.552 0-1 .448-1 1v14c0 .552.448 1 1 1h13v10h-11c-1.654 0-3 1.346-3 3v12c0 1.654 1.346 3 3 3h11v1c0 3.86 3.14 7 7 7h20c3.86 0 7-3.14 7-7v-18h9c2.757 0 5-2.243 5-5v-10c0-2.757-2.243-5-5-5zm-36-15h20c2.414 0 4.434 1.721 4.899 4h-29.798c.465-2.279 2.485-4 4.899-4zm-2.851 10-7.149 5.72-7.149-5.719h14.298zm-16.149 1.081 8.375 6.7c.183.146.403.219.625.219s.442-.073.625-.219l8.375-6.7v10.92h-18zm14 12.919h5c.552 0 1-.448 1-1v-14c0-.552-.448-1-1-1h-5v-2h30v9.101c-2.279.465-4 2.484-4 4.899v10c0 2.414 1.721 4.434 4 4.899v11.101h-22v-1.382l3.447-1.724c.339-.169.553-.515.553-.894s-.214-.725-.553-.895l-3.447-1.723v-2.382c0-1.654-1.346-3-3-3h-5zm-14 25v-12c0-.551.449-1 1-1h18c.551 0 1 .449 1 1v3c0 .379.214.725.553.895l2.211 1.105-2.211 1.105c-.339.17-.553.516-.553.895v5c0 .551-.449 1-1 1h-18c-.551 0-1-.448-1-1zm39 9h-20c-2.757 0-5-2.243-5-5v-1h5c1.654 0 3-1.346 3-3v-1h22v5c0 2.757-2.243 5-5 5zm19-28c0 1.654-1.346 3-3 3h-10c-1.654 0-3-1.346-3-3v-10c0-1.654 1.346-3 3-3h10c1.654 0 3 1.346 3 3z"/><path d="m53 23.905c-2.757 0-5 2.243-5 5s2.243 5 5 5 5-2.243 5-5-2.243-5-5-5zm0 8c-1.654 0-3-1.346-3-3s1.346-3 3-3 3 1.346 3 3-1.346 3-3 3z"/><path d="m57 21.905h2v2h-2z"/><path d="m5 40.905h16v2h-16z"/><path d="m7 44.905h12v2h-12z"/><path d="m5 48.905h16v2h-16z"/></g></g></svg>