<?xml version="1.0"?>
<svg xmlns="http://www.w3.org/2000/svg" xmlns:xlink="http://www.w3.org/1999/xlink" xmlns:svgjs="http://svgjs.com/svgjs" version="1.1" width="512" height="512" x="0" y="0" viewBox="0 0 511.999 511" style="enable-background:new 0 0 512 512" xml:space="preserve" class=""><g><g xmlns="http://www.w3.org/2000/svg" fill-rule="evenodd"><path d="m502 401.855469c0 31.917969-26.113281 58.03125-58.027344 58.03125h-375.945312c-31.910156 0-58.027344-26.113281-58.027344-58.027344zm0 0" fill="#55ffaf" data-original="#55b2ff" style="" class=""/><path d="m86.195312 131.730469h339.609376c20.949218 0 38.09375 17.144531 38.09375 38.09375v232.03125h-415.796876v-232.03125c0-20.953125 17.140626-38.09375 38.09375-38.09375zm0 0" fill="#f8f8f8" data-original="#f8f8f8" style="" class=""/><path d="m205.226562 258.691406c-4.511718-48.273437-62.144531-65.367187-62.144531-135.273437 0-62.363281 50.554688-112.917969 112.917969-112.917969s112.921875 50.554688 112.921875 112.917969c0 69.90625-57.636719 87-62.144531 135.273437zm0 0" fill="#ffcb78" data-original="#ffcb78" style="" class=""/><path d="m306.773438 302.445312v-43.753906h-101.550782v43.753906c0 27.925782 22.851563 50.773438 50.777344 50.773438s50.773438-22.847656 50.773438-50.773438zm0 0" fill="#55ffaf" data-original="#55b2ff" style="" class=""/><path d="m509.070312 394.785156c-1.875-1.875-4.417968-2.929687-7.070312-2.929687h-28.101562v-222.03125c0-26.519531-21.574219-48.09375-48.09375-48.09375h-46.917969c-.335938-24.964844-8.074219-48.863281-22.472657-69.214844-14.386718-20.339844-34.289062-35.667969-57.550781-44.324219-5.171875-1.925781-10.933593.707032-12.859375 5.882813-1.925781 5.175781.710938 10.933593 5.886719 12.859375 40.089844 14.921875 67.027344 53.695312 67.027344 96.484375 0 35.722656-16.617188 56.402343-32.691407 76.398437-11.617187 14.449219-23.578124 29.332032-27.972656 48.875h-9.789062l10.980468-146.304687c.207032-2.773438-.75-5.507813-2.640624-7.546875-1.894532-2.039063-4.550782-3.199219-7.332032-3.199219h-66.945312c-2.78125 0-5.4375 1.160156-7.332032 3.199219-1.890624 2.039062-2.847656 4.773437-2.640624 7.546875l10.976562 146.304687h-9.785156c-4.398438-19.542968-16.355469-34.421875-27.972656-48.875-16.074219-19.996094-32.691407-40.675781-32.691407-76.398437 0-42.789063 26.933594-81.5625 67.027344-96.484375 5.175781-1.925782 7.8125-7.683594 5.882813-12.859375-1.925782-5.175781-7.679688-7.808594-12.859376-5.882813-23.261718 8.65625-43.160156 23.984375-57.550781 44.324219-14.394531 20.355469-22.132812 44.253906-22.46875 69.214844h-46.917969c-26.519531 0-48.09375 21.574219-48.09375 48.09375v222.035156h-28.101562c-5.523438 0-10 4.476563-10 10 0 37.511719 30.515625 68.027344 68.027344 68.027344h375.945312c37.507813 0 68.027344-30.519531 68.027344-68.027344 0-2.65625-1.054688-5.199219-2.929688-7.074219zm-274.757812-126.09375h62.460938v23.753906h-81.550782v-23.753906zm61.21875 43.753906c-4.472656 17.664063-20.496094 30.773438-39.53125 30.773438s-35.0625-13.109375-39.53125-30.773438zm-62.226562-200.804687h45.390624l-10.285156 137.050781h-24.820312zm-175.203126 58.183594c0-15.492188 12.601563-28.09375 28.09375-28.09375h48.183594c4.65625 31.847656 21.0625 52.273437 35.804688 70.613281 12.46875 15.511719 23.234375 28.925781 25.042968 46.925781v43.175781c0 33.511719 27.261719 60.773438 60.773438 60.773438s60.777344-27.261719 60.777344-60.773438v-43.167968c1.800781-18.003906 12.570312-31.421875 25.039062-46.933594 14.746094-18.34375 31.148438-38.765625 35.804688-70.613281h48.183594c15.492187 0 28.09375 12.601562 28.09375 28.09375v222.03125h-395.796876zm385.871094 280.0625h-375.945312c-23.054688 0-42.367188-16.332031-46.980469-38.027344l469.90625-.003906c-4.613281 21.699219-23.925781 38.03125-46.980469 38.03125zm0 0" fill="#000000" data-original="#000000" style="" class=""/><path d="m256 20.5c5.507812 0 10-4.492188 10-10s-4.492188-10-10-10-10 4.492188-10 10 4.492188 10 10 10zm0 0" fill="#000000" data-original="#000000" style="" class=""/></g></g></svg>
