<svg id="Capa_1" enable-background="new 0 0 512 512" height="512" viewBox="0 0 512 512" width="512" xmlns="http://www.w3.org/2000/svg"><g><path d="m483.781 108.825h-455.562c-11.443 0-20.719 9.276-20.719 20.719v33.724l24.285 40h439.439l33.276-40v-33.724c0-11.443-9.276-20.719-20.719-20.719z" fill="#365e7d"/><path d="m483.781 108.825h-24.489c11.443 0 20.719 9.276 20.719 20.719v63.724l24.489-30v-33.724c0-11.443-9.276-20.719-20.719-20.719z" fill="#2b4d66"/><path d="m483.781 462.164h-455.562c-11.443 0-20.719-9.276-20.719-20.719v-278.177h497v278.177c0 11.442-9.276 20.719-20.719 20.719z" fill="#cbe2ff"/><path d="m480.011 163.268v278.177c0 11.443-9.276 20.719-20.719 20.719h24.489c11.443 0 20.719-9.276 20.719-20.719v-278.177z" fill="#bed8fb"/><g><path d="m285.636 300.096-55.886-36.126c-2.075-1.342-4.812.148-4.812 2.619v72.253c0 2.471 2.737 3.961 4.812 2.619l55.886-36.126c1.901-1.229 1.901-4.01 0-5.239z" fill="#da4a54"/></g><path d="m403.222 49.835h-123.478c-3.14 0-5.685 2.545-5.685 5.685v136.925c0 3.14 2.545 5.685 5.685 5.685h18.829c2.214 0 4.227 1.286 5.158 3.295l6.279 13.554c1.172 2.53 4.769 2.53 5.941 0l6.279-13.554c.931-2.009 2.944-3.295 5.158-3.295h75.834c3.14 0 5.685-2.545 5.685-5.685v-136.925c0-3.14-2.546-5.685-5.685-5.685z" fill="#ffd064"/><g><path d="m403.222 49.835h-20.564c3.14 0 5.685 2.545 5.685 5.685v136.925c0 3.14-2.545 5.685-5.685 5.685h20.564c3.14 0 5.685-2.545 5.685-5.685v-136.925c0-3.14-2.546-5.685-5.685-5.685z" fill="#ebb044"/></g><g><path d="m483.781 101.324h-67.374v-45.804c0-7.27-5.915-13.185-13.185-13.185h-50.26c-4.143 0-7.5 3.357-7.5 7.5s3.357 7.5 7.5 7.5h48.444v133.294h-74.019c-5.117 0-9.813 3.001-11.963 7.643l-2.445 5.276-2.443-5.274c-2.15-4.644-6.847-7.645-11.964-7.645h-17.014v-133.294h41.416c4.143 0 7.5-3.357 7.5-7.5s-3.357-7.5-7.5-7.5h-43.231c-7.27 0-13.185 5.915-13.185 13.185v45.805h-185.66c-4.142 0-7.5 3.357-7.5 7.5s3.358 7.5 7.5 7.5h185.661v39.443h-251.559v-26.224c0-7.289 5.93-13.22 13.219-13.22h22.691c4.142 0 7.5-3.357 7.5-7.5s-3.358-7.5-7.5-7.5h-22.691c-15.56 0-28.219 12.66-28.219 28.22v311.9c0 15.561 12.659 28.22 28.219 28.22h352.569c4.143 0 7.5-3.357 7.5-7.5s-3.357-7.5-7.5-7.5h-352.569c-7.289 0-13.219-5.931-13.219-13.22v-270.676h251.559v21.677c0 7.27 5.915 13.185 13.185 13.185h17.669l5.792 12.503c1.785 3.852 5.532 6.244 9.777 6.243 4.245 0 7.99-2.394 9.773-6.244l5.793-12.502h74.674c7.27 0 13.185-5.915 13.185-13.185v-21.677h80.593v270.677c0 7.289-5.93 13.22-13.219 13.22h-73.005c-4.143 0-7.5 3.357-7.5 7.5s3.357 7.5 7.5 7.5h73.005c15.56 0 28.219-12.659 28.219-28.22v-311.9c0-15.561-12.66-28.221-28.219-28.221zm-67.374 54.444v-39.443h67.374c7.289 0 13.219 5.931 13.219 13.22v26.224h-80.593z"/><path d="m228.057 349.462c2.01 0 4.015-.57 5.765-1.702l55.889-36.128c3.038-1.966 4.852-5.3 4.852-8.918-.001-3.618-1.815-6.951-4.854-8.916l-55.885-36.126c-3.268-2.113-7.423-2.271-10.841-.41-3.419 1.861-5.543 5.435-5.543 9.327v72.253c0 3.893 2.124 7.467 5.542 9.327 1.586.864 3.332 1.293 5.075 1.293zm4.381-74.824 43.435 28.078-43.435 28.077z"/><path d="m52.458 128.546h-6.312c-4.142 0-7.5 3.357-7.5 7.5s3.358 7.5 7.5 7.5h6.312c4.142 0 7.5-3.357 7.5-7.5s-3.358-7.5-7.5-7.5z"/><path d="m91.628 143.546c4.142 0 7.5-3.357 7.5-7.5s-3.358-7.5-7.5-7.5h-6.312c-4.142 0-7.5 3.357-7.5 7.5s3.358 7.5 7.5 7.5z"/><path d="m130.799 143.546c4.142 0 7.5-3.357 7.5-7.5s-3.358-7.5-7.5-7.5h-6.312c-4.142 0-7.5 3.357-7.5 7.5s3.358 7.5 7.5 7.5z"/><path d="m124.487 419.085c4.142 0 7.5-3.357 7.5-7.5v-2.394h320.916c4.143 0 7.5-3.357 7.5-7.5s-3.357-7.5-7.5-7.5h-320.916v-2.395c0-4.143-3.358-7.5-7.5-7.5s-7.5 3.357-7.5 7.5v2.395h-57.89c-4.142 0-7.5 3.357-7.5 7.5s3.358 7.5 7.5 7.5h57.891v2.394c-.001 4.143 3.357 7.5 7.499 7.5z"/><path d="m65.904 220.436h94.086c4.142 0 7.5-3.357 7.5-7.5s-3.358-7.5-7.5-7.5h-94.086c-4.142 0-7.5 3.357-7.5 7.5s3.358 7.5 7.5 7.5z"/><path d="m355.329 158.823c.853.318 1.742.476 2.628.476 1.508 0 3.002-.454 4.275-1.337 2.021-1.401 3.226-3.704 3.226-6.163v-52.75c0-2.459-1.205-4.762-3.226-6.163s-4.598-1.722-6.903-.861l-26.612 9.959h-10.584c-12.925 0-23.44 10.516-23.44 23.44 0 10.81 7.358 19.929 17.327 22.626l4.393 18.381c.823 3.443 3.897 5.759 7.289 5.759.577 0 1.163-.067 1.749-.207 4.029-.963 6.515-5.01 5.552-9.038l-3.365-14.081h1.08zm-4.871-17.84-12.883-4.821v-21.478l12.883-4.821zm-32.326-24h4.442v16.88h-4.442c-4.654 0-8.44-3.786-8.44-8.439 0-4.655 3.786-8.441 8.44-8.441z"/><path d="m379.87 132.923h5.126c4.143 0 7.5-3.357 7.5-7.5s-3.357-7.5-7.5-7.5h-5.126c-4.143 0-7.5 3.357-7.5 7.5s3.357 7.5 7.5 7.5z"/><path d="m379.918 111.42c.562 0 1.134-.064 1.705-.197l5.015-1.166c4.035-.938 6.545-4.969 5.606-9.003-.938-4.035-4.972-6.544-9.003-5.606l-5.015 1.166c-4.035.938-6.545 4.969-5.606 9.003.805 3.463 3.889 5.803 7.298 5.803z"/><path d="m381.624 139.623c-4.034-.948-8.066 1.571-9.003 5.606-.938 4.034 1.571 8.065 5.606 9.003l5.015 1.166c.571.134 1.143.197 1.705.197 3.408 0 6.493-2.341 7.298-5.804.938-4.034-1.571-8.065-5.606-9.003z"/></g></g></svg>