<svg id="Layer_1" enable-background="new 0 0 512 512" height="512" viewBox="0 0 512 512" width="512" xmlns="http://www.w3.org/2000/svg"><g><path d="m504.5 33.329v281.286h-497v-281.286c0-13.84 11.219-25.059 25.059-25.059h446.883c13.839 0 25.058 11.219 25.058 25.059z" fill="#fff"/><path d="m333.725 263.766h64.864v-146.973h19.686l-50.977-61.675h-2.282l-50.977 61.675h19.686z" fill="#e1fda0"/><path d="m203.725 130.451h64.865v133.315h-64.865z" fill="#fee95d"/><path d="m93.725 153.543h64.865v110.223h-64.865z" fill="#ff6a47"/><g fill="#d5f6ea"><path d="m504.5 314.615v58.486c0 13.84-11.219 25.059-25.059 25.059h-446.882c-13.84 0-25.059-11.219-25.059-25.059v-58.486z"/><path d="m322.867 460.426h-133.734l12.459-62.267h108.816z"/><path d="m139.102 460.426h233.796v43.304h-233.796z"/><path d="m52.559 8.27h-20c-13.84 0-25.059 11.219-25.059 25.059v281.286h20v-281.286c0-13.84 11.219-25.059 25.059-25.059z"/></g><path d="m334.039 116.793 42.118-50.957-8.859-10.718h-2.282l-50.977 61.675h19.686v146.973h20v-146.973z" fill="#a7eeb1"/><path d="m203.725 130.451h20v133.315h-20z" fill="#ffc277"/><path d="m93.725 153.543h20v110.223h-20z" fill="#d03582"/><path d="m27.5 373.101v-58.486h-20v58.486c0 13.84 11.219 25.059 25.059 25.059h20c-13.84-.001-25.059-11.22-25.059-25.059z" fill="#a7eed4"/><path d="m201.592 398.159-12.459 62.267h20l12.459-62.267z" fill="#a7eed4"/><path d="m139.102 460.426h20v43.304h-20z" fill="#a7eed4"/><g><path d="m406.089 271.266v-146.973h28.116l-63.376-76.675h-9.344l-63.375 76.675h28.115v146.973zm-39.932-205.756 36.188 43.783h-11.256v146.973h-49.865v-146.973h-11.256z"/><path d="m196.225 122.952v148.314h79.865v-148.314zm64.864 133.314h-49.865v-118.314h49.865z"/><path d="m86.225 271.266h79.865v-125.223h-79.865zm15-110.223h49.865v95.223h-49.865z"/><path d="m479.44.77h-353.38v15h353.38c9.683 0 17.56 7.877 17.56 17.56v273.78h-89.5v15h89.5v50.99c0 9.683-7.877 17.56-17.56 17.56h-446.88c-9.683 0-17.56-7.877-17.56-17.56v-50.99h377.5v-15h-377.5v-273.78c0-9.683 7.877-17.56 17.56-17.56h78.5v-15h-78.5c-17.954 0-32.56 14.606-32.56 32.56v339.77c0 17.954 14.606 32.56 32.56 32.56h446.88c17.954 0 32.56-14.606 32.56-32.56v-339.77c0-17.954-14.606-32.56-32.56-32.56z"/><path d="m323.764 426.688-14.708 2.944 4.663 23.293h-115.438l4.663-23.293-14.708-2.944-5.253 26.238h-51.381v58.304h248.796v-58.304h-51.381zm41.634 41.238v28.304h-218.796v-28.304z"/></g><g><path d="m308 363.887h-15v-15h15zm-45 0h-15v-15h15zm-45 0h-15v-15h15z" fill="#fff"/></g><g><path d="m358.555 201.155h15v15h-15z"/></g><g><path d="m228.712 201.155h15v15h-15z"/></g><g><path d="m118.555 201.155h15v15h-15z"/></g></g></svg>