<?xml version="1.0"?>
<svg xmlns="http://www.w3.org/2000/svg" xmlns:xlink="http://www.w3.org/1999/xlink" xmlns:svgjs="http://svgjs.com/svgjs" version="1.1" width="512" height="512" x="0" y="0" viewBox="0 0 511.507 511.507" style="enable-background:new 0 0 512 512" xml:space="preserve" class=""><g><g xmlns="http://www.w3.org/2000/svg"><g><path d="m495.684 420.049h-12.424v-225.05c17.38-16.387 28.247-39.609 28.247-65.324 0-49.519-40.287-89.806-89.806-89.806-20.963 0-41.365 7.378-57.448 20.775-3.182 2.651-3.613 7.381-.962 10.563s7.38 3.613 10.563.962c13.393-11.156 30.385-17.301 47.847-17.301 41.248 0 74.806 33.558 74.806 74.806s-33.558 74.806-74.806 74.806-74.806-33.558-74.806-74.806c0-11.387 2.49-22.316 7.401-32.485 1.801-3.73.237-8.214-3.492-10.016-3.734-1.804-8.214-.238-10.016 3.492-5.901 12.221-8.894 25.345-8.894 39.009 0 1.784.058 3.554.161 5.313h-44.655v-93.89c0-11.715-9.531-21.245-21.246-21.245h-132.464c-11.715 0-21.246 9.53-21.246 21.245v93.89h-63.552c-11.355 0-20.594 9.238-20.594 20.594v176.923c0 4.143 3.358 7.5 7.5 7.5s7.5-3.357 7.5-7.5v-176.923c0-3.084 2.509-5.594 5.594-5.594h63.553v22.025h-31.216c-10.752 0-19.5 8.748-19.5 19.5v187.043c0 10.752 8.748 19.5 19.5 19.5h349.101c10.752 0 19.5-8.748 19.5-19.5v-163.591c6.501-2.15 12.678-5.018 18.431-8.52v213.605h-424.963v-52.92c0-4.143-3.358-7.5-7.5-7.5s-7.5 3.357-7.5 7.5v52.92h-12.623c-8.643 0-15.675 7.032-15.675 15.675v22.998c0 18.159 14.773 32.933 32.933 32.933h445.494c18.159 0 32.933-14.773 32.933-32.933v-22.998c-.001-8.643-7.032-15.675-15.676-15.675zm-208.284-270.062h46.813c1.805 7.775 4.625 15.165 8.309 22.025h-55.122zm-52.705-115.135-2.221 9.807c-.113.501-.551.851-1.064.851h-62.976c-.513 0-.951-.35-1.064-.851l-2.221-9.807zm-107.251 6.245c0-3.443 2.802-6.245 6.246-6.245h16.078l2.971 13.119c1.671 7.382 8.125 12.538 15.694 12.538h62.976c7.568 0 14.022-5.155 15.694-12.538l2.971-13.119h16.079c3.444 0 6.246 2.802 6.246 6.245v201.531h-144.955zm0 216.532h144.956v25.022c0 3.443-2.802 6.245-6.246 6.245h-132.464c-3.444 0-6.246-2.802-6.246-6.245zm307.386 120.926c0 2.481-2.019 4.5-4.5 4.5h-349.101c-2.481 0-4.5-2.019-4.5-4.5v-187.043c0-2.481 2.019-4.5 4.5-4.5h31.215v95.639c0 11.715 9.531 21.245 21.246 21.245h132.464c11.715 0 21.246-9.53 21.246-21.245v-95.639h65.237c16.486 19.824 41.326 32.468 69.064 32.468 4.459 0 8.841-.332 13.128-.962v160.037zm-203.884 56.526h49.468v11.635h-49.468zm265.413 23.641c0 9.888-8.045 17.933-17.933 17.933h-445.493c-9.888 0-17.933-8.045-17.933-17.933v-22.998c0-.373.303-.676.675-.676l200.271.032v12.797c0 7.63 6.208 13.838 13.837 13.838h51.792c7.63 0 13.838-6.208 13.838-13.838v-12.797l200.271-.032c.372 0 .675.303.675.676z" fill="#3979f8" data-original="#000000" style=""/><path d="m397.587 171.641c2.962 2.961 6.851 4.441 10.741 4.441s7.78-1.48 10.74-4.441l51.566-51.563c8.408-8.409 8.408-22.092-.001-30.502-8.408-8.408-22.093-8.407-30.501 0 0 0 0 0-.001 0l-31.801 31.804-5.06-5.059c-4.073-4.074-9.489-6.318-15.251-6.318-5.761 0-11.177 2.244-15.25 6.317-4.074 4.073-6.317 9.489-6.317 15.251 0 5.761 2.243 11.177 6.316 15.251zm-14.212-44.714c1.24-1.241 2.89-1.925 4.644-1.925 1.755 0 3.403.684 4.645 1.925l9.789 9.789c3.24 3.24 8.514 3.24 11.754 0l36.532-36.533c2.563-2.561 6.729-2.56 9.289-.001 2.561 2.562 2.561 6.729.001 9.289l-51.566 51.563c-.072.074-.195.074-.268 0l-24.819-24.819c-1.241-1.24-1.924-2.89-1.924-4.644 0-1.755.682-3.403 1.923-4.644z" fill="#3979f8" data-original="#000000" style=""/><ellipse cx="159.965" cy="154.031" rx="11.543" ry="11.543" transform="matrix(.987 -.16 .16 .987 -22.607 27.613)" fill="#3979f8" data-original="#000000" style=""/><ellipse cx="199.922" cy="154.031" rx="11.543" ry="11.543" transform="matrix(.383 -.924 .924 .383 -18.891 279.789)" fill="#3979f8" data-original="#000000" style=""/><circle cx="239.879" cy="154.031" r="11.543" fill="#3979f8" data-original="#000000" style=""/></g></g></g></svg>
