<?xml version="1.0"?>
<svg xmlns="http://www.w3.org/2000/svg" xmlns:xlink="http://www.w3.org/1999/xlink" xmlns:svgjs="http://svgjs.com/svgjs" version="1.1" width="512" height="512" x="0" y="0" viewBox="0 0 512 512" style="enable-background:new 0 0 512 512" xml:space="preserve" class=""><g><g xmlns="http://www.w3.org/2000/svg"><path d="m120 232h-32a8 8 0 0 0 -8 8v32a8 8 0 0 0 8 8h32a8 8 0 0 0 8-8v-32a8 8 0 0 0 -8-8zm-8 32h-16v-16h16z" fill="#ffffff" data-original="#000000" style="" class=""/><path d="m176 232h-32a8 8 0 0 0 -8 8v32a8 8 0 0 0 8 8h32a8 8 0 0 0 8-8v-32a8 8 0 0 0 -8-8zm-8 32h-16v-16h16z" fill="#ffffff" data-original="#000000" style="" class=""/><path d="m232 232h-32a8 8 0 0 0 -8 8v32a8 8 0 0 0 8 8h32a8 8 0 0 0 8-8v-32a8 8 0 0 0 -8-8zm-8 32h-16v-16h16z" fill="#ffffff" data-original="#000000" style="" class=""/><circle cx="424" cy="256" r="8" fill="#ffffff" data-original="#000000" style="" class=""/><circle cx="400" cy="256" r="8" fill="#ffffff" data-original="#000000" style="" class=""/><circle cx="376" cy="256" r="8" fill="#ffffff" data-original="#000000" style="" class=""/><path d="m436 160a28.031 28.031 0 0 0 28-28v-72a28.031 28.031 0 0 0 -28-28h-140v-16a8 8 0 0 0 -8-8h-64a8 8 0 0 0 -8 8v16h-140a28.031 28.031 0 0 0 -28 28v72a28.031 28.031 0 0 0 28 28h12v32h-12a28.031 28.031 0 0 0 -28 28v72a28.031 28.031 0 0 0 28 28h12v32h-12a28.031 28.031 0 0 0 -28 28v72a28.031 28.031 0 0 0 28 28h140v16a8 8 0 0 0 8 8h64a8 8 0 0 0 8-8v-16h140a28.031 28.031 0 0 0 28-28v-72a28.031 28.031 0 0 0 -28-28h-12v-32h12a28.031 28.031 0 0 0 28-28v-72a28.031 28.031 0 0 0 -28-28h-12v-32zm-204-136h48v8h-48zm48 464h-48v-8h48zm156-120a12.01 12.01 0 0 1 12 12v72a12.01 12.01 0 0 1 -12 12h-360a12.01 12.01 0 0 1 -12-12v-72a12.01 12.01 0 0 1 12-12zm-332-16v-32h304v32zm332-144a12.01 12.01 0 0 1 12 12v72a12.01 12.01 0 0 1 -12 12h-360a12.01 12.01 0 0 1 -12-12v-72a12.01 12.01 0 0 1 12-12zm-332-16v-32h304v32zm-28-48a12.01 12.01 0 0 1 -12-12v-72a12.01 12.01 0 0 1 12-12h360a12.01 12.01 0 0 1 12 12v72a12.01 12.01 0 0 1 -12 12z" fill="#ffffff" data-original="#000000" style="" class=""/><path d="m128 112v-32a8 8 0 0 0 -8-8h-32a8 8 0 0 0 -8 8v32a8 8 0 0 0 8 8h32a8 8 0 0 0 8-8zm-16-8h-16v-16h16z" fill="#ffffff" data-original="#000000" style="" class=""/><path d="m144 120h32a8 8 0 0 0 8-8v-32a8 8 0 0 0 -8-8h-32a8 8 0 0 0 -8 8v32a8 8 0 0 0 8 8zm8-32h16v16h-16z" fill="#ffffff" data-original="#000000" style="" class=""/><path d="m200 120h32a8 8 0 0 0 8-8v-32a8 8 0 0 0 -8-8h-32a8 8 0 0 0 -8 8v32a8 8 0 0 0 8 8zm8-32h16v16h-16z" fill="#ffffff" data-original="#000000" style="" class=""/><circle cx="424" cy="96" r="8" fill="#ffffff" data-original="#000000" style="" class=""/><circle cx="400" cy="96" r="8" fill="#ffffff" data-original="#000000" style="" class=""/><circle cx="376" cy="96" r="8" fill="#ffffff" data-original="#000000" style="" class=""/><path d="m120 392h-32a8 8 0 0 0 -8 8v32a8 8 0 0 0 8 8h32a8 8 0 0 0 8-8v-32a8 8 0 0 0 -8-8zm-8 32h-16v-16h16z" fill="#ffffff" data-original="#000000" style="" class=""/><path d="m176 392h-32a8 8 0 0 0 -8 8v32a8 8 0 0 0 8 8h32a8 8 0 0 0 8-8v-32a8 8 0 0 0 -8-8zm-8 32h-16v-16h16z" fill="#ffffff" data-original="#000000" style="" class=""/><path d="m232 392h-32a8 8 0 0 0 -8 8v32a8 8 0 0 0 8 8h32a8 8 0 0 0 8-8v-32a8 8 0 0 0 -8-8zm-8 32h-16v-16h16z" fill="#ffffff" data-original="#000000" style="" class=""/><circle cx="424" cy="416" r="8" fill="#ffffff" data-original="#000000" style="" class=""/><circle cx="400" cy="416" r="8" fill="#ffffff" data-original="#000000" style="" class=""/><circle cx="376" cy="416" r="8" fill="#ffffff" data-original="#000000" style="" class=""/></g></g></svg>
