<?xml version="1.0"?>
<svg xmlns="http://www.w3.org/2000/svg" xmlns:xlink="http://www.w3.org/1999/xlink" xmlns:svgjs="http://svgjs.com/svgjs" version="1.1" width="512" height="512" x="0" y="0" viewBox="0 0 511.999 511.999" style="enable-background:new 0 0 512 512" xml:space="preserve" class=""><g>
<g xmlns="http://www.w3.org/2000/svg">
	<g>
		<g>
			<path d="M487.934,74.549H374.387c0.837-2.615,0.196-5.559-1.834-7.588L337.41,31.816c-2.592-2.593-6.679-2.931-9.663-0.8     l-12.522,8.944c-7.764-4.251-15.946-7.646-24.43-10.132l-2.546-15.279c-0.602-3.617-3.731-6.267-7.398-6.267H231.15     c-3.667,0-6.795,2.65-7.398,6.267l-2.546,15.279c-8.445,2.476-16.593,5.851-24.327,10.077l-12.7-9.072     c-2.985-2.132-7.071-1.793-9.663,0.8l-35.144,35.144c-2.077,2.077-2.703,5.112-1.776,7.771H24.067     C10.796,74.549,0,85.345,0,98.616v298.199c0,13.271,10.796,24.067,24.067,24.067h174.735l0.001,34.701h-58.768     c-4.142,0-7.5,3.358-7.5,7.5v25.634h-9.066c-4.142,0-7.5,3.358-7.5,7.5c0,4.142,3.358,7.5,7.5,7.5h265.065     c4.142,0,7.5-3.358,7.5-7.5c0-4.142-3.358-7.5-7.5-7.5h-9.066v-25.634c0-4.142-3.358-7.5-7.5-7.5H313.2v-34.701h174.733     c13.27,0,24.066-10.796,24.066-24.067V98.616C512,85.345,501.204,74.549,487.934,74.549z M150.806,121.798     c2.586-10.294,6.676-20.138,12.156-29.259c1.539-2.561,1.411-5.791-0.326-8.222l-8.162-11.426l26.156-26.159l11.443,8.173     c2.43,1.735,5.657,1.865,8.218,0.329c9.145-5.486,19.016-9.575,29.34-12.153c2.897-0.724,5.09-3.098,5.581-6.043l2.292-13.756     h36.994l2.293,13.756c0.491,2.946,2.683,5.32,5.581,6.043c10.36,2.588,20.263,6.695,29.432,12.208     c2.562,1.54,5.792,1.412,8.224-0.325l11.269-8.049l26.159,26.159l-8.061,11.285c-1.736,2.43-1.864,5.659-0.328,8.219     c5.52,9.195,9.626,19.125,12.205,29.514c0.721,2.902,3.097,5.099,6.046,5.591l13.588,2.265v36.994l-13.654,2.276     c-2.943,0.491-5.316,2.679-6.042,5.573c-2.605,10.386-6.735,20.307-12.275,29.486c-1.547,2.563-1.422,5.799,0.318,8.235     l8.02,11.228l-26.159,26.159l-11.326-8.089c-2.427-1.733-5.65-1.864-8.208-0.334c-9.183,5.491-19.095,9.574-29.459,12.136     c-2.906,0.718-5.106,3.095-5.598,6.048l-2.282,13.689h-36.994l-2.304-13.821c-0.49-2.939-2.674-5.31-5.563-6.039     c-10.319-2.604-20.181-6.717-29.313-12.225c-2.562-1.545-5.798-1.42-8.233,0.319l-11.385,8.132l-26.159-26.159l8.203-11.483     c1.733-2.426,1.864-5.648,0.335-8.207c-5.457-9.131-9.523-18.984-12.084-29.286c-0.721-2.901-3.097-5.097-6.045-5.588     l-13.858-2.31v-36.994l13.924-2.32C147.707,126.878,150.079,124.69,150.806,121.798z M115.838,155.814v17.222     c0,3.667,2.65,6.795,6.267,7.398l15.376,2.563c2.459,8.42,5.814,16.548,10.014,24.263l-9.106,12.748     c-2.131,2.983-1.793,7.07,0.8,9.663l35.144,35.144c2.593,2.593,6.678,2.931,9.663,0.8l12.632-9.023     c7.724,4.244,15.866,7.639,24.306,10.134l2.56,15.357c0.603,3.617,3.731,6.267,7.398,6.267h49.701     c3.667,0,6.795-2.65,7.398-6.267l2.534-15.2c8.487-2.467,16.678-5.842,24.451-10.076l12.589,8.992     c2.983,2.131,7.07,1.792,9.663-0.8l35.144-35.144c2.593-2.592,2.931-6.679,0.8-9.663l-8.91-12.474     c4.277-7.779,7.692-15.984,10.195-24.494l15.182-2.53c3.617-0.603,6.267-3.731,6.267-7.398v-17.48h76.246v158.949H39.85V155.814     H115.838z M39.85,140.814v-26.415h91.486l-9.231,1.538c-3.616,0.602-6.267,3.731-6.267,7.398v17.479H39.85z M472.151,140.814     h-76.246v-17.22c0-3.666-2.65-6.795-6.267-7.398l-10.785-1.797h93.298V140.814z M15,98.616c0-5,4.067-9.067,9.067-9.067h123.336     c-1.743,3.214-3.334,6.502-4.781,9.85H32.35c-4.142,0-7.5,3.358-7.5,7.5v215.364c0,4.142,3.358,7.5,7.5,7.5h447.301     c4.142,0,7.5-3.358,7.5-7.5V106.899c0-4.142-3.358-7.5-7.5-7.5H369.378c-1.446-3.348-3.037-6.636-4.78-9.85h123.335     c4.999,0,9.066,4.067,9.066,9.067v240.998H15V98.616z M364.467,470.582v18.133H147.535v-18.133h58.739     c0.01,0,0.019,0.001,0.029,0.001H305.7c0.01,0,0.019-0.001,0.029-0.001H364.467z M213.802,420.882h84.399v34.7h-84.398     L213.802,420.882z M497,396.814c0,5-4.067,9.067-9.066,9.067H24.067c-5,0-9.067-4.067-9.067-9.067v-42.201h482V396.814z" fill="#3979f8" data-original="#000000" style="" class=""/>
			<path d="M256.001,400.172c10.987,0,19.926-8.939,19.926-19.926s-8.938-19.926-19.926-19.926     c-10.987,0-19.926,8.939-19.926,19.926S245.014,400.172,256.001,400.172z M256.001,375.32c2.716,0,4.926,2.21,4.926,4.926     s-2.209,4.926-4.926,4.926c-2.716,0-4.926-2.21-4.926-4.926S253.285,375.32,256.001,375.32z" fill="#3979f8" data-original="#000000" style="" class=""/>
			<path d="M73.767,120.106H57.201c-4.142,0-7.5,3.358-7.5,7.5c0,4.142,3.358,7.5,7.5,7.5h16.566c4.142,0,7.5-3.358,7.5-7.5     C81.267,123.464,77.909,120.106,73.767,120.106z" fill="#3979f8" data-original="#000000" style="" class=""/>
			<path d="M256.001,197.232c26.973,0,48.916-21.944,48.916-48.916c0-26.973-21.944-48.917-48.916-48.917     c-26.973,0-48.917,21.944-48.917,48.917C207.084,175.288,229.028,197.232,256.001,197.232z M256.001,182.232     c-16.124,0-29.646-11.313-33.07-26.416h66.141C285.647,170.919,272.125,182.232,256.001,182.232z M256.001,114.398     c16.124,0,29.647,11.313,33.07,26.417H222.93C226.354,125.712,239.877,114.398,256.001,114.398z" fill="#3979f8" data-original="#000000" style="" class=""/>
			<path d="M256.001,230.365c45.243,0,82.05-36.808,82.05-82.05c0-45.243-36.808-82.05-82.05-82.05     c-45.243,0-82.05,36.808-82.05,82.05C173.951,193.558,210.758,230.365,256.001,230.365z M256.001,81.265     c36.972,0,67.05,30.079,67.05,67.05s-30.079,67.05-67.05,67.05c-36.971,0-67.05-30.079-67.05-67.05     C188.951,111.344,219.029,81.265,256.001,81.265z" fill="#3979f8" data-original="#000000" style="" class=""/>
		</g>
	</g>
</g>
<g xmlns="http://www.w3.org/2000/svg">
</g>
<g xmlns="http://www.w3.org/2000/svg">
</g>
<g xmlns="http://www.w3.org/2000/svg">
</g>
<g xmlns="http://www.w3.org/2000/svg">
</g>
<g xmlns="http://www.w3.org/2000/svg">
</g>
<g xmlns="http://www.w3.org/2000/svg">
</g>
<g xmlns="http://www.w3.org/2000/svg">
</g>
<g xmlns="http://www.w3.org/2000/svg">
</g>
<g xmlns="http://www.w3.org/2000/svg">
</g>
<g xmlns="http://www.w3.org/2000/svg">
</g>
<g xmlns="http://www.w3.org/2000/svg">
</g>
<g xmlns="http://www.w3.org/2000/svg">
</g>
<g xmlns="http://www.w3.org/2000/svg">
</g>
<g xmlns="http://www.w3.org/2000/svg">
</g>
<g xmlns="http://www.w3.org/2000/svg">
</g>
</g></svg>
