<?xml version="1.0"?>
<svg xmlns="http://www.w3.org/2000/svg" xmlns:xlink="http://www.w3.org/1999/xlink" xmlns:svgjs="http://svgjs.com/svgjs" version="1.1" width="512" height="512" x="0" y="0" viewBox="0 0 512 512" style="enable-background:new 0 0 512 512" xml:space="preserve" class=""><g><g xmlns="http://www.w3.org/2000/svg"><path d="M496,104H448V96A87.951,87.951,0,0,0,300,31.69,87.951,87.951,0,0,0,152,96v8H80a8,8,0,0,0-8,8V344H32A24.032,24.032,0,0,0,8,368V480a24.032,24.032,0,0,0,24,24H208a24.032,24.032,0,0,0,24-24v-8H496a8,8,0,0,0,8-8V112A8,8,0,0,0,496,104ZM312,96v8H288V96a71.611,71.611,0,0,1,12-39.74A71.611,71.611,0,0,1,312,96Zm8,96a8,8,0,0,0,8-8V170.17a16,16,0,1,1-16,0V184A8,8,0,0,0,320,192ZM168,96A71.95,71.95,0,0,1,289.33,43.62,87.583,87.583,0,0,0,272,96v8H168Zm-8,96a8,8,0,0,0,8-8V170.17a16,16,0,1,1-16,0V184A8,8,0,0,0,160,192Zm56,288a8.011,8.011,0,0,1-8,8H32a8.011,8.011,0,0,1-8-8V424H216Zm0-72H24V392H216Zm0-32H24v-8a8.011,8.011,0,0,1,8-8H208a8.011,8.011,0,0,1,8,8Zm-8-32H120V304a8.011,8.011,0,0,1,8-8H304a8.011,8.011,0,0,1,8,8V416a8.011,8.011,0,0,1-8,8H232V368A24.032,24.032,0,0,0,208,344ZM392,456H232V440h72a24.032,24.032,0,0,0,24-24V304a24.032,24.032,0,0,0-24-24H128a24.032,24.032,0,0,0-24,24v40H88V120h64v33.01a32,32,0,1,0,16,0V120H312v33.01a32,32,0,1,0,16,0V120h64ZM328,104V96a87.583,87.583,0,0,0-17.33-52.38A71.95,71.95,0,0,1,432,96v8ZM488,456H408V120h80Z" fill="#ffffff" data-original="#000000" style=""/><path d="M440,392a8,8,0,0,0,16,0V136a8,8,0,0,0-16,0Z" fill="#ffffff" data-original="#000000" style=""/><path d="M448,408a8,8,0,0,0-8,8v16a8,8,0,0,0,16,0V416A8,8,0,0,0,448,408Z" fill="#ffffff" data-original="#000000" style=""/><path d="M48,464H40a8,8,0,0,0,0,16h8a8,8,0,0,0,0-16Z" fill="#ffffff" data-original="#000000" style=""/><path d="M168,464h-8a8,8,0,0,0,0,16h8a8,8,0,0,0,0-16Z" fill="#ffffff" data-original="#000000" style=""/><path d="M200,464h-8a8,8,0,0,0,0,16h8a8,8,0,0,0,0-16Z" fill="#ffffff" data-original="#000000" style=""/><path d="M304,376a8,8,0,0,0-8-8H256a8,8,0,0,0-8,8v32a8,8,0,0,0,8,8h40a8,8,0,0,0,8-8Zm-16,24H264V384h24Z" fill="#ffffff" data-original="#000000" style=""/><path d="M280,320h8a8,8,0,0,0,0-16h-8a8,8,0,0,0,0,16Z" fill="#ffffff" data-original="#000000" style=""/><path d="M264,344h24a8,8,0,0,0,0-16H264a8,8,0,0,0,0,16Z" fill="#ffffff" data-original="#000000" style=""/></g></g></svg>
