<?xml version="1.0"?>
<svg xmlns="http://www.w3.org/2000/svg" xmlns:xlink="http://www.w3.org/1999/xlink" xmlns:svgjs="http://svgjs.com/svgjs" version="1.1" width="512" height="512" x="0" y="0" viewBox="0 0 299.101 299.101" style="enable-background:new 0 0 512 512" xml:space="preserve" class=""><g>
<g xmlns="http://www.w3.org/2000/svg">
	<g>
		<path d="M128.465,193.555c-24.264,0-44.004-19.74-44.004-44.004c0-24.265,19.74-44.005,44.004-44.005c8.284,0,15-6.716,15-15    c0-8.284-6.716-15-15-15c-40.806,0-74.004,33.198-74.004,74.005c0,40.806,33.198,74.004,74.004,74.004c8.284,0,15-6.716,15-15    C143.465,200.27,136.749,193.555,128.465,193.555z" fill="#3979f8" data-original="#000000" style="" class=""/>
		<path d="M230.64,149.551c0-8.284-6.716-15-15-15H174.27c6.147-16.901,22.37-29.005,41.369-29.005c8.284,0,15-6.716,15-15    c0-8.284-6.716-15-15-15c-40.807,0-74.005,33.198-74.005,74.005c0,40.806,33.198,74.004,74.005,74.004c8.284,0,15-6.716,15-15    c0-8.284-6.716-15-15-15c-18.999,0-35.222-12.104-41.369-29.004h41.369C223.924,164.551,230.64,157.835,230.64,149.551z" fill="#3979f8" data-original="#000000" style="" class=""/>
	</g>
	<path d="M149.55,0C67.088,0,0,67.088,0,149.551c0,82.462,67.088,149.55,149.55,149.55c82.463,0,149.551-67.088,149.551-149.55   C299.101,67.088,232.013,0,149.55,0z M149.55,269.101c-65.92,0-119.55-53.63-119.55-119.55C30,83.63,83.63,30,149.55,30   c65.921,0,119.551,53.63,119.551,119.551C269.101,215.471,215.471,269.101,149.55,269.101z" fill="#3979f8" data-original="#000000" style="" class=""/>
</g>
<g xmlns="http://www.w3.org/2000/svg">
</g>
<g xmlns="http://www.w3.org/2000/svg">
</g>
<g xmlns="http://www.w3.org/2000/svg">
</g>
<g xmlns="http://www.w3.org/2000/svg">
</g>
<g xmlns="http://www.w3.org/2000/svg">
</g>
<g xmlns="http://www.w3.org/2000/svg">
</g>
<g xmlns="http://www.w3.org/2000/svg">
</g>
<g xmlns="http://www.w3.org/2000/svg">
</g>
<g xmlns="http://www.w3.org/2000/svg">
</g>
<g xmlns="http://www.w3.org/2000/svg">
</g>
<g xmlns="http://www.w3.org/2000/svg">
</g>
<g xmlns="http://www.w3.org/2000/svg">
</g>
<g xmlns="http://www.w3.org/2000/svg">
</g>
<g xmlns="http://www.w3.org/2000/svg">
</g>
<g xmlns="http://www.w3.org/2000/svg">
</g>
</g></svg>
