<?xml version="1.0"?>
<svg xmlns="http://www.w3.org/2000/svg" xmlns:xlink="http://www.w3.org/1999/xlink" xmlns:svgjs="http://svgjs.com/svgjs" version="1.1" width="512" height="512" x="0" y="0" viewBox="0 0 60 60" style="enable-background:new 0 0 512 512" xml:space="preserve" class=""><g><g xmlns="http://www.w3.org/2000/svg" id="Page-1" fill="none" fill-rule="evenodd"><g id="066---Comment-Note" fill="rgb(0,0,0)" fill-rule="nonzero"><path id="Shape" d="m53 16c-.5522847 0-1 .4477153-1 1s.4477153 1 1 1c2.7600532.0033061 4.9966939 2.2399468 5 5v22c-.0033061 2.7600532-2.2399468 4.9966939-5 5h-15c-.9439012.0015673-1.8324054.4458194-2.4 1.2l-4.821 6.4c-.1808935.2501185-.4708227.3982414-.7795.3982414s-.5986065-.1481229-.7795-.3982414l-4.82-6.408c-.5691558-.751291-1.4574628-1.1924835-2.4-1.192h-15c-2.76005315-.0033061-4.99669388-2.2399468-5-5v-22c.00330612-2.7600532 2.23994685-4.9966939 5-5h23c.5522847 0 1-.4477153 1-1s-.4477153-1-1-1h-23c-3.86393756.0049584-6.99504164 3.1360624-7 7v22c.00495836 3.8639376 3.13606244 6.9950416 7 7h15c.3150937-.0014324.6120897.1470655.8.4l4.822 6.4c.5578533.7540752 1.440008 1.1992331 2.378 1.2.9373636-.0010812 1.8187774-.4462397 2.376-1.2l4.824-6.4c.1888544-.2518058.4852427-.4.8-.4h15c3.8639376-.0049584 6.9950416-3.1360624 7-7v-22c-.0049584-3.8639376-3.1360624-6.9950416-7-7z" fill="#1b5083" data-original="#000000" style=""/><path id="Shape" d="m57.828 8.3c1.5615278-1.56199941 1.5615278-4.09400059 0-5.656l-1.414-1.417c-1.5821292-1.51213879-4.0738708-1.51213879-5.656 0l-4.95 4.949-21.916 21.917c-.0832563.0829676-.1509909.1801668-.2.287l-3.715 8.02c-.3944556.7683567-.2424254 1.7040521.375 2.308.3717169.3780161.8788475.5921699 1.409.595.3028975-.0004885.6014947-.0717135.872-.208l8.038-3.723c.1068011-.0490652.2039909-.1167933.287-.2l21.921-21.92zm-5.656-5.659c.791167-.75581397 2.036833-.75581397 2.828 0l1.414 1.414c.7807639.7809997.7807639 2.0470003 0 2.828l-4.242 4.243-1.415-1.415.708-.711c.3530417-.39605424.3353217-.99888375-.0403743-1.37351689-.3756959-.37463313-.9785732-.39064539-1.3736257-.03648311l-.708.707-1.414-1.414zm-26.758 26.772c.4011968-.2829014.9467904-.2409327 1.3.1.1772348.1772382.2814476.414572.292.665.0506117 1.0116195.8593805 1.8203883 1.871 1.871.3692413.0160788.6995075.2345069.8588215.5679986s.121696.7276637-.0978215 1.0250014l-3.307 1.523c-.5449774-1.0490012-1.4011101-1.9037366-2.451-2.447zm-3.636 7.849 1.264-2.728c.6205335.3384954 1.1315525.847086 1.473 1.466zm27.565-23.307c-.3923789-.3789722-1.0160848-.3735524-1.4018186.0121814s-.3911536 1.0094397-.0121814 1.4018186l-16.394 16.393c-.4581417-.9998577-1.4363559-1.6601041-2.535-1.711-.0401464-.735208-.3498911-1.4298194-.87-1.951-.2450133-.2393267-.5317299-.4318268-.846-.568l16.4-16.4 1.416 1.408c.3923789.3789722 1.0160848.3735524 1.4018186-.0121814s.3911536-1.0094397.0121814-1.4018186l-1.414-1.415 1.415-1.411 2.119 2.119 2.119 2.119z" fill="#1b5083" data-original="#000000" style=""/><path id="Shape" d="m54.293 6.176c.2860606-.28597424.3716717-.71611576.2169084-1.08982722-.1547633-.37371147-.5194187-.61738633-.9239084-.61738633s-.7691451.24367486-.9239084.61738633c-.1547633.37371146-.0691522.80385298.2169084 1.08982722.3904999.39038194 1.0235001.39038194 1.414 0z" fill="#1b5083" data-original="#000000" style=""/><path id="Shape" d="m42.979 14.661-12.728 12.729c-.2759624.2473987-.3924625.6271353-.3027205.9867291.0897421.3595939.3710063.6400624.7308529.7287854s.7392517-.0288524.9858676-.3055145l12.729-12.725c.2525868-.2527654.3511378-.6210837.25853-.966213-.0926079-.3451292-.3623054-.6146361-.7075-.707-.3451947-.0923638-.7134432.0064476-.96603.259213z" fill="#1b5083" data-original="#000000" style=""/><path id="Shape" d="m6 21c-.55228475 0-1 .4477153-1 1s.44771525 1 1 1h1c.55228475 0 1-.4477153 1-1s-.44771525-1-1-1z" fill="#1b5083" data-original="#000000" style=""/><path id="Shape" d="m26 22c0-.5522847-.4477153-1-1-1h-14c-.5522847 0-1 .4477153-1 1s.4477153 1 1 1h14c.5522847 0 1-.4477153 1-1z" fill="#1b5083" data-original="#000000" style=""/><path id="Shape" d="m52 47h2c.5522847 0 1-.4477153 1-1s-.4477153-1-1-1h-2c-.5522847 0-1 .4477153-1 1s.4477153 1 1 1z" fill="#1b5083" data-original="#000000" style=""/><path id="Shape" d="m38 45c-.5522847 0-1 .4477153-1 1s.4477153 1 1 1h10c.5522847 0 1-.4477153 1-1s-.4477153-1-1-1z" fill="#1b5083" data-original="#000000" style=""/></g></g></g></svg>
