<?xml version="1.0"?>
<svg xmlns="http://www.w3.org/2000/svg" xmlns:xlink="http://www.w3.org/1999/xlink" xmlns:svgjs="http://svgjs.com/svgjs" version="1.1" width="512" height="512" x="0" y="0" viewBox="0 0 512 512" style="enable-background:new 0 0 512 512" xml:space="preserve" class=""><g><g xmlns="http://www.w3.org/2000/svg"><g><path d="m462.739 137.646c-31.763-31.76-73.823-49.251-118.431-49.251h-11.673v-8.562c0-.043 0-.087-.001-.13-.138-7.897-3.971-14.606-10.254-17.948-6.16-3.275-13.523-2.837-19.697 1.173-.12.078-.238.16-.354.245l-63.299 46.472c-6.321 3.936-9.938 9.864-9.938 16.316s3.617 12.381 9.939 16.317l63.299 46.472c.116.084.234.166.354.244 6.17 4.006 13.53 4.443 19.689 1.167 6.288-3.343 10.124-10.05 10.262-17.94 0-.043.001-.087.001-.131v-8.562h11.673c51.038 0 92.561 41.524 92.561 92.564 0 51.055-41.523 92.592-92.561 92.592h-42.153c-4.142 0-7.5 3.358-7.5 7.5v60.105c0 4.142 3.358 7.5 7.5 7.5h42.153c34.717 0 68.068-10.624 96.449-30.724 3.38-2.394 4.18-7.075 1.786-10.455-2.394-3.381-7.075-4.18-10.456-1.786-25.831 18.295-56.185 27.965-87.779 27.965h-34.653v-45.105h34.653c59.31 0 107.561-48.266 107.561-107.592 0-59.311-48.251-107.564-107.561-107.564h-19.173c-4.142 0-7.5 3.358-7.5 7.5v15.987c-.054 2.4-.872 4.14-2.305 4.902-1.251.666-2.821.516-4.329-.409l-63.344-46.505c-.182-.133-.369-.258-.562-.375-1.853-1.119-3.004-2.524-3.004-3.667s1.151-2.548 3.003-3.667c.193-.116.38-.242.562-.375l63.345-46.505c1.512-.927 3.085-1.08 4.335-.415 1.429.76 2.244 2.501 2.298 4.908v15.988c0 4.142 3.358 7.5 7.5 7.5h19.173c84.195 0 152.692 68.5 152.692 152.697 0 38.349-14.443 75.094-40.669 103.467-2.812 3.042-2.625 7.787.417 10.599 3.041 2.81 7.786 2.625 10.599-.417 28.795-31.154 44.653-71.516 44.653-113.65 0-44.617-17.495-86.681-49.261-118.445z" fill="#1b5083" data-original="#000000" style="" class=""/><path d="m228.435 226.939h61.298c4.142 0 7.5-3.358 7.5-7.5s-3.358-7.5-7.5-7.5h-61.298c-4.142 0-7.5 3.358-7.5 7.5s3.358 7.5 7.5 7.5z" fill="#1b5083" data-original="#000000" style="" class=""/><path d="m338.389 246.313h-158.637c-4.142 0-7.5 3.358-7.5 7.5s3.358 7.5 7.5 7.5h158.636c4.142 0 7.5-3.358 7.5-7.5.001-4.142-3.357-7.5-7.499-7.5z" fill="#1b5083" data-original="#000000" style="" class=""/><path d="m338.389 280.686h-158.637c-4.142 0-7.5 3.358-7.5 7.5s3.358 7.5 7.5 7.5h158.636c4.142 0 7.5-3.358 7.5-7.5s-3.357-7.5-7.499-7.5z" fill="#1b5083" data-original="#000000" style="" class=""/><path d="m272.939 369.736-63.295-46.47c-.116-.084-.234-.166-.354-.244-6.174-4.01-13.538-4.447-19.697-1.173-6.283 3.341-10.116 10.051-10.254 17.948 0 .043-.001.087-.001.13v8.562h-11.646c-51.054 0-92.589-41.524-92.589-92.564 0-51.055 41.535-92.592 92.589-92.592h42.709c4.142 0 7.5-3.358 7.5-7.5v-60.106c0-4.142-3.358-7.5-7.5-7.5h-42.709c-36.168 0-70.664 11.438-99.758 33.077-3.324 2.472-4.014 7.17-1.542 10.494s7.169 4.014 10.494 1.542c26.487-19.7 57.887-30.113 90.806-30.113h35.209v45.105h-35.209c-59.325 0-107.589 48.266-107.589 107.592 0 59.311 48.264 107.564 107.589 107.564h19.146c4.142 0 7.5-3.358 7.5-7.5v-15.988c.054-2.406.869-4.148 2.298-4.908 1.251-.665 2.824-.513 4.335.415l63.345 46.505c.184.136.375.262.571.38 1.861 1.121 3.017 2.523 3.016 3.66-.001 1.129-1.151 2.518-3 3.625-.202.12-.397.25-.586.389l-63.353 46.511c-1.506.932-3.075 1.087-4.324.425-1.431-.759-2.247-2.497-2.301-4.896v-15.987c0-4.142-3.358-7.5-7.5-7.5h-19.146c-84.195.002-152.693-68.497-152.693-152.694 0-36.931 13.509-72.654 38.038-100.59 2.733-3.113 2.425-7.852-.687-10.584-3.113-2.733-7.852-2.425-10.584.687-26.934 30.674-41.767 69.912-41.767 110.487 0 44.609 17.491 86.67 49.25 118.434 31.763 31.768 73.827 49.263 118.442 49.263h11.646v8.562c0 .043 0 .087.001.131.138 7.898 3.979 14.606 10.274 17.944 2.733 1.449 5.7 2.167 8.694 2.167 3.761 0 7.565-1.133 10.998-3.374.115-.075.228-.153.339-.235l63.289-46.464c6.334-3.916 9.962-9.83 9.97-16.279.007-6.463-3.619-12.398-9.964-16.338z" fill="#1b5083" data-original="#000000" style="" class=""/></g></g></g></svg>
