<svg height="512" viewBox="0 0 256 256" width="512" xmlns="http://www.w3.org/2000/svg"><path d="m166.98 55.872-32.52-32.52h-112.263v198.323h144.783z" fill="#f8af23"/><path d="m134.46 23.351h-10l32.52 32.521v165.804h10v-165.804z" fill="#f8d323"/><path d="m22.197 23.351h10v198.324h-10z" fill="#f87023"/><circle cx="166.98" cy="154.852" fill="#63bce7" r="66.823"/><path d="m166.98 88.03c-1.684 0-3.347.083-5 .206a66.8 66.8 0 0 1 0 133.234c1.653.123 3.316.206 5 .206a66.823 66.823 0 1 0 0-133.646z" fill="#63e2e7"/><circle cx="166.98" cy="154.852" fill="#cecece" r="44.062"/><path d="m166.98 110.791a44.483 44.483 0 0 0 -5 .291 44.055 44.055 0 0 1 0 87.542 44.059 44.059 0 1 0 5-87.833z" fill="#e2e2e2"/><circle cx="166.98" cy="154.852" fill="#f46275" r="8.928"/><g fill="#3f3679"><path d="m121.419 154.853a45.562 45.562 0 1 0 45.562-45.562 45.613 45.613 0 0 0 -45.562 45.562zm88.085-1.5h-8.462a1.5 1.5 0 0 0 0 3h8.458a42.6 42.6 0 0 1 -41.023 41.023v-8.462a1.5 1.5 0 0 0 -3 0v8.462a42.6 42.6 0 0 1 -41.023-41.023h8.462a1.5 1.5 0 0 0 0-3h-8.462a42.6 42.6 0 0 1 41.023-41.023v8.462a1.5 1.5 0 1 0 3 0v-8.462a42.6 42.6 0 0 1 41.023 41.023z"/><path d="m49.088 69.291h91a1.5 1.5 0 0 0 0-3h-91a1.5 1.5 0 0 0 0 3z"/><path d="m49.088 90.791h91a1.5 1.5 0 0 0 0-3h-91a1.5 1.5 0 0 0 0 3z"/><path d="m168.48 144.544v-13.253a1.5 1.5 0 0 0 -3 0v13.253a10.422 10.422 0 1 0 8.147 18.336l17.18 15.524a1.5 1.5 0 0 0 2.012-2.227l-17.179-15.522a10.411 10.411 0 0 0 -7.159-16.111zm5.928 10.308a7.37 7.37 0 0 1 -1.032 3.758l-4.9-4.424v-6.61a7.441 7.441 0 0 1 5.933 7.277zm-7.428 7.428a7.429 7.429 0 0 1 -1.5-14.7v7.276a1.5 1.5 0 0 0 .494 1.113l5.389 4.87a7.379 7.379 0 0 1 -4.383 1.441z"/><path d="m27.323 231.148h-18a1.5 1.5 0 1 0 0 3h18a1.5 1.5 0 0 0 0-3z"/><path d="m246.68 231.148h-18a1.5 1.5 0 0 0 0 3h18a1.5 1.5 0 1 0 0-3z"/><path d="m218.479 231.148h-180.958a1.5 1.5 0 0 0 0 3h180.958a1.5 1.5 0 0 0 0-3z"/><path d="m9.32 223.176h237.36a1.5 1.5 0 0 0 0-3h-59.68a68.31 68.31 0 0 0 -18.52-133.609v-30.7a1.5 1.5 0 0 0 -.439-1.061l-32.52-32.515a1.5 1.5 0 0 0 -1.061-.439h-112.26a1.5 1.5 0 0 0 -1.5 1.5v196.824h-11.38a1.5 1.5 0 1 0 0 3zm222.98-68.323a65.323 65.323 0 1 1 -65.32-65.324 65.4 65.4 0 0 1 65.32 65.324zm-96.34-127.88 27.4 27.4h-27.4zm-112.26-2.121h109.26v31.02a1.5 1.5 0 0 0 1.5 1.5h31.02v29.2a68.159 68.159 0 0 0 -49.359 22.724h-67.436a1.5 1.5 0 0 0 0 3h64.907a68.312 68.312 0 0 0 -10.547 18.5h-54.545a1.5 1.5 0 0 0 0 3h53.5a67.94 67.94 0 0 0 -3.272 18.5h-49.64a1.5 1.5 0 1 0 0 3h49.58a68.08 68.08 0 0 0 2.68 18.5h-52.26a1.5 1.5 0 1 0 0 3h53.2a68.195 68.195 0 0 0 9.662 18.5h-62.862a1.5 1.5 0 1 0 0 3h65.194a68.528 68.528 0 0 0 32.677 21.885h-123.259z"/></g></svg>