<svg id="flat" height="512" viewBox="0 0 512 512" width="512" xmlns="http://www.w3.org/2000/svg"><path d="m216 360h80v80h-80z" fill="#cad8ed"/><path d="m256 400a7.99977 7.99977 0 0 1 -8-8v-32a8 8 0 0 1 16 0v32a7.99977 7.99977 0 0 1 -8 8z" fill="#a6bce3"/><path d="m24 96h240v-48h-224a16 16 0 0 0 -16 16z" fill="#89a8f5"/><path d="m264 96v176h224v72a16 16 0 0 1 -16 16h-432a16 16 0 0 1 -16-16v-248z" fill="#5771e5"/><path d="m104 240h32v64h-32z" fill="#51a37e"/><path d="m136 200h32v104h-32z" fill="#5ebd92"/><path d="m168 168h32v136h-32z" fill="#90d4b1"/><path d="m200 128h32v176h-32z" fill="#b6e3cc"/><path d="m72 272h32v32h-32z" fill="#308c72"/><path d="m184 440h144v32h-144z" fill="#e4e9f2"/><g fill="#f7d179"><path d="m432 128h-48a7.99877 7.99877 0 0 1 -5.65674-2.34326l-29.65674-29.65674h-60.68652v-16h64a7.99877 7.99877 0 0 1 5.65674 2.34326l29.65674 29.65674h44.68652z"/><path d="m288 48h72v16h-72z"/><path d="m390.07422 125.20654-12.14844-10.41308 48-56a8.00106 8.00106 0 0 1 6.07422-2.79346h24v16h-20.32031z"/><path d="m370.34326 157.65674-21.65674-21.65674h-60.68652v-16h64a7.99877 7.99877 0 0 1 5.65674 2.34326l24 24z"/><path d="m408 240h-120v-16h116.15479l29.59814-36.99756 12.49414 9.99512-32 40a7.99951 7.99951 0 0 1 -6.24707 3.00244z"/><path d="m288 184h40v16h-40z"/></g><circle cx="48" cy="72" fill="#f28868" r="8"/><circle cx="72" cy="72" fill="#f7c04a" r="8"/><circle cx="96" cy="72" fill="#90d4b1" r="8"/><path d="m48 296h224v16h-224z" fill="#3d44d1"/><path d="m288 296h16v16h-16z" fill="#3d44d1"/><circle cx="448" cy="120" fill="#f7c04a" r="16"/><path d="m448 144a24 24 0 1 1 24-24 24.02687 24.02687 0 0 1 -24 24zm0-32a8 8 0 1 0 8 8 8.00917 8.00917 0 0 0 -8-8z" fill="#f7dfa1"/><circle cx="448" cy="184" fill="#f7c04a" r="16"/><path d="m448 208a24 24 0 1 1 24-24 24.02687 24.02687 0 0 1 -24 24zm0-32a8 8 0 1 0 8 8 8.00917 8.00917 0 0 0 -8-8z" fill="#f7dfa1"/><circle cx="384" cy="160" fill="#f7c04a" r="16"/><path d="m384 184a24 24 0 1 1 24-24 24.02687 24.02687 0 0 1 -24 24zm0-32a8 8 0 1 0 8 8 8.00917 8.00917 0 0 0 -8-8z" fill="#f7dfa1"/><circle cx="344" cy="192" fill="#f7c04a" r="16"/><path d="m344 216a24 24 0 1 1 24-24 24.02687 24.02687 0 0 1 -24 24zm0-32a8 8 0 1 0 8 8 8.00917 8.00917 0 0 0 -8-8z" fill="#f7dfa1"/><circle cx="472" cy="64" fill="#f7c04a" r="16"/><path d="m472 88a24 24 0 1 1 24-24 24.02687 24.02687 0 0 1 -24 24zm0-32a8 8 0 1 0 8 8 8.00917 8.00917 0 0 0 -8-8z" fill="#f7dfa1"/><circle cx="376" cy="56" fill="#f7c04a" r="16"/><path d="m376 80a24 24 0 1 1 24-24 24.02687 24.02687 0 0 1 -24 24zm0-32a8 8 0 1 0 8 8 8.00917 8.00917 0 0 0 -8-8z" fill="#f7dfa1"/></svg>