<?xml version="1.0"?>
<svg xmlns="http://www.w3.org/2000/svg" xmlns:xlink="http://www.w3.org/1999/xlink" xmlns:svgjs="http://svgjs.com/svgjs" version="1.1" width="512" height="512" x="0" y="0" viewBox="0 0 512 512" style="enable-background:new 0 0 512 512" xml:space="preserve" class=""><g><g xmlns="http://www.w3.org/2000/svg"><path d="m388.645 350.316-85.071 42.132c-3-12.572-12.469-23.27-25.728-27.198l-39.39-11.676c-28.399-8.443-65.775-15.379-103.013 6.097-2.363 1.355-4.479 2.711-6.347 3.908-7.079 4.537-11.41 7.296-23.776 7.374-3.97-9.775-13.566-16.688-24.752-16.688h-40.361c-14.726 0-26.707 11.975-26.707 26.695v93.624c0 14.72 11.98 26.695 26.707 26.695h40.362c14.139 0 25.74-11.041 26.643-24.95 16.715.231 27.667 1.493 50.348 8.159 12.474 3.673 65.792 19.182 69.85 20.359 13.398 3.886 24.659 7.153 36.396 7.152 13.254 0 27.114-4.167 45.335-16.311.085-.057.169-.115.252-.174l117.137-83.359c16.622-11.807 21.457-33.127 11.254-49.577-10.026-16.222-30.687-21.38-49.139-12.262zm-301.37 124.268c0 3.692-3.008 6.696-6.707 6.696h-40.361c-3.698 0-6.707-3.004-6.707-6.696v-93.624c0-3.692 3.008-6.696 6.707-6.696h40.362c3.698 0 6.707 3.004 6.707 6.696v93.624zm327.666-78.726-117.019 83.274c-26.53 17.649-37.793 14.382-64.941 6.508-4.111-1.192-57.313-16.667-69.776-20.337-24.316-7.147-36.33-8.677-55.93-8.962v-65.417c16.919-.456 24.895-5.56 32.613-10.506 1.754-1.125 3.567-2.287 5.525-3.409 24.245-13.983 50.366-15.258 87.352-4.262l39.398 11.678c9.116 2.701 14.38 12.274 11.741 21.348-.005.015-.009.03-.014.044-2.664 9.076-12.258 14.301-21.391 11.656l-56.332-16.327c-5.306-1.538-10.852 1.516-12.388 6.821-1.538 5.304 1.516 10.851 6.821 12.388l56.332 16.327c18.193 5.272 37.242-3.985 44.579-20.896l96.002-47.546c7.71-3.811 18.176-3.368 23.265 4.866 4.567 7.363 2.06 17.142-5.837 22.752z" fill="#1b5083" data-original="#000000" style="" class=""/><path d="m215.844 229.028 41.411 39.939c1.938 1.868 4.439 2.802 6.942 2.802s5.005-.934 6.942-2.802l41.411-39.939c.086-.083.172-.169.255-.255 15.09-15.644 15.09-41.099-.011-56.753-12.533-12.956-33.771-13.413-48.61-1.483-14.831-11.941-36.073-11.486-48.588 1.485-15.132 15.649-15.132 41.112 0 56.76.082.083.164.165.248.246zm14.139-43.113c6.302-6.532 16.724-4.484 22.766 1.158l.395.37c2.974 2.783 6.049 5.661 11.05 5.661 5.019 0 8.087-2.888 11.054-5.681l.37-.349c6.044-5.643 16.479-7.685 22.794-1.159 7.537 7.814 7.574 20.99.111 28.857l-34.325 33.105-34.331-33.11c-7.612-7.993-7.575-20.898.116-28.852z" fill="#1b5083" data-original="#000000" style="" class=""/><path d="m39.866 226.813h54.09c5.523 0 10-4.477 10-10s-4.477-10-10-10h-54.09c-5.523 0-10 4.477-10 10s4.477 10 10 10z" fill="#1b5083" data-original="#000000" style="" class=""/><path d="m42.683 159.358 46.915 22.903c1.413.689 2.908 1.016 4.38 1.016 3.702 0 7.26-2.064 8.994-5.615 2.423-4.963.364-10.95-4.599-13.373l-46.915-22.903c-4.965-2.423-10.951-.364-13.374 4.599s-.364 10.95 4.599 13.373z" fill="#1b5083" data-original="#000000" style="" class=""/><path d="m89.598 251.365-46.915 22.903c-4.963 2.423-7.022 8.41-4.599 13.373 1.733 3.551 5.291 5.615 8.994 5.615 1.472 0 2.968-.327 4.38-1.016l46.915-22.903c4.963-2.423 7.022-8.41 4.599-13.373-2.424-4.963-8.411-7.023-13.374-4.599z" fill="#1b5083" data-original="#000000" style="" class=""/><path d="m488.5 206.813h-54.09c-5.522 0-10 4.477-10 10s4.478 10 10 10h54.09c5.522 0 10-4.477 10-10s-4.477-10-10-10z" fill="#1b5083" data-original="#000000" style="" class=""/><path d="m434.418 183.277c1.473 0 2.969-.327 4.382-1.017l46.886-22.903c4.962-2.424 7.02-8.412 4.596-13.374-2.425-4.962-8.409-7.02-13.375-4.596l-46.886 22.903c-4.962 2.424-7.02 8.412-4.596 13.374 1.734 3.549 5.291 5.613 8.993 5.613z" fill="#1b5083" data-original="#000000" style="" class=""/><path d="m485.686 274.269-46.886-22.903c-4.965-2.424-10.951-.365-13.375 4.596-2.424 4.962-.366 10.95 4.596 13.374l46.886 22.903c1.413.69 2.909 1.017 4.382 1.017 3.701 0 7.259-2.064 8.993-5.613 2.423-4.962.366-10.95-4.596-13.374z" fill="#1b5083" data-original="#000000" style="" class=""/><path d="m137.734 137.547v146.245c0 18.924 15.403 34.32 34.336 34.32h184.252c18.918 0 34.309-15.396 34.309-34.32v-146.24c15.113-2.766 26.605-16.017 26.605-31.909v-14.201c0-17.893-14.563-32.449-32.465-32.449h-20.714c2.373-8.845 1.765-18.395-2.003-27.764-6.748-16.781-22.258-29.241-38.594-31.004-14.788-1.594-28.258 5.345-37.925 19.554l-21.344 31.423-21.366-31.425c-9.651-14.201-23.108-21.142-37.899-19.554-16.342 1.759-31.859 14.219-38.613 31.007-3.769 9.369-4.378 18.918-2.006 27.762h-20.687c-17.901 0-32.464 14.556-32.464 32.449v14.201c.001 15.883 11.48 29.128 26.578 31.905zm164.344-106.525c5.462-8.029 11.942-11.704 19.237-10.913 9.056.977 18.178 8.618 22.185 18.581 1.752 4.356 3.669 12.311-.901 20.303h-59.52zm-117.208 7.673c4.011-9.969 13.139-17.612 22.199-18.587 7.296-.788 13.764 2.886 19.219 10.912l19.019 27.973h-59.538c-4.569-7.99-2.651-15.943-.899-20.298zm-53.713 52.747c0-6.865 5.591-12.449 12.464-12.449h241.151c6.873 0 12.465 5.585 12.465 12.449v14.201c0 6.865-5.592 12.449-12.465 12.449h-120.575c-5.522 0-10 4.477-10 10s4.478 10 10 10h106.435v145.701c0 7.896-6.419 14.32-14.309 14.32h-184.252c-7.905 0-14.336-6.424-14.336-14.32v-145.701h15.131c5.523 0 10-4.477 10-10s-4.477-10-10-10h-29.244c-6.873 0-12.464-5.585-12.464-12.449v-14.201z" fill="#1b5083" data-original="#000000" style="" class=""/><path d="m217.794 138.092c5.523 0 10-4.477 10-10s-4.477-10-10-10h-.028c-5.523 0-9.986 4.477-9.986 10-.001 5.523 4.491 10 10.014 10z" fill="#1b5083" data-original="#000000" style="" class=""/></g></g></svg>
