<?xml version="1.0"?>
<svg xmlns="http://www.w3.org/2000/svg" xmlns:xlink="http://www.w3.org/1999/xlink" xmlns:svgjs="http://svgjs.com/svgjs" version="1.1" width="512" height="512" x="0" y="0" viewBox="0 0 64 64" style="enable-background:new 0 0 512 512" xml:space="preserve" class=""><g><g xmlns="http://www.w3.org/2000/svg" id="feature"><path d="m40 42h2v2h-2z" fill="#1b5083" data-original="#000000" style="" class=""/><path d="m36 42h2v2h-2z" fill="#1b5083" data-original="#000000" style="" class=""/><path d="m32 42h2v2h-2z" fill="#1b5083" data-original="#000000" style="" class=""/><path d="m61.12 47.11-2.4-.31 1.49-1.91a1.006 1.006 0 0 0 -.08-1.32l-2.7-2.7a1.006 1.006 0 0 0 -1.32-.08l-1.91 1.49-.31-2.4a1 1 0 0 0 -.99-.88h-3.8a1 1 0 0 0 -.99.88l-.31 2.4-1.81-1.42a3 3 0 0 0 -2.99-2.86h-22a3 3 0 0 0 -2.99 2.86l-1.81 1.42-.31-2.4a1 1 0 0 0 -.99-.88h-3.8a1 1 0 0 0 -.99.88l-.31 2.4-1.91-1.49a1 1 0 0 0 -1.32.08l-2.7 2.7a1.006 1.006 0 0 0 -.08 1.32l1.49 1.91-2.4.31a1 1 0 0 0 -.88.99v3.8a1 1 0 0 0 .88.99l2.4.31-1.49 1.91a1.006 1.006 0 0 0 .08 1.32l2.7 2.7a1.006 1.006 0 0 0 1.32.08l1.91-1.49.31 2.4a1 1 0 0 0 .99.88h3.8a1 1 0 0 0 .99-.88l.31-2.4 1.81 1.42a3 3 0 0 0 2.99 2.86h22a3 3 0 0 0 2.99-2.86l1.81-1.42.31 2.4a1 1 0 0 0 .99.88h3.8a1 1 0 0 0 .99-.88l.31-2.4 1.91 1.49a1.006 1.006 0 0 0 1.32-.08l2.7-2.7a1.006 1.006 0 0 0 .08-1.32l-1.49-1.91 2.4-.31a1 1 0 0 0 .88-.99v-3.8a1 1 0 0 0 -.88-.99zm-43.12 9.48-1.25-.97a.98.98 0 0 0 -1.04-.11 4.26 4.26 0 0 1 -.7.28 1.019 1.019 0 0 0 -.69.83l-.3 2.38h-2.04l-.3-2.38a1.019 1.019 0 0 0 -.69-.83 4.26 4.26 0 0 1 -.7-.28.982.982 0 0 0 -1.04.11l-1.89 1.47-1.45-1.45 1.47-1.89a.982.982 0 0 0 .11-1.04 4.26 4.26 0 0 1 -.28-.7 1.019 1.019 0 0 0 -.83-.69l-2.38-.3v-2.04l2.38-.3a1.019 1.019 0 0 0 .83-.69 4.26 4.26 0 0 1 .28-.7.982.982 0 0 0 -.11-1.04l-1.47-1.89 1.45-1.45 1.89 1.47a.982.982 0 0 0 1.04.11 4.26 4.26 0 0 1 .7-.28 1.019 1.019 0 0 0 .69-.83l.3-2.38h2.04l.3 2.38a1.019 1.019 0 0 0 .69.83 4.26 4.26 0 0 1 .7.28.98.98 0 0 0 1.04-.11l1.25-.97zm26 2.41a1 1 0 0 1 -1 1h-22a1 1 0 0 1 -1-1v-11h24zm0-13h-24v-5a1 1 0 0 1 1-1h22a1 1 0 0 1 1 1zm16 5.02-2.38.3a1.019 1.019 0 0 0 -.83.69 4.26 4.26 0 0 1 -.28.7.982.982 0 0 0 .11 1.04l1.47 1.89-1.45 1.45-1.89-1.47a.98.98 0 0 0 -1.04-.11 4.26 4.26 0 0 1 -.7.28 1.019 1.019 0 0 0 -.69.83l-.3 2.38h-2.04l-.3-2.38a1.019 1.019 0 0 0 -.69-.83 4.26 4.26 0 0 1 -.7-.28.982.982 0 0 0 -1.04.11l-1.25.97v-13.18l1.25.97a.982.982 0 0 0 1.04.11 4.26 4.26 0 0 1 .7-.28 1.019 1.019 0 0 0 .69-.83l.3-2.38h2.04l.3 2.38a1.019 1.019 0 0 0 .69.83 4.26 4.26 0 0 1 .7.28.98.98 0 0 0 1.04-.11l1.89-1.47 1.45 1.45-1.47 1.89a.982.982 0 0 0 -.11 1.04 4.26 4.26 0 0 1 .28.7 1.019 1.019 0 0 0 .83.69l2.38.3z" fill="#1b5083" data-original="#000000" style="" class=""/><path d="m51 55a5 5 0 1 0 -5-5 5.006 5.006 0 0 0 5 5zm0-8a3 3 0 1 1 -3 3 3 3 0 0 1 3-3z" fill="#1b5083" data-original="#000000" style="" class=""/><path d="m13 45a5 5 0 1 0 5 5 5.006 5.006 0 0 0 -5-5zm0 8a3 3 0 1 1 3-3 3 3 0 0 1 -3 3z" fill="#1b5083" data-original="#000000" style="" class=""/><path d="m56 2h-8a3.009 3.009 0 0 0 -3 3v16a3.009 3.009 0 0 0 3 3h8a3.009 3.009 0 0 0 3-3v-16a3.009 3.009 0 0 0 -3-3zm-2 2a1 1 0 0 1 -1 1h-2a1 1 0 0 1 -1-1zm3 17a1 1 0 0 1 -1 1h-8a1 1 0 0 1 -1-1v-16a1 1 0 0 1 1-1 3.009 3.009 0 0 0 3 3h2a3.009 3.009 0 0 0 3-3 1 1 0 0 1 1 1z" fill="#1b5083" data-original="#000000" style="" class=""/><path d="m17 2h-12a3.009 3.009 0 0 0 -3 3v16a3.009 3.009 0 0 0 3 3h12a3.009 3.009 0 0 0 3-3v-16a3.009 3.009 0 0 0 -3-3zm1 19a1 1 0 0 1 -1 1h-12a1 1 0 0 1 -1-1v-16a1 1 0 0 1 1-1h12a1 1 0 0 1 1 1z" fill="#1b5083" data-original="#000000" style="" class=""/><path d="m10 18h2v2h-2z" fill="#1b5083" data-original="#000000" style="" class=""/><path d="m28 35h2v-22a1 1 0 0 0 -1-1h-7v2h6z" fill="#1b5083" data-original="#000000" style="" class=""/><path d="m36 14h6v-2h-7a1 1 0 0 0 -1 1v22h2z" fill="#1b5083" data-original="#000000" style="" class=""/></g></g></svg>
