<?xml version="1.0"?>
<svg xmlns="http://www.w3.org/2000/svg" xmlns:xlink="http://www.w3.org/1999/xlink" xmlns:svgjs="http://svgjs.com/svgjs" version="1.1" width="512" height="512" x="0" y="0" viewBox="0 0 512 512" style="enable-background:new 0 0 512 512" xml:space="preserve" class=""><g><g xmlns="http://www.w3.org/2000/svg"><path d="m473.564 23.364h-435.128c-21.193 0-38.436 17.243-38.436 38.436v313.694c0 21.193 17.243 38.436 38.436 38.436h83.765v57.284c0 9.606 7.815 17.421 17.421 17.421h22.832c9.606 0 17.421-7.815 17.421-17.421v-2.023h57.312c5.562 0 10.087-4.525 10.087-10.087v-23.064c0-5.562-4.525-10.087-10.087-10.087h-13.829v-3.69h13.829c5.562 0 10.087-4.525 10.087-10.087v-25.41c0-5.562-4.525-10.087-10.087-10.087h-13.829v-12.91c0-5.562-4.525-10.087-10.087-10.087h-33.396v-36.84c34.508-12.125 58.146-45.084 58.146-82.062 0-23.624-9.31-45.726-26.214-62.235-16.899-16.503-39.225-25.268-62.877-24.723-47.699 1.131-85.767 40.895-84.859 88.641.163 8.615 1.588 17.107 4.235 25.239 1.276 3.921 5.491 6.066 9.411 4.789 3.921-1.276 6.065-5.489 4.789-9.411-2.19-6.728-3.369-13.761-3.505-20.901-.752-39.553 30.777-72.492 70.283-73.429 19.606-.465 38.092 6.808 52.089 20.478 14.003 13.675 21.715 31.983 21.715 51.551 0 32.22-21.664 60.756-52.682 69.395-3.229.899-5.463 3.841-5.463 7.193v44.517c-2.32 1.85-3.813 4.694-3.813 7.885v95.335c0 3.191 1.493 6.035 3.813 7.885v4.225c0 1.372-1.117 2.489-2.489 2.489h-22.832c-1.372 0-2.489-1.117-2.489-2.489v-159.846c0-3.352-2.234-6.293-5.464-7.193-12.947-3.605-24.62-10.778-33.759-20.743-2.787-3.04-7.511-3.244-10.549-.456-3.04 2.787-3.244 7.51-.456 10.549 9.727 10.607 21.84 18.594 35.295 23.318v82.155h-83.764c-12.96 0-23.503-10.544-23.503-23.503v-251.73h403.125c4.124 0 7.466-3.343 7.466-7.466s-3.342-7.466-7.466-7.466h-403.125v-47.033c0-12.96 10.544-23.503 23.503-23.503h435.128c12.96 0 23.503 10.544 23.503 23.503v47.032h-45c-4.124 0-7.466 3.343-7.466 7.466s3.342 7.466 7.466 7.466h45v251.73c0 12.96-10.543 23.503-23.503 23.503h-198.089c-4.124 0-7.466 3.343-7.466 7.466s3.342 7.466 7.466 7.466h198.089c21.194 0 38.436-17.243 38.436-38.436v-313.693c0-21.193-17.243-38.436-38.436-38.436zm-255.05 368.248h13.829v15.718h-13.829c-5.562 0-10.087 4.525-10.087 10.087v13.381c0 5.562 4.525 10.087 10.087 10.087h13.829v13.374h-56.279v-85.645h32.363v12.91c-.001 5.563 4.524 10.088 10.087 10.088z" fill="#1379ab" data-original="#000000" style="" class=""/><circle cx="63.564" cy="73.564" r="13.894" fill="#1379ab" data-original="#000000" style="" class=""/><circle cx="106.306" cy="73.564" r="13.894" fill="#1379ab" data-original="#000000" style="" class=""/><circle cx="149.048" cy="73.564" r="13.894" fill="#1379ab" data-original="#000000" style="" class=""/><path d="m307.187 298.791h.043c3.156 0 5.973-1.985 7.033-4.96l33.824-94.912 32.345 94.816c1.028 3.013 3.853 5.042 7.036 5.056h.031c3.17 0 5.996-2.003 7.046-4.997l40.034-114.214c1.364-3.892-.685-8.152-4.577-9.516-3.889-1.367-8.152.684-9.516 4.576l-32.893 93.839-32.286-94.645c-2.197-6.517-11.766-6.663-14.1-.096l-33.85 94.984-32.271-93.905c-1.34-3.9-5.586-5.973-9.487-4.634-3.899 1.34-5.975 5.588-4.634 9.487l39.203 114.079c1.033 3.003 3.847 5.024 7.019 5.042z" fill="#1379ab" data-original="#000000" style="" class=""/><path d="m190.984 234.78c0-22.026-17.919-39.945-39.945-39.945s-39.945 17.919-39.945 39.945 17.919 39.945 39.945 39.945 39.945-17.919 39.945-39.945zm-64.958 0c0-13.792 11.22-25.012 25.012-25.012s25.012 11.22 25.012 25.012-11.22 25.012-25.012 25.012c-13.791.001-25.012-11.22-25.012-25.012z" fill="#1379ab" data-original="#000000" style="" class=""/></g></g></svg>
