<?xml version="1.0"?>
<svg xmlns="http://www.w3.org/2000/svg" xmlns:xlink="http://www.w3.org/1999/xlink" xmlns:svgjs="http://svgjs.com/svgjs" version="1.1" width="512" height="512" x="0" y="0" viewBox="0 0 496 496" style="enable-background:new 0 0 512 512" xml:space="preserve" class=""><g>
<g xmlns="http://www.w3.org/2000/svg">
	<g>
		<g>
			<path d="M288,40c0-22.056-17.944-40-40-40c-22.056,0-40,17.944-40,40c0,22.056,17.944,40,40,40C270.056,80,288,62.056,288,40z      M248,64c-13.232,0-24-10.768-24-24s10.768-24,24-24s24,10.768,24,24S261.232,64,248,64z" fill="#ef8600" data-original="#000000" style=""/>
			<path d="M472,433.136V384h-40v-40h32v-80h-32v-56H256v-48h40v-40c0-22.056-17.944-40-40-40h-8h-8c-22.056,0-40,17.944-40,40v40     h40v48H64v56H32v80h32v40H24v49.136C10.232,436.712,0,449.128,0,464c0,17.648,14.352,32,32,32s32-14.352,32-32     c0-14.872-10.232-27.288-24-30.864V400h64v33.136C90.232,436.712,80,449.128,80,464c0,17.648,14.352,32,32,32s32-14.352,32-32     c0-14.872-10.232-27.288-24-30.864V384H80v-40h32v-80H80v-40h160v40h-32v80h32v40h-40v49.136c-13.768,3.576-24,15.992-24,30.864     c0,17.648,14.352,32,32,32s32-14.352,32-32c0-14.872-10.232-27.288-24-30.864V400h64v33.136c-13.768,3.576-24,15.992-24,30.864     c0,17.648,14.352,32,32,32s32-14.352,32-32c0-14.872-10.232-27.288-24-30.864V384h-40v-40h32v-80h-32v-40h160v40h-32v80h32v40     h-40v49.136c-13.768,3.576-24,15.992-24,30.864c0,17.648,14.352,32,32,32s32-14.352,32-32c0-14.872-10.232-27.288-24-30.864V400     h64v33.136c-13.768,3.576-24,15.992-24,30.864c0,17.648,14.352,32,32,32s32-14.352,32-32     C496,449.128,485.768,436.712,472,433.136z M48,464c0,8.824-7.176,16-16,16s-16-7.176-16-16c0-8.824,7.176-16,16-16     S48,455.176,48,464z M128,464c0,8.824-7.176,16-16,16c-8.824,0-16-7.176-16-16c0-8.824,7.176-16,16-16     C120.824,448,128,455.176,128,464z M96,280v48H48v-48H96z M224,464c0,8.824-7.176,16-16,16c-8.824,0-16-7.176-16-16     c0-8.824,7.176-16,16-16C216.824,448,224,455.176,224,464z M304,464c0,8.824-7.176,16-16,16c-8.824,0-16-7.176-16-16     c0-8.824,7.176-16,16-16C296.824,448,304,455.176,304,464z M272,280v48h-48v-48H272z M216,144v-24c0-13.232,10.768-24,24-24v16     h16V96c13.232,0,24,10.768,24,24v24H216z M400,464c0,8.824-7.176,16-16,16c-8.824,0-16-7.176-16-16c0-8.824,7.176-16,16-16     C392.824,448,400,455.176,400,464z M400,328v-48h48v48H400z M464,480c-8.824,0-16-7.176-16-16c0-8.824,7.176-16,16-16     c8.824,0,16,7.176,16,16C480,472.824,472.824,480,464,480z" fill="#ef8600" data-original="#000000" style=""/>
		</g>
	</g>
</g>
<g xmlns="http://www.w3.org/2000/svg">
</g>
<g xmlns="http://www.w3.org/2000/svg">
</g>
<g xmlns="http://www.w3.org/2000/svg">
</g>
<g xmlns="http://www.w3.org/2000/svg">
</g>
<g xmlns="http://www.w3.org/2000/svg">
</g>
<g xmlns="http://www.w3.org/2000/svg">
</g>
<g xmlns="http://www.w3.org/2000/svg">
</g>
<g xmlns="http://www.w3.org/2000/svg">
</g>
<g xmlns="http://www.w3.org/2000/svg">
</g>
<g xmlns="http://www.w3.org/2000/svg">
</g>
<g xmlns="http://www.w3.org/2000/svg">
</g>
<g xmlns="http://www.w3.org/2000/svg">
</g>
<g xmlns="http://www.w3.org/2000/svg">
</g>
<g xmlns="http://www.w3.org/2000/svg">
</g>
<g xmlns="http://www.w3.org/2000/svg">
</g>
</g></svg>
