<svg id="Capa_1" enable-background="new 0 0 512 512" height="512" viewBox="0 0 512 512" width="512" xmlns="http://www.w3.org/2000/svg"><g><g><g><path d="m474.5 504.5h-437c-16.569 0-30-13.431-30-30v-287l15-60c0-16.569 13.431-15 30-15h422c16.569 0 15-1.569 15 15l15 60v287c0 16.569-13.431 30-30 30z" fill="#eaf6ff"/><path d="m474.5 187.5v287c0 16.569-13.431 30-30 30h30c16.569 0 30-13.431 30-30v-287z" fill="#d8ecfe"/><path d="m474.5 97.5h-437c-16.569 0-30 13.431-30 30v60h497v-60c0-16.569-13.431-30-30-30z" fill="#3d6d93"/><path d="m474.5 97.5h-30c16.569 0 30 13.431 30 30v60h30v-60c0-16.569-13.431-30-30-30z" fill="#335e80"/></g><g><path d="m443.5 460v-31c0-3.866-3.134-7-7-7h-68l-15 45h83c3.866 0 7-3.134 7-7z" fill="#aee69c"/><path d="m436.5 422h-30c3.866 0 7 3.134 7 7v31c0 3.866-3.134 7-7 7h30c3.866 0 7-3.134 7-7v-31c0-3.866-3.134-7-7-7z" fill="#89daa4"/><path d="m353.5 467 15-45h-75l-15 45z" fill="#ffe179"/><path d="m278.5 467 15-45h-75l-15 45z" fill="#aee69c"/><path d="m203.5 467 15-45h-75l-15 45z" fill="#ffe179"/><path d="m128.5 467 15-45h-68c-3.866 0-7 3.134-7 7v31c0 3.866 3.134 7 7 7z" fill="#aee69c"/></g><g><g><path d="m330.728 365.59h-149.456c-12.513 0-22.658-10.144-22.658-22.658v-87.775c0-12.513 10.144-22.658 22.658-22.658h149.457c12.513 0 22.658 10.144 22.658 22.658v87.775c-.001 12.514-10.145 22.658-22.659 22.658z" fill="#f58a97"/><path d="m330.729 232.5h-30c12.513 0 22.657 10.144 22.657 22.657v87.775c0 12.513-10.144 22.657-22.657 22.657h30c12.513 0 22.657-10.144 22.657-22.657v-87.775c0-12.513-10.144-22.657-22.657-22.657z" fill="#f07281"/><path d="m278.455 302.868-39.776 26.756c-3.057 2.056-7.169-.136-7.169-3.823v-53.512c0-3.686 4.112-5.879 7.169-3.823l39.776 26.756c2.713 1.825 2.713 5.821 0 7.646z" fill="#fff"/></g></g><g><circle cx="256" cy="82" fill="#aee69c" r="74.5"/><path d="m256 7.5c-5.138 0-10.155.521-15 1.511 33.956 6.941 59.5 36.982 59.5 72.989s-25.544 66.048-59.5 72.989c4.845.99 9.862 1.511 15 1.511 41.145 0 74.5-33.355 74.5-74.5s-33.355-74.5-74.5-74.5z" fill="#89daa4"/></g></g><path d="m99.627 136.927c-4.142 0-7.5 3.358-7.5 7.5s3.358 7.5 7.5 7.5 7.5-3.358 7.5-7.5-3.358-7.5-7.5-7.5zm137.109-66.05 11.764-11.764v63.88c0 4.143 3.357 7.5 7.5 7.5s7.5-3.357 7.5-7.5v-63.88l11.764 11.764c2.929 2.929 7.677 2.929 10.606.001 2.93-2.929 2.93-7.678.001-10.606l-19.618-19.62c-5.624-5.639-14.908-5.583-20.507.002l-19.617 19.618c-2.929 2.929-2.929 7.678.001 10.606 2.928 2.928 7.677 2.929 10.606-.001zm237.764 19.123h-136.896c.256-2.633.396-5.301.396-8 0-45.215-36.785-82-82-82s-82 36.785-82 82c0 2.699.14 5.367.396 8h-136.896c-20.678 0-37.5 16.822-37.5 37.5v347c0 20.678 16.822 37.5 37.5 37.5h437c20.678 0 37.5-16.822 37.5-37.5v-347c0-20.678-16.822-37.5-37.5-37.5zm-218.5-75c36.944 0 67 30.056 67 67s-30.056 67-67 67-67-30.056-67-67 30.056-67 67-67zm241 165h-355.101c-4.143 0-7.5 3.357-7.5 7.5s3.357 7.5 7.5 7.5h355.101v279.5c0 12.406-10.094 22.5-22.5 22.5h-437c-12.406 0-22.5-10.094-22.5-22.5v-279.5h91.899c4.143 0 7.5-3.357 7.5-7.5s-3.357-7.5-7.5-7.5h-91.899v-52.5c0-12.406 10.094-22.5 22.5-22.5h139.806c9.969 34.051 41.463 59 78.694 59s68.724-24.949 78.694-59h139.806c12.406 0 22.5 10.094 22.5 22.5zm-442.373-43.073c-4.142 0-7.5 3.358-7.5 7.5s3.358 7.5 7.5 7.5 7.5-3.358 7.5-7.5-3.358-7.5-7.5-7.5zm126.644 236.163h149.457c16.629 0 30.157-13.528 30.157-30.157v-87.775c0-16.629-13.528-30.157-30.157-30.157h-149.457c-16.629 0-30.157 13.528-30.157 30.157v87.775c0 16.629 13.529 30.157 30.157 30.157zm-15.157-117.933c0-8.357 6.8-15.157 15.157-15.157h149.457c8.357 0 15.157 6.8 15.157 15.157v87.775c0 8.357-6.8 15.157-15.157 15.157h-149.457c-8.357 0-15.157-6.8-15.157-15.157zm-105.114 173.843v31c0 7.995 6.505 14.5 14.5 14.5h361c7.995 0 14.5-6.505 14.5-14.5v-31c0-7.995-6.505-14.5-14.5-14.5h-87.68c-4.143 0-7.5 3.357-7.5 7.5s3.357 7.5 7.5 7.5h9.274l-10 30h-59.188l10-30h14.914c4.143 0 7.5-3.357 7.5-7.5s-3.357-7.5-7.5-7.5h-238.32c-7.995 0-14.5 6.505-14.5 14.5zm312.905.5h62.095v30h-72.095zm-150 0h59.189l-10 30h-59.189zm-74.999 0h59.188l-10 30h-59.188zm-72.906 0h57.095l-10 30h-47.095zm166.866-93.653 39.775-26.756c7.017-4.647 6.986-15.467 0-20.091l-39.777-26.758c-7.904-5.42-18.931.613-18.854 10.047v53.512c-.091 9.418 11.033 15.419 18.856 10.046zm-3.855-58.119 31.69 21.317-31.69 21.317zm-94.384-140.801c-4.142 0-7.5 3.358-7.5 7.5s3.358 7.5 7.5 7.5 7.5-3.358 7.5-7.5-3.358-7.5-7.5-7.5z"/></g></svg>