<?xml version="1.0"?>
<svg xmlns="http://www.w3.org/2000/svg" xmlns:xlink="http://www.w3.org/1999/xlink" xmlns:svgjs="http://svgjs.com/svgjs" version="1.1" width="512" height="512" x="0" y="0" viewBox="0 0 64 64" style="enable-background:new 0 0 512 512" xml:space="preserve" class=""><g><g xmlns="http://www.w3.org/2000/svg" id="Filled_outline" data-name="Filled outline"><rect fill="#79cd96" height="40" rx="2" width="58" x="3" y="11" data-original="#394d5c" style="" class=""/><path d="m3 47h58a0 0 0 0 1 0 0v2a2 2 0 0 1 -2 2h-54a2 2 0 0 1 -2-2v-2a0 0 0 0 1 0 0z" fill="#aabece" data-original="#aabece" style="" class=""/><path d="m8 3h48v44h-48z" fill="#f4f4e6" data-original="#f4f4e6" style="" class=""/><path d="m27 51h10l4 6h-18z" fill="#7d8d9c" data-original="#7d8d9c" style="" class=""/><path d="m16 57h32v4h-32z" fill="#aabece" data-original="#aabece" style="" class=""/><path d="m8 3h32v8h-32z" fill="#aabece" transform="matrix(-1 0 0 -1 48 14)" data-original="#aabece" style="" class=""/><path d="m12 15h40v16h-40z" fill="#f5b800" data-original="#195c85" style="" class=""/><path d="m19 28h-3a1 1 0 0 1 -1-1v-8a1 1 0 0 1 1-1h3a3 3 0 0 1 2.234 5 3 3 0 0 1 -2.234 5zm-2-2h2a1 1 0 0 0 0-2h-2zm0-4h2a1 1 0 0 0 0-2h-2z" fill="#fcf05a" data-original="#fcf05a" style="" class=""/><path d="m29 28h-4a1 1 0 0 1 -1-1v-8a1 1 0 0 1 2 0v7h3a1 1 0 0 1 0 2z" fill="#fcf05a" data-original="#fcf05a" style="" class=""/><path d="m36 28h-1a3 3 0 0 1 -3-3v-4a3 3 0 0 1 3-3h1a3 3 0 0 1 3 3v4a3 3 0 0 1 -3 3zm-1-8a1 1 0 0 0 -1 1v4a1 1 0 0 0 1 1h1a1 1 0 0 0 1-1v-4a1 1 0 0 0 -1-1z" fill="#fcf05a" data-original="#fcf05a" style="" class=""/><path d="m46 28h-2a3 3 0 0 1 -3-3v-4a3 3 0 0 1 3-3h2a3 3 0 0 1 3 3 1 1 0 0 1 -1 1 1 1 0 0 1 1 1v2a3 3 0 0 1 -3 3zm-2-8a1 1 0 0 0 -1 1v4a1 1 0 0 0 1 1h2a1 1 0 0 0 1-1v-1h-1a1 1 0 0 1 0-2h2a1 1 0 0 1 -1-1 1 1 0 0 0 -1-1z" fill="#fcf05a" data-original="#fcf05a" style="" class=""/><path d="m12 35h16v8h-16z" fill="#018503" data-original="#2d75bb" style="" class=""/><g fill="#394d5c"><path d="m31 34h9v2h-9z" fill="#79cd96" data-original="#394d5c" style="" class=""/><path d="m42 34h11v2h-11z" fill="#79cd96" data-original="#394d5c" style="" class=""/><path d="m31 38h6v2h-6z" fill="#79cd96" data-original="#394d5c" style="" class=""/><path d="m39 38h8v2h-8z" fill="#79cd96" data-original="#394d5c" style="" class=""/><path d="m49 38h4v2h-4z" fill="#79cd96" data-original="#394d5c" style="" class=""/><path d="m31 42h11v2h-11z" fill="#79cd96" data-original="#394d5c" style="" class=""/><path d="m44 42h9v2h-9z" fill="#79cd96" data-original="#394d5c" style="" class=""/><path d="m11 6h14v2h-14z" fill="#79cd96" data-original="#394d5c" style="" class=""/><path d="m27 6h2v2h-2z" fill="#79cd96" data-original="#394d5c" style="" class=""/></g><path d="m40 3h16v8h-16z" fill="#7d8d9c" transform="matrix(-1 0 0 -1 96 14)" data-original="#7d8d9c" style="" class=""/><path d="m51 6h2v2h-2z" fill="#55b56a" data-original="#55b56a" style=""/><path d="m47 6h2v2h-2z" fill="#f9bb4b" data-original="#f9bb4b" style="" class=""/><path d="m43 6h2v2h-2z" fill="#e1462b" data-original="#e1462b" style="" class=""/><path d="m59 10h-2v-7a1 1 0 0 0 -1-1h-48a1 1 0 0 0 -1 1v7h-2a3 3 0 0 0 -3 3v36a3 3 0 0 0 3 3h20.132l-2.667 4h-7.465v6h34v-6h-7.465l-2.667-4h20.132a3 3 0 0 0 3-3v-36a3 3 0 0 0 -3-3zm1 3v33h-3v-34h2a1 1 0 0 1 1 1zm-51-1h46v34h-46zm46-2h-14v-6h14zm-46-6h30v6h-30zm-4 8h2v34h-3v-33a1 1 0 0 1 1-1zm42 48h-30v-2h30zm-7.869-4h-14.262l2.666-4h8.93zm20.869-7a1 1 0 0 1 -1 1h-54a1 1 0 0 1 -1-1v-1h56z" fill="#000000" data-original="#000000" style="" class=""/><path d="m51 6h2v2h-2z" fill="#000000" data-original="#000000" style="" class=""/><path d="m47 6h2v2h-2z" fill="#000000" data-original="#000000" style="" class=""/><path d="m43 6h2v2h-2z" fill="#000000" data-original="#000000" style="" class=""/><path d="m11 32h42v-18h-42zm2-16h38v14h-38z" fill="#000000" data-original="#000000" style="" class=""/><path d="m19 18h-3a1 1 0 0 0 -1 1v8a1 1 0 0 0 1 1h3a3 3 0 0 0 2.234-5 3 3 0 0 0 -2.234-5zm0 8h-2v-2h2a1 1 0 0 1 0 2zm0-4h-2v-2h2a1 1 0 0 1 0 2z" fill="#000000" data-original="#000000" style="" class=""/><path d="m29 26h-3v-7a1 1 0 0 0 -2 0v8a1 1 0 0 0 1 1h4a1 1 0 0 0 0-2z" fill="#000000" data-original="#000000" style="" class=""/><path d="m36 18h-1a3 3 0 0 0 -3 3v4a3 3 0 0 0 3 3h1a3 3 0 0 0 3-3v-4a3 3 0 0 0 -3-3zm1 7a1 1 0 0 1 -1 1h-1a1 1 0 0 1 -1-1v-4a1 1 0 0 1 1-1h1a1 1 0 0 1 1 1z" fill="#000000" data-original="#000000" style="" class=""/><path d="m49 21a3 3 0 0 0 -3-3h-2a3 3 0 0 0 -3 3v4a3 3 0 0 0 3 3h2a3 3 0 0 0 3-3v-2a1 1 0 0 0 -1-1h-2a1 1 0 0 0 0 2h1v1a1 1 0 0 1 -1 1h-2a1 1 0 0 1 -1-1v-4a1 1 0 0 1 1-1h2a1 1 0 0 1 1 1 1 1 0 0 0 2 0z" fill="#000000" data-original="#000000" style="" class=""/><path d="m11 44h18v-10h-18zm2-8h14v6h-14z" fill="#000000" data-original="#000000" style="" class=""/><path d="m31 34h9v2h-9z" fill="#000000" data-original="#000000" style="" class=""/><path d="m42 34h11v2h-11z" fill="#000000" data-original="#000000" style="" class=""/><path d="m31 38h6v2h-6z" fill="#000000" data-original="#000000" style="" class=""/><path d="m39 38h8v2h-8z" fill="#000000" data-original="#000000" style="" class=""/><path d="m49 38h4v2h-4z" fill="#000000" data-original="#000000" style="" class=""/><path d="m31 42h11v2h-11z" fill="#000000" data-original="#000000" style="" class=""/><path d="m44 42h9v2h-9z" fill="#000000" data-original="#000000" style="" class=""/><path d="m11 6h14v2h-14z" fill="#000000" data-original="#000000" style="" class=""/><path d="m27 6h2v2h-2z" fill="#000000" data-original="#000000" style="" class=""/></g></g></svg>
