<svg id="Capa_1" enable-background="new 0 0 512 512" height="512" viewBox="0 0 512 512" width="512" xmlns="http://www.w3.org/2000/svg"><g><path d="m504.5 160.14v268c0 22.09-17.91 40-40 40h-417c-22.09 0-40-17.91-40-40v-268z" fill="#f5f5f5"/><path d="m504.5 180.141v-20l-248.5-10-248.491 10h-.009v20 248c0 22.09 17.91 40 40 40h20c-22.09 0-40-17.91-40-40v-248z" fill="#e6e6e6"/><path d="m504.5 110.14v50h-497v-50c0-22.09 17.91-40 40-40h417c22.09 0 40 17.91 40 40z" fill="#50758d"/><g fill="#2b597f"><path d="m75.75 114.89c0-12.406-10.093-22.5-22.5-22.5-6.385 0-12.152 2.677-16.251 6.963-4.767 4.757-2.529 2.519-7.286 7.286-4.286 4.099-6.963 9.866-6.963 16.251 0 12.406 10.093 22.5 22.5 22.5 6.385 0 12.152-2.677 16.251-6.963 4.767-4.757 2.529-2.519 7.286-7.286 4.286-4.099 6.963-9.866 6.963-16.251z"/><path d="m140 114.89c0-12.406-10.093-22.5-22.5-22.5-6.385 0-12.152 2.677-16.251 6.963-4.767 4.757-2.529 2.519-7.286 7.286-4.286 4.1-6.963 9.867-6.963 16.251 0 12.406 10.093 22.5 22.5 22.5 6.385 0 12.152-2.677 16.251-6.963 4.767-4.757 2.529-2.519 7.286-7.286 4.286-4.099 6.963-9.866 6.963-16.251z"/><path d="m204 114.89c0-12.406-10.093-22.5-22.5-22.5-6.385 0-12.152 2.677-16.251 6.963-4.767 4.757-2.529 2.519-7.286 7.286-4.286 4.099-6.963 9.866-6.963 16.251 0 12.406 10.093 22.5 22.5 22.5 6.385 0 12.152-2.677 16.251-6.963 4.767-4.757 2.529-2.519 7.286-7.286 4.286-4.099 6.963-9.866 6.963-16.251z"/></g><path d="m117.5 92.64c-12.41 0-22.5 10.09-22.5 22.5s10.09 22.5 22.5 22.5c5.18 0 9.95-1.76 13.76-4.72l.01-.01c5.31-4.11 8.73-10.54 8.73-17.77v-.12c-.07-12.36-10.13-22.38-22.5-22.38z" fill="#ffc682"/><path d="m181.5 92.64c-12.41 0-22.5 10.09-22.5 22.5s10.09 22.5 22.5 22.5c5.18 0 9.95-1.76 13.76-4.72l.01-.01c5.31-4.11 8.73-10.54 8.73-17.77v-.12c-.07-12.36-10.13-22.38-22.5-22.38z" fill="#93ddb7"/><path d="m53.25 92.39c-.78 0-1.54.04-2.3.12-.22.02-.43.04-.64.08-.2.02-.39.05-.58.08-.38.06-.76.13-1.13.21-.44.09-.88.19-1.32.32-.29.07-.57.16-.86.25-.44.14-.88.3-1.31.47-.25.09-.51.2-.76.31-.09.03-.17.07-.25.11-.29.12-.57.26-.85.4-.3.15-.6.31-.89.47-.09.04-.18.1-.27.15-.27.16-.53.31-.79.48-.3.19-.6.39-.89.59-.04.02-.08.05-.12.09-.26.18-.51.37-.76.56-.24.17-.48.37-.71.57-.13.1-.26.21-.38.32-.22.2-.44.39-.65.6-.24.23-.48.46-.71.71-.03.02-.06.04-.08.07-3.87 4.03-6.25 9.51-6.25 15.54 0 12.41 10.09 22.5 22.5 22.5 6.03 0 11.51-2.38 15.54-6.25.03-.03.06-.05.08-.08.25-.23.48-.46.7-.71.21-.21.4-.43.6-.65.11-.12.22-.25.32-.38.2-.23.4-.47.57-.71.19-.25.38-.5.56-.76.04-.04.07-.08.09-.12.2-.29.4-.59.59-.89.17-.26.32-.52.48-.79.05-.09.11-.18.15-.27.16-.29.32-.59.47-.89.14-.28.28-.56.4-.85.04-.08.08-.16.11-.25.11-.25.22-.51.31-.76.17-.43.33-.87.47-1.31.09-.29.18-.57.25-.86.13-.44.23-.88.32-1.32.08-.37.15-.75.21-1.13.03-.19.06-.38.08-.58.04-.21.06-.42.08-.64.08-.76.12-1.52.12-2.3 0-12.41-10.09-22.5-22.5-22.5z" fill="#fd646f"/><path d="m391.205 238.584c.202-.109.395-.232.587-.358l19.208-11.522-15.67-7.017v-59.547h-141.5v71.62c0 6.07 6.6 9.84 11.83 6.76l20.72-12.414 32.269-18.561c3.48-2.46 8.601-2.226 12.071.265l52.75 30.63c2.531 1.5 5.383 1.381 7.66.181l.001.008z" fill="#e6e6e6"/><path d="m395.33 95.86v64.28h-141.5v-64.28c0-9.79 3.52-18.77 9.38-25.72h122.74c5.86 6.95 9.38 15.93 9.38 25.72z" fill="#2b597f"/><path d="m403.471 226.436-52.755-30.631c-3.464-2.482-8.121-2.496-11.6-.034l-53.457 30.751c-5.233 3.078-11.83-.695-11.83-6.766v-135.896c0-22.091 17.909-40 40-40h61.5c22.091 0 40 17.909 40 40v135.828c.001 6.086-6.626 9.857-11.858 6.748z" fill="#fd646f"/><path d="m293.83 72.41v135.89c0 5.75 5.92 9.44 10.99 7.2l-19.16 11.02c-5.23 3.08-11.83-.69-11.83-6.76v-135.9c0-19 13.25-34.9 31-38.99-6.81 7.16-11 16.86-11 27.54z" fill="#fc4755"/><path d="m341.13 194.67-35.47 20.4c-.28.16-.56.31-.84.43l34.3-19.73c.64-.45 1.31-.82 2.01-1.1z" fill="#fd646f"/><path d="m416.5 314.5c0 8.29-3.36 15.79-8.79 21.21-5.43 5.43-12.93 8.79-21.21 8.79h-259c-16.57 0-30-13.43-30-30 0-8.29 3.36-15.79 8.79-21.21 5.43-5.43 12.93-8.79 21.21-8.79h259c16.57 0 30 13.43 30 30z" fill="#fff"/><path d="m338.766 284.5h15v60h-15z" fill="#f5f5f5"/></g><g><path d="m464.5 62.641h-46.692c-7.808-15.566-23.911-26.281-42.479-26.281h-61.5c-18.568 0-34.671 10.715-42.479 26.281h-162.35c-4.142 0-7.5 3.357-7.5 7.5s3.358 7.5 7.5 7.5h157.75c-.268 2.037-.42 4.11-.42 6.219v68.64h-251.33v-42.5c0-17.843 14.58-32.359 32.5-32.359h26.5c4.142 0 7.5-3.357 7.5-7.5s-3.358-7.5-7.5-7.5h-26.5c-26.191 0-47.5 21.245-47.5 47.359v319c0 26.153 20.864 46.641 47.5 46.641h417c26.191 0 47.5-21.309 47.5-47.5v-17.5c0-4.143-3.358-7.5-7.5-7.5s-7.5 3.357-7.5 7.5v17.5c0 17.921-14.58 32.5-32.5 32.5h-417c-18.224 0-32.5-13.899-32.5-31.641v-261.5h251.33v52.257c-.403 11.474 13.369 19.398 23.07 13.267l53.457-30.751c.203-.117.401-.243.593-.379.87-.614 2.035-.61 2.899.009.195.14.396.27.603.39l9.826 5.705c3.581 2.079 8.172.863 10.251-2.721 2.08-3.582.862-8.172-2.72-10.252l-9.558-5.549c-5.912-4.032-13.702-4.055-19.636-.054l-53.257 30.636c-.09.054-.176.101-.352.003-.176-.102-.176-.199-.176-.304v-135.898c0-17.921 14.58-32.5 32.5-32.5h61.5c17.92 0 32.5 14.579 32.5 32.5v135.828c.051.26-.381.483-.593.263l-12.644-7.342c-3.58-2.076-8.171-.862-10.252 2.721-2.08 3.582-.862 8.172 2.72 10.252l12.58 7.304c9.72 6.239 23.587-1.658 23.189-13.197v-52.047h74.17v208c0 4.143 3.358 7.5 7.5 7.5s7.5-3.357 7.5-7.5v-265.641c0-26.114-21.309-47.359-47.5-47.359zm-41.67 90v-68.782c0-2.109-.153-4.182-.42-6.219h42.09c17.92 0 32.5 14.517 32.5 32.359v42.641h-74.17z"/><path d="m53.25 92.391c-12.407 0-22.5 10.094-22.5 22.5s10.093 22.5 22.5 22.5 22.5-10.094 22.5-22.5-10.093-22.5-22.5-22.5zm0 30c-4.136 0-7.5-3.364-7.5-7.5s3.364-7.5 7.5-7.5 7.5 3.364 7.5 7.5-3.364 7.5-7.5 7.5z"/><path d="m140 115.141c0-12.406-10.093-22.5-22.5-22.5s-22.5 10.093-22.5 22.5 10.093 22.5 22.5 22.5 22.5-10.094 22.5-22.5zm-30 0c0-4.136 3.364-7.5 7.5-7.5s7.5 3.364 7.5 7.5-3.364 7.5-7.5 7.5-7.5-3.365-7.5-7.5z"/><path d="m204 115.141c0-12.406-10.093-22.5-22.5-22.5s-22.5 10.094-22.5 22.5 10.093 22.5 22.5 22.5 22.5-10.094 22.5-22.5zm-30 0c0-4.136 3.364-7.5 7.5-7.5s7.5 3.364 7.5 7.5-3.364 7.5-7.5 7.5-7.5-3.365-7.5-7.5z"/><path d="m173.83 336.587c-4.142 0-7.5 3.357-7.5 7.5s3.358 7.5 7.5 7.5h211.5c20.678 0 37.5-16.822 37.5-37.5s-16.822-37.5-37.5-37.5h-259c-20.678 0-37.5 16.822-37.5 37.5s16.822 37.5 37.5 37.5h12.5c4.142 0 7.5-3.357 7.5-7.5s-3.358-7.5-7.5-7.5h-12.5c-12.407 0-22.5-10.094-22.5-22.5s10.093-22.5 22.5-22.5h212.437v45zm179.936-45h31.563c12.407 0 22.5 10.094 22.5 22.5s-10.093 22.5-22.5 22.5h-31.563z"/></g></svg>