<?xml version="1.0"?>
<svg xmlns="http://www.w3.org/2000/svg" xmlns:xlink="http://www.w3.org/1999/xlink" xmlns:svgjs="http://svgjs.com/svgjs" version="1.1" width="512" height="512" x="0" y="0" viewBox="0 0 511.99899 511" style="enable-background:new 0 0 512 512" xml:space="preserve" class=""><g><path xmlns="http://www.w3.org/2000/svg" d="m435.144531 135.496094h-425.914062v-68.804688h425.914062zm0 0" fill="#ece9e8" data-original="#ece9e8" style=""/><path xmlns="http://www.w3.org/2000/svg" d="m229.136719 135.460938h-219.90625v291.523437h425.914062v-249.039063" fill="#ffffff" data-original="#ffffff" style="" class=""/><path xmlns="http://www.w3.org/2000/svg" d="m380.769531 10.644531h-129.578125c-12.179687 0-22.054687 9.875-22.054687 22.054688v123.191406c0 12.179687 9.875 22.054687 22.054687 22.054687h30.230469l38.496094 40.007813 34.695312-40.007813h124.332031c12.179688 0 22.054688-9.875 22.054688-22.054687v-123.191406c0-12.179688-9.875-22.054688-22.054688-22.054688h-17.5" fill="#fbc319" data-original="#8cbcff" style="" class=""/><g xmlns="http://www.w3.org/2000/svg" fill="#fff"><path d="m315.523438 91.519531c0 9.742188-7.898438 17.644531-17.644532 17.644531-9.742187 0-17.640625-7.902343-17.640625-17.644531 0-9.746093 7.898438-17.644531 17.640625-17.644531 9.746094 0 17.644532 7.898438 17.644532 17.644531zm0 0" fill="#ffffff" data-original="#ffffff" style="" class=""/><path d="m382.710938 91.519531c0 9.742188-7.898438 17.644531-17.640626 17.644531-9.746093 0-17.644531-7.902343-17.644531-17.644531 0-9.746093 7.898438-17.644531 17.644531-17.644531 9.742188 0 17.640626 7.898438 17.640626 17.644531zm0 0" fill="#ffffff" data-original="#ffffff" style="" class=""/><path d="m449.902344 91.519531c0 9.742188-7.902344 17.644531-17.644532 17.644531-9.746093 0-17.644531-7.902343-17.644531-17.644531 0-9.746093 7.898438-17.644531 17.644531-17.644531 9.742188 0 17.644532 7.898438 17.644532 17.644531zm0 0" fill="#ffffff" data-original="#ffffff" style="" class=""/></g><path xmlns="http://www.w3.org/2000/svg" d="m173.070312 313.257812 5.742188-44.523437h-44.085938v-28.355469c0-12.859375 3.570313-21.625 22.007813-21.625h23.375v-39.714844c-1.398437-.183593-3.964844-.449218-7.390625-.71875-.933594-.070312-1.929688-.144531-2.988281-.214843-1.054688-.074219-2.167969-.144531-3.332031-.210938-5.824219-.339843-12.929688-.605469-20.539063-.605469-.496094 0-.992187.007813-1.480469.015626-33.085937.597656-55.613281 21.230468-55.613281 58.664062v32.765625h-38.203125v44.523437h38.203125v113.75h45.960937v-113.75zm0 0" fill="#fbc319" data-original="#8cbcff" style="" class=""/><path xmlns="http://www.w3.org/2000/svg" d="m46.261719 110.714844.21875.066406c.972656.289062 1.953125.429688 2.914062.429688 4.351563 0 8.367188-2.828126 9.683594-7.207032 1.605469-5.347656-1.425781-10.988281-6.777344-12.597656l-.21875-.0625c-5.34375-1.605469-10.988281 1.425781-12.597656 6.773438-1.605469 5.351562 1.425781 10.988281 6.777344 12.597656zm0 0" fill="#000000" data-original="#000000" style="" class=""/><path xmlns="http://www.w3.org/2000/svg" d="m84.636719 110.714844.21875.066406c.972656.289062 1.953125.429688 2.914062.429688 4.351563 0 8.367188-2.828126 9.683594-7.207032 1.605469-5.347656-1.425781-10.988281-6.777344-12.597656l-.21875-.0625c-5.34375-1.605469-10.988281 1.425781-12.597656 6.773438-1.605469 5.351562 1.425781 10.988281 6.777344 12.597656zm0 0" fill="#000000" data-original="#000000" style="" class=""/><path xmlns="http://www.w3.org/2000/svg" d="m123.007812 110.714844.222657.066406c.96875.289062 1.949219.429688 2.914062.429688 4.347657 0 8.363281-2.828126 9.679688-7.207032 1.609375-5.347656-1.425781-10.988281-6.773438-12.597656l-.222656-.0625c-5.34375-1.605469-10.988281 1.425781-12.59375 6.773438-1.609375 5.351562 1.425781 10.988281 6.773437 12.597656zm0 0" fill="#000000" data-original="#000000" style="" class=""/><path xmlns="http://www.w3.org/2000/svg" d="m479.832031.53125h-17.503906c-5.582031 0-10.113281 4.53125-10.113281 10.113281 0 5.585938 4.53125 10.113281 10.113281 10.113281h17.503906c6.585938 0 11.941407 5.359376 11.941407 11.941407v123.195312c0 6.582031-5.355469 11.941407-11.941407 11.941407h-124.332031c-2.933594 0-5.722656 1.269531-7.640625 3.484374l-27.445313 31.644532-30.820312-32.03125c-1.90625-1.980469-4.539062-3.097656-7.289062-3.097656h-30.230469c-6.582031 0-11.941407-5.359376-11.941407-11.941407v-123.195312c0-6.585938 5.359376-11.941407 11.941407-11.941407h129.578125c5.585937 0 10.113281-4.527343 10.113281-10.113281 0-5.585937-4.527344-10.113281-10.113281-10.113281h-129.578125c-17.734375 0-32.167969 14.429688-32.167969 32.167969v23.84375h-209.792969c-5.585937 0-10.113281 4.53125-10.113281 10.113281v360.328125c0 5.585937 4.527344 10.113281 10.113281 10.113281h79.109375c.140625.003906.285156.019532.429688.019532h45.957031c.144531 0 .285156-.015626.429687-.019532h299.988282c5.585937 0 10.113281-4.527344 10.113281-10.113281v-238.925781h33.691406c17.738281 0 32.167969-14.429688 32.167969-32.164063v-123.195312c0-17.738281-14.429688-32.167969-32.167969-32.167969zm-259.925781 76.242188v48.574218h-199.679688v-48.574218zm-130.253906 226.371093h-28.089844v-24.296875h28.089844c5.582031 0 10.113281-4.527344 10.113281-10.113281v-32.765625c0-30.332031 16.648437-48.027344 45.679687-48.550781.429688-.007813.863282-.011719 1.296876-.011719 6.441406 0 13.339843.203125 19.957031.585938 1.132812.0625 2.214843.132812 3.226562.203124.324219.019532.644531.042969.953125.066407v20.378906h-13.257812c-11.832032 0-20.226563 3.136719-25.65625 9.589844-5.734375 6.808593-6.46875 15.410156-6.46875 22.148437v28.355469c0 5.582031 4.527344 10.113281 10.113281 10.113281h32.585937l-3.136718 24.296875h-29.449219c-5.585937 0-10.113281 4.527344-10.113281 10.113281v103.613282h-25.730469v-103.613282c0-5.585937-4.527344-10.113281-10.113281-10.113281zm336.261718-21.039062h-127.148437c-5.585937 0-10.113281 4.53125-10.113281 10.113281 0 5.585938 4.527344 10.113281 10.113281 10.113281h127.148437v21.632813h-159.925781c-5.585937 0-10.113281 4.527344-10.113281 10.113281 0 5.582031 4.527344 10.113281 10.113281 10.113281h159.925781v21.628906h-195.894531c-5.582031 0-10.113281 4.527344-10.113281 10.113282 0 5.585937 4.53125 10.113281 10.113281 10.113281h195.894531v30.824219h-280.191406v-93.496094h28.230469c5.085937 0 9.378906-3.777344 10.03125-8.820312l5.746094-44.523438c.371093-2.886719-.515625-5.789062-2.433594-7.972656-1.921875-2.183594-4.6875-3.4375-7.597656-3.4375h-33.976563v-18.242188c0-4.699218.578125-7.769531 1.714844-9.121094 1.277344-1.515624 4.992188-2.386718 10.183594-2.386718h23.375c5.582031 0 10.113281-4.53125 10.113281-10.113282v-39.714843c0-5.074219-3.757813-9.359375-8.785156-10.027344-1.804688-.238281-4.699219-.523437-7.929688-.777344-.96875-.074219-2-.148437-3.097656-.226562-1.085937-.070313-2.234375-.144531-3.429687-.214844-6.996094-.40625-14.300782-.617187-21.125-.617187-.558594 0-1.113282.003906-1.664063.015624-19.296875.347657-35.632813 6.753907-47.234375 18.53125-11.976562 12.152344-18.308594 29.527344-18.308594 50.242188v22.652344h-28.085937c-5.585938 0-10.113281 4.53125-10.113281 10.113281v44.523437c0 5.585938 4.527343 10.113282 10.113281 10.113282h28.089843v93.5h-59.3125v-271.292969h199.679688v10.316406c0 17.734375 14.433594 32.164063 32.167969 32.164063h25.929687l35.511719 36.90625c1.90625 1.984375 4.539063 3.101562 7.285156 3.101562.089844 0 .175781 0 .261719-.003906 2.839844-.074219 5.519531-1.335938 7.378906-3.484375l31.671875-36.519531h65.800781zm0 0" fill="#000000" data-original="#000000" style="" class=""/><path xmlns="http://www.w3.org/2000/svg" d="m271.007812 91.519531c0 15.304688 12.453126 27.757813 27.757813 27.757813s27.757813-12.453125 27.757813-27.757813c0-15.304687-12.453126-27.757812-27.757813-27.757812s-27.757813 12.453125-27.757813 27.757812zm35.285157 0c0 4.152344-3.375 7.53125-7.527344 7.53125s-7.527344-3.378906-7.527344-7.53125c0-4.152343 3.375-7.53125 7.527344-7.53125s7.527344 3.378907 7.527344 7.53125zm0 0" fill="#000000" data-original="#000000" style="" class=""/><path xmlns="http://www.w3.org/2000/svg" d="m365.953125 63.761719c-15.304687 0-27.753906 12.453125-27.753906 27.757812 0 15.304688 12.449219 27.753907 27.753906 27.753907s27.757813-12.449219 27.757813-27.753907c0-15.304687-12.453126-27.757812-27.757813-27.757812zm0 35.289062c-4.148437 0-7.527344-3.378906-7.527344-7.53125 0-4.152343 3.378907-7.53125 7.527344-7.53125 4.152344 0 7.53125 3.378907 7.53125 7.53125 0 4.152344-3.378906 7.53125-7.53125 7.53125zm0 0" fill="#000000" data-original="#000000" style="" class=""/><path xmlns="http://www.w3.org/2000/svg" d="m433.140625 119.277344c15.308594 0 27.757813-12.453125 27.757813-27.757813 0-15.304687-12.449219-27.757812-27.757813-27.757812-15.304687 0-27.753906 12.453125-27.753906 27.757812 0 15.304688 12.449219 27.757813 27.753906 27.757813zm0-35.289063c4.152344 0 7.53125 3.378907 7.53125 7.53125 0 4.152344-3.378906 7.527344-7.53125 7.527344-4.148437 0-7.527344-3.375-7.527344-7.527344 0-4.152343 3.378907-7.53125 7.527344-7.53125zm0 0" fill="#000000" data-original="#000000" style="" class=""/><path xmlns="http://www.w3.org/2000/svg" d="m418.570312 20.3125.203126.0625c.957031.28125 1.921874.417969 2.875.417969 4.363281 0 8.390624-2.847657 9.695312-7.246094 1.582031-5.355469-1.472656-10.984375-6.828125-12.570313l-.203125-.058593c-5.351562-1.582031-10.984375 1.46875-12.570312 6.824219-1.582032 5.355468 1.472656 10.984374 6.828124 12.570312zm0 0" fill="#000000" data-original="#000000" style="" class=""/><path xmlns="http://www.w3.org/2000/svg" d="m192.890625 367.277344-.222656-.0625c-5.355469-1.585938-10.980469 1.472656-12.566407 6.828125-1.585937 5.355469 1.46875 10.980469 6.828126 12.566406l.21875.066406c.957031.28125 1.925781.417969 2.875.417969 4.363281 0 8.390624-2.847656 9.695312-7.246094 1.582031-5.355468-1.472656-10.984375-6.828125-12.570312zm0 0" fill="#000000" data-original="#000000" style="" class=""/></g></svg>
