<?xml version="1.0"?>
<svg xmlns="http://www.w3.org/2000/svg" xmlns:xlink="http://www.w3.org/1999/xlink" xmlns:svgjs="http://svgjs.com/svgjs" version="1.1" width="512" height="512" x="0" y="0" viewBox="0 0 512 512" style="enable-background:new 0 0 512 512" xml:space="preserve" class=""><g>
<path xmlns="http://www.w3.org/2000/svg" style="" d="M230.383,256c0-4.727,3.831-8.55,8.55-8.55h51.2v-59.691c0-4.727-3.831-8.559-8.55-8.559H128.017  c-4.719,0-8.55,3.831-8.55,8.55v102.357c0,4.727,3.831,8.559,8.55,8.559h17.05v51.2l25.6-25.6l25.6-25.6h34.116V256z" fill="#ebba16" data-original="#ebba16" class=""/>
<g xmlns="http://www.w3.org/2000/svg">
	<path style="" d="M469.35,435.2h-0.213c5.402-7.151,8.73-15.949,8.73-25.6c0-23.561-19.106-42.667-42.667-42.667   s-42.667,19.106-42.667,42.667c0,9.651,3.328,18.449,8.73,25.6h-0.213c-18.842,0-34.116,15.275-34.116,34.116v34.15h136.533v-34.15   C503.467,450.475,488.192,435.2,469.35,435.2z" fill="#23c0fd" data-original="#556080" class=""/>
	<path style="" d="M110.95,435.2h-0.213c5.402-7.151,8.73-15.949,8.73-25.6c0-23.561-19.106-42.667-42.667-42.667   S34.133,386.039,34.133,409.6c0,9.651,3.328,18.449,8.73,25.6H42.65c-18.842,0-34.116,15.275-34.116,34.116v34.15h136.533v-34.15   C145.067,450.475,129.792,435.2,110.95,435.2z" fill="#23c0fd" data-original="#556080" class=""/>
	<path style="" d="M110.95,76.8h-0.213c5.402-7.151,8.73-15.949,8.73-25.6c0-23.561-19.106-42.667-42.667-42.667   S34.133,27.639,34.133,51.2c0,9.651,3.328,18.449,8.73,25.6H42.65c-18.842,0-34.116,15.275-34.116,34.116v34.15h136.533v-34.15   C145.067,92.075,129.792,76.8,110.95,76.8z" fill="#23c0fd" data-original="#556080" class=""/>
	<path style="" d="M469.35,76.8h-0.213c5.402-7.151,8.73-15.949,8.73-25.6c0-23.561-19.106-42.667-42.667-42.667   S392.533,27.639,392.533,51.2c0,9.651,3.328,18.449,8.73,25.6h-0.213c-18.842,0-34.116,15.275-34.116,34.116v34.15h136.533v-34.15   C503.467,92.075,488.192,76.8,469.35,76.8z" fill="#23c0fd" data-original="#556080" class=""/>
</g>
<circle xmlns="http://www.w3.org/2000/svg" style="" cx="76.8" cy="51.2" r="42.667" fill="#f5296c" data-original="#7383bf" class=""/>
<path xmlns="http://www.w3.org/2000/svg" style="" d="M110.95,76.8h-0.213C102.955,87.108,90.709,93.867,76.8,93.867S50.645,87.108,42.863,76.8H42.65  c-18.842,0-34.116,15.275-34.116,34.116v34.15h136.533v-34.15C145.067,92.075,129.792,76.8,110.95,76.8z" fill="#23c0fd" data-original="#556080" class=""/>
<circle xmlns="http://www.w3.org/2000/svg" style="" cx="435.2" cy="51.2" r="42.667" fill="#f5296c" data-original="#7383bf" class=""/>
<path xmlns="http://www.w3.org/2000/svg" style="" d="M469.35,76.8h-0.213c-7.791,10.308-20.028,17.067-33.937,17.067  c-13.909,0-26.155-6.758-33.937-17.067h-0.213c-18.842,0-34.116,15.275-34.116,34.116v34.15h136.533v-34.15  C503.467,92.075,488.192,76.8,469.35,76.8z" fill="#23c0fd" data-original="#556080" class=""/>
<circle xmlns="http://www.w3.org/2000/svg" style="" cx="76.8" cy="409.6" r="42.667" fill="#f5296c" data-original="#7383bf" class=""/>
<path xmlns="http://www.w3.org/2000/svg" style="" d="M110.95,435.2h-0.213c-7.782,10.308-20.028,17.067-33.937,17.067s-26.155-6.758-33.937-17.067H42.65  c-18.842,0-34.116,15.275-34.116,34.116v34.15h136.533v-34.15C145.067,450.475,129.792,435.2,110.95,435.2z" fill="#23c0fd" data-original="#556080" class=""/>
<circle xmlns="http://www.w3.org/2000/svg" style="" cx="435.2" cy="409.6" r="42.667" fill="#f5296c" data-original="#7383bf" class=""/>
<path xmlns="http://www.w3.org/2000/svg" style="" d="M469.35,435.2h-0.213c-7.791,10.308-20.028,17.067-33.937,17.067  c-13.909,0-26.155-6.758-33.937-17.067h-0.213c-18.842,0-34.116,15.275-34.116,34.116v34.15h136.533v-34.15  C503.467,450.475,488.192,435.2,469.35,435.2z" fill="#23c0fd" data-original="#556080" class=""/>
<path xmlns="http://www.w3.org/2000/svg" style="" d="M213.333,238.95v102.357c0,4.727,3.831,8.559,8.55,8.559H307.2l25.6,25.6l25.6,25.6v-51.2h17.05  c4.719,0,8.55-3.831,8.55-8.55V238.95c0-4.719-3.831-8.55-8.55-8.55H221.884C217.165,230.4,213.333,234.231,213.333,238.95z" fill="#52ed54" data-original="#366db6" class=""/>
<g xmlns="http://www.w3.org/2000/svg">
	<path style="" d="M76.8,102.4c-28.228,0-51.2-22.963-51.2-51.2S48.572,0,76.8,0S128,22.963,128,51.2   S105.028,102.4,76.8,102.4z M76.8,17.067c-18.825,0-34.133,15.309-34.133,34.133S57.975,85.333,76.8,85.333   s34.133-15.309,34.133-34.133S95.625,17.067,76.8,17.067z" fill="#060208" data-original="#4d007e" class=""/>
	<path style="" d="M145.067,153.6H8.533c-4.71,0-8.533-3.823-8.533-8.533v-34.15c0-23.518,19.132-42.65,42.65-42.65   c2.671,0,5.41,1.254,7.023,3.388C56.235,80.35,66.125,85.333,76.8,85.333s20.565-4.983,27.127-13.679   c1.613-2.133,4.139-3.388,6.81-3.388h0.213c23.518,0,42.65,19.132,42.65,42.65v34.15C153.6,149.777,149.777,153.6,145.067,153.6z    M17.067,136.533h119.467v-25.617c0-12.885-9.583-23.586-21.999-25.335C104.823,96.324,91.307,102.4,76.8,102.4   c-14.498,0-28.006-6.067-37.717-16.794c-12.51,1.809-22.016,12.467-22.016,25.31V136.533z" fill="#060208" data-original="#4d007e" class=""/>
	<path style="" d="M435.2,102.4c-28.228,0-51.2-22.963-51.2-51.2S406.972,0,435.2,0c28.228,0,51.2,22.963,51.2,51.2   S463.428,102.4,435.2,102.4z M435.2,17.067c-18.825,0-34.133,15.309-34.133,34.133s15.309,34.133,34.133,34.133   c18.825,0,34.133-15.309,34.133-34.133S454.025,17.067,435.2,17.067z" fill="#060208" data-original="#4d007e" class=""/>
	<path style="" d="M503.467,153.6H366.933c-4.71,0-8.533-3.823-8.533-8.533v-34.15c0-23.518,19.132-42.65,42.65-42.65   c2.671,0,5.41,1.254,7.023,3.388c6.562,8.695,16.452,13.679,27.127,13.679c10.675,0,20.565-4.983,27.127-13.679   c1.613-2.133,4.139-3.388,6.81-3.388h0.213c23.518,0,42.65,19.132,42.65,42.65v34.15C512,149.777,508.177,153.6,503.467,153.6z    M375.467,136.533h119.467v-25.617c0-12.885-9.583-23.586-21.999-25.335C463.223,96.324,449.707,102.4,435.2,102.4   c-14.498,0-28.006-6.067-37.717-16.794c-12.51,1.809-22.016,12.467-22.016,25.31V136.533z" fill="#060208" data-original="#4d007e" class=""/>
	<path style="" d="M76.8,460.8c-28.228,0-51.2-22.963-51.2-51.2c0-28.237,22.972-51.2,51.2-51.2s51.2,22.963,51.2,51.2   C128,437.837,105.028,460.8,76.8,460.8z M76.8,375.467c-18.825,0-34.133,15.309-34.133,34.133   c0,18.825,15.309,34.133,34.133,34.133s34.133-15.309,34.133-34.133C110.933,390.775,95.625,375.467,76.8,375.467z" fill="#060208" data-original="#4d007e" class=""/>
	<path style="" d="M145.067,512H8.533C3.823,512,0,508.177,0,503.467v-34.15c0-23.518,19.132-42.65,42.65-42.65   c2.671,0,5.41,1.254,7.023,3.388c6.562,8.695,16.452,13.679,27.127,13.679s20.565-4.983,27.127-13.679   c1.613-2.133,4.139-3.388,6.81-3.388h0.213c23.518,0,42.65,19.132,42.65,42.65v34.15C153.6,508.177,149.777,512,145.067,512z    M17.067,494.933h119.467v-25.617c0-12.885-9.583-23.586-21.999-25.336C104.823,454.724,91.307,460.8,76.8,460.8   c-14.498,0-28.006-6.067-37.717-16.794c-12.51,1.809-22.016,12.467-22.016,25.31V494.933z" fill="#060208" data-original="#4d007e" class=""/>
	<path style="" d="M435.2,460.8c-28.228,0-51.2-22.963-51.2-51.2c0-28.237,22.972-51.2,51.2-51.2   c28.228,0,51.2,22.963,51.2,51.2C486.4,437.837,463.428,460.8,435.2,460.8z M435.2,375.467c-18.825,0-34.133,15.309-34.133,34.133   c0,18.825,15.309,34.133,34.133,34.133c18.825,0,34.133-15.309,34.133-34.133C469.333,390.775,454.025,375.467,435.2,375.467z" fill="#060208" data-original="#4d007e" class=""/>
	<path style="" d="M503.467,512H366.933c-4.71,0-8.533-3.823-8.533-8.533v-34.15c0-23.518,19.132-42.65,42.65-42.65   c2.671,0,5.41,1.254,7.023,3.388c6.562,8.695,16.452,13.679,27.127,13.679c10.675,0,20.565-4.983,27.127-13.679   c1.613-2.133,4.139-3.388,6.81-3.388h0.213c23.518,0,42.65,19.132,42.65,42.65v34.15C512,508.177,508.177,512,503.467,512z    M375.467,494.933h119.467v-25.617c0-12.885-9.583-23.586-21.999-25.336c-9.711,10.743-23.228,16.819-37.734,16.819   c-14.498,0-28.006-6.067-37.717-16.794c-12.51,1.809-22.016,12.467-22.016,25.31V494.933z" fill="#060208" data-original="#4d007e" class=""/>
	<path style="" d="M392.678,58.257c-1.621,0-3.26-0.461-4.71-1.425c-6.852-4.548-14.003-8.781-21.257-12.587   c-4.173-2.185-5.786-7.347-3.601-11.52c2.193-4.173,7.347-5.777,11.52-3.593c7.765,4.07,15.428,8.61,22.775,13.483   c3.925,2.603,4.992,7.902,2.389,11.827C398.148,56.917,395.435,58.257,392.678,58.257z" fill="#060208" data-original="#4d007e" class=""/>
	<path style="" d="M326.579,27.298c-0.802,0-1.621-0.119-2.432-0.358c-14.652-4.352-29.833-7.305-45.107-8.772   c-4.693-0.452-8.132-4.625-7.68-9.31c0.444-4.685,4.634-8.098,9.31-7.68c16.367,1.57,32.632,4.736,48.341,9.404   c4.514,1.34,7.091,6.093,5.751,10.615C333.645,24.892,330.249,27.298,326.579,27.298z M185.506,27.273   c-3.678,0-7.074-2.398-8.175-6.11c-1.34-4.514,1.237-9.267,5.751-10.607c15.718-4.668,31.983-7.825,48.35-9.387   c4.693-0.435,8.858,2.995,9.301,7.689c0.444,4.693-2.995,8.858-7.68,9.301c-15.275,1.451-30.447,4.403-45.107,8.755   C187.127,27.153,186.308,27.273,185.506,27.273z" fill="#060208" data-original="#4d007e" class=""/>
	<path style="" d="M119.322,58.257c-2.765,0-5.478-1.34-7.117-3.814c-2.611-3.925-1.536-9.225,2.389-11.827   c7.347-4.873,15.01-9.412,22.775-13.483c4.173-2.185,9.335-0.58,11.52,3.593c2.185,4.173,0.58,9.335-3.601,11.52   c-7.245,3.797-14.404,8.03-21.257,12.587C122.581,57.796,120.943,58.257,119.322,58.257z" fill="#060208" data-original="#4d007e" class=""/>
	<path style="" d="M468.352,391.595c-1.493,0-3.004-0.393-4.378-1.22c-4.045-2.423-5.35-7.663-2.935-11.708   c4.224-7.049,8.124-14.387,11.588-21.811c1.997-4.267,7.074-6.127,11.341-4.122c4.267,1.997,6.118,7.074,4.122,11.341   c-3.712,7.962-7.893,15.821-12.425,23.373C474.086,390.11,471.253,391.595,468.352,391.595z" fill="#060208" data-original="#4d007e" class=""/>
	<path style="" d="M499.942,306.423c-0.478,0-0.964-0.034-1.442-0.119c-4.642-0.794-7.765-5.205-6.98-9.847   c2.261-13.278,3.413-26.889,3.413-40.457c0-7.595-0.358-15.266-1.084-22.801c-0.444-4.693,2.995-8.858,7.689-9.301   c4.71-0.401,8.858,2.995,9.301,7.689C511.607,239.65,512,247.868,512,256c0,14.532-1.229,29.107-3.661,43.332   C507.631,303.488,504.021,306.423,499.942,306.423z" fill="#060208" data-original="#4d007e" class=""/>
	<path style="" d="M487.492,177.033c-3.447,0-6.69-2.108-7.979-5.513c-2.901-7.654-6.246-15.266-9.941-22.613   c-2.116-4.215-0.418-9.344,3.797-11.46c4.207-2.125,9.335-0.418,11.46,3.789c3.959,7.876,7.543,16.034,10.65,24.235   c1.673,4.412-0.546,9.335-4.958,11.008C489.515,176.853,488.499,177.033,487.492,177.033z" fill="#060208" data-original="#4d007e" class=""/>
	<path style="" d="M24.508,177.033c-1.007,0-2.022-0.179-3.021-0.555c-4.412-1.673-6.63-6.596-4.958-11.008   c3.106-8.201,6.69-16.358,10.65-24.235c2.116-4.207,7.245-5.914,11.46-3.789c4.207,2.116,5.914,7.245,3.797,11.46   c-3.695,7.347-7.04,14.959-9.941,22.613C31.198,174.925,27.955,177.033,24.508,177.033z" fill="#060208" data-original="#4d007e" class=""/>
	<path style="" d="M12.049,306.364c-4.087,0-7.689-2.935-8.405-7.1C1.229,285.065,0,270.515,0,256   c0-8.175,0.393-16.401,1.161-24.474c0.444-4.693,4.651-8.081,9.301-7.68c4.693,0.452,8.132,4.617,7.68,9.31   c-0.708,7.526-1.075,15.215-1.075,22.844c0,13.551,1.143,27.145,3.405,40.397c0.794,4.642-2.33,9.054-6.98,9.847   C13.013,306.33,12.527,306.364,12.049,306.364z" fill="#060208" data-original="#4d007e" class=""/>
	<path style="" d="M43.648,391.595c-2.901,0-5.726-1.476-7.33-4.147c-4.531-7.552-8.704-15.411-12.425-23.373   c-1.988-4.267-0.145-9.344,4.122-11.341c4.267-2.005,9.344-0.145,11.341,4.122c3.465,7.424,7.364,14.763,11.588,21.811   c2.423,4.045,1.109,9.284-2.935,11.708C46.652,391.202,45.141,391.595,43.648,391.595z" fill="#060208" data-original="#4d007e" class=""/>
	<path style="" d="M358.4,409.6c-2.219,0-4.403-0.87-6.033-2.5l-48.7-48.7h-81.775   c-9.429,0-17.092-7.663-17.092-17.084V238.95c0-9.421,7.663-17.084,17.084-17.084h153.557c9.429,0,17.092,7.663,17.092,17.084   v102.357c0,9.429-7.663,17.092-17.084,17.092h-8.516v42.667c0,3.447-2.082,6.562-5.265,7.885   C360.61,409.387,359.501,409.6,358.4,409.6z M221.884,238.933l-0.017,0.017v102.357l85.333,0.026c2.261,0,4.437,0.896,6.033,2.5   l36.634,36.634v-30.6c0-4.71,3.823-8.533,8.533-8.533h17.05l0.017-102.383L221.884,238.933z" fill="#060208" data-original="#4d007e" class=""/>
	<path style="" d="M145.067,358.4c-1.101,0-2.21-0.213-3.26-0.649c-3.191-1.323-5.274-4.437-5.274-7.885V307.2h-8.516   c-9.421,0-17.084-7.663-17.084-17.084V187.75c0-9.421,7.663-17.084,17.084-17.084h153.557c9.429,0,17.092,7.663,17.092,17.084   v42.65c0,4.71-3.823,8.533-8.533,8.533l-68.267,0.017v59.716c0,4.71-3.823,8.533-8.533,8.533h-13.534l-48.7,48.7   C149.47,357.53,147.285,358.4,145.067,358.4z M128.017,187.733L128,290.116l17.067,0.017c4.71,0,8.533,3.823,8.533,8.533v30.601   l36.634-36.634c1.596-1.604,3.772-2.5,6.033-2.5h8.533V238.95c0-9.421,7.663-17.084,17.084-17.084H281.6V187.75L128.017,187.733z" fill="#060208" data-original="#4d007e" class=""/>
	<path style="" d="M298.667,281.6h-51.2c-4.71,0-8.533-3.823-8.533-8.533s3.823-8.533,8.533-8.533h51.2   c4.71,0,8.533,3.823,8.533,8.533C307.2,277.777,303.377,281.6,298.667,281.6z" fill="#060208" data-original="#4d007e" class=""/>
	<path style="" d="M349.867,281.6H332.8c-4.71,0-8.533-3.823-8.533-8.533s3.823-8.533,8.533-8.533h17.067   c4.71,0,8.533,3.823,8.533,8.533C358.4,277.777,354.577,281.6,349.867,281.6z" fill="#060208" data-original="#4d007e" class=""/>
	<path style="" d="M349.867,315.733h-51.2c-4.71,0-8.533-3.823-8.533-8.533s3.823-8.533,8.533-8.533h51.2   c4.71,0,8.533,3.823,8.533,8.533S354.577,315.733,349.867,315.733z" fill="#060208" data-original="#4d007e" class=""/>
	<path style="" d="M264.533,315.733h-17.067c-4.71,0-8.533-3.823-8.533-8.533s3.823-8.533,8.533-8.533h17.067   c4.71,0,8.533,3.823,8.533,8.533S269.244,315.733,264.533,315.733z" fill="#060208" data-original="#4d007e" class=""/>
	<path style="" d="M168.491,496.026c-1.007,0-2.022-0.179-3.021-0.555c-8.192-3.098-16.35-6.682-24.235-10.65   c-4.215-2.116-5.914-7.245-3.797-11.46c2.116-4.207,7.253-5.897,11.46-3.789c7.364,3.703,14.967,7.04,22.613,9.941   c4.412,1.664,6.63,6.588,4.958,10.999C175.181,493.918,171.938,496.026,168.491,496.026z" fill="#060208" data-original="#4d007e" class=""/>
	<path style="" d="M256,512c-10.274,0-20.634-0.623-30.805-1.843c-4.676-0.563-8.013-4.813-7.458-9.489   c0.563-4.676,4.796-8.013,9.489-7.45c18.97,2.278,38.519,2.278,57.412,0.017c4.702-0.563,8.926,2.782,9.489,7.458   c0.563,4.676-2.773,8.926-7.458,9.489C276.574,511.386,266.249,512,256,512z" fill="#060208" data-original="#4d007e" class=""/>
	<path style="" d="M343.509,496.026c-3.447,0-6.69-2.108-7.987-5.513c-1.673-4.412,0.555-9.336,4.958-10.999   c7.646-2.893,15.258-6.238,22.613-9.941c4.207-2.125,9.335-0.418,11.46,3.789c2.116,4.215,0.418,9.344-3.797,11.46   c-7.885,3.959-16.043,7.543-24.235,10.65C345.532,495.846,344.516,496.026,343.509,496.026z" fill="#060208" data-original="#4d007e" class=""/>
</g>
<g xmlns="http://www.w3.org/2000/svg">
</g>
<g xmlns="http://www.w3.org/2000/svg">
</g>
<g xmlns="http://www.w3.org/2000/svg">
</g>
<g xmlns="http://www.w3.org/2000/svg">
</g>
<g xmlns="http://www.w3.org/2000/svg">
</g>
<g xmlns="http://www.w3.org/2000/svg">
</g>
<g xmlns="http://www.w3.org/2000/svg">
</g>
<g xmlns="http://www.w3.org/2000/svg">
</g>
<g xmlns="http://www.w3.org/2000/svg">
</g>
<g xmlns="http://www.w3.org/2000/svg">
</g>
<g xmlns="http://www.w3.org/2000/svg">
</g>
<g xmlns="http://www.w3.org/2000/svg">
</g>
<g xmlns="http://www.w3.org/2000/svg">
</g>
<g xmlns="http://www.w3.org/2000/svg">
</g>
<g xmlns="http://www.w3.org/2000/svg">
</g>
</g></svg>
