<svg id="Capa_1" enable-background="new 0 0 511.955 511.955" height="512" viewBox="0 0 511.955 511.955" width="512" xmlns="http://www.w3.org/2000/svg"><g><g><path d="m450.642 109.69c-129.776-10.229-259.553-10.229-389.329 0-19.376 1.527-34.856 16.678-36.951 36.001-11.391 105.042-11.391 210.083 0 315.125 2.095 19.323 17.576 34.474 36.951 36.001 129.776 10.229 259.553 10.229 389.329 0 19.376-1.527 34.856-16.678 36.951-36.001 11.391-105.042 11.391-210.083 0-315.125-2.095-19.323-17.575-34.474-36.951-36.001z" fill="#e7ecf1"/><path d="m69.767 497.458c-2.824-.203-5.638-.417-8.453-.64-19.374-1.524-34.857-16.682-36.949-36.005-11.389-105.037-11.389-210.085 0-315.122 2.093-19.323 17.576-34.471 36.949-36.005 2.814-.224 5.628-.437 8.453-.64-9.814 6.776-16.6 17.637-17.962 30.194-11.856 109.345-11.856 218.68 0 328.025 1.361 12.556 8.148 23.416 17.962 30.193z" fill="#c6d0da"/><path d="m386.647 296.953c-40.729 36.005-88.071 66.716-130.67 79.436-56.364-16.824-120.998-65.131-167.67-115.542-39.692-42.872-66.381-87.279-63.943-115.156 2.093-19.323 17.576-34.471 36.95-36.005 129.775-10.22 259.551-10.22 389.326 0 19.374 1.534 34.857 16.682 36.949 36.005 3.14 35.882-41.977 99.124-100.942 151.262z" fill="#c6d0da"/><path d="m447.979 143.384c-19.008 51.813-39.459 103.005-61.332 153.568-40.729 36.005-88.071 66.716-130.669 79.436-56.364-16.824-120.998-65.131-167.67-115.542 31.423-77.709 66.147-153.985 104.184-228.809 9.773-19.232 31.89-28.842 52.575-22.706 64.542 19.14 125.803 45.839 183.762 80.086 18.571 10.973 26.586 33.72 19.15 53.967z" fill="#f4dd45"/><path d="m396.989 257.768c3.393-2.997 6.736-6.035 10.027-9.103-6.644 16.164-13.441 32.256-20.37 48.287-40.729 36.005-88.071 66.716-130.669 79.436-56.364-16.824-120.998-65.131-167.67-115.542 4.714-11.663 9.499-23.285 14.375-34.887 46.306 48.836 108.878 94.898 163.637 111.245 42.599-12.719 89.941-43.431 130.67-79.436z" fill="#eab14d"/><path d="m235.748 107.819 22.084-1.049c6.322-.3 12.092-3.692 15.429-9.071l11.656-18.787c8.403-13.544 28.69-11.574 34.329 3.335l7.822 20.679c2.239 5.92 7.248 10.359 13.395 11.871l21.469 5.28c15.478 3.806 19.873 23.709 7.437 33.679l-17.25 13.829c-4.938 3.959-7.612 10.095-7.151 16.408l1.613 22.05c1.163 15.897-16.408 26.227-29.733 17.48l-18.483-12.132c-5.291-3.473-11.953-4.12-17.814-1.731l-20.472 8.348c-14.76 6.018-30.013-7.5-25.812-22.876l5.827-21.327c1.668-6.106.225-12.641-3.859-17.477l-14.266-16.891c-10.285-12.177-2.142-30.862 13.779-31.618z" fill="#da4a54"/></g><g><path d="m495.047 144.883c-2.471-22.813-20.75-40.698-43.524-42.644-4.369-7.769-10.764-14.484-18.878-19.278-58.222-34.402-120.615-61.594-185.446-80.82-23.871-7.078-49.578 3.852-61.123 25.992-1.916 3.673-.491 8.203 3.182 10.118 3.674 1.915 8.203.49 10.118-3.182 8.234-15.789 26.552-23.59 43.559-18.547 63.654 18.877 124.915 45.575 182.08 79.353 15.438 9.121 22.136 28.014 15.924 44.926-18.65 50.836-39.008 101.839-60.514 151.632-42.531 37.366-86.574 64.302-124.446 76.114-49.073-15.317-109.391-56.84-158.91-109.326 27.056-66.582 56.879-132.854 88.694-197.053 1.839-3.711.321-8.211-3.39-10.05-3.712-1.839-8.211-.322-10.05 3.39-6.759 13.64-13.424 27.377-19.997 41.186-30.581 1.281-61.371 3.13-91.601 5.515-22.906 1.814-41.332 19.761-43.813 42.672-11.404 105.087-11.404 211.654 0 316.739 2.483 22.925 20.911 40.873 43.817 42.674 64.758 5.107 129.994 7.661 195.219 7.661 60.158 0 120.306-2.173 180.053-6.52 4.131-.3 7.236-3.893 6.936-8.024s-3.886-7.238-8.024-6.936c-123.774 9.004-249.27 8.623-373.006-1.135-15.673-1.233-28.29-13.496-30.062-29.187 0-.001 0-.002 0-.003-2.339-26.715 27.073-74.947 74.93-122.875 2.927-2.931 2.923-7.68-.008-10.606-2.931-2.927-7.68-2.923-10.606.008-26.478 26.517-53.64 59.951-68.338 90.419-5.935-75.637-5.945-151.832-.022-227.471 10.913 22.759 29.622 48.897 55.008 76.317 41.183 44.481 107.739 98.743 171.028 117.633.7.209 1.422.313 2.145.313s1.446-.104 2.146-.313c40.762-12.171 88.169-40.939 133.492-81.004 37.609-33.254 74.646-75.858 92.536-112.976 5.926 75.646 5.921 151.849-.014 227.495-14.699-30.466-41.859-63.898-68.336-90.413-2.927-2.932-7.676-2.935-10.606-.008-2.931 2.927-2.935 7.675-.008 10.606 47.837 47.908 77.243 96.117 74.932 122.84-1.253 11.242-8.016 20.928-18.115 25.927-3.712 1.837-5.232 6.336-3.395 10.049 1.308 2.643 3.965 4.174 6.728 4.174 1.117 0 2.252-.25 3.321-.78 14.749-7.3 24.614-21.456 26.388-37.864 11.399-105.086 11.399-211.653-.004-316.738zm-463.214 1.525c1.745-15.71 14.377-28.003 30.071-29.245 27.454-2.166 55.377-3.892 83.181-5.145-20.841 44.441-40.664 89.598-59.215 134.929-35.433-40.294-55.945-78.215-54.037-100.539zm375.794 120.335c16.681-39.911 32.577-80.393 47.392-120.773 3.313-9.019 3.996-18.441 2.386-27.36 12.149 3.876 21.257 14.639 22.718 27.805 2.254 26.431-27.128 74.222-72.496 120.328z"/><path d="m356.81 173.437 17.25-13.829c7.997-6.411 11.592-16.611 9.382-26.62s-9.766-17.747-19.719-20.194l-21.469-5.28c-3.75-.922-6.805-3.629-8.171-7.241l-7.822-20.679c-3.626-9.587-12.216-16.158-22.418-17.149-10.204-.991-19.896 3.804-25.299 12.513l-11.655 18.787c-2.036 3.282-5.555 5.35-9.412 5.534l-22.084 1.049c-10.238.486-19.142 6.625-23.236 16.021-4.095 9.396-2.531 20.097 4.083 27.928l14.266 16.891c2.492 2.95 3.372 6.936 2.354 10.661l-5.827 21.327c-2.701 9.887.386 20.252 8.057 27.05 7.67 6.798 18.332 8.617 27.823 4.747l20.472-8.348c3.577-1.458 7.638-1.064 10.867 1.056l18.483 12.132c4.475 2.938 9.562 4.414 14.66 4.414 4.663 0 9.335-1.235 13.556-3.717 8.836-5.195 13.86-14.771 13.113-24.994l-1.613-22.05c-.285-3.852 1.346-7.594 4.359-10.009zm-9.382-11.703c-6.866 5.503-10.582 14.029-9.94 22.806l1.613 22.05c.333 4.554-1.818 8.655-5.755 10.969-3.935 2.314-8.565 2.2-12.382-.306l-18.483-12.132c-4.421-2.902-9.528-4.385-14.669-4.385-3.413 0-6.841.654-10.093 1.979l-20.472 8.348c-4.229 1.724-8.793.945-12.21-2.083s-4.739-7.466-3.536-11.871l5.827-21.327c2.319-8.489.314-17.57-5.364-24.293l-14.266-16.891c-2.946-3.489-3.616-8.07-1.792-12.256s5.637-6.814 10.198-7.031l22.084-1.049c8.79-.417 16.807-5.131 21.446-12.609l11.655-18.787c2.407-3.88 6.555-5.932 11.103-5.491 4.545.441 8.223 3.255 9.838 7.526l7.822 20.679c3.113 8.231 10.074 14.399 18.619 16.5l21.469 5.28c4.434 1.091 7.669 4.404 8.654 8.862s-.555 8.826-4.118 11.682z"/><path d="m144.818 217.581c-1.655 3.797.082 8.217 3.879 9.872l183.762 80.086c.976.425 1.992.626 2.993.626 2.893 0 5.65-1.684 6.879-4.505 1.655-3.797-.082-8.217-3.879-9.872l-183.762-80.086c-3.798-1.654-8.217.082-9.872 3.879z"/><path d="m137.427 245.524c-3.798-1.655-8.217.082-9.872 3.879s.082 8.217 3.879 9.872l105.01 45.765c.976.425 1.992.626 2.993.626 2.893 0 5.65-1.684 6.879-4.505 1.655-3.797-.082-8.217-3.879-9.872z"/></g></g></svg>