<?xml version="1.0" encoding="utf-8"?>
<!-- Generator: Adobe Illustrator 24.3.0, SVG Export Plug-In . SVG Version: 6.00 Build 0)  -->
<svg version="1.1" id="Layer_1" xmlns="http://www.w3.org/2000/svg" xmlns:xlink="http://www.w3.org/1999/xlink" x="0px" y="0px"
	 viewBox="0 0 512 512" style="enable-background:new 0 0 512 512;" xml:space="preserve">
<style type="text/css">
	.st0{fill:#F70629;}
	.st1{fill:#FF0025;}
</style>
<g>
	<g>
		<path class="st0" d="M212.3,248.9c-20.1,0-36.5,16.4-36.5,36.5s16.4,36.5,36.5,36.5s36.5-16.4,36.5-36.5S232.4,248.9,212.3,248.9
			L212.3,248.9z M212.3,301.8c-9.1,0-16.5-7.4-16.5-16.5s7.4-16.5,16.5-16.5c9.1,0,16.5,7.4,16.5,16.5S221.4,301.8,212.3,301.8z"/>
		<path class="st0" d="M322.5,248.9c-20.1,0-36.5,16.4-36.5,36.5s16.4,36.5,36.5,36.5c20.1,0,36.4-16.4,36.4-36.5
			S342.6,248.9,322.5,248.9L322.5,248.9z M322.5,301.8c-9.1,0-16.5-7.4-16.5-16.5s7.4-16.5,16.5-16.5c9.1,0,16.4,7.4,16.4,16.5
			S331.5,301.8,322.5,301.8L322.5,301.8z"/>
		<path d="M471.6,19.6h-97.1c-5.5,0-10,4.5-10,10s4.5,10,10,10h97.1c11.3,0,20.4,9.2,20.4,20.4v110.3c0,11.3-9.2,20.4-20.4,20.4
			H187.6c-11.3,0-20.4-9.2-20.4-20.4V60c0-11.3,9.2-20.4,20.4-20.4h97.1c5.5,0,10-4.5,10-10s-4.5-10-10-10h-97.1
			c-22.3,0-40.4,18.1-40.4,40.4v33.5H80.4c-17.7,0-32.2,14.4-32.2,32.2v16.1H32.2C14.4,141.8,0,156.2,0,173.9v222.9
			C0,414.5,14.4,429,32.2,429h30v53.4c0,3.5,1.9,6.8,4.9,8.6c1.6,0.9,3.3,1.4,5.1,1.4c1.6,0,3.3-0.4,4.8-1.2L190.9,429h201.6
			c17.7,0,32.2-14.4,32.2-32.2v-16.1h16c17.7,0,32.2-14.4,32.2-32.2V210.7c21.7-0.7,39.2-18.5,39.2-40.4V60
			C512,37.8,493.9,19.6,471.6,19.6L471.6,19.6z M68.2,125.7c0-6.7,5.5-12.2,12.2-12.2h66.8v28.2h-79V125.7z M404.6,396.8
			c0,6.6-5.6,12.2-12.2,12.2H188.3c-1.7,0-3.3,0.4-4.8,1.2L82.2,465.5V419c0-5.5-4.5-10-10-10h-40c-6.7,0-12.2-5.5-12.2-12.2V173.9
			c0-6.7,5.5-12.2,12.2-12.2h115v8.6c0,22.3,18.1,40.4,40.4,40.4h217V396.8z M440.7,360.7h-16v-150h28.2v137.8
			C452.8,355.2,447.3,360.7,440.7,360.7L440.7,360.7z"/>
		<path class="st1" d="M210.1,64.5c-5.5,0-10,4.5-10,10v81.2c0,4.8,3.4,8.9,8.1,9.8c0.8,0.2,1.4,0.3,10.4,0.3c4.4,0,10.7,0,20-0.1
			c5.5,0,10-4.5,9.9-10.1c0-5.5-4.5-9.9-10-9.9c0,0,0,0-0.1,0c-5.6,0-12.8,0.1-18.4,0.1V74.5C220.1,69,215.6,64.5,210.1,64.5
			L210.1,64.5z"/>
		<path class="st1" d="M274.8,64.5c-5.5,0-10,4.5-10,10v81.3c0,5.5,4.5,10,10,10s10-4.5,10-10V74.5C284.8,69,280.3,64.5,274.8,64.5z
			"/>
		<path class="st1" d="M449.1,85.3c5.5,0,10-4.5,10-10s-4.5-10-10-10h-34c-5.5,0-10,4.5-10,10v80.6c0,5.5,4.5,10,10,10h34
			c5.5,0,10-4.5,10-10s-4.5-10-10-10h-24v-20.3h21.5c5.5,0,10-4.5,10-10s-4.5-10-10-10h-21.5V85.3L449.1,85.3z"/>
		<path class="st1" d="M336.9,157.9c1.7,4.7,6.1,7.9,11.2,7.9h0c5,0,9.5-3.2,11.2-8c0,0,0-0.1,0-0.1l26.6-79.9
			c1.7-5.2-1.1-10.9-6.3-12.6c-5.2-1.7-10.9,1.1-12.6,6.3l-19,57.1L328,71.2c-1.8-5.2-7.5-8-12.7-6.2c-5.2,1.8-8,7.5-6.2,12.7
			L336.9,157.9z"/>
		<path class="st0" d="M102.2,248.9c-20.1,0-36.4,16.4-36.4,36.5s16.3,36.5,36.4,36.5c20.1,0,36.5-16.4,36.5-36.5
			S122.3,248.9,102.2,248.9L102.2,248.9z M102.2,301.8c-9.1,0-16.4-7.4-16.4-16.5s7.4-16.5,16.4-16.5c9.1,0,16.5,7.4,16.5,16.5
			S111.2,301.8,102.2,301.8z"/>
		<path d="M329.6,39.6L329.6,39.6c5.6,0,10-4.5,10-10s-4.5-10-10-10s-10,4.5-10,10S324.1,39.6,329.6,39.6L329.6,39.6z"/>
	</g>
</g>
</svg>
