<svg id="Capa_1" enable-background="new 0 0 512 512" height="512" viewBox="0 0 512 512" width="512" xmlns="http://www.w3.org/2000/svg"><g><g><path d="m332.994 100.025v43.207h-153.988v-43.207h-45.294v351.975h193.688l50.888-50.888v-301.087z" fill="#b2f0fb"/><g><path d="m327.4 452 50.888-50.888h-50.888z" fill="#b2f0fb"/></g></g><g fill="#020288"><path d="m406.192 40.025h-101.16c-4.645-22.81-24.865-40.025-49.032-40.025s-44.387 17.215-49.033 40.025h-101.16c-17.697 0-32.095 14.398-32.095 32.096v407.783c0 17.697 14.398 32.096 32.095 32.096h300.385c17.697 0 32.095-14.398 32.095-32.096v-407.783c.001-17.697-14.397-32.096-32.095-32.096zm-190.229 20c5.523 0 10-4.478 10-10 0-16.555 13.474-30.025 30.037-30.025s30.037 13.47 30.037 30.025c0 5.522 4.477 10 10 10h26.957v73.207h-133.988v-73.207zm202.325 419.879c0 6.67-5.426 12.096-12.095 12.096h-300.385c-6.669 0-12.095-5.426-12.095-12.096v-407.783c0-6.67 5.426-12.096 12.095-12.096h63.198v83.207c0 5.522 4.477 10 10 10h153.988c5.523 0 10-4.478 10-10v-83.207h63.198c6.669 0 12.095 5.426 12.095 12.096v407.783z"/><path d="m256 92.574c5.523 0 10-4.478 10-10v-9.191c0-5.522-4.477-10-10-10s-10 4.478-10 10v9.191c0 5.523 4.477 10 10 10z"/><path d="m332.994 217.766h-146.632c-5.523 0-10 4.478-10 10s4.477 10 10 10h146.632c5.523 0 10-4.478 10-10s-4.477-10-10-10z"/><path d="m332.994 270.361h-146.632c-5.523 0-10 4.478-10 10s4.477 10 10 10h146.632c5.523 0 10-4.478 10-10s-4.477-10-10-10z"/><path d="m332.994 322.957h-146.632c-5.523 0-10 4.478-10 10s4.477 10 10 10h146.632c5.523 0 10-4.478 10-10s-4.477-10-10-10z"/></g></g></svg>