<svg height="512" viewBox="0 0 64 64" width="512" xmlns="http://www.w3.org/2000/svg"><path d="m24 43a3 3 0 0 1 0-6h13v-12a4 4 0 1 1 8 0v8a6 6 0 0 0 6 6h10v20l-12 2h-25a3 3 0 0 1 0-6 2.979 2.979 0 0 1 -2.84-2.06 2.653 2.653 0 0 1 -.16-.94 3 3 0 0 1 3-3 3 3 0 0 1 0-6z" fill="#ffc477"/><path d="m55 11v28h-4a6 6 0 0 1 -6-6v-8a4 4 0 0 0 -8 0v12h-13a3 3 0 0 0 0 6 3 3 0 0 0 0 6 3 3 0 0 0 -3 3 2.653 2.653 0 0 0 .16.94l-.16.06h-12a6 6 0 1 1 6-6v-38h38a2.006 2.006 0 0 1 2 2z" fill="#fee9ab"/><path d="m33 19.29v9.71h-12v-12h12z" fill="#b2fa09"/><path d="m15 9v38a6 6 0 0 0 -12 0v-38a6 6 0 0 1 12 0z" fill="#ff7956"/><path d="m61 38h-5v-27a3 3 0 0 0 -3-3h-37.08a7 7 0 0 0 -13.92 1v38a7.008 7.008 0 0 0 7 7h11.556a4 4 0 0 0 .826 1 3.983 3.983 0 0 0 2.618 7h25a.9.9 0 0 0 .164-.014l12-2a1 1 0 0 0 .836-.986v-20a1 1 0 0 0 -1-1zm-57-29a5 5 0 0 1 10 0v33.1a6.991 6.991 0 0 0 -10 0zm16 43h-11a5 5 0 1 1 5-5 1 1 0 0 0 2 0v-37h37a1 1 0 0 1 1 1v27h-3a5.006 5.006 0 0 1 -5-5v-8a5 5 0 0 0 -10 0v11h-12a3.983 3.983 0 0 0 -2.618 7 3.947 3.947 0 0 0 0 6 3.975 3.975 0 0 0 -1.382 3zm40 6.153-11.083 1.847h-24.917a2 2 0 0 1 0-4h11v-2h-11a2 2 0 0 1 0-4h11v-2h-11a2 2 0 0 1 0-4h11v-2h-11a2 2 0 0 1 0-4h13a1 1 0 0 0 1-1v-12a3 3 0 0 1 6 0v8a7.008 7.008 0 0 0 7 7h9z"/><path d="m21 30h12a1 1 0 0 0 1-1v-9.293l5.521-5.521-1.415-1.414-4.126 4.128a.991.991 0 0 0 -.98-.9h-12a1 1 0 0 0 -1 1v12a1 1 0 0 0 1 1zm1-12h10v.879l-4.5 4.5-2.121-2.122-1.414 1.414 2.828 2.829a1 1 0 0 0 1.414 0l3.793-3.793v6.293h-10z"/></svg>