<svg id="Capa_1" enable-background="new 0 0 512 512" height="512" viewBox="0 0 512 512" width="512" xmlns="http://www.w3.org/2000/svg"><g><g><path d="m504.496 107.543v267.919c0 19.662-15.941 35.603-35.603 35.603h-279.41c-19.662 0-35.603-15.941-35.603-35.603v-330.904c0-19.662 15.941-35.603 35.603-35.603h216.426z" fill="#f6f9f9"/><path d="m504.496 107.543h-62.985c-19.661 0-35.603-15.941-35.603-35.603v-62.984" fill="#dae7ef"/><g><path d="m61.311 181.213h163.492c29.719 0 53.811 24.092 53.811 53.811v214.206c0 29.719-24.092 53.811-53.811 53.811h-163.492c-29.719 0-53.811-24.092-53.811-53.811v-214.206c0-29.719 24.092-53.811 53.811-53.811z" fill="#9dc6fb"/><path d="m84.936 503.044h-23.632c-29.712 0-53.804-24.092-53.804-53.814v-214.206c0-29.712 24.092-53.804 53.804-53.804h23.632c-29.722 0-53.814 24.092-53.814 53.804v214.206c0 29.722 24.092 53.814 53.814 53.814z" fill="#80b4fb"/><g fill="#30579d"><path d="m238.611 235.021v35.603c0 6.457-5.234 11.691-11.691 11.691h-167.723c-6.457 0-11.691-5.234-11.691-11.691v-35.603c0-7.622 6.179-13.801 13.801-13.801h163.492c7.621 0 13.812 6.191 13.812 13.801z"/><path d="m59.197 319.557h167.722c6.457 0 11.691 5.234 11.691 11.691v117.979c0 7.628-6.183 13.811-13.811 13.811h-163.492c-7.611 0-13.801-6.19-13.801-13.811v-117.979c0-6.456 5.235-11.691 11.691-11.691z"/></g></g><circle cx="390.708" cy="404.684" fill="#f6de81" r="83.429"/><path d="m400.736 487.511c-3.29.4-6.641.6-10.031.6-46.074 0-83.427-37.353-83.427-83.427s37.353-83.427 83.427-83.427c3.39 0 6.741.2 10.031.6-41.353 4.95-73.406 40.143-73.406 82.827s32.053 77.876 73.406 82.827z" fill="#f2ce6b"/></g><g><path d="m509.803 102.236-98.59-98.58c-1.406-1.406-3.313-2.197-5.303-2.197h-39.99c-4.143 0-7.5 3.358-7.5 7.5s3.357 7.5 7.5 7.5h32.488v55.482c0 23.767 19.336 43.103 43.103 43.103h55.489v260.416c0 10.804-6.242 20.42-15.461 25.096-2.167-48.229-42.076-86.8-90.831-86.8-49.765 0-90.314 40.187-90.916 89.812h-13.679v-102.181h103.817c4.143 0 7.5-3.358 7.5-7.5s-3.357-7.5-7.5-7.5h-103.817v-17.363h103.817c4.143 0 7.5-3.358 7.5-7.5s-3.357-7.5-7.5-7.5h-103.817v-17.363h103.817c4.143 0 7.5-3.358 7.5-7.5s-3.357-7.5-7.5-7.5h-105.301c-1.382-6.191-3.702-12.029-6.804-17.362h112.106c4.143 0 7.5-3.358 7.5-7.5s-3.357-7.5-7.5-7.5h-124.342c-10.845-9.684-25.137-15.586-40.786-15.586h-63.423v-129.154c0-15.494 12.605-28.1 28.101-28.1h146.579c4.143 0 7.5-3.358 7.5-7.5s-3.357-7.5-7.5-7.5h-146.58c-23.766 0-43.101 19.335-43.101 43.1v129.154h-85.068c-33.807 0-61.311 27.504-61.311 61.311v214.206c0 33.807 27.504 61.311 61.311 61.311h163.492c33.807 0 61.311-27.504 61.311-61.311v-30.664h14.724c6.704 43.573 44.452 77.046 89.871 77.046 46.001 0 84.126-34.337 90.107-78.726 18.135-5.224 31.184-22.09 31.184-41.427v-267.92c0-1.989-.79-3.897-2.197-5.303zm-238.69 346.994c0 25.536-20.774 46.311-46.311 46.311h-163.491c-25.537 0-46.311-20.775-46.311-46.311v-214.206c0-25.536 20.774-46.311 46.311-46.311h163.492c25.536 0 46.311 20.775 46.311 46.311v214.206zm119.595 31.383c-41.868 0-75.93-34.062-75.93-75.929s34.062-75.929 75.93-75.929c41.867 0 75.929 34.062 75.929 75.929s-34.062 75.929-75.929 75.929zm22.7-408.672v-44.879l72.988 72.981h-44.886c-15.495 0-28.102-12.606-28.102-28.102z"/><path d="m224.8 213.719h-163.49c-11.745 0-21.3 9.555-21.3 21.3v35.6c0 10.587 8.608 19.2 19.19 19.2h18.43c4.143 0 7.5-3.358 7.5-7.5s-3.357-7.5-7.5-7.5h-18.43c-2.311 0-4.19-1.884-4.19-4.2v-35.6c0-3.474 2.826-6.3 6.3-6.3h163.49c3.479 0 6.311 2.826 6.311 6.3v35.6c0 2.316-1.88 4.2-4.19 4.2h-119.331c-4.143 0-7.5 3.358-7.5 7.5s3.357 7.5 7.5 7.5h119.33c10.582 0 19.19-8.613 19.19-19.2v-35.6c0-11.745-9.559-21.3-21.31-21.3z"/><path d="m226.92 312.057h-167.723c-10.582 0-19.191 8.609-19.191 19.191v117.979c0 11.751 9.556 21.311 21.302 21.311h163.492c11.751 0 21.311-9.56 21.311-21.311v-117.978c-.001-10.582-8.609-19.192-19.191-19.192zm4.19 19.192v28.604h-31.856v-32.796h27.666c2.31 0 4.19 1.881 4.19 4.192zm-129.247 43.604h33.695v32.889h-33.695zm-15 32.889h-31.857v-32.889h31.857zm48.696-47.889h-33.695v-32.796h33.695zm15-32.796h33.695v32.796h-33.695zm-15 95.685v32.796h-33.695v-32.796zm15 0h33.695v32.796h-33.695zm0-15v-32.889h33.695v32.889zm48.695-32.889h31.856v32.889h-31.856zm-140.057-47.796h27.666v32.796h-31.857v-28.604c0-2.311 1.88-4.192 4.191-4.192zm-4.191 122.17v-26.485h31.857v32.796h-25.555c-3.475 0-6.302-2.831-6.302-6.311zm169.794 6.311h-25.546v-32.796h31.856v26.485c0 3.48-2.831 6.311-6.31 6.311z"/><path d="m400.465 397.208c-6.52-2.304-13.727-5.085-17.752-8.243-1.197-.939-1.709-3.122-1.273-5.433.219-1.163 1.242-5.05 5.201-6.243 7.538-2.271 12.479 1.596 13.019 2.043 3.183 2.648 7.912 2.216 10.562-.968 2.649-3.184 2.216-7.913-.969-10.562-1.139-.948-5.246-4.065-11.489-5.499v-2.71c0-4.142-3.357-7.5-7.5-7.5s-7.5 3.358-7.5 7.5v3.208c-.15.043-.298.08-.449.125-8.015 2.415-13.998 9.246-15.615 17.828-1.49 7.907 1.099 15.576 6.756 20.013 4.621 3.625 10.998 6.69 22.01 10.583 7.119 2.516 6.967 8.27 6.57 10.626-.809 4.808-4.853 10.002-11.822 10.049-6.915.047-9.078-.295-14.384-3.767-3.467-2.268-8.113-1.295-10.382 2.17-2.268 3.466-1.296 8.115 2.171 10.382 5.747 3.76 10.008 5.317 15.146 5.901v3.06c0 4.142 3.357 7.5 7.5 7.5s7.5-3.358 7.5-7.5v-3.807c10.683-3.067 17.524-12.346 19.063-21.503 2.037-12.119-4.538-23.072-16.363-27.253z"/><path d="m202.842 99.822c0 4.142 3.357 7.5 7.5 7.5h155.642c4.143 0 7.5-3.358 7.5-7.5s-3.357-7.5-7.5-7.5h-155.642c-4.143 0-7.5 3.358-7.5 7.5z"/><path d="m423.851 204.298h23.945c4.143 0 7.5-3.358 7.5-7.5s-3.357-7.5-7.5-7.5h-23.945c-4.143 0-7.5 3.358-7.5 7.5s3.357 7.5 7.5 7.5z"/><path d="m423.851 236.663h23.945c4.143 0 7.5-3.358 7.5-7.5s-3.357-7.5-7.5-7.5h-23.945c-4.143 0-7.5 3.358-7.5 7.5s3.357 7.5 7.5 7.5z"/><path d="m423.851 269.027h23.945c4.143 0 7.5-3.358 7.5-7.5s-3.357-7.5-7.5-7.5h-23.945c-4.143 0-7.5 3.358-7.5 7.5s3.357 7.5 7.5 7.5z"/><path d="m423.851 301.391h23.945c4.143 0 7.5-3.358 7.5-7.5s-3.357-7.5-7.5-7.5h-23.945c-4.143 0-7.5 3.358-7.5 7.5s3.357 7.5 7.5 7.5z"/></g></g></svg>