<svg id="Layer_1" height="512" viewBox="0 0 512 512" width="512" xmlns="http://www.w3.org/2000/svg" data-name="Layer 1"><path d="m197 399h44v97h-44z" fill="#c79a83"/><path d="m273.64 426h-109.5l-10.81 24h131.195z" fill="#754c46"/><path d="m297.195 383.43-38.622 12.44 44.187 100.13h44.24z" fill="#c79a83"/><path d="m140.805 383.21-49.805 112.79h44.02l44.28-100.24z" fill="#c79a83"/><path d="m475.15 207.82 9.62 16.96-30.43 2.15-.55-39.23 30.43 4.18z" fill="#c1677b"/><path d="m453.79 187.7.55 39.23-25.38-7.71-.37-22.79z" fill="#e87187"/><path d="m196.85 398.62q-8.91-1.02-17.55-2.86a189.955 189.955 0 0 1 -38.52-12.55 191.97 191.97 0 0 1 -113.55-175.26c0-106.01 85.94-191.95 191.96-191.95 105.97 0 191.88 85.87 191.95 191.82v.13a191.984 191.984 0 0 1 -114.03 175.48 189.613 189.613 0 0 1 -38.58 12.44q-8.67 1.815-17.6 2.82a194.2 194.2 0 0 1 -44.08-.07z" fill="#5fa8ed"/><path d="m360.98 207.82v.13a141.725 141.725 0 1 1 0-.13z" fill="#ccd3df"/><path d="m311.08 207.82v.13a91.815 91.815 0 1 1 0-.13z" fill="#5fa8ed"/><path d="m267.25 207.82v.13a48 48 0 1 1 0-.13z" fill="#ccd3df"/><path d="m233.22 182.73-37.13 24.51 37.91 25.67z" fill="#f3ce7d"/><path d="m226.85 398.62q-8.91-1.02-17.55-2.86a189.955 189.955 0 0 1 -38.52-12.55 191.97 191.97 0 0 1 -113.55-175.26c0-100.962 77.951-183.717 176.959-191.37q-7.425-.573-15-.58c-106.019 0-191.959 85.94-191.959 191.95a191.97 191.97 0 0 0 113.55 175.26 189.955 189.955 0 0 0 38.52 12.55q8.64 1.83 17.55 2.86a193.824 193.824 0 0 0 22.34 1.29c5.064 0 10.081-.209 15.046-.6-2.473-.186-4.936-.41-7.386-.69z" fill="#5493c6"/><g fill="#284268"><path d="m123.993 62.342a175.575 175.575 0 0 0 -70.693 93.258 6 6 0 1 0 11.439 3.627 163.533 163.533 0 0 1 65.856-86.86 6 6 0 0 0 -6.6-10.024z"/><path d="m151.586 47.542c-1.736.739-3.48 1.514-5.181 2.3a6 6 0 1 0 5.059 10.882c1.583-.736 3.205-1.458 4.821-2.146a6 6 0 0 0 -4.7-11.041z"/><path d="m482.049 207.829 7.385-12.976a6 6 0 0 0 -4.4-8.913l-30.426-4.182a6 6 0 0 0 -2.781.274l-25.2 8.731a6.112 6.112 0 0 0 -4.035 5.856l.087 5.381h-5.634c-3.16-106.408-90.7-192-197.856-192-109.155 0-197.957 88.8-197.957 197.954 0 78.253 45.645 146.041 111.705 178.153l-47.474 107.469a6 6 0 0 0 5.488 8.424h44.072a6.01 6.01 0 0 0 5.489-3.587l18.731-42.413h31.757v40a5.878 5.878 0 0 0 5.854 6h44.073a6.064 6.064 0 0 0 6.073-6v-40h31.539l18.731 42.413a6.008 6.008 0 0 0 5.488 3.587h44.072a6 6 0 0 0 5.488-8.424l-47.367-107.228c64.612-31.188 109.801-96.47 112.089-172.348h5.833l.09 5.4a5.946 5.946 0 0 0 4.255 5.6l25.38 7.69a5.989 5.989 0 0 0 1.744.248c.14 0 .281-.011.422-.02l30.425-2.148a6 6 0 0 0 4.8-8.948zm-350.935 282.171h-30.953l43.727-98.985a196.3 196.3 0 0 0 27.051 8.936zm103.886 0h-32v-34h32zm-70.456-46 5.509-12h97.676l5.508 12zm10.81-24 7.617-17.424q3.987.741 8.029 1.317v16.107zm27.646 0v-14.757q8.01.651 16.187.665 7.984 0 15.813-.632v14.724zm44 0v-16.055q3.952-.558 7.857-1.264l7.571 17.319zm90.62 70h-30.953l-39.726-89.929a196.293 196.293 0 0 0 27.043-8.851zm-144.839-287.759a5.992 5.992 0 0 0 -.059 9.967l37.913 25.675a6 6 0 0 0 6.218.309 5.867 5.867 0 0 0 3.147-5.284l-.3-18.908h21.112a42.071 42.071 0 1 1 .012-12h-21.31l-.3-19.272a6.071 6.071 0 0 0 -3.2-5.256 6 6 0 0 0 -6.107.276zm35.039 19.241-20.939-14.182 20.507-13.533zm-8.633-67.595a54.067 54.067 0 1 0 53.72 60.113h31.932a85.885 85.885 0 1 1 .007-12h-31.927a54.139 54.139 0 0 0 -53.732-48.113zm0-43.822a97.889 97.889 0 1 0 97.696 103.935h37.952c-3.175 72.08-62.8 129.745-135.648 129.745-74.875 0-135.791-60.916-135.791-135.791s60.916-135.79 135.791-135.79c72.878 0 132.523 57.714 135.652 129.836h-37.95a98.01 98.01 0 0 0 -97.702-91.935zm0-49.9c-81.493 0-147.791 66.3-147.791 147.79s66.3 147.791 147.791 147.791c79.465 0 144.472-63.046 147.656-141.745h38.189c-3.2 99.747-85.334 179.908-185.845 179.908-102.536 0-185.955-83.418-185.955-185.954s83.419-185.955 185.955-185.955c100.542 0 182.692 80.21 185.848 180h-38.188c-3.137-78.742-68.163-141.836-147.66-141.836zm215.7 154.582-.231-14.066 13.251-4.591.318 22.709zm25.362 5.749-.362-25.9 14.729 2.026-4.686 8.234a6 6 0 0 0 0 5.928l4.925 8.682z"/></g></svg>