<svg id="Capa_1" enable-background="new 0 0 512 512" height="512" viewBox="0 0 512 512" width="512" xmlns="http://www.w3.org/2000/svg"><g><g><path d="m512 179v286.41h-256l-83.426-144.376 83.426-142.044 26.87-17.28 208.34.01z" fill="#e2e2eb"/><path d="m238.447 161.71 17.553 17.28v286.42h-256v-286.41l30.11-16.52z" fill="#f5f5f8"/></g><g><path d="m512 46.59v132.41l-256-.01-23.17-88.254 23.17-44.146z" fill="#04303e"/><path d="m256 46.59v132.4l-256 .01v-132.41z" fill="#07485e"/></g><g><g><g><path d="m428.936 98.003h30.298v30h-30.298z" fill="#e2e2eb"/></g></g><g><g><path d="m368.681 98.003h30.298v30h-30.298z" fill="#e2e2eb"/></g></g><g><g><path d="m308.766 98.003h30.298v30h-30.298z" fill="#e2e2eb"/></g></g></g><g><g><path d="m383.32 247.62v156.38h-127.32l-25.723-40.073 25.723-38.117 3.751-10.436 105.128-64.562z" fill="#edbe00"/><path d="m256 325.81v78.19h-127.32v-156.38l20.958 3.275 101.14 62.112z" fill="#fc0"/></g><g><path d="m383.32 247.62-127.32 78.19-25.723-46.648 25.723-31.542z" fill="#ffd944"/><path d="m256 247.62v78.19l-127.32-78.19z" fill="#ffe377"/></g></g></g></svg>