<?xml version="1.0" encoding="UTF-8"?><!DOCTYPE svg PUBLIC "-//W3C//DTD SVG 1.1//EN" "http://www.w3.org/Graphics/SVG/1.1/DTD/svg11.dtd"><svg xmlns="http://www.w3.org/2000/svg" xmlns:xlink="http://www.w3.org/1999/xlink" version="1.1" id="Layer_1" x="0px" y="0px" width="100px" height="100px" viewBox="0 0 100 100" xml:space="preserve"><path id="Squarespace" d="M19.906 46.577L46.931 19.39c6.785-6.822 17.781-6.822 24.562 0 1.624 1.71 1.548 4.477-.123 6.158a4.323 4.323 0 0 1-6.143 0l-.41-.476a8.644 8.644 0 0 0-11.746.497L25.439 53.362c-1.82 1.687-4.568 1.687-6.263-.018a4.384 4.384 0 0 1 .73-6.767zm60.674.591a4.325 4.325 0 0 0-6.14 0 4.62 4.62 0 0 0-.592.737L46.932 74.981a8.652 8.652 0 0 1-12.282 0l-.123-.019a4.325 4.325 0 0 0-6.14 0 4.386 4.386 0 0 0 0 6.174c.217.217.448.408.692.573 6.82 6.263 17.397 6.082 23.992-.552L80.58 53.345a4.39 4.39 0 0 0 0-6.177zM38.326 65.106a4.38 4.38 0 0 0-.728 6.766c1.695 1.705 4.442 1.705 6.263.021l27.632-27.798a8.648 8.648 0 0 1 12.279 0c3.396 3.412 3.396 8.945 0 12.355L57.571 82.931a8.652 8.652 0 0 0 12.282 0l20.062-20.304c6.78-6.822 6.78-17.883 0-24.708-6.78-6.818-17.778-6.818-24.562 0L38.326 65.106zm-3.677-2.479l27.509-27.812a4.384 4.384 0 0 0 0-6.176 4.321 4.321 0 0 0-6.14 0 4.139 4.139 0 0 0-.589.735L28.51 56.451a8.644 8.644 0 0 1-12.279 0c-3.395-3.41-3.395-8.943 0-12.355l26.201-26.478a8.646 8.646 0 0 0-12.282 0L10.088 37.919c-6.783 6.825-6.783 17.886 0 24.708 6.783 6.824 17.783 6.824 24.561 0z"/><metadata><rdf:RDF xmlns:rdf="http://www.w3.org/1999/02/22-rdf-syntax-ns#" xmlns:rdfs="http://www.w3.org/2000/01/rdf-schema#" xmlns:dc="http://purl.org/dc/elements/1.1/"><rdf:Description about="https://iconscout.com/legal#licenses" dc:title="squarespace" dc:description="squarespace" dc:publisher="Iconscout" dc:date="2018-02-25" dc:format="image/svg+xml" dc:language="en"><dc:creator><rdf:Bag><rdf:li>Icons Mind</rdf:li></rdf:Bag></dc:creator></rdf:Description></rdf:RDF></metadata></svg>