<svg id="color" enable-background="new 0 0 24 24" height="512" viewBox="0 0 24 24" width="512" xmlns="http://www.w3.org/2000/svg"><path d="m13.66 4.96 2.18 2.82 2.06 2.68 1.16 1.5c.13.17.33.28.55.29s.42-.07.58-.23l1.88-1.91c1.24-1.28 1.93-2.95 1.93-4.73v-4.63c0-.41-.34-.75-.75-.75h-7.5c-.41 0-.75.34-.75.75v.74c-.91.7-1.48 1.81-1.5 3 0 .17.05.33.16.47z" fill="#ffb74d"/><path d="m10.34 19.04-2.18-2.82-2.06-2.68-1.16-1.5c-.13-.17-.33-.28-.55-.29s-.42.07-.58.23l-1.88 1.91c-1.24 1.28-1.93 2.95-1.93 4.73v4.63c0 .41.34.75.75.75h7.5c.41 0 .75-.34.75-.75v-.74c.91-.7 1.48-1.81 1.5-3 0-.17-.05-.33-.16-.47z" fill="#ffb74d"/><path d="m19.25 20h-14.5c-.414 0-.75-.336-.75-.75v-14.5c0-.414.336-.75.75-.75h14.5c.414 0 .75.336.75.75v14.5c0 .414-.336.75-.75.75z" fill="#eceff1"/><path d="m12 4h-7.25c-.414 0-.75.336-.75.75v14.5c0 .414.336.75.75.75h7.25z" fill="#cdd0d2"/><g fill="#ffcc80"><path d="m8.49 13.76c-.2-.39-.58-.66-1.02-.74-.45-.07-.91.07-1.23.38l-.14.14-3.31 3.2-2.79 2.6v3.91c0 .41.34.75.75.75h4.25v-1.217l1.52-1.233c.44-.54.68-1.19.68-1.88 0-.58-.17-1.13-.47-1.6l1.43-1.85.12-.15c.51-.66.6-1.57.21-2.31z"/><path d="m15.51 10.24c.2.39.58.66 1.02.74.45.07.91-.07 1.23-.38l.14-.14 3.31-3.2 2.79-2.6v-3.91c0-.41-.34-.75-.75-.75h-4.25v1.217l-1.52 1.233c-.44.54-.68 1.19-.68 1.88 0 .58.17 1.13.47 1.6l-1.43 1.85-.12.15c-.51.66-.6 1.57-.21 2.31z"/></g></svg>