<svg id="Capa_1" enable-background="new 0 0 510 510" height="512" viewBox="0 0 510 510" width="512" xmlns="http://www.w3.org/2000/svg"><g><path d="m228 394.998-25.192 9.999c9.636 18.867 9.637 41.137.001 60.004l26.095 10 26.096-10.001 10-30-10-30z" fill="#005966"/><path d="m307.191 404.998-26.524-9.999-25.667 10.001v60l26.098 10.005 26.098-9.994c-9.64-18.869-9.641-41.143-.005-60.013z" fill="#003034"/><path d="m165 465v30h90l10-15-10-15z" fill="#003034"/><path d="m255 465h90v30h-90z" fill="#0a0a0a"/><path d="m0 15v357.333l136 10 119-10 10-199.282-10-158.051z" fill="#005966"/><path d="m510 15h-255v357.333l121.333 10 133.667-10z" fill="#003034"/><path d="m30 45v285h225l10-145.606-10-139.394z" fill="#fbf4f4"/><path d="m255 45h225v285h-225z" fill="#e9e4f0"/><path d="m135 171.213-40.606-40.607 21.212-21.212 19.394 19.393 49.394-49.393 21.212 21.212z" fill="#c9e568"/><path d="m135 276.213-40.606-40.607 21.212-21.212 19.394 19.393 49.394-49.393 21.212 21.212z" fill="#c9e568"/><g fill="#cdcde3"><path d="m255 75h150v30h-150z"/><path d="m255 135h150v30h-150z"/><path d="m255 195h150v30h-150z"/><path d="m255 255h150v30h-150z"/></g><path d="m255 405h-255v-32.667h255l10 16.334z" fill="#003034"/><path d="m255 372.333h255v32.667h-255z" fill="#0a0a0a"/></g></svg>