<?xml version="1.0" encoding="iso-8859-1"?>
<!-- Generator: Adobe Illustrator 19.0.0, SVG Export Plug-In . SVG Version: 6.00 Build 0)  -->
<svg version="1.1" id="Capa_1" xmlns="http://www.w3.org/2000/svg" xmlns:xlink="http://www.w3.org/1999/xlink" x="0px" y="0px"
	 viewBox="0 0 512 512" style="enable-background:new 0 0 512 512;" xml:space="preserve">
<path style="fill:#E5E5E5;" d="M512,166v271c0,8.399-6.599,15-15,15h-46l-53.401,30.599H175L148.5,452L120,415.399V166
	c0-8.401,6.599-15,15-15h362C505.401,151,512,157.599,512,166z"/>
<path style="fill:#C8C6CD;" d="M512,166v271c0,8.399-6.599,15-15,15h-46l-53.401,30.599H316V151h181
	C505.401,151,512,157.599,512,166z"/>
<g>
	<path style="fill:#FDBF00;" d="M451,15v362c0,8.399-6.599,15-15,15h-90c-8.401,0-15-6.601-15-15v-45l23.101-15.901L331,302v-30
		l12.299-9.3L331,242v-31l19.2-12.301L331,181v-30l17.701-16.5L331,121V91l16.5-15.601L331,61V15c0-8.401,6.599-15,15-15h90
		C444.401,0,451,6.599,451,15z"/>
	<path style="fill:#FDBF00;" d="M270.7,286.7c0,1.8,0,3.3-0.601,5.099l-30,90c-1.8,6-7.5,10.201-14.099,10.201
		s-12.299-4.2-14.099-10.201l-30-90c-0.601-1.8-0.601-3.3-0.601-5.099l21.299-14.7H250.9L270.7,286.7z"/>
</g>
<path style="fill:#FEA832;" d="M250.901,272l19.799,14.7c0,1.8,0,3.3-0.601,5.099l-30,90c-1.8,6-7.5,10.201-14.099,10.201V272
	H250.901z"/>
<path style="fill:#FE9923;" d="M451,15v362c0,8.399-6.599,15-15,15h-45V0h45C444.401,0,451,6.599,451,15z"/>
<polygon style="fill:#3AAAFF;" points="271,91 271,287 181,287 181,91 203.5,61 242.8,61 "/>
<polygon style="fill:#006EFF;" points="271,91 271,287 226,287 226,61 242.8,61 "/>
<path style="fill:#5A5A5A;" d="M226,0c-24.901,0-45,20.099-45,45v46h90V45C271,20.099,250.901,0,226,0z"/>
<path style="fill:#444444;" d="M271,45v46h-45V0C250.901,0,271,20.099,271,45z"/>
<g>
	<path style="fill:#A24F3D;" d="M391,76c0,8.401-6.599,15-15,15h-45V61h45C384.401,61,391,67.599,391,76z"/>
	<path style="fill:#A24F3D;" d="M391,136c0,8.399-6.599,15-15,15h-45v-30h45C384.401,121,391,127.599,391,136z"/>
	<path style="fill:#A24F3D;" d="M391,196c0,8.399-6.599,15-15,15h-45v-30h45C384.401,181,391,187.599,391,196z"/>
	<path style="fill:#A24F3D;" d="M391,257c0,8.399-6.599,15-15,15h-45v-30h45C384.401,242,391,248.599,391,257z"/>
	<path style="fill:#A24F3D;" d="M391,317c0,8.399-6.599,15-15,15h-45v-30h45C384.401,302,391,308.599,391,317z"/>
</g>
<path style="fill:#FE8821;" d="M120,437c0,1.976,0.43,3.843,1.122,5.57L150,437V166c0-40.443-32.064-73.625-72.484-74.958
	C76.672,91.015,75.831,91,75,91c-41.353,0-75,33.647-75,75v271l30.875-8.663C34.927,407.659,53.152,392,75,392
	C99.814,392,120,412.186,120,437z"/>
<path style="fill:#A24F3D;" d="M451,452v45c0,8.399-6.599,15-15,15H75c-41.4,0-75-33.6-75-75s33.6-75,75-75
	c46.199,0,82.8,41.999,73.5,90H451z"/>
<path style="fill:#8B432D;" d="M451,452v45c0,8.399-6.599,15-15,15H316v-60H451z"/>
<g>
</g>
<g>
</g>
<g>
</g>
<g>
</g>
<g>
</g>
<g>
</g>
<g>
</g>
<g>
</g>
<g>
</g>
<g>
</g>
<g>
</g>
<g>
</g>
<g>
</g>
<g>
</g>
<g>
</g>
</svg>
