<?xml version="1.0" encoding="utf-8"?>
<!-- Generator: Adobe Illustrator 24.3.0, SVG Export Plug-In . SVG Version: 6.00 Build 0)  -->
<svg version="1.1" xmlns="http://www.w3.org/2000/svg" xmlns:xlink="http://www.w3.org/1999/xlink" x="0px" y="0px"
	 viewBox="0 0 500 500" style="enable-background:new 0 0 500 500;" xml:space="preserve">
<style type="text/css">
	.st0{fill:#FFFFFF;}
	.st1{fill:#F1F2F6;}
	.st2{fill:#2C3E50;}
	.st3{fill:#F2C6C2;}
	.st4{fill:#EF8B8B;}
	.st5{fill:none;stroke:#222F3E;stroke-width:0.25;stroke-miterlimit:10;}
	.st6{fill:#222F3E;}
	.st7{fill:#FF4757;}
	.st8{fill:#3A3A37;}
	.st9{fill:#3979F8;}
	.st10{fill:none;stroke:#1D1D1B;stroke-width:0.25;stroke-miterlimit:10;}
	.st11{fill:#2F3542;}
	.st12{fill:none;stroke:#222F3E;stroke-width:0.75;stroke-miterlimit:10;}
	.st13{fill:none;stroke:#FFFFFF;stroke-miterlimit:10;}
	.st14{fill:#57606F;}
	.st15{fill:none;stroke:#2C3E50;stroke-miterlimit:10;}
	.st16{fill:none;stroke:#2F3542;stroke-miterlimit:10;}
	.st17{fill:none;stroke:#FFFFFF;stroke-width:0.5;stroke-miterlimit:10;}
	.st18{fill:none;stroke:#2F3542;stroke-width:0.5;stroke-miterlimit:10;}
	.st19{fill:none;stroke:#3979F8;stroke-miterlimit:10;}
	.st20{fill:#3979F8;stroke:#3979F8;stroke-miterlimit:10;}
</style>
<g id="BACKGROUND">
	<rect class="st0" width="500" height="500"/>
</g>
<g id="OBJETCS">
	<g>
		<ellipse class="st1" cx="251.9" cy="479.1" rx="92.5" ry="7.5"/>
		<g>
			<path class="st1" d="M97.6,145.1c0.1-1,0.1-2,0-2.9l2.1-0.9l-1.7-3.7l-2,0.9c-0.6-0.9-1.4-1.6-2.3-2.2l0.8-2.1l-3.8-1.5l-0.8,2.1
				c-1.1-0.2-2.2-0.1-3.3,0.1l-0.9-2.1l-3.7,1.7l1,2.1c-0.8,0.6-1.4,1.3-2,2.1l-2.1-0.8l-1.5,3.8l2.1,0.8c-0.1,0.9-0.1,1.8,0,2.7
				l-2.3,1l1.7,3.7l2.1-1c0.6,0.9,1.5,1.8,2.4,2.4l-0.8,2.1l3.8,1.5l0.8-2.1c1.2,0.2,2.3,0.1,3.5-0.2l0.9,2.1l3.7-1.7l-1-2.2
				c0.7-0.6,1.3-1.2,1.8-2l2.1,0.8l1.5-3.8L97.6,145.1z M92.9,145.5c-0.9,2.4-3.6,3.7-6.1,2.7c-2.4-0.9-3.7-3.6-2.7-6.1
				c0.9-2.4,3.6-3.7,6.1-2.7C92.6,140.3,93.8,143,92.9,145.5z"/>
			<polygon class="st1" points="441.5,198 432.3,198.2 427.2,205.8 424.2,197.1 415.4,194.6 422.7,189.1 422.4,179.9 429.9,185.2 
				438.5,182 435.8,190.8 			"/>
			<polygon class="st1" points="172.6,201 166.9,201.1 163.8,205.8 162,200.5 156.6,199 161.1,195.6 160.9,190 165.5,193.2 
				170.7,191.2 169.1,196.6 			"/>
			<path class="st1" d="M221.7,329.1c1.3-9,1.2-18-0.4-26.7l18.9-8.5l-15.3-34.1l-18.1,8.1c-5.7-7.9-12.7-14.8-21-20.4l7.5-19.6
				l-35-13.3l-7.3,19.3c-10-1.5-20.1-1.1-29.7,0.9l-8.6-19.2L78.6,231l8.8,19.6c-6.9,5.3-13,11.8-18,19.2l-19.6-7.5l-13.3,35
				l19.3,7.3c-1.2,8.3-1.2,16.6,0,24.7l-21.2,9.5l15.3,34.1l19.6-8.8c5.8,8.5,13.3,16.1,22.1,22.1l-7.5,19.6l35,13.3l7.3-19.3
				c10.7,1.6,21.4,1.1,31.6-1.4l8.5,18.8l34.1-15.3l-9-20c6.2-5.1,11.8-11.1,16.4-17.9l19.6,7.5l13.3-35L221.7,329.1z M178.6,332.3
				c-8.4,22.2-33.2,33.3-55.4,24.9c-22.2-8.4-33.3-33.2-24.9-55.4c8.4-22.2,33.3-33.3,55.4-24.9C175.9,285.3,187,310.1,178.6,332.3z
				"/>
			<path class="st1" d="M335.2,118.8c1-6.9,0.9-13.8-0.3-20.5l14.5-6.5l-11.8-26.2l-13.9,6.2c-4.3-6-9.7-11.4-16.1-15.7l5.7-15
				L286.6,31L281,45.8c-7.7-1.1-15.4-0.9-22.8,0.7l-6.6-14.7l-26.2,11.8l6.7,15c-5.3,4.1-10,9-13.8,14.7l-15-5.7l-10.2,26.8
				l14.8,5.6c-0.9,6.4-0.9,12.8,0,18.9l-16.2,7.3l11.8,26.2l15-6.7c4.5,6.6,10.2,12.3,16.9,16.9l-5.7,15l26.8,10.2l5.6-14.8
				c8.2,1.2,16.4,0.8,24.2-1.1l6.5,14.4l26.2-11.8l-6.9-15.4c4.8-3.9,9-8.5,12.6-13.7l15,5.7l10.2-26.8L335.2,118.8z M302.1,121.2
				c-6.5,17-25.5,25.6-42.5,19.1c-17-6.5-25.6-25.5-19.1-42.5c6.5-17,25.5-25.6,42.5-19.1C300,85.2,308.6,104.2,302.1,121.2z"/>
			<path class="st1" d="M405.9,281.8c0.8-5.1,0.7-10.2-0.2-15.2l10.7-4.8l-8.7-19.4l-10.3,4.6c-3.2-4.5-7.2-8.4-11.9-11.6l4.2-11.1
				l-19.8-7.5l-4.2,11c-5.7-0.8-11.4-0.6-16.8,0.5l-4.9-10.9l-19.4,8.7l5,11.1c-3.9,3-7.4,6.7-10.2,10.9l-11.1-4.2l-7.5,19.9l11,4.2
				c-0.7,4.7-0.7,9.4,0,14l-12,5.4l8.7,19.4l11.1-5c3.3,4.9,7.5,9.1,12.5,12.5l-4.2,11.1l19.9,7.5l4.2-11c6.1,0.9,12.2,0.6,17.9-0.8
				l4.8,10.7l19.4-8.7l-5.1-11.4c3.5-2.9,6.7-6.3,9.3-10.2l11.1,4.2l7.5-19.8L405.9,281.8z M381.4,283.5
				c-4.8,12.6-18.9,18.9-31.5,14.1c-12.6-4.8-18.9-18.9-14.1-31.5c4.8-12.6,18.9-18.9,31.5-14.1C379.9,256.9,386.2,271,381.4,283.5z
				"/>
			<circle class="st1" cx="136" cy="190" r="8"/>
			<circle class="st1" cx="156.5" cy="68.5" r="5.5"/>
			<circle class="st1" cx="144" cy="84" r="8"/>
			<circle class="st1" cx="67" cy="125" r="8"/>
			<circle class="st1" cx="328" cy="406" r="8"/>
			<circle class="st1" cx="458" cy="162" r="8"/>
			<path class="st1" d="M450.6,257.1c0.1-1,0.1-2,0-2.9l2.1-0.9l-1.7-3.7l-2,0.9c-0.6-0.9-1.4-1.6-2.3-2.2l0.8-2.1l-3.8-1.5
				l-0.8,2.1c-1.1-0.2-2.2-0.1-3.3,0.1l-0.9-2.1l-3.7,1.7l1,2.1c-0.8,0.6-1.4,1.3-2,2.1l-2.1-0.8l-1.5,3.8l2.1,0.8
				c-0.1,0.9-0.1,1.8,0,2.7l-2.3,1l1.7,3.7l2.1-1c0.6,0.9,1.5,1.8,2.4,2.4l-0.8,2.1l3.8,1.5l0.8-2.1c1.2,0.2,2.3,0.1,3.5-0.2
				l0.9,2.1l3.7-1.7l-1-2.2c0.7-0.6,1.3-1.2,1.8-2l2.1,0.8l1.5-3.8L450.6,257.1z M445.9,257.5c-0.9,2.4-3.6,3.7-6.1,2.7
				c-2.4-0.9-3.7-3.6-2.7-6.1c0.9-2.4,3.6-3.7,6.1-2.7C445.6,252.3,446.8,255,445.9,257.5z"/>
		</g>
	</g>
	<g>
		<g>
			<g>
				<path class="st2" d="M258,187h-34v-51c0-9.4,7.6-17,17-17l0,0c9.4,0,17,7.6,17,17V187z"/>
				
					<rect x="241.1" y="145.7" transform="matrix(-1 -1.224647e-16 1.224647e-16 -1 495.8862 306.925)" class="st3" width="13.8" height="15.6"/>
				<path class="st4" d="M254.8,145.7v8.9c-1.3,0.1-4.4,0-7.7-1.3c-3.7-1.5-5.5-3.8-6.1-4.7c0-1,0-1.9,0-2.9H254.8z"/>
				<path class="st3" d="M235.4,141.1c2.9,7.5,9.8,11.8,15.4,9.6c5.6-2.2,7.7-10,4.8-17.5c-2.9-7.5-9.8-11.8-15.4-9.6
					C234.6,125.8,232.5,133.6,235.4,141.1z"/>
				<path class="st3" d="M229.4,144.6c-2-2.2-2.4-5.2-0.7-6.7c1.6-1.5,4.6-0.9,6.6,1.3c2,2.2,2.4,5.2,0.7,6.7
					C234.4,147.4,231.5,146.8,229.4,144.6z"/>
				<g>
					<g>
						<g>
							<path class="st5" d="M252,135.2c-0.1-0.1-1-0.6-2.1-0.1c-1.1,0.5-1.3,1.5-1.4,1.6"/>
						</g>
						<path class="st6" d="M249.5,135.9c0.1,0.3,0.5,0.5,0.8,0.3c0.3-0.1,0.5-0.5,0.3-0.8c-0.1-0.3-0.5-0.5-0.8-0.3
							C249.6,135.2,249.4,135.6,249.5,135.9z"/>
					</g>
					<g>
						<g>
							<path class="st5" d="M243.2,139c-0.1-0.1-1-0.6-2.1-0.1c-1.1,0.5-1.3,1.5-1.4,1.6"/>
						</g>
						<path class="st6" d="M240.7,139.6c0.1,0.3,0.5,0.5,0.8,0.3c0.3-0.1,0.5-0.5,0.3-0.8c-0.1-0.3-0.5-0.5-0.8-0.3
							C240.7,139,240.6,139.3,240.7,139.6z"/>
					</g>
					<path class="st7" d="M246.9,133.7l5-1.9c0.3-0.1,0.5-0.5,0.4-0.9l0,0c-0.1-0.3-0.5-0.5-0.9-0.4l-5,1.9
						c-0.3,0.1-0.5,0.5-0.4,0.9l0,0C246.2,133.6,246.6,133.8,246.9,133.7z"/>
					<g>
						<g>
							<g>
								<path class="st8" d="M247.2,133.6c-0.1-0.7,0-1.3,0.4-1.9c0.1-0.1-0.1-0.2-0.1-0.1c-0.4,0.6-0.5,1.3-0.4,2
									C247,133.7,247.2,133.7,247.2,133.6L247.2,133.6z"/>
							</g>
						</g>
						<g>
							<g>
								<path class="st8" d="M248.4,131.4c-0.4,0.5-0.3,1-0.3,1.6c0,0.1,0.2,0.1,0.2,0c-0.1-0.5-0.1-1.1,0.2-1.5
									C248.6,131.5,248.5,131.4,248.4,131.4L248.4,131.4z"/>
							</g>
						</g>
						<g>
							<g>
								<path class="st8" d="M249.8,130.8c-0.1,0.1-0.2,0.2-0.2,0.3c-0.1,0.2-0.1,0.3-0.2,0.5c-0.1,0.3-0.2,0.7-0.2,1.1
									c0,0.1,0.1,0.1,0.1,0c0-0.3,0.1-0.6,0.1-0.9c0-0.1,0.1-0.3,0.1-0.4c0-0.1,0.1-0.2,0.1-0.2c0-0.1,0.1-0.1,0.1-0.1
									C249.9,130.9,249.9,130.8,249.8,130.8L249.8,130.8z"/>
							</g>
						</g>
						<g>
							<g>
								<path class="st8" d="M250.6,130.9c-0.3,0.4-0.4,0.9-0.4,1.4c0,0.1,0.1,0.1,0.2,0c0.1-0.5,0.1-1,0.4-1.4
									C250.8,130.9,250.7,130.8,250.6,130.9L250.6,130.9z"/>
							</g>
						</g>
						<g>
							<g>
								<path class="st8" d="M251.8,130.6c-0.2,0.4-0.3,0.8-0.3,1.3c0,0.1,0.1,0.1,0.1,0c0-0.4,0.1-0.8,0.3-1.2
									C252,130.5,251.9,130.5,251.8,130.6L251.8,130.6z"/>
							</g>
						</g>
						<g>
							<g>
								<path class="st8" d="M246.2,131.9c-0.1,0.6-0.1,1.2,0.2,1.8c0,0.1,0.2,0,0.1-0.1c-0.2-0.5-0.3-1.1-0.2-1.7
									C246.4,131.9,246.3,131.9,246.2,131.9L246.2,131.9z"/>
							</g>
						</g>
					</g>
					<path class="st7" d="M241.4,135.8l-4.9,2c-0.3,0.1-0.7,0-0.9-0.4l0,0c-0.1-0.3,0-0.7,0.4-0.9l4.9-2c0.3-0.1,0.7,0,0.9,0.4l0,0
						C242,135.3,241.8,135.7,241.4,135.8z"/>
					<g>
						<g>
							<g>
								<path class="st8" d="M241.3,135.8c-0.4-0.6-1-1-1.7-1.2c-0.1,0-0.1,0.1,0,0.1c0.6,0.1,1.2,0.6,1.6,1.1
									C241.3,136,241.4,135.9,241.3,135.8L241.3,135.8z"/>
							</g>
						</g>
						<g>
							<g>
								<path class="st8" d="M238.8,135.3c0.5,0.1,0.9,0.5,1.2,0.9c0.1,0.1,0.2,0,0.1-0.1c-0.3-0.4-0.7-0.9-1.3-1
									C238.8,135.2,238.7,135.2,238.8,135.3C238.7,135.3,238.7,135.3,238.8,135.3L238.8,135.3z"/>
							</g>
						</g>
						<g>
							<g>
								<path class="st8" d="M237.5,135.8c0.1,0,0.2,0,0.2,0c0.1,0,0.1,0.1,0.2,0.1c0.1,0.1,0.3,0.1,0.4,0.2
									c0.3,0.2,0.5,0.4,0.7,0.6c0.1,0.1,0.2,0,0.1-0.1c-0.2-0.2-0.5-0.4-0.8-0.6c-0.1-0.1-0.3-0.2-0.4-0.2
									c-0.1-0.1-0.3-0.2-0.5-0.1C237.3,135.7,237.4,135.8,237.5,135.8L237.5,135.8z"/>
							</g>
						</g>
						<g>
							<g>
								<path class="st8" d="M236.8,136.4c0.5,0.1,0.9,0.4,1.2,0.7c0.1,0.1,0.2,0,0.1-0.1c-0.4-0.3-0.8-0.7-1.3-0.8
									C236.7,136.3,236.7,136.4,236.8,136.4L236.8,136.4z"/>
							</g>
						</g>
						<g>
							<g>
								<path class="st8" d="M235.7,137c0.4,0.2,0.8,0.4,1.1,0.7c0.1,0.1,0.2,0,0.1-0.1c-0.3-0.3-0.7-0.5-1.1-0.7
									C235.7,136.8,235.6,136.9,235.7,137L235.7,137z"/>
							</g>
						</g>
						<g>
							<g>
								<path class="st8" d="M240.7,134.2c0.5,0.3,0.8,0.8,1,1.3c0,0.1,0.2,0.1,0.1,0c-0.2-0.6-0.6-1.1-1.1-1.4
									C240.7,134,240.6,134.2,240.7,134.2L240.7,134.2z"/>
							</g>
						</g>
					</g>
					<path class="st9" d="M237.4,146.1c0.5,1.3,2,1.8,3.4,1.3c1.4-0.5,2.1-2,1.6-3.2c-0.5-1.3-2-1.8-3.4-1.3
						C237.6,143.4,236.9,144.9,237.4,146.1z"/>
					<path class="st9" d="M252.3,140.3c0.5,1.3,2,1.8,3.4,1.3c1.4-0.5,2.1-2,1.6-3.2c-0.5-1.3-2-1.8-3.4-1.3
						C252.5,137.6,251.8,139.1,252.3,140.3z"/>
					<g>
						<path class="st10" d="M248.5,142c0-0.1,0.1-0.4,0.5-0.7c0.3-0.2,0.6-0.2,0.7-0.2"/>
						<path class="st10" d="M247.6,142.3c-0.1-0.1-0.3-0.3-0.7-0.3c-0.4,0-0.7,0.1-0.7,0.2"/>
						<path class="st10" d="M246.1,141c-0.4,0.2-0.6,0.6-0.5,0.9c0,0.3,0.3,0.6,0.6,0.8"/>
						<path class="st10" d="M249,140.2c0.4,0,0.8,0.2,0.9,0.5c0.1,0.3,0.1,0.7-0.1,1"/>
					</g>
					<path class="st0" d="M251.5,142.2c0.6,1.6-0.2,3.5-1.8,4.1c-1.6,0.6-3.5-0.2-4.1-1.8c0-0.1-0.1-0.2-0.1-0.2l5.9-2.3
						C251.4,142.1,251.4,142.1,251.5,142.2z"/>
				</g>
				<path class="st2" d="M230.9,135.7L230.9,135.7c-2.2-1.7-2.6-4.8-1-7l5.6-7.3c1.7-2.2,4.8-2.6,7-1l0,0c2.2,1.7,2.6,4.8,1,7
					l-5.6,7.3C236.2,136.9,233.1,137.4,230.9,135.7z"/>
			</g>
			<g>
				<g>
					
						<rect x="255.8" y="276.6" transform="matrix(-1 -1.224647e-16 1.224647e-16 -1 536.7966 746.6675)" class="st3" width="25.1" height="193.4"/>
				</g>
				<g>
					
						<rect x="211.9" y="276.6" transform="matrix(-1 -1.224647e-16 1.224647e-16 -1 448.8645 746.6675)" class="st3" width="25.1" height="193.4"/>
				</g>
				<path class="st11" d="M244.3,431.7v-29.3h0V263.6h4.3v168.1h39.6l-3.6-110.6l-0.4-22.2l0,0c0-4.1,0-8.8-0.3-14.1
					c0-0.4,0-0.7-0.1-1.1c-0.1-1.2-0.1-2.4-0.2-3.6c0-0.4,0-0.7-0.1-1.1c0-0.3,0-0.6,0-1c-0.1-1-0.1-2-0.2-3c0-0.1,0-0.3,0-0.4
					c-0.2-3.1-0.4-5.7-0.7-8.2c0-0.2-0.1-0.5-0.1-0.7c-0.1-0.9-0.2-1.8-0.4-2.7c-0.4-2.5-0.9-4.8-1.7-7.2c-0.9-2.8-2.3-6.5-4.5-10.6
					c-0.1-0.1-0.1-0.3-0.2-0.4c-0.9-1.7-2-3.4-3.2-5.2c-0.6-0.9-1.3-1.8-2-2.7c-0.2-0.2-0.4-0.5-0.6-0.7c-1-1.2-2-2.5-3.1-3.7v-21.1
					h-40.7v20.8c-2.3,2.5-4.2,5-5.9,7.4c-1.3,1.9-2.5,3.8-3.4,5.6c-0.1,0.1-0.2,0.3-0.2,0.4c-2.1,4-3.4,7.5-4.3,10.2
					c-0.7,2.4-1.3,4.7-1.7,7.1c-0.6,3.4-0.9,7.2-1.2,12.1c0,0.1,0,0.3,0,0.4c-0.1,1.4-0.2,3-0.3,4.6c-0.6,10.3-0.5,19.1-0.4,25
					c0,0.3,0,0.6,0,0.9c0,1.4,0.1,2.6,0.1,3.6l-3.9,122.1H244.3z"/>
				<g>
					<polygon class="st9" points="316,474.2 281.3,459.5 255.8,459.5 255.8,473.8 					"/>
				</g>
				<g>
					<path class="st12" d="M284.6,454.1c-2.8,2.4-4.1,4.9-2.8,5.5c1.3,0.6,4.5-0.8,7.3-3.2c2.8-2.4,4.1-4.9,2.8-5.5
						C290.7,450.3,287.4,451.7,284.6,454.1z"/>
					<path class="st12" d="M278.5,454.8c2.8,2.4,4.1,4.9,2.8,5.5c-1.3,0.6-4.5-0.8-7.3-3.2c-2.8-2.4-4.1-4.9-2.8-5.5
						C272.4,450.9,275.7,452.4,278.5,454.8z"/>
					<polyline class="st12" points="290.6,466.8 281.4,459.6 282.4,467.8 					"/>
				</g>
				<g>
					<polygon class="st9" points="177.4,475.3 212.1,460.5 237.6,460.5 237.6,474.9 					"/>
				</g>
				<g>
					<path class="st12" d="M208.8,455.1c2.8,2.4,4.1,4.9,2.8,5.5c-1.3,0.6-4.5-0.8-7.3-3.2c-2.8-2.4-4.1-4.9-2.8-5.5
						C202.7,451.3,206,452.7,208.8,455.1z"/>
					<path class="st12" d="M214.9,455.8c-2.8,2.4-4.1,4.9-2.8,5.5c1.3,0.6,4.5-0.8,7.3-3.2c2.8-2.4,4.1-4.9,2.8-5.5
						C221,452,217.7,453.4,214.9,455.8z"/>
					<polyline class="st12" points="202.8,467.9 212,460.6 211,468.8 					"/>
				</g>
			</g>
			<path class="st9" d="M185.6,216L185.6,216c-3.7-2.8-4.5-8.2-1.6-11.9l31.4-41.4c2.8-3.7,8.2-4.5,11.9-1.6l0,0
				c3.7,2.8,4.5,8.2,1.6,11.9l-31.4,41.4C194.7,218.1,189.4,218.8,185.6,216z"/>
			<path class="st9" d="M304.4,216L304.4,216c3.7-2.8,4.5-8.2,1.6-11.9l-31.4-41.4c-2.8-3.7-8.2-4.5-11.9-1.6l0,0
				c-3.7,2.8-4.5,8.2-1.6,11.9l31.4,41.4C295.3,218.1,300.6,218.8,304.4,216z"/>
			<path class="st9" d="M337.4,161L337.4,161c-3.7-2.8-9.1-2.1-11.9,1.6L294,204.1c-2.8,3.7-2.1,9.1,1.6,11.9l0,0
				c3.7,2.8,9.1,2.1,11.9-1.6l31.4-41.4C341.8,169.2,341.1,163.9,337.4,161z"/>
			<path class="st9" d="M226.3,255.9l-13.2,11.2l-30-51.9c-2.4-4.1-1-9.3,3.1-11.6c4.1-2.3,9.3-0.9,11.6,3.1L226.3,255.9z"/>
			<polygon class="st9" points="225.2,160.4 266.9,160.4 276.7,229.4 214,229 			"/>
			<polyline class="st13" points="237.1,160.8 232.1,169.9 237.4,173.4 233.6,183.6 238.5,192.6 			"/>
			<polyline class="st13" points="257.5,160.8 262.5,169.9 257.2,173.4 261,183.6 256.1,192.6 			"/>
			<rect x="241.5" y="160.5" class="st0" width="13" height="68.5"/>
			<path class="st13" d="M230,225.5L230,225.5c-4.1,0-7.5-3.4-7.5-7.5v-8.5h15v8.5C237.5,222.1,234.1,225.5,230,225.5z"/>
			<path class="st13" d="M264,225.5L264,225.5c-4.1,0-7.5-3.4-7.5-7.5v-8.5h15v8.5C271.5,222.1,268.1,225.5,264,225.5z"/>
			<polyline class="st13" points="230,252.8 226.3,255.9 213.1,267.1 211.5,268.5 			"/>
			<line class="st13" x1="282" y1="268.5" x2="263.5" y2="252.8"/>
		</g>
		<g>
			<g>
				
					<rect x="330" y="128.5" transform="matrix(-0.9232 0.3843 -0.3843 -0.9232 718.8403 196.1013)" class="st11" width="19.7" height="82.8"/>
				<polygon class="st11" points="308.7,141.2 373.4,144.2 445.9,147.4 445.8,147.1 399.8,36.6 399.7,36.3 350.9,90.1 307.4,138 
									"/>
				<path class="st14" d="M433.5,87.3c12.8,30.7,18.4,57.4,12.6,59.8c-4.4,1.8-14.2-11.1-24.3-30.9c-0.6-1.2-1.2-2.4-1.8-3.6
					c-2.5-5.2-5-10.7-7.5-16.6c-2.7-6.4-5-12.6-7-18.5c-0.2-0.5-0.4-1.1-0.5-1.6c-7.2-21.5-9.6-37.9-5.1-39.8
					C405.7,33.8,420.7,56.7,433.5,87.3z"/>
				<path class="st9" d="M429.9,89.2c4.7,11.2,1.9,23-6.2,26.4c-0.6,0.3-1.3,0.5-1.9,0.6c-0.6-1.2-1.2-2.4-1.8-3.6
					c-2.5-5.2-5-10.7-7.5-16.6c-2.7-6.4-5-12.6-7-18.5c-0.2-0.5-0.4-1.1-0.5-1.6c0.6-0.4,1.2-0.7,1.8-1
					C414.9,71.7,425.3,78,429.9,89.2z"/>
				<path class="st9" d="M320.8,149.8l17.6-7.3l-11.1-26.6l-17.6,7.3c-6.6,2.7-9.7,10.3-7,16.9l1.2,2.8
					C306.7,149.5,314.2,152.6,320.8,149.8z"/>
			</g>
			<path class="st3" d="M345.4,157.7l-9.1,4.2c-1,0.5-2.2,0-2.7-1l0,0c-0.5-1,0-2.2,1-2.7l9.1-4.2c1-0.5,2.2,0,2.7,1l0,0
				C346.8,156.1,346.4,157.3,345.4,157.7z"/>
			<path class="st3" d="M347.4,161.7l-9.1,4.2c-1,0.5-2.2,0-2.7-1l0,0c-0.5-1,0-2.2,1-2.7l9.1-4.2c1-0.5,2.2,0,2.7,1l0,0
				C348.8,160.1,348.4,161.3,347.4,161.7z"/>
			<path class="st3" d="M349.4,165.7l-9.1,4.2c-1,0.5-2.2,0-2.7-1l0,0c-0.5-1,0-2.2,1-2.7l9.1-4.2c1-0.5,2.2,0,2.7,1l0,0
				C350.8,164.1,350.4,165.3,349.4,165.7z"/>
		</g>
	</g>
	<g>
		<g>
			<g>
				<g>
					
						<ellipse transform="matrix(0.6847 -0.7289 0.7289 0.6847 -49.4076 157.4026)" class="st9" cx="157.2" cy="135.8" rx="24.2" ry="24.2"/>
					
						<ellipse transform="matrix(0.7071 -0.7071 0.7071 0.7071 -49.982 150.9322)" class="st0" cx="157.2" cy="135.8" rx="20.1" ry="20.1"/>
					<circle class="st9" cx="157" cy="136" r="15"/>
					
						<ellipse transform="matrix(0.7071 -0.7071 0.7071 0.7071 -50.3278 150.789)" class="st0" cx="156.9" cy="136.1" rx="10.7" ry="10.7"/>
					<path class="st9" d="M163.2,136.1c0,3.5-2.8,6.3-6.3,6.3c-3.5,0-6.3-2.8-6.3-6.3s2.8-6.3,6.3-6.3
						C160.3,129.8,163.2,132.6,163.2,136.1z"/>
				</g>
				<g>
					<line class="st15" x1="157.1" y1="135.9" x2="189.7" y2="106.8"/>
					<polygon class="st2" points="179.9,115.5 179.7,110.5 187.7,103.3 187.8,108.4 					"/>
					<polygon class="st2" points="180,115.6 185,116.4 193,109.2 187.9,108.5 					"/>
				</g>
			</g>
			<circle class="st16" cx="157" cy="135" r="36.5"/>
		</g>
		<g>
			<g>
				<path class="st9" d="M174.2,315.4c-0.2,9.3-6.6,16.8-14.2,16.6c-7.7-0.2-13.7-7.9-13.5-17.2c0.2-9.3,6.6-16.8,14.2-16.6
					C168.3,298.3,174.3,306,174.2,315.4z"/>
				<path class="st17" d="M171.9,310.1c0.5,1.7,0.8,3.6,0.7,5.5c-0.1,6.4-3.5,11.9-8.1,14"/>
				<path class="st17" d="M149.2,308.7c2.1-5.2,6.4-8.7,11.4-8.6"/>
				<g>
					<path class="st17" d="M158.9,313.9c-0.7-0.9-1.8-1.5-3-1.5c-2.2,0-4,1.7-4.1,3.9c0,2.2,1.7,4,3.9,4.1l5.2,0.1
						c1.1,0,2.2,0.1,3.2,0.1"/>
					<line class="st17" x1="158.9" y1="313.9" x2="158.9" y2="331.8"/>
					<path class="st17" d="M164.2,320.5c2.2,0,4-1.7,4.1-3.9c0-2.2-1.7-4-3.9-4.1c-1.2,0-2.3,0.5-3.1,1.4"/>
					<line class="st17" x1="161.2" y1="313.9" x2="160.5" y2="331.8"/>
				</g>
				<g>
					<path class="st2" d="M160.2,339.8l-1.3,0c-1.9,0-3.5-1.6-3.4-3.6l0.1-3.8l8.3,0.2l-0.1,3.8
						C163.8,338.3,162.1,339.8,160.2,339.8z"/>
				</g>
			</g>
			<circle class="st16" cx="159" cy="315" r="30.5"/>
		</g>
		<g>
			<g>
				<g>
					<path class="st9" d="M435,204.7c0,5.4-2.3,10.2-5.9,13.6c-1.7,1.5-3.6,2.8-5.7,3.6c-0.6,0.2-1.1,0.4-1.7,0.6
						c-1.6,0.5-3.3,0.7-5.1,0.7c-1.8,0-3.5-0.3-5.1-0.7c-0.6-0.2-1.2-0.4-1.7-0.6c-2.1-0.8-3.9-2-5.5-3.5c-3.7-3.4-6.1-8.3-6.1-13.7
						c0-5.5,2.4-10.3,6.1-13.7c1.9-1.7,4.2-3.1,6.8-3.9c0.7-0.2,1.4-0.4,2.1-0.5c1.1-0.2,2.3-0.3,3.6-0.3c1.2,0,2.4,0.1,3.5,0.3
						c0,0,0,0,0,0c0.7,0.1,1.4,0.3,2.1,0.5c2.6,0.8,5,2.2,6.9,4.1C432.7,194.5,435,199.3,435,204.7z"/>
				</g>
				<g>
					<path class="st11" d="M416.7,196.4c-0.1,0-0.1,0-0.2,0c-4.7,0-9.2-1.8-12.7-5.1l0.7-0.8c3.3,3,7.5,4.7,12,4.8l0.2,0
						c4.4,0,8.7-1.6,12-4.6l0.7,0.8C425.9,194.7,421.4,196.4,416.7,196.4z"/>
				</g>
				<g>
					<g>
						<path class="st11" d="M422.1,187.1c-0.7-0.2-1.4-0.4-2.1-0.5c3.6,3,6.1,10.3,6.1,18.8c0,7.2-1.8,13.6-4.5,17.1
							c0.6-0.2,1.2-0.4,1.7-0.6c2.4-3.9,3.9-9.8,3.9-16.5C427.2,197.5,425.2,190.8,422.1,187.1z M405.8,205.3
							c0,6.8,1.5,12.7,3.9,16.5c0.6,0.2,1.1,0.4,1.7,0.6c-2.7-3.6-4.5-9.9-4.5-17.1c0-8.5,2.5-15.8,6.1-18.8
							c-0.7,0.1-1.4,0.3-2.1,0.5C407.8,190.8,405.8,197.5,405.8,205.3z"/>
					</g>
				</g>
				<g>
					<path class="st11" d="M404.5,218.8l-0.7-0.8c3.5-3.2,8-5,12.7-5.1c0,0,0.1,0,0.2,0c4.7,0,9.2,1.7,12.7,4.9l-0.7,0.8
						c-3.3-3-7.6-4.6-12-4.6l-0.1,0C412,214.1,407.8,215.8,404.5,218.8z"/>
				</g>
				<g>
					<rect x="398" y="204.1" class="st11" width="37" height="1.1"/>
				</g>
				<g>
					<rect x="415.9" y="186.2" class="st11" width="1.1" height="37"/>
				</g>
			</g>
			<circle class="st16" cx="417.3" cy="204.8" r="32.8"/>
		</g>
		<g>
			<g>
				<path class="st11" d="M277.5,86h-9.4c0,0-0.1,0-0.1-0.1V66.6c0,0,0-0.1,0.1-0.1h9.4V86z"/>
				<g>
					<path class="st9" d="M299.6,86h-21.3c0,0-0.1,0-0.1-0.1V66.6c0,0,0-0.1,0.1-0.1h21.3V86z"/>
					<path class="st9" d="M305.1,71.4h-11.6v-4.9h11.6c1.4,0,2.5,1.1,2.5,2.5l0,0C307.6,70.3,306.5,71.4,305.1,71.4z"/>
					<path class="st9" d="M290.1,56.1v13.2c0,1.5-1.2,2.8-2.8,2.8l0,0c-1.5,0-2.8-1.2-2.8-2.8V56.1c0-1.5,1.2-2.8,2.8-2.8h0
						C288.9,53.3,290.1,54.5,290.1,56.1z"/>
					<path class="st9" d="M306.5,76.1h-11.6v-4.9h11.6c1.4,0,2.5,1.1,2.5,2.5l0,0C309,75,307.9,76.1,306.5,76.1z"/>
					<path class="st9" d="M306.5,81.1h-11.6v-4.9h11.6c1.4,0,2.5,1.1,2.5,2.5l0,0C309,80,307.9,81.1,306.5,81.1z"/>
					<path class="st9" d="M304.9,86h-11.6v-4.9h11.6c1.4,0,2.5,1.1,2.5,2.5l0,0C307.4,84.9,306.3,86,304.9,86z"/>
				</g>
				<line class="st18" x1="304.7" y1="71.2" x2="297.5" y2="71.2"/>
				<line class="st18" x1="304.7" y1="76.1" x2="297.5" y2="76.1"/>
				<line class="st18" x1="304.1" y1="80.9" x2="297" y2="80.9"/>
			</g>
			<circle class="st16" cx="288" cy="72" r="31.5"/>
		</g>
		<g>
			<g>
				
					<rect x="313.5" y="339.8" transform="matrix(0.9096 -0.4155 0.4155 0.9096 -115.7273 167.8035)" class="st11" width="28.5" height="20.1"/>
				<polygon class="st9" points="327.8,349.8 311.1,346.4 336.2,334.9 				"/>
				<line class="st19" x1="325.9" y1="353.1" x2="320.3" y2="363"/>
				<line class="st20" x1="343.5" y1="352.9" x2="331.6" y2="350.5"/>
			</g>
			<circle class="st16" cx="326.8" cy="350.3" r="23.3"/>
		</g>
		<g>
			<g>
				<path class="st9" d="M434.8,328.4l-24.2,11.1c-4.3,1.9-9.3,0.1-11.2-4.2l-5-11c-1.9-4.3-0.1-9.3,4.2-11.2l24.2-11.1
					c4.3-1.9,9.3-0.1,11.2,4.2l5,11C440.9,321.4,439,326.4,434.8,328.4z"/>
				<polygon class="st9" points="425.9,340.6 413.6,331.9 427.3,325.6 				"/>
				<path class="st11" d="M410.3,323.4c1,2.1,0,4.6-2.1,5.5c-2.1,1-4.6,0-5.5-2.1c-1-2.1,0-4.6,2.1-5.5
					C406.9,320.4,409.4,321.3,410.3,323.4z"/>
				<path class="st11" d="M420.2,318.9c1,2.1,0,4.6-2.1,5.5c-2.1,1-4.6,0-5.5-2.1c-1-2.1,0-4.6,2.1-5.5
					C416.7,315.9,419.2,316.8,420.2,318.9z"/>
				<path class="st11" d="M430.3,314.2c1,2.1,0,4.6-2.1,5.5c-2.1,1-4.6,0-5.5-2.1c-1-2.1,0-4.6,2.1-5.5
					C426.9,311.2,429.4,312.1,430.3,314.2z"/>
			</g>
			<circle class="st16" cx="417" cy="321" r="31.5"/>
		</g>
		<g>
			<circle class="st16" cx="83.3" cy="69.3" r="31.3"/>
			<g>
				<g>
					<path class="st11" d="M76.9,58.6c0,2.9-2.3,5.2-5.2,5.2c-2.9,0-5.2-2.3-5.2-5.2c0-2.9,2.3-5.2,5.2-5.2
						C74.6,53.4,76.9,55.7,76.9,58.6z"/>
					<path class="st11" d="M83.6,77.3c0,0.1,0,0.1,0,0.2H59.5c0-0.1,0-0.1,0-0.2c0-6,5.4-10.9,12-10.9
						C78.2,66.4,83.6,71.3,83.6,77.3z"/>
				</g>
				<g>
					<path class="st11" d="M103.3,58.6c0,2.9-2.3,5.2-5.2,5.2c-2.9,0-5.2-2.3-5.2-5.2c0-2.9,2.3-5.2,5.2-5.2
						C101,53.4,103.3,55.7,103.3,58.6z"/>
					<path class="st11" d="M110,77.3c0,0.1,0,0.1,0,0.2H85.9c0-0.1,0-0.1,0-0.2c0-6,5.4-10.9,12-10.9S110,71.3,110,77.3z"/>
				</g>
				<g>
					<path class="st9" d="M90.3,62.9c0,2.9-2.3,5.2-5.2,5.2c-2.9,0-5.2-2.3-5.2-5.2c0-2.9,2.3-5.2,5.2-5.2
						C87.9,57.7,90.3,60,90.3,62.9z"/>
					<path class="st9" d="M97,81.6c0,0.1,0,0.1,0,0.2H72.9c0-0.1,0-0.1,0-0.2c0-6,5.4-10.9,12-10.9C91.6,70.8,97,75.6,97,81.6z"/>
				</g>
			</g>
		</g>
		<g>
			<circle class="st16" cx="88" cy="219" r="36.5"/>
			<g>
				<g>
					<path class="st9" d="M110.1,224.4l-22.7,19c-3.6,3-8.9,2.5-11.9-1.1l-13.9-16.6c-3-3.6-2.5-8.9,1.1-11.9l22.7-19
						c3.6-3,8.9-2.5,11.9,1.1l13.9,16.6C114.2,216.1,113.7,221.4,110.1,224.4z"/>
					<polygon class="st9" points="104,240 88.8,234.4 101.2,224.1 					"/>
				</g>
				<g>
					
						<ellipse transform="matrix(0.9997 -2.504105e-02 2.504105e-02 0.9997 -5.3259 2.1099)" class="st2" cx="81.6" cy="213.7" rx="5.5" ry="5.5"/>
					<path class="st2" d="M104,220.9c0,0,0.1,0.1,0.1,0.1l-19.6,16.4c0,0-0.1-0.1-0.1-0.1c-4.1-4.9-3-12.5,2.4-17.1
						C92.2,215.7,99.9,216,104,220.9z"/>
				</g>
			</g>
		</g>
	</g>
</g>
</svg>
