<svg id="Capa_1" enable-background="new 0 0 512 512" height="512" viewBox="0 0 512 512" width="512" xmlns="http://www.w3.org/2000/svg"><g><g><g><g><path d="m466.234 296.805h-281.595c-21.128 0-38.255-17.127-38.255-38.255v-169.803c0-21.128 17.127-38.255 38.255-38.255h281.594c21.128 0 38.255 17.127 38.255 38.255v169.803c.001 21.128-17.126 38.255-38.254 38.255z" fill="#eff3f5"/><path d="m188.098 268.299c-6.526 0-11.835-5.309-11.835-11.834v-165.633c0-6.525 5.309-11.834 11.835-11.834h274.677c6.525 0 11.834 5.309 11.834 11.834v165.633c0 6.525-5.309 11.834-11.834 11.834z" fill="#fc8086"/><path d="m462.775 78.998h-28.796v177.467c0 6.536-5.299 11.834-11.834 11.834h40.63c6.525 0 11.834-5.309 11.834-11.834v-165.633c.001-6.525-5.308-11.834-11.834-11.834z" fill="#fb636f"/></g></g><g><g><path d="m324.691 212.532c-7.966-7.419-20.508-6.849-28.205.849l-68.446 68.446c8.012-8.012 7.835-21.111-.528-28.9-7.966-7.419-20.508-6.848-28.205.849l-13.68 13.68c8.012-8.012 7.837-21.112-.527-28.901-7.966-7.419-20.508-6.849-28.205.849l-7.864 7.864c8.012-8.012 7.836-21.111-.527-28.9-7.966-7.419-20.508-6.849-28.205.849l-46.018 46.018c-7.711 7.711-13.775 16.909-17.823 27.036l-16.481 40.65c-3.242 7.997-8.057 15.262-14.159 21.365l-5.875 5.875 87.599 87.599c11.682-10.203 26.089-16.852 41.519-19.062l14.756-2.113c17.227-2.467 33.191-10.453 45.497-22.759l41.444-41.444c7.749-7.749 8.236-20.386.69-28.332-2.62-2.759-5.826-4.599-9.229-5.53-1.43-.391-1.864-2.221-.816-3.269l83.816-83.816c8.011-8.014 7.836-21.113-.528-28.903z" fill="#ffece3"/><path d="m326.549 214.509c-2.812-3.418-6.455-5.615-10.344-6.651 1.783 6.695.068 14.128-5.184 19.379l-103.634 103.635c-3.101 3.101-4.28 7.638-3.082 11.856 1.198 4.219.019 8.755-3.082 11.856l-20.574 20.574c-12.305 12.305-28.267 20.29-45.494 22.757l-14.757 2.114c-15.43 2.21-29.837 8.859-41.519 19.062l28.666 28.666c11.682-10.203 26.089-16.852 41.519-19.062l14.756-2.113c17.227-2.467 33.191-10.453 45.497-22.759l41.444-41.444c7.749-7.749 8.236-20.386.69-28.332-2.62-2.759-5.826-4.599-9.229-5.53-1.43-.391-1.864-2.221-.816-3.269l83.493-83.493c7.355-7.358 8.262-19.21 1.65-27.246z" fill="#ffddce"/><path d="m227.659 253.066c-2.501-2.376-5.468-3.952-8.6-4.759 1.758 6.68.02 14.089-5.216 19.325l-13.091 13.091c-7.84 7.84-7.84 20.552 0 28.392l27.287-27.287c7.965-7.965 7.838-20.957-.38-28.762z" fill="#ffddce"/><g><path d="m185.627 267.456c7.965-7.965 7.839-20.957-.379-28.762-2.501-2.376-5.468-3.952-8.6-4.759 1.758 6.68.02 14.089-5.216 19.325l-5.187 5.187c-7.84 7.84-7.84 20.552 0 28.392z" fill="#ffddce"/></g><g><path d="m148.651 218.506c-2.501-2.376-5.468-3.952-8.6-4.759 1.758 6.68.02 14.089-5.216 19.325l-3.1 3.1c-7.84 7.84-7.84 20.552 0 28.392l17.296-17.296c7.965-7.965 7.838-20.957-.38-28.762z" fill="#ffddce"/></g></g><path d="m11.193 365.137 92.688 92.688c4.904 4.904 12.854 4.904 17.758 0l9.306-9.306c4.904-4.904 4.904-12.854 0-17.758l-92.688-92.688c-4.904-4.904-12.854-4.904-17.758 0l-9.306 9.306c-4.903 4.904-4.903 12.855 0 17.758z" fill="#7ba0b0"/><g><path d="m130.945 430.761-19.495-19.495-18.185 18.185c-4.904 4.904-12.854 4.904-17.758 0l28.374 28.374c4.904 4.903 12.854 4.903 17.758 0l9.306-9.306c4.904-4.904 4.904-12.854 0-17.758z" fill="#688b96"/></g></g></g><g><path d="m211.9 219.573c3.876 1.477 8.216-.468 9.692-4.345l5.435-14.269h36.576l5.377 14.248c1.466 3.886 5.802 5.837 9.679 4.374 3.88-1.464 5.839-5.797 4.374-9.679l-28.951-76.718c-.026-.069-.054-.139-.082-.207-1.437-3.49-4.802-5.743-8.576-5.743-.004 0-.009 0-.013 0-3.779.005-7.143 2.269-8.572 5.766-.023.056-.045.111-.066.167l-29.218 76.714c-1.477 3.876.469 8.215 4.345 9.692zm33.499-66.853 12.535 33.217h-25.186z"/><path d="m443.447 197.01c1.78-9.966-2.857-23.028-21.206-29.796-9.916-3.657-19.123-7.649-21.554-8.715-5.066-3.776-4.025-12.689 4.78-15.341 12.187-3.676 23.246 5.185 23.458 5.359 3.174 2.641 7.891 2.224 10.552-.942 2.669-3.175 2.259-7.914-.916-10.582-.697-.586-17.308-14.279-37.426-8.219-23.432 7.06-23.156 36.048-7.189 43.169.448.199 11.099 4.941 23.097 9.365 8.316 3.068 12.551 7.828 11.616 13.062-2.373 13.289-25.687 14.446-37.322 1.606-2.785-3.074-7.535-3.307-10.609-.522s-3.307 7.534-.522 10.609c20.248 22.347 58.647 16.668 63.241-9.053z"/><path d="m466.234 42.981h-281.595c-25.235 0-45.765 20.53-45.765 45.765v93.635c0 4.148 3.362 7.511 7.511 7.511 4.148 0 7.511-3.362 7.511-7.511v-93.635c0-16.952 13.792-30.744 30.744-30.744h281.595c16.953 0 30.745 13.792 30.745 30.744v169.804c0 16.952-13.792 30.744-30.745 30.744h-158.43c-4.148 0-7.511 3.362-7.511 7.511s3.362 7.511 7.511 7.511h158.43c25.236 0 45.766-20.53 45.766-45.765v-169.805c-.001-25.235-20.531-45.765-45.767-45.765z"/><path d="m252.29 324.983 49.173-49.173h161.312c10.667 0 19.346-8.678 19.346-19.345v-165.633c0-10.667-8.678-19.346-19.346-19.346h-274.677c-10.667 0-19.346 8.678-19.346 19.346v135.048c-2.337.239-4.656.764-6.895 1.595-4.29-20.983-30.669-29.767-46.87-13.569l-46.018 46.017c-19.069 19.071-20.929 36.33-34.882 67.538-6.993-1.677-14.015.418-18.899 5.301l-9.306 9.306c-7.843 7.845-7.842 20.536 0 28.38l92.688 92.688c7.845 7.843 20.536 7.842 28.38 0l9.306-9.306c3.79-3.791 5.877-8.83 5.877-14.19 0-.626-.034-1.246-.091-1.861 6.569-1.722 9.713-1.769 22.84-3.762 18.71-2.68 36.376-11.516 49.742-24.882l41.444-41.444c12.13-12.129 10.876-32.844-3.778-42.708zm-64.192-238.475h274.677c2.384 0 4.324 1.94 4.324 4.324v165.632c0 2.384-1.94 4.324-4.324 4.324h-146.29l14.045-14.045c5.342-5.342 8.209-12.444 8.075-19.999-.054-3.025-.595-5.958-1.571-8.723 18.124-3.701 30.69-21.309 30.69-44.373 0-27.074-15.273-45.264-38.003-45.264h-21.386c-4.151 0-7.519 3.373-7.511 7.524 0 0 .055 29.047.055 37.657 0 6.392.037 19.155.065 28.087-3.546 1.395-6.884 3.532-9.77 6.418l-51.068 51.069c-5.571-17.321-26.598-24.92-42.267-13.907-2.249-7.448-7.555-13.399-14.066-16.646v-137.754c.001-2.384 1.941-4.324 4.325-4.324zm127.803 87.057c0-5.813-.025-20.936-.041-30.16h13.861c16.945 0 22.982 15.623 22.982 30.243 0 14.298-7.037 29.809-22.488 30.079-1.221.021-2.846.041-4.658.058-2.986-1.852-6.244-3.069-9.596-3.66-.028-8.806-.06-20.532-.06-26.56zm-190.267 269.643-9.306 9.306c-1.971 1.973-5.164 1.973-7.135 0l-92.688-92.688c-1.973-1.971-1.973-5.164 0-7.135l9.306-9.307c1.959-1.961 5.154-1.982 7.135.001l92.688 92.688c1.967 1.967 1.967 5.168 0 7.135zm119.812-86.139-41.444 41.444c-11.084 11.085-25.734 18.413-41.25 20.636-11.933 1.887-17.977 2.039-27.783 5.015l-88.147-88.146c.038-.092.079-.185.116-.277 15.068-34.205 16.36-48.905 32.654-65.196l46.018-46.017c7.976-7.976 21.587-2.956 21.789 8.318.061 3.442-1.245 6.677-3.679 9.111-2.933 2.935-2.932 7.689 0 10.622 2.934 2.932 7.689 2.932 10.622 0l7.864-7.864c7.955-7.957 21.589-2.975 21.788 8.319.062 3.441-1.245 6.677-3.678 9.11-2.933 2.935-2.932 7.689 0 10.622 2.934 2.932 7.689 2.932 10.622 0l13.68-13.68c7.976-7.979 21.587-2.954 21.789 8.318.062 3.442-1.245 6.678-3.678 9.112-2.933 2.933-2.933 7.689.001 10.622 2.932 2.933 7.688 2.931 10.622 0l68.445-68.447c4.918-4.915 12.891-5.213 17.777-.664 2.526 2.353 3.952 5.543 4.013 8.982.062 3.442-1.245 6.677-3.678 9.111l-26.862 26.862c-.003.003-.007.007-.01.01l-56.944 56.944c-5.116 5.116-2.83 13.917 4.145 15.825 9.437 2.581 12.126 14.392 5.208 21.308z"/></g></g></svg>