<svg id="_x33_0" enable-background="new 0 0 64 64" height="512" viewBox="0 0 64 64" width="512" xmlns="http://www.w3.org/2000/svg"><g><g><g><path d="m2 10h54v52h-54z" fill="#e6e9ed"/></g><g><path d="m56 4v6h-54v-6c0-1.1.9-2 2-2h50c1.1 0 2 .9 2 2z" fill="#b4dd7f"/></g><g><path d="m14 62h-6v-12.74c0-1.64.41-3.23 1.16-4.64.76-1.4 1.85-2.63 3.22-3.54 1.07-.71 2.27-1.21 3.53-1.46l1.09-.22 1 6.6 2-1.2 1 3.2-2 14z" fill="#4fc1e9"/></g><g><path d="m44 40.4v7.23l-12-.63v15h-5l-2-14 1-3.2 2 1.2 1.04-6.83z" fill="#4fc1e9"/></g><g><path d="m26 44.8-1 3.2h-4l-1-3.2 3-1.8z" fill="#fcd770"/></g><g><path d="m25 48 2 14h-8l2-14z" fill="#fcd770"/></g><g><path d="m23 43-3 1.8-2 1.2-1-6.6 2-.4z" fill="#69d6f4"/></g><g><path d="m29.04 39.17-1.04 6.83-2-1.2-3-1.8 4-4z" fill="#69d6f4"/></g><g><path d="m59 31c1.66 0 3 1.34 3 3 0 .83-.34 1.58-.88 2.12s-1.29.88-2.12.88h-1v-6z" fill="#fcd770"/></g><g><path d="m58 37v2.38c0 .99-.56 1.9-1.45 2.34-.17.09-.36.16-.55.21-.2.05-.41.07-.62.07h-1.38v-2-12-2h1.38c.21 0 .42.02.62.07.19.05.38.12.55.21.89.44 1.45 1.35 1.45 2.34v2.38z" fill="#ff826e"/></g><g><path d="m54 28v12l-2.94-1.47c-.7-.35-1.46-.53-2.24-.53h-.82-2v-8h2.82c.78 0 1.54-.18 2.24-.53z" fill="#dfb28b"/></g><g><path d="m48.69 40.79c1.86.12 3.31 1.66 3.31 3.53 0 1.96-1.59 3.54-3.54 3.54-.04 0-.09 0-.14 0l-.32-.02v-7.11z" fill="#f0d0b4"/></g><g><path d="m48 47.84v.16c0 1.1-.9 2-2 2-.55 0-1.05-.22-1.41-.59-.37-.36-.59-.86-.59-1.41v-.37-7.23-2.4h2 2v2.73z" fill="#969faa"/></g><g><path d="m46 30v8h-2c-1.1 0-2.1-.45-2.83-1.17-.72-.73-1.17-1.73-1.17-2.83 0-2.21 1.79-4 4-4z" fill="#ff826e"/></g><g><path d="m32 24.18c1.17.4 2 1.51 2 2.82 0 .83-.34 1.58-.88 2.12s-1.29.88-2.12.88h-1.07-.01c.06-.32.08-.66.08-1v-5h1c.35 0 .69.06 1 .18z" fill="#f0d0b4"/></g><g><path d="m32 24.17v.01c-.31-.12-.65-.18-1-.18h-1c-1.87 0-3.62-.94-4.66-2.5l-.34-.5c-1.25 1.87-3.35 3-5.61 3h-3.39-1c-.35 0-.69.06-1 .18v-.01-2.17c0-4.42 3.58-8 8-8h2c4.42 0 8 3.58 8 8z" fill="#b27946"/></g><g><path d="m30 24v5c0 .34-.02.68-.08 1-.32 2.34-1.81 4.3-3.85 5.29-.92.46-1.96.71-3.07.71s-2.15-.25-3.07-.71c-.7-.34-1.33-.79-1.88-1.34-1.05-1.05-1.76-2.41-1.97-3.95-.06-.32-.08-.66-.08-1v-5h3.39c2.26 0 4.36-1.13 5.61-3l.34.5c1.04 1.56 2.79 2.5 4.66 2.5z" fill="#f0d0b4"/></g><g><path d="m26.07 35.29.93 3.71-4 4-4-4 .93-3.71c.92.46 1.96.71 3.07.71s2.15-.25 3.07-.71z" fill="#f0d0b4"/></g><g><path d="m16.08 30h-.01-1.07c-.83 0-1.58-.34-2.12-.88s-.88-1.29-.88-2.12c0-1.31.83-2.42 2-2.82.31-.12.65-.18 1-.18h1v5c0 .34.02.68.08 1z" fill="#f0d0b4"/></g></g><g><path d="m59 30v-1.382c0-1.38-.767-2.62-2-3.236v-21.382c0-1.654-1.346-3-3-3h-50c-1.654 0-3 1.346-3 3v59h56v-20.382c1.233-.617 2-1.856 2-3.236v-1.382c2.206 0 4-1.794 4-4s-1.794-4-4-4zm-55-27h50c.551 0 1 .449 1 1v5h-52v-5c0-.551.449-1 1-1zm-1 8h52v14h-2v2.382l-2.392 1.196c-.552.276-1.17.422-1.788.422h-4.82c-2.757 0-5 2.243-5 5 0 2.414 1.721 4.434 4 4.899v.415l-15.204-1.252-.571-2.282c1.715-1.073 2.991-2.773 3.511-4.78h.264c2.206 0 4-1.794 4-4 0-1.474-.81-2.749-2-3.443v-1.557c0-4.962-4.038-9-9-9h-2c-4.962 0-9 4.038-9 9v1.556c-1.19.694-2 1.97-2 3.444 0 2.206 1.794 4 4 4h.263c.52 2.007 1.796 3.708 3.511 4.78l-.591 2.363-2.472.494c-1.394.278-2.701.82-3.886 1.609-3.021 2.017-4.825 5.388-4.825 9.019v11.735h-4zm50 27.382-1.497-.748c-.828-.414-1.756-.634-2.683-.634h-1.82v-6h1.82c.927 0 1.854-.219 2.683-.633l1.497-.749zm-22 7.564v15.054h-3.133l-1.845-12.918.553-1.771 2.19 1.314 1.119-7.384 13.116 1.081v5.255zm-18 5.054v10h-4v-11.735c0-2.961 1.471-5.71 3.935-7.354.967-.644 2.033-1.085 3.169-1.313l.064-.013 1.067 7.039 2.19-1.314.553 1.771-1.845 12.919h-3.133v-10zm2-26v4c-1.103 0-2-.897-2-2s.897-2 2-2zm1-2h-1v-1c0-3.86 3.14-7 7-7h2c3.86 0 7 3.14 7 7v1h-1c-1.543 0-2.976-.767-3.832-2.051l-1.168-1.752-.832 1.248c-1.066 1.6-2.851 2.555-4.773 2.555zm15 2c1.103 0 2 .897 2 2s-.897 2-2 2zm-14 0h2.395c2.117 0 4.11-.859 5.554-2.349 1.033 1.228 2.472 2.033 4.052 2.273v4.076c0 3.309-2.691 6-6 6s-6-2.691-6-6v-4zm7.265 22h-2.53l-.546-1.747 1.811-1.087 1.811 1.086zm.348-4.199 2.767-2.767.507.042-.651 4.299zm-1.613-5.801c.828 0 1.627-.127 2.379-.361l.514 2.055-2.893 2.892-2.893-2.893.514-2.055c.752.235 1.551.362 2.379.362zm-4.329 3.085 2.716 2.716-2.622 1.574-.634-4.182zm3.196 8.915h2.265l1.715 12h-5.694zm22.133-12c-1.654 0-3-1.346-3-3s1.346-3 3-3h1v6zm1 2h2v9c0 .552-.449 1-1 1s-1-.448-1-1zm4 2.846c1.146.251 2 1.269 2 2.475 0 .697-.277 1.348-.779 1.83-.346.333-.77.555-1.221.653zm-16 19.154v-12.946l10.059.529c.272 1.376 1.486 2.417 2.941 2.417 1.367 0 2.511-.925 2.871-2.177 1.024-.092 1.983-.505 2.737-1.231.897-.863 1.392-2.026 1.392-3.272 0-2.308-1.748-4.229-4-4.494v-.806c.557.026 1.11.152 1.608.402l2.392 1.196v2.382h2v18zm24-21.618c0 .617-.343 1.172-.894 1.447-.224.112-.474.171-.724.171h-.382v-14h.382c.25 0 .5.059.724.171.551.276.894.83.894 1.447zm2-3.382v-4c1.103 0 2 .897 2 2s-.897 2-2 2z"/><path d="m49 55h2v2h-2z"/><path d="m45 55h2v2h-2z"/><path d="m41 55h2v2h-2z"/><path d="m8 5h2v2h-2z"/><path d="m12 5h2v2h-2z"/><path d="m16 5h2v2h-2z"/><path d="m37 15h14v2h-14z"/><path d="m37 19h14v2h-14z"/><path d="m37 23h14v2h-14z"/></g></g></svg>