<svg id="Layer_1" enable-background="new 0 0 512 512" height="512" viewBox="0 0 512 512" width="512" xmlns="http://www.w3.org/2000/svg"><g><g><path d="m95.947 452.495h320.105c52.023-44.927 84.949-111.366 84.949-185.497 0-135.311-109.691-245.003-245.002-245.003s-245.001 109.692-245.001 245.003c0 74.131 32.927 140.57 84.949 185.497z" fill="#ffdd40"/></g><g><path d="m368.808 0h-225.616c-26.679 0-48.385 21.705-48.385 48.385v403.109c12.372 10.818 25.845 20.405 40.223 28.586h241.94c14.377-8.181 27.852-17.768 40.223-28.586v-403.109c0-26.68-21.705-48.385-48.385-48.385z" fill="#2a428c"/></g><path d="m143.192 0c-26.679 0-48.385 21.705-48.385 48.385v403.109c12.372 10.818 25.845 20.405 40.223 28.586h58.934c3.1-6.124 7.286-9.426 7.286-9.426v-131c-19.239-19.238 0-41.254 0-41.254v-131s0-65.519 0-83.269 14.274-20.842 14.274-20.842c-9.533-9.533 0-16.724 0-16.724-6.521-6.521 0-11.893 0-11.893v-16.723c-11.142-7.599-1.691-17.949-1.691-17.949z" fill="#142766"/><g><path d="m368.808 30.103h-33.909c-6.321 0-11.445 5.124-11.445 11.445 0 7.358-6.021 13.379-13.379 13.379h-108.149c-7.359 0-13.379-6.021-13.379-13.379 0-6.321-5.124-11.445-11.445-11.445h-33.91c-10.097 0-18.282 8.185-18.282 18.282v425.619c37.909 24.056 82.869 37.996 131.09 37.996s93.181-13.94 131.09-37.996v-425.619c0-10.097-8.185-18.282-18.282-18.282z" fill="#e9efff"/></g><path d="m188.547 41.549c0-6.321-5.124-11.445-11.445-11.445h-33.91c-10.097 0-18.282 8.185-18.282 18.282v425.619c20.563 13.049 43.205 23.114 67.314 29.599-6.312-20.846 9.026-32.948 9.026-32.948v-131c-19.239-19.238 0-41.254 0-41.254v-131s0-65.519 0-83.269 14.274-20.842 14.274-20.842c-3.089-3.089-4.17-5.93-4.228-8.362h-9.37c-7.359-.001-13.379-6.022-13.379-13.38z" fill="#bec8f7"/><g><path d="m395.452 468.446v-420.062c0-14.691-11.952-26.643-26.644-26.643h-33.909c-10.922 0-19.808 8.886-19.808 19.807 0 2.72-2.297 5.017-5.017 5.017h-108.148c-2.72 0-5.017-2.297-5.017-5.017 0-10.922-8.885-19.807-19.807-19.807h-33.91c-14.691 0-26.643 11.952-26.643 26.643v420.062c5.422 3.76 10.997 7.313 16.724 10.635v-430.697c0-5.469 4.45-9.919 9.919-9.919h33.91c1.7 0 3.083 1.383 3.083 3.083 0 11.988 9.753 21.741 21.741 21.741h108.148c11.988 0 21.741-9.754 21.741-21.741 0-1.701 1.383-3.083 3.084-3.083h33.909c5.47 0 9.92 4.45 9.92 9.919v430.697c5.727-3.322 11.302-6.875 16.724-10.635z" fill="#4b6bb2"/></g><path d="m215.524 46.566h-13.598c-2.72 0-5.017-2.297-5.017-5.017 0-10.922-8.885-19.808-19.807-19.808h-33.91c-14.691 0-26.644 11.952-26.644 26.643v420.062c5.422 3.76 10.997 7.313 16.724 10.635v-430.697c0-5.469 4.45-9.919 9.919-9.919h33.91c1.7 0 3.083 1.383 3.083 3.083 0 11.988 9.753 21.741 21.741 21.741h13.598c-9.532-9.532.001-16.723.001-16.723z" fill="#3c58a0"/><g><path d="m449.344 298.401h-247.75c-15.275 0-27.658-12.383-27.658-27.658v-75.684c0-15.275 12.383-27.658 27.658-27.658h247.75c15.275 0 27.658 12.383 27.658 27.658v75.684c0 15.275-12.383 27.658-27.658 27.658z" fill="#ff4155"/></g><g><path d="m449.344 470.655h-247.75c-15.275 0-27.658-12.383-27.658-27.658v-75.684c0-15.275 12.383-27.658 27.658-27.658h247.75c15.275 0 27.658 12.383 27.658 27.658v75.684c0 15.275-12.383 27.658-27.658 27.658z" fill="#73c3f9"/></g><path d="m306.635 270.743v-75.684c0-15.275 12.383-27.658 27.658-27.658h-132.699c-15.275 0-27.658 12.383-27.658 27.658v75.684c0 15.275 12.383 27.658 27.658 27.658h132.698c-15.274 0-27.657-12.383-27.657-27.658z" fill="#e80054"/><path d="m306.635 442.997v-75.684c0-15.275 12.383-27.658 27.658-27.658h-132.699c-15.275 0-27.658 12.383-27.658 27.658v75.684c0 15.275 12.383 27.658 27.658 27.658h132.698c-15.274 0-27.657-12.383-27.657-27.658z" fill="#4fabf7"/><g><g><path d="m220.356 34.673h-4.832c-4.618 0-8.362-3.743-8.362-8.362s3.744-8.362 8.362-8.362h4.832c4.618 0 8.362 3.743 8.362 8.362s-3.744 8.362-8.362 8.362z" fill="#4b6bb2"/></g></g><g><g><path d="m295.319 34.673h-46.424c-4.618 0-8.362-3.743-8.362-8.362s3.744-8.362 8.362-8.362h46.424c4.618 0 8.362 3.743 8.362 8.362s-3.744 8.362-8.362 8.362z" fill="#4b6bb2"/></g></g><g><path d="m224.841 280.112c-.566 0-1.142-.065-1.717-.199-4.033-.945-6.536-4.98-5.591-9.014l18.606-79.419c.945-4.032 4.978-6.539 9.013-5.592 4.033.945 6.536 4.98 5.591 9.014l-18.606 79.419c-.81 3.457-3.892 5.791-7.296 5.791z" fill="#e9efff"/></g><g><path d="m251.807 280.112c-.566 0-1.142-.065-1.717-.199-4.033-.945-6.536-4.98-5.591-9.014l18.607-79.419c.945-4.032 4.977-6.539 9.013-5.592 4.033.945 6.536 4.98 5.591 9.014l-18.607 79.419c-.81 3.457-3.892 5.791-7.296 5.791z" fill="#e9efff"/></g><g><path d="m277.287 226.517h-52.802c-4.142 0-7.5-3.357-7.5-7.5s3.358-7.5 7.5-7.5h52.802c4.142 0 7.5 3.357 7.5 7.5s-3.358 7.5-7.5 7.5z" fill="#e9efff"/></g><g><path d="m270.918 253.845h-52.802c-4.142 0-7.5-3.357-7.5-7.5s3.358-7.5 7.5-7.5h52.802c4.142 0 7.5 3.357 7.5 7.5s-3.358 7.5-7.5 7.5z" fill="#e9efff"/></g><g><path d="m432.823 226.517h-118.688c-4.142 0-7.5-3.357-7.5-7.5s3.358-7.5 7.5-7.5h118.689c4.142 0 7.5 3.357 7.5 7.5-.001 4.143-3.359 7.5-7.501 7.5z" fill="#ff92a7"/></g><g><path d="m432.823 253.845h-67.274c-4.142 0-7.5-3.357-7.5-7.5s3.358-7.5 7.5-7.5h67.274c4.142 0 7.5 3.357 7.5 7.5s-3.358 7.5-7.5 7.5z" fill="#ff92a7"/></g><g><path d="m338.439 253.845h-24.305c-4.142 0-7.5-3.357-7.5-7.5s3.358-7.5 7.5-7.5h24.305c4.142 0 7.5 3.357 7.5 7.5s-3.357 7.5-7.5 7.5z" fill="#ff92a7"/></g><g><path d="m224.841 452.367c-.566 0-1.142-.065-1.717-.199-4.033-.945-6.536-4.98-5.591-9.014l18.606-79.42c.945-4.032 4.978-6.539 9.013-5.592 4.033.945 6.536 4.98 5.591 9.014l-18.606 79.42c-.81 3.457-3.892 5.791-7.296 5.791z" fill="#e9efff"/></g><g><path d="m251.807 452.367c-.566 0-1.142-.065-1.717-.199-4.033-.945-6.536-4.98-5.591-9.014l18.607-79.42c.945-4.032 4.977-6.539 9.013-5.592 4.033.945 6.536 4.98 5.591 9.014l-18.607 79.42c-.81 3.457-3.892 5.791-7.296 5.791z" fill="#e9efff"/></g><g><path d="m277.287 398.771h-52.802c-4.142 0-7.5-3.357-7.5-7.5 0-4.142 3.358-7.5 7.5-7.5h52.802c4.142 0 7.5 3.358 7.5 7.5 0 4.143-3.358 7.5-7.5 7.5z" fill="#e9efff"/></g><g><path d="m270.918 426.099h-52.802c-4.142 0-7.5-3.357-7.5-7.5s3.358-7.5 7.5-7.5h52.802c4.142 0 7.5 3.357 7.5 7.5s-3.358 7.5-7.5 7.5z" fill="#e9efff"/></g><g><path d="m432.823 398.771h-118.688c-4.142 0-7.5-3.357-7.5-7.5 0-4.142 3.358-7.5 7.5-7.5h118.689c4.142 0 7.5 3.358 7.5 7.5-.001 4.143-3.359 7.5-7.501 7.5z" fill="#9bd8f9"/></g><g><path d="m432.823 426.099h-67.274c-4.142 0-7.5-3.357-7.5-7.5s3.358-7.5 7.5-7.5h67.274c4.142 0 7.5 3.357 7.5 7.5s-3.358 7.5-7.5 7.5z" fill="#9bd8f9"/></g><g><path d="m338.439 426.099h-24.305c-4.142 0-7.5-3.357-7.5-7.5s3.358-7.5 7.5-7.5h24.305c4.142 0 7.5 3.357 7.5 7.5s-3.357 7.5-7.5 7.5z" fill="#9bd8f9"/></g><g><path d="m259.736 104.914h-75.478c-4.142 0-7.5-3.357-7.5-7.5s3.358-7.5 7.5-7.5h75.478c4.142 0 7.5 3.357 7.5 7.5 0 4.142-3.358 7.5-7.5 7.5z" fill="#3c58a0"/></g><g><path d="m337.951 133.188h-153.694c-4.142 0-7.5-3.357-7.5-7.5s3.358-7.5 7.5-7.5h153.694c4.142 0 7.5 3.357 7.5 7.5s-3.358 7.5-7.5 7.5z" fill="#bec8f7"/></g></g></svg>