<?xml version="1.0"?>
<svg xmlns="http://www.w3.org/2000/svg" xmlns:xlink="http://www.w3.org/1999/xlink" xmlns:svgjs="http://svgjs.com/svgjs" version="1.1" width="512" height="512" x="0" y="0" viewBox="0 0 64 64" style="enable-background:new 0 0 512 512" xml:space="preserve" class=""><g><g xmlns="http://www.w3.org/2000/svg" id="Layer_20" data-name="Layer 20"><path d="M54,18H47V13a1,1,0,0,0-1-1H44.357a12.7,12.7,0,0,0-.791-1.91l1.162-1.161a1,1,0,0,0,0-1.414L40.485,3.272a1,1,0,0,0-1.414,0L37.91,4.433A12.9,12.9,0,0,0,36,3.643V2a1,1,0,0,0-1-1H29a1,1,0,0,0-1,1V3.643a12.9,12.9,0,0,0-1.91.79L24.929,3.272a1,1,0,0,0-1.414,0L19.272,7.515a1,1,0,0,0,0,1.414l1.162,1.161A12.7,12.7,0,0,0,19.643,12H18a1,1,0,0,0-1,1v5H10a1,1,0,0,0-1,1v6a1,1,0,0,0,1,1h2v3a1,1,0,0,0,.577.906L27,36.637V45a1,1,0,0,0,1.447.9l8-4A1,1,0,0,0,37,41V36.637l14.423-6.731A1,1,0,0,0,52,29V26h2a1,1,0,0,0,1-1V19A1,1,0,0,0,54,18ZM19,14h1.394a1,1,0,0,0,.968-.75,10.939,10.939,0,0,1,1.17-2.828,1,1,0,0,0-.154-1.215l-.984-.985,2.828-2.829.985.985a1,1,0,0,0,1.216.154,10.918,10.918,0,0,1,2.827-1.17A1,1,0,0,0,30,4.394V3h4V4.394a1,1,0,0,0,.75.968,10.918,10.918,0,0,1,2.827,1.17,1,1,0,0,0,1.216-.154l.985-.985,2.828,2.829-.984.985a1,1,0,0,0-.154,1.215,10.939,10.939,0,0,1,1.17,2.828,1,1,0,0,0,.968.75H45v4H40.768a9,9,0,1,0-17.536,0H19Zm6.29,4a7,7,0,1,1,13.42,0ZM50,28.363,35.577,35.094A1,1,0,0,0,35,36v4.382l-6,3V36a1,1,0,0,0-.577-.906L14,28.363V26H50ZM53,24H11V20H53Z" fill="#3979f8" data-original="#000000" style=""/><path d="M32,47a8,8,0,1,0,8,8A8.009,8.009,0,0,0,32,47Zm-6,8a6.006,6.006,0,0,1,5-5.91v1.094A2.993,2.993,0,0,0,32,56a1,1,0,1,1-1,1H29a3,3,0,0,0,2,2.816V60.91A6.006,6.006,0,0,1,26,55Zm7,5.91V59.816A2.993,2.993,0,0,0,32,54a1,1,0,1,1,1-1h2a3,3,0,0,0-2-2.816V49.09a5.993,5.993,0,0,1,0,11.82Z" fill="#3979f8" data-original="#000000" style=""/></g></g></svg>
