<?xml version="1.0"?>
<svg xmlns="http://www.w3.org/2000/svg" xmlns:xlink="http://www.w3.org/1999/xlink" xmlns:svgjs="http://svgjs.com/svgjs" version="1.1" width="512" height="512" x="0" y="0" viewBox="0 0 128 128" style="enable-background:new 0 0 512 512" xml:space="preserve" class=""><g><g xmlns="http://www.w3.org/2000/svg" id="Layer_2" fill="rgb(0,0,0)" data-name="Layer 2"><path d="m126.25 87.75h-7.622v-60a6.758 6.758 0 0 0 -6.75-6.75h-95.75a6.758 6.758 0 0 0 -6.75 6.75v60h-7.628a1.75 1.75 0 0 0 -1.75 1.75v7.75a9.761 9.761 0 0 0 9.75 9.75h108.5a9.761 9.761 0 0 0 9.75-9.75v-7.75a1.749 1.749 0 0 0 -1.75-1.75zm-113.372-60a3.254 3.254 0 0 1 3.25-3.25h95.75a3.254 3.254 0 0 1 3.25 3.25v60h-102.25zm30.622 63.5h41v1.125a3.254 3.254 0 0 1 -3.25 3.25h-34.5a3.254 3.254 0 0 1 -3.25-3.25zm81 6a6.257 6.257 0 0 1 -6.25 6.25h-108.5a6.257 6.257 0 0 1 -6.25-6.25v-6h36.5v1.125a6.758 6.758 0 0 0 6.75 6.75h34.5a6.758 6.758 0 0 0 6.75-6.75v-1.125h36.5z" fill="#3979f8" data-original="#000000" style="" class=""/><path d="m106.878 81.25a1.749 1.749 0 0 0 1.75-1.75v-46.75a1.749 1.749 0 0 0 -1.75-1.75h-85.75a1.75 1.75 0 0 0 -1.75 1.75v46.75a1.75 1.75 0 0 0 1.75 1.75zm-1.75-3.5h-35.261l-7.83-7.83v-14.214l11.1-11.1 7.7-3.035 4.71 4.709a1.742 1.742 0 0 0 1.046.5l13.981 1.541a1.787 1.787 0 0 0 .846-.116l3.7-1.492zm-82.25-43.25h28.122v5.958l-12.72 2.62a1.749 1.749 0 0 0 -1.4 1.714v7.088l-4.98 4.31h-9.022zm0 25.19h9.668a1.751 1.751 0 0 0 1.144-.425l6.091-5.26a1.749 1.749 0 0 0 .606-1.324v-6.462l12.72-2.62a1.749 1.749 0 0 0 1.4-1.714v-7.385h50.624v8.442l-4.609 1.858-12.932-1.428-5.09-5.086a1.747 1.747 0 0 0 -1.879-.39l-9.109 3.588a1.743 1.743 0 0 0 -.6.391l-11.862 11.869a1.752 1.752 0 0 0 -.513 1.237v15.664a1.752 1.752 0 0 0 .513 1.237l5.868 5.868h-42.04z" fill="#3979f8" data-original="#000000" style="" class=""/><path d="m82.289 48.565a9.374 9.374 0 0 0 -5.18 17.187 38.975 38.975 0 0 0 3.7 7.928 1.749 1.749 0 0 0 2.968 0 38.975 38.975 0 0 0 3.7-7.928 9.374 9.374 0 0 0 -5.18-17.187zm2.842 14.515a1.754 1.754 0 0 0 -.841 1.07 28.09 28.09 0 0 1 -2 4.986 28.09 28.09 0 0 1 -2-4.986 1.752 1.752 0 0 0 -.84-1.069 5.875 5.875 0 1 1 5.683 0z" fill="#3979f8" data-original="#000000" style="" class=""/><path d="m83.258 56.19h-1.938a1.75 1.75 0 0 0 0 3.5h1.938a1.75 1.75 0 0 0 0-3.5z" fill="#3979f8" data-original="#000000" style="" class=""/></g></g></svg>
