<svg id="Capa_1" enable-background="new 0 0 512 512" height="512" viewBox="0 0 512 512" width="512" xmlns="http://www.w3.org/2000/svg"><g><path d="m491.964 466.431h-471.928c-6.924 0-12.536-5.613-12.536-12.536v-29.046c0-6.924 5.613-12.536 12.536-12.536h471.927c6.924 0 12.536 5.613 12.536 12.536v29.046c.001 6.923-5.612 12.536-12.535 12.536z" fill="#365e7d"/><path d="m491.964 412.312h-26.441c6.924 0 12.536 5.613 12.536 12.536v29.046c0 6.924-5.613 12.536-12.536 12.536h26.441c6.924 0 12.536-5.613 12.536-12.536v-29.046c0-6.923-5.613-12.536-12.536-12.536z" fill="#2b4d66"/><path d="m291.138 442.37h-70.277c-2.229 0-4.218-1.398-4.972-3.496l-9.55-26.562h99.321l-9.55 26.562c-.754 2.097-2.743 3.496-4.972 3.496z" fill="#81a7c6"/><path d="m471.224 412.312h-430.448v-263.434c0-12.873 10.436-23.309 23.309-23.309h383.83c12.873 0 23.309 10.436 23.309 23.309z" fill="#365e7d"/><path d="m447.915 125.569h-29.999c12.873 0 23.309 10.436 23.309 23.309v223.977c0 12.954-10.501 23.455-23.455 23.455h-376.994v16.003h430.448v-263.435c0-12.873-10.436-23.309-23.309-23.309z" fill="#2b4d66"/><path d="m70.776 378.145v-218.409c0-2.301 1.866-4.167 4.167-4.167h362.114c2.301 0 4.167 1.866 4.167 4.167v218.409c0 2.301-1.866 4.167-4.167 4.167h-362.114c-2.301 0-4.167-1.866-4.167-4.167z" fill="#cbe2ff"/><path d="m437.057 155.569h-22.375c2.301 0 4.167 1.866 4.167 4.167v218.409c0 2.301-1.866 4.167-4.167 4.167h22.375c2.301 0 4.167-1.866 4.167-4.167v-218.409c0-2.301-1.866-4.167-4.167-4.167z" fill="#bed8fb"/><path d="m294.323 266.321-55.886-36.126c-2.075-1.342-4.812.148-4.812 2.619v72.253c0 2.471 2.737 3.961 4.812 2.619l55.886-36.126c1.901-1.229 1.901-4.01 0-5.239z" fill="#da4a54"/><path d="m232.256 45.569h-123.478c-3.14 0-5.685 2.545-5.685 5.685v136.925c0 3.14 2.545 5.685 5.685 5.685h18.829c2.214 0 4.227 1.286 5.158 3.295l6.279 13.554c1.172 2.53 4.769 2.53 5.941 0l6.279-13.554c.931-2.009 2.944-3.295 5.158-3.295h75.834c3.14 0 5.685-2.545 5.685-5.685v-136.925c0-3.14-2.546-5.685-5.685-5.685z" fill="#f9f6f9"/><g><path d="m232.256 45.569h-20.564c3.14 0 5.685 2.545 5.685 5.685v136.925c0 3.14-2.545 5.685-5.685 5.685h20.564c3.14 0 5.685-2.545 5.685-5.685v-136.925c0-3.14-2.546-5.685-5.685-5.685z" fill="#dddaec"/></g><path d="m403.222 45.569h-123.478c-3.14 0-5.685 2.545-5.685 5.685v136.925c0 3.14 2.545 5.685 5.685 5.685h18.829c2.214 0 4.227 1.286 5.158 3.295l6.279 13.554c1.172 2.53 4.769 2.53 5.941 0l6.279-13.554c.931-2.009 2.944-3.295 5.158-3.295h75.834c3.14 0 5.685-2.545 5.685-5.685v-136.925c0-3.14-2.546-5.685-5.685-5.685z" fill="#ffd064"/><g><path d="m403.222 45.569h-20.564c3.14 0 5.685 2.545 5.685 5.685v136.925c0 3.14-2.545 5.685-5.685 5.685h20.564c3.14 0 5.685-2.545 5.685-5.685v-136.925c0-3.14-2.546-5.685-5.685-5.685z" fill="#ebb044"/></g><g><path d="m298.394 260.022-55.886-36.126c-3.27-2.112-7.424-2.269-10.841-.408-3.418 1.86-5.542 5.434-5.542 9.326v72.252c0 3.892 2.123 7.466 5.542 9.326 1.588.865 3.334 1.294 5.078 1.294 2.009 0 4.014-.57 5.765-1.701l55.884-36.126c3.04-1.965 4.855-5.299 4.855-8.919 0-3.619-1.815-6.953-4.855-8.918zm-57.269 36.997v-56.155l43.434 28.077zm49.118-24.405.009.006s.001 0 .001.001c-.003-.003-.007-.005-.01-.007z"/><path d="m171.434 83.196h38.166c4.142 0 7.5-3.358 7.5-7.5s-3.358-7.5-7.5-7.5h-38.167c-4.142 0-7.5 3.358-7.5 7.5s3.359 7.5 7.501 7.5z"/><path d="m209.6 97.563h-78.167c-4.142 0-7.5 3.358-7.5 7.5s3.358 7.5 7.5 7.5h78.167c4.142 0 7.5-3.358 7.5-7.5s-3.358-7.5-7.5-7.5z"/><path d="m209.6 126.93h-78.167c-4.142 0-7.5 3.358-7.5 7.5s3.358 7.5 7.5 7.5h78.167c4.142 0 7.5-3.358 7.5-7.5s-3.358-7.5-7.5-7.5z"/><path d="m209.6 156.297h-78.167c-4.142 0-7.5 3.358-7.5 7.5s3.358 7.5 7.5 7.5h78.167c4.142 0 7.5-3.358 7.5-7.5s-3.358-7.5-7.5-7.5z"/><path d="m312.019 143.783 4.393 18.38c.823 3.443 3.897 5.758 7.289 5.758.577 0 1.163-.067 1.749-.207 4.029-.963 6.515-5.009 5.552-9.038l-3.365-14.08h1.08l26.612 9.959c.853.319 1.742.476 2.628.476 1.508 0 3.002-.455 4.275-1.337 2.021-1.401 3.226-3.704 3.226-6.163v-52.75c0-2.459-1.205-4.762-3.226-6.163-2.021-1.4-4.598-1.724-6.903-.861l-26.612 9.959h-10.584c-12.925 0-23.44 10.515-23.44 23.44-.001 10.811 7.357 19.931 17.326 22.627zm38.439-7.066-12.883-4.821v-21.478l12.883-4.821zm-32.326-24h4.442v16.88h-4.442c-4.654 0-8.44-3.786-8.44-8.44s3.786-8.44 8.44-8.44z"/><path d="m379.87 128.657h5.126c4.143 0 7.5-3.358 7.5-7.5s-3.357-7.5-7.5-7.5h-5.126c-4.143 0-7.5 3.358-7.5 7.5s3.357 7.5 7.5 7.5z"/><path d="m379.918 107.154c.562 0 1.134-.063 1.705-.196l5.015-1.166c4.035-.938 6.545-4.969 5.606-9.004-.938-4.034-4.972-6.544-9.003-5.606l-5.015 1.166c-4.035.938-6.545 4.969-5.606 9.004.805 3.462 3.889 5.802 7.298 5.802z"/><path d="m386.638 136.522-5.015-1.166c-4.034-.94-8.066 1.572-9.003 5.606-.938 4.035 1.571 8.066 5.606 9.004l5.015 1.166c.571.133 1.143.196 1.705.196 3.408 0 6.493-2.34 7.298-5.803.939-4.033-1.571-8.065-5.606-9.003z"/><path d="m119.088 312.54h-12.808c-4.142 0-7.5 3.357-7.5 7.5s3.358 7.5 7.5 7.5h12.808c4.142 0 7.5-3.357 7.5-7.5s-3.358-7.5-7.5-7.5z"/><path d="m195.428 312.54h-52.808c-4.142 0-7.5 3.357-7.5 7.5s3.358 7.5 7.5 7.5h52.808c4.142 0 7.5-3.357 7.5-7.5s-3.358-7.5-7.5-7.5z"/><path d="m119.088 337.791h-12.808c-4.142 0-7.5 3.357-7.5 7.5s3.358 7.5 7.5 7.5h12.808c4.142 0 7.5-3.357 7.5-7.5s-3.358-7.5-7.5-7.5z"/><path d="m195.428 337.791h-52.808c-4.142 0-7.5 3.357-7.5 7.5s3.358 7.5 7.5 7.5h52.808c4.142 0 7.5-3.357 7.5-7.5s-3.358-7.5-7.5-7.5z"/><path d="m329.379 312.54h-12.809c-4.143 0-7.5 3.357-7.5 7.5s3.357 7.5 7.5 7.5h12.809c4.143 0 7.5-3.357 7.5-7.5s-3.357-7.5-7.5-7.5z"/><path d="m405.719 312.54h-52.808c-4.143 0-7.5 3.357-7.5 7.5s3.357 7.5 7.5 7.5h52.808c4.143 0 7.5-3.357 7.5-7.5s-3.357-7.5-7.5-7.5z"/><path d="m329.379 337.791h-12.809c-4.143 0-7.5 3.357-7.5 7.5s3.357 7.5 7.5 7.5h12.809c4.143 0 7.5-3.357 7.5-7.5s-3.357-7.5-7.5-7.5z"/><path d="m405.719 337.791h-52.808c-4.143 0-7.5 3.357-7.5 7.5s3.357 7.5 7.5 7.5h52.808c4.143 0 7.5-3.357 7.5-7.5s-3.357-7.5-7.5-7.5z"/><path d="m491.963 404.812h-13.239v-255.935c0-16.988-13.821-30.809-30.81-30.809h-31.508v-66.814c0-7.27-5.915-13.185-13.185-13.185h-123.477c-7.27 0-13.185 5.915-13.185 13.185v66.815h-21.119v-66.815c0-7.27-5.915-13.185-13.185-13.185h-58.454c-4.142 0-7.5 3.358-7.5 7.5s3.358 7.5 7.5 7.5h56.639v133.294h-74.019c-5.117 0-9.813 3-11.963 7.643l-2.444 5.276-2.444-5.276c-2.151-4.643-6.847-7.643-11.964-7.643h-17.013v-133.294h33.222c4.142 0 7.5-3.358 7.5-7.5s-3.358-7.5-7.5-7.5h-35.037c-7.27 0-13.185 5.915-13.185 13.185v66.815h-31.508c-16.988 0-30.809 13.821-30.809 30.809v255.935h-13.24c-11.048-.001-20.036 8.988-20.036 20.036v29.046c0 11.048 8.988 20.036 20.036 20.036h96.404c4.142 0 7.5-3.357 7.5-7.5s-3.358-7.5-7.5-7.5h-96.404c-2.777 0-5.036-2.259-5.036-5.036v-29.046c0-2.777 2.259-5.036 5.036-5.036h181.03l7.766 21.6c1.819 5.059 6.654 8.458 12.029 8.458h70.277c5.377 0 10.211-3.399 12.029-8.458l7.767-21.6h181.029c2.777 0 5.036 2.259 5.036 5.036v29.046c0 2.777-2.259 5.036-5.036 5.036h-345.536c-4.142 0-7.5 3.357-7.5 7.5s3.358 7.5 7.5 7.5h345.537c11.048 0 20.036-8.988 20.036-20.036v-29.046c0-11.048-8.989-20.037-20.037-20.037zm-210.404-351.743h119.848v133.294h-74.019c-5.117 0-9.813 3-11.963 7.643l-2.445 5.276-2.443-5.276c-2.15-4.643-6.847-7.643-11.964-7.643h-17.014zm-15 80v15h-21.119v-15zm23.021 301.801h-67.16l-5.414-15.058h77.988zm-241.304-30.058v-255.935c0-8.717 7.092-15.809 15.809-15.809h31.508v15h-20.65c-6.433 0-11.667 5.234-11.667 11.667v218.409c0 6.434 5.234 11.668 11.667 11.668h362.114c6.434 0 11.667-5.234 11.667-11.668v-136.066c0-4.142-3.357-7.5-7.5-7.5s-7.5 3.358-7.5 7.5v132.735h-355.448v-211.744h17.317v25.109c0 7.271 5.915 13.185 13.185 13.185h17.669l5.792 12.501c1.785 3.852 5.531 6.245 9.776 6.245s7.991-2.393 9.776-6.245l5.792-12.501h74.674c7.27 0 13.185-5.915 13.185-13.185v-25.109h21.119v25.109c0 7.271 5.915 13.185 13.185 13.185h17.669l5.792 12.503c1.785 3.852 5.532 6.244 9.777 6.244 4.245-.001 7.99-2.394 9.773-6.245l5.792-12.501h74.675c7.27 0 13.185-5.915 13.185-13.185v-25.109h17.317v49.021c0 4.142 3.357 7.5 7.5 7.5s7.5-3.358 7.5-7.5v-52.354c0-6.433-5.233-11.667-11.667-11.667h-20.65v-15h31.508c8.718 0 15.81 7.092 15.81 15.809v255.935h-415.451z"/></g></g></svg>