<?xml version="1.0"?>
<svg xmlns="http://www.w3.org/2000/svg" xmlns:xlink="http://www.w3.org/1999/xlink" xmlns:svgjs="http://svgjs.com/svgjs" version="1.1" width="512" height="512" x="0" y="0" viewBox="0 0 512 512" style="enable-background:new 0 0 512 512" xml:space="preserve" class=""><g>
<path xmlns="http://www.w3.org/2000/svg" style="" d="M179.2,204.8c0-47.13-38.204-85.333-85.333-85.333S8.533,157.67,8.533,204.8  c0,31.565,17.186,59.059,42.667,73.822v-22.494c0-9.498,8.021-17.195,17.911-17.195h49.51c9.89,0,17.911,7.697,17.911,17.195v22.477  C162.022,263.868,179.2,236.365,179.2,204.8z" fill="#efd500" data-original="#366db6" class=""/>
<g xmlns="http://www.w3.org/2000/svg">
	<circle style="" cx="477.867" cy="136.533" r="25.6" fill="#dd352e" data-original="#dd352e"/>
	<circle style="" cx="34.133" cy="418.133" r="25.6" fill="#dd352e" data-original="#dd352e"/>
	<circle style="" cx="384" cy="477.867" r="25.6" fill="#dd352e" data-original="#dd352e"/>
	<circle style="" cx="256" cy="264.533" r="25.6" fill="#dd352e" data-original="#dd352e"/>
</g>
<g xmlns="http://www.w3.org/2000/svg">
	<circle style="" cx="93.867" cy="179.2" r="25.6" fill="#ffffff" data-original="#ffffff"/>
	<path style="" d="M118.622,238.933h-49.51c-9.89,0-17.911,7.697-17.911,17.195v22.494   c12.561,7.279,27.102,11.511,42.667,11.511s30.106-4.233,42.667-11.511v-22.494C136.533,246.63,128.512,238.933,118.622,238.933z" fill="#ffffff" data-original="#ffffff"/>
</g>
<path xmlns="http://www.w3.org/2000/svg" style="" d="M384,93.867c0-47.13-38.204-85.333-85.333-85.333s-85.333,38.204-85.333,85.333  c0,31.565,17.186,59.059,42.667,73.822v-22.494c0-9.498,8.021-17.195,17.911-17.195h49.51c9.89,0,17.911,7.697,17.911,17.195v22.477  C366.822,152.934,384,125.431,384,93.867z" fill="#efd500" data-original="#366db6" class=""/>
<g xmlns="http://www.w3.org/2000/svg">
	<circle style="" cx="298.667" cy="68.267" r="25.6" fill="#ffffff" data-original="#ffffff"/>
	<path style="" d="M323.422,128h-49.51c-9.89,0-17.911,7.697-17.911,17.195v22.494   c12.561,7.279,27.102,11.511,42.667,11.511s30.106-4.233,42.667-11.511v-22.494C341.333,135.697,333.312,128,323.422,128z" fill="#ffffff" data-original="#ffffff"/>
</g>
<path xmlns="http://www.w3.org/2000/svg" style="" d="M494.933,315.733c0-47.13-38.204-85.333-85.333-85.333s-85.333,38.204-85.333,85.333  c0,31.565,17.186,59.059,42.667,73.822v-22.494c0-9.498,8.021-17.195,17.911-17.195h49.51c9.89,0,17.911,7.697,17.911,17.195v22.477  C477.756,374.801,494.933,347.298,494.933,315.733z" fill="#efd500" data-original="#366db6" class=""/>
<g xmlns="http://www.w3.org/2000/svg">
	<circle style="" cx="409.6" cy="290.133" r="25.6" fill="#ffffff" data-original="#ffffff"/>
	<path style="" d="M434.355,349.867h-49.51c-9.89,0-17.911,7.697-17.911,17.195v22.494   c12.561,7.279,27.102,11.511,42.667,11.511c15.565,0,30.106-4.233,42.667-11.511v-22.494   C452.267,357.564,444.245,349.867,434.355,349.867z" fill="#ffffff" data-original="#ffffff"/>
</g>
<path xmlns="http://www.w3.org/2000/svg" style="" d="M290.133,418.133c0-47.13-38.204-85.333-85.333-85.333s-85.333,38.204-85.333,85.333  c0,31.565,17.186,59.059,42.667,73.822v-22.494c0-9.498,8.021-17.195,17.911-17.195h49.51c9.89,0,17.911,7.697,17.911,17.195v22.477  C272.956,477.201,290.133,449.698,290.133,418.133z" fill="#efd500" data-original="#366db6" class=""/>
<g xmlns="http://www.w3.org/2000/svg">
	<circle style="" cx="204.8" cy="392.533" r="25.6" fill="#ffffff" data-original="#ffffff"/>
	<path style="" d="M229.555,452.267h-49.51c-9.89,0-17.911,7.697-17.911,17.195v22.494   c12.561,7.279,27.102,11.511,42.667,11.511s30.106-4.233,42.667-11.511v-22.494C247.467,459.964,239.445,452.267,229.555,452.267z" fill="#ffffff" data-original="#ffffff"/>
</g>
<circle xmlns="http://www.w3.org/2000/svg" style="" cx="93.867" cy="34.133" r="25.6" fill="#dd352e" data-original="#dd352e"/>
<g xmlns="http://www.w3.org/2000/svg">
	<path style="" d="M477.867,170.667c-18.825,0-34.133-15.309-34.133-34.133s15.309-34.133,34.133-34.133   c18.825,0,34.133,15.309,34.133,34.133S496.691,170.667,477.867,170.667z M477.867,119.467c-9.412,0-17.067,7.654-17.067,17.067   c0,9.412,7.654,17.067,17.067,17.067c9.412,0,17.067-7.654,17.067-17.067S487.279,119.467,477.867,119.467z" fill="#0c0014" data-original="#4d007e" class=""/>
	<path style="" d="M34.133,452.267C15.309,452.267,0,436.958,0,418.133C0,399.309,15.309,384,34.133,384   s34.133,15.309,34.133,34.133C68.267,436.958,52.958,452.267,34.133,452.267z M34.133,401.067c-9.412,0-17.067,7.654-17.067,17.067   c0,9.412,7.654,17.067,17.067,17.067S51.2,427.546,51.2,418.133C51.2,408.721,43.546,401.067,34.133,401.067z" fill="#0c0014" data-original="#4d007e" class=""/>
	<path style="" d="M457.609,129.408c-1.246,0-2.509-0.273-3.703-0.853l-73.617-35.541   c-4.241-2.048-6.025-7.151-3.977-11.392c2.048-4.241,7.142-6.033,11.392-3.977l73.617,35.541c4.241,2.048,6.025,7.151,3.977,11.392   C463.829,127.633,460.783,129.408,457.609,129.408z" fill="#0c0014" data-original="#4d007e" class=""/>
	<path style="" d="M384,512c-18.825,0-34.133-15.309-34.133-34.133c0-18.825,15.309-34.133,34.133-34.133   c18.825,0,34.133,15.309,34.133,34.133C418.133,496.691,402.825,512,384,512z M384,460.8c-9.412,0-17.067,7.654-17.067,17.067   c0,9.412,7.654,17.067,17.067,17.067c9.412,0,17.067-7.654,17.067-17.067C401.067,468.454,393.412,460.8,384,460.8z" fill="#0c0014" data-original="#4d007e" class=""/>
	<path style="" d="M363.742,470.741c-1.246,0-2.509-0.273-3.703-0.853l-73.617-35.541   c-4.241-2.048-6.025-7.151-3.977-11.392c2.048-4.25,7.142-6.033,11.392-3.977l73.617,35.541c4.241,2.048,6.025,7.151,3.977,11.392   C369.963,468.966,366.916,470.741,363.742,470.741z" fill="#0c0014" data-original="#4d007e" class=""/>
	<path style="" d="M256,298.667c-18.825,0-34.133-15.309-34.133-34.133c0-18.825,15.309-34.133,34.133-34.133   c18.825,0,34.133,15.309,34.133,34.133S274.825,298.667,256,298.667z M256,247.467c-9.412,0-17.067,7.654-17.067,17.067   c0,9.412,7.654,17.067,17.067,17.067c9.412,0,17.067-7.654,17.067-17.067C273.067,255.121,265.412,247.467,256,247.467z" fill="#0c0014" data-original="#4d007e" class=""/>
	<path style="" d="M235.742,257.408c-1.835,0-3.678-0.589-5.239-1.801l-56.55-44.075   c-3.721-2.901-4.378-8.26-1.485-11.981c2.901-3.721,8.26-4.361,11.981-1.485l56.55,44.075c3.721,2.901,4.378,8.26,1.485,11.981   C240.794,256.282,238.285,257.408,235.742,257.408z" fill="#0c0014" data-original="#4d007e" class=""/>
	<path style="" d="M409.6,409.6c-51.755,0-93.867-42.112-93.867-93.867s42.112-93.867,93.867-93.867   s93.867,42.112,93.867,93.867S461.355,409.6,409.6,409.6z M409.6,238.933c-42.351,0-76.8,34.449-76.8,76.8s34.449,76.8,76.8,76.8   s76.8-34.449,76.8-76.8S451.951,238.933,409.6,238.933z" fill="#0c0014" data-original="#4d007e" class=""/>
	<path style="" d="M409.6,324.267c-18.825,0-34.133-15.309-34.133-34.133c0-18.825,15.309-34.133,34.133-34.133   c18.825,0,34.133,15.309,34.133,34.133C443.733,308.958,428.425,324.267,409.6,324.267z M409.6,273.067   c-9.412,0-17.067,7.654-17.067,17.067c0,9.412,7.654,17.067,17.067,17.067c9.412,0,17.067-7.654,17.067-17.067   C426.667,280.721,419.012,273.067,409.6,273.067z" fill="#0c0014" data-original="#4d007e" class=""/>
	<path style="" d="M409.6,409.6c-16.41,0-32.64-4.378-46.942-12.655c-2.637-1.527-4.258-4.343-4.258-7.39v-22.494   c0-14.182,11.861-25.728,26.445-25.728h49.51c14.583,0,26.445,11.546,26.445,25.737v22.494c0,3.038-1.621,5.862-4.258,7.381   C442.24,405.222,426.01,409.6,409.6,409.6z M375.467,384.469c21.239,10.581,47.027,10.581,68.267,0V367.07   c0-4.779-4.207-8.67-9.378-8.67h-49.51c-5.171,0-9.378,3.891-9.378,8.67V384.469z M452.267,389.555h0.085H452.267z" fill="#0c0014" data-original="#4d007e" class=""/>
	<path style="" d="M204.8,512c-51.755,0-93.867-42.112-93.867-93.867s42.112-93.867,93.867-93.867   s93.867,42.112,93.867,93.867S256.555,512,204.8,512z M204.8,341.333c-42.351,0-76.8,34.449-76.8,76.8s34.449,76.8,76.8,76.8   s76.8-34.449,76.8-76.8S247.151,341.333,204.8,341.333z" fill="#0c0014" data-original="#4d007e" class=""/>
	<path style="" d="M204.8,426.667c-18.825,0-34.133-15.309-34.133-34.133S185.975,358.4,204.8,358.4   s34.133,15.309,34.133,34.133S223.625,426.667,204.8,426.667z M204.8,375.467c-9.412,0-17.067,7.654-17.067,17.067   S195.388,409.6,204.8,409.6c9.412,0,17.067-7.654,17.067-17.067S214.212,375.467,204.8,375.467z" fill="#0c0014" data-original="#4d007e" class=""/>
	<path style="" d="M204.8,512c-16.41,0-32.64-4.378-46.942-12.655c-2.637-1.527-4.258-4.343-4.258-7.39v-22.494   c0-14.182,11.861-25.728,26.445-25.728h49.51c14.583,0,26.445,11.546,26.445,25.737v22.494c0,3.038-1.621,5.862-4.258,7.381   C237.44,507.622,221.21,512,204.8,512z M170.667,486.869c21.239,10.581,47.027,10.581,68.267,0V469.47   c0-4.779-4.207-8.67-9.378-8.67h-49.51c-5.171,0-9.378,3.891-9.378,8.67V486.869z M247.467,491.955h0.085H247.467z" fill="#0c0014" data-original="#4d007e" class=""/>
	<path style="" d="M93.867,298.667C42.112,298.667,0,256.555,0,204.8s42.112-93.867,93.867-93.867   s93.867,42.112,93.867,93.867S145.621,298.667,93.867,298.667z M93.867,128c-42.351,0-76.8,34.449-76.8,76.8s34.449,76.8,76.8,76.8   s76.8-34.449,76.8-76.8S136.218,128,93.867,128z" fill="#0c0014" data-original="#4d007e" class=""/>
	<path style="" d="M93.867,213.333c-18.825,0-34.133-15.309-34.133-34.133s15.309-34.133,34.133-34.133   S128,160.375,128,179.2S112.691,213.333,93.867,213.333z M93.867,162.133c-9.412,0-17.067,7.654-17.067,17.067   s7.654,17.067,17.067,17.067s17.067-7.654,17.067-17.067S103.279,162.133,93.867,162.133z" fill="#0c0014" data-original="#4d007e" class=""/>
	<path style="" d="M93.867,298.667c-16.41,0-32.64-4.378-46.942-12.655c-2.637-1.527-4.258-4.343-4.258-7.39v-22.494   c0-14.182,11.861-25.728,26.445-25.728h49.51c14.583,0,26.445,11.546,26.445,25.737v22.494c0,3.038-1.621,5.862-4.258,7.381   C126.507,294.289,110.276,298.667,93.867,298.667z M59.733,273.536c21.239,10.581,47.027,10.581,68.267,0v-17.399   c0-4.779-4.207-8.67-9.378-8.67h-49.51c-5.171,0-9.378,3.891-9.378,8.67V273.536z M136.533,278.622h0.085H136.533z" fill="#0c0014" data-original="#4d007e" class=""/>
	<path style="" d="M298.667,187.733c-51.755,0-93.867-42.112-93.867-93.867S246.912,0,298.667,0   s93.867,42.112,93.867,93.867S350.421,187.733,298.667,187.733z M298.667,17.067c-42.351,0-76.8,34.449-76.8,76.8   s34.449,76.8,76.8,76.8s76.8-34.449,76.8-76.8S341.018,17.067,298.667,17.067z" fill="#0c0014" data-original="#4d007e" class=""/>
	<path style="" d="M298.667,102.4c-18.825,0-34.133-15.309-34.133-34.133s15.309-34.133,34.133-34.133   S332.8,49.442,332.8,68.267S317.491,102.4,298.667,102.4z M298.667,51.2c-9.412,0-17.067,7.654-17.067,17.067   s7.654,17.067,17.067,17.067c9.412,0,17.067-7.654,17.067-17.067S308.079,51.2,298.667,51.2z" fill="#0c0014" data-original="#4d007e" class=""/>
	<path style="" d="M298.667,187.733c-16.41,0-32.64-4.378-46.942-12.655c-2.637-1.527-4.258-4.343-4.258-7.39v-22.494   c0-14.182,11.861-25.728,26.445-25.728h49.51c14.583,0,26.445,11.546,26.445,25.737v22.494c0,3.038-1.621,5.862-4.258,7.381   C331.307,183.356,315.076,187.733,298.667,187.733z M264.533,162.603c21.239,10.581,47.027,10.581,68.267,0v-17.399   c0-4.779-4.207-8.67-9.378-8.67h-49.51c-5.171,0-9.378,3.891-9.378,8.67V162.603z M341.333,167.689h0.085H341.333z" fill="#0c0014" data-original="#4d007e" class=""/>
	<path style="" d="M154.206,153.003c-2.406,0-4.796-1.015-6.485-2.987c-3.063-3.584-2.645-8.969,0.939-12.032   l59.136-50.603c3.584-3.063,8.969-2.637,12.032,0.93c3.063,3.584,2.645,8.969-0.939,12.032l-59.136,50.603   C158.14,152.329,156.169,153.003,154.206,153.003z" fill="#0c0014" data-original="#4d007e" class=""/>
	<path style="" d="M401.075,238.933c-2.594,0-5.154-1.178-6.835-3.413l-51.2-68.267   c-2.825-3.763-2.065-9.114,1.707-11.938c3.772-2.816,9.122-2.074,11.947,1.707l51.2,68.267c2.825,3.763,2.065,9.114-1.707,11.938   C404.651,238.379,402.85,238.933,401.075,238.933z" fill="#0c0014" data-original="#4d007e" class=""/>
	<path style="" d="M283.375,393.344c-2.594,0-5.154-1.178-6.835-3.413c-2.825-3.763-2.065-9.114,1.707-11.938   l47.667-35.746c3.772-2.825,9.122-2.065,11.947,1.707c2.825,3.763,2.065,9.114-1.707,11.938l-47.667,35.746   C286.95,392.781,285.158,393.344,283.375,393.344z" fill="#0c0014" data-original="#4d007e" class=""/>
	<path style="" d="M119.467,426.667H59.733c-4.71,0-8.533-3.814-8.533-8.533c0-4.719,3.823-8.533,8.533-8.533h59.733   c4.71,0,8.533,3.814,8.533,8.533C128,422.852,124.177,426.667,119.467,426.667z" fill="#0c0014" data-original="#4d007e" class=""/>
	<path style="" d="M93.867,68.267c-18.825,0-34.133-15.309-34.133-34.133S75.042,0,93.867,0S128,15.309,128,34.133   S112.691,68.267,93.867,68.267z M93.867,17.067c-9.412,0-17.067,7.654-17.067,17.067S84.454,51.2,93.867,51.2   s17.067-7.654,17.067-17.067S103.279,17.067,93.867,17.067z" fill="#0c0014" data-original="#4d007e" class=""/>
	<path style="" d="M93.867,128c-4.71,0-8.533-3.814-8.533-8.533V59.733c0-4.719,3.823-8.533,8.533-8.533   c4.71,0,8.533,3.814,8.533,8.533v59.733C102.4,124.186,98.577,128,93.867,128z" fill="#0c0014" data-original="#4d007e" class=""/>
</g>
<g xmlns="http://www.w3.org/2000/svg">
</g>
<g xmlns="http://www.w3.org/2000/svg">
</g>
<g xmlns="http://www.w3.org/2000/svg">
</g>
<g xmlns="http://www.w3.org/2000/svg">
</g>
<g xmlns="http://www.w3.org/2000/svg">
</g>
<g xmlns="http://www.w3.org/2000/svg">
</g>
<g xmlns="http://www.w3.org/2000/svg">
</g>
<g xmlns="http://www.w3.org/2000/svg">
</g>
<g xmlns="http://www.w3.org/2000/svg">
</g>
<g xmlns="http://www.w3.org/2000/svg">
</g>
<g xmlns="http://www.w3.org/2000/svg">
</g>
<g xmlns="http://www.w3.org/2000/svg">
</g>
<g xmlns="http://www.w3.org/2000/svg">
</g>
<g xmlns="http://www.w3.org/2000/svg">
</g>
<g xmlns="http://www.w3.org/2000/svg">
</g>
</g></svg>
